<svg width="391" height="139" viewBox="0 0 391 139" fill="none" xmlns="http://www.w3.org/2000/svg">
<path d="M32.87 0.339844C42.57 0.339844 50.2 3.27985 55.76 9.16985C61.43 3.27985 69.06 0.339844 78.66 0.339844C89.23 0.339844 97.3299 3.74985 102.94 10.5598C108.55 17.3698 111.36 26.8898 111.36 39.0998V82.1499H91.74V34.0298C91.74 28.5798 90.38 24.5998 87.65 22.0898C84.92 19.5798 81.93 18.3298 78.66 18.3298C75.39 18.3298 72.22 19.5798 69.5 22.0898C66.77 24.5998 65.41 28.5798 65.41 34.0298V82.1499H45.95V34.0298C45.95 28.5798 44.59 24.5998 41.86 22.0898C39.13 19.5798 36.14 18.3298 32.87 18.3298C29.6 18.3298 26.43 19.5798 23.71 22.0898C20.98 24.5998 19.62 28.5798 19.62 34.0298V82.1499H0V39.0998C0 26.8898 2.83 17.3798 8.5 10.5598C14.17 3.74985 22.29 0.339844 32.87 0.339844Z" fill="#EB665F"/>
<path d="M281.24 0.339844C281.24 0.339844 262.58 44.2698 256.37 58.8598C255.63 60.6098 253.16 60.6098 252.42 58.8598C246.22 44.2698 227.55 0.339844 227.55 0.339844H207.19L237.05 70.6199C243.55 85.9299 265.25 85.9299 271.75 70.6199L301.61 0.339844H281.25H281.24Z" fill="#F3CD6C"/>
<path d="M162.18 82.1499C150.08 82.1499 140.76 78.7399 134.22 71.9299C127.68 65.1199 124.41 55.6098 124.41 43.3898V0.339844H144.03V46.1698C144.03 51.6198 145.72 55.9798 149.1 59.2498C152.48 62.5198 156.84 64.1598 162.18 64.1598C167.52 64.1598 171.88 62.5198 175.26 59.2498C178.64 55.9798 180.33 51.6198 180.33 46.1698V0.339844H199.95V43.3898C199.95 55.5998 196.68 65.1099 190.14 71.9299C183.6 78.7399 174.28 82.1499 162.18 82.1499Z" fill="#EB665F"/>
<path d="M343.59 81.8C342.44 81.8 341.29 81.76 340.15 81.67C327.25 80.71 317.36 74.38 312.32 63.86C311.96 63.11 311.62 62.35 311.31 61.6C300.88 62.8 293.06 62.71 292.34 62.7L292.64 45.07L292.49 53.88L292.63 45.07C292.7 45.07 299.14 45.16 307.87 44.24C307.97 34.49 311.45 24.94 318.15 16.78C328.94 3.64997 345.94 -2.67003 360.44 1.05997C367.01 2.74997 371.92 8.15997 373.27 15.18C376.16 30.27 361.96 42.48 355.73 47.03C348.26 52.48 338.81 56.04 329.5 58.36C331.99 61.75 336 63.67 341.47 64.08C353.87 65.01 369.09 57.64 376.09 47.32L390.69 57.21C380.78 71.83 361.44 81.79 343.61 81.79L343.59 81.8ZM351.82 17.63C344.84 17.63 337.09 21.52 331.77 27.99C329.86 30.31 326.71 34.96 325.77 41.16C333.97 39.08 340.62 36.25 345.34 32.81C354.69 25.98 355.99 20.93 355.99 19.54C355.99 17.64 353.2 17.64 351.83 17.64L351.82 17.63Z" fill="#F3CD6C"/>
<path d="M209.36 133.57C209.42 132.82 209.48 132.13 209.55 131.32C209.93 120.93 210.74 110.23 211.74 99.8399V98.7799C211.74 96.9699 211.74 94.8999 214.24 94.8999C216.74 94.8999 223.32 97.2799 224.88 98.2799C228.26 100.22 229.95 103.16 229.95 106.48C229.95 111.05 227.51 113.99 223.75 116.18C222.94 116.68 222.19 117.18 221.43 117.75C222.93 118.63 223.87 120.5 224.5 122.01C224.81 123.14 225.06 124.26 225.06 125.39C225.06 130.9 220.3 135.53 215.3 137.6C213.61 138.29 212.36 138.6 211.48 138.6C209.67 138.6 209.23 137.47 209.23 135.78C209.23 135.09 209.29 134.4 209.36 133.59V133.57ZM213.87 132C213.93 132 214.06 131.94 214.12 131.94L213.87 132ZM220 125.18C220 124.3 219.69 123.49 219.12 122.61C218.56 121.98 216.55 120.48 215.43 120.42C215.31 120.48 215.18 120.61 215.12 120.73C214.81 124.36 214.62 128.05 214.62 131.75C217.25 130.62 220 127.99 220 125.18ZM216.56 101.52V103.09L216.18 106.84C215.93 108.84 215.68 110.85 215.55 112.79V113.73C215.55 113.98 215.55 114.23 215.68 114.23C215.87 114.23 216.31 114.17 216.62 114.04C219.87 113.1 224.88 110.1 224.88 106.4C224.88 105.84 224.82 105.21 224.57 104.65C223.88 103.4 221.25 102.21 219.81 101.77C219.5 101.58 217.12 101.02 216.49 100.89C216.49 100.95 216.55 101.2 216.55 101.51L216.56 101.52Z" fill="white"/>
<path d="M245.66 132.63C245.66 129.75 244.6 123.55 242.78 121.8C242.03 121.17 241.22 120.99 240.28 120.99C240.03 121.24 239.53 124.75 239.28 126.62C239.22 127.06 239.16 127.43 239.09 127.62C239.03 128.18 238.96 128.93 238.9 129.75C238.78 131.82 238.59 134.38 238.02 135.51C237.52 136.45 236.39 136.95 235.45 136.95C234.39 136.95 233.45 136.39 233.26 135.01C233.57 130.32 234.26 125.5 234.95 120.74C235.39 117.92 235.83 115.17 236.14 112.35C236.2 111.79 236.26 110.85 236.33 109.72C236.58 106.28 236.89 101.21 237.77 100.14C238.65 99.0798 242.15 98.5798 243.65 98.5798C249.28 98.5798 252.73 101.77 252.73 107.28C252.73 111.66 249.91 115.54 246.28 118.05C249.79 121.81 251.04 129.82 251.04 134.95C251.04 136.26 250.91 137.27 250.54 137.77C250.04 138.33 249.16 138.65 248.41 138.65C247.72 138.65 247.03 138.4 246.66 138.02C245.85 137.21 245.72 134.64 245.66 132.64V132.63ZM242.1 104.09C242.04 104.15 241.85 105.34 241.79 105.65C241.48 108.09 241.1 111.78 241.04 114.1V114.29C241.04 114.6 241.16 114.79 241.29 114.79C243.61 114.79 247.3 110.22 247.61 108.22V107.41C247.61 104.53 246.42 103.78 243.79 103.78C243.04 103.78 242.35 103.84 242.16 104.09H242.1Z" fill="white"/>
<path d="M260.5 98.89C260.5 96.76 262.5 96.51 264.19 96.51C265 96.51 265.88 96.57 266.57 96.63C267.13 96.63 267.57 96.69 267.95 96.69H268.14C268.7 96.63 269.95 96.44 271.14 96.31C272.83 96.06 274.77 95.75 276.15 95.75C276.78 95.75 277.21 95.81 277.53 96C278.47 96.44 278.91 97.19 278.91 98.13C278.91 100.38 276.91 100.76 275.15 100.95C274.09 101.01 273.08 101.07 272.83 102.39C272.27 106.08 271.95 110.28 271.7 114.35C271.51 117.79 271.2 121.23 270.7 124.68C270.39 126.81 270.07 129.06 270.07 131.06C270.07 131.56 270.07 132.06 270.13 132.5C270.19 133 270.44 133.06 270.88 133.06C271.19 133.06 271.51 133.06 271.94 133.12C273.07 133.5 273.82 134.62 273.82 135.69C273.82 136.44 273.44 137.13 272.76 137.63C272.07 138.19 270.32 138.32 268.57 138.32C268.19 138.32 267.69 138.26 267.26 138.26H266.32C265.82 138.26 265.38 138.32 264.82 138.38C264.07 138.44 263.26 138.57 262.44 138.57C260.62 138.57 259.06 138.07 259.06 136.07V135.82C259.25 133.63 261.13 133.5 262.88 133.44C263.88 133.38 264.82 133.25 265.01 132.75C265.14 132.31 265.14 131.56 265.14 130.87V128.74C265.14 128.3 265.14 127.68 265.2 127.24C265.51 124.05 265.89 120.67 266.26 117.48C266.82 112.91 267.32 108.34 267.7 103.71V102.65C267.7 102.21 267.76 101.84 268.01 101.84H265.38C264.38 101.84 263.44 101.84 262.75 101.65C261.5 101.4 260.5 100.21 260.5 98.9V98.89Z" fill="white"/>
<path d="M295.8 118.05C296.49 117.55 301.37 116.36 302.62 116.17L303 116.11C304 115.86 305.63 115.61 307.01 115.61C308.39 115.61 309.76 115.92 310.2 117.05C310.45 117.49 310.51 117.86 310.51 118.18C310.51 119.49 309.57 119.99 308.7 120.62C308.32 120.87 307.95 121.12 307.7 121.37C307.14 122.12 306.39 123.75 305.63 125.25C303.44 130.01 298.62 138.58 293.05 138.58C286.1 138.58 285.16 128.94 285.16 123.93C285.16 118.17 286.22 112.04 287.35 108.91C289.35 103.4 294.67 95.8899 301.18 95.8899C301.43 95.8899 301.74 95.8899 301.99 95.9499C304.12 96.1399 308.5 98.6399 308.5 101.21C308.5 102.46 307.5 103.84 306.18 103.84C305.18 103.84 304.43 103.09 303.61 102.34C302.98 101.78 302.36 101.15 301.79 101.03C298.72 101.03 295.91 103.47 294.34 106.04C291.71 110.23 290.33 117.81 290.33 123.94C290.33 125.76 290.58 133.39 293.02 133.39C294.58 133.39 296.71 130.51 298.28 127.94C298.72 127.19 301.22 122.62 301.53 121.74C301.22 121.74 300.72 121.86 300.15 121.99C299.34 122.24 298.46 122.49 297.58 122.49C296.08 122.49 294.83 121.61 294.83 119.99C294.83 119.36 295.21 118.61 295.77 118.05H295.8Z" fill="white"/>
<path d="M349.38 122.24L324.09 123.99C323.97 124.11 323.84 124.43 323.78 124.74C323.34 126.49 323.28 128.56 323.15 130.69C323.03 132.88 322.9 135.01 322.4 136.82C322.02 137.95 321.09 138.57 320.08 138.57C318.83 138.57 317.58 137.63 317.39 135.82C317.33 135.57 317.33 135.26 317.33 135.01C317.33 133.82 317.52 132.38 317.77 130.88C317.9 129.57 318.08 128.31 318.15 127.19C318.15 126.94 318.21 125.94 318.21 125.12V124.56C316.27 124.56 314.52 124.5 314.52 121.99V121.93C314.58 119.86 316.02 119.68 317.34 119.43C318.03 119.37 318.72 119.24 318.84 118.8C318.9 117.99 318.9 117.24 318.9 116.36C319.03 113.98 319.21 111.6 319.53 109.29C319.78 107.41 320.03 105.41 320.16 103.66C320.16 103.28 320.04 102.85 319.97 102.6C319.91 102.16 319.84 101.79 319.84 101.35C319.84 99.9098 321.15 98.2798 322.66 98.2798C324.17 98.2798 325.48 99.5298 325.48 101.41V101.47C325.48 103.6 325.17 106.1 324.79 108.42C324.6 109.92 324.35 111.36 324.23 112.74C324.11 114.68 324.04 116.68 323.98 118.69C324.1 118.81 324.54 118.81 324.98 118.81C325.36 118.81 325.79 118.81 326.04 118.75H326.35C328.42 118.69 330.36 118.44 332.36 118.19C335.55 117.81 338.62 117.69 341.81 117.56C344.31 117.44 346.82 117.37 349.26 117.06C349.76 117 350.14 116.75 350.26 116.18L351.57 100.53C351.95 99.0298 353.01 98.4598 354.07 98.4598C355.51 98.4598 356.82 99.4598 356.82 101.21C356.82 102.71 356.57 104.46 356.26 106.16C356.07 107.16 355.95 108.16 355.82 109.1C355.7 110.79 355.63 112.6 355.51 114.3C355.39 116.99 355.2 119.62 354.88 122.19C354.82 122.69 354.76 123.32 354.69 123.94C354.44 126.94 354 131.08 353.38 133.2C352.94 134.76 351.94 135.45 350.88 135.45C349.94 135.45 349 134.76 348.31 133.38L349.5 122.86L349.38 122.24Z" fill="white"/>
<path d="M366.9 134.51C367.02 130.07 367.71 124.62 368.28 119.86C368.47 118.61 368.66 117.42 368.78 116.29C368.84 115.73 369.03 114.54 369.28 113.04C369.91 109.22 370.78 103.53 370.78 102.09V102.03H370.28C369.59 102.03 368.53 102.22 367.71 102.34C367.02 102.53 366.46 102.59 366.08 102.59C364.27 102.59 363.08 101.28 363.08 99.8999C363.08 98.8399 363.83 97.7699 365.52 97.2099C368.34 96.3999 372.47 96.0799 376.1 95.8999C377.35 95.7799 378.54 95.7099 379.54 95.6499C380.04 95.5899 380.67 95.4599 381.23 95.3399C382.48 95.1499 383.8 94.8999 385.05 94.8999C386.8 94.8999 388.68 95.5899 388.68 97.6499C388.68 98.6499 387.99 99.6499 386.93 100.09C385.8 100.47 383.99 100.65 382.24 100.72C380.05 100.91 377.8 101.1 376.86 101.66C376.73 101.79 376.61 101.97 376.55 102.04C374.55 112.18 373.55 122.7 372.54 132.96C372.41 134.02 372.35 135.09 372.29 136.15C371.98 137.78 370.85 138.59 369.72 138.59C368.28 138.59 366.9 137.28 366.9 134.71V134.52V134.51Z" fill="white"/>
</svg>
