<svg width="393" height="135" viewBox="0 0 393 135" fill="none" xmlns="http://www.w3.org/2000/svg">
<path d="M32.97 0.337158C42.7 0.337158 50.36 3.28716 55.94 9.19716C61.63 3.28716 69.28 0.337158 78.91 0.337158C89.52 0.337158 97.6401 3.75716 103.27 10.5872C108.9 17.4272 111.72 26.9671 111.72 39.2171V82.4072H92.03V34.1272C92.03 28.6572 90.66 24.6672 87.93 22.1472C85.19 19.6272 82.19 18.3772 78.91 18.3772C75.63 18.3772 72.45 19.6372 69.72 22.1472C66.98 24.6672 65.62 28.6572 65.62 34.1272V82.4072H46.1V34.1272C46.1 28.6572 44.73 24.6672 42 22.1472C39.26 19.6272 36.26 18.3772 32.98 18.3772C29.7 18.3772 26.52 19.6372 23.79 22.1472C21.06 24.6672 19.69 28.6572 19.69 34.1272V82.4072H0V39.2171C0 26.9671 2.84003 17.4272 8.53003 10.5872C14.22 3.75716 22.37 0.337158 32.98 0.337158H32.97Z" fill="#24345E"/>
<path d="M282.16 0.337158C282.16 0.337158 263.43 44.4072 257.21 59.0472C256.47 60.7972 253.99 60.7972 253.24 59.0472C247.02 44.4072 228.29 0.337158 228.29 0.337158H207.86L237.82 70.8472C244.34 86.2072 266.11 86.2072 272.63 70.8472L302.59 0.337158H282.16Z" fill="#39709F"/>
<path d="M162.7 82.4172C150.56 82.4172 141.21 78.9972 134.64 72.1672C128.08 65.3372 124.8 55.7872 124.8 43.5372V0.347168H144.49V46.3272C144.49 51.7972 146.19 56.1672 149.58 59.4572C152.97 62.7372 157.34 64.3772 162.71 64.3772C168.08 64.3772 172.44 62.7372 175.84 59.4572C179.23 56.1772 180.93 51.7972 180.93 46.3272V0.347168H200.62V43.5372C200.62 55.7872 197.34 65.3372 190.78 72.1672C184.22 79.0072 174.87 82.4172 162.72 82.4172H162.7Z" fill="#24345E"/>
<path d="M344.71 82.0671C343.55 82.0671 342.4 82.0271 341.26 81.9371C328.31 80.9671 318.4 74.6271 313.34 64.0771C312.98 63.3271 312.64 62.5671 312.32 61.8071C301.85 63.0171 294.01 62.9171 293.29 62.9071L293.59 45.2171L293.44 54.0571L293.58 45.2171C293.65 45.2171 300.12 45.3071 308.87 44.3871C308.97 34.6071 312.46 25.0171 319.18 16.8371C330.01 3.65714 347.06 -2.68287 361.61 1.06713C368.2 2.75713 373.13 8.18713 374.48 15.2371C377.38 30.3771 363.14 42.6271 356.88 47.1971C349.39 52.6671 339.9 56.2371 330.56 58.5671C333.05 61.9671 337.08 63.8971 342.57 64.3071C355.01 65.2371 370.28 57.8471 377.3 47.4871L391.94 57.4071C382 72.0771 362.59 82.0671 344.7 82.0671H344.71ZM352.97 17.6771C345.97 17.6771 338.19 21.5771 332.85 28.0671C330.94 30.3971 327.77 35.0571 326.83 41.2871C335.06 39.1971 341.72 36.3571 346.46 32.9071C355.85 26.0571 357.14 20.9871 357.15 19.5871C357.15 17.6771 354.35 17.6771 352.98 17.6771H352.97Z" fill="#39709F"/>
<path d="M200.53 134.317V101.347H205.62V134.317H200.53ZM202.74 120.327V115.427H224.31V120.327H202.74ZM222.05 134.317V101.347H227.14V134.317H222.05Z" fill="#24345E"/>
<path d="M246.26 134.787C243.84 134.787 241.68 134.227 239.78 133.117C237.88 132.007 236.38 130.477 235.28 128.547C234.18 126.617 233.63 124.407 233.63 121.927C233.63 119.447 234.18 117.237 235.28 115.307C236.38 113.377 237.88 111.857 239.78 110.737C241.68 109.627 243.84 109.067 246.26 109.067C248.68 109.067 250.79 109.627 252.69 110.737C254.59 111.847 256.09 113.377 257.19 115.307C258.29 117.237 258.84 119.447 258.84 121.927C258.84 124.407 258.29 126.617 257.19 128.547C256.09 130.477 254.59 131.997 252.69 133.117C250.79 134.237 248.65 134.787 246.26 134.787ZM246.26 130.357C247.74 130.357 249.05 129.987 250.22 129.247C251.38 128.507 252.29 127.507 252.95 126.237C253.61 124.967 253.92 123.527 253.89 121.927C253.92 120.297 253.61 118.847 252.95 117.567C252.29 116.297 251.38 115.297 250.22 114.577C249.06 113.857 247.74 113.497 246.26 113.497C244.78 113.497 243.46 113.867 242.28 114.607C241.1 115.347 240.18 116.347 239.52 117.617C238.86 118.887 238.55 120.327 238.58 121.927C238.55 123.527 238.86 124.967 239.52 126.237C240.18 127.507 241.1 128.517 242.28 129.247C243.46 129.987 244.78 130.357 246.26 130.357Z" fill="#24345E"/>
<path d="M264.11 134.317V109.587H269.01V117.357L268.54 115.477C268.89 114.287 269.47 113.197 270.31 112.227C271.14 111.257 272.1 110.487 273.18 109.917C274.26 109.357 275.39 109.067 276.55 109.067C277.08 109.067 277.59 109.117 278.08 109.207C278.57 109.297 278.95 109.407 279.23 109.537L277.96 114.817C277.58 114.657 277.17 114.527 276.71 114.417C276.25 114.307 275.81 114.247 275.37 114.247C274.52 114.247 273.71 114.417 272.94 114.737C272.17 115.067 271.5 115.527 270.91 116.107C270.32 116.687 269.87 117.367 269.52 118.137C269.17 118.907 269 119.747 269 120.657V134.317H264.1H264.11Z" fill="#24345E"/>
<path d="M286.25 104.127C285.21 104.127 284.41 103.857 283.85 103.327C283.29 102.797 283 102.037 283 101.067C283 100.157 283.29 99.4171 283.87 98.8571C284.45 98.2871 285.24 98.0071 286.25 98.0071C287.26 98.0071 288.09 98.2771 288.65 98.8071C289.21 99.3371 289.5 100.097 289.5 101.067C289.5 101.977 289.21 102.717 288.63 103.277C288.05 103.837 287.26 104.127 286.25 104.127ZM283.89 134.317V109.587H288.74V134.317H283.89Z" fill="#24345E"/>
<path d="M295.15 134.317V130.267L307.91 113.217V113.787H295.15V109.597H313.19V113.557L300.61 130.367L300.42 130.127H313.47V134.317H295.15Z" fill="#24345E"/>
<path d="M329.62 134.787C327.2 134.787 325.04 134.227 323.14 133.117C321.24 132.007 319.74 130.477 318.64 128.547C317.54 126.617 316.99 124.407 316.99 121.927C316.99 119.447 317.54 117.237 318.64 115.307C319.74 113.377 321.24 111.857 323.14 110.737C325.04 109.627 327.2 109.067 329.62 109.067C332.04 109.067 334.15 109.627 336.05 110.737C337.95 111.847 339.45 113.377 340.55 115.307C341.65 117.237 342.2 119.447 342.2 121.927C342.2 124.407 341.65 126.617 340.55 128.547C339.45 130.477 337.95 131.997 336.05 133.117C334.15 134.237 332.01 134.787 329.62 134.787ZM329.62 130.357C331.1 130.357 332.41 129.987 333.58 129.247C334.74 128.507 335.65 127.507 336.31 126.237C336.97 124.967 337.28 123.527 337.25 121.927C337.28 120.297 336.97 118.847 336.31 117.567C335.65 116.297 334.74 115.297 333.58 114.577C332.42 113.857 331.1 113.497 329.62 113.497C328.14 113.497 326.82 113.867 325.64 114.607C324.46 115.347 323.54 116.347 322.88 117.617C322.22 118.887 321.91 120.327 321.94 121.927C321.91 123.527 322.22 124.967 322.88 126.237C323.54 127.507 324.46 128.517 325.64 129.247C326.82 129.987 328.14 130.357 329.62 130.357Z" fill="#24345E"/>
<path d="M347.47 134.317V109.587H352.32V114.677L351.47 115.247C351.78 114.147 352.4 113.137 353.31 112.207C354.22 111.277 355.3 110.527 356.56 109.947C357.82 109.367 359.1 109.077 360.42 109.077C362.3 109.077 363.87 109.447 365.13 110.187C366.39 110.927 367.33 112.047 367.96 113.557C368.59 115.067 368.9 116.967 368.9 119.257V134.327H364.05V119.587C364.05 118.177 363.86 117.007 363.48 116.077C363.1 115.147 362.52 114.477 361.74 114.047C360.95 113.627 359.98 113.447 358.82 113.507C357.88 113.507 357.01 113.657 356.23 113.957C355.44 114.257 354.76 114.667 354.18 115.207C353.6 115.737 353.14 116.357 352.81 117.067C352.48 117.777 352.32 118.537 352.32 119.347V134.327H347.47V134.317Z" fill="#24345E"/>
<path d="M383.74 134.787C381.67 134.787 379.8 134.427 378.14 133.707C376.47 132.987 375.09 131.917 373.99 130.507L377.29 127.677C378.23 128.777 379.26 129.567 380.37 130.057C381.48 130.547 382.75 130.787 384.16 130.787C384.73 130.787 385.25 130.717 385.74 130.577C386.23 130.437 386.65 130.227 387.01 129.937C387.37 129.657 387.65 129.317 387.83 128.927C388.01 128.537 388.11 128.107 388.11 127.627C388.11 126.807 387.81 126.147 387.22 125.647C386.91 125.427 386.41 125.187 385.74 124.917C385.06 124.647 384.19 124.377 383.13 124.097C381.31 123.627 379.82 123.097 378.66 122.497C377.5 121.897 376.6 121.227 375.97 120.477C375.5 119.877 375.15 119.227 374.93 118.527C374.71 117.817 374.6 117.047 374.6 116.197C374.6 115.157 374.83 114.207 375.28 113.347C375.73 112.487 376.36 111.727 377.16 111.087C377.96 110.447 378.9 109.947 379.99 109.607C381.07 109.257 382.23 109.087 383.45 109.087C384.61 109.087 385.77 109.247 386.91 109.557C388.06 109.867 389.12 110.327 390.09 110.927C391.06 111.527 391.88 112.227 392.54 113.047L389.76 116.107C389.16 115.507 388.51 114.987 387.81 114.527C387.1 114.067 386.39 113.717 385.67 113.467C384.95 113.217 384.29 113.087 383.69 113.087C383.03 113.087 382.43 113.147 381.9 113.277C381.37 113.407 380.92 113.587 380.56 113.837C380.2 114.087 379.92 114.407 379.74 114.777C379.55 115.157 379.46 115.577 379.46 116.047C379.49 116.457 379.59 116.837 379.77 117.197C379.94 117.557 380.19 117.867 380.5 118.117C380.85 118.367 381.36 118.637 382.05 118.917C382.74 119.197 383.62 119.467 384.69 119.717C386.26 120.127 387.55 120.577 388.58 121.057C389.6 121.547 390.41 122.097 391.01 122.727C391.64 123.327 392.08 124.017 392.33 124.797C392.58 125.587 392.71 126.457 392.71 127.437C392.71 128.847 392.31 130.117 391.51 131.227C390.71 132.337 389.63 133.217 388.28 133.837C386.93 134.467 385.42 134.777 383.76 134.777L383.74 134.787Z" fill="#24345E"/>
</svg>
