<svg width="392" height="140" viewBox="0 0 392 140" fill="none" xmlns="http://www.w3.org/2000/svg">
<path d="M32.97 0.337143C42.7 0.337143 50.36 3.28714 55.94 9.19714C61.63 3.28714 69.28 0.337143 78.91 0.337143C89.52 0.337143 97.64 3.75714 103.27 10.5871C108.9 17.4271 111.72 26.9671 111.72 39.2171V82.4072H92.03V34.1371C92.03 28.6671 90.66 24.6771 87.93 22.1571C85.19 19.6471 82.19 18.3871 78.91 18.3871C75.63 18.3871 72.45 19.6471 69.72 22.1571C66.98 24.6771 65.62 28.6671 65.62 34.1371V82.4072H46.1V34.1371C46.1 28.6671 44.73 24.6771 42 22.1571C39.26 19.6471 36.26 18.3871 32.98 18.3871C29.7 18.3871 26.52 19.6471 23.79 22.1571C21.06 24.6771 19.69 28.6671 19.69 34.1371V82.4072H0V39.2171C0 26.9671 2.83997 17.4271 8.52997 10.5871C14.22 3.75714 22.37 0.337143 32.98 0.337143H32.97Z" fill="#24345E"/>
<path d="M282.14 0.337143C282.14 0.337143 263.42 44.4071 257.19 59.0471C256.45 60.7971 253.97 60.7971 253.22 59.0471C247 44.4071 228.27 0.337143 228.27 0.337143H207.84L237.79 70.8371C244.31 86.1871 266.08 86.1871 272.6 70.8371L302.55 0.337143H282.12H282.14Z" fill="#448F6F"/>
<path d="M162.69 82.4072C150.55 82.4072 141.2 78.9872 134.64 72.1572C128.08 65.3271 124.8 55.7771 124.8 43.5271V0.337143H144.49V46.3171C144.49 51.7871 146.18 56.1571 149.58 59.4471C152.97 62.7271 157.34 64.3671 162.7 64.3671C168.06 64.3671 172.43 62.7271 175.83 59.4471C179.22 56.1671 180.91 51.7871 180.91 46.3171V0.337143H200.6V43.5271C200.6 55.7771 197.32 65.3172 190.76 72.1572C184.2 78.9971 174.85 82.4072 162.71 82.4072H162.69Z" fill="#24345E"/>
<path d="M344.69 82.0571C343.53 82.0571 342.38 82.0171 341.24 81.9271C328.29 80.9571 318.38 74.6171 313.33 64.0671C312.97 63.3171 312.63 62.5571 312.31 61.7971C301.85 63.0071 294.01 62.9071 293.28 62.8971L293.58 45.2071L293.43 54.0471L293.57 45.2071C293.64 45.2071 300.1 45.2971 308.86 44.3771C308.96 34.5971 312.45 25.0171 319.17 16.8371C330 3.65714 347.05 -2.68287 361.6 1.06713C368.19 2.75713 373.12 8.18713 374.47 15.2271C377.37 30.3571 363.13 42.6171 356.87 47.1871C349.38 52.6571 339.89 56.2271 330.55 58.5571C333.04 61.9571 337.07 63.8871 342.56 64.2971C355 65.2271 370.27 57.8371 377.29 47.4871L391.93 57.4071C381.99 72.0771 362.58 82.0671 344.7 82.0671L344.69 82.0571ZM352.94 17.6771C345.94 17.6771 338.16 21.5771 332.82 28.0671C330.91 30.3971 327.74 35.0571 326.8 41.2871C335.03 39.1971 341.69 36.3571 346.43 32.9071C355.81 26.0571 357.11 20.9871 357.11 19.5871C357.11 17.6771 354.31 17.6771 352.94 17.6771Z" fill="#448F6F"/>
<path d="M192.83 105.767C193.44 105.587 193.77 105.537 194.47 105.517C196.26 105.477 197.22 106.467 198.29 107.597C198.69 108.647 198.72 109.747 198.88 110.847C198.77 111.997 198.18 113.237 198.01 113.837C197.62 115.377 195.84 119.997 194.67 120.017C194.25 120.017 193.2 119.457 192.77 119.297L192.67 119.177C192.93 118.367 193.53 117.627 193.84 116.947C194.33 115.877 195.47 112.037 195.44 110.807C195.42 110.087 194.98 109.117 193.84 108.847L193.47 108.987C190.84 111.467 189.45 114.337 188.52 116.907C187.99 118.407 187.58 119.177 187.28 120.457C186.98 121.817 186.83 123.607 186.22 125.657C185.61 127.667 185.28 129.957 185.34 132.337L185.36 133.357C185.81 134.577 186.2 135.207 187.8 134.997C191.53 133.257 194.49 126.867 196.2 123.527L196.57 123.347C197.24 123.627 197.81 124.087 198.39 124.447C198.54 124.657 198.68 124.947 198.69 125.157C198.72 126.257 194.86 132.877 194.14 133.997C193.5 134.907 191.71 136.937 190.74 137.637C190.18 138.027 189.3 138.437 188.46 138.877C185.49 138.907 185.45 138.987 183.01 137.437C182 136.317 181.57 134.167 181.53 132.637C181.52 132.087 181.42 131.837 181.41 131.577C181.41 131.197 181.39 130.857 181.38 130.137C181.35 128.657 182.06 126.817 182.74 123.877C183.77 119.277 186.74 109.287 192.41 105.927L192.83 105.787V105.767Z" fill="#24345E" stroke="#24345E" stroke-width="0.75" stroke-miterlimit="10"/>
<path d="M222.29 120.947C221.7 122.067 221.5 123.297 221.29 124.487C220.79 127.337 218.32 134.647 216.21 136.897C215.25 137.937 213.34 139.127 211.69 139.167C210.56 139.197 209.47 139.007 208.34 138.907C205.01 137.247 203.9 132.017 203.92 128.917C204.04 123.827 204.65 119.867 206.95 115.107C207.35 114.247 207.81 113.477 208.45 112.697C209.64 111.357 210.41 109.897 211.13 108.357C212.66 107.137 214.28 105.907 216 104.857C216.99 104.837 218.97 105.167 219.79 105.657C220.41 105.987 220.85 106.527 221.47 106.847C223.14 110.027 223.09 113.677 223.03 117.157C223.18 117.367 223.41 117.447 223.7 117.437C223.98 117.437 224.26 117.297 224.49 117.167L224.73 117.457C224.52 118.397 223.97 119.167 223.66 120.067L222.31 120.947H222.29ZM211.13 135.577C215.27 135.477 217.47 124.657 218.02 121.847L217.68 121.517C214.89 120.987 212.69 119.427 210.76 117.737L210.52 117.697L210.15 117.877C208.78 119.647 207.82 125.097 207.78 127.297C207.73 129.337 207.55 135.657 211.13 135.577ZM217.14 118.267C218.6 118.237 218.71 116.837 218.73 115.897C218.75 112.627 218.34 111.327 217.24 108.257C217 108.217 216.72 108.137 216.48 108.147C214.79 108.187 213.61 112.197 213.59 113.347C213.57 114.707 214.08 116.047 214.81 117.217C215.38 117.547 216.39 118.287 217.14 118.267Z" fill="#24345E" stroke="#24345E" stroke-width="0.75" stroke-miterlimit="10"/>
<path d="M254.06 103.677C254.48 103.677 255 103.737 255.29 104.117C255.19 105.947 254.71 107.647 254.33 109.397C254.16 110.117 254.32 110.877 254.19 111.687C253.83 114.497 253.24 117.307 252.73 120.077C252.36 122.457 252.09 124.927 251.48 127.227C250.75 130.337 250.35 133.567 249.48 136.647C248.83 136.917 247.89 137.197 247.19 137.207C246.86 137.207 246.58 137.137 246.24 137.017C246.09 136.847 245.57 136.567 245.57 136.397C245.51 135.937 247.67 125.457 247.97 123.877C248.18 122.727 248.96 119.787 248.84 118.857C248.84 118.647 248.74 118.437 248.64 118.227L248.45 118.187C246.96 118.857 246.37 121.797 245.5 123.087C243.91 125.417 243.5 128.177 242.09 130.587C241.41 131.707 241.15 132.897 240.14 133.767C239.43 133.697 238.07 133.767 237.49 133.357C237.19 132.557 237.21 131.367 237.09 130.527C236.8 128.077 236.46 125.627 236.21 123.167C236.04 121.897 236.01 120.547 235.7 119.277L235.51 119.027L235.09 118.997C234.84 120.277 232.84 131.597 232.84 131.767L231.93 137.257L231.28 137.827C230.34 138.147 229.32 138.427 228.33 138.447C228.19 138.327 227.9 138.207 227.9 137.987C227.78 136.887 228.68 131.057 228.98 129.777C229.15 129.007 229.28 128.287 229.4 127.517C229.64 125.727 230.21 124.067 230.55 122.277C231.01 119.937 231.24 117.557 231.71 115.207L232.38 111.717C232.72 110.227 233.09 105.887 233.59 104.777C233.81 104.217 235.55 104.137 236.17 104.127C236.45 104.127 236.78 104.117 237.02 104.277C237.27 104.827 237.56 105.407 237.81 105.957L237.6 106.977C238.14 108.067 238.13 109.337 238.25 110.477C238.31 110.987 238.42 111.707 238.34 112.217C239.25 114.907 239.6 117.787 239.9 120.577C239.96 121.207 240.14 124.897 240.85 124.877H241.09C242.27 123.107 242.79 121.017 243.93 119.207C245.02 117.527 245.92 115.767 246.59 113.887C247.43 111.657 248.75 109.677 249.79 107.577C250.37 106.337 250.58 104.977 251.59 103.927C252.39 103.947 253.19 103.677 254.08 103.657L254.06 103.677Z" fill="#24345E" stroke="#24345E" stroke-width="0.75" stroke-miterlimit="10"/>
<path d="M284.38 102.977C284.8 102.977 285.32 103.037 285.61 103.417C285.51 105.247 285.03 106.947 284.65 108.697C284.48 109.427 284.64 110.177 284.51 110.987C284.15 113.797 283.56 116.607 283.05 119.377C282.68 121.757 282.41 124.227 281.8 126.527C281.07 129.637 280.67 132.867 279.8 135.947C279.15 136.217 278.21 136.497 277.51 136.507C277.18 136.507 276.9 136.437 276.56 136.317C276.41 136.147 275.89 135.867 275.89 135.697C275.83 135.237 277.99 124.757 278.29 123.177C278.5 122.027 279.28 119.087 279.16 118.157C279.16 117.947 279.06 117.737 278.96 117.527L278.77 117.487C277.28 118.157 276.69 121.097 275.82 122.387C274.23 124.717 273.82 127.477 272.41 129.887C271.73 131.007 271.47 132.197 270.46 133.067C269.75 132.997 268.39 133.067 267.81 132.657C267.51 131.857 267.53 130.667 267.42 129.827C267.13 127.377 266.79 124.927 266.54 122.467C266.37 121.197 266.34 119.847 266.03 118.577L265.84 118.327L265.42 118.297C265.17 119.577 263.17 130.897 263.17 131.067L262.26 136.557L261.61 137.127C260.67 137.447 259.65 137.727 258.66 137.747C258.52 137.627 258.23 137.507 258.23 137.287C258.11 136.187 259.01 130.357 259.31 129.077C259.48 128.307 259.61 127.587 259.73 126.817C259.97 125.027 260.54 123.367 260.88 121.577C261.34 119.237 261.57 116.857 262.04 114.517L262.71 111.027C263.05 109.537 263.42 105.197 263.92 104.087C264.14 103.527 265.88 103.447 266.5 103.437C266.78 103.437 267.11 103.427 267.35 103.587C267.6 104.137 267.89 104.717 268.14 105.267L267.93 106.287C268.47 107.377 268.46 108.647 268.58 109.787C268.64 110.297 268.75 111.017 268.67 111.527C269.58 114.217 269.93 117.097 270.23 119.887C270.29 120.517 270.47 124.207 271.18 124.187H271.42C272.6 122.417 273.12 120.327 274.26 118.517C275.35 116.837 276.25 115.077 276.92 113.197C277.76 110.977 279.08 108.987 280.12 106.887C280.7 105.647 280.91 104.287 281.92 103.237C282.72 103.257 283.52 102.987 284.41 102.967L284.38 102.977Z" fill="#24345E" stroke="#24345E" stroke-width="0.75" stroke-miterlimit="10"/>
<path d="M300.67 123.037C301.03 120.397 302.15 117.787 302.09 115.117C302.04 112.917 303.72 108.257 304.04 105.867C304.12 105.267 304.11 104.677 304.23 104.077C304.32 103.777 304.41 103.567 304.68 103.347C304.91 103.177 306.98 102.867 307.45 102.777L307.79 103.277C307.58 104.557 307.47 105.787 307.36 107.017C307.13 109.147 306.33 111.237 306.19 113.317C306.08 114.807 305.5 116.177 305.35 117.657C305.1 121.057 303.18 129.577 301.35 132.337C300.76 133.237 300.17 134.107 299.57 135.007C298.27 135.887 297.11 136.547 295.57 137.047C294.06 136.787 292.73 136.267 291.39 135.657C290.18 134.197 289.15 132.487 289.11 130.577L288.92 122.357C288.89 121.127 289.38 120.017 289.36 118.827C289.33 117.727 289.26 116.627 289.71 115.557C289.67 113.947 291.48 104.277 293.17 104.247C294.02 104.227 296.06 104.857 296.82 105.267L296.78 105.737C295.64 107.457 295.12 109.417 294.36 111.307C294.39 112.407 294.13 113.477 293.87 114.537C293.35 116.587 292.98 118.757 293.03 120.877C293.03 121.217 293 121.427 292.96 121.727C292.79 122.457 292.66 123.177 292.68 123.937L292.76 127.497C292.79 128.977 293.34 130.407 293.38 131.897C293.82 132.567 294.13 133.577 295.21 133.547C297.38 133.497 299.06 128.877 299.82 127.337C299.83 125.857 300.51 124.477 300.66 123.037H300.67Z" fill="#24345E" stroke="#24345E" stroke-width="0.75" stroke-miterlimit="10"/>
<path d="M318.43 102.407C318.85 102.407 319.28 102.477 319.57 102.717C320.26 104.097 320.34 105.667 320.85 107.137C321.15 108.017 321.55 108.897 321.85 109.827C322.36 111.337 322.54 112.987 323.23 114.457C324.12 116.347 324.84 118.747 325.12 120.817C325.41 121.357 325.57 122.037 326.01 122.497C326.29 122.497 326.43 122.447 326.52 122.187C327.1 120.817 326.97 119.037 327.36 117.587C328.75 112.547 329.05 107.247 330.54 102.207C331.24 101.977 332.51 101.997 333.36 101.977C333.55 101.977 333.74 101.977 333.93 102.007L334.12 102.127C333.71 107.017 332.69 111.747 331.86 116.557C331.45 119.067 331.03 121.537 330.62 124.047C330.33 125.747 330.32 127.487 329.98 129.147C329.59 130.807 329.3 132.387 329.25 134.087C328.66 135.207 326.97 135.327 325.79 135.357H325.46C324.43 133.607 322.51 127.797 322.18 125.817C322.07 125.227 321.83 124.727 321.67 124.177C321.51 123.507 321.4 122.787 321.25 122.107C321.1 121.517 320.8 121.057 320.69 120.467C320.53 119.667 318.98 113.767 318.69 113.387C318.64 113.347 318.54 113.177 318.45 113.177H318.21L318.07 113.357C317.59 115.067 317.63 116.797 317.29 118.467C316.83 120.857 316.6 123.277 316.09 125.577C315.32 128.947 315.31 132.507 314.49 135.837C314.36 136.387 312.48 136.607 311.92 136.617C311.31 136.627 310.36 136.567 310.35 135.767V135.557C310.84 132.537 311.38 129.467 311.83 126.407C312.03 125.007 312.38 123.677 312.63 122.277C313.13 119.337 313.34 116.407 314.08 113.467C314.94 110.017 314.67 106.247 315.72 102.877C316.61 102.817 317.5 102.457 318.44 102.437L318.43 102.407Z" fill="#24345E" stroke="#24345E" stroke-width="0.75" stroke-miterlimit="10"/>
<path d="M338.59 127.037C338.63 126.907 338.73 126.777 338.67 126.657C338.8 124.107 339.5 121.677 339.96 119.207C340.18 118.357 340.25 117.457 340.42 116.607C341.15 113.327 341.96 109.997 342.74 106.717C343.13 105.177 343.37 103.527 344.05 102.067C344.75 101.837 345.92 101.387 346.67 101.367C346.86 101.367 347.14 101.397 347.33 101.477C347.62 101.857 347.63 102.187 347.64 102.617C347.73 104.437 346.97 106.367 346.59 108.157C345.6 112.207 344.18 116.227 343.81 120.347C343.66 121.877 343.22 123.327 342.97 124.857C342.89 125.617 342.49 126.357 342.55 127.157C341.6 129.007 342.14 133.997 340.28 135.057C339.58 135.197 338.83 135.427 338.08 135.527C337.56 135.367 337.55 134.987 337.54 134.607C337.45 132.697 338.07 128.957 338.59 127.037Z" fill="#24345E" stroke="#24345E" stroke-width="0.75" stroke-miterlimit="10"/>
<path d="M358.03 105.987C356.52 105.897 355.07 106.227 353.65 106.127C353.41 106.087 352.8 106.067 352.79 105.727C352.78 105.087 352.86 102.717 353.8 102.647L359.58 102.217C360.19 102.157 360.85 102.277 361.46 102.217C363.58 102.037 365.83 101.737 368 101.857C368.33 101.887 368.38 102.107 368.39 102.397C368.41 103.117 368.55 105.107 367.51 105.177C366.05 105.297 363.32 105.277 362.84 106.767C362.22 108.567 361.8 112.597 361.61 114.597C361.44 115.617 361.23 116.637 361.12 117.707C361.08 118.177 361.14 118.687 361.06 119.147L359.15 130.257C358.94 131.367 359.01 134.287 358.27 134.937C358.18 135.027 357.9 135.077 357.57 135.077C357.1 135.087 356.58 135.057 356.34 135.017C355.4 134.997 354.65 135.187 354.62 134.077C354.6 133.277 354.82 132.417 354.94 131.567C355.22 129.357 355.45 127.107 355.82 124.927C356.91 118.927 358.18 112.787 358.65 106.627C358.46 106.417 358.22 106.167 358.02 105.967L358.03 105.987Z" fill="#24345E" stroke="#24345E" stroke-width="0.75" stroke-miterlimit="10"/>
<path d="M373.53 134.797L373.07 135.067C372.17 134.957 370.47 134.707 369.85 134.247C370.24 132.587 371.47 131.117 372 129.487C373.18 125.647 375.65 122.197 377.68 118.587C377.39 118.127 377.14 117.667 376.85 117.167C376.77 115.857 375.02 111.357 374.33 110.017C373.45 108.427 373.17 106.737 372.43 105.147C372.03 104.307 370.82 102.897 370.71 102.137C370.71 101.967 370.75 101.837 370.84 101.707L371.21 101.527C371.73 101.477 372.24 101.457 372.81 101.447C373.19 101.447 373.61 101.427 374.03 101.457C374.79 101.867 375.53 103.247 375.59 103.877C375.82 105.777 377.18 107.617 377.42 109.477C378.44 110.727 378.47 112.207 379.44 113.497L380.1 113.697C381.55 113.197 383.29 109.217 383.97 108.007C384.74 106.547 386.03 105.287 386.65 103.787C387.14 102.717 387.97 101.807 388.8 100.857C389.65 101.007 391.5 101.517 391.61 102.237C391.73 103.417 388.07 107.957 387.96 109.317C387.59 109.837 387.28 110.307 387.01 110.867C386.61 111.727 385.82 112.467 385.32 113.327C383.14 116.807 381.01 120.337 379.4 123.977C379.13 124.577 378.63 125.137 378.5 125.737C377.44 126.777 374.43 133.127 373.58 134.797H373.53Z" fill="#24345E" stroke="#24345E" stroke-width="0.75" stroke-miterlimit="10"/>
</svg>
