<svg width="392" height="141" viewBox="0 0 392 141" fill="none" xmlns="http://www.w3.org/2000/svg">
<path d="M32.97 0.342529C42.69 0.342529 50.34 3.29252 55.92 9.19252C61.6 3.29252 69.25 0.342529 78.87 0.342529C89.47 0.342529 97.58 3.76253 103.21 10.5925C108.84 17.4225 111.65 26.9625 111.65 39.1925V82.3425H91.98V34.1125C91.98 28.6525 90.61 24.6625 87.88 22.1425C85.15 19.6325 82.14 18.3725 78.86 18.3725C75.58 18.3725 72.41 19.6325 69.68 22.1425C66.95 24.6525 65.58 28.6425 65.58 34.1125V82.3425H46.07V34.1125C46.07 28.6525 44.7 24.6625 41.97 22.1425C39.24 19.6325 36.23 18.3725 32.95 18.3725C29.67 18.3725 26.5 19.6325 23.77 22.1425C21.04 24.6525 19.67 28.6425 19.67 34.1125V82.3425H0V39.1925C0 26.9525 2.84002 17.4225 8.52002 10.5925C14.2 3.76253 22.34 0.342529 32.95 0.342529H32.97Z" fill="#24345E"/>
<path d="M281.93 0.342529C281.93 0.342529 263.22 44.3725 257 59.0025C256.26 60.7525 253.78 60.7525 253.04 59.0025C246.82 44.3725 228.11 0.342529 228.11 0.342529H207.7L237.63 70.7925C244.15 86.1325 265.89 86.1325 272.41 70.7925L302.34 0.342529H281.93Z" fill="#5B5AD0"/>
<path d="M162.58 82.3425C150.45 82.3425 141.11 78.9325 134.55 72.0925C127.99 65.2625 124.71 55.7325 124.71 43.4925V0.342529H144.38V46.2825C144.38 51.7525 146.07 56.1225 149.46 59.3925C152.85 62.6725 157.22 64.3125 162.57 64.3125C167.92 64.3125 172.3 62.6725 175.68 59.3925C179.07 56.1125 180.76 51.7425 180.76 46.2825V0.342529H200.43V43.4925C200.43 55.7325 197.15 65.2725 190.59 72.0925C184.03 78.9225 174.69 82.3425 162.56 82.3425H162.58Z" fill="#24345E"/>
<path d="M344.42 81.9925C343.26 81.9925 342.11 81.9525 340.97 81.8625C328.03 80.9025 318.13 74.5625 313.08 64.0125C312.72 63.2625 312.38 62.5025 312.06 61.7425C301.6 62.9525 293.77 62.8526 293.05 62.8426L293.35 45.1725L293.2 54.0125L293.34 45.1725C293.41 45.1725 299.87 45.2626 308.61 44.3426C308.71 34.5726 312.2 24.9925 318.91 16.8225C329.73 3.66255 346.76 -2.67744 361.3 1.06256C367.88 2.75256 372.81 8.18255 374.16 15.2126C377.06 30.3326 362.83 42.5825 356.57 47.1425C349.08 52.6025 339.61 56.1726 330.27 58.5026C332.76 61.9026 336.79 63.8225 342.27 64.2325C354.7 65.1625 369.96 57.7826 376.97 47.4326L391.6 57.3426C381.67 71.9926 362.28 81.9825 344.41 81.9825L344.42 81.9925ZM352.67 17.6625C345.68 17.6625 337.9 21.5626 332.57 28.0426C330.66 30.3726 327.5 35.0225 326.55 41.2425C334.77 39.1525 341.43 36.3226 346.16 32.8726C355.54 26.0326 356.83 20.9626 356.84 19.5626C356.84 17.6526 354.04 17.6526 352.67 17.6526V17.6625Z" fill="#5B5AD0"/>
<path d="M266.9 139.873L260.12 138.753C261.54 130.133 261.69 116.493 257.59 113.183C257.15 112.833 255.83 111.763 252.16 113.203C250.41 113.893 248.73 115.003 247.18 116.363C249.9 122.193 250.51 130.133 248.21 135.033C246.66 138.313 243.86 140.183 240.51 140.183C240.44 140.183 240.37 140.183 240.3 140.183C235.87 140.083 232.78 137.543 232.05 133.393C231.14 128.283 233.9 121.423 238.32 115.813C237.6 115.383 237.1 115.533 236.82 115.623C230.8 117.463 227.32 131.793 226.54 138.613V138.873H219.66V106.413H226.54V116.063C228.64 112.763 231.33 110.113 234.8 109.043C237.71 108.153 240.65 108.793 243.12 110.813C245.18 109.083 247.39 107.683 249.64 106.793C255.75 104.383 259.68 106.023 261.91 107.823C270.55 114.803 267.58 135.733 266.9 139.863V139.873ZM242.07 122.443C239.73 126.133 238.42 129.963 238.81 132.203C238.92 132.833 239 133.283 240.45 133.313C240.85 133.323 241.41 133.333 241.99 132.103C243.06 129.833 242.97 125.923 242.07 122.443Z" fill="#24345E"/>
<path d="M272.93 139.013V107.513H280.37V139.013H272.93ZM273 99.4025C273 97.3625 274.66 95.7025 276.7 95.7025C278.74 95.7025 280.4 97.3625 280.4 99.4025C280.4 101.443 278.74 103.103 276.7 103.103C274.66 103.103 273 101.443 273 99.4025Z" fill="#24345E"/>
<path d="M318.46 119.993V138.953H311.02V121.013C311.02 113.863 306.9 112.363 303.44 112.363C298.49 112.363 293.48 115.763 293.48 122.273V138.953H286.04V107.453H293.48V112.763C296.08 108.893 300.32 106.853 305.75 106.853C311.55 106.853 318.46 109.133 318.46 119.993Z" fill="#24345E"/>
<path d="M356.67 94.9725V139.013H349.23V133.833C346.76 137.563 342.74 139.623 337.87 139.623C328.78 139.623 322.43 132.913 322.43 123.303C322.43 118.673 323.96 114.483 326.74 111.513C329.53 108.523 333.49 106.873 337.87 106.873C342.74 106.873 346.76 108.923 349.23 112.663V94.9925H356.67V94.9725ZM349.23 123.233C349.23 116.633 345.46 112.363 339.62 112.363C333.78 112.363 330.08 116.633 330.08 123.233C330.08 129.833 333.83 134.103 339.62 134.103C345.41 134.103 349.23 129.833 349.23 123.233Z" fill="#24345E"/>
<path d="M391.33 129.653C391.33 135.613 385.24 139.613 376.17 139.613C369.64 139.613 364.24 137.573 360.97 133.873L360.88 133.773L366.04 130.283L366.11 130.363C368.16 132.963 371.66 134.403 375.96 134.403C379.85 134.403 384.03 133.163 384.03 130.433C384.03 127.953 379.93 127.113 375.18 126.133C368.53 124.773 361 123.223 361 116.743C361 110.913 367.18 106.843 376.02 106.843C382.09 106.843 387.1 108.803 390.52 112.523L390.61 112.623L385.45 116.183L385.38 116.103C383.28 113.503 379.81 112.063 375.6 112.063C371.39 112.063 368.23 113.623 368.23 115.853C368.23 118.313 372.28 119.123 376.97 120.053C383.36 121.333 391.32 122.923 391.32 129.653H391.33Z" fill="#24345E"/>
</svg>
