<svg width="393" height="163" viewBox="0 0 393 163" fill="none" xmlns="http://www.w3.org/2000/svg">
<path d="M33.04 0.345947C42.79 0.345947 50.46 3.30594 56.04 9.21594C61.74 3.29594 69.41 0.345947 79.05 0.345947C89.67 0.345947 97.81 3.77594 103.45 10.6159C109.09 17.4659 111.91 27.0259 111.91 39.2859V82.5459H92.19V34.1959C92.19 28.7159 90.82 24.7259 88.08 22.1959C85.34 19.6759 82.33 18.4159 79.04 18.4159C75.75 18.4159 72.57 19.6759 69.84 22.1959C67.1 24.7159 65.73 28.7159 65.73 34.1959V82.5459H46.18V34.1959C46.18 28.7159 44.81 24.7259 42.07 22.1959C39.33 19.6759 36.32 18.4159 33.03 18.4159C29.74 18.4159 26.56 19.6759 23.83 22.1959C21.09 24.7159 19.72 28.7159 19.72 34.1959V82.5459H0V39.2859C0 27.0159 2.84998 17.4559 8.53998 10.6159C14.24 3.76594 22.4 0.345947 33.03 0.345947H33.04Z" fill="#24345E"/>
<path d="M282.62 0.345947C282.62 0.345947 263.87 44.4859 257.63 59.1559C256.88 60.9159 254.4 60.9159 253.66 59.1559C247.43 44.4959 228.67 0.345947 228.67 0.345947H208.21L238.21 70.966C244.74 86.346 266.54 86.346 273.08 70.966L303.08 0.345947H282.62Z" fill="#E75452"/>
<path d="M162.97 82.5459C150.81 82.5459 141.44 79.126 134.87 72.276C128.3 65.436 125.01 55.8759 125.01 43.6059V0.345947H144.73V46.396C144.73 51.8759 146.43 56.2559 149.82 59.5459C153.21 62.8359 157.6 64.4759 162.97 64.4759C168.34 64.4759 172.72 62.8359 176.12 59.5459C179.51 56.2559 181.21 51.8759 181.21 46.396V0.345947H200.93V43.6059C200.93 55.8759 197.64 65.436 191.07 72.276C184.5 79.126 175.13 82.5459 162.97 82.5459Z" fill="#24345E"/>
<path d="M345.27 82.196C344.11 82.196 342.96 82.156 341.81 82.066C328.84 81.096 318.91 74.746 313.85 64.176C313.49 63.426 313.15 62.666 312.83 61.896C302.35 63.106 294.5 63.006 293.77 62.996L294.07 45.286L293.92 54.146L294.06 45.286C294.13 45.286 300.61 45.376 309.37 44.456C309.47 34.666 312.97 25.056 319.7 16.866C330.55 3.66602 347.62 -2.68397 362.2 1.06603C368.8 2.76603 373.74 8.19602 375.09 15.256C377.99 30.416 363.73 42.686 357.46 47.266C349.95 52.746 340.46 56.316 331.1 58.656C333.6 62.066 337.63 63.996 343.13 64.406C355.59 65.336 370.88 57.936 377.91 47.566L392.58 57.506C382.63 72.196 363.19 82.206 345.27 82.206V82.196ZM353.54 17.706C346.53 17.706 338.74 21.616 333.39 28.116C331.47 30.446 328.31 35.116 327.36 41.356C335.6 39.266 342.28 36.426 347.02 32.956C356.42 26.096 357.72 21.016 357.72 19.616C357.72 17.706 354.92 17.706 353.54 17.706Z" fill="#E75452"/>
<path d="M240.57 148.676C233.34 148.676 230.01 145.216 229.31 137.856C228.81 132.696 229.56 126.976 230 121.816C230.57 115.396 231.38 105.846 232.26 99.556C232.7 99.556 233.08 99.496 233.45 99.426C233.89 99.366 235.97 99.736 236.47 99.736C237.66 99.796 238.86 99.866 240.12 99.926C240.06 100.056 239.99 100.176 239.99 100.236C239.17 106.336 238.35 115.576 237.85 121.676C237.47 125.956 236.84 130.666 236.97 134.886C236.97 136.016 237.1 139.226 237.91 139.976C238.35 140.416 239.92 140.476 240.61 140.476C243.88 140.476 247.21 139.786 250.42 139.156C250.86 139.096 251.24 139.096 251.61 139.216C251.74 139.656 251.8 140.036 251.86 140.286C251.99 141.106 251.99 141.986 252.11 142.806C252.17 143.556 252.3 144.256 252.42 145.006C252.55 145.506 252.67 146.016 252.73 146.576C251.1 147.896 242.67 148.656 240.53 148.656L240.57 148.676Z" fill="#24345E"/>
<path d="M307.24 126.796L307.43 126.926C305.48 130.066 300.26 131.896 296.74 131.896C294.6 131.896 292.65 131.326 290.96 130.076C290.14 132.906 289.14 135.676 288 138.376C286.81 141.456 284.48 146.486 280.58 146.486C279.76 146.486 278.82 146.176 278.19 145.606C275.17 143.216 274.04 136.296 273.54 132.776C273.16 133.846 272.78 134.786 272.28 135.606C269.89 139.696 265.49 146.486 260.02 146.486C255.74 146.486 253.92 142.026 253.17 138.496C252.48 135.036 252.48 131.456 252.6 127.936C252.79 124.096 253.23 120.266 253.67 116.426C253.73 115.356 253.92 114.226 254.24 113.216C256.38 113.216 258.45 112.966 260.53 112.716C260.59 113.156 260.59 113.536 260.53 113.976C260.15 119.756 259.27 125.606 259.4 131.396C259.4 133.346 259.78 137.686 261.16 139.256C261.98 140.006 264.74 136.296 265.75 134.916C267.76 132.086 271.28 125.486 271.85 117.746C271.66 116.296 271.47 114.786 271.41 113.346C271.41 112.776 271.41 112.216 271.47 111.706C272.92 111.766 274.36 111.836 275.81 111.766L277.95 111.636C278.14 112.516 278.26 113.396 278.39 114.276C279.14 120.246 279.4 126.226 280.53 132.136C280.84 133.836 281.16 135.536 281.66 137.166C284.11 131.636 285.62 125.656 286.69 119.686V119.556C286.75 117.486 287.07 115.406 287.32 113.326C287.57 110.996 288.64 108.676 291.34 108.676C292.53 108.676 293.6 109.366 293.98 110.816C294.11 111.386 294.04 111.946 294.11 112.516C294.11 114.776 293.8 117.106 293.42 119.366C293.29 120.056 293.92 122.196 294.3 122.826C294.87 123.896 296.12 124.586 297.32 124.646C298.96 124.836 300.59 124.266 301.97 123.386C302.22 123.256 302.41 122.946 302.66 122.756C302.66 122.696 302.72 122.626 302.79 122.626C303.17 123.006 303.42 123.446 303.86 123.756C304.99 124.766 306.12 125.836 307.26 126.776L307.24 126.796ZM253.97 98.306C254.6 96.486 256.49 94.656 258.44 94.656C260.2 94.656 261.71 95.916 261.96 97.736C262.09 98.806 261.77 99.996 261.21 100.946C260.39 102.456 258.63 104.026 256.87 104.026C256.62 104.026 256.3 103.966 256.05 103.896C253.79 103.146 253.22 100.496 253.97 98.296V98.306Z" fill="#24345E"/>
<path d="M307.75 147.356C303.47 147.356 301.65 142.886 300.9 139.366C300.21 135.906 300.21 132.326 300.33 128.796C300.52 124.956 300.96 121.126 301.4 117.286C301.46 116.216 301.65 115.086 301.97 114.076C304.11 114.076 306.18 113.826 308.26 113.576C308.32 114.016 308.32 114.396 308.26 114.836C307.88 120.626 307 126.466 307.13 132.256C307.13 134.206 307.51 138.546 308.89 140.116C309.33 139.926 309.64 139.676 310.02 139.426C313.79 136.536 316.87 130.686 318.51 126.406C320.71 126.596 321.34 127.226 323.6 127.286C322.78 131.876 321.96 134.646 319.26 138.546C317 141.946 312.22 147.346 307.75 147.346V147.356ZM304.6 104.916C304.35 104.916 304.03 104.856 303.78 104.786C301.52 104.036 300.95 101.386 301.7 99.1859C302.33 97.3659 304.22 95.5359 306.17 95.5359C307.93 95.5359 309.44 96.7959 309.69 98.6159C309.82 99.6859 309.5 100.876 308.94 101.826C308.12 103.336 306.36 104.906 304.6 104.906V104.916Z" fill="#24345E"/>
<path d="M342.59 146.476C341.71 146.476 340.83 146.226 340.07 145.786C338.81 145.156 337.99 143.896 337.43 142.646C336.3 140.066 335.98 137.176 335.67 134.406C335.23 130.566 335.17 126.676 334.79 122.836C334.66 121.766 334.54 120.636 334.16 119.566C331.52 121.516 329.19 126.416 328.25 129.376C326.87 133.526 326.36 137.866 325.55 142.146C325.55 142.526 325.55 142.896 325.49 143.276V143.406C325.49 143.786 325.43 144.156 325.36 144.476H324.6C323.03 144.536 321.39 144.606 319.82 144.666H319.25C318.75 142.906 318.87 140.956 318.75 139.066C318.5 136.236 318.31 133.346 318.18 130.516C318.05 126.936 317.93 123.346 317.68 119.766C317.55 118.196 317.37 116.626 317.55 115.116H320.25C320.94 115.056 322.51 115.056 323.96 114.986C324.34 117.436 324.53 119.956 324.71 122.466C326.79 118.506 330.68 112.466 335.59 112.466C340.94 112.466 341.38 119.756 341.56 123.656C341.81 127.426 341.94 131.136 342.38 134.846C342.51 136.356 342.76 137.926 343.45 139.316C343.51 139.376 343.58 139.626 343.64 139.626C343.7 139.686 343.89 139.506 343.95 139.506C344.52 139.066 344.96 138.436 345.4 137.806C347.66 134.286 348.98 130.136 350.43 126.176C351.12 126.176 351.06 126.176 351.69 126.116C353.01 126.116 354.02 125.996 355.34 125.866C355.21 128.886 355.15 129.326 354.77 130.706C353.26 136.426 349.55 146.486 342.57 146.486L342.59 146.476Z" fill="#24345E"/>
<path d="M364.54 162.706C361.02 162.706 356.81 161.196 354.79 158.116C353.41 155.856 353.78 152.516 355.73 150.636C357.3 149.126 359.13 147.866 361.01 146.866C363.9 145.356 366.98 144.476 369.94 143.156C369.94 140.016 369.94 136.866 370 133.726C367.93 137.436 364.47 142.406 360.63 144.476C359.31 145.166 357.61 145.606 356.1 145.416C353.08 144.846 351.19 142.716 350.25 139.886C349.43 137.436 349.24 134.726 349.43 132.156C350 123.606 355.47 111.906 365.47 111.906C367.29 111.966 369.37 112.666 370.63 114.046C370.76 114.176 371.07 114.486 371.13 114.296C371.32 113.726 371.51 113.106 371.76 112.536C374.21 112.476 376.73 112.346 379.24 112.286C378.42 116.936 377.61 121.596 377.17 126.306C376.73 130.706 376.73 135.106 376.73 139.516C382.2 136.116 383.84 132.536 385.85 126.686V126.626C387.23 126.876 389.06 127.066 389.62 127.196C390.5 127.326 391 127.386 391.88 127.386C391.75 127.956 391.38 128.576 391.19 129.146C388.55 136.566 384.96 141.976 376.66 146.816C376.6 150.526 376.41 154.546 374.52 157.696C372.26 161.346 368.61 162.726 364.52 162.726L364.54 162.706ZM358.06 138.236C358.56 138.176 359.63 137.166 359.95 136.796C364.04 132.586 366.87 125.916 368.88 120.506C368.63 120.506 368.38 120.376 368.13 120.256C367.5 119.816 365.05 119.126 364.23 119.126C361.59 119.126 359.51 121.706 358.38 123.776C356.81 126.856 355.99 130.506 356.24 133.966C356.3 135.226 356.49 136.546 357.18 137.546C357.37 137.796 357.75 138.296 358.06 138.236ZM365.73 155.476C366.86 155.476 368.12 155.346 368.69 154.846C369.57 154.156 369.7 151.266 369.76 150.196C366.87 151.326 363.66 152.086 361.21 154.096C361.9 154.666 362.78 155.036 363.6 155.286C364.1 155.416 364.92 155.476 365.74 155.476H365.73Z" fill="#24345E"/>
</svg>
