<svg width="34" height="34" viewBox="0 0 34 34" fill="none" xmlns="http://www.w3.org/2000/svg">
<path d="M16.5901 0C7.43009 0 0 7.43033 0 16.5903C0 25.7503 7.43009 33.1802 16.5901 33.1802C25.7501 33.1802 33.1801 25.7503 33.1801 16.5903C33.1801 7.43033 25.7501 0 16.5901 0ZM23.12 8.38037H21.1801C19.2701 8.38037 18.67 9.57004 18.67 10.79V13.6802H22.9401L22.26 18.1304H18.67V28.9004H13.8501V18.1304H9.94006V13.6802H13.8501V10.29C13.8501 6.43004 16.15 4.30029 19.67 4.30029C21.36 4.30029 23.12 4.6001 23.12 4.6001V8.39014V8.38037Z" fill="#FFFEFF"/>
</svg>
