<svg width="34" height="34" viewBox="0 0 34 34" fill="none" xmlns="http://www.w3.org/2000/svg">
<path d="M16.5901 0C7.43009 0 0 7.43033 0 16.5903C0 25.7503 7.43009 33.1802 16.5901 33.1802C25.7501 33.1802 33.1801 25.7503 33.1801 16.5903C33.1801 7.43033 25.7501 0 16.5901 0ZM26.65 20.6001C26.65 23.9301 23.9401 26.6401 20.6101 26.6401H12.5801C9.25008 26.6401 6.54004 23.9301 6.54004 20.6001V12.5703C6.54004 9.24031 9.25008 6.53027 12.5801 6.53027H20.6101C23.9401 6.53027 26.65 9.24031 26.65 12.5703V20.6001ZM19.8501 16.5903C19.8501 18.3403 18.4301 19.7603 16.6801 19.7603C14.9301 19.7603 13.51 18.3403 13.51 16.5903C13.51 14.8403 14.9301 13.4199 16.6801 13.4199C18.4301 13.4199 19.8501 14.8403 19.8501 16.5903ZM20.6101 8.41992H12.5801C10.2901 8.41992 8.43005 10.2803 8.43005 12.5703V20.6001C8.43005 22.8901 10.2901 24.75 12.5801 24.75H20.6101C22.9001 24.75 24.76 22.8901 24.76 20.6001V12.5703C24.76 10.2803 22.9001 8.41992 20.6101 8.41992ZM16.67 21.54C13.94 21.54 11.7201 19.3203 11.7201 16.5903C11.7201 13.8603 13.94 11.6401 16.67 11.6401C19.4 11.6401 21.62 13.8603 21.62 16.5903C21.62 19.3203 19.4 21.54 16.67 21.54ZM21.92 12.48C21.27 12.48 20.7401 11.9503 20.7401 11.3003C20.7401 10.6503 21.27 10.1201 21.92 10.1201C22.57 10.1201 23.1001 10.6503 23.1001 11.3003C23.1001 11.9503 22.57 12.48 21.92 12.48Z" fill="#FFFEFF"/>
</svg>
