<svg width="34" height="34" viewBox="0 0 34 34" fill="none" xmlns="http://www.w3.org/2000/svg">
<path d="M16.5901 0C7.43009 0 0 7.42984 0 16.5898C0 25.7498 7.43009 33.1797 16.5901 33.1797C25.7501 33.1797 33.1801 25.7498 33.1801 16.5898C33.1801 7.42984 25.7501 0 16.5901 0ZM11.8301 24.1997H8.25V12.6997H11.8301V24.1997ZM10.04 11.1299C8.89004 11.1299 7.96008 10.1996 7.96008 9.05957C7.96008 7.91957 8.89004 6.98975 10.04 6.98975C11.19 6.98975 12.1101 7.91957 12.1101 9.05957C12.1101 10.1996 11.18 11.1299 10.04 11.1299ZM25.2201 24.1997H21.65V18.6099C21.65 17.2799 21.62 15.5596 19.79 15.5596C17.96 15.5596 17.64 17.0098 17.64 18.5098V24.1997H14.0701V12.6997H17.5V14.27H17.55C18.03 13.36 19.1901 12.4097 20.9401 12.4097C24.5601 12.4097 25.2301 14.7896 25.2301 17.8896V24.1997H25.2201Z" fill="#FFFEFF"/>
</svg>
