<svg width="64" height="64" viewBox="0 0 64 64" fill="none" xmlns="http://www.w3.org/2000/svg">
<path d="M34.2283 0L37.7083 0.529999C50.1883 2.91 60.3184 13 62.6784 25.5L63.2083 28.98C63.1283 30.68 63.3183 32.47 63.2083 34.16C62.3683 47.01 52.6784 58.48 40.3984 61.97C16.4784 68.76 -5.54166 46.74 1.24834 22.82C4.73834 10.53 16.2083 0.849979 29.0583 0.00997925H34.2383L34.2283 0ZM30.3783 5.20999C9.97835 6.27999 -1.77163 29.26 9.77837 46.33C20.2684 61.83 43.1883 61.74 53.5883 46.18C65.5583 28.26 51.7883 4.08999 30.3783 5.20999Z" fill="#FFFEFF"/>
<path d="M36.8482 26.91C36.5282 27.2 36.5582 28.01 36.5682 28.42C36.6682 31.57 37.4883 36.38 38.4083 39.4C39.3583 42.51 41.2683 46.14 41.9283 49.19C42.5983 52.25 39.1282 53.75 37.2482 51.41C35.3582 47.19 34.2383 42.44 32.4283 38.23C32.2983 37.92 32.1082 37.65 31.9382 37.37C31.7182 37.48 31.2883 38.64 31.1683 38.94C29.7283 42.58 28.6682 46.39 27.1982 50.01C26.7582 51.08 26.4082 52.21 25.1082 52.48C23.2482 52.86 21.8183 51.64 21.7783 49.78C22.8183 45.58 25.3482 41.31 25.9482 37.05C26.2582 34.86 26.4182 32.01 26.4582 29.8C26.4882 28.25 26.9082 27.08 25.2182 26.59C22.2082 25.72 18.5782 25.63 15.5782 24.77C12.3582 23.84 12.9983 19.41 16.5383 19.62C20.7183 19.87 25.3082 21.62 29.7182 21.85C35.9182 22.17 40.7382 20.17 46.5082 19.64C47.7982 19.52 48.9382 19.8 49.4982 21.06C50.2482 22.74 49.3882 24.28 47.6882 24.77C44.5582 25.67 40.8182 25.81 37.6282 26.67C37.4182 26.73 36.9782 26.8 36.8382 26.93L36.8482 26.91Z" fill="#FFFEFF"/>
<path d="M30.7383 10.6301C37.1983 9.62013 38.1283 19.0401 32.1783 19.7101C26.2283 20.3801 25.2783 11.4801 30.7383 10.6301Z" fill="#FFFEFF"/>
</svg>
