<svg width="34" height="34" viewBox="0 0 34 34" fill="none" xmlns="http://www.w3.org/2000/svg">
<path d="M16.59 0C7.43 0 0 7.42997 0 16.59C0 25.75 7.43 33.18 16.59 33.18C25.75 33.18 33.18 25.75 33.18 16.59C33.18 7.42997 25.75 0 16.59 0ZM26.65 20.61C26.65 23.94 23.94 26.65 20.61 26.65H12.58C9.25 26.65 6.53999 23.94 6.53999 20.61V12.58C6.53999 9.24996 9.25 6.53998 12.58 6.53998H20.61C23.94 6.53998 26.65 9.24996 26.65 12.58V20.61ZM19.85 16.59C19.85 18.34 18.43 19.76 16.68 19.76C14.93 19.76 13.51 18.34 13.51 16.59C13.51 14.84 14.93 13.42 16.68 13.42C18.43 13.42 19.85 14.84 19.85 16.59ZM20.61 8.42999H12.58C10.29 8.42999 8.42999 10.29 8.42999 12.58V20.61C8.42999 22.9 10.29 24.76 12.58 24.76H20.61C22.9 24.76 24.76 22.9 24.76 20.61V12.58C24.76 10.29 22.9 8.42999 20.61 8.42999ZM16.67 21.54C13.94 21.54 11.72 19.32 11.72 16.59C11.72 13.86 13.94 11.64 16.67 11.64C19.4 11.64 21.62 13.86 21.62 16.59C21.62 19.32 19.4 21.54 16.67 21.54ZM21.91 12.49C21.26 12.49 20.73 11.96 20.73 11.31C20.73 10.66 21.26 10.13 21.91 10.13C22.56 10.13 23.09 10.66 23.09 11.31C23.09 11.96 22.56 12.49 21.91 12.49Z" fill="#24345E"/>
</svg>
