<svg width="1362" height="457" viewBox="0 0 1362 457" fill="none" xmlns="http://www.w3.org/2000/svg">
<path d="M-89 112.16C-89 112.16 -39.69 39.55 79.09 37.3C197.88 35.06 226.73 95.47 231.53 147.12C240.37 242.3 162.28 263.66 186.8 353.31C211.32 442.96 368.21 494.51 442.17 373.48C516.13 252.45 632.68 143.29 767.15 198.66C843.35 230.04 863.91 306.73 885.94 371.24C927.27 492.27 1140.22 472.1 1162.67 288.31C1183.21 120.2 1322.98 138.15 1361.08 140.39" stroke="#918CF2" stroke-width="16" stroke-miterlimit="10"/>
<path d="M164.65 25V7.5H168.9V21.25H176.7V25H164.65ZM179.684 25V11.725H183.684V25H179.684ZM181.684 9.1C180.934 9.1 180.343 8.925 179.909 8.575C179.493 8.20833 179.284 7.69167 179.284 7.025C179.284 6.425 179.501 5.93333 179.934 5.55C180.368 5.16667 180.951 4.975 181.684 4.975C182.434 4.975 183.018 5.15833 183.434 5.525C183.851 5.875 184.059 6.375 184.059 7.025C184.059 7.64167 183.843 8.14167 183.409 8.525C182.993 8.90833 182.418 9.1 181.684 9.1ZM191.918 25.25C190.618 25.25 189.468 25.0417 188.468 24.625C187.484 24.2083 186.701 23.65 186.118 22.95L188.543 20.85C189.059 21.3667 189.643 21.75 190.293 22C190.943 22.2333 191.559 22.35 192.143 22.35C192.376 22.35 192.584 22.325 192.768 22.275C192.951 22.225 193.101 22.1583 193.218 22.075C193.351 21.975 193.451 21.8667 193.518 21.75C193.584 21.6167 193.618 21.4667 193.618 21.3C193.618 20.9667 193.468 20.7083 193.168 20.525C193.018 20.4417 192.768 20.3417 192.418 20.225C192.068 20.1083 191.618 19.975 191.068 19.825C190.284 19.625 189.601 19.3917 189.018 19.125C188.451 18.8417 187.984 18.5167 187.618 18.15C187.284 17.8 187.026 17.4167 186.843 17C186.659 16.5667 186.568 16.0833 186.568 15.55C186.568 14.9333 186.709 14.375 186.993 13.875C187.293 13.375 187.684 12.9417 188.168 12.575C188.668 12.2083 189.234 11.9333 189.868 11.75C190.518 11.55 191.184 11.45 191.868 11.45C192.601 11.45 193.301 11.5333 193.968 11.7C194.634 11.8667 195.251 12.1 195.818 12.4C196.401 12.7 196.918 13.0583 197.368 13.475L195.268 15.825C194.968 15.5417 194.626 15.2917 194.243 15.075C193.876 14.8417 193.493 14.6583 193.093 14.525C192.693 14.3917 192.326 14.325 191.993 14.325C191.743 14.325 191.518 14.35 191.318 14.4C191.134 14.4333 190.976 14.5 190.843 14.6C190.709 14.6833 190.609 14.7917 190.543 14.925C190.476 15.0417 190.443 15.1833 190.443 15.35C190.443 15.5167 190.484 15.675 190.568 15.825C190.668 15.975 190.801 16.1 190.968 16.2C191.134 16.3 191.401 16.4167 191.768 16.55C192.134 16.6667 192.634 16.8167 193.268 17C194.051 17.2167 194.726 17.4583 195.293 17.725C195.859 17.9917 196.309 18.3083 196.643 18.675C196.909 18.9583 197.109 19.2917 197.243 19.675C197.376 20.0417 197.443 20.4417 197.443 20.875C197.443 21.725 197.201 22.4833 196.718 23.15C196.251 23.8 195.601 24.3167 194.768 24.7C193.934 25.0667 192.984 25.25 191.918 25.25ZM200.921 25V8.375H204.921V25H200.921ZM198.571 15.225V11.725H207.496V15.225H198.571ZM215.985 25.25C214.518 25.25 213.243 24.9583 212.16 24.375C211.076 23.775 210.235 22.9667 209.635 21.95C209.035 20.9167 208.735 19.7417 208.735 18.425C208.735 17.4083 208.901 16.475 209.235 15.625C209.568 14.775 210.035 14.0417 210.635 13.425C211.235 12.7917 211.943 12.3083 212.76 11.975C213.593 11.625 214.501 11.45 215.485 11.45C216.418 11.45 217.268 11.6167 218.035 11.95C218.818 12.2833 219.493 12.75 220.06 13.35C220.626 13.95 221.06 14.6583 221.36 15.475C221.66 16.2917 221.793 17.1833 221.76 18.15L221.735 19.225H211.16L210.585 16.975H218.485L218.06 17.45V16.95C218.026 16.5333 217.893 16.1667 217.66 15.85C217.443 15.5167 217.151 15.2583 216.785 15.075C216.418 14.8917 216.001 14.8 215.535 14.8C214.885 14.8 214.326 14.9333 213.86 15.2C213.41 15.45 213.068 15.825 212.835 16.325C212.601 16.8083 212.485 17.4083 212.485 18.125C212.485 18.8583 212.635 19.5 212.935 20.05C213.251 20.5833 213.701 21 214.285 21.3C214.885 21.6 215.593 21.75 216.41 21.75C216.976 21.75 217.476 21.6667 217.91 21.5C218.36 21.3333 218.843 21.05 219.36 20.65L221.235 23.3C220.718 23.75 220.168 24.1167 219.585 24.4C219.001 24.6833 218.401 24.8917 217.785 25.025C217.185 25.175 216.585 25.25 215.985 25.25ZM224.308 25V11.725H228.108L228.233 14.425L227.433 14.725C227.616 14.125 227.941 13.5833 228.408 13.1C228.891 12.6 229.466 12.2 230.133 11.9C230.8 11.6 231.5 11.45 232.233 11.45C233.233 11.45 234.075 11.6583 234.758 12.075C235.441 12.475 235.958 13.0833 236.308 13.9C236.658 14.7 236.833 15.6833 236.833 16.85V25H232.808V17.175C232.808 16.6417 232.733 16.2 232.583 15.85C232.433 15.5 232.2 15.2417 231.883 15.075C231.583 14.8917 231.208 14.8083 230.758 14.825C230.408 14.825 230.083 14.8833 229.783 15C229.483 15.1 229.225 15.2583 229.008 15.475C228.791 15.675 228.616 15.9083 228.483 16.175C228.366 16.4417 228.308 16.7333 228.308 17.05V25H226.333C225.866 25 225.466 25 225.133 25C224.8 25 224.525 25 224.308 25Z" fill="#FFFEFF"/>
<path d="M252 222.21V204.71H259.55C260.65 204.71 261.625 204.96 262.475 205.46C263.342 205.96 264.025 206.643 264.525 207.51C265.042 208.377 265.3 209.352 265.3 210.435C265.3 211.568 265.042 212.585 264.525 213.485C264.025 214.368 263.342 215.068 262.475 215.585C261.625 216.102 260.65 216.36 259.55 216.36H256.25V222.21H252ZM256.175 212.635H258.95C259.317 212.635 259.65 212.543 259.95 212.36C260.25 212.177 260.492 211.927 260.675 211.61C260.858 211.293 260.95 210.927 260.95 210.51C260.95 210.077 260.858 209.71 260.675 209.41C260.492 209.11 260.25 208.877 259.95 208.71C259.65 208.543 259.317 208.46 258.95 208.46H256.175V212.635ZM268.153 222.21V203.71H272.153V222.21H268.153ZM280.376 222.435C279.26 222.435 278.26 222.143 277.376 221.56C276.51 220.96 275.818 220.143 275.301 219.11C274.785 218.06 274.526 216.877 274.526 215.56C274.526 214.21 274.785 213.018 275.301 211.985C275.818 210.952 276.526 210.143 277.426 209.56C278.326 208.96 279.351 208.66 280.501 208.66C281.135 208.66 281.71 208.752 282.226 208.935C282.76 209.118 283.226 209.377 283.626 209.71C284.026 210.027 284.368 210.402 284.651 210.835C284.935 211.252 285.143 211.702 285.276 212.185L284.451 212.085V208.935H288.426V222.21H284.376V219.01L285.276 218.985C285.143 219.452 284.926 219.893 284.626 220.31C284.326 220.727 283.96 221.093 283.526 221.41C283.093 221.727 282.61 221.977 282.076 222.16C281.543 222.343 280.976 222.435 280.376 222.435ZM281.476 219.06C282.093 219.06 282.626 218.918 283.076 218.635C283.526 218.352 283.876 217.952 284.126 217.435C284.376 216.902 284.501 216.277 284.501 215.56C284.501 214.843 284.376 214.227 284.126 213.71C283.876 213.177 283.526 212.768 283.076 212.485C282.626 212.185 282.093 212.035 281.476 212.035C280.876 212.035 280.351 212.185 279.901 212.485C279.468 212.768 279.126 213.177 278.876 213.71C278.626 214.227 278.501 214.843 278.501 215.56C278.501 216.277 278.626 216.902 278.876 217.435C279.126 217.952 279.468 218.352 279.901 218.635C280.351 218.918 280.876 219.06 281.476 219.06ZM291.956 222.21V208.935H295.756L295.881 211.635L295.081 211.935C295.264 211.335 295.589 210.793 296.056 210.31C296.539 209.81 297.114 209.41 297.781 209.11C298.448 208.81 299.148 208.66 299.881 208.66C300.881 208.66 301.723 208.868 302.406 209.285C303.089 209.685 303.606 210.293 303.956 211.11C304.306 211.91 304.481 212.893 304.481 214.06V222.21H300.456V214.385C300.456 213.852 300.381 213.41 300.231 213.06C300.081 212.71 299.848 212.452 299.531 212.285C299.231 212.102 298.856 212.018 298.406 212.035C298.056 212.035 297.731 212.093 297.431 212.21C297.131 212.31 296.873 212.468 296.656 212.685C296.439 212.885 296.264 213.118 296.131 213.385C296.014 213.652 295.956 213.943 295.956 214.26V222.21H293.981C293.514 222.21 293.114 222.21 292.781 222.21C292.448 222.21 292.173 222.21 291.956 222.21Z" fill="#FFFEFF"/>
<path d="M148.66 450.45V432.95H152.46L158.835 443.325L156.11 443.3L162.56 432.95H166.21V450.45H162.085V445C162.085 443.5 162.118 442.15 162.185 440.95C162.268 439.75 162.402 438.558 162.585 437.375L163.06 438.675L158.21 446.2H156.56L151.81 438.725L152.285 437.375C152.468 438.492 152.593 439.642 152.66 440.825C152.743 441.992 152.785 443.383 152.785 445V450.45H148.66ZM175.083 450.675C173.967 450.675 172.967 450.383 172.083 449.8C171.217 449.2 170.525 448.383 170.008 447.35C169.492 446.3 169.233 445.117 169.233 443.8C169.233 442.45 169.492 441.258 170.008 440.225C170.525 439.192 171.233 438.383 172.133 437.8C173.033 437.2 174.058 436.9 175.208 436.9C175.842 436.9 176.417 436.992 176.933 437.175C177.467 437.358 177.933 437.617 178.333 437.95C178.733 438.267 179.075 438.642 179.358 439.075C179.642 439.492 179.85 439.942 179.983 440.425L179.158 440.325V437.175H183.133V450.45H179.083V447.25L179.983 447.225C179.85 447.692 179.633 448.133 179.333 448.55C179.033 448.967 178.667 449.333 178.233 449.65C177.8 449.967 177.317 450.217 176.783 450.4C176.25 450.583 175.683 450.675 175.083 450.675ZM176.183 447.3C176.8 447.3 177.333 447.158 177.783 446.875C178.233 446.592 178.583 446.192 178.833 445.675C179.083 445.142 179.208 444.517 179.208 443.8C179.208 443.083 179.083 442.467 178.833 441.95C178.583 441.417 178.233 441.008 177.783 440.725C177.333 440.425 176.8 440.275 176.183 440.275C175.583 440.275 175.058 440.425 174.608 440.725C174.175 441.008 173.833 441.417 173.583 441.95C173.333 442.467 173.208 443.083 173.208 443.8C173.208 444.517 173.333 445.142 173.583 445.675C173.833 446.192 174.175 446.592 174.608 446.875C175.058 447.158 175.583 447.3 176.183 447.3ZM187.763 450.45V433.825H191.763V450.45H187.763ZM185.413 440.675V437.175H194.338V440.675H185.413ZM202.327 450.7C201.043 450.7 199.893 450.4 198.877 449.8C197.86 449.2 197.052 448.383 196.452 447.35C195.868 446.3 195.577 445.117 195.577 443.8C195.577 442.483 195.868 441.308 196.452 440.275C197.052 439.225 197.86 438.4 198.877 437.8C199.893 437.2 201.043 436.9 202.327 436.9C203.51 436.9 204.593 437.108 205.577 437.525C206.577 437.942 207.368 438.525 207.952 439.275L205.777 441.875C205.543 441.608 205.268 441.358 204.952 441.125C204.635 440.892 204.285 440.708 203.902 440.575C203.518 440.442 203.118 440.375 202.702 440.375C202.068 440.375 201.51 440.525 201.027 440.825C200.543 441.108 200.168 441.508 199.902 442.025C199.635 442.542 199.502 443.133 199.502 443.8C199.502 444.433 199.635 445.008 199.902 445.525C200.185 446.042 200.568 446.45 201.052 446.75C201.535 447.05 202.085 447.2 202.702 447.2C203.135 447.2 203.535 447.15 203.902 447.05C204.268 446.933 204.602 446.767 204.902 446.55C205.218 446.333 205.51 446.067 205.777 445.75L207.927 448.375C207.36 449.092 206.568 449.658 205.552 450.075C204.552 450.492 203.477 450.7 202.327 450.7ZM210.125 450.45V431.95H214.05V439.875L213.25 440.175C213.433 439.575 213.758 439.033 214.225 438.55C214.708 438.05 215.283 437.65 215.95 437.35C216.616 437.05 217.316 436.9 218.05 436.9C219.05 436.9 219.891 437.108 220.575 437.525C221.258 437.925 221.775 438.533 222.125 439.35C222.475 440.15 222.65 441.133 222.65 442.3V450.45H218.625V442.625C218.625 442.092 218.55 441.65 218.4 441.3C218.25 440.95 218.016 440.692 217.7 440.525C217.4 440.342 217.025 440.258 216.575 440.275C216.225 440.275 215.9 440.333 215.6 440.45C215.3 440.55 215.041 440.708 214.825 440.925C214.608 441.125 214.433 441.358 214.3 441.625C214.183 441.892 214.125 442.183 214.125 442.5V450.45H212.15C211.683 450.45 211.283 450.45 210.95 450.45C210.616 450.45 210.341 450.45 210.125 450.45Z" fill="#FFFEFF"/>
<path d="M459.83 410.75C458.68 410.75 457.638 410.617 456.705 410.35C455.788 410.067 454.972 409.667 454.255 409.15C453.538 408.617 452.897 407.992 452.33 407.275L454.905 404.35C455.738 405.467 456.572 406.217 457.405 406.6C458.255 406.983 459.13 407.175 460.03 407.175C460.48 407.175 460.888 407.117 461.255 407C461.622 406.883 461.905 406.717 462.105 406.5C462.305 406.267 462.405 405.983 462.405 405.65C462.405 405.4 462.338 405.175 462.205 404.975C462.088 404.775 461.922 404.6 461.705 404.45C461.488 404.3 461.23 404.167 460.93 404.05C460.63 403.917 460.313 403.808 459.98 403.725C459.647 403.625 459.305 403.542 458.955 403.475C457.988 403.258 457.147 402.992 456.43 402.675C455.713 402.358 455.113 401.975 454.63 401.525C454.163 401.058 453.813 400.533 453.58 399.95C453.347 399.35 453.23 398.683 453.23 397.95C453.23 397.167 453.405 396.45 453.755 395.8C454.122 395.133 454.605 394.567 455.205 394.1C455.822 393.617 456.53 393.25 457.33 393C458.13 392.733 458.963 392.6 459.83 392.6C460.98 392.6 461.963 392.725 462.78 392.975C463.613 393.208 464.322 393.55 464.905 394C465.505 394.45 466.013 394.992 466.43 395.625L463.805 398.15C463.455 397.717 463.072 397.358 462.655 397.075C462.255 396.792 461.822 396.575 461.355 396.425C460.905 396.275 460.438 396.2 459.955 396.2C459.455 396.2 459.022 396.267 458.655 396.4C458.305 396.517 458.03 396.692 457.83 396.925C457.63 397.142 457.53 397.408 457.53 397.725C457.53 398.008 457.613 398.25 457.78 398.45C457.947 398.65 458.172 398.833 458.455 399C458.738 399.15 459.063 399.283 459.43 399.4C459.797 399.5 460.18 399.583 460.58 399.65C461.497 399.833 462.322 400.075 463.055 400.375C463.805 400.675 464.447 401.042 464.98 401.475C465.53 401.908 465.947 402.425 466.23 403.025C466.53 403.608 466.68 404.292 466.68 405.075C466.68 406.292 466.38 407.325 465.78 408.175C465.197 409.008 464.388 409.65 463.355 410.1C462.338 410.533 461.163 410.75 459.83 410.75ZM473.975 410.775C472.991 410.775 472.15 410.567 471.45 410.15C470.766 409.717 470.233 409.1 469.85 408.3C469.483 407.5 469.3 406.542 469.3 405.425V397.225H473.325V404.875C473.325 405.408 473.408 405.867 473.575 406.25C473.741 406.633 473.991 406.933 474.325 407.15C474.658 407.35 475.058 407.45 475.525 407.45C475.875 407.45 476.191 407.392 476.475 407.275C476.775 407.158 477.025 407 477.225 406.8C477.441 406.583 477.608 406.342 477.725 406.075C477.841 405.792 477.9 405.483 477.9 405.15V397.225H481.925V410.5H478.15L477.975 407.775L478.725 407.475C478.525 408.108 478.191 408.675 477.725 409.175C477.258 409.658 476.7 410.05 476.05 410.35C475.4 410.633 474.708 410.775 473.975 410.775ZM485.49 416V397.225H489.29L489.44 400.2L488.69 399.975C488.806 399.425 489.09 398.925 489.54 398.475C489.99 398.025 490.556 397.667 491.24 397.4C491.94 397.117 492.673 396.975 493.44 396.975C494.573 396.975 495.581 397.275 496.465 397.875C497.348 398.458 498.04 399.267 498.54 400.3C499.056 401.317 499.315 402.5 499.315 403.85C499.315 405.183 499.056 406.367 498.54 407.4C498.04 408.433 497.34 409.25 496.44 409.85C495.556 410.433 494.54 410.725 493.39 410.725C492.64 410.725 491.923 410.583 491.24 410.3C490.556 410.017 489.981 409.633 489.515 409.15C489.048 408.667 488.74 408.142 488.59 407.575L489.515 407.225V416H485.49ZM492.415 407.35C493.015 407.35 493.54 407.208 493.99 406.925C494.44 406.625 494.79 406.217 495.04 405.7C495.29 405.183 495.415 404.567 495.415 403.85C495.415 403.15 495.29 402.542 495.04 402.025C494.79 401.492 494.44 401.083 493.99 400.8C493.556 400.5 493.031 400.35 492.415 400.35C491.798 400.35 491.265 400.492 490.815 400.775C490.365 401.058 490.015 401.467 489.765 402C489.515 402.533 489.39 403.15 489.39 403.85C489.39 404.567 489.515 405.183 489.765 405.7C490.015 406.217 490.365 406.625 490.815 406.925C491.265 407.208 491.798 407.35 492.415 407.35ZM501.969 416V397.225H505.769L505.919 400.2L505.169 399.975C505.286 399.425 505.569 398.925 506.019 398.475C506.469 398.025 507.036 397.667 507.719 397.4C508.419 397.117 509.153 396.975 509.919 396.975C511.053 396.975 512.061 397.275 512.944 397.875C513.828 398.458 514.519 399.267 515.019 400.3C515.536 401.317 515.794 402.5 515.794 403.85C515.794 405.183 515.536 406.367 515.019 407.4C514.519 408.433 513.819 409.25 512.919 409.85C512.036 410.433 511.019 410.725 509.869 410.725C509.119 410.725 508.403 410.583 507.719 410.3C507.036 410.017 506.461 409.633 505.994 409.15C505.528 408.667 505.219 408.142 505.069 407.575L505.994 407.225V416H501.969ZM508.894 407.35C509.494 407.35 510.019 407.208 510.469 406.925C510.919 406.625 511.269 406.217 511.519 405.7C511.769 405.183 511.894 404.567 511.894 403.85C511.894 403.15 511.769 402.542 511.519 402.025C511.269 401.492 510.919 401.083 510.469 400.8C510.036 400.5 509.511 400.35 508.894 400.35C508.278 400.35 507.744 400.492 507.294 400.775C506.844 401.058 506.494 401.467 506.244 402C505.994 402.533 505.869 403.15 505.869 403.85C505.869 404.567 505.994 405.183 506.244 405.7C506.494 406.217 506.844 406.625 507.294 406.925C507.744 407.208 508.278 407.35 508.894 407.35ZM524.699 410.75C523.315 410.75 522.082 410.45 520.999 409.85C519.932 409.25 519.082 408.433 518.449 407.4C517.832 406.367 517.524 405.183 517.524 403.85C517.524 402.517 517.832 401.333 518.449 400.3C519.082 399.267 519.932 398.45 520.999 397.85C522.082 397.25 523.315 396.95 524.699 396.95C526.082 396.95 527.307 397.25 528.374 397.85C529.457 398.45 530.307 399.267 530.924 400.3C531.54 401.333 531.849 402.517 531.849 403.85C531.849 405.183 531.54 406.367 530.924 407.4C530.307 408.433 529.457 409.25 528.374 409.85C527.307 410.45 526.082 410.75 524.699 410.75ZM524.699 407.3C525.299 407.3 525.832 407.15 526.299 406.85C526.765 406.55 527.132 406.142 527.399 405.625C527.665 405.108 527.79 404.517 527.774 403.85C527.79 403.183 527.665 402.592 527.399 402.075C527.132 401.542 526.765 401.125 526.299 400.825C525.832 400.525 525.299 400.375 524.699 400.375C524.099 400.375 523.557 400.525 523.074 400.825C522.607 401.125 522.24 401.542 521.974 402.075C521.707 402.592 521.582 403.183 521.599 403.85C521.582 404.517 521.707 405.108 521.974 405.625C522.24 406.142 522.607 406.55 523.074 406.85C523.557 407.15 524.099 407.3 524.699 407.3ZM534.464 410.5V397.225H538.264L538.439 401.55L537.689 400.725C537.889 400.008 538.214 399.367 538.664 398.8C539.131 398.233 539.673 397.783 540.289 397.45C540.906 397.117 541.564 396.95 542.264 396.95C542.564 396.95 542.839 396.975 543.089 397.025C543.356 397.075 543.598 397.133 543.814 397.2L542.714 401.625C542.531 401.508 542.281 401.417 541.964 401.35C541.664 401.267 541.348 401.225 541.014 401.225C540.648 401.225 540.306 401.292 539.989 401.425C539.673 401.542 539.406 401.717 539.189 401.95C538.973 402.183 538.798 402.458 538.664 402.775C538.548 403.092 538.489 403.45 538.489 403.85V410.5H534.464ZM547.43 410.5V393.875H551.43V410.5H547.43ZM545.08 400.725V397.225H554.005V400.725H545.08Z" fill="#FFFEFF"/>
<path d="M699.37 159.33V141.83H711.57V145.455H703.495V155.705H711.82V159.33H699.37ZM701.37 152.155V148.705H710.445V152.155H701.37ZM718.767 159.33L713.217 146.055H717.642L720.942 155.98L719.967 156.08L723.367 146.055H727.742L721.917 159.33H718.767ZM734.363 159.555C733.246 159.555 732.246 159.263 731.363 158.68C730.496 158.08 729.804 157.263 729.288 156.23C728.771 155.18 728.513 153.997 728.513 152.68C728.513 151.33 728.771 150.138 729.288 149.105C729.804 148.072 730.513 147.263 731.413 146.68C732.313 146.08 733.338 145.78 734.488 145.78C735.121 145.78 735.696 145.872 736.213 146.055C736.746 146.238 737.213 146.497 737.613 146.83C738.013 147.147 738.354 147.522 738.638 147.955C738.921 148.372 739.129 148.822 739.263 149.305L738.438 149.205V146.055H742.413V159.33H738.363V156.13L739.263 156.105C739.129 156.572 738.913 157.013 738.613 157.43C738.313 157.847 737.946 158.213 737.513 158.53C737.079 158.847 736.596 159.097 736.063 159.28C735.529 159.463 734.963 159.555 734.363 159.555ZM735.463 156.18C736.079 156.18 736.613 156.038 737.063 155.755C737.513 155.472 737.863 155.072 738.113 154.555C738.363 154.022 738.488 153.397 738.488 152.68C738.488 151.963 738.363 151.347 738.113 150.83C737.863 150.297 737.513 149.888 737.063 149.605C736.613 149.305 736.079 149.155 735.463 149.155C734.863 149.155 734.338 149.305 733.888 149.605C733.454 149.888 733.113 150.297 732.863 150.83C732.613 151.347 732.488 151.963 732.488 152.68C732.488 153.397 732.613 154.022 732.863 154.555C733.113 155.072 733.454 155.472 733.888 155.755C734.338 156.038 734.863 156.18 735.463 156.18ZM745.967 159.33V140.83H749.967V159.33H745.967ZM757.938 159.605C756.954 159.605 756.113 159.397 755.413 158.98C754.729 158.547 754.196 157.93 753.813 157.13C753.446 156.33 753.263 155.372 753.263 154.255V146.055H757.288V153.705C757.288 154.238 757.371 154.697 757.538 155.08C757.704 155.463 757.954 155.763 758.288 155.98C758.621 156.18 759.021 156.28 759.488 156.28C759.838 156.28 760.154 156.222 760.438 156.105C760.738 155.988 760.988 155.83 761.188 155.63C761.404 155.413 761.571 155.172 761.688 154.905C761.804 154.622 761.863 154.313 761.863 153.98V146.055H765.888V159.33H762.113L761.938 156.605L762.688 156.305C762.488 156.938 762.154 157.505 761.688 158.005C761.221 158.488 760.663 158.88 760.013 159.18C759.363 159.463 758.671 159.605 757.938 159.605ZM774.353 159.555C773.236 159.555 772.236 159.263 771.353 158.68C770.486 158.08 769.794 157.263 769.278 156.23C768.761 155.18 768.503 153.997 768.503 152.68C768.503 151.33 768.761 150.138 769.278 149.105C769.794 148.072 770.503 147.263 771.403 146.68C772.303 146.08 773.328 145.78 774.478 145.78C775.111 145.78 775.686 145.872 776.203 146.055C776.736 146.238 777.203 146.497 777.603 146.83C778.003 147.147 778.344 147.522 778.628 147.955C778.911 148.372 779.119 148.822 779.253 149.305L778.428 149.205V146.055H782.403V159.33H778.353V156.13L779.253 156.105C779.119 156.572 778.903 157.013 778.603 157.43C778.303 157.847 777.936 158.213 777.503 158.53C777.069 158.847 776.586 159.097 776.053 159.28C775.519 159.463 774.953 159.555 774.353 159.555ZM775.453 156.18C776.069 156.18 776.603 156.038 777.053 155.755C777.503 155.472 777.853 155.072 778.103 154.555C778.353 154.022 778.478 153.397 778.478 152.68C778.478 151.963 778.353 151.347 778.103 150.83C777.853 150.297 777.503 149.888 777.053 149.605C776.603 149.305 776.069 149.155 775.453 149.155C774.853 149.155 774.328 149.305 773.878 149.605C773.444 149.888 773.103 150.297 772.853 150.83C772.603 151.347 772.478 151.963 772.478 152.68C772.478 153.397 772.603 154.022 772.853 154.555C773.103 155.072 773.444 155.472 773.878 155.755C774.328 156.038 774.853 156.18 775.453 156.18ZM787.032 159.33V142.705H791.032V159.33H787.032ZM784.682 149.555V146.055H793.607V149.555H784.682ZM802.096 159.58C800.63 159.58 799.355 159.288 798.271 158.705C797.188 158.105 796.346 157.297 795.746 156.28C795.146 155.247 794.846 154.072 794.846 152.755C794.846 151.738 795.013 150.805 795.346 149.955C795.68 149.105 796.146 148.372 796.746 147.755C797.346 147.122 798.055 146.638 798.871 146.305C799.705 145.955 800.613 145.78 801.596 145.78C802.53 145.78 803.38 145.947 804.146 146.28C804.93 146.613 805.605 147.08 806.171 147.68C806.738 148.28 807.171 148.988 807.471 149.805C807.771 150.622 807.905 151.513 807.871 152.48L807.846 153.555H797.271L796.696 151.305H804.596L804.171 151.78V151.28C804.138 150.863 804.005 150.497 803.771 150.18C803.555 149.847 803.263 149.588 802.896 149.405C802.53 149.222 802.113 149.13 801.646 149.13C800.996 149.13 800.438 149.263 799.971 149.53C799.521 149.78 799.18 150.155 798.946 150.655C798.713 151.138 798.596 151.738 798.596 152.455C798.596 153.188 798.746 153.83 799.046 154.38C799.363 154.913 799.813 155.33 800.396 155.63C800.996 155.93 801.705 156.08 802.521 156.08C803.088 156.08 803.588 155.997 804.021 155.83C804.471 155.663 804.955 155.38 805.471 154.98L807.346 157.63C806.83 158.08 806.28 158.447 805.696 158.73C805.113 159.013 804.513 159.222 803.896 159.355C803.296 159.505 802.696 159.58 802.096 159.58Z" fill="#FFFEFF"/>
<path d="M457.825 227.1L464.75 209.6H468.35L475.225 227.1H470.925L467.625 218.225C467.492 217.875 467.358 217.5 467.225 217.1C467.092 216.7 466.958 216.292 466.825 215.875C466.692 215.442 466.558 215.025 466.425 214.625C466.308 214.208 466.208 213.825 466.125 213.475L466.875 213.45C466.775 213.867 466.658 214.275 466.525 214.675C466.408 215.075 466.283 215.475 466.15 215.875C466.033 216.258 465.9 216.65 465.75 217.05C465.6 217.433 465.458 217.833 465.325 218.25L462.025 227.1H457.825ZM461.125 223.75L462.45 220.55H470.5L471.8 223.75H461.125ZM481.52 227.375C480.37 227.375 479.345 227.083 478.445 226.5C477.562 225.9 476.862 225.083 476.345 224.05C475.828 223 475.57 221.808 475.57 220.475C475.57 219.142 475.828 217.958 476.345 216.925C476.862 215.875 477.57 215.05 478.47 214.45C479.37 213.85 480.403 213.55 481.57 213.55C482.17 213.55 482.745 213.642 483.295 213.825C483.845 214.008 484.345 214.258 484.795 214.575C485.245 214.892 485.612 215.258 485.895 215.675C486.178 216.075 486.345 216.492 486.395 216.925L485.445 217.15V208.6H489.47V227.1H485.745L485.52 224.075L486.32 224.2C486.27 224.617 486.103 225.017 485.82 225.4C485.553 225.783 485.203 226.125 484.77 226.425C484.337 226.708 483.837 226.933 483.27 227.1C482.72 227.283 482.137 227.375 481.52 227.375ZM482.545 224.05C483.162 224.05 483.695 223.9 484.145 223.6C484.595 223.3 484.937 222.883 485.17 222.35C485.42 221.817 485.545 221.192 485.545 220.475C485.545 219.742 485.42 219.108 485.17 218.575C484.937 218.042 484.595 217.625 484.145 217.325C483.695 217.025 483.162 216.875 482.545 216.875C481.928 216.875 481.395 217.025 480.945 217.325C480.512 217.625 480.17 218.042 479.92 218.575C479.67 219.108 479.545 219.742 479.545 220.475C479.545 221.192 479.67 221.817 479.92 222.35C480.17 222.883 480.512 223.3 480.945 223.6C481.395 223.9 481.928 224.05 482.545 224.05ZM491.653 232.35L490.128 229.25C490.894 229.25 491.494 229.15 491.928 228.95C492.361 228.75 492.669 228.417 492.853 227.95C493.036 227.5 493.128 226.875 493.128 226.075V213.825H497.128V227.025C497.128 228.242 496.919 229.242 496.503 230.025C496.086 230.808 495.469 231.392 494.653 231.775C493.836 232.158 492.836 232.35 491.653 232.35ZM495.203 211.2C494.453 211.2 493.861 211.025 493.428 210.675C493.011 210.308 492.803 209.792 492.803 209.125C492.803 208.525 493.019 208.033 493.453 207.65C493.886 207.267 494.469 207.075 495.203 207.075C495.953 207.075 496.536 207.258 496.953 207.625C497.369 207.975 497.578 208.475 497.578 209.125C497.578 209.742 497.361 210.242 496.928 210.625C496.511 211.008 495.936 211.2 495.203 211.2ZM505.288 227.375C504.304 227.375 503.463 227.167 502.763 226.75C502.079 226.317 501.546 225.7 501.163 224.9C500.796 224.1 500.613 223.142 500.613 222.025V213.825H504.638V221.475C504.638 222.008 504.721 222.467 504.888 222.85C505.054 223.233 505.304 223.533 505.638 223.75C505.971 223.95 506.371 224.05 506.838 224.05C507.188 224.05 507.504 223.992 507.788 223.875C508.088 223.758 508.338 223.6 508.538 223.4C508.754 223.183 508.921 222.942 509.038 222.675C509.154 222.392 509.213 222.083 509.213 221.75V213.825H513.238V227.1H509.463L509.288 224.375L510.038 224.075C509.838 224.708 509.504 225.275 509.038 225.775C508.571 226.258 508.013 226.65 507.363 226.95C506.713 227.233 506.021 227.375 505.288 227.375ZM521.278 227.35C519.978 227.35 518.828 227.142 517.828 226.725C516.844 226.308 516.061 225.75 515.478 225.05L517.903 222.95C518.419 223.467 519.003 223.85 519.653 224.1C520.303 224.333 520.919 224.45 521.503 224.45C521.736 224.45 521.944 224.425 522.128 224.375C522.311 224.325 522.461 224.258 522.578 224.175C522.711 224.075 522.811 223.967 522.878 223.85C522.944 223.717 522.978 223.567 522.978 223.4C522.978 223.067 522.828 222.808 522.528 222.625C522.378 222.542 522.128 222.442 521.778 222.325C521.428 222.208 520.978 222.075 520.428 221.925C519.644 221.725 518.961 221.492 518.378 221.225C517.811 220.942 517.344 220.617 516.978 220.25C516.644 219.9 516.386 219.517 516.203 219.1C516.019 218.667 515.928 218.183 515.928 217.65C515.928 217.033 516.069 216.475 516.353 215.975C516.653 215.475 517.044 215.042 517.528 214.675C518.028 214.308 518.594 214.033 519.228 213.85C519.878 213.65 520.544 213.55 521.228 213.55C521.961 213.55 522.661 213.633 523.328 213.8C523.994 213.967 524.611 214.2 525.178 214.5C525.761 214.8 526.278 215.158 526.728 215.575L524.628 217.925C524.328 217.642 523.986 217.392 523.603 217.175C523.236 216.942 522.853 216.758 522.453 216.625C522.053 216.492 521.686 216.425 521.353 216.425C521.103 216.425 520.878 216.45 520.678 216.5C520.494 216.533 520.336 216.6 520.203 216.7C520.069 216.783 519.969 216.892 519.903 217.025C519.836 217.142 519.803 217.283 519.803 217.45C519.803 217.617 519.844 217.775 519.928 217.925C520.028 218.075 520.161 218.2 520.328 218.3C520.494 218.4 520.761 218.517 521.128 218.65C521.494 218.767 521.994 218.917 522.628 219.1C523.411 219.317 524.086 219.558 524.653 219.825C525.219 220.092 525.669 220.408 526.003 220.775C526.269 221.058 526.469 221.392 526.603 221.775C526.736 222.142 526.803 222.542 526.803 222.975C526.803 223.825 526.561 224.583 526.078 225.25C525.611 225.9 524.961 226.417 524.128 226.8C523.294 227.167 522.344 227.35 521.278 227.35ZM530.281 227.1V210.475H534.281V227.1H530.281ZM527.931 217.325V213.825H536.856V217.325H527.931Z" fill="#FFFEFF"/>
<path d="M141.57 58.1799C149.628 58.1799 156.16 51.6478 156.16 43.59C156.16 35.5321 149.628 29 141.57 29C133.512 29 126.98 35.5321 126.98 43.59C126.98 51.6478 133.512 58.1799 141.57 58.1799Z" fill="#4056E3"/>
<path d="M223.38 228.1C231.438 228.1 237.97 221.568 237.97 213.51C237.97 205.452 231.438 198.92 223.38 198.92C215.322 198.92 208.79 205.452 208.79 213.51C208.79 221.568 215.322 228.1 223.38 228.1Z" fill="#4056E3"/>
<path d="M231.23 425.09C239.288 425.09 245.82 418.558 245.82 410.5C245.82 402.442 239.288 395.91 231.23 395.91C223.172 395.91 216.64 402.442 216.64 410.5C216.64 418.558 223.172 425.09 231.23 425.09Z" fill="#4056E3"/>
<path d="M427.61 410.5C435.668 410.5 442.2 403.968 442.2 395.91C442.2 387.852 435.668 381.32 427.61 381.32C419.552 381.32 413.02 387.852 413.02 395.91C413.02 403.968 419.552 410.5 427.61 410.5Z" fill="#4056E3"/>
<path d="M562.01 248.4C570.068 248.4 576.6 241.868 576.6 233.81C576.6 225.752 570.068 219.22 562.01 219.22C553.952 219.22 547.42 225.752 547.42 233.81C547.42 241.868 553.952 248.4 562.01 248.4Z" fill="#4056E3"/>
<path d="M739.94 202.91C747.998 202.91 754.53 196.378 754.53 188.32C754.53 180.262 747.998 173.73 739.94 173.73C731.882 173.73 725.35 180.262 725.35 188.32C725.35 196.378 731.882 202.91 739.94 202.91Z" fill="#4056E3"/>
</svg>
