<svg width="616" height="597" viewBox="0 0 616 597" fill="none" xmlns="http://www.w3.org/2000/svg">
<path d="M386.054 127.604C394.094 127.254 401.844 131.884 405.884 139.474C408.724 144.814 413.674 159.384 398.324 179.384C396.794 181.374 395.244 183.094 393.674 184.584C399.144 190.414 404.474 194.094 406.344 194.594C406.344 194.594 406.114 194.534 405.714 194.524L405.344 210.524C397.984 210.354 387.574 202.194 379.444 192.664C376.634 193.354 374.024 193.534 371.754 193.454C348.614 192.614 329.424 164.464 327.304 161.254L340.664 152.444C344.494 158.224 357.134 173.844 368.904 176.934C363.114 165.244 362.064 153.964 365.894 143.934C369.594 134.264 376.984 128.164 385.674 127.624C385.794 127.624 385.914 127.614 386.034 127.604H386.054ZM384.124 171.474C384.634 170.904 385.134 170.294 385.634 169.644C395.594 156.664 392.844 149.024 391.764 146.994C390.604 144.804 388.604 143.464 386.684 143.594C384.394 143.734 382.274 145.944 380.854 149.644C378.614 155.514 379.534 162.524 383.604 170.494C383.774 170.824 383.944 171.154 384.114 171.474H384.124Z" fill="#2F3E66"/>
<path d="M379.904 366.534C381.054 367.004 408.084 378.454 419.074 405.054C425.754 421.234 425.064 439.234 417.014 458.554L402.244 452.404C410.934 431.554 409.014 413.444 396.544 398.554C386.764 386.874 373.894 381.364 373.764 381.314L379.904 366.544V366.534Z" fill="#2F3E66"/>
<path d="M409.234 305.594L424.184 311.294C419.734 322.964 419.424 333.004 423.264 341.124C428.994 353.234 442.374 357.824 442.504 357.874L437.554 373.084C436.744 372.824 417.684 366.504 408.894 348.174C403.014 335.914 403.124 321.584 409.234 305.584V305.594Z" fill="#2F3E66"/>
<path d="M362.214 215.614L365.254 231.324C365.104 231.354 349.804 234.484 336.344 245.284C328.624 251.484 323.064 258.904 319.664 267.504C327.094 269.214 334.394 272.424 341.344 277.154C362.614 291.594 376.244 316.984 372.384 334.974C369.584 348.004 355.944 361.754 340.104 361.464C333.774 361.344 324.494 358.904 316.244 347.914C309.464 338.894 304.454 325.404 301.344 307.814C299.694 298.504 299.354 290.104 299.984 282.544C294.104 283.574 287.824 286.004 281.264 290.404C266.464 300.304 259.634 313.334 256.724 325.244C262.704 327.014 268.434 329.694 273.794 333.264C288.194 342.884 297.444 357.974 296.814 370.814C296.114 385.214 289.484 391.824 284.054 394.834C276.444 399.054 266.204 398.604 257.334 393.644C248.014 388.434 239.724 366.904 238.874 345.644C238.774 343.264 238.774 340.904 238.854 338.584C231.564 338.544 223.174 340.124 213.844 344.534L207.014 330.064C218.244 324.754 229.774 322.304 240.884 322.674C245.154 303.854 255.934 288.094 272.374 277.094C282.224 270.504 292.684 266.854 303.194 266.154C308.194 250.384 317.794 239.534 326.884 232.364C343.404 219.324 361.474 215.734 362.234 215.594L362.214 215.614ZM341.064 345.464C348.224 345.154 355.414 337.814 356.744 331.614C358.924 321.454 348.964 301.664 332.364 290.394C327.854 287.334 322.334 284.494 316.004 283.024C315.334 289.824 315.694 297.174 317.094 305.044C321.544 330.174 330.254 345.294 340.404 345.484C340.624 345.484 340.844 345.484 341.064 345.484V345.464ZM272.864 381.744C274.154 381.684 275.324 381.394 276.294 380.854C279.694 378.964 280.644 373.934 280.834 370.044C281.134 363.874 275.764 353.834 264.904 346.584C262.354 344.874 258.954 342.974 254.794 341.464C254.704 360.864 261.994 377.074 265.274 379.774C267.834 381.174 270.534 381.854 272.864 381.754V381.744Z" fill="#2F3E66"/>
<path d="M553.814 0.0238143C560.034 -0.246186 566.684 1.78382 572.434 5.90382C581.114 12.1238 586.914 34.4538 585.374 55.6738C585.204 58.0538 584.944 60.3939 584.604 62.6939C591.844 63.5539 600.354 62.9238 610.124 59.5938L615.284 74.7338C603.524 78.7438 591.794 79.8739 580.804 78.2539C574.434 96.4739 561.954 110.914 544.374 120.004C533.824 125.454 522.994 127.894 512.464 127.404C508.154 137.094 501.824 145.464 493.554 152.314C473.544 168.874 449.194 170.924 448.164 171.004L446.934 155.054L447.554 163.034L446.914 155.064C447.114 155.044 467.364 153.234 483.354 139.994C488.754 135.524 493.064 130.264 496.274 124.234C489.084 121.694 482.204 117.684 475.824 112.214C456.314 95.4738 445.634 68.7039 451.494 51.2639C455.314 39.9139 467.884 28.9738 481.794 28.3638C483.364 28.2938 484.954 28.3639 486.554 28.5739C492.834 29.4039 501.774 32.8738 508.744 44.7238C514.464 54.4538 517.924 68.4238 519.034 86.2438C519.594 95.2238 519.064 103.664 517.484 111.504C523.454 111.144 529.984 109.434 537.024 105.804C552.844 97.6238 561.094 85.4539 565.334 73.9539C559.594 71.5239 554.194 68.2139 549.284 64.0639C536.064 52.8839 528.564 36.8438 530.634 24.1638C532.954 9.93383 540.284 4.11384 546.014 1.73384C548.454 0.723836 551.094 0.163834 553.814 0.0438339V0.0238143ZM562.984 18.8139C559.274 16.2039 555.044 15.2938 552.154 16.4938C548.554 17.9838 547.054 22.8838 546.424 26.7238C545.434 32.8138 549.644 43.4038 559.614 51.8338C561.964 53.8138 565.124 56.0839 569.084 58.0639C571.364 38.7939 565.944 21.8639 562.984 18.8139ZM501.664 109.224C503.094 102.534 503.574 95.1938 503.074 87.2238C501.484 61.7438 494.534 45.7438 484.474 44.4238C477.164 43.4638 468.754 50.1638 466.674 56.3538C463.354 66.2038 471.034 86.9938 486.254 100.054C490.384 103.604 495.554 107.044 501.674 109.224H501.664Z" fill="#2F3E66"/>
<path d="M192.184 15.7938C198.404 15.5238 205.054 17.5538 210.804 21.6738C219.484 27.8938 225.284 50.2239 223.744 71.4439C223.574 73.8239 223.314 76.1638 222.974 78.4638C230.214 79.3238 238.724 78.6938 248.494 75.3638L253.654 90.5039C241.894 94.5139 230.164 95.6438 219.174 94.0238C212.804 112.244 200.324 126.684 182.744 135.774C172.214 141.214 161.404 143.654 150.894 143.174C144.154 158.284 133.394 167.984 123.554 174.084C105.674 185.174 87.3136 186.714 86.5436 186.774L85.3136 170.824L85.9336 178.804L85.2936 170.834C85.4536 170.824 101.004 169.434 115.594 160.214C123.964 154.924 130.324 148.174 134.674 140.014C127.484 137.474 120.594 133.464 114.214 127.984C94.7036 111.244 84.0236 84.4738 89.8836 67.0338C93.7036 55.6838 106.274 44.7439 120.184 44.1339C121.754 44.0639 123.344 44.1338 124.944 44.3438C131.224 45.1738 140.164 48.6438 147.134 60.4938C152.854 70.2238 156.314 84.1939 157.424 102.014C158.014 111.454 157.414 119.834 155.924 127.274C161.884 126.914 168.394 125.204 175.414 121.574C191.234 113.394 199.484 101.224 203.724 89.7238C197.984 87.2938 192.584 83.9838 187.674 79.8338C174.454 68.6538 166.954 52.6138 169.024 39.9338C171.344 25.7038 178.674 19.8839 184.404 17.5039C186.844 16.4939 189.484 15.9339 192.204 15.8139L192.184 15.7938ZM201.344 34.5838C197.634 31.9738 193.404 31.0639 190.514 32.2639C186.914 33.7539 185.414 38.6538 184.784 42.4938C183.794 48.5838 188.004 59.1738 197.974 67.6038C200.324 69.5838 203.484 71.8538 207.444 73.8338C209.724 54.5638 204.304 37.6338 201.344 34.5838ZM140.034 125.004C141.464 118.324 141.934 110.984 141.434 103.004C139.844 77.5239 132.894 61.5239 122.834 60.2039C115.524 59.2439 107.114 65.9439 105.034 72.1339C101.714 81.9839 109.384 102.774 124.614 115.834C128.754 119.384 133.924 122.824 140.034 125.004Z" fill="#2F3E66"/>
<path d="M569.164 351.824C575.384 351.554 582.034 353.584 587.784 357.704C596.464 363.924 602.264 386.254 600.724 407.474C600.554 409.854 600.294 412.194 599.954 414.494C607.194 415.354 615.704 414.724 625.474 411.394L630.634 426.534C618.874 430.544 607.144 431.674 596.154 430.054C589.784 448.274 577.304 462.714 559.724 471.804C549.174 477.254 538.344 479.694 527.814 479.204C523.504 488.894 517.174 497.264 508.904 504.114C488.894 520.674 464.544 522.724 463.514 522.804L462.284 506.854L462.904 514.834L462.264 506.864C462.464 506.844 482.714 505.034 498.704 491.794C504.104 487.324 508.414 482.064 511.624 476.034C504.434 473.494 497.554 469.484 491.174 464.014C471.664 447.274 460.984 420.504 466.844 403.064C470.664 391.714 483.234 380.774 497.144 380.164C498.714 380.094 500.304 380.164 501.904 380.374C508.184 381.204 517.124 384.674 524.094 396.524C529.814 406.254 533.274 420.224 534.384 438.044C534.944 447.024 534.414 455.464 532.834 463.304C538.804 462.944 545.334 461.234 552.374 457.604C568.194 449.424 576.444 437.254 580.684 425.754C574.944 423.324 569.544 420.014 564.634 415.864C551.414 404.684 543.914 388.644 545.984 375.964C548.304 361.734 555.634 355.914 561.364 353.534C563.804 352.524 566.444 351.964 569.164 351.844V351.824ZM578.324 370.614C574.614 368.004 570.384 367.094 567.494 368.294C563.894 369.784 562.394 374.684 561.764 378.524C560.774 384.614 564.984 395.204 574.954 403.634C577.304 405.614 580.464 407.884 584.424 409.864C586.704 390.594 581.284 373.664 578.324 370.614ZM517.004 461.024C518.434 454.334 518.914 446.994 518.414 439.024C516.824 413.544 509.874 397.544 499.814 396.224C492.504 395.254 484.094 401.964 482.014 408.154C478.694 418.004 486.374 438.794 501.594 451.854C505.724 455.404 510.894 458.844 517.014 461.024H517.004Z" fill="#2F3E66"/>
<path d="M185.064 396.054C190.424 392.874 197.244 391.524 204.254 392.434C214.844 393.814 230.514 410.744 239.184 430.174C240.154 432.354 241.034 434.534 241.824 436.724C248.604 434.064 255.814 429.484 262.844 421.934L274.554 432.844C266.084 441.934 256.284 448.484 245.834 452.254C248.834 471.314 244.664 489.944 233.464 506.264C226.754 516.034 218.384 523.294 208.894 527.844C210.094 544.344 205.194 557.974 199.414 568.004C188.904 586.234 173.444 596.264 172.794 596.674L164.164 583.204L168.474 589.944L164.144 583.214C164.274 583.134 177.324 574.554 185.824 559.534C190.694 550.914 193.114 541.964 193.084 532.714C185.544 533.884 177.584 533.594 169.374 531.784C144.274 526.254 122.194 507.714 119.124 489.574C117.124 477.774 123.034 462.184 135.004 455.074C136.364 454.264 137.794 453.574 139.294 453.004C145.214 450.764 154.744 449.604 166.484 456.744C176.124 462.614 185.774 473.284 195.184 488.464C200.164 496.504 203.594 504.174 205.804 511.434C210.884 508.294 215.814 503.714 220.284 497.194C230.364 482.514 231.884 467.884 230.174 455.744C223.964 456.314 217.644 455.954 211.354 454.614C194.414 451.014 180.234 440.424 176.064 428.264C171.384 414.634 175.084 406.034 179.014 401.224C180.684 399.174 182.744 397.434 185.084 396.044L185.064 396.054ZM202.024 408.274C197.524 407.724 193.364 408.924 191.384 411.344C188.924 414.364 189.914 419.384 191.174 423.064C193.174 428.904 201.894 436.234 214.664 438.954C217.664 439.594 221.524 440.094 225.954 439.964C218.854 421.914 206.074 409.554 202.024 408.264V408.274ZM190.734 516.934C188.834 510.374 185.774 503.684 181.574 496.884C168.134 475.184 154.444 464.374 144.944 467.954C138.044 470.564 133.804 480.444 134.894 486.884C136.634 497.134 153.214 511.824 172.804 516.144C178.124 517.314 184.314 517.904 190.734 516.934Z" fill="#2F3E66"/>
<path d="M545.774 154.734C546.954 154.684 548.154 154.704 549.354 154.804C558.544 155.544 568.134 160.474 577.834 169.464C584.634 175.764 589.073 181.884 589.253 182.144L576.274 191.494L582.763 186.814L576.284 191.504C572.314 186.034 559.514 171.644 548.054 170.744C543.994 170.424 540.484 171.894 537.024 175.364C532.054 180.344 529.784 184.924 530.064 189.374C530.724 199.614 544.814 210.514 555.114 218.474L545.324 231.134C531.914 220.764 515.224 207.864 514.094 190.404C513.504 181.234 517.404 172.374 525.694 164.074C531.504 158.244 538.393 155.054 545.763 154.734H545.774Z" fill="#2F3E66"/>
<path d="M193.494 170.094C194.674 170.044 195.874 170.064 197.074 170.164C206.264 170.904 215.854 175.834 225.554 184.824C232.354 191.124 236.794 197.244 236.974 197.504L223.994 206.854L230.484 202.174L224.004 206.864C220.034 201.394 207.234 187.004 195.774 186.104C191.714 185.784 188.204 187.254 184.744 190.724C179.774 195.704 177.504 200.284 177.784 204.734C178.444 214.974 192.534 225.874 202.834 233.834L193.044 246.494C179.634 236.124 162.944 223.224 161.814 205.764C161.224 196.594 165.124 187.734 173.414 179.434C179.224 173.604 186.104 170.414 193.484 170.094H193.494Z" fill="#2F3E66"/>
<path d="M333.564 398.164C337.894 397.974 342.304 398.304 346.704 399.184C363.014 402.454 375.014 412.884 378.794 427.094C382.734 441.884 381.384 454.824 374.794 465.554C364.164 482.864 343.704 487.374 342.834 487.554L339.514 471.904L341.174 479.734L339.484 471.914C339.634 471.884 354.264 468.524 361.214 457.084C365.364 450.254 366.074 441.554 363.324 431.214C360.184 419.424 348.444 415.864 343.544 414.874C332.484 412.654 317.484 415.404 308.894 426.554C299.244 439.084 300.434 459.234 312.244 483.294L297.884 490.344C289.404 473.074 277.914 440.564 296.214 416.794C304.904 405.504 318.734 398.814 333.544 398.164H333.564Z" fill="#2F3E66"/>
<path d="M318.174 45.1139C322.504 44.9239 326.914 45.2539 331.314 46.1339C347.624 49.4039 359.624 59.8339 363.404 74.0439C367.344 88.8339 365.994 101.774 359.404 112.504C348.774 129.814 328.314 134.324 327.444 134.504L324.124 118.854L325.784 126.684L324.094 118.864C324.244 118.834 338.874 115.474 345.824 104.034C349.974 97.2039 350.684 88.5039 347.934 78.1639C344.794 66.3739 333.054 62.8139 328.154 61.8239C317.094 59.6039 302.094 62.3539 293.504 73.5039C283.854 86.0339 285.044 106.184 296.854 130.244L282.494 137.294C274.014 120.024 262.524 87.5139 280.824 63.7439C289.514 52.4539 303.344 45.7639 318.154 45.1139H318.174Z" fill="#2F3E66"/>
<path d="M47.1136 399.644C51.4436 399.454 55.8536 399.784 60.2536 400.664C76.5636 403.934 88.5636 414.364 92.3436 428.574C96.2836 443.364 94.9336 456.304 88.3436 467.034C77.7136 484.344 57.2536 488.854 56.3836 489.034L53.0636 473.384L54.7236 481.214L53.0336 473.394C53.1836 473.364 67.8136 470.004 74.7636 458.564C78.9136 451.734 79.6236 443.034 76.8736 432.694C73.7336 420.904 61.9936 417.344 57.0936 416.354C46.0336 414.134 31.0336 416.884 22.4436 428.034C12.7936 440.564 13.9836 460.714 25.7936 484.774L11.4336 491.824C2.9536 474.554 -8.53639 442.044 9.76361 418.274C18.4536 406.984 32.2836 400.294 47.0936 399.644H47.1136Z" fill="#2F3E66"/>
<path d="M478.214 185.324L494.044 187.664C490.934 208.714 480.664 225.914 465.884 234.864C456.214 240.714 439.794 245.974 416.424 237.824C415.754 237.584 415.044 237.334 414.334 237.074C411.474 236.044 404.894 233.684 402.774 234.284C402.404 234.994 400.834 239.014 404.034 252.674C405.414 258.564 409.614 276.484 398.704 284.804C395.444 287.294 389.594 289.734 380.244 287.264C375.674 286.054 372.134 284.164 371.744 283.954L379.394 269.904C383.094 271.874 388.034 272.824 389.004 272.074C389.034 272.054 391.484 269.224 388.454 256.324C383.104 233.514 387.994 225.964 392.134 222.274C400.264 215.024 411.984 219.234 419.734 222.014C420.404 222.254 421.064 222.494 421.694 222.714C435.734 227.614 447.814 227.094 457.594 221.174C468.284 214.704 475.804 201.644 478.214 185.324Z" fill="#2F3E66"/>
<path d="M490.964 246.744C497.814 246.444 504.354 247.484 510.174 249.884C515.754 252.184 521.004 256.004 524.844 261.394C533.294 258.804 541.254 257.284 548.274 256.444C573.234 253.434 591.744 257.964 592.524 258.164L588.634 273.684L590.574 265.924L588.644 273.684C588.474 273.644 571.744 269.624 549.584 272.404C543.024 273.224 536.704 274.524 530.634 276.304C531.564 282.984 530.864 290.854 527.854 299.954C523.504 313.104 516.144 324.234 506.574 332.124C498.204 339.024 488.474 343.204 479.164 343.894C468.384 344.694 459.654 340.654 455.814 333.064C453.234 327.974 450.944 317.074 464.504 301.234C478.454 284.934 493.954 274.334 508.854 267.494C507.484 266.374 505.884 265.434 504.074 264.684C495.984 261.344 484.784 262.304 474.124 267.264C461.504 273.124 450.734 283.984 443.814 297.844L429.504 290.694C438.034 273.614 451.494 260.134 467.384 252.754C475.234 249.104 483.294 247.094 490.974 246.764L490.964 246.744ZM477.344 327.964C477.554 327.964 477.754 327.944 477.974 327.924C487.024 327.244 504.524 319.534 512.674 294.914C514.234 290.214 515.004 285.944 515.024 282.144C500.534 288.874 487.704 298.724 476.664 311.614C469.824 319.604 469.374 324.404 470.094 325.814C470.714 327.034 473.384 328.124 477.344 327.954V327.964Z" fill="#2F3E66"/>
<path d="M139.174 262.084C146.024 261.784 152.564 262.824 158.384 265.224C163.964 267.524 169.214 271.344 173.054 276.734C181.504 274.144 189.464 272.624 196.484 271.784C221.444 268.774 239.954 273.304 240.734 273.504L236.844 289.024L238.784 281.264L236.854 289.024C236.684 288.984 219.954 284.964 197.794 287.744C191.234 288.564 184.914 289.864 178.844 291.644C179.774 298.324 179.074 306.194 176.064 315.294C171.714 328.444 164.354 339.574 154.784 347.464C146.414 354.364 136.684 358.544 127.374 359.234C116.594 360.034 107.864 355.994 104.024 348.404C101.444 343.314 99.1536 332.414 112.714 316.574C126.664 300.274 142.164 289.674 157.064 282.834C155.694 281.714 154.094 280.774 152.284 280.024C144.194 276.684 132.994 277.644 122.334 282.604C109.714 288.464 98.9436 299.324 92.0236 313.184L77.7136 306.034C86.2436 288.954 99.7036 275.474 115.594 268.094C123.444 264.444 131.504 262.434 139.184 262.104L139.174 262.084ZM125.554 343.304C125.764 343.304 125.964 343.284 126.184 343.264C135.234 342.584 152.734 334.874 160.884 310.254C162.444 305.554 163.214 301.284 163.234 297.484C148.744 304.214 135.914 314.064 124.874 326.954C118.034 334.944 117.584 339.744 118.304 341.154C118.924 342.374 121.594 343.464 125.554 343.294V343.304Z" fill="#2F3E66"/>
<path d="M323.864 185.164L335.324 196.334C334.944 196.724 325.854 205.984 311.994 211.434C298.694 216.674 278.484 219.414 257.684 202.724L267.694 190.244C295.954 212.914 322.734 186.304 323.854 185.164H323.864Z" fill="#2F3E66"/>
<path d="M133.904 389.054L137.944 404.534C137.414 404.674 124.854 407.894 110.174 405.404C96.0836 403.014 77.3636 394.914 68.1836 369.884L83.2036 364.374C95.6836 398.384 132.354 389.454 133.914 389.054H133.904Z" fill="#2F3E66"/>
<path d="M258.174 260.404C266.231 260.404 272.764 253.872 272.764 245.814C272.764 237.756 266.231 231.224 258.174 231.224C250.116 231.224 243.584 237.756 243.584 245.814C243.584 253.872 250.116 260.404 258.174 260.404Z" fill="#2F3E66"/>
<path d="M295.104 184.264C303.161 184.264 309.694 177.732 309.694 169.674C309.694 161.616 303.161 155.084 295.104 155.084C287.046 155.084 280.514 161.616 280.514 169.674C280.514 177.732 287.046 184.264 295.104 184.264Z" fill="#2F3E66"/>
<path d="M456.374 477.564C464.431 477.564 470.964 471.032 470.964 462.974C470.964 454.916 464.431 448.384 456.374 448.384C448.316 448.384 441.784 454.916 441.784 462.974C441.784 471.032 448.316 477.564 456.374 477.564Z" fill="#2F3E66"/>
<path d="M333.634 458.464C341.691 458.464 348.224 451.932 348.224 443.874C348.224 435.816 341.691 429.284 333.634 429.284C325.576 429.284 319.044 435.816 319.044 443.874C319.044 451.932 325.576 458.464 333.634 458.464Z" fill="#2F3E66"/>
<path d="M538.554 347.864C546.611 347.864 553.144 341.332 553.144 333.274C553.144 325.216 546.611 318.684 538.554 318.684C530.496 318.684 523.964 325.216 523.964 333.274C523.964 341.332 530.496 347.864 538.554 347.864Z" fill="#2F3E66"/>
<path d="M174.994 377.834C183.051 377.834 189.584 371.302 189.584 363.244C189.584 355.186 183.051 348.654 174.994 348.654C166.936 348.654 160.404 355.186 160.404 363.244C160.404 371.302 166.936 377.834 174.994 377.834Z" fill="#2F3E66"/>
<path d="M99.5936 547.724C107.651 547.724 114.184 541.192 114.184 533.134C114.184 525.076 107.651 518.544 99.5936 518.544C91.5358 518.544 85.0036 525.076 85.0036 533.134C85.0036 541.192 91.5358 547.724 99.5936 547.724Z" fill="#2F3E66"/>
<path d="M440.974 124.514C449.031 124.514 455.564 117.982 455.564 109.924C455.564 101.866 449.031 95.3337 440.974 95.3337C432.916 95.3337 426.384 101.866 426.384 109.924C426.384 117.982 432.916 124.514 440.974 124.514Z" fill="#2F3E66"/>
<path d="M254.814 138.134L266.024 149.554C255.994 159.444 228.974 173.874 198.514 157.664L206.034 143.544C233.554 158.194 253.964 138.964 254.814 138.144V138.134Z" fill="#2F3E66"/>
</svg>
