<svg width="695" height="824" viewBox="0 0 695 824" fill="none" xmlns="http://www.w3.org/2000/svg">
<path d="M435.13 695.774C431.15 706.564 420.76 714.234 408.51 715.364C399.9 716.154 377.94 714.624 360.06 683.334C358.28 680.214 356.87 677.214 355.77 674.324C345.05 678.314 337.26 683.314 335.57 685.504C335.57 685.504 335.78 685.234 336.01 684.714L315.12 675.384C319.41 665.774 335.93 656.554 353 651.104C353.64 647.014 354.85 643.474 356.21 640.534C370.11 610.484 417.85 600.734 423.25 599.724L427.48 622.214C417.74 624.064 390.15 632.104 379.57 645.914C398.19 644.744 413.64 649.584 424.75 660.194C435.46 670.414 439.42 683.544 435.32 695.294C435.26 695.454 435.21 695.614 435.15 695.774H435.13ZM378.34 668.974C378.81 669.954 379.34 670.954 379.92 671.984C391.53 692.294 403.12 692.884 406.4 692.584C409.93 692.254 412.8 690.374 413.69 687.774C414.77 684.684 413.03 680.664 408.93 676.744C402.43 670.544 392.67 667.884 379.91 668.844C379.38 668.884 378.86 668.924 378.34 668.984V668.974Z" fill="#709EFF"/>
<path d="M123.43 555.554C122.17 556.804 92.1301 586.124 50.9801 585.914C25.9501 585.784 2.59006 574.914 -18.4399 553.614L-2.15994 537.534C20.5301 560.514 45.4801 568.004 72.0101 559.794C92.8301 553.354 107.2 539.424 107.34 539.284L123.43 555.554Z" fill="#709EFF"/>
<path d="M187.59 627.924L171.8 644.484C158.87 632.154 145.8 626.204 132.96 626.774C113.82 627.634 100.37 642.744 100.24 642.894L82.9102 627.954C83.7002 627.034 102.58 605.394 131.61 603.934C151.03 602.954 169.87 611.034 187.59 627.924Z" fill="#709EFF"/>
<path d="M332.25 615.664L309.85 610.994C309.89 610.774 314.23 588.874 307.42 565.154C303.51 551.554 296.8 540.104 287.33 530.874C280.97 539.734 272.69 547.574 262.62 554.134C231.82 574.204 190.79 578.134 169.21 563.094C153.58 552.194 142.98 526.614 152.12 505.874C155.77 497.594 164.13 486.704 183.18 481.894C198.82 477.944 219.39 478.794 244.3 484.414C257.5 487.394 268.76 491.584 278.37 496.594C280.26 488.264 280.52 478.644 278.36 467.554C273.48 442.564 260.08 426.354 245.98 415.934C240.34 422.844 233.64 428.924 225.96 434.004C205.31 447.674 180.29 451.534 163.71 443.604C145.11 434.714 140.05 422.324 139.08 413.494C137.72 401.124 143.98 387.874 155.42 378.914C167.44 369.494 200.42 370.474 228.93 381.104C232.13 382.294 235.24 383.584 238.25 384.974C242.33 375.384 244.88 363.444 244.23 348.704L267.09 347.684C267.88 365.434 264.73 381.994 258.1 396.434C280.56 412.474 295.38 435.394 300.8 463.174C304.05 479.804 303.07 495.624 298.19 509.864C316.23 525.174 325.23 543.834 329.66 559.784C337.72 588.774 332.46 614.594 332.24 615.674L332.25 615.664ZM172.69 515.974C169.14 525.594 174.85 539.134 182.29 544.314C194.49 552.814 226.09 550.614 250.13 534.954C256.66 530.704 263.45 524.984 268.9 517.454C260.3 512.814 250.41 509.224 239.26 506.714C203.65 498.684 178.9 501.814 173.05 515.094C172.92 515.384 172.8 515.674 172.69 515.974ZM162.56 405.974C161.92 407.704 161.66 409.404 161.84 410.984C162.45 416.514 168.57 420.544 173.59 422.944C181.56 426.754 197.77 425.214 213.34 414.904C217 412.484 221.38 409.054 225.68 404.404C200.15 393.554 174.73 394.214 169.36 397.044C166.1 399.644 163.71 402.834 162.56 405.964V405.974Z" fill="#709EFF"/>
<path d="M510.63 987.554C507.55 995.914 501.19 1003.55 492.58 1008.86C479.58 1016.86 446.92 1012.18 419.79 998.414C416.74 996.864 413.8 995.234 410.96 993.514C405.82 1002.58 401.94 1014.15 400.93 1028.87L378.1 1027.3C379.32 1009.58 384.3 993.484 392.52 979.874C372.01 961.404 359.87 936.964 357.61 908.754C356.26 891.834 359.02 876.204 365.5 862.584C355.11 851.544 347.56 838.564 343.11 823.874C332.34 788.334 343.09 755.074 343.55 753.684L365.27 760.874L354.41 757.274L365.28 760.844C365.19 761.124 356.39 788.824 365 817.234C367.91 826.824 372.46 835.414 378.64 842.984C385.96 834.904 395.06 828.054 405.8 822.664C438.66 806.194 479.88 806.904 499.63 824.284C512.48 835.594 519.96 858.224 513.07 876.904C512.29 879.014 511.33 881.084 510.16 883.074C505.6 890.894 496.07 900.774 476.6 903.404C460.61 905.564 440.27 902.414 416.15 894.024C404 889.794 393.15 884.434 383.69 878.014C380.86 886.094 379.5 895.644 380.41 906.934C382.44 932.324 393.94 949.934 406.77 961.874C413.15 955.644 420.5 950.354 428.69 946.174C450.75 934.924 476.04 933.904 491.62 943.644C509.1 954.574 512.73 967.454 512.7 976.334C512.69 980.114 511.96 983.904 510.62 987.554H510.63ZM480.78 989.254C486.27 985.804 489.81 980.724 489.83 976.254C489.85 970.684 484.22 965.994 479.5 963.044C472.01 958.364 455.73 958.064 439.09 966.554C435.18 968.554 430.44 971.464 425.64 975.594C449.79 989.244 475.12 991.464 480.77 989.244L480.78 989.254ZM395.45 858.394C403.48 863.984 412.9 868.664 423.68 872.414C458.15 884.404 483.1 884.084 490.42 871.544C495.74 862.434 491.55 847.644 484.53 841.464C473.37 831.644 441.72 830.264 416.07 843.124C409.11 846.614 401.71 851.534 395.46 858.384L395.45 858.394Z" fill="#709EFF"/>
<path d="M689.79 501.914C686.71 510.274 680.35 517.914 671.74 523.224C658.74 531.224 626.08 526.544 598.95 512.774C595.9 511.224 592.96 509.594 590.12 507.874C584.98 516.944 581.1 528.514 580.1 543.234L557.27 541.664C558.49 523.944 563.47 507.844 571.69 494.234C551.18 475.764 539.04 451.324 536.78 423.114C535.43 406.224 538.18 390.614 544.63 377.014C528.43 359.764 521.59 340.214 518.98 323.864C514.24 294.144 522.37 269.084 522.72 268.034L544.44 275.224L533.58 271.624L544.45 275.194C544.38 275.404 537.6 296.684 541.7 321.024C544.05 334.984 549.44 347.114 557.8 357.354C565.12 349.274 574.22 342.414 584.97 337.024C617.83 320.554 659.05 321.264 678.8 338.644C691.65 349.954 699.13 372.584 692.24 391.264C691.46 393.374 690.5 395.444 689.33 397.434C684.77 405.254 675.24 415.134 655.77 417.764C639.78 419.924 619.44 416.774 595.32 408.384C582.54 403.944 571.82 398.504 562.84 392.444C560.02 400.504 558.68 410.034 559.58 421.304C561.61 446.694 573.11 464.304 585.94 476.244C592.32 470.014 599.67 464.724 607.86 460.544C629.92 449.284 655.21 448.274 670.79 458.014C688.27 468.944 691.9 481.824 691.87 490.704C691.86 494.484 691.13 498.274 689.79 501.924V501.914ZM659.94 503.614C665.43 500.164 668.97 495.084 668.99 490.614C669.01 485.044 663.38 480.354 658.66 477.404C651.17 472.724 634.89 472.424 618.25 480.914C614.34 482.914 609.6 485.824 604.8 489.954C628.95 503.604 654.28 505.824 659.93 503.604L659.94 503.614ZM574.6 372.754C582.62 378.334 592.04 383.014 602.84 386.764C637.32 398.754 662.26 398.434 669.58 385.894C674.9 376.784 670.71 361.994 663.69 355.814C652.53 345.994 620.88 344.614 595.23 357.474C588.26 360.964 580.87 365.884 574.61 372.744L574.6 372.754Z" fill="#709EFF"/>
<path d="M38.19 813.274C35.11 821.634 28.75 829.274 20.14 834.584C7.13995 842.584 -25.5201 837.904 -52.65 824.134C-55.69 822.594 -58.64 820.954 -61.48 819.234C-66.62 828.304 -70.49 839.874 -71.51 854.594L-94.34 853.024C-93.12 835.304 -88.14 819.204 -79.92 805.594C-100.43 787.124 -112.57 762.684 -114.83 734.474C-116.19 717.554 -113.42 701.924 -106.94 688.304C-117.33 677.264 -124.88 664.284 -129.33 649.594C-140.1 614.054 -129.35 580.794 -128.89 579.404L-107.17 586.594L-118.03 582.994L-107.16 586.564C-107.25 586.844 -116.05 614.544 -107.44 642.954C-104.53 652.544 -99.98 661.134 -93.8 668.704C-86.48 660.624 -77.38 653.774 -66.64 648.384C-33.78 631.914 7.43996 632.624 27.19 650.004C40.04 661.314 47.52 683.944 40.63 702.624C39.85 704.744 38.89 706.804 37.7299 708.794C33.17 716.614 23.64 726.494 4.15996 729.124C-11.83 731.284 -32.17 728.134 -56.29 719.744C-68.44 715.514 -79.29 710.154 -88.75 703.734C-91.58 711.814 -92.94 721.364 -92.03 732.654C-90 758.044 -78.5 775.654 -65.67 787.594C-59.29 781.364 -51.94 776.074 -43.75 771.894C-21.69 760.644 3.59996 759.624 19.18 769.364C36.66 780.294 40.2899 793.174 40.2599 802.054C40.25 805.834 39.52 809.624 38.18 813.274H38.19ZM8.34996 814.974C13.84 811.524 17.38 806.444 17.4 801.974C17.42 796.404 11.79 791.714 7.06996 788.764C-0.420044 784.084 -16.7 783.784 -33.34 792.274C-37.25 794.274 -41.99 797.184 -46.79 801.314C-22.64 814.964 2.68996 817.184 8.33995 814.964L8.34996 814.974ZM-76.99 684.114C-68.96 689.704 -59.54 694.384 -48.76 698.134C-14.29 710.124 10.6599 709.804 17.9799 697.264C23.3 688.154 19.11 673.364 12.09 667.184C0.929947 657.364 -30.72 655.984 -56.37 668.844C-63.33 672.334 -70.73 677.254 -76.98 684.104L-76.99 684.114Z" fill="#709EFF"/>
<path d="M192.23 282.274C193.46 291.094 191.48 300.834 186.39 309.584C178.71 322.784 147.72 334.094 117.3 334.784C113.89 334.864 110.52 334.814 107.2 334.644C106.96 345.064 109.01 357.094 115.08 370.544L94.2202 379.954C86.9202 363.764 83.7002 347.214 84.5102 331.344C57.7102 324.764 35.4502 308.964 20.1202 285.174C10.9402 270.934 5.99017 255.874 5.25018 240.834C-17.1798 233.294 -32.4498 219.294 -42.4698 206.124C-60.6998 182.184 -65.3798 156.254 -65.5698 155.164L-43.0298 151.234L-54.2998 153.194L-43.0398 151.204C-42.9998 151.424 -38.9098 173.374 -23.7998 192.884C-15.1298 204.074 -4.64983 212.214 7.56017 217.284C10.1902 206.704 14.9702 196.354 21.8902 186.524C43.0702 156.474 79.7202 137.624 105.34 143.594C122.01 147.484 139.3 163.894 142.06 183.604C142.37 185.834 142.5 188.104 142.42 190.414C142.1 199.464 138.37 212.664 122.45 224.194C109.38 233.664 89.9702 240.494 64.7402 244.504C51.3802 246.624 39.3602 246.914 28.5802 245.814C29.9102 254.254 33.2302 263.284 39.3502 272.784C53.1402 294.194 71.6002 304.284 88.5502 308.744C91.2302 300.234 95.2002 292.104 100.45 284.544C114.57 264.194 136.38 251.344 154.71 252.564C175.28 253.934 184.57 263.564 188.74 271.404C190.52 274.744 191.67 278.424 192.21 282.274H192.23ZM166.74 297.874C169.95 292.244 170.67 286.094 168.57 282.144C165.96 277.224 158.78 275.754 153.22 275.384C144.41 274.794 129.92 282.234 119.27 297.574C116.77 301.184 113.97 305.994 111.69 311.894C139.43 312.514 162.79 302.494 166.73 297.864L166.74 297.874ZM29.6802 222.904C39.3902 224.024 49.9002 223.694 61.1902 221.904C97.2402 216.174 119.07 204.094 119.59 189.594C119.97 179.054 109.28 167.994 100.18 165.874C85.7002 162.494 57.1602 176.244 40.6302 199.704C36.1402 206.074 31.9502 213.904 29.6802 222.914V222.904Z" fill="#709EFF"/>
<path d="M485.56 418.314C484.97 419.904 484.29 421.464 483.49 423.004C477.44 434.724 465.63 444.634 448.41 452.454C436.34 457.944 425.81 460.404 425.37 460.504L420.21 438.214L422.79 449.364L420.19 438.224C429.6 436.014 455.65 427.094 463.18 412.474C465.84 407.294 465.85 401.864 463.18 395.374C459.36 386.064 454.57 380.534 448.55 378.454C434.68 373.664 412.51 386.224 396.33 395.394L385.05 375.484C406.14 363.534 432.39 348.654 456.03 356.824C468.45 361.114 477.97 371.164 484.35 386.674C488.82 397.564 489.22 408.404 485.57 418.314H485.56Z" fill="#709EFF"/>
<path d="M107.34 476.944C105.19 482.764 102.32 488.394 98.7298 493.704C85.3998 513.404 64.9998 523.464 44.1798 520.594C22.4998 517.614 6.17984 508.684 -4.33016 494.064C-21.2802 470.474 -15.9102 441.004 -15.6702 439.754L6.80984 444.034L-4.43016 441.894L6.81984 443.984C6.77983 444.194 3.11983 465.344 14.3598 480.844C21.0698 490.094 32.1598 495.844 47.3098 497.924C64.5998 500.304 75.7798 486.794 79.7898 480.874C88.8298 467.514 93.4998 446.204 83.5398 428.724C72.3498 409.064 45.1098 399.494 6.85983 401.774L5.49984 378.934C32.9598 377.304 82.1898 380.124 103.42 417.404C113.5 435.114 114.68 457.054 107.35 476.934L107.34 476.944Z" fill="#709EFF"/>
<path d="M581.45 651.854C579.3 657.674 576.43 663.304 572.84 668.614C559.51 688.314 539.11 698.374 518.29 695.504C496.61 692.524 480.29 683.594 469.78 668.974C452.83 645.384 458.2 615.914 458.44 614.664L480.92 618.944L469.68 616.804L480.93 618.894C480.89 619.104 477.23 640.254 488.47 655.754C495.18 665.004 506.27 670.754 521.42 672.834C538.71 675.214 549.89 661.704 553.9 655.784C562.94 642.424 567.61 621.114 557.65 603.634C546.46 583.974 519.22 574.404 480.97 576.684L479.61 553.844C507.07 552.214 556.3 555.034 577.53 592.314C587.61 610.024 588.79 631.964 581.46 651.844L581.45 651.854Z" fill="#709EFF"/>
<path d="M263.77 98.3543C261.62 104.174 258.75 109.804 255.16 115.114C241.83 134.814 221.43 144.874 200.61 142.004C178.93 139.024 162.61 130.094 152.1 115.474C135.15 91.8843 140.52 62.4143 140.76 61.1643L163.24 65.4443L152 63.3042L163.25 65.3942C163.21 65.6042 159.55 86.7543 170.79 102.254C177.5 111.504 188.59 117.254 203.74 119.334C221.03 121.714 232.21 108.204 236.22 102.284C245.26 88.9243 249.93 67.6143 239.97 50.1343C228.78 30.4743 201.54 20.9043 163.29 23.1843L161.93 0.344258C189.39 -1.28574 238.62 1.53426 259.85 38.8143C269.93 56.5243 271.11 78.4643 263.78 98.3443L263.77 98.3543Z" fill="#709EFF"/>
<path d="M308.06 785.394L296.22 804.974C270.18 789.234 253.17 766.184 249.55 741.734C247.18 725.754 249.33 701.184 272.99 674.874C273.67 674.114 274.39 673.334 275.13 672.524C278.06 669.324 284.82 661.944 285.21 658.824C284.49 657.944 280.04 653.654 260.25 650.324C251.72 648.884 225.76 644.514 220.82 625.524C219.34 619.844 219.35 610.784 227.78 599.814C231.89 594.454 236.35 590.824 236.85 590.434L251.15 608.294C246.5 612.084 242.52 618.074 242.97 619.764C242.98 619.814 245.36 624.604 264.05 627.754C297.09 633.314 304.34 643.934 306.92 651.434C311.98 666.164 299.96 679.294 292 687.974C291.31 688.724 290.64 689.464 290 690.174C275.78 705.974 269.78 722.194 272.18 738.374C274.8 756.054 287.88 773.184 308.06 785.384V785.394Z" fill="#709EFF"/>
<path d="M220.01 768.254C216.62 777.454 211.63 785.504 205.25 791.854C199.13 797.944 191.19 802.754 181.96 804.834C180.71 817.414 178.31 828.744 175.54 838.474C165.7 873.054 149.49 894.964 148.81 895.884L130.49 882.174L139.65 889.024L130.48 882.194C130.63 881.994 145.18 862.154 153.77 831.384C156.31 822.284 158.09 813.234 159.11 804.234C149.78 801.774 139.79 796.494 129.46 787.494C114.52 774.484 103.92 758.624 98.8101 741.644C94.3401 726.794 94.2101 711.644 98.4401 698.984C103.34 684.324 113.5 675.054 125.63 674.184C133.76 673.604 149.41 676.594 162.81 703.244C176.6 730.654 182.01 756.954 182.79 780.384C185.02 779.194 187.14 777.614 189.14 775.634C198.02 766.814 202.94 751.514 202.3 734.704C201.55 714.814 193.18 694.614 178.73 677.824L196.07 662.904C213.88 683.604 224.21 708.794 225.16 733.844C225.63 746.214 223.82 757.964 220.02 768.264L220.01 768.254ZM120.42 705.384C120.32 705.664 120.22 705.944 120.12 706.234C116.01 718.544 116.51 745.884 144.47 770.244C149.81 774.894 155.01 778.284 160 780.404C159.14 757.574 153.24 735.204 142.34 713.524C135.58 700.084 129.51 696.844 127.24 697.004C125.28 697.144 122.37 700.064 120.41 705.394L120.42 705.384Z" fill="#709EFF"/>
<path d="M394.29 295.824C390.9 305.024 385.91 313.074 379.53 319.424C373.41 325.514 365.47 330.324 356.24 332.404C354.99 344.984 352.59 356.314 349.82 366.044C339.98 400.624 323.77 422.534 323.09 423.454L304.77 409.744L313.93 416.594L304.76 409.764C304.91 409.564 319.46 389.724 328.05 358.954C330.59 349.854 332.37 340.804 333.39 331.804C324.06 329.344 314.07 324.064 303.74 315.064C288.8 302.054 278.2 286.194 273.09 269.214C268.62 254.364 268.49 239.214 272.72 226.554C277.62 211.894 287.78 202.624 299.91 201.754C308.04 201.174 323.69 204.164 337.09 230.814C350.88 258.224 356.29 284.524 357.07 307.954C359.3 306.764 361.42 305.184 363.42 303.204C372.3 294.384 377.22 279.084 376.58 262.274C375.83 242.384 367.46 222.184 353.01 205.394L370.35 190.474C388.16 211.174 398.49 236.364 399.44 261.414C399.91 273.784 398.1 285.534 394.3 295.834L394.29 295.824ZM294.71 232.944C294.61 233.224 294.51 233.504 294.41 233.794C290.3 246.104 290.8 273.444 318.76 297.804C324.1 302.454 329.3 305.844 334.29 307.964C333.43 285.134 327.53 262.764 316.63 241.084C309.87 227.644 303.8 224.404 301.53 224.564C299.57 224.704 296.66 227.624 294.7 232.954L294.71 232.944Z" fill="#709EFF"/>
<path d="M393.61 581.934L372.55 590.874C372.24 590.154 365.06 573.054 365.53 551.764C365.98 531.334 373.54 503.164 407.04 484.954L417.96 505.054C372.44 529.794 392.72 579.814 393.61 581.934Z" fill="#709EFF"/>
<path d="M229.74 218.674L207.09 215.444C207.2 214.674 209.89 196.324 221.3 178.334C232.24 161.074 253.28 140.864 291.37 142.604L290.33 165.464C238.58 163.114 230.08 216.414 229.75 218.684L229.74 218.674Z" fill="#709EFF"/>
<path d="M349.95 482.624C361.471 482.624 370.81 473.285 370.81 461.764C370.81 450.244 361.471 440.904 349.95 440.904C338.429 440.904 329.09 450.244 329.09 461.764C329.09 473.285 338.429 482.624 349.95 482.624Z" fill="#709EFF"/>
<path d="M429.94 573.414C441.461 573.414 450.8 564.075 450.8 552.554C450.8 541.034 441.461 531.694 429.94 531.694C418.419 531.694 409.08 541.034 409.08 552.554C409.08 564.075 418.419 573.414 429.94 573.414Z" fill="#709EFF"/>
<path d="M47.0099 472.624C58.5306 472.624 67.8699 463.285 67.8699 451.764C67.8699 440.244 58.5306 430.904 47.0099 430.904C35.4892 430.904 26.1499 440.244 26.1499 451.764C26.1499 463.285 35.4892 472.624 47.0099 472.624Z" fill="#709EFF"/>
<path d="M79.5797 804.024C91.1004 804.024 100.44 794.685 100.44 783.164C100.44 771.644 91.1004 762.304 79.5797 762.304C68.0591 762.304 58.7197 771.644 58.7197 783.164C58.7197 794.685 68.0591 804.024 79.5797 804.024Z" fill="#709EFF"/>
<path d="M241.06 307.994C252.581 307.994 261.92 298.655 261.92 287.134C261.92 275.613 252.581 266.274 241.06 266.274C229.54 266.274 220.2 275.613 220.2 287.134C220.2 298.655 229.54 307.994 241.06 307.994Z" fill="#709EFF"/>
<path d="M58.7101 114.614C70.2308 114.614 79.5701 105.275 79.5701 93.7543C79.5701 82.2336 70.2308 72.8943 58.7101 72.8943C47.1894 72.8943 37.8501 82.2336 37.8501 93.7543C37.8501 105.275 47.1894 114.614 58.7101 114.614Z" fill="#709EFF"/>
<path d="M428.08 798.834C439.6 798.834 448.94 789.495 448.94 777.974C448.94 766.454 439.6 757.114 428.08 757.114C416.559 757.114 407.22 766.454 407.22 777.974C407.22 789.495 416.559 798.834 428.08 798.834Z" fill="#709EFF"/>
<path d="M493.81 516.864L472.55 525.324C465.05 506.624 460.96 463.024 499.18 431.814L513.65 449.534C479.12 477.724 493.19 515.274 493.8 516.864H493.81Z" fill="#709EFF"/>
</svg>
