<?xml version="1.0" encoding="UTF-8"?>
<svg id="Layer_1" data-name="Layer 1" xmlns="http://www.w3.org/2000/svg" viewBox="0 0 657.6 776.86">
  <defs>
    <style>
      .cls-1 {
        fill: #a8a3fa;
      }
    </style>
  </defs>
  <path class="cls-1" d="M407.96,521.71c-2.78,7.55-10.05,12.91-18.62,13.7-6.02.56-21.37-.51-33.88-22.4-1.25-2.18-2.23-4.28-3-6.3-7.49,2.79-12.94,6.29-14.13,7.82,0,0,.15-.19.31-.55l-14.61-6.52c3-6.72,14.55-13.17,26.49-16.98.45-2.86,1.3-5.34,2.25-7.39,9.72-21.02,43.1-27.83,46.88-28.54l2.96,15.72c-6.81,1.29-26.11,6.92-33.5,16.58,13.02-.82,23.83,2.57,31.6,9.98,7.49,7.15,10.26,16.33,7.39,24.55-.04.11-.08.23-.12.34ZM368.25,502.97c.33.69.7,1.39,1.11,2.1,8.12,14.2,16.23,14.62,18.52,14.41,2.47-.23,4.48-1.55,5.1-3.37.75-2.16-.46-4.97-3.33-7.71-4.54-4.34-11.37-6.2-20.29-5.52-.37.03-.74.06-1.1.09Z"/>
  <path class="cls-1" d="M184.96,104.84c-2.78,7.55-10.05,12.91-18.62,13.7-6.02.56-21.37-.51-33.88-22.4-1.25-2.18-2.23-4.28-3-6.3-7.49,2.79-12.94,6.29-14.13,7.82,0,0,.15-.19.31-.55l-14.61-6.52c3-6.72,14.55-13.17,26.49-16.98.45-2.86,1.3-5.34,2.25-7.39,9.72-21.02,43.1-27.83,46.88-28.54l2.96,15.72c-6.81,1.29-26.11,6.92-33.5,16.58,13.02-.82,23.83,2.57,31.6,9.98,7.49,7.15,10.26,16.33,7.39,24.55-.04.11-.08.23-.12.34ZM145.25,86.1c.33.69.7,1.39,1.11,2.1,8.12,14.2,16.23,14.62,18.52,14.41,2.47-.23,4.48-1.55,5.1-3.37.75-2.16-.46-4.97-3.33-7.71-4.54-4.34-11.37-6.2-20.29-5.52-.37.03-.74.06-1.1.09Z"/>
  <path class="cls-1" d="M189.99,423.66c-.88.87-21.89,21.38-50.67,21.23-17.51-.09-33.84-7.69-48.54-22.58l11.39-11.24c15.87,16.07,33.32,21.31,51.87,15.57,14.56-4.51,24.61-14.25,24.71-14.34l11.25,11.38Z"/>
  <path class="cls-1" d="M635.55,231.4c.87.88,21.35,21.91,21.17,50.69-.11,17.51-7.73,33.83-22.64,48.52l-11.23-11.4c16.09-15.85,21.35-33.29,15.63-51.85-4.49-14.56-14.22-24.63-14.31-24.73l11.39-11.24Z"/>
  <path class="cls-1" d="M575.4,589.41c-.1-1.24-2.33-30.51,16.26-52.47,11.31-13.36,27.62-21,48.48-22.71l1.31,15.95c-22.51,1.84-37.73,11.86-45.24,29.76-5.89,14.05-4.88,28.01-4.87,28.15l-15.95,1.32Z"/>
  <path class="cls-1" d="M554.16,667.9c.34,1.19,8.25,29.46-5.69,54.64-8.48,15.31-22.98,26-43.11,31.75l-4.4-15.38c21.71-6.21,34.68-19.01,38.54-38.04,3.03-14.93-.69-28.43-.73-28.56l15.38-4.41Z"/>
  <path class="cls-1" d="M234.85,474.27l-11.04,11.58c-9.04-8.62-18.18-12.79-27.16-12.38-13.38.6-22.79,11.16-22.88,11.27l-12.12-10.45c.55-.64,13.75-15.78,34.06-16.8,13.58-.68,26.75,4.96,39.14,16.78Z"/>
  <path class="cls-1" d="M336.02,465.69l-15.66-3.27c.03-.15,3.06-15.47-1.7-32.06-2.73-9.51-7.43-17.52-14.05-23.98-4.45,6.19-10.24,11.68-17.28,16.27-21.54,14.03-50.23,16.79-65.32,6.27-10.93-7.62-18.34-25.51-11.95-40.02,2.55-5.79,8.4-13.41,21.72-16.77,10.94-2.76,25.32-2.17,42.74,1.76,9.23,2.08,17.11,5.01,23.83,8.52,1.32-5.82,1.51-12.55,0-20.31-3.41-17.48-12.79-28.81-22.64-36.1-3.95,4.83-8.63,9.08-14,12.64-14.44,9.56-31.93,12.26-43.53,6.71-13.01-6.22-16.54-14.88-17.22-21.05-.95-8.65,3.43-17.92,11.43-24.18,8.41-6.59,31.46-5.9,51.4,1.53,2.24.83,4.41,1.74,6.52,2.71,2.86-6.7,4.64-15.05,4.18-25.36l15.98-.71c.55,12.41-1.65,23.99-6.28,34.09,15.7,11.22,26.07,27.25,29.86,46.67,2.27,11.63,1.59,22.69-1.83,32.65,12.61,10.71,18.91,23.76,22.01,34.91,5.64,20.27,1.96,38.33,1.8,39.09ZM224.44,395.99c-2.48,6.73,1.51,16.19,6.71,19.82,8.53,5.94,30.63,4.41,47.44-6.55,4.57-2.97,9.32-6.97,13.13-12.24-6.01-3.24-12.93-5.75-20.72-7.51-24.9-5.62-42.21-3.43-46.3,5.86-.09.2-.17.41-.25.62ZM217.36,319.06c-.45,1.21-.63,2.4-.51,3.51.42,3.87,4.7,6.68,8.22,8.36,5.57,2.66,16.91,1.59,27.8-5.62,2.56-1.7,5.63-4.09,8.63-7.34-17.86-7.59-35.63-7.13-39.38-5.15-2.28,1.82-3.95,4.05-4.76,6.24ZM222.04,312.86"/>
  <path class="cls-1" d="M460.76,725.76c-2.16,5.84-6.6,11.19-12.62,14.9-9.09,5.6-31.93,2.32-50.9-7.31-2.13-1.08-4.19-2.22-6.18-3.43-3.59,6.34-6.3,14.43-7.01,24.73l-15.96-1.09c.85-12.39,4.34-23.65,10.08-33.16-14.34-12.92-22.83-30.01-24.42-49.74-.95-11.83.99-22.77,5.52-32.29-7.27-7.72-12.54-16.8-15.66-27.07-7.53-24.85-.01-48.11.31-49.09l15.19,5.03-7.59-2.52,7.6,2.49c-.06.19-6.22,19.57-.19,39.44,2.03,6.71,5.22,12.71,9.54,18,5.12-5.65,11.48-10.44,18.99-14.21,22.98-11.52,51.8-11.02,65.61,1.13,8.99,7.91,14.22,23.74,9.4,36.79-.55,1.48-1.22,2.92-2.03,4.31-3.19,5.47-9.85,12.37-23.47,14.22-11.18,1.51-25.4-.69-42.27-6.56-8.49-2.95-16.08-6.71-22.7-11.2-1.98,5.65-2.93,12.33-2.3,20.22,1.42,17.75,9.46,30.07,18.43,38.42,4.46-4.36,9.6-8.05,15.33-10.98,15.43-7.87,33.11-8.58,44.01-1.77,12.22,7.64,14.76,16.65,14.74,22.86,0,2.65-.51,5.29-1.46,7.84ZM439.88,726.94c3.84-2.41,6.32-5.96,6.33-9.09.01-3.89-3.92-7.17-7.22-9.24-5.24-3.27-16.62-3.48-28.26,2.45-2.74,1.4-6.05,3.43-9.4,6.32,16.89,9.55,34.6,11.1,38.55,9.55ZM380.21,635.43c5.61,3.91,12.2,7.18,19.74,9.8,24.11,8.39,41.55,8.16,46.67-.61,3.72-6.37.79-16.72-4.12-21.03-7.8-6.87-29.94-7.83-47.88,1.16-4.87,2.44-10.04,5.88-14.41,10.67Z"/>
  <path class="cls-1" d="M586.04,390.15c-2.16,5.84-6.6,11.19-12.62,14.9-9.09,5.6-31.93,2.32-50.9-7.31-2.13-1.08-4.19-2.22-6.17-3.43-3.59,6.34-6.3,14.43-7.01,24.73l-15.96-1.09c.85-12.39,4.34-23.65,10.08-33.16-14.34-12.92-22.83-30.01-24.41-49.74-.95-11.81.98-22.73,5.49-32.24-11.33-12.06-16.11-25.73-17.93-37.17-3.32-20.78,2.37-38.3,2.61-39.04l15.19,5.03-7.59-2.52,7.6,2.49c-.05.15-4.79,15.03-1.92,32.04,1.64,9.76,5.41,18.24,11.26,25.4,5.12-5.65,11.49-10.45,19-14.22,22.98-11.52,51.8-11.02,65.61,1.13,8.99,7.91,14.22,23.74,9.4,36.79-.55,1.48-1.22,2.92-2.03,4.31-3.19,5.47-9.85,12.37-23.47,14.22-11.18,1.51-25.4-.69-42.27-6.56-8.93-3.11-16.43-6.91-22.72-11.15-1.97,5.64-2.91,12.3-2.28,20.18,1.42,17.75,9.46,30.07,18.43,38.42,4.46-4.36,9.6-8.05,15.33-10.98,15.43-7.87,33.11-8.58,44.01-1.77,12.22,7.64,14.76,16.65,14.74,22.86,0,2.65-.51,5.29-1.46,7.84ZM565.17,391.34c3.84-2.41,6.32-5.96,6.33-9.09.01-3.89-3.92-7.17-7.22-9.24-5.24-3.27-16.62-3.48-28.26,2.45-2.74,1.4-6.05,3.43-9.4,6.32,16.89,9.55,34.6,11.1,38.55,9.55ZM505.49,299.83c5.61,3.9,12.2,7.17,19.75,9.8,24.11,8.39,41.55,8.16,46.67-.61,3.72-6.37.79-16.72-4.12-21.03-7.8-6.87-29.94-7.83-47.88,1.16-4.87,2.44-10.04,5.88-14.42,10.68Z"/>
  <path class="cls-1" d="M130.39,603.88c-2.16,5.84-6.6,11.19-12.62,14.9-9.09,5.6-31.93,2.32-50.9-7.31-2.13-1.08-4.19-2.22-6.17-3.42-3.59,6.34-6.3,14.43-7.01,24.73l-15.96-1.09c.85-12.39,4.34-23.65,10.08-33.16-14.34-12.92-22.83-30.01-24.41-49.74-.95-11.83.99-22.76,5.52-32.29-7.27-7.72-12.54-16.8-15.66-27.07-7.53-24.85-.01-48.11.31-49.09l15.19,5.03-7.59-2.52,7.6,2.49c-.06.19-6.22,19.57-.19,39.44,2.03,6.71,5.22,12.71,9.54,18,5.12-5.65,11.48-10.44,18.99-14.21,22.98-11.52,51.8-11.02,65.61,1.13,8.99,7.91,14.22,23.74,9.4,36.79-.55,1.48-1.22,2.92-2.03,4.31-3.19,5.47-9.85,12.37-23.47,14.22-11.18,1.51-25.4-.69-42.27-6.56-8.49-2.95-16.08-6.71-22.7-11.2-1.98,5.65-2.93,12.33-2.3,20.22,1.42,17.75,9.46,30.07,18.43,38.42,4.46-4.36,9.6-8.05,15.33-10.98,15.43-7.87,33.11-8.58,44.01-1.77,12.22,7.64,14.76,16.65,14.74,22.86,0,2.65-.51,5.29-1.46,7.84ZM109.51,605.07c3.84-2.41,6.32-5.96,6.33-9.09.01-3.89-3.92-7.17-7.22-9.24-5.24-3.27-16.62-3.48-28.26,2.45-2.74,1.4-6.05,3.43-9.4,6.32,16.89,9.55,34.6,11.1,38.55,9.55ZM109.59,605.04s0,0,0,0h0ZM49.84,513.56c5.61,3.91,12.2,7.18,19.74,9.8,24.11,8.39,41.55,8.16,46.67-.61,3.72-6.37.79-16.72-4.12-21.03-7.8-6.87-29.94-7.83-47.88,1.16-4.87,2.44-10.04,5.88-14.41,10.67Z"/>
  <path class="cls-1" d="M238.11,232.56c.86,6.17-.53,12.98-4.08,19.1-5.37,9.23-27.04,17.14-48.31,17.62-2.39.05-4.74.02-7.06-.1-.17,7.29,1.27,15.7,5.51,25.11l-14.58,6.58c-5.11-11.32-7.36-22.89-6.79-33.99-18.74-4.6-34.31-15.65-45.03-32.29-6.42-9.96-9.88-20.49-10.4-31-15.68-5.28-26.36-15.06-33.37-24.27-12.75-16.74-16.02-34.87-16.15-35.64l15.76-2.75-7.88,1.37,7.88-1.4c.03.15,2.89,15.51,13.46,29.15,6.06,7.82,13.39,13.52,21.93,17.07,1.84-7.4,5.18-14.64,10.02-21.51,14.81-21.01,40.44-34.2,58.36-30.02,11.66,2.72,23.75,14.2,25.68,27.98.22,1.56.31,3.15.25,4.76-.23,6.33-2.83,15.56-13.96,23.62-9.14,6.62-22.72,11.4-40.35,14.2-9.34,1.48-17.75,1.68-25.29.91.93,5.9,3.25,12.22,7.53,18.86,9.64,14.97,22.55,22.03,34.4,25.15,1.87-5.95,4.65-11.63,8.32-16.92,9.87-14.23,25.12-23.21,37.95-22.36,14.38.96,20.88,7.69,23.8,13.18,1.24,2.34,2.05,4.91,2.43,7.6ZM220.28,243.47c2.24-3.94,2.75-8.24,1.28-11-1.83-3.44-6.84-4.47-10.73-4.73-6.16-.41-16.29,4.79-23.74,15.52-1.75,2.52-3.71,5.89-5.3,10.02,19.4.43,35.74-6.58,38.49-9.81ZM220.33,243.4s0,0,0,0h0ZM124.43,191.04c6.79.79,14.14.55,22.03-.7,25.21-4.01,40.48-12.45,40.84-22.59.26-7.37-7.21-15.1-13.57-16.59-10.12-2.36-30.08,7.25-41.64,23.65-3.14,4.45-6.07,9.93-7.66,16.23Z"/>
  <path class="cls-1" d="M321.19,658.51c-.41,1.11-.89,2.2-1.45,3.28-4.23,8.2-12.49,15.13-24.53,20.6-8.44,3.84-15.8,5.56-16.11,5.63l-3.61-15.59,1.8,7.79-1.82-7.79c6.58-1.54,24.8-7.79,30.06-18.01,1.86-3.62,1.86-7.42,0-11.96-2.67-6.51-6.02-10.38-10.23-11.83-9.7-3.35-25.2,5.43-36.52,11.85l-7.89-13.92c14.75-8.36,33.1-18.76,49.63-13.05,8.68,3,15.35,10.02,19.8,20.88,3.13,7.62,3.41,15.19.85,22.12Z"/>
  <path class="cls-1" d="M442.11,329.93c-.41,1.11-.89,2.2-1.45,3.28-4.23,8.2-12.49,15.13-24.53,20.6-8.44,3.84-15.8,5.56-16.11,5.63l-3.61-15.59,1.8,7.79-1.82-7.79c6.58-1.54,24.8-7.79,30.06-18.01,1.86-3.62,1.87-7.42,0-11.96-2.67-6.51-6.02-10.38-10.23-11.83-9.7-3.35-25.2,5.43-36.52,11.85l-7.89-13.92c14.75-8.36,33.1-18.76,49.63-13.05,8.68,3,15.35,10.02,19.8,20.88,3.13,7.62,3.41,15.19.85,22.12Z"/>
  <path class="cls-1" d="M178.74,368.69c-1.5,4.07-3.51,8.01-6.02,11.72-9.32,13.78-23.58,20.81-38.14,18.81-15.16-2.09-26.57-8.33-33.92-18.56-11.85-16.5-8.1-37.11-7.93-37.98l15.72,2.99-7.86-1.5,7.87,1.46c-.03.15-2.59,14.94,5.27,25.78,4.69,6.47,12.44,10.49,23.04,11.95,12.09,1.66,19.91-7.78,22.71-11.92,6.32-9.34,9.58-24.24,2.62-36.47-7.83-13.75-26.87-20.44-53.62-18.85l-.95-15.97c19.2-1.14,53.63.83,68.48,26.9,7.05,12.38,7.88,27.72,2.75,41.63Z"/>
  <path class="cls-1" d="M510.28,491c-1.5,4.07-3.51,8.01-6.02,11.72-9.32,13.78-23.58,20.81-38.14,18.81-15.16-2.09-26.57-8.33-33.92-18.56-11.85-16.5-8.1-37.11-7.93-37.98l15.72,2.99-7.86-1.5,7.87,1.46c-.03.15-2.59,14.94,5.27,25.78,4.69,6.47,12.44,10.49,23.04,11.95,12.09,1.66,19.91-7.78,22.71-11.92,6.32-9.34,9.58-24.24,2.62-36.47-7.83-13.75-26.87-20.44-53.62-18.85l-.95-15.97c19.2-1.14,53.63.83,68.48,26.9,7.05,12.38,7.88,27.72,2.75,41.63Z"/>
  <path class="cls-1" d="M288.13,103.94c-1.5,4.07-3.51,8.01-6.02,11.72-9.32,13.78-23.58,20.81-38.14,18.81-15.16-2.09-26.57-8.33-33.92-18.56-11.85-16.5-8.1-37.11-7.93-37.98l15.72,2.99-7.86-1.5,7.87,1.46c-.03.15-2.59,14.94,5.27,25.78,4.69,6.47,12.44,10.49,23.04,11.95,12.09,1.66,19.91-7.78,22.71-11.92,6.32-9.34,9.58-24.24,2.62-36.47-7.83-13.75-26.87-20.44-53.62-18.85l-.95-15.97c19.2-1.14,53.63.83,68.48,26.9,7.05,12.38,7.88,27.72,2.75,41.63Z"/>
  <path class="cls-1" d="M319.1,584.39l-8.28,13.69c-18.21-11.01-30.1-27.13-32.64-44.22-1.66-11.18-.16-28.36,16.39-46.75.48-.53.98-1.08,1.5-1.64,2.05-2.24,6.78-7.4,7.05-9.58-.51-.62-3.61-3.62-17.45-5.95-5.97-1-24.12-4.06-27.57-17.34-1.03-3.97-1.02-10.31,4.86-17.98,2.88-3.75,6-6.28,6.34-6.56l10,12.49c-3.25,2.65-6.03,6.84-5.72,8.02,0,.03,1.67,3.39,14.74,5.59,23.1,3.89,28.18,11.31,29.98,16.56,3.54,10.3-4.87,19.48-10.43,25.55-.48.53-.95,1.04-1.4,1.54-9.95,11.05-14.14,22.39-12.46,33.7,1.83,12.36,10.98,24.34,25.09,32.88Z"/>
  <path class="cls-1" d="M483.27,158.5l15.99.63c-.84,21.26-9.21,39.46-22.95,49.94-8.99,6.85-24.75,13.84-48.85,8.23-.7-.16-1.42-.34-2.16-.52-2.95-.71-9.75-2.36-11.79-1.54-.3.74-1.42,4.91,3.22,18.15,2,5.71,8.1,23.08-1.86,32.52-2.98,2.82-8.53,5.88-18.09,4.43-4.67-.71-8.4-2.21-8.81-2.38l6.1-14.79c3.89,1.57,8.9,1.98,9.79,1.13.02-.02,2.16-3.1-2.23-15.6-7.76-22.11-3.71-30.14.02-34.25,7.31-8.08,19.41-5.15,27.41-3.21.7.17,1.37.33,2.02.48,14.48,3.37,26.44,1.56,35.53-5.37,9.94-7.58,16.01-21.37,16.66-37.85Z"/>
  <path class="cls-1" d="M143.73,623.56l15.99.63c-.84,21.26-9.21,39.46-22.95,49.94-8.99,6.85-24.75,13.84-48.85,8.23-.7-.16-1.42-.34-2.16-.52-2.95-.71-9.75-2.36-11.79-1.54-.3.74-1.42,4.91,3.22,18.15,2,5.71,8.1,23.08-1.86,32.52-2.98,2.82-8.53,5.88-18.09,4.43-4.67-.71-8.4-2.21-8.81-2.38l6.1-14.79c3.89,1.57,8.9,1.98,9.79,1.13.02-.02,2.16-3.1-2.23-15.6-7.76-22.11-3.71-30.14.02-34.25,7.31-8.08,19.41-5.15,27.41-3.21.7.17,1.37.33,2.02.48,14.48,3.37,26.44,1.56,35.53-5.37,9.94-7.58,16.01-21.37,16.66-37.85Z"/>
  <path class="cls-1" d="M634.6,145l-11.41,11.22c-14.91-15.17-22.45-33.74-20.67-50.93,1.16-11.24,6.87-27.52,27.46-41.24.59-.4,1.22-.8,1.86-1.22,2.54-1.66,8.4-5.49,9.2-7.54-.34-.72-2.6-4.4-15.44-10.08-5.53-2.45-22.36-9.91-22.42-23.63-.02-4.1,1.56-10.24,9.16-16.21,3.72-2.92,7.36-4.6,7.77-4.79l6.6,14.58c-3.8,1.76-7.54,5.13-7.53,6.36,0,.03.78,3.7,12.9,9.06,21.42,9.49,24.5,17.94,24.95,23.47.88,10.86-9.54,17.67-16.44,22.17-.6.39-1.18.77-1.74,1.14-12.37,8.25-19.24,18.19-20.42,29.57-1.29,12.43,4.61,26.3,16.17,38.06Z"/>
  <path class="cls-1" d="M611.11,390.71l15.73-2.93c3.9,20.92-.22,40.52-11.3,53.79-7.24,8.67-21.07,18.99-45.81,18.87-.71,0-1.46-.01-2.22-.02-3.03-.04-10.03-.14-11.84,1.11-.12.79-.3,5.1,7.17,16.99,3.22,5.12,13.02,20.71,5.4,32.12-2.28,3.41-7.02,7.63-16.66,8.33-4.71.34-8.68-.3-9.12-.37l2.67-15.78c4.14.66,9.12-.05,9.8-1.07.02-.03,1.41-3.5-5.64-14.72-12.47-19.84-10.3-28.56-7.58-33.4,5.33-9.5,17.78-9.33,26.02-9.21.72,0,1.41.02,2.08.02,14.87.07,26.12-4.34,33.45-13.12,8.01-9.59,10.87-24.39,7.85-40.6Z"/>
  <path class="cls-1" d="M257.53,572.4c-2.37,6.43-5.86,12.07-10.32,16.5-4.28,4.26-9.83,7.62-16.29,9.07-.87,8.79-2.55,16.72-4.49,23.52-6.88,24.18-18.21,39.5-18.69,40.15l-12.81-9.59,6.41,4.79-6.42-4.78c.1-.14,10.28-14.02,16.29-35.53,1.78-6.36,3.02-12.69,3.73-18.98-6.52-1.72-13.51-5.41-20.74-11.71-10.45-9.1-17.86-20.19-21.44-32.06-3.13-10.38-3.22-20.98-.26-29.83,3.43-10.25,10.53-16.73,19.01-17.34,5.69-.41,16.63,1.69,26,20.32,9.64,19.17,13.42,37.56,13.97,53.94,1.56-.83,3.04-1.94,4.44-3.32,6.21-6.17,9.65-16.87,9.21-28.62-.53-13.91-6.38-28.03-16.48-39.77l12.13-10.44c12.46,14.47,19.68,32.09,20.34,49.61.33,8.65-.94,16.86-3.59,24.07ZM187.89,528.44c-.07.19-.14.39-.21.59-2.88,8.61-2.53,27.73,17.03,44.76,3.73,3.25,7.37,5.62,10.86,7.11-.6-15.97-4.72-31.61-12.35-46.77-4.73-9.4-8.97-11.67-10.56-11.55-1.37.1-3.4,2.14-4.78,5.86Z"/>
  <path class="cls-1" d="M379.4,242.03c-2.37,6.43-5.86,12.07-10.32,16.5-4.28,4.26-9.83,7.62-16.29,9.07-.87,8.79-2.55,16.72-4.49,23.52-6.88,24.18-18.21,39.5-18.69,40.15l-12.81-9.59,6.41,4.79-6.42-4.78c.1-.14,10.28-14.02,16.29-35.53,1.78-6.36,3.02-12.69,3.73-18.98-6.52-1.72-13.51-5.41-20.74-11.71-10.45-9.1-17.86-20.19-21.44-32.06-3.13-10.38-3.22-20.98-.26-29.83,3.43-10.25,10.53-16.73,19.01-17.34,5.69-.41,16.63,1.69,26,20.32,9.64,19.17,13.42,37.56,13.97,53.94,1.56-.83,3.04-1.94,4.44-3.32,6.21-6.17,9.65-16.87,9.21-28.62-.53-13.91-6.38-28.03-16.48-39.77l12.13-10.44c12.46,14.47,19.68,32.09,20.34,49.61.33,8.65-.94,16.86-3.59,24.07ZM309.76,198.07c-.07.19-.14.39-.21.59-2.88,8.61-2.53,27.73,17.03,44.76,3.73,3.25,7.37,5.62,10.86,7.11-.6-15.97-4.72-31.61-12.35-46.77-4.73-9.4-8.97-11.67-10.56-11.55-1.37.1-3.4,2.14-4.78,5.86Z"/>
  <path class="cls-1" d="M549.74,605.11c-2.37,6.43-5.86,12.07-10.32,16.5-4.28,4.26-9.83,7.62-16.29,9.07-.87,8.79-2.55,16.72-4.49,23.52-6.88,24.18-18.21,39.5-18.69,40.15l-12.81-9.59,6.41,4.79-6.42-4.78c.1-.14,10.28-14.02,16.29-35.53,1.78-6.36,3.02-12.69,3.73-18.98-6.52-1.72-13.51-5.41-20.74-11.71-10.45-9.1-17.86-20.19-21.44-32.06-3.13-10.38-3.22-20.98-.26-29.83,3.43-10.25,10.53-16.73,19.01-17.34,5.69-.41,16.63,1.69,26,20.32,9.64,19.17,13.42,37.56,13.97,53.94,1.56-.83,3.04-1.94,4.44-3.32,6.21-6.17,9.65-16.87,9.21-28.62-.53-13.91-6.38-28.03-16.48-39.77l12.13-10.44c12.46,14.47,19.68,32.09,20.34,49.61.33,8.65-.94,16.86-3.59,24.07ZM480.1,561.15c-.07.19-.14.39-.21.59-2.88,8.61-2.53,27.73,17.03,44.76,3.73,3.25,7.37,5.62,10.86,7.11-.6-15.97-4.72-31.61-12.35-46.77-4.73-9.4-8.97-11.67-10.56-11.55-1.37.1-3.4,2.14-4.78,5.86Z"/>
  <path class="cls-1" d="M518.97,174.48c2.64-6.33,6.37-11.81,11.02-16.05,4.46-4.07,10.15-7.2,16.66-8.37,1.25-8.75,3.26-16.6,5.49-23.31,7.9-23.87,19.88-38.69,20.39-39.31l12.39,10.12-6.2-5.06,6.21,5.05c-.11.13-10.87,13.56-17.79,34.8-2.05,6.28-3.56,12.55-4.54,18.81,6.44,2,13.27,5.98,20.22,12.58,10.05,9.54,16.98,20.93,20.05,32.95,2.68,10.51,2.32,21.09-1.01,29.82-3.86,10.09-11.24,16.27-19.73,16.52-5.7.17-16.54-2.39-25.11-21.41-8.82-19.56-11.81-38.1-11.66-54.49-1.6.76-3.12,1.81-4.58,3.13-6.47,5.9-10.36,16.44-10.42,28.2-.07,13.92,5.18,28.28,14.77,40.44l-12.56,9.91c-11.83-14.99-18.3-32.9-18.21-50.43.04-8.66,1.65-16.81,4.62-23.9ZM586.68,221.37c.08-.19.16-.38.23-.58,3.24-8.48,3.7-27.59-15.11-45.45-3.59-3.41-7.13-5.93-10.55-7.56-.08,15.98,3.37,31.78,10.35,47.25,4.32,9.59,8.47,12.04,10.06,11.99,1.37-.04,3.49-1.99,5.02-5.65Z"/>
  <path class="cls-1" d="M92.52,293.58c-2.37,6.43-5.86,12.07-10.32,16.5-4.28,4.26-9.83,7.62-16.29,9.07-.87,8.79-2.55,16.72-4.49,23.52-6.88,24.18-18.21,39.5-18.69,40.15l-12.81-9.59,6.41,4.79-6.42-4.78c.1-.14,10.28-14.02,16.29-35.53,1.78-6.36,3.02-12.69,3.73-18.98-6.52-1.72-13.51-5.41-20.74-11.71-10.45-9.1-17.86-20.19-21.44-32.06-3.13-10.38-3.22-20.98-.26-29.83,3.43-10.25,10.53-16.73,19.01-17.34,5.69-.41,16.63,1.69,26,20.32,9.64,19.17,13.42,37.56,13.97,53.94,1.56-.83,3.04-1.94,4.44-3.32,6.21-6.17,9.65-16.87,9.21-28.62-.53-13.91-6.38-28.03-16.48-39.77l12.13-10.44c12.46,14.47,19.68,32.09,20.34,49.61.33,8.65-.94,16.86-3.59,24.07ZM22.88,249.61c-.07.19-.14.39-.21.59-2.88,8.61-2.53,27.73,17.03,44.76,3.73,3.25,7.37,5.62,10.86,7.11-.6-15.97-4.72-31.61-12.35-46.77-4.73-9.4-8.97-11.67-10.56-11.55-1.37.1-3.4,2.14-4.78,5.86Z"/>
  <path class="cls-1" d="M378.92,442.1l-14.73,6.25c-.21-.5-5.23-12.46-4.91-27.35.31-14.29,5.6-33.99,29.03-46.72l7.64,14.06c-31.83,17.3-17.65,52.28-17.03,53.76Z"/>
  <path class="cls-1" d="M264.34,188.08l-15.84-2.26c.08-.54,1.96-13.37,9.93-25.95,7.65-12.07,22.36-26.2,49-24.99l-.73,15.98c-36.19-1.65-42.13,35.63-42.36,37.22Z"/>
  <circle class="cls-1" cx="348.39" cy="358.07" r="14.59"/>
  <circle class="cls-1" cx="404.33" cy="421.56" r="14.59"/>
  <circle class="cls-1" cx="611.65" cy="275.88" r="14.59"/>
  <path class="cls-1" d="M345.25,732l5.81,14.91c-.51.2-12.61,4.86-27.49,4.09-14.27-.74-33.81-6.61-45.83-30.41l14.28-7.22c16.34,32.33,51.73,19.2,53.23,18.62Z"/>
  <circle class="cls-1" cx="325.47" cy="705.99" r="14.59"/>
  <path class="cls-1" d="M410.2,147.43c-2.78,7.55-10.05,12.91-18.62,13.7-6.02.56-21.37-.51-33.88-22.4-1.25-2.18-2.23-4.28-3-6.3-7.49,2.79-12.94,6.29-14.13,7.82,0,0,.15-.19.31-.55l-14.61-6.52c3-6.72,14.55-13.17,26.49-16.98.45-2.86,1.3-5.34,2.25-7.39,9.72-21.02,43.1-27.83,46.88-28.54l2.96,15.72c-6.81,1.29-26.11,6.92-33.5,16.58,13.02-.82,23.83,2.57,31.6,9.98,7.49,7.15,10.26,16.33,7.39,24.55-.04.11-.08.23-.12.34ZM370.49,128.69c.33.69.7,1.39,1.11,2.1,8.12,14.2,16.23,14.62,18.52,14.41,2.47-.23,4.48-1.55,5.1-3.37.75-2.16-.46-4.97-3.33-7.71-4.54-4.34-11.37-6.2-20.29-5.52-.37.03-.74.06-1.1.09Z"/>
  <path class="cls-1" d="M657.59,668.64c-.21,8.04-5.37,15.45-13.23,18.96-5.52,2.46-20.41,6.38-39.28-10.33-1.88-1.66-3.49-3.34-4.87-5-6.2,5.05-10.24,10.11-10.87,11.94,0,0,.08-.23.11-.62l-15.93-1.48c.68-7.33,9.55-17.14,19.63-24.59-.49-2.85-.49-5.47-.25-7.72,2.45-23.03,31.87-40.21,35.22-42.09l7.85,13.94c-6.03,3.41-22.5,14.94-26.4,26.46,12.07-4.96,23.39-5.22,33.13-.7,9.39,4.36,14.96,12.17,14.89,20.87,0,.12,0,.24,0,.36ZM613.96,663.65c.53.55,1.11,1.09,1.72,1.64,12.25,10.84,20.06,8.63,22.16,7.69,2.26-1.01,3.74-2.91,3.75-4.83.02-2.29-2.03-4.56-5.63-6.23-5.7-2.65-12.76-2.21-20.99,1.29-.34.14-.68.29-1.01.44Z"/>
  <path class="cls-1" d="M512.52,116.71c-1.5,4.07-3.51,8.01-6.02,11.72-9.32,13.78-23.58,20.81-38.14,18.81-15.16-2.09-26.57-8.33-33.92-18.56-11.85-16.5-8.1-37.11-7.93-37.98l15.72,2.99-7.86-1.5,7.87,1.46c-.03.15-2.59,14.94,5.27,25.78,4.69,6.47,12.44,10.49,23.04,11.95,12.09,1.66,19.91-7.78,22.71-11.92,6.32-9.34,9.58-24.24,2.62-36.47-7.83-13.75-26.87-20.44-53.62-18.85l-.95-15.97c19.2-1.14,53.63.83,68.48,26.9,7.05,12.38,7.88,27.72,2.75,41.63Z"/>
  <path class="cls-1" d="M.07,78.85c-.22-4.33.08-8.74.92-13.15,3.15-16.34,13.5-28.41,27.67-32.3,14.76-4.05,27.71-2.8,38.48,3.72,17.39,10.5,22.04,30.93,22.23,31.79l-15.63,3.43,7.81-1.72-7.81,1.75c-.03-.15-3.49-14.75-14.99-21.62-6.86-4.1-15.57-4.75-25.88-1.92-11.77,3.23-15.24,14.99-16.19,19.9-2.14,11.08.73,26.06,11.94,34.56,12.6,9.56,32.74,8.22,56.71-3.77l7.16,14.31c-17.2,8.6-49.63,20.33-73.54,2.21C7.62,107.44.83,93.66.07,78.85Z"/>
  <path class="cls-1" d="M163.66,678.03c3.96-1.77,8.18-3.1,12.59-3.9,16.37-2.98,31.37,2.29,40.12,14.09,9.12,12.29,12.64,24.81,10.47,37.22-3.5,20.01-20.85,31.75-21.58,32.24l-8.86-13.32,4.43,6.66-4.46-6.64c.12-.08,12.49-8.6,14.73-21.8,1.34-7.88-1.21-16.23-7.58-24.82-7.27-9.8-19.49-8.78-24.41-7.89-11.1,2.02-24.03,10.11-27.89,23.64-4.34,15.21,4.2,33.5,24.05,51.5l-10.75,11.85c-14.25-12.92-36.93-38.9-28.69-67.75,3.91-13.7,14.3-25.03,27.82-31.09Z"/>
  <path class="cls-1" d="M381.16,67.82l-14.73,6.25c-.21-.5-5.23-12.46-4.91-27.35.31-14.29,5.6-33.99,29.03-46.72l7.64,14.06c-31.83,17.3-17.65,52.28-17.03,53.76Z"/>
  <circle class="cls-1" cx="406.57" cy="47.28" r="14.59"/>
  <circle class="cls-1" cx="71.49" cy="456.89" r="14.59"/>
  <circle class="cls-1" cx="136.55" cy="351.08" r="14.59"/>
  <circle class="cls-1" cx="159.33" cy="582.83" r="14.59"/>
  <circle class="cls-1" cx="574.25" cy="619.7" r="14.59"/>
  <circle class="cls-1" cx="272.25" cy="235.96" r="14.59"/>
  <circle class="cls-1" cx="105.51" cy="139.95" r="14.59"/>
  <circle class="cls-1" cx="397.19" cy="567.04" r="14.59"/>
  <path class="cls-1" d="M450.75,347.34l15.25-4.83c4.29,13.42,4.94,44.04-23.29,63.88l-9.2-13.09c25.51-17.92,17.59-44.82,17.24-45.96Z"/>
</svg>