<svg width="446" height="146" viewBox="0 0 446 146" fill="none" xmlns="http://www.w3.org/2000/svg">
<path d="M37.49 0.372314C48.55 0.372314 57.26 3.73232 63.59 10.4423C70.05 3.73232 78.76 0.372314 89.7 0.372314C101.76 0.372314 110.99 4.26232 117.39 12.0223C123.79 19.7923 126.99 30.6423 126.99 44.5623V93.6523H104.61V38.7823C104.61 32.5623 103.05 28.0323 99.95 25.1723C96.84 22.3123 93.42 20.8823 89.69 20.8823C85.96 20.8823 82.35 22.3123 79.25 25.1723C76.14 28.0323 74.59 32.5723 74.59 38.7823V93.6523H52.4V38.7823C52.4 32.5623 50.84 28.0323 47.74 25.1723C44.63 22.3123 41.21 20.8823 37.48 20.8823C33.75 20.8823 30.14 22.3123 27.04 25.1723C23.93 28.0323 22.38 32.5723 22.38 38.7823V93.6523H0V44.5623C0 30.6423 3.23001 19.7923 9.70001 12.0223C16.16 4.25232 25.43 0.372314 37.49 0.372314Z" fill="#07004C"/>
<path d="M320.71 0.372314C320.71 0.372314 299.43 50.4623 292.36 67.1023C291.51 69.0923 288.7 69.0923 287.85 67.1023C280.78 50.4623 259.49 0.372314 259.49 0.372314H236.27L270.32 80.5123C277.73 97.9623 302.47 97.9623 309.89 80.5123L343.94 0.372314H320.72H320.71Z" fill="#4C86FF"/>
<path d="M184.94 93.6523C171.14 93.6523 160.51 89.7723 153.05 82.0023C145.59 74.2323 141.86 63.3923 141.86 49.4623V0.372314H164.24V52.6323C164.24 58.8523 166.17 63.8223 170.02 67.5523C173.87 71.2823 178.85 73.1423 184.94 73.1423C191.03 73.1423 196 71.2723 199.86 67.5523C203.71 63.8223 205.64 58.8523 205.64 52.6323V0.372314H228.02V49.4623C228.02 63.3823 224.29 74.2323 216.83 82.0023C209.37 89.7723 198.74 93.6523 184.94 93.6523Z" fill="#07004C"/>
<path d="M391.8 93.2524C390.48 93.2524 389.18 93.2024 387.88 93.1124C373.17 92.0124 361.9 84.8024 356.15 72.8124C355.74 71.9524 355.35 71.0924 354.99 70.2324C343.1 71.6024 334.19 71.4924 333.36 71.4824L333.7 51.3824L333.53 61.4324L333.69 51.3824C333.77 51.3824 341.12 51.4824 351.06 50.4424C351.18 39.3324 355.14 28.4324 362.78 19.1324C375.09 4.15242 394.47 -3.04758 411.01 1.21242C418.5 3.14242 424.1 9.30242 425.64 17.3124C428.94 34.5124 412.75 48.4424 405.64 53.6324C397.12 59.8524 386.34 63.9024 375.73 66.5524C378.56 70.4224 383.14 72.6124 389.38 73.0724C403.52 74.1324 420.88 65.7324 428.85 53.9624L445.49 65.2424C434.19 81.9124 412.13 93.2724 391.8 93.2724V93.2524ZM401.19 20.0824C393.23 20.0824 384.39 24.5124 378.33 31.8924C376.15 34.5424 372.56 39.8324 371.48 46.9124C380.83 44.5324 388.41 41.3124 393.79 37.3824C404.46 29.5924 405.93 23.8324 405.93 22.2424C405.93 20.0724 402.75 20.0724 401.18 20.0724L401.19 20.0824Z" fill="#4C86FF"/>
<path d="M94.9502 145.022V122.702H98.6302V132.382L97.9402 132.742C98.1402 132.022 98.5302 131.362 99.1202 130.762C99.7002 130.172 100.4 129.692 101.2 129.332C102 128.972 102.83 128.792 103.67 128.792C104.88 128.792 105.89 129.032 106.7 129.512C107.51 129.992 108.13 130.722 108.54 131.682C108.95 132.642 109.16 133.852 109.16 135.302V145.012H105.45V135.572C105.45 134.772 105.34 134.102 105.12 133.562C104.9 133.032 104.56 132.642 104.09 132.382C103.63 132.132 103.06 132.012 102.4 132.032C101.86 132.032 101.36 132.122 100.91 132.292C100.46 132.462 100.07 132.702 99.7302 133.012C99.4002 133.322 99.1402 133.682 98.9502 134.082C98.7602 134.482 98.6602 134.922 98.6602 135.412V145.002H94.9502V145.022Z" fill="#07004C"/>
<path d="M123.78 145.322C122.11 145.322 120.64 144.972 119.36 144.262C118.08 143.562 117.09 142.602 116.37 141.382C115.66 140.162 115.3 138.772 115.3 137.202C115.3 135.952 115.5 134.822 115.9 133.792C116.3 132.762 116.86 131.882 117.57 131.122C118.28 130.372 119.14 129.782 120.13 129.372C121.12 128.962 122.22 128.752 123.4 128.752C124.45 128.752 125.42 128.952 126.32 129.352C127.22 129.752 128.01 130.302 128.67 130.992C129.33 131.682 129.84 132.512 130.19 133.462C130.54 134.422 130.71 135.462 130.69 136.582L130.66 137.882H117.78L117.09 135.352H127.55L127.07 135.862V135.202C127.01 134.582 126.81 134.032 126.47 133.562C126.13 133.092 125.69 132.722 125.16 132.442C124.63 132.172 124.04 132.032 123.4 132.032C122.41 132.032 121.59 132.222 120.91 132.602C120.24 132.982 119.73 133.532 119.39 134.242C119.05 134.952 118.88 135.842 118.88 136.912C118.88 137.982 119.1 138.832 119.53 139.592C119.96 140.352 120.58 140.942 121.37 141.352C122.16 141.762 123.09 141.972 124.16 141.972C124.9 141.972 125.59 141.852 126.21 141.612C126.83 141.372 127.51 140.942 128.23 140.312L130.07 142.872C129.53 143.372 128.91 143.802 128.22 144.152C127.53 144.502 126.8 144.782 126.03 144.982C125.26 145.182 124.51 145.282 123.77 145.282L123.78 145.322Z" fill="#07004C"/>
<path d="M143.02 145.322C141.71 145.322 140.53 144.962 139.46 144.232C138.39 143.512 137.54 142.522 136.9 141.272C136.26 140.022 135.94 138.612 135.94 137.022C135.94 135.432 136.26 134.022 136.9 132.772C137.54 131.522 138.42 130.552 139.52 129.852C140.62 129.152 141.87 128.792 143.26 128.792C144.06 128.792 144.8 128.912 145.46 129.142C146.12 129.372 146.71 129.702 147.21 130.122C147.71 130.542 148.13 131.022 148.46 131.572C148.79 132.122 149.02 132.702 149.14 133.322L148.33 133.112V129.132H152.07V145.022H148.3V141.222L149.17 141.072C149.03 141.612 148.77 142.142 148.4 142.652C148.03 143.162 147.57 143.612 147.01 144.012C146.46 144.402 145.84 144.722 145.17 144.962C144.5 145.202 143.78 145.322 143.01 145.322H143.02ZM144.04 142.032C144.9 142.032 145.67 141.822 146.33 141.402C146.99 140.982 147.51 140.392 147.88 139.642C148.25 138.892 148.44 138.022 148.44 137.032C148.44 136.042 148.25 135.212 147.88 134.472C147.51 133.732 146.99 133.142 146.33 132.722C145.67 132.302 144.9 132.092 144.04 132.092C143.18 132.092 142.42 132.302 141.76 132.722C141.11 133.142 140.6 133.732 140.24 134.472C139.88 135.212 139.7 136.072 139.7 137.032C139.7 137.992 139.88 138.882 140.24 139.642C140.6 140.392 141.11 140.982 141.76 141.402C142.41 141.822 143.17 142.032 144.04 142.032Z" fill="#07004C"/>
<path d="M159.42 145.022V122.702H163.16V145.022H159.42Z" fill="#07004C"/>
<path d="M169.04 132.562V129.122H179.35V132.562H169.04ZM172.18 145.022V125.092H175.89V145.022H172.18Z" fill="#07004C"/>
<path d="M185.21 145.022V122.702H188.89V132.382L188.2 132.742C188.4 132.022 188.79 131.362 189.38 130.762C189.96 130.172 190.66 129.692 191.46 129.332C192.26 128.972 193.09 128.792 193.93 128.792C195.14 128.792 196.15 129.032 196.96 129.512C197.77 129.992 198.39 130.722 198.8 131.682C199.21 132.642 199.42 133.852 199.42 135.302V145.012H195.71V135.572C195.71 134.772 195.6 134.102 195.38 133.562C195.16 133.032 194.82 132.642 194.35 132.382C193.89 132.132 193.32 132.012 192.66 132.032C192.12 132.032 191.62 132.122 191.17 132.292C190.72 132.462 190.33 132.702 189.99 133.012C189.66 133.322 189.4 133.682 189.21 134.082C189.02 134.482 188.92 134.922 188.92 135.412V145.002H185.21V145.022Z" fill="#07004C"/>
<path d="M213.4 145.322C211.91 145.322 210.58 144.962 209.39 144.232C208.2 143.512 207.27 142.522 206.59 141.272C205.91 140.022 205.56 138.622 205.56 137.052C205.56 135.482 205.9 134.072 206.59 132.832C207.27 131.582 208.21 130.602 209.39 129.872C210.58 129.152 211.91 128.782 213.4 128.782C214.89 128.782 216.12 129.052 217.29 129.592C218.46 130.132 219.36 130.892 220 131.852L217.95 134.322C217.65 133.902 217.27 133.522 216.8 133.172C216.34 132.832 215.84 132.562 215.32 132.362C214.8 132.162 214.27 132.062 213.75 132.062C212.87 132.062 212.08 132.282 211.38 132.712C210.69 133.142 210.14 133.732 209.74 134.492C209.34 135.242 209.14 136.092 209.14 137.042C209.14 137.992 209.35 138.832 209.76 139.572C210.17 140.312 210.73 140.912 211.43 141.352C212.13 141.792 212.92 142.012 213.78 142.012C214.3 142.012 214.81 141.922 215.3 141.752C215.79 141.582 216.26 141.332 216.7 141.012C217.14 140.692 217.55 140.292 217.94 139.802L219.99 142.302C219.31 143.182 218.37 143.902 217.17 144.462C215.97 145.022 214.71 145.292 213.39 145.292L213.4 145.322Z" fill="#07004C"/>
<path d="M231.86 145.322C230.55 145.322 229.37 144.962 228.3 144.232C227.23 143.512 226.38 142.522 225.74 141.272C225.1 140.022 224.78 138.612 224.78 137.022C224.78 135.432 225.1 134.022 225.74 132.772C226.38 131.522 227.26 130.552 228.36 129.852C229.46 129.152 230.71 128.792 232.1 128.792C232.9 128.792 233.64 128.912 234.3 129.142C234.96 129.372 235.55 129.702 236.05 130.122C236.55 130.542 236.97 131.022 237.3 131.572C237.63 132.122 237.86 132.702 237.98 133.322L237.17 133.112V129.132H240.91V145.022H237.14V141.222L238.01 141.072C237.87 141.612 237.61 142.142 237.24 142.652C236.87 143.162 236.41 143.612 235.85 144.012C235.3 144.402 234.68 144.722 234.01 144.962C233.34 145.202 232.62 145.322 231.85 145.322H231.86ZM232.88 142.032C233.74 142.032 234.51 141.822 235.17 141.402C235.83 140.982 236.35 140.392 236.72 139.642C237.09 138.892 237.28 138.022 237.28 137.032C237.28 136.042 237.09 135.212 236.72 134.472C236.35 133.732 235.83 133.142 235.17 132.722C234.51 132.302 233.74 132.092 232.88 132.092C232.02 132.092 231.26 132.302 230.6 132.722C229.95 133.142 229.44 133.732 229.08 134.472C228.72 135.212 228.54 136.072 228.54 137.032C228.54 137.992 228.72 138.882 229.08 139.642C229.44 140.392 229.95 140.982 230.6 141.402C231.25 141.822 232.01 142.032 232.88 142.032Z" fill="#07004C"/>
<path d="M248.23 145.022V129.132H251.88L251.94 134.202L251.43 133.052C251.65 132.252 252.03 131.522 252.58 130.882C253.12 130.242 253.75 129.732 254.47 129.362C255.18 128.992 255.93 128.802 256.72 128.802C257.06 128.802 257.39 128.832 257.7 128.892C258.01 128.952 258.27 129.022 258.47 129.102L257.47 133.172C257.25 133.052 256.98 132.952 256.66 132.872C256.34 132.792 256.02 132.752 255.7 132.752C255.2 132.752 254.72 132.852 254.27 133.042C253.82 133.232 253.42 133.502 253.08 133.842C252.74 134.182 252.47 134.582 252.28 135.032C252.09 135.482 251.99 135.992 251.99 136.552V145.022H248.25H248.23Z" fill="#07004C"/>
<path d="M270.73 145.322C269.06 145.322 267.59 144.972 266.31 144.262C265.03 143.562 264.04 142.602 263.32 141.382C262.61 140.162 262.25 138.772 262.25 137.202C262.25 135.952 262.45 134.822 262.85 133.792C263.25 132.762 263.81 131.882 264.52 131.122C265.23 130.372 266.09 129.782 267.08 129.372C268.07 128.962 269.17 128.752 270.35 128.752C271.4 128.752 272.37 128.952 273.27 129.352C274.17 129.752 274.96 130.302 275.62 130.992C276.28 131.682 276.79 132.512 277.14 133.462C277.49 134.422 277.66 135.462 277.64 136.582L277.61 137.882H264.73L264.04 135.352H274.5L274.02 135.862V135.202C273.96 134.582 273.76 134.032 273.42 133.562C273.08 133.092 272.64 132.722 272.11 132.442C271.58 132.172 270.99 132.032 270.35 132.032C269.36 132.032 268.54 132.222 267.86 132.602C267.19 132.982 266.68 133.532 266.34 134.242C266 134.952 265.83 135.842 265.83 136.912C265.83 137.982 266.05 138.832 266.48 139.592C266.91 140.352 267.53 140.942 268.32 141.352C269.11 141.762 270.04 141.972 271.11 141.972C271.85 141.972 272.54 141.852 273.16 141.612C273.78 141.372 274.46 140.942 275.18 140.312L277.02 142.872C276.48 143.372 275.86 143.802 275.17 144.152C274.48 144.502 273.75 144.782 272.98 144.982C272.21 145.182 271.46 145.282 270.72 145.282L270.73 145.322Z" fill="#07004C"/>
<path d="M301.37 145.322C300.22 145.322 299.23 145.062 298.38 144.552C297.54 144.042 296.89 143.302 296.45 142.352C296.01 141.402 295.79 140.252 295.79 138.932V129.132H299.5V138.152C299.5 138.992 299.63 139.712 299.89 140.312C300.15 140.902 300.53 141.362 301.04 141.682C301.54 142.002 302.15 142.162 302.85 142.162C303.37 142.162 303.85 142.072 304.28 141.902C304.71 141.732 305.09 141.492 305.41 141.182C305.73 140.872 305.98 140.502 306.16 140.062C306.34 139.632 306.43 139.162 306.43 138.662V129.132H310.14V145.022H306.52L306.46 141.702L307.12 141.342C306.88 142.102 306.47 142.782 305.9 143.382C305.33 143.972 304.65 144.452 303.86 144.802C303.08 145.152 302.24 145.332 301.36 145.332L301.37 145.322Z" fill="#07004C"/>
<path d="M322.81 145.322C321.4 145.322 320.14 145.082 319.03 144.612C317.92 144.142 317 143.462 316.3 142.572L318.71 140.492C319.31 141.172 319.99 141.672 320.73 141.972C321.47 142.272 322.26 142.422 323.08 142.422C323.42 142.422 323.73 142.382 324 142.302C324.27 142.222 324.51 142.102 324.71 141.942C324.91 141.782 325.07 141.592 325.18 141.382C325.29 141.172 325.35 140.932 325.35 140.672C325.35 140.192 325.17 139.812 324.81 139.522C324.61 139.382 324.29 139.232 323.86 139.072C323.43 138.912 322.87 138.752 322.19 138.592C321.1 138.312 320.2 137.982 319.48 137.612C318.76 137.242 318.19 136.822 317.79 136.362C317.45 135.982 317.19 135.552 317.02 135.062C316.85 134.582 316.76 134.052 316.76 133.492C316.76 132.792 316.92 132.152 317.23 131.582C317.54 131.012 317.97 130.512 318.51 130.092C319.05 129.672 319.69 129.352 320.41 129.132C321.13 128.912 321.89 128.802 322.67 128.802C323.45 128.802 324.25 128.902 325.01 129.102C325.76 129.302 326.47 129.592 327.12 129.962C327.77 130.332 328.33 130.782 328.79 131.302L326.74 133.562C326.36 133.202 325.94 132.882 325.49 132.602C325.04 132.322 324.58 132.092 324.12 131.922C323.66 131.752 323.22 131.662 322.82 131.662C322.42 131.662 322.1 131.702 321.8 131.772C321.5 131.842 321.25 131.952 321.05 132.092C320.85 132.232 320.69 132.412 320.58 132.622C320.47 132.832 320.41 133.082 320.41 133.362C320.43 133.602 320.5 133.832 320.61 134.042C320.72 134.252 320.88 134.432 321.08 134.572C321.3 134.712 321.63 134.872 322.07 135.052C322.51 135.232 323.09 135.402 323.79 135.562C324.78 135.822 325.6 136.112 326.26 136.432C326.92 136.752 327.45 137.122 327.83 137.552C328.21 137.912 328.48 138.332 328.64 138.822C328.8 139.302 328.88 139.842 328.88 140.422C328.88 141.372 328.61 142.212 328.08 142.952C327.55 143.692 326.82 144.282 325.91 144.702C325 145.122 323.97 145.332 322.82 145.332L322.81 145.322Z" fill="#07004C"/>
<path d="M341.14 145.322C339.83 145.322 338.65 144.962 337.58 144.232C336.51 143.512 335.66 142.522 335.02 141.272C334.38 140.022 334.06 138.612 334.06 137.022C334.06 135.432 334.38 134.022 335.02 132.772C335.66 131.522 336.54 130.552 337.64 129.852C338.74 129.152 339.99 128.792 341.38 128.792C342.18 128.792 342.92 128.912 343.58 129.142C344.24 129.372 344.83 129.702 345.33 130.122C345.83 130.542 346.25 131.022 346.58 131.572C346.91 132.122 347.14 132.702 347.26 133.322L346.45 133.112V129.132H350.19V145.022H346.42V141.222L347.29 141.072C347.15 141.612 346.89 142.142 346.52 142.652C346.15 143.162 345.69 143.612 345.13 144.012C344.58 144.402 343.96 144.722 343.29 144.962C342.62 145.202 341.9 145.322 341.13 145.322H341.14ZM342.17 142.032C343.03 142.032 343.8 141.822 344.46 141.402C345.12 140.982 345.64 140.392 346.01 139.642C346.38 138.892 346.57 138.022 346.57 137.032C346.57 136.042 346.38 135.212 346.01 134.472C345.64 133.732 345.12 133.142 344.46 132.722C343.8 132.302 343.03 132.092 342.17 132.092C341.31 132.092 340.55 132.302 339.89 132.722C339.24 133.142 338.73 133.732 338.37 134.472C338.01 135.212 337.83 136.072 337.83 137.032C337.83 137.992 338.01 138.882 338.37 139.642C338.73 140.392 339.24 140.982 339.89 141.402C340.54 141.822 341.3 142.032 342.17 142.032Z" fill="#07004C"/>
</svg>
