<svg width="206" height="68" viewBox="0 0 206 68" fill="none" xmlns="http://www.w3.org/2000/svg">
<path d="M17.3 0.176758C22.41 0.176758 26.43 1.72676 29.35 4.82676C32.33 1.72676 36.35 0.176758 41.41 0.176758C46.98 0.176758 51.24 1.96676 54.2 5.55676C57.16 9.14676 58.63 14.1568 58.63 20.5868V43.2568H48.3V17.9168C48.3 15.0468 47.58 12.9568 46.15 11.6268C44.71 10.3068 43.14 9.64676 41.41 9.64676C39.68 9.64676 38.02 10.3068 36.59 11.6268C35.15 12.9468 34.44 15.0468 34.44 17.9168V43.2568H24.19V17.9168C24.19 15.0468 23.47 12.9568 22.04 11.6268C20.6 10.3068 19.03 9.64676 17.3 9.64676C15.57 9.64676 13.91 10.3068 12.48 11.6268C11.04 12.9468 10.33 15.0468 10.33 17.9168V43.2568H0V20.5868C0 14.1568 1.49 9.14676 4.48 5.55676C7.46 1.96676 11.74 0.176758 17.31 0.176758H17.3Z" fill="white"/>
<path d="M148.08 0.176758C148.08 0.176758 138.25 23.3068 134.99 30.9868C134.6 31.9068 133.3 31.9068 132.91 30.9868C129.64 23.3068 119.82 0.176758 119.82 0.176758H109.1L124.82 37.1868C128.24 45.2468 139.67 45.2468 143.09 37.1868L158.81 0.176758H148.09H148.08Z" fill="#4C86FF"/>
<path d="M85.39 43.2568C79.02 43.2568 74.11 41.4668 70.67 37.8768C67.23 34.2868 65.5 29.2768 65.5 22.8468V0.176758H75.83V24.3068C75.83 27.1768 76.72 29.4768 78.5 31.1968C80.28 32.9168 82.58 33.7768 85.39 33.7768C88.2 33.7768 90.5 32.9168 92.28 31.1968C94.06 29.4768 94.95 27.1768 94.95 24.3068V0.176758H105.28V22.8468C105.28 29.2768 103.56 34.2868 100.11 37.8768C96.67 41.4668 91.76 43.2568 85.39 43.2568Z" fill="white"/>
<path d="M180.91 43.0669C180.3 43.0669 179.7 43.0469 179.1 42.9969C172.3 42.4869 167.1 39.1569 164.45 33.6169C164.26 33.2169 164.08 32.8269 163.92 32.4269C158.43 33.0569 154.31 33.0069 153.93 33.0069L154.09 23.7269L154.01 28.3669L154.08 23.7269C154.08 23.7269 157.51 23.7769 162.1 23.2969C162.15 18.1669 163.98 13.1369 167.51 8.83693C173.19 1.91693 182.14 -1.40307 189.78 0.55693C193.24 1.44693 195.83 4.29693 196.53 7.98693C198.05 15.9269 190.58 22.3669 187.29 24.7569C183.36 27.6269 178.38 29.4969 173.48 30.7269C174.79 32.5069 176.9 33.5269 179.78 33.7369C186.31 34.2269 194.32 30.3469 198.01 24.9069L205.7 30.1169C200.48 37.8169 190.3 43.0569 180.91 43.0569V43.0669ZM185.24 9.27693C181.57 9.27693 177.48 11.3269 174.68 14.7269C173.68 15.9469 172.02 18.3969 171.52 21.6669C175.84 20.5669 179.34 19.0769 181.82 17.2669C186.75 13.6669 187.43 11.0069 187.43 10.2769C187.43 9.27693 185.96 9.27693 185.24 9.27693Z" fill="#4C86FF"/>
<path d="M43.8301 66.9768V56.6768H45.5301V61.1468L45.2101 61.3168C45.3001 60.9868 45.4801 60.6768 45.7501 60.4068C46.0201 60.1368 46.3401 59.9168 46.7101 59.7468C47.0801 59.5768 47.4601 59.4968 47.8501 59.4968C48.4101 59.4968 48.8701 59.6068 49.2501 59.8268C49.6301 60.0468 49.9101 60.3868 50.1001 60.8268C50.2901 61.2768 50.3901 61.8268 50.3901 62.4968V66.9768H48.6801V62.6168C48.6801 62.2468 48.6301 61.9368 48.5301 61.6868C48.4301 61.4368 48.2701 61.2568 48.0601 61.1468C47.8501 61.0268 47.5901 60.9768 47.2801 60.9868C47.0301 60.9868 46.8001 61.0268 46.5901 61.1068C46.3801 61.1868 46.2001 61.2968 46.0501 61.4368C45.9001 61.5768 45.7801 61.7468 45.6901 61.9268C45.6001 62.1168 45.5601 62.3168 45.5601 62.5368V66.9668H43.8501L43.8301 66.9768Z" fill="white"/>
<path d="M57.14 67.1168C56.37 67.1168 55.69 66.9568 55.1 66.6268C54.51 66.3068 54.05 65.8568 53.72 65.2968C53.39 64.7368 53.23 64.0968 53.23 63.3668C53.23 62.7868 53.32 62.2668 53.51 61.7968C53.7 61.3268 53.95 60.9168 54.28 60.5668C54.61 60.2168 55 59.9468 55.46 59.7568C55.92 59.5668 56.42 59.4668 56.97 59.4668C57.45 59.4668 57.9 59.5568 58.32 59.7468C58.74 59.9368 59.1 60.1868 59.41 60.5068C59.72 60.8268 59.95 61.2068 60.11 61.6468C60.27 62.0868 60.35 62.5668 60.34 63.0868V63.6868H54.38L54.06 62.5168H58.89L58.67 62.7568V62.4468C58.64 62.1568 58.55 61.9068 58.39 61.6868C58.23 61.4668 58.03 61.2968 57.78 61.1668C57.53 61.0368 57.26 60.9768 56.97 60.9768C56.51 60.9768 56.13 61.0668 55.82 61.2368C55.51 61.4168 55.27 61.6668 55.12 61.9968C54.96 62.3268 54.88 62.7368 54.88 63.2268C54.88 63.7168 54.98 64.1168 55.18 64.4668C55.38 64.8168 55.66 65.0868 56.03 65.2768C56.4 65.4668 56.83 65.5668 57.32 65.5668C57.66 65.5668 57.98 65.5068 58.27 65.3968C58.56 65.2868 58.87 65.0868 59.2 64.7968L60.05 65.9768C59.8 66.2068 59.51 66.4068 59.19 66.5668C58.87 66.7268 58.53 66.8568 58.18 66.9468C57.83 67.0368 57.48 67.0868 57.14 67.0868V67.1168Z" fill="white"/>
<path d="M66.0302 67.1166C65.4302 67.1166 64.8802 66.9466 64.3902 66.6166C63.9002 66.2866 63.5003 65.8266 63.2103 65.2566C62.9103 64.6766 62.7603 64.0266 62.7603 63.2966C62.7603 62.5666 62.9103 61.9066 63.2103 61.3366C63.5103 60.7566 63.9102 60.3066 64.4202 59.9866C64.9302 59.6666 65.5103 59.4966 66.1503 59.4966C66.5203 59.4966 66.8602 59.5466 67.1702 59.6566C67.4802 59.7666 67.7503 59.9166 67.9803 60.1066C68.2103 60.2966 68.4003 60.5266 68.5603 60.7766C68.7203 61.0266 68.8203 61.2966 68.8703 61.5866L68.4902 61.4866V59.6466H70.2202V66.9866H68.4803V65.2366L68.8802 65.1666C68.8102 65.4166 68.7002 65.6566 68.5202 65.8966C68.3502 66.1366 68.1302 66.3466 67.8802 66.5266C67.6202 66.7066 67.3402 66.8566 67.0302 66.9666C66.7202 67.0766 66.3902 67.1366 66.0302 67.1366V67.1166ZM66.5002 65.5966C66.9002 65.5966 67.2503 65.4966 67.5603 65.3066C67.8703 65.1166 68.1102 64.8366 68.2802 64.4966C68.4502 64.1466 68.5403 63.7466 68.5403 63.2966C68.5403 62.8466 68.4502 62.4566 68.2802 62.1166C68.1102 61.7766 67.8703 61.5066 67.5603 61.3066C67.2503 61.1166 66.9002 61.0166 66.5002 61.0166C66.1002 61.0166 65.7503 61.1166 65.4503 61.3066C65.1503 61.5066 64.9102 61.7666 64.7502 62.1166C64.5802 62.4566 64.5002 62.8566 64.5002 63.2966C64.5002 63.7366 64.5802 64.1566 64.7502 64.4966C64.9202 64.8466 65.1503 65.1166 65.4503 65.3066C65.7503 65.4966 66.1002 65.5966 66.5002 65.5966Z" fill="white"/>
<path d="M73.6001 66.9768V56.6768H75.3301V66.9768H73.6001Z" fill="white"/>
<path d="M78.0503 61.2269V59.6369H82.8103V61.2269H78.0503ZM79.4903 66.9769V57.7769H81.2003V66.9769H79.4903Z" fill="white"/>
<path d="M85.5103 66.9768V56.6768H87.2103V61.1468L86.8902 61.3168C86.9802 60.9868 87.1603 60.6768 87.4303 60.4068C87.7003 60.1368 88.0202 59.9168 88.3902 59.7468C88.7602 59.5768 89.1402 59.4968 89.5302 59.4968C90.0902 59.4968 90.5503 59.6068 90.9303 59.8268C91.3103 60.0468 91.5902 60.3868 91.7802 60.8268C91.9702 61.2768 92.0703 61.8268 92.0703 62.4968V66.9768H90.3602V62.6168C90.3602 62.2468 90.3103 61.9368 90.2103 61.6868C90.1103 61.4368 89.9502 61.2568 89.7402 61.1468C89.5302 61.0268 89.2703 60.9768 88.9603 60.9868C88.7103 60.9868 88.4802 61.0268 88.2702 61.1068C88.0602 61.1868 87.8803 61.2968 87.7303 61.4368C87.5803 61.5768 87.4603 61.7468 87.3703 61.9268C87.2803 62.1168 87.2402 62.3168 87.2402 62.5368V66.9668H85.5302L85.5103 66.9768Z" fill="white"/>
<path d="M98.5302 67.1166C97.8402 67.1166 97.2302 66.9466 96.6802 66.6166C96.1302 66.2866 95.7002 65.8266 95.3802 65.2566C95.0602 64.6766 94.9102 64.0266 94.9102 63.3066C94.9102 62.5866 95.0702 61.9366 95.3802 61.3566C95.6902 60.7766 96.1302 60.3266 96.6802 59.9966C97.2302 59.6666 97.8502 59.4966 98.5302 59.4966C99.2102 59.4966 99.7902 59.6266 100.33 59.8766C100.87 60.1266 101.29 60.4766 101.58 60.9166L100.63 62.0566C100.49 61.8566 100.31 61.6866 100.1 61.5266C99.8902 61.3666 99.6602 61.2466 99.4202 61.1466C99.1802 61.0566 98.9402 61.0066 98.7002 61.0066C98.2902 61.0066 97.9302 61.1066 97.6102 61.3066C97.2902 61.5066 97.0402 61.7766 96.8502 62.1266C96.6602 62.4766 96.5702 62.8666 96.5702 63.3066C96.5702 63.7466 96.6702 64.1366 96.8602 64.4766C97.0502 64.8166 97.3102 65.0966 97.6302 65.2966C97.9502 65.4966 98.3202 65.6066 98.7202 65.6066C98.9602 65.6066 99.2002 65.5666 99.4202 65.4866C99.6502 65.4066 99.8602 65.2966 100.07 65.1466C100.27 64.9966 100.46 64.8166 100.64 64.5866L101.59 65.7466C101.27 66.1566 100.84 66.4866 100.29 66.7466C99.7402 67.0066 99.1602 67.1266 98.5402 67.1266L98.5302 67.1166Z" fill="white"/>
<path d="M107.05 67.1166C106.45 67.1166 105.9 66.9466 105.41 66.6166C104.92 66.2866 104.52 65.8266 104.23 65.2566C103.93 64.6766 103.78 64.0266 103.78 63.2966C103.78 62.5666 103.93 61.9066 104.23 61.3366C104.53 60.7566 104.93 60.3066 105.44 59.9866C105.95 59.6666 106.53 59.4966 107.17 59.4966C107.54 59.4966 107.88 59.5466 108.19 59.6566C108.5 59.7666 108.77 59.9166 109 60.1066C109.23 60.2966 109.42 60.5266 109.58 60.7766C109.74 61.0266 109.84 61.2966 109.89 61.5866L109.51 61.4866V59.6466H111.24V66.9866H109.5V65.2366L109.9 65.1666C109.83 65.4166 109.72 65.6566 109.54 65.8966C109.37 66.1366 109.15 66.3466 108.9 66.5266C108.64 66.7066 108.36 66.8566 108.05 66.9666C107.74 67.0766 107.41 67.1366 107.05 67.1366V67.1166ZM107.53 65.5966C107.93 65.5966 108.28 65.4966 108.59 65.3066C108.9 65.1166 109.14 64.8366 109.31 64.4966C109.48 64.1466 109.57 63.7466 109.57 63.2966C109.57 62.8466 109.48 62.4566 109.31 62.1166C109.14 61.7766 108.9 61.5066 108.59 61.3066C108.28 61.1166 107.93 61.0166 107.53 61.0166C107.13 61.0166 106.78 61.1166 106.48 61.3066C106.18 61.5066 105.94 61.7666 105.78 62.1166C105.61 62.4566 105.53 62.8566 105.53 63.2966C105.53 63.7366 105.61 64.1566 105.78 64.4966C105.95 64.8466 106.18 65.1166 106.48 65.3066C106.78 65.4966 107.13 65.5966 107.53 65.5966Z" fill="white"/>
<path d="M114.61 66.9768V59.6368H116.3L116.33 61.9768L116.09 61.4468C116.19 61.0768 116.37 60.7368 116.62 60.4468C116.87 60.1468 117.16 59.9168 117.49 59.7468C117.82 59.5768 118.17 59.4868 118.53 59.4868C118.69 59.4868 118.84 59.4968 118.98 59.5268C119.12 59.5568 119.24 59.5868 119.34 59.6268L118.88 61.5068C118.78 61.4468 118.65 61.4068 118.5 61.3668C118.35 61.3268 118.2 61.3068 118.05 61.3068C117.82 61.3068 117.6 61.3468 117.39 61.4368C117.18 61.5268 117 61.6468 116.84 61.8068C116.68 61.9668 116.56 62.1468 116.47 62.3568C116.38 62.5668 116.34 62.7968 116.34 63.0568V66.9668H114.61V66.9768Z" fill="white"/>
<path d="M125 67.1168C124.23 67.1168 123.55 66.9568 122.96 66.6268C122.37 66.3068 121.91 65.8568 121.58 65.2968C121.25 64.7368 121.09 64.0968 121.09 63.3668C121.09 62.7868 121.18 62.2668 121.37 61.7968C121.56 61.3268 121.81 60.9168 122.14 60.5668C122.47 60.2168 122.86 59.9468 123.32 59.7568C123.78 59.5668 124.28 59.4668 124.83 59.4668C125.31 59.4668 125.76 59.5568 126.18 59.7468C126.6 59.9368 126.96 60.1868 127.27 60.5068C127.58 60.8268 127.81 61.2068 127.97 61.6468C128.13 62.0868 128.21 62.5668 128.2 63.0868V63.6868H122.24L121.92 62.5168H126.75L126.53 62.7568V62.4468C126.5 62.1568 126.41 61.9068 126.25 61.6868C126.09 61.4668 125.89 61.2968 125.64 61.1668C125.39 61.0368 125.12 60.9768 124.83 60.9768C124.37 60.9768 123.99 61.0668 123.68 61.2368C123.37 61.4168 123.13 61.6668 122.98 61.9968C122.82 62.3268 122.74 62.7368 122.74 63.2268C122.74 63.7168 122.84 64.1168 123.04 64.4668C123.24 64.8168 123.52 65.0868 123.89 65.2768C124.26 65.4668 124.69 65.5668 125.18 65.5668C125.52 65.5668 125.84 65.5068 126.13 65.3968C126.42 65.2868 126.73 65.0868 127.06 64.7968L127.91 65.9768C127.66 66.2068 127.37 66.4068 127.05 66.5668C126.73 66.7268 126.39 66.8568 126.04 66.9468C125.69 67.0368 125.34 67.0868 125 67.0868V67.1168Z" fill="white"/>
<path d="M139.15 67.1167C138.62 67.1167 138.16 66.9967 137.77 66.7567C137.38 66.5167 137.08 66.1767 136.88 65.7367C136.68 65.2967 136.57 64.7667 136.57 64.1567V59.6267H138.28V63.7867C138.28 64.1767 138.34 64.5067 138.46 64.7867C138.58 65.0567 138.76 65.2767 138.99 65.4167C139.22 65.5667 139.5 65.6367 139.83 65.6367C140.07 65.6367 140.29 65.5967 140.49 65.5167C140.69 65.4367 140.86 65.3267 141.01 65.1867C141.16 65.0467 141.27 64.8667 141.36 64.6667C141.44 64.4667 141.49 64.2467 141.49 64.0167V59.6167H143.2V66.9567H141.53L141.5 65.4267L141.81 65.2567C141.7 65.6067 141.51 65.9267 141.25 66.1967C140.99 66.4667 140.67 66.6867 140.31 66.8467C139.95 67.0067 139.56 67.0867 139.15 67.0867V67.1167Z" fill="white"/>
<path d="M149.05 67.1166C148.4 67.1166 147.82 67.0066 147.3 66.7866C146.78 66.5666 146.36 66.2566 146.04 65.8466L147.15 64.8866C147.43 65.2066 147.74 65.4266 148.08 65.5666C148.42 65.7066 148.79 65.7766 149.17 65.7766C149.33 65.7766 149.47 65.7566 149.59 65.7166C149.72 65.6766 149.82 65.6266 149.92 65.5466C150.01 65.4766 150.08 65.3866 150.14 65.2866C150.19 65.1866 150.22 65.0766 150.22 64.9566C150.22 64.7366 150.14 64.5566 149.97 64.4266C149.88 64.3666 149.73 64.2966 149.53 64.2166C149.33 64.1466 149.07 64.0666 148.76 63.9966C148.26 63.8666 147.84 63.7166 147.51 63.5466C147.18 63.3766 146.92 63.1866 146.73 62.9666C146.57 62.7866 146.45 62.5866 146.38 62.3666C146.3 62.1466 146.26 61.9066 146.26 61.6466C146.26 61.3266 146.33 61.0266 146.48 60.7666C146.62 60.5066 146.82 60.2766 147.07 60.0766C147.32 59.8766 147.61 59.7366 147.95 59.6266C148.29 59.5166 148.63 59.4766 148.99 59.4766C149.35 59.4766 149.72 59.5266 150.07 59.6166C150.42 59.7066 150.74 59.8466 151.04 60.0166C151.34 60.1866 151.6 60.3966 151.81 60.6366L150.86 61.6766C150.68 61.5066 150.49 61.3566 150.28 61.2266C150.07 61.0966 149.86 60.9966 149.65 60.9166C149.44 60.8366 149.24 60.7966 149.05 60.7966C148.86 60.7966 148.72 60.8166 148.58 60.8466C148.44 60.8766 148.32 60.9266 148.23 60.9966C148.14 61.0666 148.07 61.1466 148.01 61.2366C147.95 61.3266 147.93 61.4466 147.93 61.5766C147.93 61.6866 147.97 61.7966 148.02 61.8866C148.07 61.9866 148.14 62.0666 148.24 62.1266C148.34 62.1966 148.5 62.2666 148.7 62.3466C148.9 62.4266 149.17 62.5066 149.49 62.5866C149.94 62.7066 150.33 62.8466 150.63 62.9866C150.94 63.1366 151.18 63.3066 151.35 63.5066C151.53 63.6766 151.65 63.8666 151.73 64.0866C151.8 64.3066 151.84 64.5566 151.84 64.8266C151.84 65.2666 151.72 65.6566 151.47 65.9966C151.22 66.3366 150.89 66.6066 150.47 66.8066C150.05 66.9966 149.57 67.0966 149.04 67.0966L149.05 67.1166Z" fill="white"/>
<path d="M157.52 67.1166C156.92 67.1166 156.37 66.9466 155.88 66.6166C155.39 66.2866 154.99 65.8266 154.7 65.2566C154.4 64.6766 154.25 64.0266 154.25 63.2966C154.25 62.5666 154.4 61.9066 154.7 61.3366C155 60.7566 155.4 60.3066 155.91 59.9866C156.42 59.6666 157 59.4966 157.64 59.4966C158.01 59.4966 158.35 59.5466 158.66 59.6566C158.97 59.7666 159.24 59.9166 159.47 60.1066C159.7 60.2966 159.89 60.5266 160.05 60.7766C160.21 61.0266 160.31 61.2966 160.36 61.5866L159.98 61.4866V59.6466H161.71V66.9866H159.97V65.2366L160.37 65.1666C160.3 65.4166 160.19 65.6566 160.01 65.8966C159.84 66.1366 159.62 66.3466 159.37 66.5266C159.11 66.7066 158.83 66.8566 158.52 66.9666C158.21 67.0766 157.88 67.1366 157.52 67.1366V67.1166ZM157.99 65.5966C158.39 65.5966 158.74 65.4966 159.05 65.3066C159.36 65.1166 159.6 64.8366 159.77 64.4966C159.94 64.1466 160.03 63.7466 160.03 63.2966C160.03 62.8466 159.94 62.4566 159.77 62.1166C159.6 61.7766 159.36 61.5066 159.05 61.3066C158.74 61.1166 158.39 61.0166 157.99 61.0166C157.59 61.0166 157.24 61.1166 156.94 61.3066C156.64 61.5066 156.4 61.7666 156.24 62.1166C156.07 62.4566 155.99 62.8566 155.99 63.2966C155.99 63.7366 156.07 64.1566 156.24 64.4966C156.41 64.8466 156.64 65.1166 156.94 65.3066C157.24 65.4966 157.59 65.5966 157.99 65.5966Z" fill="white"/>
</svg>
