<svg width="206" height="71" viewBox="0 0 206 71" fill="none" xmlns="http://www.w3.org/2000/svg">
<path d="M17.3 0.177002C22.41 0.177002 26.43 1.727 29.35 4.827C32.33 1.727 36.35 0.177002 41.41 0.177002C46.98 0.177002 51.24 1.967 54.2 5.557C57.16 9.147 58.63 14.157 58.63 20.587V43.257H48.3V17.917C48.3 15.047 47.58 12.957 46.15 11.627C44.71 10.307 43.14 9.647 41.41 9.647C39.68 9.647 38.02 10.307 36.59 11.627C35.15 12.947 34.44 15.047 34.44 17.917V43.257H24.19V17.917C24.19 15.047 23.47 12.957 22.04 11.627C20.6 10.307 19.03 9.647 17.3 9.647C15.57 9.647 13.91 10.307 12.48 11.627C11.04 12.947 10.33 15.047 10.33 17.917V43.257H0V20.587C0 14.157 1.49 9.147 4.48 5.557C7.46 1.967 11.74 0.177002 17.31 0.177002H17.3Z" fill="white"/>
<path d="M148.08 0.177002C148.08 0.177002 138.25 23.307 134.99 30.987C134.6 31.907 133.3 31.907 132.91 30.987C129.64 23.307 119.82 0.177002 119.82 0.177002H109.1L124.82 37.187C128.24 45.247 139.67 45.247 143.09 37.187L158.81 0.177002H148.09H148.08Z" fill="#00D9DA"/>
<path d="M85.39 43.247C79.02 43.247 74.11 41.457 70.67 37.867C67.23 34.277 65.5 29.267 65.5 22.837V0.166992H75.83V24.297C75.83 27.167 76.72 29.467 78.5 31.187C80.28 32.907 82.58 33.767 85.39 33.767C88.2 33.767 90.5 32.907 92.28 31.187C94.06 29.467 94.95 27.167 94.95 24.297V0.166992H105.28V22.837C105.28 29.267 103.56 34.277 100.11 37.867C96.67 41.457 91.76 43.247 85.39 43.247Z" fill="white"/>
<path d="M180.91 43.0669C180.3 43.0669 179.7 43.0469 179.1 42.9969C172.3 42.4869 167.1 39.1569 164.45 33.6169C164.26 33.2169 164.08 32.8269 163.92 32.4269C158.43 33.0569 154.31 33.0069 153.93 33.0069L154.09 23.7269L154.01 28.3669L154.08 23.7269C154.08 23.7269 157.51 23.7769 162.1 23.2969C162.15 18.1669 163.98 13.1369 167.51 8.83693C173.19 1.91693 182.14 -1.40307 189.78 0.55693C193.24 1.44693 195.83 4.29693 196.53 7.98693C198.05 15.9269 190.58 22.3669 187.29 24.7569C183.36 27.6269 178.38 29.4969 173.48 30.7269C174.79 32.5069 176.9 33.5269 179.78 33.7369C186.31 34.2269 194.32 30.3469 198.01 24.9069L205.7 30.1169C200.48 37.8169 190.3 43.0569 180.91 43.0569V43.0669ZM185.24 9.27693C181.57 9.27693 177.48 11.3269 174.68 14.7269C173.68 15.9469 172.02 18.3969 171.52 21.6669C175.84 20.5669 179.34 19.0769 181.82 17.2669C186.75 13.6669 187.43 11.0069 187.43 10.2769C187.43 9.27693 185.96 9.27693 185.24 9.27693Z" fill="#00D9DA"/>
<path d="M34.53 66.967V56.667H36.23V61.137L35.91 61.307C36 60.977 36.18 60.667 36.45 60.397C36.72 60.127 37.04 59.907 37.41 59.737C37.78 59.567 38.16 59.487 38.55 59.487C39.11 59.487 39.57 59.597 39.95 59.817C40.33 60.037 40.61 60.377 40.8 60.817C40.99 61.267 41.09 61.817 41.09 62.487V66.967H39.38V62.607C39.38 62.237 39.33 61.927 39.23 61.677C39.13 61.427 38.97 61.247 38.76 61.137C38.55 61.017 38.29 60.967 37.98 60.977C37.73 60.977 37.5 61.017 37.29 61.097C37.08 61.177 36.9 61.287 36.75 61.427C36.6 61.567 36.48 61.737 36.39 61.917C36.3 62.107 36.26 62.307 36.26 62.527V66.957H34.55L34.53 66.967Z" fill="white"/>
<path d="M47.82 67.107C47.05 67.107 46.37 66.947 45.78 66.617C45.19 66.287 44.73 65.847 44.4 65.287C44.07 64.727 43.91 64.087 43.91 63.357C43.91 62.777 44 62.257 44.19 61.787C44.38 61.317 44.63 60.907 44.96 60.557C45.29 60.207 45.68 59.937 46.14 59.747C46.6 59.557 47.1 59.457 47.65 59.457C48.13 59.457 48.58 59.547 49 59.737C49.42 59.927 49.78 60.177 50.09 60.497C50.4 60.817 50.63 61.197 50.79 61.637C50.95 62.077 51.03 62.557 51.02 63.077V63.677H45.06L44.74 62.507H49.57L49.35 62.747V62.437C49.32 62.147 49.23 61.897 49.07 61.677C48.91 61.457 48.71 61.287 48.46 61.157C48.21 61.027 47.94 60.967 47.65 60.967C47.2 60.967 46.81 61.057 46.5 61.227C46.19 61.407 45.95 61.657 45.8 61.987C45.64 62.317 45.56 62.727 45.56 63.217C45.56 63.707 45.66 64.107 45.86 64.457C46.06 64.807 46.34 65.077 46.71 65.267C47.08 65.457 47.51 65.557 48 65.557C48.34 65.557 48.66 65.497 48.95 65.387C49.24 65.277 49.55 65.077 49.88 64.787L50.73 65.967C50.48 66.197 50.19 66.397 49.87 66.557C49.55 66.717 49.21 66.847 48.86 66.937C48.51 67.027 48.16 67.077 47.82 67.077V67.107Z" fill="white"/>
<path d="M56.68 67.1071C56.08 67.1071 55.53 66.9371 55.04 66.6071C54.55 66.2771 54.15 65.8171 53.86 65.2471C53.57 64.6771 53.41 64.0171 53.41 63.2871C53.41 62.5571 53.56 61.8971 53.86 61.3271C54.16 60.7571 54.56 60.2971 55.07 59.9771C55.58 59.6571 56.16 59.4871 56.8 59.4871C57.17 59.4871 57.51 59.5371 57.82 59.6471C58.13 59.7571 58.4 59.9071 58.63 60.0971C58.86 60.2971 59.05 60.5171 59.21 60.7671C59.37 61.0171 59.47 61.2871 59.52 61.5771L59.14 61.4771V59.6371H60.87V66.9771H59.13V65.2271L59.53 65.1571C59.46 65.4071 59.35 65.6471 59.17 65.8871C59 66.1271 58.78 66.3371 58.53 66.5171C58.28 66.6971 57.99 66.8471 57.68 66.9571C57.37 67.0671 57.04 67.1271 56.68 67.1271V67.1071ZM57.15 65.5971C57.55 65.5971 57.9 65.4971 58.21 65.3071C58.52 65.1171 58.76 64.8371 58.93 64.4971C59.1 64.1471 59.19 63.7471 59.19 63.2971C59.19 62.8471 59.1 62.4571 58.93 62.1171C58.76 61.7771 58.52 61.5071 58.21 61.3071C57.9 61.1171 57.55 61.0171 57.15 61.0171C56.75 61.0171 56.4 61.1171 56.1 61.3071C55.8 61.4971 55.56 61.7671 55.4 62.1171C55.23 62.4571 55.15 62.8571 55.15 63.2971C55.15 63.7371 55.23 64.1571 55.4 64.4971C55.57 64.8471 55.8 65.1171 56.1 65.3071C56.4 65.4971 56.75 65.5971 57.15 65.5971Z" fill="white"/>
<path d="M64.22 66.967V56.667H65.95V66.967H64.22Z" fill="white"/>
<path d="M68.64 61.2171V59.6271H73.4V61.2171H68.64ZM70.09 66.9671V57.7671H71.8V66.9671H70.09Z" fill="white"/>
<path d="M76.07 66.967V56.667H77.77V61.137L77.45 61.307C77.54 60.977 77.72 60.667 77.99 60.397C78.26 60.127 78.58 59.907 78.95 59.737C79.32 59.567 79.7 59.487 80.09 59.487C80.65 59.487 81.11 59.597 81.49 59.817C81.87 60.037 82.15 60.377 82.34 60.817C82.53 61.267 82.63 61.817 82.63 62.487V66.967H80.92V62.607C80.92 62.237 80.87 61.927 80.77 61.677C80.67 61.427 80.51 61.247 80.3 61.137C80.09 61.017 79.83 60.967 79.52 60.977C79.27 60.977 79.04 61.017 78.83 61.097C78.62 61.177 78.44 61.287 78.29 61.427C78.14 61.567 78.02 61.737 77.93 61.917C77.84 62.107 77.8 62.307 77.8 62.527V66.957H76.09L76.07 66.967Z" fill="white"/>
<path d="M89.07 67.1071C88.38 67.1071 87.77 66.9371 87.22 66.6071C86.67 66.2771 86.24 65.8171 85.92 65.2471C85.6 64.6671 85.45 64.0171 85.45 63.2971C85.45 62.5771 85.61 61.9271 85.92 61.3471C86.24 60.7671 86.67 60.3171 87.22 59.9871C87.77 59.6571 88.38 59.4871 89.07 59.4871C89.76 59.4871 90.33 59.6171 90.87 59.8671C91.41 60.1171 91.83 60.4671 92.12 60.9071L91.17 62.0471C91.03 61.8571 90.85 61.6771 90.64 61.5171C90.43 61.3571 90.2 61.2371 89.96 61.1371C89.72 61.0371 89.48 60.9971 89.24 60.9971C88.83 60.9971 88.47 61.0971 88.15 61.2971C87.83 61.4971 87.58 61.7671 87.39 62.1171C87.2 62.4671 87.11 62.8571 87.11 63.2971C87.11 63.7371 87.21 64.1271 87.4 64.4671C87.59 64.8071 87.85 65.0871 88.17 65.2871C88.5 65.4871 88.86 65.5971 89.26 65.5971C89.5 65.5971 89.74 65.5571 89.96 65.4771C90.18 65.3971 90.4 65.2871 90.61 65.1371C90.82 64.9871 91 64.8071 91.18 64.5771L92.13 65.7371C91.81 66.1471 91.38 66.4771 90.83 66.7371C90.28 66.9871 89.69 67.1171 89.08 67.1171L89.07 67.1071Z" fill="white"/>
<path d="M97.56 67.1071C96.96 67.1071 96.41 66.9371 95.92 66.6071C95.43 66.2771 95.03 65.8171 94.74 65.2471C94.45 64.6771 94.29 64.0171 94.29 63.2871C94.29 62.5571 94.44 61.8971 94.74 61.3271C95.04 60.7571 95.44 60.2971 95.95 59.9771C96.46 59.6571 97.04 59.4871 97.68 59.4871C98.05 59.4871 98.39 59.5371 98.7 59.6471C99.01 59.7571 99.28 59.9071 99.51 60.0971C99.74 60.2971 99.93 60.5171 100.09 60.7671C100.25 61.0171 100.35 61.2871 100.4 61.5771L100.02 61.4771V59.6371H101.75V66.9771H100.01V65.2271L100.41 65.1571C100.34 65.4071 100.23 65.6471 100.05 65.8871C99.88 66.1271 99.66 66.3371 99.41 66.5171C99.16 66.6971 98.87 66.8471 98.56 66.9571C98.25 67.0671 97.92 67.1271 97.56 67.1271V67.1071ZM98.03 65.5971C98.43 65.5971 98.78 65.4971 99.09 65.3071C99.4 65.1171 99.64 64.8371 99.81 64.4971C99.98 64.1471 100.07 63.7471 100.07 63.2971C100.07 62.8471 99.98 62.4571 99.81 62.1171C99.64 61.7771 99.4 61.5071 99.09 61.3071C98.78 61.1171 98.43 61.0171 98.03 61.0171C97.63 61.0171 97.28 61.1171 96.98 61.3071C96.68 61.4971 96.44 61.7671 96.28 62.1171C96.11 62.4571 96.03 62.8571 96.03 63.2971C96.03 63.7371 96.11 64.1571 96.28 64.4971C96.45 64.8471 96.68 65.1171 96.98 65.3071C97.28 65.4971 97.63 65.5971 98.03 65.5971Z" fill="white"/>
<path d="M105.09 66.967V59.627H106.78L106.81 61.967L106.57 61.437C106.67 61.067 106.85 60.727 107.1 60.437C107.35 60.137 107.64 59.907 107.97 59.737C108.3 59.567 108.65 59.4771 109.01 59.4771C109.17 59.4771 109.32 59.487 109.46 59.517C109.6 59.547 109.72 59.5771 109.82 59.6171L109.36 61.497C109.26 61.437 109.13 61.397 108.98 61.357C108.83 61.317 108.68 61.2971 108.53 61.2971C108.3 61.2971 108.08 61.337 107.87 61.427C107.66 61.517 107.48 61.6371 107.32 61.7971C107.16 61.9571 107.04 62.137 106.95 62.347C106.86 62.557 106.82 62.7871 106.82 63.0471V66.957H105.09V66.967Z" fill="white"/>
<path d="M115.45 67.107C114.68 67.107 114 66.947 113.41 66.617C112.82 66.287 112.36 65.847 112.03 65.287C111.7 64.727 111.54 64.087 111.54 63.357C111.54 62.777 111.63 62.257 111.82 61.787C112.01 61.317 112.26 60.907 112.59 60.557C112.92 60.207 113.31 59.937 113.77 59.747C114.23 59.557 114.73 59.457 115.28 59.457C115.76 59.457 116.21 59.547 116.63 59.737C117.05 59.927 117.41 60.177 117.72 60.497C118.03 60.817 118.26 61.197 118.42 61.637C118.58 62.077 118.66 62.557 118.65 63.077V63.677H112.69L112.37 62.507H117.2L116.98 62.747V62.437C116.95 62.147 116.86 61.897 116.7 61.677C116.54 61.457 116.34 61.287 116.09 61.157C115.84 61.027 115.57 60.967 115.28 60.967C114.82 60.967 114.44 61.057 114.13 61.227C113.82 61.407 113.58 61.657 113.43 61.987C113.27 62.317 113.19 62.727 113.19 63.217C113.19 63.707 113.29 64.107 113.49 64.457C113.69 64.807 113.97 65.077 114.34 65.267C114.71 65.457 115.14 65.557 115.63 65.557C115.97 65.557 116.29 65.497 116.58 65.387C116.87 65.277 117.18 65.077 117.51 64.787L118.36 65.967C118.11 66.197 117.82 66.397 117.5 66.557C117.18 66.717 116.84 66.847 116.49 66.937C116.14 67.027 115.79 67.077 115.45 67.077V67.107Z" fill="white"/>
<path d="M130.3 70.177C129.75 70.177 129.21 70.097 128.66 69.927C128.11 69.757 127.68 69.537 127.34 69.277L127.95 68.007C128.14 68.147 128.36 68.267 128.61 68.3671C128.85 68.4671 129.11 68.547 129.38 68.607C129.65 68.667 129.93 68.687 130.19 68.687C130.68 68.687 131.09 68.607 131.42 68.457C131.75 68.307 132 68.067 132.17 67.757C132.34 67.447 132.42 67.057 132.42 66.597V65.247L132.67 65.347C132.61 65.637 132.46 65.907 132.21 66.167C131.96 66.427 131.64 66.6371 131.26 66.7971C130.88 66.9571 130.49 67.037 130.09 67.037C129.39 67.037 128.78 66.8771 128.25 66.5471C127.72 66.2171 127.29 65.777 126.98 65.217C126.67 64.657 126.51 64.007 126.51 63.277C126.51 62.547 126.66 61.887 126.97 61.317C127.28 60.747 127.7 60.297 128.23 59.967C128.76 59.637 129.37 59.4771 130.03 59.4771C130.31 59.4771 130.58 59.507 130.84 59.577C131.1 59.647 131.34 59.737 131.56 59.857C131.78 59.977 131.98 60.107 132.15 60.257C132.33 60.407 132.47 60.5671 132.58 60.7271C132.69 60.8971 132.76 61.057 132.79 61.217L132.43 61.327L132.46 59.627H134.15V66.467C134.15 67.057 134.06 67.587 133.88 68.037C133.7 68.487 133.45 68.877 133.11 69.197C132.78 69.517 132.37 69.757 131.9 69.917C131.43 70.077 130.89 70.1571 130.29 70.1571L130.3 70.177ZM130.37 65.577C130.79 65.577 131.16 65.477 131.48 65.287C131.8 65.097 132.05 64.8271 132.22 64.4771C132.4 64.1371 132.49 63.7371 132.49 63.2971C132.49 62.8571 132.4 62.437 132.22 62.097C132.04 61.747 131.79 61.477 131.48 61.287C131.16 61.097 130.8 60.997 130.38 60.997C129.96 60.997 129.6 61.0971 129.28 61.2971C128.96 61.4971 128.72 61.7671 128.54 62.1171C128.36 62.4671 128.27 62.867 128.27 63.307C128.27 63.747 128.36 64.137 128.54 64.487C128.72 64.837 128.97 65.1071 129.28 65.2971C129.6 65.4871 129.96 65.587 130.38 65.587L130.37 65.577Z" fill="white"/>
<path d="M137.5 66.967V59.627H139.19L139.22 61.967L138.98 61.437C139.08 61.067 139.26 60.727 139.51 60.437C139.76 60.147 140.05 59.907 140.38 59.737C140.71 59.567 141.06 59.4771 141.42 59.4771C141.58 59.4771 141.73 59.487 141.87 59.517C142.01 59.547 142.13 59.5771 142.22 59.6171L141.76 61.497C141.66 61.437 141.53 61.397 141.38 61.357C141.23 61.317 141.08 61.2971 140.93 61.2971C140.7 61.2971 140.48 61.337 140.27 61.427C140.06 61.517 139.88 61.6371 139.72 61.7971C139.56 61.9571 139.44 62.137 139.35 62.347C139.26 62.557 139.22 62.7871 139.22 63.0471V66.957H137.49L137.5 66.967Z" fill="white"/>
<path d="M147.77 67.1071C147.04 67.1071 146.38 66.9471 145.81 66.6171C145.23 66.2871 144.78 65.8371 144.45 65.2571C144.12 64.6771 143.95 64.0271 143.95 63.2971C143.95 62.5671 144.12 61.9071 144.45 61.3371C144.78 60.7571 145.24 60.3071 145.81 59.9771C146.39 59.6471 147.04 59.4871 147.77 59.4871C148.5 59.4871 149.14 59.6471 149.72 59.9771C150.3 60.3071 150.75 60.7571 151.08 61.3371C151.41 61.9171 151.57 62.5671 151.57 63.2971C151.57 64.0271 151.4 64.6871 151.08 65.2571C150.75 65.8371 150.3 66.2871 149.72 66.6171C149.14 66.9471 148.49 67.1071 147.77 67.1071ZM147.77 65.5971C148.17 65.5971 148.52 65.4971 148.84 65.2871C149.15 65.0871 149.4 64.8071 149.58 64.4671C149.76 64.1271 149.85 63.7371 149.84 63.2971C149.84 62.8471 149.76 62.4571 149.58 62.1171C149.4 61.7771 149.15 61.5071 148.84 61.3071C148.53 61.1071 148.17 61.0071 147.77 61.0071C147.37 61.0071 147.01 61.1071 146.69 61.3071C146.37 61.5071 146.12 61.7771 145.95 62.1271C145.77 62.4771 145.68 62.8671 145.68 63.3071C145.68 63.7471 145.77 64.1371 145.95 64.4771C146.13 64.8171 146.37 65.0971 146.69 65.2971C147.01 65.4971 147.37 65.6071 147.77 65.6071V65.5971Z" fill="white"/>
<path d="M157.02 67.1069C156.49 67.1069 156.03 66.9869 155.64 66.7469C155.25 66.5069 154.95 66.1669 154.75 65.7269C154.54 65.2869 154.44 64.7569 154.44 64.1469V59.6169H156.15V63.7769C156.15 64.1669 156.21 64.4969 156.33 64.7769C156.45 65.0469 156.63 65.2669 156.86 65.4069C157.09 65.5569 157.37 65.6269 157.7 65.6269C157.94 65.6269 158.16 65.5869 158.36 65.5069C158.56 65.4269 158.73 65.3169 158.88 65.1769C159.03 65.0369 159.15 64.8569 159.23 64.6569C159.31 64.4569 159.36 64.2369 159.36 64.0069V59.6069H161.07V66.9469H159.4L159.37 65.4169L159.68 65.2469C159.57 65.5969 159.38 65.9169 159.12 66.1869C158.86 66.4569 158.54 66.6769 158.18 66.8369C157.82 66.9969 157.43 67.0769 157.02 67.0769V67.1069Z" fill="white"/>
<path d="M164.44 70.0371V59.6371H166.13L166.16 61.3071L165.87 61.1771C165.93 60.8871 166.08 60.6171 166.34 60.3671C166.6 60.1171 166.92 59.9071 167.29 59.7471C167.67 59.5871 168.06 59.5071 168.47 59.5071C169.12 59.5071 169.7 59.6671 170.2 59.9971C170.71 60.3271 171.11 60.7671 171.4 61.3371C171.69 61.9071 171.84 62.5571 171.84 63.2971C171.84 64.0371 171.69 64.6871 171.4 65.2571C171.11 65.8271 170.71 66.2771 170.2 66.6071C169.69 66.9371 169.13 67.0971 168.49 67.0971C168.06 67.0971 167.65 67.0171 167.26 66.8471C166.87 66.6771 166.53 66.4571 166.26 66.1971C165.99 65.9271 165.82 65.6471 165.75 65.3471L166.17 65.1571V70.0471H164.44V70.0371ZM168.15 65.5771C168.54 65.5771 168.89 65.4771 169.19 65.2871C169.5 65.0971 169.74 64.8271 169.91 64.4771C170.08 64.1271 170.17 63.7371 170.17 63.2971C170.17 62.8571 170.09 62.4571 169.92 62.1171C169.75 61.7771 169.52 61.5071 169.21 61.3171C168.9 61.1271 168.55 61.0271 168.15 61.0271C167.75 61.0271 167.39 61.1271 167.08 61.3171C166.78 61.5071 166.54 61.7771 166.36 62.1171C166.18 62.4571 166.09 62.8571 166.09 63.2971C166.09 63.7371 166.18 64.1371 166.36 64.4771C166.54 64.8171 166.77 65.0871 167.08 65.2871C167.38 65.4771 167.74 65.5771 168.15 65.5771Z" fill="white"/>
</svg>
