<svg width="1362" height="427" viewBox="0 0 1362 427" fill="none" xmlns="http://www.w3.org/2000/svg">
<path d="M-89 83.16C-89 83.16 -39.69 10.55 79.09 8.29998C197.88 6.05998 226.73 66.47 231.53 118.12C240.37 213.3 162.28 234.66 186.8 324.31C211.32 413.96 368.21 465.51 442.17 344.48C516.13 223.45 632.68 114.29 767.15 169.66C843.35 201.04 863.91 277.73 885.94 342.24C927.27 463.27 1140.22 443.1 1162.67 259.31C1183.21 91.2 1322.98 109.15 1361.08 111.39" stroke="#918CF2" stroke-width="16" stroke-miterlimit="10"/>
<path d="M141.57 29.1799C149.628 29.1799 156.16 22.6478 156.16 14.59C156.16 6.53213 149.628 0 141.57 0C133.512 0 126.98 6.53213 126.98 14.59C126.98 22.6478 133.512 29.1799 141.57 29.1799Z" fill="#4056E3"/>
<path d="M223.38 199.1C231.438 199.1 237.97 192.568 237.97 184.51C237.97 176.452 231.438 169.92 223.38 169.92C215.322 169.92 208.79 176.452 208.79 184.51C208.79 192.568 215.322 199.1 223.38 199.1Z" fill="#4056E3"/>
<path d="M231.23 396.09C239.288 396.09 245.82 389.558 245.82 381.5C245.82 373.442 239.288 366.91 231.23 366.91C223.172 366.91 216.64 373.442 216.64 381.5C216.64 389.558 223.172 396.09 231.23 396.09Z" fill="#4056E3"/>
<path d="M427.61 381.5C435.668 381.5 442.2 374.968 442.2 366.91C442.2 358.852 435.668 352.32 427.61 352.32C419.552 352.32 413.02 358.852 413.02 366.91C413.02 374.968 419.552 381.5 427.61 381.5Z" fill="#4056E3"/>
<path d="M562.01 219.4C570.068 219.4 576.6 212.868 576.6 204.81C576.6 196.752 570.068 190.22 562.01 190.22C553.952 190.22 547.42 196.752 547.42 204.81C547.42 212.868 553.952 219.4 562.01 219.4Z" fill="#4056E3"/>
<path d="M739.94 173.91C747.998 173.91 754.53 167.378 754.53 159.32C754.53 151.262 747.998 144.73 739.94 144.73C731.882 144.73 725.35 151.262 725.35 159.32C725.35 167.378 731.882 173.91 739.94 173.91Z" fill="#4056E3"/>
</svg>
