<svg width="492" height="704" viewBox="0 0 492 704" fill="none" xmlns="http://www.w3.org/2000/svg">
<path d="M309.86 470.17C307.08 477.72 299.81 483.08 291.24 483.87C285.22 484.43 269.87 483.36 257.36 461.47C256.11 459.29 255.13 457.19 254.36 455.17C246.87 457.96 241.42 461.46 240.23 462.99C240.23 462.99 240.38 462.8 240.54 462.44L225.93 455.92C228.93 449.2 240.48 442.75 252.42 438.94C252.87 436.08 253.72 433.6 254.67 431.55C264.39 410.53 297.77 403.72 301.55 403.01L304.51 418.73C297.7 420.02 278.4 425.65 271.01 435.31C284.03 434.49 294.84 437.88 302.61 445.29C310.1 452.44 312.87 461.62 310 469.84C309.96 469.95 309.92 470.07 309.88 470.18L309.86 470.17ZM270.15 451.42C270.48 452.11 270.85 452.81 271.26 453.52C279.38 467.72 287.49 468.14 289.78 467.93C292.25 467.7 294.26 466.38 294.88 464.56C295.63 462.4 294.42 459.59 291.55 456.85C287.01 452.51 280.18 450.65 271.26 451.33C270.89 451.36 270.52 451.39 270.16 451.42H270.15Z" fill="#A7A3F5"/>
<path d="M91.89 372.11C91.01 372.98 70 393.49 41.22 393.34C23.71 393.25 7.37999 385.65 -7.32001 370.76L4.06999 359.52C19.94 375.59 37.39 380.83 55.94 375.09C70.5 370.58 80.55 360.84 80.65 360.75L91.9 372.13L91.89 372.11Z" fill="#A7A3F5"/>
<path d="M136.76 422.72L125.72 434.3C116.68 425.68 107.54 421.51 98.56 421.92C85.18 422.52 75.77 433.08 75.68 433.19L63.56 422.74C64.11 422.1 77.31 406.96 97.62 405.94C111.2 405.26 124.37 410.9 136.76 422.72Z" fill="#A7A3F5"/>
<path d="M237.92 414.15L222.26 410.88C222.29 410.73 225.32 395.41 220.56 378.82C217.83 369.31 213.13 361.3 206.51 354.84C202.06 361.03 196.27 366.52 189.23 371.11C167.69 385.14 139 387.9 123.91 377.38C112.98 369.76 105.57 351.87 111.96 337.36C114.51 331.57 120.36 323.95 133.68 320.59C144.62 317.83 159 318.42 176.42 322.35C185.65 324.43 193.53 327.36 200.25 330.87C201.57 325.05 201.76 318.32 200.25 310.56C196.84 293.08 187.46 281.75 177.61 274.46C173.66 279.29 168.98 283.54 163.61 287.1C149.17 296.66 131.68 299.36 120.08 293.81C107.07 287.59 103.54 278.93 102.86 272.76C101.91 264.11 106.29 254.84 114.29 248.58C122.7 241.99 145.75 242.68 165.69 250.11C167.93 250.94 170.1 251.85 172.21 252.82C175.07 246.12 176.85 237.77 176.39 227.46L192.37 226.75C192.92 239.16 190.72 250.74 186.09 260.84C201.79 272.06 212.16 288.09 215.95 307.51C218.22 319.14 217.54 330.2 214.12 340.16C226.73 350.87 233.03 363.92 236.13 375.07C241.77 395.34 238.09 413.4 237.93 414.16L237.92 414.15ZM126.34 344.44C123.86 351.17 127.85 360.63 133.05 364.26C141.58 370.2 163.68 368.67 180.49 357.71C185.06 354.74 189.81 350.74 193.62 345.47C187.61 342.23 180.69 339.72 172.9 337.96C148 332.34 130.69 334.53 126.6 343.82C126.51 344.02 126.43 344.23 126.35 344.44H126.34ZM119.26 267.51C118.81 268.72 118.63 269.91 118.75 271.02C119.17 274.89 123.45 277.7 126.97 279.38C132.54 282.04 143.88 280.97 154.77 273.76C157.33 272.06 160.4 269.67 163.4 266.42C145.54 258.83 127.77 259.29 124.02 261.27C121.74 263.09 120.07 265.32 119.26 267.51Z" fill="#A7A3F5"/>
<path d="M362.66 674.21C360.5 680.05 356.06 685.4 350.04 689.11C340.95 694.71 318.11 691.43 299.14 681.8C297.01 680.72 294.95 679.58 292.96 678.37C289.37 684.71 286.66 692.8 285.95 703.1L269.99 702.01C270.84 689.62 274.33 678.36 280.07 668.85C265.73 655.93 257.24 638.84 255.65 619.11C254.7 607.28 256.64 596.34 261.17 586.82C253.9 579.1 248.63 570.02 245.51 559.75C237.98 534.9 245.5 511.64 245.82 510.66L261.01 515.69L253.42 513.17L261.02 515.66C260.96 515.85 254.8 535.23 260.83 555.1C262.86 561.81 266.05 567.81 270.37 573.1C275.49 567.45 281.85 562.66 289.36 558.89C312.34 547.37 341.16 547.87 354.97 560.02C363.96 567.93 369.19 583.76 364.37 596.81C363.82 598.29 363.15 599.73 362.34 601.12C359.15 606.59 352.49 613.49 338.87 615.34C327.69 616.85 313.47 614.65 296.6 608.78C288.11 605.83 280.52 602.07 273.9 597.58C271.92 603.23 270.97 609.91 271.6 617.8C273.02 635.55 281.06 647.87 290.03 656.22C294.49 651.86 299.63 648.17 305.36 645.24C320.79 637.37 338.47 636.66 349.37 643.47C361.59 651.11 364.13 660.12 364.11 666.33C364.11 668.98 363.6 671.62 362.65 674.17L362.66 674.21ZM341.78 675.4C345.62 672.99 348.1 669.44 348.11 666.31C348.12 662.42 344.19 659.14 340.89 657.07C335.65 653.8 324.27 653.59 312.63 659.52C309.89 660.92 306.58 662.95 303.23 665.84C320.12 675.39 337.83 676.94 341.78 675.39V675.4ZM282.11 583.89C287.72 587.8 294.31 591.07 301.85 593.69C325.96 602.08 343.4 601.85 348.52 593.08C352.24 586.71 349.31 576.36 344.4 572.05C336.6 565.18 314.46 564.22 296.52 573.21C291.65 575.65 286.48 579.09 282.11 583.88V583.89Z" fill="#A7A3F5"/>
<path d="M487.94 334.6C485.78 340.44 481.34 345.79 475.32 349.5C466.23 355.1 443.39 351.82 424.42 342.19C422.29 341.11 420.23 339.97 418.25 338.76C414.66 345.1 411.95 353.19 411.24 363.49L395.28 362.4C396.13 350.01 399.62 338.75 405.36 329.24C391.02 316.32 382.53 299.23 380.95 279.5C380 267.69 381.93 256.77 386.44 247.26C375.11 235.2 370.33 221.53 368.51 210.09C365.19 189.31 370.88 171.79 371.12 171.05L386.31 176.08L378.72 173.56L386.32 176.05C386.27 176.2 381.53 191.08 384.4 208.09C386.04 217.85 389.81 226.33 395.66 233.49C400.78 227.84 407.15 223.04 414.66 219.27C437.64 207.75 466.46 208.25 480.27 220.4C489.26 228.31 494.49 244.14 489.67 257.19C489.12 258.67 488.45 260.11 487.64 261.5C484.45 266.97 477.79 273.87 464.17 275.72C452.99 277.23 438.77 275.03 421.9 269.16C412.97 266.05 405.47 262.25 399.18 258.01C397.21 263.65 396.27 270.31 396.9 278.19C398.32 295.94 406.36 308.26 415.33 316.61C419.79 312.25 424.93 308.56 430.66 305.63C446.09 297.76 463.77 297.05 474.67 303.86C486.89 311.5 489.43 320.51 489.41 326.72C489.41 329.37 488.9 332.01 487.95 334.56L487.94 334.6ZM467.07 335.79C470.91 333.38 473.39 329.83 473.4 326.7C473.41 322.81 469.48 319.53 466.18 317.46C460.94 314.19 449.56 313.98 437.92 319.91C435.18 321.31 431.87 323.34 428.52 326.23C445.41 335.78 463.12 337.33 467.07 335.78V335.79ZM407.39 244.28C413 248.18 419.59 251.45 427.14 254.08C451.25 262.47 468.69 262.24 473.81 253.47C477.53 247.1 474.6 236.75 469.69 232.44C461.89 225.57 439.75 224.61 421.81 233.6C416.94 236.04 411.77 239.48 407.39 244.28Z" fill="#A7A3F5"/>
<path d="M32.29 552.33C30.13 558.17 25.69 563.52 19.67 567.23C10.58 572.83 -12.26 569.55 -31.23 559.92C-33.36 558.84 -35.42 557.7 -37.4 556.5C-40.99 562.84 -43.7 570.93 -44.41 581.23L-60.37 580.14C-59.52 567.75 -56.03 556.49 -50.29 546.98C-64.63 534.06 -73.12 516.97 -74.7 497.24C-75.65 485.41 -73.71 474.48 -69.18 464.95C-76.45 457.23 -81.72 448.15 -84.84 437.88C-92.37 413.03 -84.85 389.77 -84.53 388.79L-69.34 393.82L-76.93 391.3L-69.33 393.79C-69.39 393.98 -75.55 413.36 -69.52 433.23C-67.49 439.94 -64.3 445.94 -59.98 451.23C-54.86 445.58 -48.5 440.79 -40.99 437.02C-18.01 425.5 10.81 426 24.62 438.15C33.61 446.06 38.84 461.89 34.02 474.94C33.47 476.42 32.8 477.86 31.99 479.25C28.8 484.72 22.14 491.62 8.52001 493.47C-2.65999 494.98 -16.88 492.78 -33.75 486.91C-42.24 483.96 -49.83 480.2 -56.45 475.71C-58.43 481.36 -59.38 488.04 -58.75 495.93C-57.33 513.68 -49.29 526 -40.32 534.35C-35.86 529.99 -30.72 526.3 -24.99 523.37C-9.55999 515.5 8.12001 514.79 19.02 521.6C31.24 529.24 33.78 538.25 33.76 544.46C33.76 547.11 33.25 549.75 32.3 552.3L32.29 552.33ZM11.41 553.52C15.25 551.11 17.73 547.56 17.74 544.43C17.75 540.54 13.82 537.26 10.52 535.19C5.28001 531.92 -6.09999 531.71 -17.74 537.64C-20.48 539.04 -23.79 541.07 -27.14 543.96C-10.25 553.51 7.46001 555.06 11.41 553.51V553.52ZM-48.26 462.01C-42.65 465.92 -36.06 469.19 -28.52 471.81C-4.40999 480.2 13.03 479.97 18.15 471.2C21.87 464.83 18.94 454.48 14.03 450.17C6.23 443.3 -15.91 442.34 -33.85 451.33C-38.72 453.77 -43.89 457.21 -48.26 462V462.01Z" fill="#A7A3F5"/>
<path d="M140.01 181.01C140.87 187.18 139.48 193.99 135.93 200.11C130.56 209.34 108.89 217.25 87.62 217.73C85.23 217.78 82.88 217.75 80.56 217.63C80.39 224.92 81.83 233.33 86.07 242.74L71.49 249.32C66.38 238 64.13 226.43 64.7 215.33C45.96 210.73 30.39 199.68 19.67 183.04C13.25 173.08 9.79 162.55 9.27 152.04C-6.41 146.76 -17.09 136.98 -24.1 127.77C-36.85 111.03 -40.12 92.9 -40.25 92.13L-24.49 89.38L-32.37 90.75L-24.49 89.35C-24.46 89.5 -21.6 104.86 -11.03 118.5C-4.97 126.32 2.36 132.02 10.9 135.57C12.74 128.17 16.08 120.93 20.92 114.06C35.73 93.05 61.36 79.86 79.28 84.04C90.94 86.76 103.03 98.24 104.96 112.02C105.18 113.58 105.27 115.17 105.21 116.78C104.98 123.11 102.38 132.34 91.25 140.4C82.11 147.02 68.53 151.8 50.9 154.6C41.56 156.08 33.15 156.28 25.61 155.51C26.54 161.41 28.86 167.73 33.14 174.37C42.78 189.34 55.69 196.4 67.54 199.52C69.41 193.57 72.19 187.89 75.86 182.6C85.73 168.37 100.98 159.39 113.81 160.24C128.19 161.2 134.69 167.93 137.61 173.42C138.85 175.76 139.66 178.33 140.04 181.02L140.01 181.01ZM122.18 191.92C124.42 187.98 124.93 183.68 123.46 180.92C121.63 177.48 116.62 176.45 112.73 176.19C106.57 175.78 96.44 180.98 88.99 191.71C87.24 194.23 85.28 197.6 83.69 201.73C103.09 202.16 119.43 195.15 122.18 191.92ZM26.33 139.49C33.12 140.28 40.47 140.04 48.36 138.79C73.57 134.78 88.84 126.34 89.2 116.2C89.46 108.83 81.99 101.1 75.63 99.61C65.51 97.25 45.55 106.86 33.99 123.26C30.85 127.71 27.92 133.19 26.33 139.49Z" fill="#A7A3F5"/>
<path d="M223.09 606.97C222.68 608.08 222.2 609.17 221.64 610.25C217.41 618.45 209.15 625.38 197.11 630.85C188.67 634.69 181.31 636.41 181 636.48L177.39 620.89L179.19 628.68L177.37 620.89C183.95 619.35 202.17 613.1 207.43 602.88C209.29 599.26 209.29 595.46 207.43 590.92C204.76 584.41 201.41 580.54 197.2 579.09C187.5 575.74 172 584.52 160.68 590.94L152.79 577.02C167.54 568.66 185.89 558.26 202.42 563.97C211.1 566.97 217.77 573.99 222.22 584.85C225.35 592.47 225.63 600.04 223.07 606.97H223.09Z" fill="#A7A3F5"/>
<path d="M345.13 276.14C344.72 277.25 344.24 278.34 343.68 279.42C339.45 287.62 331.19 294.55 319.15 300.02C310.71 303.86 303.35 305.58 303.04 305.65L299.43 290.06L301.23 297.85L299.41 290.06C305.99 288.52 324.21 282.27 329.47 272.05C331.33 268.43 331.34 264.63 329.47 260.09C326.8 253.58 323.45 249.71 319.24 248.26C309.54 244.91 294.04 253.69 282.72 260.11L274.83 246.19C289.58 237.83 307.93 227.43 324.46 233.14C333.14 236.14 339.81 243.16 344.26 254.02C347.39 261.64 347.67 269.21 345.11 276.14H345.13Z" fill="#A7A3F5"/>
<path d="M80.64 317.14C79.14 321.21 77.13 325.15 74.62 328.86C65.3 342.64 51.04 349.67 36.48 347.67C21.32 345.58 9.91004 339.34 2.56004 329.11C-9.28996 312.61 -5.53996 292 -5.36996 291.13L10.35 294.12L2.49004 292.62L10.36 294.08C10.33 294.23 7.77004 309.02 15.63 319.86C20.32 326.33 28.07 330.35 38.67 331.81C50.76 333.47 58.58 324.03 61.38 319.89C67.7 310.55 70.96 295.65 64 283.42C56.17 269.67 37.13 262.98 10.38 264.57L9.43004 248.6C28.63 247.46 63.06 249.43 77.91 275.5C84.96 287.88 85.79 303.22 80.66 317.13L80.64 317.14Z" fill="#A7A3F5"/>
<path d="M412.18 439.45C410.68 443.52 408.67 447.46 406.16 451.17C396.84 464.95 382.58 471.98 368.02 469.98C352.86 467.89 341.45 461.65 334.1 451.42C322.25 434.92 326 414.31 326.17 413.44L341.89 416.43L334.03 414.93L341.9 416.39C341.87 416.54 339.31 431.33 347.17 442.17C351.86 448.64 359.61 452.66 370.21 454.12C382.3 455.78 390.12 446.34 392.92 442.2C399.24 432.86 402.5 417.96 395.54 405.73C387.71 391.98 368.67 385.29 341.92 386.88L340.97 370.91C360.17 369.77 394.6 371.74 409.45 397.81C416.5 410.19 417.33 425.53 412.2 439.44L412.18 439.45Z" fill="#A7A3F5"/>
<path d="M190.03 52.39C188.53 56.46 186.52 60.4 184.01 64.11C174.69 77.89 160.43 84.92 145.87 82.92C130.71 80.83 119.3 74.59 111.95 64.36C100.1 47.86 103.85 27.25 104.02 26.38L119.74 29.37L111.88 27.87L119.75 29.33C119.72 29.48 117.16 44.27 125.02 55.11C129.71 61.58 137.46 65.6 148.06 67.06C160.15 68.72 167.97 59.28 170.77 55.14C177.09 45.8 180.35 30.9 173.39 18.67C165.56 4.92 146.52 -1.76999 119.77 -0.179989L118.82 -16.15C138.02 -17.29 172.45 -15.32 187.3 10.75C194.35 23.13 195.18 38.47 190.05 52.38L190.03 52.39Z" fill="#A7A3F5"/>
<path d="M221 532.84L212.72 546.53C194.51 535.52 182.62 519.4 180.08 502.31C178.42 491.13 179.92 473.95 196.47 455.56C196.95 455.03 197.45 454.48 197.97 453.92C200.02 451.68 204.75 446.52 205.02 444.34C204.51 443.72 201.41 440.72 187.57 438.39C181.6 437.39 163.45 434.33 160 421.05C158.97 417.08 158.98 410.74 164.86 403.07C167.74 399.32 170.86 396.79 171.2 396.51L181.2 409C177.95 411.65 175.17 415.84 175.48 417.02C175.48 417.05 177.15 420.41 190.22 422.61C213.32 426.5 218.4 433.92 220.2 439.17C223.74 449.47 215.33 458.65 209.77 464.72C209.29 465.25 208.82 465.76 208.37 466.26C198.42 477.31 194.23 488.65 195.91 499.96C197.74 512.32 206.89 524.3 221 532.84Z" fill="#A7A3F5"/>
<path d="M159.43 520.85C157.06 527.28 153.57 532.92 149.11 537.35C144.83 541.61 139.28 544.97 132.82 546.42C131.95 555.21 130.27 563.14 128.33 569.94C121.45 594.12 110.12 609.44 109.64 610.09L96.83 600.5L103.24 605.29L96.82 600.51C96.92 600.37 107.1 586.49 113.11 564.98C114.89 558.62 116.13 552.29 116.84 546C110.32 544.28 103.33 540.59 96.1 534.29C85.65 525.19 78.24 514.1 74.66 502.23C71.53 491.85 71.44 481.25 74.4 472.4C77.83 462.15 84.93 455.67 93.41 455.06C99.1 454.65 110.04 456.75 119.41 475.38C129.05 494.55 132.83 512.94 133.38 529.32C134.94 528.49 136.42 527.38 137.82 526C144.03 519.83 147.47 509.13 147.03 497.38C146.5 483.47 140.65 469.35 130.55 457.61L142.68 447.17C155.14 461.64 162.36 479.26 163.02 496.78C163.35 505.43 162.08 513.64 159.43 520.85ZM89.79 476.89C89.72 477.08 89.65 477.28 89.58 477.48C86.7 486.09 87.05 505.21 106.61 522.24C110.34 525.49 113.98 527.86 117.47 529.35C116.87 513.38 112.75 497.74 105.12 482.58C100.39 473.18 96.15 470.91 94.56 471.03C93.19 471.13 91.16 473.17 89.78 476.89H89.79Z" fill="#A7A3F5"/>
<path d="M281.3 190.48C278.93 196.91 275.44 202.55 270.98 206.98C266.7 211.24 261.15 214.6 254.69 216.05C253.82 224.84 252.14 232.77 250.2 239.57C243.32 263.75 231.99 279.07 231.51 279.72L218.7 270.13L225.11 274.92L218.69 270.14C218.79 270 228.97 256.12 234.98 234.61C236.76 228.25 238 221.92 238.71 215.63C232.19 213.91 225.2 210.22 217.97 203.92C207.52 194.82 200.11 183.73 196.53 171.86C193.4 161.48 193.31 150.88 196.27 142.03C199.7 131.78 206.8 125.3 215.28 124.69C220.97 124.28 231.91 126.38 241.28 145.01C250.92 164.18 254.7 182.57 255.25 198.95C256.81 198.12 258.29 197.01 259.69 195.63C265.9 189.46 269.34 178.76 268.9 167.01C268.37 153.1 262.52 138.98 252.42 127.24L264.55 116.8C277.01 131.27 284.23 148.89 284.89 166.41C285.22 175.06 283.95 183.27 281.3 190.48ZM211.66 146.52C211.59 146.71 211.52 146.91 211.45 147.11C208.57 155.72 208.92 174.84 228.48 191.87C232.21 195.12 235.85 197.49 239.34 198.98C238.74 183.01 234.62 167.37 226.99 152.21C222.26 142.81 218.02 140.54 216.43 140.66C215.06 140.76 213.03 142.8 211.65 146.52H211.66Z" fill="#A7A3F5"/>
<path d="M280.82 390.56L266.09 396.81C265.88 396.31 260.86 384.35 261.18 369.46C261.49 355.17 266.78 335.47 290.21 322.74L297.85 336.8C266.02 354.1 280.2 389.08 280.82 390.56Z" fill="#A7A3F5"/>
<path d="M166.24 136.54L150.4 134.28C150.48 133.74 152.36 120.91 160.33 108.33C167.98 96.26 182.69 82.13 209.33 83.34L208.6 99.32C172.41 97.67 166.47 134.95 166.24 136.54Z" fill="#A7A3F5"/>
<path d="M250.3 321.11C258.358 321.11 264.89 314.578 264.89 306.52C264.89 298.462 258.358 291.93 250.3 291.93C242.242 291.93 235.71 298.462 235.71 306.52C235.71 314.578 242.242 321.11 250.3 321.11Z" fill="#A7A3F5"/>
<path d="M306.23 384.6C314.288 384.6 320.82 378.068 320.82 370.01C320.82 361.952 314.288 355.42 306.23 355.42C298.172 355.42 291.64 361.952 291.64 370.01C291.64 378.068 298.172 384.6 306.23 384.6Z" fill="#A7A3F5"/>
<path d="M38.45 314.13C46.5079 314.13 53.04 307.598 53.04 299.54C53.04 291.482 46.5079 284.95 38.45 284.95C30.3922 284.95 23.86 291.482 23.86 299.54C23.86 307.598 30.3922 314.13 38.45 314.13Z" fill="#A7A3F5"/>
<path d="M61.23 545.87C69.2878 545.87 75.82 539.338 75.82 531.28C75.82 523.222 69.2878 516.69 61.23 516.69C53.1722 516.69 46.64 523.222 46.64 531.28C46.64 539.338 53.1722 545.87 61.23 545.87Z" fill="#A7A3F5"/>
<path d="M174.15 199C182.208 199 188.74 192.468 188.74 184.41C188.74 176.352 182.208 169.82 174.15 169.82C166.092 169.82 159.56 176.352 159.56 184.41C159.56 192.468 166.092 199 174.15 199Z" fill="#A7A3F5"/>
<path d="M46.64 63.7701C54.6978 63.7701 61.23 57.2379 61.23 49.1801C61.23 41.1222 54.6978 34.5901 46.64 34.5901C38.5822 34.5901 32.05 41.1222 32.05 49.1801C32.05 57.2379 38.5822 63.7701 46.64 63.7701Z" fill="#A7A3F5"/>
<path d="M304.93 542.24C312.988 542.24 319.52 535.708 319.52 527.65C319.52 519.592 312.988 513.06 304.93 513.06C296.872 513.06 290.34 519.592 290.34 527.65C290.34 535.708 296.872 542.24 304.93 542.24Z" fill="#A7A3F5"/>
<path d="M350.9 345.06L336.04 350.98C330.79 337.91 327.93 307.41 354.66 285.59L364.78 297.98C340.63 317.7 350.47 343.95 350.9 345.06Z" fill="#A7A3F5"/>
</svg>
