<svg width="913" height="2000" viewBox="0 0 913 2000" fill="none" xmlns="http://www.w3.org/2000/svg">
<path d="M7.85733 1.50403C16.4673 46.484 25.4673 91.1642 42.2573 133.634C70.4573 206.204 120.797 269.674 183.937 315.044C330.917 420.654 518.897 424.534 693.187 468.154C766.737 486.144 845.857 511.154 881.567 581.694C902.437 621.914 910.827 670.864 897.897 714.044C870.347 805.284 762.417 812.324 682.457 816.374C555.557 824.314 382.047 819.324 302.557 936.284C274.547 978.064 268.347 1033.01 295.317 1076.77C322.867 1121.91 373.177 1145.21 423.577 1159.62C529.807 1188.17 640.537 1191.99 747.977 1213.81C787.797 1222.41 827.417 1235.03 857.037 1261.05C896.377 1294.36 904.497 1349.56 879.227 1394.52C857.967 1433.95 818.097 1461.54 775.947 1478C718.857 1500.39 656.677 1506.99 596.627 1518.05C523.707 1531.28 450.617 1550.02 385.657 1586.4C340.077 1612.03 297.757 1650.36 281.557 1700.71C260.097 1764.32 286.757 1833.04 341.617 1870.37C378.407 1896.67 423.237 1909.84 463.627 1930.32C497.747 1947.06 528.017 1969.8 557.487 1993.75" stroke="#918CF2" stroke-width="16" stroke-miterlimit="10"/>
<path d="M617.717 464.024C625.775 464.024 632.307 457.492 632.307 449.434C632.307 441.376 625.775 434.844 617.717 434.844C609.659 434.844 603.127 441.376 603.127 449.434C603.127 457.492 609.659 464.024 617.717 464.024Z" fill="#00D9DA"/>
</svg>
