<?xml version="1.0" encoding="UTF-8"?>
<svg id="Layer_1" data-name="Layer 1" xmlns="http://www.w3.org/2000/svg" viewBox="0 0 283.46 283.46">
  <defs>
    <style>
      .cls-1 {
        fill: #00d9da;
      }
    </style>
  </defs>
  <path class="cls-1" d="M104.31,74.42c15.93,0,28.46,4.83,37.59,14.5,9.31-9.67,21.84-14.5,37.59-14.5,17.36,0,30.65,5.6,39.87,16.78,9.22,11.19,13.83,26.81,13.83,46.85v70.68h-32.22v-79.01c0-8.95-2.24-15.48-6.71-19.6-4.48-4.12-9.4-6.18-14.77-6.18s-10.57,2.06-15.04,6.18c-4.48,4.12-6.71,10.65-6.71,19.6v79.01h-31.95v-79.01c0-8.95-2.24-15.48-6.71-19.6-4.48-4.12-9.4-6.18-14.77-6.18s-10.57,2.06-15.04,6.18c-4.48,4.12-6.71,10.65-6.71,19.6v79.01h-32.22v-70.68c0-20.05,4.65-35.66,13.96-46.85,9.31-11.18,22.64-16.78,40.01-16.78Z"/>
</svg>