<svg width="220" height="79" viewBox="0 0 220 79" fill="none" xmlns="http://www.w3.org/2000/svg">
<path d="M18.48 0.176514C23.94 0.176514 28.23 1.83661 31.36 5.14661C34.55 1.83661 38.84 0.176514 44.24 0.176514C50.19 0.176514 54.75 2.09651 57.91 5.92651C61.07 9.75651 62.65 15.1166 62.65 21.9866V46.2166H51.61V19.1366C51.61 16.0666 50.8401 13.8265 49.3101 12.4165C47.7801 11.0065 46.09 10.2965 44.25 10.2965C42.41 10.2965 40.63 11.0065 39.1 12.4165C37.57 13.8265 36.8 16.0666 36.8 19.1366V46.2166H25.85V19.1366C25.85 16.0666 25.08 13.8265 23.55 12.4165C22.02 11.0065 20.33 10.2965 18.49 10.2965C16.65 10.2965 14.8701 11.0065 13.3401 12.4165C11.8101 13.8265 11.04 16.0666 11.04 19.1366V46.2166H0V21.9866C0 15.1166 1.60004 9.76651 4.79004 5.92651C7.98004 2.09651 12.55 0.176514 18.5 0.176514H18.48Z" fill="#FFFEFF"/>
<path d="M158.25 0.176514C158.25 0.176514 147.75 24.8966 144.26 33.1066C143.84 34.0866 142.45 34.0866 142.03 33.1066C138.54 24.8966 128.04 0.176514 128.04 0.176514H116.58L133.38 39.7266C137.04 48.3366 149.25 48.3366 152.91 39.7266L169.71 0.176514H158.25Z" fill="#FFFEFF"/>
<path d="M91.25 46.2166C84.44 46.2166 79.2 44.2966 75.51 40.4666C71.83 36.6366 69.99 31.2766 69.99 24.4066V0.176514H81.03V25.9666C81.03 29.0366 81.98 31.4865 83.88 33.3265C85.78 35.1665 88.24 36.0865 91.24 36.0865C94.24 36.0865 96.7 35.1665 98.6 33.3265C100.5 31.4865 101.45 29.0366 101.45 25.9666V0.176514H112.49V24.4066C112.49 31.2766 110.65 36.6366 106.97 40.4666C103.29 44.3066 98.04 46.2166 91.23 46.2166H91.25Z" fill="#FFFEFF"/>
<path d="M193.34 46.0167C192.69 46.0167 192.05 45.9966 191.4 45.9466C184.14 45.4066 178.58 41.8466 175.74 35.9266C175.54 35.5066 175.35 35.0767 175.17 34.6567C169.3 35.3367 164.9 35.2767 164.5 35.2767L164.67 25.3566C164.67 25.3566 168.34 25.4067 173.24 24.8967C173.3 19.4167 175.25 14.0366 179.02 9.44658C185.09 2.05658 194.66 -1.50339 202.82 0.596609C206.52 1.54661 209.28 4.58656 210.04 8.54656C211.67 17.0366 203.68 23.9066 200.17 26.4766C195.97 29.5466 190.65 31.5466 185.41 32.8566C186.81 34.7666 189.07 35.8466 192.15 36.0766C199.13 36.5966 207.69 32.4567 211.63 26.6467L219.84 32.2166C214.27 40.4466 203.38 46.0466 193.34 46.0466V46.0167ZM197.97 9.89666C194.04 9.89666 189.68 12.0866 186.69 15.7266C185.62 17.0366 183.84 19.6466 183.31 23.1366C187.92 21.9666 191.66 20.3766 194.32 18.4366C199.58 14.5966 200.31 11.7466 200.31 10.9666C200.31 9.8966 198.74 9.89666 197.97 9.89666Z" fill="#FFFEFF"/>
<path d="M108.14 59.3266C108.48 59.2266 108.67 59.1966 109.06 59.1866C110.06 59.1666 110.61 59.7166 111.2 60.3466C111.43 60.9366 111.44 61.5565 111.53 62.1665C111.47 62.8065 111.14 63.5066 111.04 63.8366C110.82 64.6966 109.82 67.2866 109.16 67.3066C108.92 67.3066 108.33 66.9967 108.09 66.9067L108.04 66.8366C108.19 66.3766 108.52 65.9666 108.7 65.5866C108.98 64.9866 109.61 62.8266 109.6 62.1466C109.6 61.7466 109.34 61.1965 108.7 61.0465L108.49 61.1266C107.02 62.5166 106.23 64.1266 105.71 65.5666C105.41 66.4066 105.18 66.8366 105.02 67.5566C104.85 68.3166 104.77 69.3166 104.43 70.4666C104.09 71.5966 103.9 72.8766 103.93 74.2066V74.7767C104.2 75.4567 104.42 75.8166 105.31 75.6966C107.4 74.7166 109.06 71.1366 110.02 69.2666L110.23 69.1665C110.6 69.3265 110.93 69.5765 111.25 69.7865C111.33 69.9065 111.42 70.0666 111.42 70.1866C111.43 70.8066 109.27 74.5166 108.87 75.1466C108.51 75.6566 107.51 76.7966 106.96 77.1866C106.65 77.4066 106.15 77.6366 105.68 77.8866C104.02 77.9066 103.99 77.9466 102.62 77.0766C102.05 76.4466 101.81 75.2366 101.79 74.3866C101.79 74.0766 101.73 73.9366 101.72 73.7965C101.72 73.5865 101.72 73.3966 101.7 72.9866C101.68 72.1566 102.08 71.1266 102.46 69.4766C103.03 66.8966 104.7 61.2965 107.88 59.4165L108.12 59.3366L108.14 59.3266Z" fill="#FFFEFF"/>
<path d="M105.03 78.2167C103.91 78.2167 103.67 78.1167 102.46 77.3467L102.39 77.2866C101.75 76.5766 101.5 75.2767 101.48 74.3767C101.48 74.2167 101.46 74.1067 101.44 74.0167C101.42 73.9267 101.41 73.8567 101.41 73.7767L101.39 72.9667C101.38 72.3667 101.56 71.6767 101.79 70.8167C101.9 70.3967 102.03 69.9167 102.16 69.3767C102.58 67.4967 104.22 61.1867 107.74 59.1067L108.05 58.9967C108.42 58.8867 108.63 58.8567 109.06 58.8467C110.21 58.8167 110.85 59.4767 111.45 60.1067L111.52 60.2167C111.7 60.6867 111.75 61.1567 111.81 61.6167C111.83 61.7767 111.85 61.9467 111.87 62.1067V62.1467V62.1867C111.82 62.6867 111.63 63.2067 111.49 63.5867C111.44 63.7167 111.4 63.8366 111.37 63.9166C111.37 63.9366 110.31 67.5967 109.18 67.6167C108.95 67.6167 108.66 67.4966 108.26 67.3067C108.15 67.2566 108.06 67.2167 107.99 67.1867L107.9 67.1567L107.68 66.8767L107.73 66.7067C107.83 66.3967 108 66.1167 108.15 65.8567C108.24 65.7067 108.33 65.5566 108.4 65.4166C108.69 64.7866 109.28 62.7167 109.27 62.1167C109.27 61.8967 109.14 61.5067 108.72 61.3567L108.68 61.3767C107.17 62.8167 106.45 64.4967 106.04 65.6367C105.94 65.9267 105.84 66.1667 105.76 66.3867C105.6 66.8067 105.47 67.1367 105.36 67.5867C105.3 67.8367 105.26 68.1266 105.21 68.4266C105.11 69.0466 104.99 69.7367 104.76 70.5167C104.42 71.6367 104.25 72.8967 104.28 74.1567V74.6766C104.5 75.2266 104.62 75.4067 105.24 75.3367C107.03 74.4567 108.57 71.4067 109.49 69.5867L109.8 68.9767L110.24 68.7667L110.38 68.8267C110.69 68.9567 110.95 69.1367 111.2 69.3067L111.54 69.5567C111.61 69.6467 111.76 69.8967 111.77 70.1367C111.79 70.9767 109.19 75.2367 109.16 75.2767C108.76 75.8367 107.74 76.9967 107.17 77.4067C106.93 77.5767 106.61 77.7366 106.26 77.9166C106.12 77.9866 105.99 78.0567 105.85 78.1267L105.7 78.1666H105.46C105.3 78.1666 105.16 78.1666 105.03 78.1666V78.2167ZM102.85 76.8167C104.03 77.5667 104.07 77.5666 105.45 77.5466H105.61C105.73 77.4866 105.84 77.4267 105.96 77.3667C106.28 77.2067 106.58 77.0567 106.78 76.9067C107.27 76.5567 108.25 75.4467 108.61 74.9467C109.16 74.1067 111.09 70.6867 111.1 70.1867C111.1 70.1667 111.07 70.0967 111.02 70.0167C110.95 69.9767 110.89 69.9267 110.82 69.8767C110.64 69.7567 110.45 69.6267 110.26 69.5267L110.07 69.9067C109.04 71.9467 107.48 75.0367 105.46 75.9867L105.36 76.0167C104.21 76.1667 103.9 75.5967 103.64 74.8867L103.62 74.7767V74.2067C103.58 72.8767 103.75 71.5467 104.12 70.3567C104.34 69.6267 104.45 68.9467 104.55 68.3567C104.6 68.0367 104.65 67.7367 104.71 67.4767C104.83 66.9767 104.97 66.6066 105.14 66.1766C105.22 65.9566 105.32 65.7267 105.42 65.4467C105.86 64.2267 106.64 62.4267 108.28 60.8767L108.39 60.8066L108.69 60.6967L108.79 60.7167C109.57 60.8967 109.93 61.5567 109.94 62.1267C109.96 62.9167 109.28 65.1367 109.01 65.7167C108.94 65.8767 108.83 66.0467 108.73 66.2267C108.64 66.3767 108.54 66.5367 108.47 66.6967C108.49 66.7067 108.52 66.7167 108.54 66.7267C108.71 66.8067 109.07 66.9667 109.17 66.9767C109.53 66.8767 110.44 64.9167 110.73 63.7567C110.76 63.6467 110.81 63.5167 110.87 63.3667C110.99 63.0367 111.16 62.5766 111.21 62.1666C111.19 62.0066 111.17 61.8567 111.15 61.6967C111.1 61.2767 111.06 60.8867 110.92 60.5167C110.39 59.9567 109.93 59.4867 109.07 59.5067C108.7 59.5067 108.55 59.5367 108.24 59.6267L108.01 59.7067C104.79 61.6167 103.21 67.7067 102.81 69.5267C102.68 70.0867 102.55 70.5667 102.43 70.9967C102.2 71.8367 102.04 72.4567 102.05 72.9567L102.07 73.7667C102.07 73.7667 102.07 73.8567 102.09 73.9067C102.11 74.0167 102.13 74.1567 102.14 74.3667C102.16 75.1967 102.39 76.2667 102.85 76.8167Z" fill="#FFFEFF"/>
<path d="M124.67 67.8368C124.34 68.4668 124.23 69.1568 124.11 69.8268C123.83 71.4268 122.45 75.5268 121.26 76.7868C120.72 77.3668 119.65 78.0368 118.73 78.0568C118.1 78.0668 117.49 77.9669 116.85 77.9069C114.98 76.9769 114.36 74.0368 114.37 72.3068C114.44 69.4568 114.78 67.2368 116.07 64.5668C116.3 64.0868 116.55 63.6568 116.91 63.2168C117.58 62.4668 118.01 61.6469 118.41 60.7769C119.27 60.0869 120.17 59.4068 121.14 58.8168C121.69 58.8068 122.81 58.9969 123.26 59.2669C123.61 59.4469 123.85 59.7568 124.2 59.9368C125.14 61.7268 125.11 63.7668 125.07 65.7168C125.15 65.8368 125.28 65.8768 125.44 65.8768C125.6 65.8768 125.75 65.7968 125.88 65.7268L126.02 65.8869C125.9 66.4169 125.59 66.8468 125.42 67.3468L124.66 67.8368H124.67ZM118.41 76.0468C120.73 75.9968 121.97 69.9268 122.28 68.3468L122.09 68.1569C120.52 67.8569 119.29 66.9868 118.21 66.0368L118.08 66.0169L117.87 66.1168C117.1 67.1068 116.56 70.1669 116.54 71.4069C116.51 72.5469 116.41 76.0968 118.42 76.0468H118.41ZM121.78 66.3368C122.6 66.3168 122.66 65.5368 122.67 65.0068C122.68 63.1768 122.45 62.4468 121.83 60.7268C121.7 60.7068 121.54 60.6668 121.41 60.6668C120.46 60.6868 119.8 62.9368 119.79 63.5768C119.79 64.3368 120.06 65.0968 120.48 65.7468C120.8 65.9268 121.36 66.3468 121.79 66.3368H121.78Z" fill="#FFFEFF"/>
<path d="M118.6 78.3867C118.17 78.3867 117.76 78.3367 117.35 78.2967C117.17 78.2767 116.99 78.2567 116.81 78.2367L116.69 78.2067C114.56 77.1467 114.02 73.8867 114.03 72.3067C114.09 69.5167 114.41 67.2367 115.76 64.4267C116.02 63.8667 116.3 63.4267 116.64 63.0067C117.26 62.3067 117.67 61.5568 118.1 60.6468L118.19 60.5268C118.92 59.9468 119.88 59.1967 120.95 58.5367L121.03 58.4867H121.12C121.7 58.4767 122.88 58.6567 123.42 58.9867C123.61 59.0867 123.77 59.2167 123.93 59.3467C124.07 59.4567 124.2 59.5668 124.35 59.6468L124.44 59.6967L124.49 59.7867C125.44 61.5967 125.44 63.6867 125.4 65.5467C125.4 65.5467 125.42 65.5467 125.43 65.5467C125.52 65.5467 125.64 65.4867 125.72 65.4367L125.96 65.2967L126.38 65.7967L126.34 65.9567C126.26 66.2967 126.12 66.5967 125.98 66.8767C125.89 67.0667 125.8 67.2567 125.73 67.4567L125.69 67.5667L124.91 68.0767C124.64 68.6167 124.53 69.2367 124.43 69.8367C124.16 71.3967 122.77 75.6468 121.48 77.0268C120.86 77.6968 119.71 78.3768 118.71 78.4068C118.67 78.4068 118.62 78.4068 118.58 78.4068L118.6 78.3867ZM116.93 77.5867C117.1 77.6067 117.26 77.6167 117.42 77.6367C117.86 77.6867 118.27 77.7367 118.7 77.7267C119.51 77.7067 120.49 77.1167 121 76.5567C122.12 75.3667 123.48 71.3868 123.77 69.7668C123.9 69.0368 124.02 68.3367 124.36 67.6867L124.4 67.6067L125.14 67.1267C125.21 66.9367 125.3 66.7667 125.38 66.5867C125.45 66.4467 125.51 66.3167 125.56 66.1867C125.51 66.1867 125.46 66.1967 125.41 66.1967C125.07 66.1967 124.88 66.0368 124.79 65.8968L124.73 65.8067V65.6967C124.77 63.8067 124.8 61.8568 123.94 60.1568C123.78 60.0568 123.64 59.9467 123.51 59.8367C123.37 59.7267 123.24 59.6167 123.1 59.5367C122.73 59.3167 121.78 59.1367 121.22 59.1267C120.24 59.7367 119.35 60.4267 118.66 60.9667C118.22 61.8967 117.79 62.6767 117.14 63.4167C116.84 63.7867 116.59 64.1767 116.35 64.6867C115.05 67.3867 114.75 69.6067 114.68 72.2967C114.67 73.9367 115.26 76.6867 116.92 77.5667L116.93 77.5867ZM118.37 76.3767C117.9 76.3767 117.49 76.2067 117.16 75.8767C116.12 74.8367 116.18 72.4467 116.2 71.4267C116.22 70.2667 116.73 67.0467 117.6 65.9167L117.72 65.8167L118.02 65.6767L118.35 65.7267L118.42 65.7867C119.32 66.5767 120.56 67.5367 122.14 67.8367L122.24 67.8567L122.63 68.2367L122.6 68.4068C121.9 72.0068 120.6 76.3167 118.42 76.3667C118.42 76.3667 118.39 76.3667 118.37 76.3667V76.3767ZM118.08 66.3767C117.4 67.3467 116.89 70.1868 116.86 71.4068C116.84 72.2968 116.78 74.5668 117.62 75.4068C117.83 75.6168 118.09 75.7167 118.39 75.7067C119.69 75.6767 121 72.9667 121.9 68.4567C120.27 68.1167 119.01 67.1767 118.07 66.3667L118.08 66.3767ZM121.77 66.6667C121.34 66.6667 120.86 66.3768 120.51 66.1568C120.44 66.1068 120.37 66.0667 120.31 66.0367L120.19 65.9267C119.7 65.1467 119.45 64.3367 119.45 63.5767C119.46 62.9367 120.12 60.3667 121.4 60.3367C121.53 60.3367 121.66 60.3567 121.77 60.3867L122.07 60.4367L122.14 60.6167C122.76 62.3267 123.01 63.0968 123 65.0168C122.99 65.4268 122.95 66.6467 121.78 66.6767H121.76L121.77 66.6667ZM120.71 65.5067C120.71 65.5067 120.81 65.5667 120.86 65.5967C121.13 65.7667 121.54 66.0067 121.78 66.0067C122.19 66.0067 122.33 65.7467 122.35 64.9967C122.35 63.2867 122.16 62.5867 121.6 61.0067C121.54 60.9967 121.47 60.9867 121.43 60.9867C120.81 60.9967 120.14 62.9167 120.13 63.5767C120.13 64.1867 120.33 64.8467 120.72 65.4967L120.71 65.5067Z" fill="#FFFEFF"/>
<path d="M142.49 58.1567C142.73 58.1567 143.02 58.1867 143.18 58.4067C143.12 59.4267 142.86 60.3867 142.64 61.3667C142.54 61.7767 142.64 62.1967 142.56 62.6567C142.36 64.2267 142.02 65.8067 141.74 67.3567C141.53 68.6967 141.38 70.0767 141.04 71.3667C140.63 73.1067 140.41 74.9267 139.92 76.6467C139.55 76.7967 139.03 76.9567 138.63 76.9667C138.45 76.9667 138.29 76.9267 138.1 76.8567C138.02 76.7667 137.72 76.6067 137.72 76.5067C137.69 76.2467 138.9 70.3667 139.06 69.4867C139.18 68.8367 139.62 67.1866 139.55 66.6666C139.55 66.5466 139.49 66.4267 139.44 66.3167L139.33 66.2966C138.49 66.6766 138.16 68.3166 137.68 69.0466C136.78 70.3466 136.56 71.8967 135.77 73.2467C135.39 73.8767 135.25 74.5467 134.68 75.0267C134.28 74.9867 133.52 75.0266 133.19 74.7966C133.02 74.3466 133.03 73.6867 132.97 73.2067C132.81 71.8367 132.62 70.4567 132.48 69.0767C132.38 68.3667 132.37 67.6067 132.19 66.8967L132.08 66.7567L131.84 66.7367C131.7 67.4567 130.58 73.8067 130.58 73.8967L130.07 76.9767L129.71 77.2966C129.19 77.4766 128.61 77.6267 128.05 77.6467C127.97 77.5767 127.81 77.5067 127.81 77.3867C127.74 76.7667 128.25 73.4966 128.42 72.7866C128.52 72.3566 128.59 71.9567 128.66 71.5267C128.8 70.5267 129.12 69.5867 129.3 68.5867C129.56 67.2767 129.69 65.9367 129.95 64.6267L130.33 62.6666C130.52 61.8266 130.73 59.3967 131.01 58.7767C131.13 58.4667 132.11 58.4167 132.45 58.4067C132.61 58.4067 132.79 58.4067 132.93 58.4867C133.07 58.7967 133.24 59.1166 133.38 59.4266L133.26 59.9967C133.57 60.6067 133.55 61.3267 133.62 61.9667C133.65 62.2467 133.71 62.6566 133.67 62.9366C134.18 64.4466 134.38 66.0567 134.54 67.6267C134.58 67.9867 134.68 70.0466 135.07 70.0366H135.2C135.86 69.0466 136.15 67.8767 136.79 66.8567C137.4 65.9167 137.91 64.9267 138.28 63.8767C138.75 62.6267 139.49 61.5167 140.07 60.3367C140.4 59.6367 140.51 58.8766 141.08 58.2966C141.53 58.3066 141.98 58.1567 142.48 58.1467L142.49 58.1567Z" fill="#FFFEFF"/>
<path d="M127.94 77.9867L127.84 77.9067C127.69 77.7967 127.49 77.6667 127.48 77.4067C127.41 76.7467 127.94 73.3967 128.1 72.7167C128.19 72.2967 128.26 71.8967 128.33 71.4767C128.41 70.8867 128.55 70.3167 128.69 69.7567C128.79 69.3567 128.89 68.9467 128.97 68.5267C129.1 67.8767 129.2 67.2166 129.29 66.5566C129.39 65.8866 129.49 65.2166 129.62 64.5566L130 62.5967C130.07 62.2767 130.15 61.7067 130.23 61.1167C130.37 60.1067 130.51 59.0567 130.7 58.6367C130.79 58.4167 131.07 58.1067 132.44 58.0767C132.63 58.0767 132.89 58.0767 133.11 58.2167L133.18 58.2667L133.22 58.3467C133.29 58.4967 133.36 58.6466 133.43 58.7966C133.51 58.9666 133.59 59.1266 133.66 59.2866L133.7 59.3867L133.58 59.9567C133.81 60.4667 133.85 61.0366 133.89 61.5366C133.9 61.6666 133.91 61.8066 133.92 61.9366V62.0566C133.97 62.3166 134.01 62.6366 133.98 62.9166C134.48 64.4166 134.67 65.9867 134.85 67.6067L134.87 67.8267C134.95 68.8267 135.03 69.3267 135.1 69.5667C135.33 69.1567 135.52 68.7267 135.72 68.2767C135.95 67.7567 136.18 67.2067 136.5 66.7067C137.13 65.7267 137.61 64.7766 137.96 63.7866C138.27 62.9666 138.69 62.2067 139.1 61.4767C139.33 61.0567 139.56 60.6367 139.77 60.2167C139.87 60.0167 139.94 59.7967 140.02 59.5767C140.21 59.0667 140.4 58.5367 140.84 58.0867L140.94 57.9867H141.08C141.29 57.9867 141.5 57.9566 141.73 57.9266C141.96 57.8866 142.2 57.8467 142.46 57.8467C143.01 57.8467 143.29 58.0467 143.42 58.2167L143.49 58.3167V58.4366C143.44 59.2766 143.25 60.0767 143.07 60.8567L142.93 61.4567C142.89 61.6467 142.89 61.8466 142.89 62.0566C142.89 62.2666 142.89 62.4867 142.86 62.7167C142.71 63.8767 142.49 65.0466 142.27 66.1766C142.19 66.5966 142.11 67.0066 142.04 67.4266C141.99 67.7266 141.95 68.0367 141.9 68.3467C141.75 69.3767 141.6 70.4567 141.33 71.4667C141.16 72.1767 141.03 72.9067 140.89 73.6367C140.7 74.6667 140.5 75.7367 140.21 76.7567L140.17 76.9067L140.02 76.9667C139.64 77.1267 139.07 77.2966 138.61 77.3066C138.37 77.3066 138.18 77.2566 137.96 77.1766L137.82 77.0867C137.82 77.0867 137.76 77.0367 137.72 77.0067C137.55 76.8767 137.37 76.7467 137.36 76.5267C137.34 76.3867 137.48 75.5967 138.37 71.1267C138.53 70.3267 138.66 69.6866 138.71 69.4366C138.74 69.2566 138.8 68.9967 138.87 68.7067C139.01 68.0767 139.22 67.1467 139.21 66.7767C138.9 67.0867 138.66 67.6667 138.44 68.1967C138.28 68.5867 138.12 68.9567 137.94 69.2367C137.47 69.9167 137.2 70.6567 136.91 71.4467C136.67 72.1067 136.41 72.7866 136.04 73.4266C135.92 73.6266 135.82 73.8366 135.73 74.0366C135.52 74.4766 135.31 74.9266 134.88 75.2966L134.77 75.3867H134.63C134.54 75.3667 134.42 75.3567 134.3 75.3567C133.83 75.3367 133.31 75.3167 132.98 75.0867L132.9 75.0267L132.86 74.9366C132.73 74.5866 132.69 74.1367 132.66 73.7467C132.65 73.5767 132.64 73.4167 132.62 73.2767C132.56 72.7967 132.5 72.3167 132.44 71.8467C132.33 70.9467 132.21 70.0467 132.12 69.1467C132.09 68.9167 132.06 68.6666 132.04 68.4166C132.02 68.1966 132 67.9767 131.97 67.7567C131.62 69.6767 130.9 73.7567 130.88 73.9767L130.35 77.1967L129.79 77.6567C129.35 77.8067 128.69 78.0067 128.04 78.0167H127.91L127.94 77.9867ZM128.14 77.3066C128.14 77.3066 128.16 77.3167 128.16 77.3267C128.66 77.2967 129.18 77.1467 129.55 77.0267L129.77 76.8267L130.26 73.8667C130.26 73.7467 131.51 66.7567 131.52 66.6967L131.58 66.4067L132.26 66.4567L132.52 66.8367C132.64 67.3267 132.69 67.8367 132.74 68.3367C132.76 68.5767 132.79 68.8166 132.82 69.0566C132.91 69.9666 133.02 70.8567 133.14 71.7567C133.2 72.2367 133.26 72.7066 133.32 73.1866C133.34 73.3366 133.35 73.5067 133.37 73.6967C133.39 73.9967 133.42 74.3367 133.49 74.5867C133.7 74.6667 134.11 74.6867 134.37 74.6967C134.45 74.6967 134.52 74.6967 134.59 74.6967C134.85 74.4367 135.01 74.1067 135.18 73.7467C135.28 73.5267 135.39 73.3067 135.52 73.0867C135.86 72.4967 136.09 71.8767 136.34 71.2167C136.63 70.4267 136.93 69.6067 137.44 68.8667C137.59 68.6467 137.73 68.3067 137.88 67.9467C138.2 67.1767 138.56 66.3067 139.23 66.0067L139.33 65.9667L139.7 66.0366L139.77 66.1866C139.84 66.3266 139.91 66.4866 139.91 66.6766C139.96 67.0466 139.79 67.8467 139.56 68.8567C139.5 69.1367 139.44 69.3867 139.41 69.5667C139.36 69.8167 139.23 70.4667 139.07 71.2667C138.75 72.8867 138.16 75.8066 138.08 76.4266C138.11 76.4466 138.14 76.4667 138.16 76.4867C138.21 76.5267 138.25 76.5567 138.3 76.5867C138.43 76.6267 138.54 76.6667 138.65 76.6467C138.96 76.6467 139.36 76.5266 139.67 76.4166C139.93 75.4666 140.12 74.4767 140.3 73.5167C140.44 72.7767 140.58 72.0367 140.75 71.3167C141.01 70.3267 141.16 69.2767 141.31 68.2667C141.36 67.9567 141.4 67.6467 141.45 67.3367C141.53 66.9067 141.61 66.4967 141.69 66.0767C141.9 64.9467 142.12 63.7867 142.27 62.6467C142.3 62.4467 142.3 62.2667 142.3 62.0867C142.3 61.8367 142.3 61.5867 142.36 61.3267L142.5 60.7267C142.67 59.9967 142.83 59.3067 142.88 58.5867C142.78 58.5367 142.63 58.5267 142.53 58.5267C142.31 58.5267 142.1 58.5667 141.89 58.5967C141.69 58.6267 141.48 58.6666 141.27 58.6766C140.99 59.0066 140.84 59.4067 140.69 59.8367C140.61 60.0667 140.52 60.3066 140.41 60.5366C140.19 60.9766 139.96 61.4067 139.72 61.8367C139.33 62.5467 138.92 63.2866 138.63 64.0466C138.27 65.0766 137.77 66.0767 137.11 67.0967C136.82 67.5567 136.61 68.0467 136.38 68.5767C136.13 69.1467 135.88 69.7367 135.52 70.2767L135.42 70.4166H135.12C134.58 70.4366 134.4 69.6266 134.27 67.9166L134.25 67.7167C134.08 66.1167 133.88 64.5567 133.39 63.1067L133.36 63.0267V62.9467C133.41 62.7467 133.36 62.4366 133.34 62.1866V62.0667C133.31 61.9267 133.3 61.7867 133.29 61.6467C133.25 61.1467 133.21 60.6367 133 60.2067L132.95 60.1067L133.07 59.5267C133.01 59.4067 132.95 59.2767 132.89 59.1467C132.83 59.0267 132.78 58.9166 132.72 58.7966C132.66 58.7866 132.57 58.7966 132.5 58.7966C131.78 58.8166 131.4 58.9267 131.33 58.9867C131.2 59.3067 131.05 60.3867 130.93 61.2667C130.85 61.8767 130.77 62.4566 130.69 62.7966L130.31 64.7467C130.18 65.3967 130.08 66.0567 129.99 66.7167C129.89 67.3867 129.79 68.0467 129.66 68.7167C129.58 69.1467 129.47 69.5667 129.37 69.9767C129.23 70.5367 129.09 71.0767 129.02 71.6267C128.95 72.0767 128.88 72.4866 128.78 72.9166C128.61 73.6566 128.15 76.6767 128.17 77.3567L128.14 77.3066Z" fill="#FFFEFF"/>
<path d="M159.5 57.7666C159.74 57.7666 160.03 57.8066 160.19 58.0166C160.13 59.0366 159.87 59.9966 159.65 60.9766C159.55 61.3866 159.65 61.8066 159.58 62.2666C159.38 63.8366 159.04 65.4166 158.76 66.9666C158.55 68.3066 158.4 69.6866 158.06 70.9766C157.65 72.7166 157.43 74.5366 156.94 76.2566C156.57 76.4066 156.05 76.5665 155.65 76.5765C155.47 76.5765 155.31 76.5366 155.12 76.4666C155.04 76.3766 154.74 76.2166 154.74 76.1166C154.71 75.8566 155.92 69.9766 156.08 69.0966C156.2 68.4466 156.64 66.7966 156.57 66.2766C156.57 66.1566 156.51 66.0365 156.46 65.9265L156.35 65.9066C155.51 66.2866 155.18 67.9266 154.7 68.6566C153.8 69.9566 153.58 71.5066 152.79 72.8566C152.41 73.4866 152.26 74.1566 151.7 74.6366C151.3 74.5966 150.54 74.6366 150.21 74.4066C150.04 73.9566 150.05 73.2965 149.99 72.8165C149.83 71.4465 149.64 70.0665 149.5 68.6865C149.4 67.9765 149.39 67.2166 149.21 66.5066L149.1 66.3666L148.86 66.3466C148.72 67.0666 147.6 73.4166 147.6 73.5066L147.09 76.5865L146.73 76.9066C146.21 77.0866 145.63 77.2366 145.07 77.2566C144.99 77.1866 144.83 77.1166 144.83 76.9966C144.76 76.3766 145.27 73.1066 145.44 72.3966C145.54 71.9666 145.61 71.5666 145.68 71.1366C145.82 70.1366 146.14 69.1965 146.32 68.1965C146.58 66.8865 146.71 65.5466 146.97 64.2366L147.35 62.2766C147.54 61.4366 147.75 59.0066 148.03 58.3866C148.15 58.0766 149.13 58.0266 149.47 58.0166C149.63 58.0166 149.81 58.0166 149.95 58.0966C150.09 58.4066 150.26 58.7265 150.4 59.0365L150.28 59.6066C150.59 60.2166 150.57 60.9365 150.64 61.5765C150.67 61.8565 150.73 62.2665 150.69 62.5465C151.2 64.0565 151.4 65.6666 151.56 67.2366C151.6 67.5966 151.7 69.6566 152.09 69.6466H152.22C152.88 68.6566 153.17 67.4866 153.81 66.4666C154.42 65.5266 154.93 64.5366 155.3 63.4866C155.77 62.2366 156.52 61.1265 157.1 59.9465C157.43 59.2465 157.54 58.4866 158.11 57.9066C158.56 57.9166 159.01 57.7666 159.51 57.7566L159.5 57.7666Z" fill="#FFFEFF"/>
<path d="M144.95 77.5966L144.85 77.5166C144.7 77.4066 144.5 77.2766 144.49 77.0166C144.42 76.3466 144.94 73.0265 145.11 72.3265C145.2 71.9065 145.27 71.5065 145.34 71.0865C145.42 70.4965 145.56 69.9266 145.7 69.3666C145.8 68.9566 145.9 68.5566 145.98 68.1366C146.11 67.4866 146.21 66.8265 146.3 66.1665C146.4 65.4965 146.5 64.8265 146.63 64.1665L147.01 62.2065C147.08 61.8865 147.16 61.3166 147.24 60.7266C147.38 59.7166 147.52 58.6666 147.71 58.2466C147.8 58.0266 148.08 57.7165 149.45 57.6865C149.64 57.6865 149.9 57.6865 150.12 57.8265L150.19 57.8766L150.23 57.9565C150.3 58.1065 150.37 58.2566 150.44 58.4066C150.52 58.5766 150.6 58.7366 150.67 58.8966L150.71 58.9966L150.59 59.5665C150.82 60.0765 150.86 60.6466 150.9 61.1466C150.91 61.2766 150.92 61.4165 150.93 61.5465V61.6665C150.98 61.9265 151.02 62.2466 150.99 62.5266C151.49 64.0266 151.68 65.5966 151.86 67.2166L151.88 67.4365C151.96 68.4365 152.04 68.9365 152.11 69.1765C152.35 68.7665 152.53 68.3366 152.73 67.8866C152.96 67.3666 153.19 66.8265 153.51 66.3165C154.14 65.3365 154.62 64.3866 154.97 63.3966C155.28 62.5766 155.7 61.8165 156.11 61.0865C156.34 60.6665 156.57 60.2465 156.78 59.8265C156.88 59.6265 156.95 59.4065 157.03 59.1965C157.22 58.6865 157.41 58.1565 157.85 57.7065L157.95 57.6066H158.09C158.29 57.6166 158.51 57.5765 158.74 57.5465C158.97 57.5065 159.22 57.4666 159.47 57.4666C160.02 57.4666 160.29 57.6665 160.43 57.8365L160.5 57.9365V58.0565C160.45 58.8965 160.26 59.7066 160.08 60.4766L159.94 61.0665C159.9 61.2565 159.9 61.4565 159.9 61.6665C159.9 61.8765 159.9 62.0965 159.87 62.3265C159.72 63.4865 159.5 64.6665 159.28 65.8065C159.2 66.2165 159.12 66.6265 159.05 67.0365C159 67.3365 158.96 67.6465 158.91 67.9565C158.76 68.9865 158.61 70.0565 158.34 71.0665C158.17 71.7765 158.04 72.4966 157.9 73.2266C157.71 74.2566 157.51 75.3266 157.22 76.3466L157.18 76.4966L157.03 76.5565C156.65 76.7165 156.08 76.8866 155.62 76.8966C155.38 76.8966 155.19 76.8466 154.97 76.7666L154.83 76.6765C154.83 76.6765 154.77 76.6266 154.73 76.5966C154.56 76.4666 154.38 76.3366 154.37 76.1166C154.35 75.9766 154.49 75.1866 155.38 70.7166C155.54 69.9166 155.67 69.2766 155.72 69.0266C155.75 68.8466 155.81 68.5865 155.88 68.2965C156.02 67.6665 156.23 66.7366 156.22 66.3666C155.91 66.6766 155.66 67.2565 155.44 67.7865C155.28 68.1765 155.12 68.5465 154.94 68.8265C154.47 69.5065 154.2 70.2465 153.91 71.0365C153.67 71.6965 153.41 72.3766 153.04 73.0166C152.92 73.2166 152.82 73.4266 152.73 73.6266C152.52 74.0666 152.31 74.5166 151.88 74.8866L151.77 74.9766H151.63C151.54 74.9566 151.42 74.9465 151.3 74.9465C150.83 74.9265 150.31 74.9065 149.98 74.6765L149.9 74.6166L149.86 74.5266C149.73 74.1766 149.69 73.7265 149.66 73.3365C149.65 73.1665 149.64 73.0066 149.62 72.8666C149.56 72.3866 149.5 71.9065 149.44 71.4365C149.33 70.5365 149.21 69.6366 149.12 68.7266C149.09 68.4966 149.06 68.2466 149.04 67.9966C149.02 67.7766 149 67.5565 148.97 67.3265C148.62 69.2465 147.91 73.3265 147.88 73.5465L147.35 76.7666L146.79 77.2266C146.35 77.3766 145.69 77.5765 145.04 77.5865H144.91L144.95 77.5966ZM145.15 76.9066C145.15 76.9066 145.17 76.9165 145.17 76.9265C145.67 76.8965 146.19 76.7466 146.56 76.6266L146.78 76.4265L147.27 73.4666C147.27 73.3366 148.52 66.3565 148.53 66.2965L148.59 66.0066L149.26 66.0565L149.52 66.4365C149.64 66.9265 149.69 67.4365 149.74 67.9365C149.76 68.1765 149.79 68.4166 149.82 68.6566C149.91 69.5666 150.02 70.4566 150.14 71.3566C150.2 71.8366 150.26 72.3065 150.32 72.7865C150.34 72.9365 150.35 73.1065 150.37 73.2965C150.39 73.5965 150.42 73.9365 150.49 74.1865C150.7 74.2665 151.11 74.2865 151.37 74.2965C151.45 74.2965 151.52 74.2965 151.59 74.2965C151.85 74.0365 152 73.7166 152.18 73.3466C152.28 73.1266 152.39 72.8965 152.52 72.6765C152.86 72.0865 153.09 71.4665 153.34 70.8065C153.63 70.0165 153.93 69.1965 154.44 68.4565C154.59 68.2365 154.73 67.8965 154.88 67.5365C155.2 66.7665 155.56 65.8966 156.23 65.5966L156.33 65.5565L156.7 65.6266L156.77 65.7766C156.84 65.9266 156.91 66.0766 156.91 66.2666C156.96 66.6366 156.79 67.4365 156.56 68.4465C156.5 68.7265 156.44 68.9766 156.41 69.1566C156.36 69.4066 156.23 70.0566 156.07 70.8566C155.75 72.4766 155.16 75.3966 155.08 76.0166C155.11 76.0366 155.14 76.0565 155.16 76.0765C155.21 76.1165 155.25 76.1465 155.3 76.1765C155.43 76.2165 155.53 76.2566 155.65 76.2366C155.96 76.2366 156.37 76.1166 156.67 76.0066C156.93 75.0566 157.12 74.0666 157.3 73.0966C157.44 72.3566 157.58 71.6166 157.75 70.8966C158.01 69.9166 158.16 68.8666 158.31 67.8466C158.36 67.5266 158.4 67.2166 158.45 66.9066C158.53 66.4866 158.6 66.0766 158.68 65.6566C158.89 64.5266 159.12 63.3565 159.26 62.2065C159.29 62.0065 159.29 61.8266 159.28 61.6466C159.28 61.4066 159.28 61.1466 159.34 60.8866L159.48 60.2865C159.65 59.5565 159.81 58.8666 159.87 58.1366C159.77 58.0866 159.62 58.0765 159.52 58.0765C159.3 58.0765 159.09 58.1166 158.88 58.1466C158.68 58.1766 158.47 58.2166 158.26 58.2266C157.98 58.5566 157.83 58.9666 157.68 59.3866C157.6 59.6166 157.51 59.8565 157.4 60.0765C157.18 60.5165 156.95 60.9466 156.71 61.3766C156.32 62.0866 155.91 62.8266 155.62 63.5966C155.26 64.6266 154.76 65.6266 154.1 66.6466C153.81 67.1066 153.6 67.5966 153.37 68.1266C153.12 68.6966 152.87 69.2865 152.51 69.8265L152.41 69.9666H152.11C151.56 69.9866 151.39 69.1766 151.26 67.4666L151.24 67.2666C151.07 65.6666 150.87 64.1066 150.38 62.6566L150.35 62.5765V62.4966C150.4 62.2966 150.35 61.9866 150.33 61.7366V61.6166C150.3 61.4766 150.29 61.3365 150.28 61.1965C150.24 60.6965 150.2 60.1866 149.99 59.7566L149.94 59.6566L150.06 59.0765C150 58.9565 149.94 58.8265 149.88 58.6965C149.82 58.5765 149.77 58.4666 149.71 58.3466C149.65 58.3366 149.56 58.3466 149.49 58.3466C148.77 58.3666 148.39 58.4765 148.32 58.5365C148.19 58.8565 148.04 59.9365 147.92 60.8165C147.84 61.4265 147.76 62.0066 147.68 62.3466L147.3 64.2965C147.17 64.9465 147.07 65.6066 146.98 66.2666C146.88 66.9366 146.78 67.5966 146.65 68.2666C146.57 68.6966 146.46 69.1165 146.36 69.5365C146.22 70.0965 146.08 70.6265 146.01 71.1865C145.94 71.6365 145.87 72.0466 145.77 72.4766C145.6 73.2166 145.14 76.2365 145.17 76.9165L145.15 76.9066Z" fill="#FFFEFF"/>
<path d="M168.64 69.0166C168.84 67.5366 169.47 66.0765 169.44 64.5765C169.41 63.3465 170.36 60.7266 170.54 59.3966C170.59 59.0666 170.58 58.7266 170.65 58.3966C170.7 58.2266 170.75 58.1066 170.9 57.9866C171.03 57.8866 172.19 57.7165 172.45 57.6665L172.64 57.9465C172.52 58.6665 172.46 59.3565 172.4 60.0465C172.27 61.2365 171.82 62.4165 171.74 63.5765C171.68 64.4065 171.35 65.1766 171.27 66.0166C171.13 67.9166 170.05 72.6966 169.03 74.2466C168.7 74.7566 168.37 75.2366 168.04 75.7466C167.31 76.2366 166.66 76.6066 165.79 76.8966C164.94 76.7466 164.19 76.4566 163.45 76.1166C162.77 75.2966 162.19 74.3366 162.17 73.2666L162.06 68.6566C162.04 67.9666 162.32 67.3465 162.31 66.6765C162.3 66.0565 162.25 65.4365 162.51 64.8365C162.49 63.9365 163.5 58.5166 164.45 58.4866C164.92 58.4766 166.07 58.8265 166.5 59.0565L166.48 59.3165C165.84 60.2865 165.55 61.3865 165.12 62.4365C165.13 63.0565 164.99 63.6566 164.84 64.2466C164.55 65.3966 164.34 66.6065 164.37 67.7965C164.37 67.9865 164.35 68.1066 164.33 68.2766C164.23 68.6866 164.16 69.0866 164.17 69.5166L164.22 71.5166C164.24 72.3466 164.55 73.1466 164.57 73.9866C164.82 74.3566 164.99 74.9265 165.59 74.9165C166.81 74.8865 167.75 72.2965 168.18 71.4365C168.18 70.6065 168.57 69.8366 168.65 69.0266L168.64 69.0166Z" fill="#FFFEFF"/>
<path d="M165.8 77.2164H165.72C164.78 77.0364 163.97 76.7065 163.3 76.3965L163.18 76.3064C162.29 75.2364 161.84 74.2365 161.82 73.2565L161.71 68.6465C161.71 68.2665 161.77 67.9064 161.84 67.5664C161.9 67.2564 161.96 66.9564 161.95 66.6664V66.5065C161.93 65.9365 161.92 65.3465 162.15 64.7565C162.2 63.8765 163.04 58.1865 164.41 58.1465C164.96 58.1565 166.16 58.5165 166.62 58.7565L166.81 58.8564L166.77 59.4164L166.72 59.4865C166.28 60.1565 166.01 60.8864 165.73 61.6664C165.63 61.9364 165.53 62.2165 165.42 62.4865C165.42 63.1265 165.28 63.7264 165.13 64.3164C164.79 65.6464 164.64 66.7764 164.67 67.7864C164.67 67.9664 164.66 68.0865 164.64 68.2365L164.62 68.3464C164.54 68.6764 164.46 69.0765 164.47 69.5065L164.52 71.5065C164.52 71.8965 164.61 72.2764 164.69 72.6864C164.77 73.0764 164.85 73.4765 164.87 73.8865C164.9 73.9465 164.94 73.9964 164.97 74.0564C165.18 74.4264 165.29 74.5764 165.56 74.5764C166.38 74.5564 167.22 72.6964 167.62 71.7964C167.7 71.6264 167.77 71.4664 167.83 71.3464C167.85 70.8664 167.97 70.4164 168.09 69.9764C168.18 69.6364 168.27 69.3064 168.31 68.9764C168.39 68.3764 168.54 67.7864 168.68 67.2064C168.91 66.2964 169.12 65.4464 169.1 64.5764C169.08 63.8064 169.41 62.5864 169.72 61.4164C169.93 60.6264 170.13 59.8764 170.2 59.3464C170.22 59.2164 170.23 59.0864 170.24 58.9664C170.26 58.7564 170.27 58.5364 170.32 58.3264C170.38 58.1164 170.46 57.9164 170.69 57.7264C170.83 57.6264 171.09 57.5665 172.04 57.3965C172.19 57.3765 172.31 57.3464 172.38 57.3364L172.59 57.2964L172.98 57.8665L172.96 57.9965C172.85 58.6865 172.78 59.3764 172.72 60.0364C172.65 60.6464 172.52 61.2165 172.39 61.7665C172.24 62.3965 172.1 62.9964 172.06 63.5964C172.03 64.0664 171.92 64.5064 171.81 64.9264C171.71 65.3064 171.63 65.6664 171.59 66.0364C171.45 67.9164 170.38 72.7664 169.3 74.4164C169.14 74.6664 168.98 74.9065 168.81 75.1465C168.64 75.3965 168.47 75.6564 168.3 75.9164L168.21 76.0065C167.48 76.5065 166.8 76.8964 165.88 77.1964L165.8 77.2264V77.2164ZM163.64 75.8264C164.27 76.1064 164.96 76.3864 165.75 76.5364C166.54 76.2664 167.14 75.9265 167.78 75.4965C167.94 75.2565 168.1 75.0165 168.26 74.7765C168.42 74.5365 168.58 74.2964 168.74 74.0464C169.72 72.5664 170.79 67.7864 170.93 65.9764C170.97 65.5464 171.07 65.1465 171.17 64.7565C171.27 64.3365 171.37 63.9464 171.4 63.5364C171.44 62.8864 171.6 62.2364 171.75 61.6064C171.88 61.0764 172 60.5265 172.06 59.9865C172.12 59.3265 172.18 58.6765 172.28 58.0065C172.24 58.0065 172.19 58.0265 172.14 58.0265C171.85 58.0765 171.17 58.1865 171.04 58.2465C171 58.2865 170.98 58.3264 170.94 58.4664C170.91 58.6264 170.89 58.8165 170.88 58.9965C170.87 59.1365 170.86 59.2764 170.84 59.4164C170.76 59.9864 170.56 60.7564 170.34 61.5664C170.05 62.6464 169.73 63.8664 169.74 64.5464C169.76 65.5064 169.53 66.4464 169.3 67.3564C169.16 67.9064 169.02 68.4864 168.94 69.0364C168.9 69.4164 168.8 69.7765 168.7 70.1365C168.58 70.5765 168.47 70.9864 168.47 71.4164L168.44 71.5564C168.37 71.6864 168.3 71.8564 168.21 72.0564C167.65 73.3064 166.8 75.1964 165.56 75.2264C164.88 75.2264 164.57 74.7165 164.38 74.3665C164.34 74.2965 164.3 74.2165 164.25 74.1565L164.2 74.0764V73.9865C164.19 73.5965 164.11 73.2164 164.03 72.8064C163.95 72.3864 163.86 71.9565 163.85 71.5165L163.8 69.5165C163.79 69.0165 163.88 68.5464 163.97 68.1964V68.1465C163.99 68.0365 164.01 67.9464 164 67.8064C163.98 66.7364 164.13 65.5464 164.48 64.1664C164.62 63.5764 164.76 63.0164 164.75 62.4364V62.3665L164.77 62.3064C164.88 62.0164 164.99 61.7364 165.09 61.4464C165.36 60.7064 165.64 59.9465 166.08 59.2365C165.59 59.0365 164.76 58.8064 164.41 58.8064C163.79 59.0464 162.76 63.7064 162.79 64.8164V64.8865L162.76 64.9464C162.56 65.4264 162.57 65.9465 162.59 66.4865V66.6465C162.6 67.0165 162.53 67.3564 162.47 67.6964C162.41 68.0164 162.35 68.3165 162.35 68.6265L162.46 73.2365C162.48 74.0464 162.86 74.8964 163.62 75.8264H163.64Z" fill="#FFFEFF"/>
<path d="M178.6 57.4463C178.84 57.4463 179.08 57.4863 179.24 57.6263C179.63 58.4063 179.67 59.2763 179.96 60.1063C180.13 60.6063 180.35 61.0963 180.52 61.6163C180.8 62.4663 180.91 63.3863 181.29 64.2163C181.79 65.2763 182.19 66.6164 182.35 67.7764C182.52 68.0864 182.6 68.4563 182.85 68.7163C183.01 68.7163 183.09 68.6863 183.14 68.5463C183.47 67.7763 183.39 66.7863 183.61 65.9663C184.39 63.1463 184.56 60.1663 185.39 57.3463C185.78 57.2163 186.5 57.2263 186.97 57.2163C187.08 57.2163 187.18 57.2163 187.29 57.2363L187.4 57.3063C187.17 60.0463 186.6 62.6964 186.13 65.3964C185.9 66.8064 185.67 68.1863 185.44 69.5963C185.28 70.5463 185.27 71.5263 185.08 72.4563C184.86 73.3863 184.7 74.2763 184.67 75.2263C184.34 75.8563 183.39 75.9263 182.73 75.9363H182.55C181.97 74.9563 180.89 71.6963 180.71 70.5863C180.65 70.2563 180.51 69.9763 180.42 69.6663C180.33 69.2863 180.27 68.8863 180.18 68.5063C180.09 68.1763 179.93 67.9163 179.87 67.5863C179.78 67.1363 178.91 63.8263 178.75 63.6163C178.72 63.5963 178.67 63.4963 178.61 63.4963H178.48L178.4 63.5963C178.13 64.5563 178.15 65.5263 177.96 66.4563C177.7 67.7963 177.57 69.1463 177.28 70.4463C176.85 72.3363 176.84 74.3263 176.38 76.1963C176.31 76.5063 175.25 76.6264 174.94 76.6364C174.6 76.6364 174.07 76.6064 174.06 76.1564V76.0363C174.34 74.3363 174.64 72.6264 174.89 70.9064C175 70.1164 175.2 69.3763 175.34 68.5863C175.62 66.9363 175.74 65.2964 176.15 63.6464C176.63 61.7064 176.48 59.5963 177.07 57.7063C177.57 57.6663 178.07 57.4663 178.6 57.4563V57.4463Z" fill="#FFFEFF"/>
<path d="M174.88 76.9464C173.89 76.9464 173.73 76.4465 173.73 76.1465V76.0265L173.97 74.5165C174.17 73.2965 174.38 72.0664 174.56 70.8464C174.63 70.3764 174.72 69.9264 174.82 69.4764C174.89 69.1664 174.95 68.8465 175.01 68.5165C175.11 67.9365 175.19 67.3565 175.27 66.7765C175.41 65.7265 175.56 64.6364 175.83 63.5564C176.05 62.6864 176.13 61.7564 176.22 60.8564C176.32 59.7764 176.43 58.6564 176.76 57.5964L176.83 57.3865L177.05 57.3665C177.26 57.3465 177.48 57.3065 177.69 57.2565C177.97 57.1965 178.27 57.1265 178.59 57.1165C178.95 57.1165 179.24 57.1965 179.45 57.3665L179.53 57.4664C179.78 57.9664 179.9 58.4965 180.01 59.0065C180.09 59.3465 180.16 59.6765 180.27 59.9865C180.35 60.2065 180.43 60.4365 180.52 60.6565C180.63 60.9365 180.74 61.2065 180.83 61.4965C180.94 61.8365 181.03 62.1864 181.12 62.5464C181.25 63.0864 181.37 63.5864 181.59 64.0564C182.1 65.1364 182.5 66.4765 182.67 67.6565C182.72 67.7565 182.77 67.8564 182.81 67.9664C182.84 68.0464 182.87 68.1164 182.91 68.1864C183.02 67.8264 183.06 67.4265 183.11 67.0165C183.15 66.6265 183.19 66.2365 183.29 65.8665C183.66 64.5265 183.9 63.1165 184.13 61.7565C184.38 60.2665 184.64 58.7165 185.08 57.2365L185.13 57.0664L185.3 57.0165C185.69 56.8865 186.29 56.8765 186.77 56.8765H186.97C187.08 56.8765 187.22 56.8765 187.36 56.8965L187.48 56.9464L187.75 57.1265L187.73 57.3264C187.56 59.4264 187.17 61.5065 186.8 63.5265C186.68 64.1665 186.57 64.8064 186.45 65.4464L185.76 69.6465C185.69 70.0765 185.65 70.5164 185.61 70.9464C185.56 71.4664 185.51 71.9965 185.4 72.5165C185.21 73.3465 185.03 74.2464 185 75.2264L184.96 75.3665C184.51 76.2165 183.27 76.2365 182.74 76.2565H182.36L182.26 76.0964C181.67 75.0964 180.57 71.7965 180.38 70.6265C180.35 70.4465 180.29 70.2765 180.23 70.1165C180.19 69.9965 180.14 69.8665 180.11 69.7465C180.06 69.5365 180.02 69.3365 179.98 69.1365C179.94 68.9465 179.91 68.7564 179.86 68.5664C179.83 68.4464 179.78 68.3264 179.73 68.2064C179.66 68.0264 179.58 67.8465 179.54 67.6265C179.45 67.1865 178.89 65.0665 178.6 64.1565C178.53 64.5265 178.49 64.9065 178.45 65.2765C178.41 65.6765 178.36 66.0965 178.28 66.5065C178.17 67.0965 178.08 67.6865 177.99 68.2765C177.88 69.0165 177.77 69.7765 177.6 70.5065C177.39 71.4065 177.28 72.3465 177.18 73.2665C177.06 74.2565 176.94 75.2865 176.7 76.2665C176.55 76.8965 175.11 76.9564 174.94 76.9564C174.92 76.9564 174.89 76.9564 174.87 76.9564L174.88 76.9464ZM177.32 57.9965C177.06 58.9165 176.97 59.8864 176.87 60.9164C176.78 61.8464 176.69 62.7964 176.46 63.7164C176.2 64.7664 176.05 65.8365 175.91 66.8665C175.83 67.4565 175.75 68.0465 175.65 68.6265C175.59 68.9565 175.52 69.2864 175.45 69.6064C175.36 70.0464 175.26 70.4864 175.2 70.9364C175.02 72.1664 174.81 73.3965 174.61 74.6265L174.37 76.0764V76.1365C174.38 76.2865 174.72 76.2964 174.92 76.2964C175.32 76.2964 175.96 76.1664 176.08 76.0564C176.28 75.1664 176.4 74.1664 176.51 73.1964C176.62 72.2664 176.73 71.3065 176.94 70.3765C177.1 69.6665 177.2 68.9564 177.32 68.1964C177.41 67.5964 177.5 66.9965 177.62 66.3965C177.7 66.0165 177.74 65.6264 177.78 65.2264C177.84 64.6664 177.9 64.0865 178.06 63.5065L178.12 63.3865L178.29 63.1664H178.58C178.78 63.1464 178.9 63.3065 178.95 63.3665C179.23 63.7265 180.14 67.3565 180.17 67.5065C180.2 67.6665 180.26 67.8064 180.32 67.9564C180.38 68.0964 180.44 68.2465 180.48 68.4065C180.53 68.6065 180.57 68.8065 180.6 69.0065C180.64 69.1965 180.67 69.3864 180.72 69.5764C180.75 69.6764 180.79 69.7765 180.83 69.8865C180.9 70.0865 180.97 70.2865 181.01 70.5065C181.18 71.5465 182.15 74.4864 182.72 75.5864C183.33 75.5764 184.06 75.4964 184.32 75.1064C184.36 74.0964 184.54 73.1964 184.74 72.3564C184.84 71.8764 184.88 71.3864 184.93 70.8564C184.97 70.4064 185.01 69.9565 185.09 69.5065L185.78 65.3064C185.89 64.6564 186.01 64.0165 186.13 63.3765C186.48 61.4665 186.84 59.4965 187.02 57.5165C187 57.5165 186.98 57.5165 186.96 57.5165H186.75C186.4 57.5165 185.94 57.5364 185.63 57.5964C185.23 58.9864 184.99 60.4464 184.75 61.8564C184.52 63.2364 184.28 64.6565 183.9 66.0265C183.81 66.3465 183.78 66.6964 183.74 67.0764C183.68 67.6064 183.63 68.1565 183.42 68.6465C183.3 69.0065 182.96 69.0165 182.84 69.0165H182.69L182.59 68.9164C182.39 68.7064 182.28 68.4464 182.18 68.2164C182.14 68.1164 182.09 68.0065 182.04 67.9065L182 67.7964C181.85 66.6764 181.45 65.3464 180.97 64.3264C180.72 63.7964 180.58 63.2364 180.45 62.6864C180.37 62.3464 180.29 62.0164 180.18 61.6864C180.09 61.4064 179.98 61.1465 179.88 60.8765C179.79 60.6465 179.7 60.4064 179.62 60.1764C179.5 59.8264 179.42 59.4665 179.34 59.1165C179.24 58.6465 179.14 58.2064 178.95 57.8064C178.87 57.7564 178.74 57.7365 178.58 57.7465C178.33 57.7465 178.08 57.8065 177.81 57.8665C177.64 57.9065 177.47 57.9464 177.3 57.9664L177.32 57.9965Z" fill="#FFFEFF"/>
<path d="M189.91 71.2567C189.93 71.1867 189.99 71.1166 189.96 71.0366C190.03 69.6066 190.42 68.2467 190.68 66.8567C190.8 66.3767 190.84 65.8767 190.94 65.3967C191.35 63.5567 191.81 61.6967 192.24 59.8467C192.46 58.9867 192.6 58.0567 192.97 57.2367C193.36 57.1067 194.02 56.8567 194.44 56.8467C194.55 56.8467 194.7 56.8667 194.81 56.9067C194.97 57.1167 194.98 57.3066 194.98 57.5466C195.03 58.5666 194.61 59.6467 194.39 60.6567C193.84 62.9267 193.04 65.1767 192.83 67.4867C192.74 68.3467 192.5 69.1567 192.36 70.0167C192.32 70.4467 192.09 70.8566 192.13 71.3066C191.6 72.3466 191.9 75.1367 190.86 75.7367C190.47 75.8167 190.04 75.9467 189.62 76.0067C189.33 75.9167 189.32 75.7067 189.32 75.4867C189.27 74.4167 189.62 72.3167 189.91 71.2367V71.2567Z" fill="#FFFEFF"/>
<path d="M189.59 76.3566L189.52 76.3365C189 76.1765 188.99 75.7266 188.98 75.5066C188.93 74.3966 189.29 72.2265 189.58 71.1665L189.62 71.0166C189.67 69.9766 189.89 68.9766 190.1 68.0066C190.19 67.6066 190.27 67.2065 190.35 66.7965C190.42 66.4965 190.47 66.2165 190.51 65.9365C190.54 65.7365 190.57 65.5365 190.61 65.3365C190.9 64.0465 191.21 62.7465 191.52 61.4465L191.92 59.7766C191.98 59.5466 192.03 59.3165 192.08 59.0765C192.23 58.4165 192.38 57.7366 192.67 57.1066L192.73 56.9766L193.09 56.8566C193.51 56.7166 194.03 56.5366 194.43 56.5266C194.56 56.5266 194.77 56.5466 194.94 56.6166L195.02 56.6466L195.07 56.7166C195.3 57.0166 195.31 57.2965 195.31 57.5465C195.35 58.3165 195.14 59.0966 194.93 59.8566C194.85 60.1566 194.77 60.4466 194.71 60.7366C194.55 61.4066 194.37 62.0666 194.18 62.7266C193.75 64.2966 193.3 65.9265 193.15 67.5365C193.1 68.0665 192.99 68.5765 192.88 69.0765C192.81 69.4165 192.73 69.7466 192.68 70.0966C192.66 70.2666 192.61 70.4666 192.56 70.6566C192.5 70.8866 192.43 71.0965 192.45 71.3065V71.3966L192.41 71.4766C192.23 71.8266 192.15 72.5065 192.07 73.1665C191.93 74.3665 191.78 75.5965 191.01 76.0465L190.91 76.0865C190.77 76.1165 190.62 76.1465 190.48 76.1865C190.21 76.2565 189.93 76.3166 189.66 76.3566H189.59ZM189.91 71.2566L190.23 71.3466C189.95 72.3666 189.6 74.4266 189.65 75.4866C189.65 75.5566 189.65 75.6465 189.67 75.6765C189.89 75.6365 190.12 75.5865 190.34 75.5365C190.48 75.5065 190.61 75.4765 190.74 75.4465C191.2 75.1365 191.32 74.0465 191.44 73.0865C191.52 72.3865 191.6 71.7166 191.81 71.2566C191.81 70.9666 191.88 70.7066 191.95 70.4666C191.99 70.3166 192.04 70.1566 192.05 70.0066C192.11 69.6266 192.19 69.2865 192.26 68.9365C192.37 68.4365 192.47 67.9666 192.52 67.4766C192.67 65.8066 193.13 64.1565 193.57 62.5565C193.75 61.9065 193.93 61.2566 194.09 60.5966C194.15 60.3066 194.23 60.0065 194.32 59.6965C194.51 58.9865 194.71 58.2565 194.67 57.5865C194.67 57.4065 194.67 57.3066 194.62 57.2166C194.57 57.2166 194.51 57.2065 194.47 57.2065C194.17 57.2065 193.68 57.3766 193.33 57.5066L193.24 57.5365C193.01 58.0665 192.88 58.6666 192.75 59.2466C192.7 59.4866 192.64 59.7265 192.58 59.9565L192.18 61.6266C191.87 62.9166 191.56 64.2166 191.28 65.4966C191.24 65.6766 191.22 65.8665 191.19 66.0565C191.14 66.3565 191.1 66.6666 191.02 66.9666C190.95 67.3566 190.86 67.7665 190.77 68.1665C190.57 69.0965 190.36 70.0666 190.31 71.0266C190.33 71.1666 190.28 71.2866 190.25 71.3466L189.92 71.2766L189.91 71.2566Z" fill="#FFFEFF"/>
<path d="M200.81 59.4565C199.96 59.4065 199.15 59.5865 198.35 59.5365C198.22 59.5165 197.87 59.4965 197.87 59.3065C197.87 58.9465 197.91 57.6165 198.44 57.5765L201.68 57.3365C202.02 57.3065 202.39 57.3665 202.74 57.3365C203.93 57.2365 205.19 57.0666 206.41 57.1366C206.6 57.1566 206.62 57.2765 206.63 57.4365C206.63 57.8365 206.72 58.9565 206.14 58.9965C205.32 59.0665 203.79 59.0466 203.52 59.8866C203.17 60.8966 202.93 63.1566 202.83 64.2766C202.74 64.8466 202.62 65.4266 202.55 66.0166C202.53 66.2766 202.56 66.5665 202.52 66.8265L201.45 73.0565C201.33 73.6765 201.37 75.3165 200.96 75.6865C200.91 75.7365 200.75 75.7666 200.57 75.7666C200.31 75.7666 200.01 75.7565 199.88 75.7365C199.35 75.7265 198.93 75.8265 198.92 75.2165C198.91 74.7665 199.03 74.2865 199.1 73.8065C199.26 72.5665 199.39 71.3065 199.6 70.0865C200.21 66.7165 200.92 63.2765 201.19 59.8265C201.08 59.7065 200.95 59.5665 200.84 59.4565H200.81Z" fill="#FFFEFF"/>
<path d="M200.44 76.0966C200.21 76.0966 199.96 76.0865 199.81 76.0565H199.65C199.25 76.0565 198.59 76.0666 198.57 75.2166C198.57 74.8666 198.62 74.5065 198.68 74.1665C198.7 74.0265 198.73 73.8966 198.75 73.7566L198.87 72.7965C198.98 71.8865 199.09 70.9366 199.25 70.0266L199.56 68.3466C200.07 65.5966 200.6 62.7565 200.82 59.9365L200.66 59.7666C200.3 59.7566 199.93 59.7865 199.58 59.8165C199.17 59.8465 198.75 59.8866 198.33 59.8566C198.06 59.8266 197.55 59.7565 197.54 59.3065C197.53 58.8365 197.56 57.3066 198.42 57.2466L201.66 57.0066C201.84 56.9866 202.03 57.0066 202.23 57.0066C202.39 57.0066 202.56 57.0266 202.72 57.0066C202.98 56.9866 203.24 56.9565 203.51 56.9365C204.47 56.8465 205.46 56.7465 206.44 56.8065C206.68 56.8265 206.96 56.9565 206.97 57.4265V57.5266C206.99 58.0466 207.02 59.2666 206.17 59.3266L205.86 59.3466C205.17 59.3866 204.01 59.4666 203.84 59.9866C203.6 60.6966 203.36 62.1865 203.16 64.3065C203.13 64.5165 203.1 64.6966 203.06 64.8866C202.99 65.2666 202.92 65.6565 202.88 66.0565C202.88 66.1365 202.88 66.2366 202.88 66.3366C202.88 66.5166 202.88 66.7066 202.85 66.8866L201.78 73.1166C201.74 73.2966 201.73 73.5666 201.7 73.8566C201.62 74.8666 201.54 75.6165 201.18 75.9365C201.11 75.9965 200.97 76.0866 200.57 76.0966C200.53 76.0966 200.49 76.0966 200.45 76.0966H200.44ZM199.65 75.4066H199.88C200.04 75.4266 200.31 75.4465 200.55 75.4365C200.69 75.4365 200.76 75.4166 200.78 75.4066C200.93 75.2666 201 74.2765 201.04 73.8065C201.06 73.4865 201.09 73.1966 201.13 72.9966L202.2 66.7766C202.22 66.6366 202.22 66.4866 202.22 66.3466C202.22 66.2266 202.22 66.1166 202.22 65.9966C202.27 65.5766 202.34 65.1666 202.41 64.7766L202.5 64.2266C202.64 62.7366 202.88 60.7265 203.21 59.7865C203.52 58.8365 204.9 58.7466 205.81 58.6966L206.12 58.6765C206.18 58.6765 206.34 58.5865 206.31 57.5565V57.4666C205.42 57.4266 204.48 57.5166 203.57 57.6066C203.3 57.6366 203.04 57.6565 202.78 57.6765C202.6 57.6965 202.4 57.6765 202.21 57.6765C202.05 57.6765 201.88 57.6565 201.73 57.6765L198.48 57.9165C198.36 57.9865 198.22 58.5665 198.22 59.1865C198.27 59.1865 198.32 59.2066 198.36 59.2066C198.77 59.2366 199.15 59.2065 199.55 59.1765C199.97 59.1465 200.4 59.1066 200.85 59.1366H200.98L201.52 59.7166V59.8566C201.29 62.7566 200.75 65.6666 200.23 68.4766L199.92 70.1466C199.77 71.0366 199.65 71.9766 199.54 72.8766L199.42 73.8466C199.4 73.9966 199.37 74.1365 199.35 74.2865C199.29 74.6165 199.24 74.9266 199.25 75.2066C199.25 75.3466 199.28 75.3766 199.28 75.3766C199.32 75.4066 199.53 75.4066 199.66 75.4066H199.65Z" fill="#FFFEFF"/>
<path d="M209.51 75.6064L209.25 75.7565C208.75 75.6965 207.79 75.5564 207.44 75.2964C207.66 74.3664 208.35 73.5365 208.65 72.6265C209.31 70.4665 210.7 68.5365 211.84 66.5165C211.67 66.2565 211.54 65.9964 211.37 65.7164C211.33 64.9764 210.34 62.4564 209.96 61.7064C209.46 60.8164 209.31 59.8664 208.89 58.9764C208.67 58.5064 207.99 57.7164 207.93 57.2864C207.93 57.1864 207.95 57.1164 208 57.0464L208.21 56.9464C208.5 56.9164 208.79 56.9065 209.11 56.9065C209.32 56.9065 209.56 56.8965 209.8 56.9065C210.23 57.1365 210.64 57.9065 210.68 58.2665C210.81 59.3365 211.57 60.3665 211.7 61.4065C212.27 62.1065 212.29 62.9364 212.84 63.6664L213.21 63.7765C214.02 63.4965 215 61.2664 215.38 60.5864C215.81 59.7664 216.53 59.0664 216.89 58.2264C217.17 57.6264 217.63 57.1164 218.09 56.5864C218.57 56.6664 219.61 56.9564 219.67 57.3564C219.74 58.0164 217.68 60.5664 217.62 61.3264C217.42 61.6164 217.24 61.8864 217.09 62.1964C216.86 62.6764 216.42 63.0864 216.14 63.5764C214.92 65.5264 213.72 67.5064 212.82 69.5464C212.67 69.8864 212.39 70.1964 212.32 70.5364C211.72 71.1264 210.04 74.6765 209.56 75.6165H209.53L209.51 75.6064Z" fill="#FFFEFF"/>
<path d="M209.32 76.0966H209.21C208.53 76.0066 207.63 75.8465 207.25 75.5665L207.07 75.4365L207.12 75.2266C207.25 74.6666 207.53 74.1665 207.79 73.6765C208 73.2865 208.21 72.9165 208.33 72.5365C208.83 70.8965 209.75 69.3766 210.64 67.8966C210.91 67.4466 211.19 66.9866 211.45 66.5266C211.38 66.4066 211.31 66.2965 211.25 66.1765L211.04 65.7366C211 65.0766 210.06 62.6366 209.66 61.8566C209.37 61.3366 209.19 60.7966 209.02 60.2766C208.89 59.8766 208.76 59.4866 208.59 59.1166C208.51 58.9566 208.36 58.7266 208.21 58.4966C207.92 58.0666 207.65 57.6665 207.6 57.3365C207.6 57.1265 207.64 56.9866 207.73 56.8566L207.86 56.7566L208.18 56.6266C208.48 56.5966 208.78 56.5865 209.1 56.5765C209.33 56.5765 209.57 56.5765 209.82 56.5765L209.95 56.6166C210.5 56.9066 210.96 57.7866 211 58.2366C211.06 58.7166 211.27 59.2066 211.49 59.7266C211.7 60.2266 211.92 60.7366 212.01 61.2666C212.3 61.6466 212.45 62.0465 212.59 62.4365C212.71 62.7665 212.83 63.0766 213.03 63.3666L213.18 63.4066C213.71 63.1066 214.44 61.6665 214.8 60.9465C214.91 60.7265 215.01 60.5366 215.08 60.4066C215.28 60.0366 215.54 59.6765 215.79 59.3365C216.1 58.9165 216.39 58.5165 216.57 58.0765C216.85 57.4665 217.3 56.9465 217.73 56.4565L217.95 56.2065L218.13 56.2366C218.54 56.3066 219.87 56.5965 219.98 57.2865C220.03 57.7365 219.6 58.4365 218.9 59.5565C218.48 60.2265 217.96 61.0465 217.93 61.3365V61.4265L217.87 61.4966C217.66 61.7966 217.5 62.0465 217.36 62.3165C217.22 62.6165 217.01 62.8766 216.81 63.1366C216.66 63.3266 216.52 63.5166 216.4 63.7166C215.23 65.5866 214.01 67.5866 213.09 69.6566C213.02 69.8066 212.94 69.9465 212.85 70.0865C212.74 70.2665 212.64 70.4265 212.61 70.5765L212.59 70.6765L212.52 70.7466C212.08 71.1866 210.81 73.7366 210.21 74.9666C210.05 75.2966 209.91 75.5666 209.82 75.7466L209.73 75.9165H209.59L209.31 76.0865L209.32 76.0966ZM207.83 75.1366C208.11 75.2466 208.59 75.3465 209.18 75.4265L209.3 75.3566C209.39 75.1866 209.5 74.9565 209.63 74.6965C210.56 72.8165 211.5 70.9466 212.01 70.3666C212.08 70.1466 212.2 69.9566 212.31 69.7666C212.38 69.6466 212.45 69.5365 212.51 69.4165C213.45 67.3065 214.68 65.2866 215.86 63.4066C215.99 63.1866 216.15 62.9766 216.31 62.7666C216.5 62.5266 216.67 62.2965 216.78 62.0665C216.94 61.7365 217.12 61.4666 217.3 61.2166C217.38 60.7966 217.76 60.1766 218.35 59.2366C218.72 58.6466 219.35 57.6566 219.33 57.4066C219.27 57.3066 218.79 57.0866 218.21 56.9666C217.8 57.4366 217.42 57.8866 217.18 58.3866C216.97 58.8766 216.65 59.3266 216.33 59.7666C216.08 60.1066 215.85 60.4266 215.67 60.7666C215.6 60.8966 215.5 61.0765 215.4 61.2965C214.72 62.6365 214.04 63.8666 213.32 64.1166L213.22 64.1466L212.64 63.9766L212.57 63.8866C212.28 63.4966 212.13 63.0965 211.98 62.6965C211.84 62.3165 211.7 61.9566 211.44 61.6366L211.38 61.5665V61.4766C211.31 61.0066 211.1 60.5266 210.89 60.0166C210.66 59.4766 210.42 58.9165 210.35 58.3365C210.32 58.0665 210 57.4666 209.7 57.2666C209.5 57.2566 209.31 57.2666 209.13 57.2666C208.84 57.2666 208.57 57.2765 208.31 57.3065H208.28C208.32 57.5165 208.57 57.8865 208.76 58.1665C208.93 58.4265 209.1 58.6666 209.19 58.8766C209.38 59.2866 209.52 59.7066 209.65 60.1066C209.82 60.6266 209.98 61.1165 210.24 61.5865C210.61 62.2965 211.58 64.7566 211.69 65.6566L211.82 65.8866C211.92 66.0566 212.01 66.2166 212.11 66.3766L212.22 66.5465L212.12 66.7166C211.83 67.2366 211.52 67.7566 211.21 68.2666C210.34 69.7066 209.45 71.1966 208.96 72.7666C208.81 73.2166 208.59 73.6266 208.37 74.0266C208.16 74.4166 207.95 74.7865 207.83 75.1665V75.1366Z" fill="#FFFEFF"/>
</svg>
