<svg width="250" height="90" viewBox="0 0 250 90" fill="none" xmlns="http://www.w3.org/2000/svg">
<path d="M21 0.225586C27.2 0.225586 32.08 2.10548 35.63 5.86548C39.25 2.10548 44.13 0.225586 50.26 0.225586C57.02 0.225586 62.19 2.40562 65.78 6.75562C69.37 11.1056 71.16 17.1856 71.16 24.9956V52.5056H58.62V21.7556C58.62 18.2756 57.75 15.7255 56.01 14.1255C54.27 12.5255 52.35 11.7256 50.26 11.7256C48.17 11.7256 46.15 12.5255 44.41 14.1255C42.67 15.7255 41.8 18.2756 41.8 21.7556V52.5056H29.36V21.7556C29.36 18.2756 28.49 15.7255 26.75 14.1255C25.01 12.5255 23.09 11.7256 21 11.7256C18.91 11.7256 16.89 12.5255 15.15 14.1255C13.41 15.7255 12.54 18.2756 12.54 21.7556V52.5056H0V24.9956C0 17.1956 1.80999 11.1156 5.42999 6.75562C9.04999 2.40562 14.24 0.225586 21 0.225586Z" fill="#FFFEFF"/>
<path d="M179.73 0.225586C179.73 0.225586 167.8 28.2955 163.84 37.6255C163.37 38.7455 161.79 38.7455 161.31 37.6255C157.35 28.2955 145.42 0.225586 145.42 0.225586H132.41L151.49 45.1355C155.65 54.9155 169.51 54.9155 173.66 45.1355L192.74 0.225586H179.73Z" fill="#FFFEFF"/>
<path d="M103.64 52.5056C95.91 52.5056 89.95 50.3256 85.77 45.9756C81.59 41.6256 79.5 35.5456 79.5 27.7356V0.225586H92.04V29.5156C92.04 32.9956 93.12 35.7855 95.28 37.8755C97.44 39.9655 100.23 41.0156 103.64 41.0156C107.05 41.0156 109.84 39.9655 112 37.8755C114.16 35.7855 115.24 32.9956 115.24 29.5156V0.225586H127.78V27.7356C127.78 35.5356 125.69 41.6156 121.51 45.9756C117.33 50.3356 111.37 52.5056 103.64 52.5056Z" fill="#FFFEFF"/>
<path d="M219.57 52.2856C218.83 52.2856 218.1 52.2556 217.37 52.2056C209.12 51.5956 202.81 47.5457 199.59 40.8257C199.36 40.3457 199.14 39.8655 198.94 39.3755C192.27 40.1455 187.28 40.0857 186.82 40.0757L187.01 28.8057C187.01 28.8057 191.17 28.8556 196.75 28.2756C196.82 22.0456 199.04 15.9356 203.32 10.7256C210.22 2.33558 221.08 -1.70446 230.35 0.675536C234.55 1.75554 237.69 5.21556 238.55 9.69556C240.4 19.3356 231.33 27.1457 227.34 30.0557C222.57 33.5357 216.53 35.8157 210.58 37.2957C212.17 39.4657 214.73 40.6856 218.23 40.9456C226.16 41.5356 235.88 36.8356 240.35 30.2356L249.68 36.5557C243.35 45.8957 230.99 52.2656 219.59 52.2656L219.57 52.2856ZM224.83 11.2656C220.37 11.2656 215.41 13.7455 212.02 17.8855C210.8 19.3655 208.79 22.3357 208.18 26.3057C213.42 24.9757 217.67 23.1656 220.68 20.9656C226.66 16.6056 227.49 13.3756 227.49 12.4856C227.49 11.2756 225.71 11.2756 224.83 11.2756V11.2656Z" fill="#FFFEFF"/>
<path d="M122.82 67.4056C123.21 67.2856 123.42 67.2556 123.87 67.2456C125.01 67.2156 125.62 67.8557 126.3 68.5657C126.56 69.2357 126.57 69.9355 126.68 70.6355C126.61 71.3655 126.23 72.1557 126.12 72.5357C125.87 73.5157 124.74 76.4556 123.99 76.4756C123.72 76.4756 123.05 76.1157 122.78 76.0157L122.72 75.9356C122.89 75.4156 123.27 74.9557 123.47 74.5157C123.79 73.8357 124.51 71.3855 124.49 70.6055C124.48 70.1455 124.19 69.5355 123.47 69.3555L123.23 69.4456C121.56 71.0256 120.67 72.8556 120.08 74.4856C119.74 75.4356 119.48 75.9256 119.29 76.7456C119.1 77.6156 119.01 78.7457 118.62 80.0557C118.23 81.3357 118.02 82.7957 118.06 84.3057L118.08 84.9556C118.37 85.7356 118.62 86.1356 119.63 85.9956C122 84.8856 123.89 80.8256 124.98 78.6856L125.22 78.5757C125.64 78.7557 126.01 79.0457 126.38 79.2757C126.47 79.4057 126.57 79.5956 126.57 79.7356C126.59 80.4356 124.13 84.6555 123.67 85.3655C123.26 85.9455 122.12 87.2356 121.5 87.6856C121.15 87.9356 120.58 88.1956 120.05 88.4756C118.16 88.4956 118.13 88.5457 116.58 87.5557C115.93 86.8457 115.66 85.4756 115.64 84.4956C115.64 84.1456 115.57 83.9857 115.56 83.8257C115.56 83.5857 115.55 83.3656 115.54 82.9056C115.52 81.9656 115.97 80.7856 116.41 78.9156C117.06 75.9856 118.96 69.6256 122.57 67.4856L122.84 67.3955L122.82 67.4056Z" fill="#FFFEFF"/>
<path d="M119.29 88.8555C118.02 88.8555 117.74 88.7456 116.37 87.8756L116.29 87.8157C115.56 87.0057 115.28 85.5357 115.25 84.5157C115.25 84.3357 115.22 84.2055 115.21 84.1055C115.19 84.0055 115.18 83.9258 115.18 83.8358L115.16 82.9156C115.14 82.2356 115.35 81.4557 115.62 80.4757C115.75 79.9957 115.9 79.4558 116.04 78.8358C116.52 76.6958 118.38 69.5256 122.37 67.1656L122.72 67.0457C123.14 66.9157 123.38 66.8856 123.87 66.8756C125.17 66.8356 125.9 67.5857 126.58 68.3157L126.66 68.4356C126.86 68.9656 126.93 69.5057 126.99 70.0257C127.01 70.2157 127.03 70.3958 127.06 70.5858V70.6356V70.6856C127 71.2556 126.78 71.8457 126.62 72.2757C126.56 72.4257 126.52 72.5556 126.49 72.6556C126.49 72.6856 125.28 76.8355 124.01 76.8655C123.75 76.8655 123.41 76.7257 122.96 76.5157C122.84 76.4557 122.73 76.4156 122.66 76.3856L122.56 76.3458L122.31 76.0257L122.37 75.8358C122.48 75.4858 122.68 75.1656 122.85 74.8756C122.95 74.7056 123.06 74.5356 123.13 74.3756C123.46 73.6656 124.13 71.3056 124.12 70.6256C124.12 70.3756 123.97 69.9257 123.49 69.7657L123.44 69.7857C121.73 71.4257 120.91 73.3256 120.44 74.6256C120.32 74.9556 120.22 75.2257 120.12 75.4757C119.93 75.9557 119.79 76.3258 119.67 76.8458C119.61 77.1358 119.55 77.4557 119.5 77.8057C119.39 78.5057 119.26 79.2956 118.99 80.1756C118.6 81.4556 118.41 82.8857 118.44 84.3157V84.8956C118.69 85.5256 118.82 85.7256 119.53 85.6456C121.56 84.6556 123.31 81.1855 124.36 79.1155L124.71 78.4256L125.21 78.1856L125.36 78.2457C125.71 78.3957 126.01 78.5957 126.29 78.7957L126.67 79.0858C126.75 79.1958 126.92 79.4757 126.93 79.7457C126.95 80.6957 124 85.5458 123.97 85.5858C123.52 86.2258 122.35 87.5357 121.71 88.0057C121.44 88.1957 121.07 88.3858 120.68 88.5858C120.53 88.6658 120.37 88.7458 120.21 88.8258L120.04 88.8655H119.77C119.59 88.8655 119.43 88.8655 119.29 88.8655V88.8555ZM116.81 87.2657C118.15 88.1157 118.19 88.1158 119.76 88.0958H119.94C120.07 88.0258 120.21 87.9556 120.34 87.8856C120.7 87.7056 121.04 87.5255 121.27 87.3655C121.83 86.9655 122.94 85.7156 123.35 85.1356C123.97 84.1856 126.16 80.2957 126.18 79.7257C126.18 79.7057 126.15 79.6257 126.09 79.5357C126.01 79.4857 125.94 79.4356 125.86 79.3856C125.66 79.2456 125.44 79.1057 125.23 78.9957L125.01 79.4256C123.84 81.7456 122.07 85.2558 119.77 86.3258L119.66 86.3555C118.36 86.5255 118 85.8757 117.71 85.0657L117.69 84.9456L117.67 84.2957C117.64 82.7857 117.84 81.2756 118.25 79.9256C118.5 79.0956 118.62 78.3256 118.74 77.6456C118.8 77.2856 118.85 76.9456 118.92 76.6456C119.05 76.0756 119.22 75.6556 119.41 75.1756C119.51 74.9356 119.61 74.6658 119.72 74.3458C120.22 72.9558 121.1 70.9156 122.97 69.1556L123.1 69.0758L123.44 68.9556L123.55 68.9857C124.43 69.1957 124.84 69.9458 124.86 70.5858C124.88 71.4858 124.11 74.0056 123.8 74.6656C123.72 74.8556 123.6 75.0457 123.48 75.2457C123.37 75.4157 123.27 75.5957 123.18 75.7757C123.21 75.7857 123.23 75.7957 123.26 75.8157C123.45 75.9057 123.86 76.0858 123.98 76.0958C124.39 75.9858 125.42 73.7556 125.75 72.4356C125.79 72.3056 125.84 72.1657 125.9 71.9957C126.04 71.6157 126.23 71.1056 126.29 70.6356C126.26 70.4556 126.24 70.2755 126.22 70.1055C126.17 69.6355 126.11 69.1857 125.96 68.7657C125.36 68.1357 124.83 67.5955 123.86 67.6155C123.44 67.6155 123.27 67.6557 122.92 67.7557L122.65 67.8458C118.99 70.0158 117.2 76.9357 116.74 78.9957C116.59 79.6257 116.45 80.1756 116.31 80.6656C116.05 81.6256 115.86 82.3156 115.88 82.8956L115.9 83.8157C115.9 83.8157 115.91 83.9156 115.92 83.9656C115.94 84.0956 115.97 84.2557 115.98 84.4857C116 85.4257 116.26 86.6357 116.79 87.2657H116.81Z" fill="#FFFEFF"/>
<path d="M141.59 77.0658C141.22 77.7758 141.09 78.5658 140.95 79.3258C140.63 81.1458 139.06 85.7957 137.71 87.2257C137.09 87.8857 135.88 88.6456 134.83 88.6656C134.11 88.6856 133.42 88.5657 132.7 88.4957C130.58 87.4357 129.87 84.1056 129.88 82.1356C129.96 78.8956 130.35 76.3758 131.81 73.3458C132.07 72.7958 132.36 72.3058 132.77 71.8158C133.53 70.9658 134.02 70.0358 134.48 69.0458C135.45 68.2658 136.48 67.4858 137.58 66.8158C138.21 66.8058 139.47 67.0158 139.99 67.3258C140.39 67.5358 140.66 67.8758 141.06 68.0858C142.13 70.1158 142.09 72.4356 142.05 74.6456C142.14 74.7756 142.29 74.8258 142.47 74.8258C142.65 74.8258 142.83 74.7356 142.97 74.6556L143.13 74.8458C142.99 75.4458 142.64 75.9357 142.45 76.5057L141.59 77.0658ZM134.48 86.3856C137.12 86.3256 138.52 79.4356 138.87 77.6456L138.66 77.4356C136.88 77.0956 135.48 76.1057 134.25 75.0257L134.1 75.0057L133.86 75.1156C132.99 76.2456 132.38 79.7156 132.35 81.1156C132.32 82.4156 132.2 86.4356 134.48 86.3856ZM138.31 75.3656C139.24 75.3456 139.31 74.4556 139.32 73.8556C139.33 71.7756 139.07 70.9457 138.37 68.9857C138.22 68.9657 138.04 68.9156 137.89 68.9156C136.81 68.9456 136.06 71.4957 136.05 72.2257C136.05 73.0857 136.36 73.9457 136.83 74.6957C137.19 74.9057 137.83 75.3756 138.32 75.3656H138.31Z" fill="#FFFEFF"/>
<path d="M134.7 89.0458C134.22 89.0458 133.74 88.9957 133.29 88.9457C133.09 88.9257 132.88 88.8956 132.67 88.8856L132.54 88.8458C130.12 87.6358 129.5 83.9356 129.52 82.1456C129.59 78.9856 129.95 76.3857 131.48 73.1957C131.78 72.5557 132.09 72.0658 132.48 71.5858C133.19 70.7858 133.65 69.9356 134.14 68.8956L134.25 68.7657C135.07 68.1057 136.17 67.2557 137.39 66.5057L137.48 66.4557H137.58C138.24 66.4457 139.58 66.6557 140.19 67.0157C140.4 67.1257 140.59 67.2756 140.77 67.4256C140.93 67.5556 141.08 67.6757 141.24 67.7657L141.34 67.8158L141.39 67.9156C142.47 69.9756 142.46 72.3457 142.43 74.4557C142.44 74.4557 142.45 74.4557 142.47 74.4557C142.57 74.4557 142.71 74.3858 142.8 74.3358L143.07 74.1756L143.55 74.7457L143.51 74.9256C143.42 75.3156 143.26 75.6457 143.1 75.9757C143 76.1857 142.89 76.4056 142.81 76.6256L142.77 76.7457L141.89 77.3158C141.59 77.9358 141.46 78.6358 141.34 79.3158C141.03 81.0858 139.46 85.9157 137.99 87.4757C137.29 88.2357 135.98 89.0157 134.85 89.0357C134.8 89.0357 134.75 89.0357 134.7 89.0357V89.0458ZM132.81 88.1356C133 88.1556 133.19 88.1757 133.37 88.1957C133.87 88.2557 134.34 88.3058 134.83 88.2958C135.75 88.2758 136.86 87.5957 137.44 86.9757C138.71 85.6157 140.26 81.0957 140.58 79.2657C140.73 78.4357 140.87 77.6456 141.26 76.8956L141.31 76.8058L142.15 76.2657C142.23 76.0557 142.33 75.8556 142.42 75.6556C142.49 75.5056 142.57 75.3557 142.63 75.2057C142.57 75.2057 142.51 75.2157 142.46 75.2157C142.07 75.2157 141.86 75.0356 141.75 74.8756L141.68 74.7757V74.6556C141.72 72.5156 141.76 70.2956 140.78 68.3656C140.6 68.2556 140.44 68.1257 140.29 68.0057C140.13 67.8757 139.98 67.7556 139.82 67.6656C139.4 67.4156 138.32 67.2057 137.69 67.1957C136.58 67.8857 135.56 68.6657 134.79 69.2857C134.29 70.3457 133.8 71.2258 133.06 72.0658C132.72 72.4858 132.44 72.9357 132.16 73.5157C130.68 76.5857 130.34 79.0956 130.27 82.1556C130.26 84.0256 130.92 87.1356 132.82 88.1456L132.81 88.1356ZM134.44 86.7557C133.9 86.7557 133.44 86.5657 133.07 86.1957C131.89 85.0157 131.95 82.2956 131.98 81.1356C132.01 79.8256 132.58 76.1656 133.57 74.8756L133.7 74.7657L134.04 74.6056L134.41 74.6656L134.49 74.7357C135.51 75.6357 136.92 76.7158 138.72 77.0558L138.83 77.0758L139.27 77.5057L139.23 77.7057C138.43 81.7957 136.96 86.6957 134.48 86.7457C134.48 86.7457 134.44 86.7457 134.43 86.7457L134.44 86.7557ZM134.11 75.4156C133.34 76.5156 132.75 79.7456 132.73 81.1256C132.71 82.1356 132.64 84.7156 133.6 85.6656C133.84 85.9056 134.13 86.0157 134.48 86.0057C135.96 85.9757 137.45 82.8957 138.47 77.7757C136.62 77.3957 135.19 76.3256 134.12 75.4056H134.11V75.4156ZM138.3 75.7357C137.81 75.7357 137.27 75.4056 136.87 75.1556C136.79 75.1056 136.71 75.0557 136.64 75.0157L136.51 74.8856C135.95 74.0056 135.67 73.0757 135.67 72.2157C135.68 71.4957 136.43 68.5657 137.88 68.5357C138.02 68.5357 138.17 68.5658 138.3 68.5858L138.64 68.6456L138.72 68.8556C139.42 70.7956 139.71 71.6758 139.69 73.8458C139.68 74.3058 139.64 75.6957 138.31 75.7257H138.29L138.3 75.7357ZM137.1 74.4156C137.15 74.4456 137.21 74.4857 137.27 74.5157C137.57 74.7057 138.04 74.9757 138.31 74.9857C138.77 74.9757 138.93 74.6858 138.96 73.8458C138.97 71.9058 138.75 71.1158 138.1 69.3158C138.03 69.3058 137.95 69.2958 137.91 69.2958C137.21 69.3158 136.45 71.4857 136.43 72.2357C136.43 72.9257 136.66 73.6756 137.1 74.4156Z" fill="#FFFEFF"/>
<path d="M161.83 66.0757C162.1 66.0757 162.43 66.1155 162.62 66.3555C162.56 67.5155 162.25 68.6056 162.01 69.7156C161.9 70.1756 162.01 70.6655 161.92 71.1755C161.69 72.9655 161.31 74.7556 160.99 76.5156C160.76 78.0356 160.58 79.6057 160.2 81.0657C159.74 83.0457 159.48 85.1057 158.93 87.0657C158.51 87.2357 157.92 87.4155 157.47 87.4255C157.26 87.4255 157.08 87.3857 156.87 87.3057C156.78 87.1957 156.44 87.0155 156.44 86.9055C156.4 86.6055 157.78 79.9355 157.97 78.9355C158.1 78.2055 158.6 76.3256 158.53 75.7356C158.53 75.6056 158.46 75.4657 158.4 75.3357L158.28 75.3157C157.33 75.7457 156.95 77.6155 156.4 78.4355C155.38 79.9155 155.12 81.6756 154.23 83.2056C153.8 83.9156 153.63 84.6756 152.99 85.2356C152.54 85.1956 151.67 85.2356 151.3 84.9756C151.11 84.4656 151.12 83.7155 151.05 83.1755C150.87 81.6155 150.65 80.0556 150.49 78.4956C150.38 77.6856 150.36 76.8256 150.16 76.0156L150.04 75.8555L149.77 75.8357C149.61 76.6457 148.33 83.8656 148.34 83.9656L147.76 87.4656L147.35 87.8257C146.75 88.0257 146.1 88.2056 145.47 88.2156C145.38 88.1356 145.2 88.0555 145.19 87.9255C145.11 87.2255 145.69 83.5156 145.88 82.6956C145.99 82.2056 146.07 81.7456 146.15 81.2556C146.3 80.1156 146.67 79.0555 146.88 77.9155C147.18 76.4255 147.32 74.9055 147.62 73.4155L148.05 71.1956C148.27 70.2456 148.5 67.4856 148.82 66.7756C148.96 66.4256 150.07 66.3655 150.46 66.3555C150.64 66.3555 150.85 66.3556 151 66.4556C151.16 66.8056 151.35 67.1756 151.51 67.5256L151.37 68.1755C151.72 68.8655 151.7 69.6755 151.78 70.4055C151.82 70.7255 151.89 71.1856 151.83 71.5056C152.41 73.2156 152.63 75.0557 152.82 76.8257C152.86 77.2257 152.97 79.5757 153.42 79.5657H153.57C154.32 78.4357 154.65 77.1056 155.38 75.9556C156.08 74.8856 156.65 73.7657 157.07 72.5657C157.61 71.1457 158.45 69.8857 159.11 68.5457C159.48 67.7557 159.61 66.8856 160.26 66.2256C160.77 66.2356 161.28 66.0657 161.85 66.0557L161.83 66.0757Z" fill="#FFFEFF"/>
<path d="M145.31 88.5857L145.2 88.4956C145.03 88.3756 144.8 88.2255 144.79 87.9255C144.71 87.1755 145.31 83.3755 145.49 82.6055C145.6 82.1255 145.67 81.6756 145.75 81.1956C145.84 80.5256 146 79.8756 146.16 79.2456C146.28 78.7856 146.39 78.3257 146.48 77.8457C146.63 77.1057 146.74 76.3555 146.85 75.6155C146.96 74.8555 147.07 74.0957 147.22 73.3457L147.65 71.1255C147.73 70.7555 147.82 70.1156 147.91 69.4456C148.07 68.2956 148.23 67.1155 148.44 66.6255C148.54 66.3755 148.86 66.0256 150.41 65.9856C150.63 65.9856 150.92 65.9755 151.17 66.1455L151.25 66.2056L151.29 66.2957C151.37 66.4657 151.45 66.6357 151.53 66.8057C151.62 66.9957 151.71 67.1855 151.79 67.3655L151.84 67.4756L151.7 68.1255C151.96 68.7055 152.01 69.3455 152.05 69.9155C152.06 70.0655 152.07 70.2155 152.09 70.3655L152.11 70.4956C152.15 70.7956 152.19 71.1556 152.16 71.4656C152.72 73.1656 152.95 74.9556 153.14 76.7856L153.16 77.0356C153.25 78.1756 153.34 78.7356 153.42 79.0156C153.69 78.5556 153.9 78.0657 154.12 77.5457C154.38 76.9557 154.64 76.3356 155.01 75.7556C155.73 74.6456 156.27 73.5656 156.67 72.4456C157.02 71.5156 157.5 70.6557 157.96 69.8257C158.22 69.3457 158.49 68.8755 158.73 68.3855C158.84 68.1555 158.93 67.9055 159.02 67.6655C159.23 67.0855 159.45 66.4856 159.95 65.9756L160.06 65.8555H160.22C160.45 65.8655 160.7 65.8256 160.96 65.7856C161.23 65.7456 161.5 65.6956 161.79 65.6956C162.42 65.6956 162.73 65.9155 162.88 66.1155L162.96 66.2256V66.3655C162.9 67.3255 162.69 68.2255 162.49 69.1055L162.34 69.7856C162.29 69.9956 162.29 70.2256 162.29 70.4756C162.29 70.7156 162.29 70.9656 162.25 71.2256C162.08 72.5356 161.83 73.8655 161.59 75.1555C161.5 75.6255 161.41 76.1057 161.33 76.5757C161.28 76.9157 161.23 77.2655 161.18 77.6155C161.01 78.7955 160.84 80.0055 160.53 81.1555C160.34 81.9555 160.19 82.7855 160.03 83.6155C159.81 84.7855 159.58 85.9955 159.25 87.1555L159.2 87.3257L159.03 87.3955C158.6 87.5755 157.95 87.7756 157.43 87.7856C157.16 87.7856 156.94 87.7355 156.69 87.6455L156.54 87.5457C156.54 87.5457 156.47 87.4956 156.42 87.4556C156.22 87.3156 156.02 87.1655 156.01 86.9155C155.99 86.7555 156.14 85.8556 157.16 80.7856C157.34 79.8756 157.49 79.1455 157.54 78.8655C157.58 78.6555 157.64 78.3656 157.72 78.0356C157.88 77.3256 158.12 76.2657 158.1 75.8457C157.75 76.1957 157.47 76.8556 157.22 77.4556C157.03 77.9056 156.86 78.3255 156.65 78.6355C156.12 79.4055 155.81 80.2455 155.48 81.1455C155.2 81.8955 154.92 82.6655 154.49 83.3955C154.35 83.6255 154.24 83.8557 154.14 84.0857C153.91 84.5857 153.66 85.0956 153.17 85.5156L153.05 85.6155L152.89 85.5957C152.79 85.5957 152.66 85.5857 152.52 85.5757C151.99 85.5557 151.39 85.5356 151.02 85.2656L150.93 85.1956L150.89 85.0857C150.74 84.6857 150.7 84.1856 150.67 83.7356C150.66 83.5456 150.64 83.3656 150.62 83.1956C150.56 82.6456 150.49 82.1057 150.42 81.5657C150.29 80.5457 150.16 79.5156 150.06 78.4956C150.02 78.2356 150 77.9455 149.97 77.6655C149.95 77.4155 149.92 77.1655 149.89 76.9155C149.5 79.0955 148.68 83.7356 148.65 83.9756L148.04 87.6355L147.4 88.1555C146.9 88.3255 146.15 88.5557 145.41 88.5657H145.27L145.31 88.5857ZM145.54 87.8157C145.54 87.8157 145.56 87.8257 145.57 87.8357C146.14 87.8057 146.72 87.6256 147.14 87.4856L147.39 87.2656L147.95 83.9055C147.94 83.7655 149.37 75.8356 149.39 75.7556L149.45 75.4255L150.22 75.4856L150.51 75.9155C150.65 76.4755 150.7 77.0555 150.76 77.6155C150.79 77.8955 150.81 78.1655 150.85 78.4355C150.95 79.4655 151.08 80.4856 151.21 81.4956C151.28 82.0356 151.35 82.5755 151.41 83.1255C151.43 83.2955 151.45 83.4956 151.46 83.6956C151.49 84.0356 151.52 84.4256 151.6 84.7156C151.84 84.8056 152.3 84.8257 152.6 84.8357C152.69 84.8357 152.77 84.8357 152.84 84.8457C153.14 84.5457 153.31 84.1756 153.51 83.7656C153.63 83.5156 153.75 83.2656 153.9 83.0156C154.29 82.3456 154.55 81.6455 154.83 80.8955C155.16 79.9955 155.5 79.0756 156.08 78.2256C156.25 77.9756 156.41 77.5855 156.58 77.1755C156.94 76.3055 157.36 75.3156 158.11 74.9756L158.22 74.9255L158.65 75.0056L158.73 75.1755C158.81 75.3355 158.89 75.5156 158.89 75.7256C158.94 76.1456 158.75 77.0556 158.5 78.1956C158.43 78.5156 158.36 78.7956 158.33 78.9956C158.28 79.2756 158.13 80.0155 157.95 80.9255C157.58 82.7655 156.92 86.0856 156.82 86.7856C156.85 86.8056 156.89 86.8355 156.91 86.8555C156.96 86.8955 157.02 86.9356 157.06 86.9756C157.21 87.0256 157.33 87.0657 157.46 87.0457C157.81 87.0457 158.27 86.9056 158.62 86.7856C158.91 85.7056 159.13 84.5856 159.33 83.4856C159.49 82.6456 159.64 81.8056 159.84 80.9856C160.13 79.8656 160.31 78.6756 160.47 77.5156C160.52 77.1656 160.57 76.8056 160.63 76.4556C160.72 75.9756 160.81 75.4956 160.9 75.0256C161.14 73.7456 161.39 72.4255 161.56 71.1255C161.59 70.9055 161.59 70.6956 161.59 70.4856C161.59 70.2056 161.59 69.9155 161.65 69.6255L161.81 68.9456C162 68.1156 162.18 67.3356 162.25 66.5156C162.13 66.4556 161.96 66.4456 161.86 66.4556C161.61 66.4556 161.37 66.5056 161.14 66.5356C160.91 66.5756 160.68 66.6155 160.44 66.6255C160.12 67.0055 159.96 67.4555 159.78 67.9355C159.68 68.2055 159.59 68.4656 159.46 68.7256C159.21 69.2256 158.94 69.7156 158.67 70.1956C158.22 71.0056 157.76 71.8356 157.43 72.7056C157.02 73.8756 156.45 75.0055 155.7 76.1655C155.37 76.6855 155.13 77.2457 154.87 77.8457C154.59 78.4957 154.3 79.1656 153.89 79.7756L153.78 79.9355H153.44C152.83 79.9655 152.62 79.0357 152.47 77.0957L152.45 76.8655C152.26 75.0455 152.03 73.2755 151.47 71.6255L151.44 71.5356V71.4456C151.49 71.2156 151.44 70.8657 151.41 70.5857L151.39 70.4456C151.37 70.2856 151.36 70.1356 151.35 69.9756C151.31 69.4156 151.26 68.8257 151.02 68.3357L150.96 68.2156L151.1 67.5557C151.03 67.4157 150.96 67.2655 150.89 67.1255C150.83 66.9955 150.76 66.8656 150.7 66.7356C150.63 66.7256 150.52 66.7256 150.45 66.7356C149.63 66.7556 149.2 66.8756 149.13 66.9556C148.98 67.3156 148.81 68.5557 148.67 69.5457C148.58 70.2357 148.49 70.8956 148.4 71.2856L147.97 73.4956C147.82 74.2356 147.71 74.9856 147.6 75.7256C147.49 76.4856 147.38 77.2456 147.23 77.9956C147.14 78.4856 147.02 78.9555 146.9 79.4355C146.74 80.0755 146.59 80.6757 146.5 81.3157C146.42 81.8257 146.34 82.2856 146.23 82.7856C146.03 83.6256 145.52 87.0557 145.54 87.8257V87.8157Z" fill="#FFFEFF"/>
<path d="M181.15 65.6255C181.42 65.6255 181.75 65.6655 181.94 65.9055C181.88 67.0655 181.57 68.1556 181.33 69.2656C181.22 69.7256 181.33 70.2156 181.25 70.7256C181.02 72.5156 180.64 74.3057 180.32 76.0657C180.09 77.5857 179.91 79.1555 179.53 80.6255C179.07 82.6055 178.81 84.6655 178.26 86.6255C177.84 86.7955 177.25 86.9756 176.8 86.9856C176.59 86.9856 176.41 86.9455 176.2 86.8655C176.11 86.7555 175.77 86.5756 175.77 86.4656C175.73 86.1656 177.11 79.4956 177.3 78.4956C177.43 77.7656 177.93 75.8857 177.86 75.2957C177.86 75.1657 177.79 75.0255 177.73 74.8955L177.61 74.8755C176.66 75.3055 176.28 77.1756 175.73 77.9956C174.71 79.4756 174.45 81.2356 173.56 82.7656C173.13 83.4756 172.96 84.2357 172.32 84.7957C171.87 84.7557 171 84.7956 170.63 84.5356C170.44 84.0256 170.45 83.2656 170.38 82.7356C170.2 81.1756 169.98 79.6157 169.82 78.0457C169.71 77.2357 169.69 76.3757 169.49 75.5657L169.37 75.4055L169.1 75.3855C168.94 76.1955 167.66 83.4156 167.67 83.5156L167.09 87.0156L166.68 87.3755C166.08 87.5755 165.43 87.7556 164.8 87.7656C164.71 87.6856 164.53 87.6056 164.52 87.4756C164.44 86.7756 165.02 83.0656 165.21 82.2456C165.32 81.7556 165.4 81.2957 165.48 80.8057C165.63 79.6657 166 78.6056 166.21 77.4656C166.51 75.9756 166.65 74.4556 166.95 72.9656L167.38 70.7456C167.6 69.7956 167.83 67.0357 168.15 66.3257C168.29 65.9757 169.4 65.9155 169.79 65.9055C169.97 65.9055 170.18 65.9056 170.33 66.0056C170.49 66.3556 170.68 66.7257 170.84 67.0757L170.7 67.7256C171.05 68.4156 171.03 69.2256 171.11 69.9556C171.15 70.2756 171.22 70.7357 171.16 71.0557C171.74 72.7657 171.96 74.6055 172.15 76.3755C172.19 76.7755 172.3 79.1255 172.75 79.1155H172.9C173.65 77.9855 173.98 76.6556 174.71 75.5056C175.41 74.4356 175.98 73.3155 176.4 72.1155C176.94 70.6955 177.78 69.4357 178.44 68.0957C178.81 67.3057 178.94 66.4356 179.59 65.7756C180.1 65.7856 180.61 65.6155 181.18 65.6055L181.15 65.6255Z" fill="#FFFEFF"/>
<path d="M164.63 88.1455L164.52 88.0557C164.35 87.9357 164.12 87.7856 164.11 87.4856C164.03 86.7256 164.63 82.9555 164.81 82.1655C164.92 81.6855 164.99 81.2356 165.07 80.7556C165.16 80.0856 165.32 79.4357 165.48 78.8057C165.6 78.3457 165.71 77.8855 165.8 77.4055C165.95 76.6655 166.06 75.9155 166.17 75.1755C166.28 74.4155 166.39 73.6555 166.54 72.9055L166.97 70.6855C167.05 70.3155 167.14 69.6756 167.23 69.0056C167.39 67.8556 167.55 66.6755 167.76 66.1855C167.86 65.9355 168.18 65.5857 169.73 65.5457C169.95 65.5457 170.24 65.5356 170.49 65.7056L170.57 65.7656L170.61 65.8555C170.69 66.0255 170.77 66.1955 170.85 66.3655C170.94 66.5555 171.03 66.7455 171.11 66.9255L171.16 67.0356L171.02 67.6855C171.28 68.2655 171.33 68.9056 171.37 69.4756C171.38 69.6256 171.39 69.7755 171.41 69.9255L171.43 70.0557C171.47 70.3557 171.51 70.7156 171.48 71.0256C172.04 72.7256 172.27 74.5157 172.46 76.3457L172.48 76.5957C172.57 77.7357 172.66 78.2957 172.74 78.5757C173.01 78.1157 173.22 77.6255 173.44 77.1055C173.7 76.5155 173.96 75.8957 174.33 75.3257C175.05 74.2157 175.59 73.1356 175.99 72.0156C176.34 71.0856 176.82 70.2255 177.28 69.3955C177.54 68.9155 177.81 68.4456 178.05 67.9556C178.16 67.7256 178.25 67.4756 178.33 67.2356C178.54 66.6556 178.76 66.0556 179.26 65.5356L179.37 65.4155H179.53C179.76 65.4255 180.01 65.3857 180.27 65.3457C180.54 65.3057 180.81 65.2556 181.1 65.2556C181.72 65.2556 182.04 65.4755 182.19 65.6855L182.27 65.7957V65.9355C182.21 66.8955 182 67.8055 181.79 68.6855L181.64 69.3555C181.59 69.5655 181.59 69.7956 181.6 70.0356C181.6 70.2756 181.6 70.5256 181.56 70.7856C181.39 72.1056 181.14 73.4456 180.89 74.7356C180.8 75.2056 180.71 75.6755 180.63 76.1355C180.58 76.4755 180.53 76.8355 180.48 77.1855C180.31 78.3555 180.14 79.5756 179.83 80.7156C179.64 81.5156 179.49 82.3455 179.33 83.1755C179.11 84.3455 178.88 85.5556 178.55 86.7256L178.5 86.8955L178.33 86.9656C177.9 87.1456 177.25 87.3355 176.73 87.3555C176.46 87.3555 176.24 87.3056 175.99 87.2156L175.84 87.1155C175.84 87.1155 175.77 87.0656 175.72 87.0256C175.52 86.8856 175.32 86.7356 175.31 86.4856C175.29 86.3256 175.44 85.4255 176.46 80.3555C176.64 79.4455 176.79 78.7155 176.84 78.4355C176.88 78.2255 176.94 77.9355 177.02 77.6055C177.18 76.8955 177.42 75.8355 177.4 75.4155C177.05 75.7655 176.77 76.4356 176.52 77.0356C176.33 77.4856 176.16 77.9056 175.95 78.2156C175.42 78.9856 175.11 79.8256 174.78 80.7256C174.5 81.4756 174.22 82.2456 173.79 82.9756C173.65 83.2056 173.54 83.4355 173.43 83.6655C173.2 84.1655 172.96 84.6757 172.47 85.0957L172.35 85.1956L172.19 85.1755C172.09 85.1755 171.96 85.1655 171.82 85.1555C171.29 85.1355 170.69 85.1157 170.32 84.8457L170.23 84.7756L170.19 84.6655C170.04 84.2655 170 83.7657 169.97 83.3157C169.96 83.1257 169.94 82.9456 169.92 82.7756C169.86 82.2256 169.79 81.6855 169.72 81.1455C169.59 80.1255 169.46 79.0957 169.36 78.0757C169.32 77.8157 169.3 77.5256 169.27 77.2456C169.25 76.9956 169.22 76.7456 169.19 76.4856C168.8 78.6656 167.98 83.3057 167.95 83.5457L167.34 87.2056L166.7 87.7256C166.2 87.8956 165.45 88.1255 164.71 88.1355H164.57L164.63 88.1455ZM164.85 87.3655C164.85 87.3655 164.87 87.3755 164.88 87.3855C165.45 87.3555 166.03 87.1756 166.45 87.0356L166.7 86.8157L167.26 83.4556C167.25 83.3156 168.68 75.3857 168.69 75.3057L168.75 74.9756L169.52 75.0356L169.81 75.4656C169.95 76.0256 170 76.6055 170.06 77.1655C170.09 77.4455 170.11 77.7156 170.15 77.9856C170.25 79.0156 170.38 80.0357 170.51 81.0557C170.58 81.5957 170.65 82.1355 170.71 82.6855C170.73 82.8555 170.75 83.0556 170.76 83.2556C170.79 83.5956 170.82 83.9856 170.9 84.2756C171.14 84.3656 171.6 84.3855 171.9 84.3955C171.99 84.3955 172.07 84.3955 172.14 84.4055C172.44 84.1055 172.61 83.7457 172.81 83.3257C172.93 83.0757 173.05 82.8157 173.2 82.5657C173.59 81.9057 173.85 81.1956 174.13 80.4456C174.46 79.5456 174.8 78.6256 175.38 77.7756C175.55 77.5256 175.71 77.1456 175.88 76.7356C176.24 75.8656 176.66 74.8656 177.42 74.5256L177.53 74.4756L177.96 74.5557L178.04 74.7256C178.12 74.8956 178.2 75.0656 178.2 75.2756C178.25 75.6956 178.06 76.6056 177.81 77.7456C177.74 78.0656 177.67 78.3457 177.64 78.5457C177.59 78.8257 177.44 79.5656 177.26 80.4756C176.89 82.3156 176.23 85.6357 176.13 86.3357C176.16 86.3557 176.2 86.3855 176.22 86.4055C176.27 86.4455 176.33 86.4856 176.37 86.5256C176.52 86.5756 176.64 86.6157 176.76 86.5957C177.11 86.5957 177.57 86.4557 177.92 86.3357C178.21 85.2557 178.43 84.1256 178.63 83.0356C178.79 82.1956 178.94 81.3556 179.14 80.5356C179.43 79.4156 179.61 78.2257 179.77 77.0757C179.82 76.7157 179.87 76.3656 179.93 76.0056C180.02 75.5256 180.11 75.0557 180.19 74.5857C180.43 73.3057 180.69 71.9755 180.85 70.6755C180.88 70.4555 180.88 70.2356 180.88 70.0356C180.88 69.7556 180.88 69.4755 180.94 69.1755L181.09 68.4956C181.28 67.6656 181.47 66.8857 181.53 66.0557C181.41 65.9957 181.24 65.9856 181.14 65.9956C180.89 65.9956 180.65 66.0457 180.42 66.0757C180.19 66.1157 179.96 66.1555 179.72 66.1655C179.4 66.5455 179.24 66.9956 179.06 67.4856C178.96 67.7456 178.87 68.0156 178.75 68.2756C178.5 68.7756 178.23 69.2656 177.96 69.7456C177.51 70.5556 177.05 71.3856 176.72 72.2656C176.31 73.4356 175.74 74.5656 174.99 75.7256C174.66 76.2456 174.42 76.8055 174.16 77.4055C173.88 78.0555 173.59 78.7257 173.18 79.3357L173.07 79.4956H172.73C172.11 79.5156 171.91 78.5955 171.76 76.6555L171.74 76.4255C171.55 74.6055 171.32 72.8355 170.76 71.1855L170.73 71.0957V71.0056C170.78 70.7756 170.73 70.4255 170.7 70.1455L170.68 70.0056C170.66 69.8456 170.65 69.6956 170.64 69.5356C170.6 68.9656 170.55 68.3855 170.31 67.8955L170.25 67.7756L170.39 67.1155C170.32 66.9755 170.25 66.8255 170.18 66.6855C170.12 66.5555 170.05 66.4257 169.99 66.2957C169.92 66.2857 169.81 66.2857 169.74 66.2957C168.92 66.3157 168.49 66.4356 168.42 66.5156C168.27 66.8756 168.1 68.1055 167.96 69.1055C167.87 69.7955 167.78 70.4557 167.69 70.8457L167.26 73.0557C167.11 73.7957 167 74.5456 166.89 75.2856C166.78 76.0456 166.67 76.8057 166.52 77.5557C166.43 78.0457 166.31 78.5156 166.19 78.9956C166.03 79.6356 165.88 80.2355 165.79 80.8755C165.71 81.3855 165.63 81.8457 165.52 82.3457C165.32 83.1857 164.81 86.6155 164.83 87.3855L164.85 87.3655Z" fill="#FFFEFF"/>
<path d="M191.52 78.4055C191.75 76.7255 192.46 75.0655 192.42 73.3655C192.39 71.9655 193.46 68.9956 193.67 67.4756C193.72 67.0956 193.71 66.7157 193.79 66.3357C193.85 66.1457 193.9 66.0055 194.08 65.8655C194.23 65.7555 195.54 65.5656 195.84 65.5056L196.06 65.8257C195.93 66.6357 195.86 67.4256 195.78 68.2056C195.63 69.5556 195.12 70.8956 195.03 72.2156C194.96 73.1656 194.59 74.0356 194.49 74.9856C194.33 77.1456 193.1 82.5757 191.94 84.3357C191.56 84.9157 191.19 85.4556 190.81 86.0356C189.98 86.5956 189.24 87.0157 188.26 87.3357C187.3 87.1657 186.45 86.8356 185.6 86.4556C184.83 85.5256 184.17 84.4356 184.14 83.2256L184.02 77.9856C184 77.2056 184.32 76.4956 184.3 75.7356C184.28 75.0356 184.24 74.3355 184.52 73.6555C184.5 72.6255 185.65 66.4756 186.73 66.4456C187.27 66.4356 188.57 66.8357 189.05 67.0957L189.03 67.3955C188.31 68.4955 187.97 69.7455 187.49 70.9355C187.51 71.6355 187.34 72.3156 187.18 72.9956C186.85 74.2956 186.61 75.6856 186.64 77.0356C186.64 77.2456 186.62 77.3857 186.59 77.5757C186.48 78.0357 186.4 78.4956 186.41 78.9856L186.46 81.2556C186.48 82.2056 186.83 83.1057 186.86 84.0557C187.14 84.4857 187.33 85.1255 188.02 85.1055C189.4 85.0755 190.47 82.1355 190.96 81.1455C190.96 80.2055 191.4 79.3255 191.5 78.4055H191.52Z" fill="#FFFEFF"/>
<path d="M188.31 87.7156L188.22 87.6956C187.16 87.5156 186.23 87.1256 185.47 86.7856L185.34 86.6855C184.33 85.4755 183.82 84.3356 183.8 83.2256L183.68 77.9856C183.68 77.5456 183.75 77.1456 183.83 76.7656C183.9 76.4156 183.97 76.0756 183.96 75.7456V75.5657C183.94 74.9157 183.92 74.2457 184.18 73.5757C184.23 72.5757 185.19 66.1057 186.75 66.0757C187.37 66.0857 188.74 66.4956 189.26 66.7656L189.48 66.8855L189.43 67.5256L189.38 67.6055C188.88 68.3655 188.57 69.1957 188.25 70.0857C188.14 70.3957 188.02 70.7056 187.9 71.0156C187.9 71.7356 187.74 72.4257 187.58 73.0957C187.2 74.6057 187.03 75.8956 187.05 77.0356C187.05 77.2356 187.04 77.3757 187.01 77.5457L186.99 77.6755C186.9 78.0555 186.81 78.5056 186.82 78.9856L186.87 81.2556C186.88 81.6956 186.97 82.1257 187.06 82.5857C187.15 83.0257 187.24 83.4756 187.26 83.9456C187.3 84.0056 187.33 84.0755 187.37 84.1355C187.61 84.5555 187.73 84.7356 188.04 84.7356C188.97 84.7156 189.92 82.5957 190.38 81.5857C190.47 81.3857 190.55 81.2157 190.62 81.0657C190.64 80.5157 190.78 80.0056 190.91 79.5156C191.02 79.1256 191.12 78.7555 191.16 78.3755C191.25 77.6955 191.42 77.0155 191.58 76.3655C191.84 75.3355 192.08 74.3655 192.06 73.3755C192.04 72.4955 192.41 71.1156 192.76 69.7856C193 68.8856 193.23 68.0355 193.31 67.4355C193.33 67.2855 193.34 67.1456 193.35 67.0056C193.37 66.7656 193.39 66.5156 193.44 66.2756C193.51 66.0356 193.59 65.8057 193.86 65.5957C194.01 65.4757 194.31 65.4056 195.4 65.2256C195.57 65.1956 195.71 65.1755 195.78 65.1555L196.02 65.1055L196.46 65.7556L196.44 65.9055C196.31 66.6955 196.24 67.4756 196.17 68.2256C196.09 68.9256 195.94 69.5656 195.79 70.1956C195.62 70.9156 195.46 71.5956 195.41 72.2656C195.37 72.7956 195.25 73.2956 195.13 73.7756C195.02 74.2056 194.92 74.6157 194.88 75.0457C194.72 77.1857 193.51 82.6857 192.27 84.5557C192.09 84.8357 191.9 85.1055 191.72 85.3855C191.53 85.6755 191.33 85.9656 191.14 86.2556L191.04 86.3655C190.21 86.9255 189.44 87.3756 188.39 87.7156L188.3 87.7456L188.31 87.7156ZM185.85 86.1455C186.56 86.4655 187.34 86.7856 188.25 86.9456C189.14 86.6456 189.83 86.2556 190.56 85.7656C190.74 85.4956 190.92 85.2256 191.1 84.9556C191.28 84.6856 191.46 84.4155 191.65 84.1355C192.76 82.4455 193.98 77.0256 194.14 74.9656C194.19 74.4756 194.3 74.0257 194.41 73.5857C194.53 73.1157 194.64 72.6656 194.67 72.1956C194.72 71.4556 194.89 70.7156 195.06 70.0056C195.2 69.4056 195.35 68.7755 195.42 68.1755C195.49 67.4255 195.56 66.6855 195.67 65.9255C195.62 65.9255 195.57 65.9456 195.52 65.9556C195.19 66.0156 194.42 66.1456 194.28 66.2056C194.24 66.2456 194.21 66.2956 194.17 66.4556C194.13 66.6356 194.12 66.8457 194.1 67.0557C194.09 67.2157 194.08 67.3756 194.05 67.5356C193.96 68.1856 193.73 69.0556 193.48 69.9856C193.15 71.2056 192.79 72.5955 192.8 73.3655C192.82 74.4555 192.56 75.5257 192.3 76.5557C192.14 77.1857 191.98 77.8356 191.89 78.4656C191.84 78.8956 191.73 79.3056 191.62 79.7156C191.49 80.2156 191.36 80.6855 191.35 81.1655L191.31 81.3257C191.24 81.4757 191.15 81.6655 191.05 81.8955C190.41 83.3155 189.45 85.4556 188.04 85.4956C187.27 85.4856 186.92 84.9156 186.7 84.5156C186.65 84.4356 186.61 84.3456 186.56 84.2756L186.5 84.1855V84.0757C186.49 83.6357 186.4 83.2056 186.31 82.7456C186.22 82.2756 186.12 81.7856 186.1 81.2756L186.05 79.0056C186.04 78.4356 186.14 77.9056 186.24 77.5056V77.4456C186.26 77.3156 186.28 77.2157 186.28 77.0557C186.25 75.8457 186.43 74.4955 186.83 72.9155C186.99 72.2455 187.15 71.6056 187.13 70.9556V70.8755L187.16 70.8057C187.29 70.4857 187.41 70.1557 187.53 69.8257C187.84 68.9857 188.15 68.1157 188.65 67.3157C188.09 67.0857 187.15 66.8257 186.75 66.8257C186.05 67.0957 184.88 72.3855 184.91 73.6455V73.7256L184.88 73.7957C184.65 74.3457 184.67 74.9257 184.68 75.5457V75.7256C184.69 76.1456 184.62 76.5355 184.54 76.9155C184.47 77.2755 184.4 77.6256 184.41 77.9756L184.53 83.2156C184.55 84.1356 184.98 85.0955 185.84 86.1555L185.85 86.1455Z" fill="#FFFEFF"/>
<path d="M202.83 65.2656C203.1 65.2656 203.37 65.3056 203.56 65.4656C204 66.3456 204.05 67.3456 204.37 68.2856C204.56 68.8456 204.82 69.4056 205.01 69.9956C205.33 70.9556 205.45 72.0156 205.89 72.9456C206.46 74.1456 206.91 75.6756 207.09 76.9956C207.28 77.3456 207.38 77.7757 207.66 78.0657C207.84 78.0657 207.93 78.0355 207.99 77.8655C208.36 76.9955 208.27 75.8655 208.52 74.9355C209.41 71.7255 209.6 68.3555 210.55 65.1455C211 64.9955 211.81 65.0056 212.35 64.9956C212.47 64.9956 212.59 64.9956 212.71 65.0156L212.83 65.0957C212.57 68.2057 211.92 71.2156 211.39 74.2856C211.13 75.8856 210.86 77.4557 210.6 79.0557C210.41 80.1357 210.41 81.2457 210.19 82.3057C209.94 83.3657 209.76 84.3656 209.72 85.4456C209.35 86.1556 208.27 86.2356 207.52 86.2556H207.31C206.65 85.1456 205.43 81.4455 205.22 80.1755C205.15 79.7955 204.99 79.4755 204.9 79.1255C204.8 78.6955 204.73 78.2357 204.63 77.8057C204.53 77.4257 204.34 77.1356 204.28 76.7656C204.18 76.2556 203.19 72.4956 203.01 72.2556C202.98 72.2256 202.92 72.1255 202.86 72.1255H202.71L202.62 72.2356C202.31 73.3256 202.34 74.4256 202.13 75.4856C201.84 77.0056 201.69 78.5456 201.36 80.0156C200.87 82.1556 200.86 84.4257 200.34 86.5457C200.26 86.8957 199.06 87.0357 198.7 87.0457C198.31 87.0457 197.71 87.0156 197.7 86.5056V86.3755C198.01 84.4455 198.36 82.4957 198.64 80.5457C198.77 79.6557 198.99 78.8055 199.15 77.9155C199.47 76.0455 199.61 74.1757 200.07 72.3057C200.62 70.1057 200.44 67.7057 201.11 65.5557C201.68 65.5157 202.24 65.2856 202.84 65.2756L202.83 65.2656Z" fill="#FFFEFF"/>
<path d="M198.62 87.4154C197.5 87.4154 197.32 86.8455 197.31 86.5055V86.3654L197.59 84.6454C197.82 83.2654 198.06 81.8655 198.26 80.4755C198.34 79.9455 198.45 79.4354 198.55 78.9154C198.63 78.5554 198.7 78.1956 198.77 77.8356C198.88 77.1756 198.97 76.5154 199.06 75.8554C199.22 74.6554 199.39 73.4254 199.7 72.1954C199.95 71.2054 200.05 70.1454 200.14 69.1254C200.26 67.8954 200.38 66.6254 200.75 65.4254L200.83 65.1854L201.09 65.1654C201.33 65.1454 201.58 65.0955 201.82 65.0355C202.14 64.9655 202.48 64.8854 202.84 64.8754C203.25 64.8754 203.58 64.9654 203.82 65.1654L203.91 65.2855C204.19 65.8555 204.33 66.4555 204.45 67.0355C204.54 67.4255 204.62 67.7954 204.74 68.1554C204.83 68.4054 204.93 68.6654 205.03 68.9154C205.15 69.2254 205.28 69.5454 205.38 69.8654C205.51 70.2554 205.61 70.6555 205.7 71.0555C205.85 71.6655 205.99 72.2355 206.24 72.7755C206.82 73.9955 207.27 75.5254 207.47 76.8654C207.53 76.9754 207.58 77.0955 207.63 77.2155C207.67 77.3055 207.7 77.3855 207.74 77.4655C207.87 77.0555 207.91 76.6054 207.96 76.1354C208.01 75.6954 208.05 75.2456 208.17 74.8256C208.59 73.3056 208.86 71.7054 209.12 70.1554C209.4 68.4654 209.7 66.7055 210.2 65.0155L210.26 64.8256L210.45 64.7655C210.89 64.6255 211.57 64.6154 212.12 64.6054H212.35C212.47 64.6054 212.63 64.5954 212.79 64.6254L212.92 64.6754L213.23 64.8754L213.21 65.1054C213.01 67.4954 212.58 69.8554 212.16 72.1454C212.03 72.8754 211.89 73.5956 211.77 74.3256L210.98 79.0956C210.9 79.5856 210.85 80.0756 210.8 80.5656C210.74 81.1556 210.69 81.7654 210.57 82.3554C210.35 83.2954 210.15 84.3154 210.11 85.4354L210.07 85.5956C209.56 86.5556 208.15 86.5854 207.54 86.6054H207.11L207 86.4254C206.33 85.2854 205.08 81.5455 204.86 80.2155C204.82 80.0155 204.75 79.8154 204.68 79.6354C204.63 79.4954 204.58 79.3555 204.54 79.2155C204.48 78.9755 204.44 78.7555 204.4 78.5255C204.36 78.3055 204.32 78.0954 204.27 77.8854C204.23 77.7454 204.18 77.6155 204.12 77.4755C204.04 77.2755 203.95 77.0656 203.91 76.8256C203.81 76.3256 203.17 73.9154 202.85 72.8854C202.77 73.3054 202.73 73.7354 202.68 74.1554C202.63 74.6154 202.58 75.0855 202.49 75.5555C202.36 76.2255 202.26 76.8956 202.16 77.5656C202.04 78.3956 201.91 79.2656 201.72 80.0956C201.49 81.1156 201.36 82.1855 201.24 83.2255C201.11 84.3555 200.97 85.5154 200.7 86.6354C200.53 87.3554 198.89 87.4154 198.71 87.4154C198.68 87.4154 198.66 87.4154 198.63 87.4154H198.62ZM201.39 65.8954C201.09 66.9454 200.99 68.0455 200.88 69.2055C200.78 70.2555 200.68 71.3454 200.42 72.3854C200.12 73.5754 199.96 74.7855 199.8 75.9655C199.71 76.6355 199.62 77.3055 199.5 77.9655C199.43 78.3455 199.35 78.7156 199.28 79.0756C199.17 79.5756 199.07 80.0756 198.99 80.5856C198.79 81.9856 198.55 83.3855 198.32 84.7755L198.05 86.4254V86.4955C198.06 86.6655 198.45 86.6754 198.68 86.6754C199.13 86.6654 199.86 86.5254 200 86.3954C200.23 85.3854 200.36 84.2454 200.49 83.1454C200.61 82.0854 200.74 80.9954 200.98 79.9354C201.16 79.1354 201.28 78.3255 201.41 77.4655C201.51 76.7855 201.61 76.1054 201.75 75.4254C201.84 74.9954 201.88 74.5556 201.93 74.0956C202 73.4556 202.07 72.8054 202.25 72.1454L202.32 72.0155L202.52 71.7655H202.85C203.08 71.7455 203.21 71.9155 203.27 71.9955C203.59 72.4055 204.62 76.5255 204.65 76.7055C204.68 76.8855 204.75 77.0455 204.82 77.2155C204.89 77.3755 204.95 77.5455 205 77.7255C205.05 77.9555 205.1 78.1854 205.14 78.4054C205.18 78.6254 205.22 78.8355 205.27 79.0455C205.3 79.1555 205.35 79.2754 205.39 79.3954C205.47 79.6254 205.55 79.8554 205.6 80.1054C205.8 81.2854 206.9 84.6254 207.54 85.8754C208.24 85.8554 209.06 85.7756 209.36 85.3356C209.41 84.1956 209.61 83.1655 209.83 82.2155C209.94 81.6755 209.99 81.1155 210.05 80.5155C210.1 80.0055 210.15 79.4955 210.23 78.9855L211.02 74.2155C211.15 73.4755 211.28 72.7555 211.42 72.0255C211.82 69.8555 212.23 67.6154 212.43 65.3754C212.41 65.3754 212.38 65.3754 212.36 65.3754H212.12C211.72 65.3854 211.2 65.3955 210.85 65.4655C210.4 67.0455 210.12 68.7055 209.85 70.3055C209.59 71.8655 209.31 73.4855 208.88 75.0455C208.78 75.4055 208.74 75.8055 208.7 76.2355C208.64 76.8355 208.57 77.4655 208.34 78.0155C208.2 78.4255 207.82 78.4354 207.68 78.4354H207.51L207.4 78.3156C207.17 78.0756 207.05 77.7755 206.94 77.5155C206.89 77.3955 206.84 77.2754 206.78 77.1654L206.74 77.0355C206.57 75.7655 206.12 74.2556 205.57 73.0956C205.29 72.4956 205.13 71.8555 204.98 71.2355C204.89 70.8555 204.8 70.4754 204.67 70.1054C204.57 69.7954 204.45 69.4854 204.33 69.1954C204.23 68.9254 204.12 68.6654 204.03 68.3954C203.89 67.9954 203.8 67.5854 203.72 67.1954C203.6 66.6654 203.49 66.1655 203.28 65.7055C203.19 65.6555 203.04 65.6254 202.86 65.6354C202.57 65.6354 202.29 65.7055 201.99 65.7755C201.8 65.8155 201.61 65.8654 201.41 65.8854L201.39 65.8954Z" fill="#FFFEFF"/>
<path d="M215.68 80.9456C215.71 80.8656 215.77 80.7856 215.73 80.7056C215.81 79.0856 216.26 77.5356 216.55 75.9656C216.69 75.4256 216.74 74.8557 216.84 74.3157C217.3 72.2257 217.82 70.1056 218.32 68.0156C218.57 67.0356 218.72 65.9857 219.15 65.0557C219.6 64.9057 220.34 64.6255 220.82 64.6155C220.94 64.6155 221.12 64.6355 221.24 64.6855C221.42 64.9255 221.43 65.1355 221.44 65.4055C221.5 66.5655 221.02 67.7955 220.77 68.9355C220.14 71.5155 219.24 74.0756 219 76.6956C218.9 77.6656 218.62 78.5957 218.46 79.5757C218.41 80.0657 218.15 80.5256 218.19 81.0356C217.59 82.2156 217.93 85.3857 216.75 86.0657C216.3 86.1557 215.82 86.3055 215.35 86.3655C215.02 86.2655 215.01 86.0256 215.01 85.7756C214.95 84.5656 215.35 82.1756 215.68 80.9556V80.9456Z" fill="#FFFEFF"/>
<path d="M215.32 86.7356L215.24 86.7156C214.64 86.5356 214.63 86.0256 214.63 85.7756C214.57 84.5056 214.99 82.0457 215.31 80.8457L215.35 80.6755C215.41 79.4955 215.66 78.3556 215.89 77.2556C215.99 76.7956 216.09 76.3455 216.17 75.8855C216.25 75.5455 216.3 75.2255 216.35 74.9055C216.38 74.6755 216.42 74.4556 216.46 74.2256C216.78 72.7556 217.14 71.2857 217.49 69.8057L217.94 67.9055C218.01 67.6455 218.07 67.3755 218.13 67.1155C218.3 66.3655 218.47 65.5955 218.8 64.8755L218.87 64.7256L219.28 64.5857C219.76 64.4257 220.35 64.2156 220.8 64.2056C220.95 64.2056 221.19 64.2257 221.38 64.3057L221.47 64.3457L221.53 64.4255C221.79 64.7655 221.8 65.0855 221.8 65.3655C221.84 66.2455 221.6 67.1256 221.37 67.9856C221.28 68.3256 221.19 68.6556 221.12 68.9856C220.93 69.7456 220.73 70.4956 220.52 71.2356C220.03 73.0156 219.52 74.8656 219.35 76.6956C219.29 77.2956 219.16 77.8756 219.04 78.4456C218.96 78.8256 218.87 79.2057 218.81 79.5957C218.79 79.7957 218.73 80.0156 218.67 80.2256C218.6 80.4856 218.53 80.7256 218.55 80.9656V81.0757L218.51 81.1755C218.3 81.5755 218.21 82.3457 218.13 83.0957C217.97 84.4557 217.81 85.8555 216.92 86.3655L216.81 86.4055C216.65 86.4355 216.48 86.4756 216.32 86.5156C216.01 86.5856 215.7 86.6656 215.39 86.7056H215.31L215.32 86.7356ZM215.68 80.9456L216.04 81.0457C215.73 82.1957 215.33 84.5456 215.38 85.7556C215.38 85.8356 215.38 85.9356 215.4 85.9756C215.66 85.9356 215.91 85.8757 216.16 85.8157C216.31 85.7757 216.46 85.7456 216.61 85.7056C217.13 85.3456 217.27 84.1156 217.4 83.0256C217.49 82.2256 217.58 81.4756 217.82 80.9456C217.82 80.6156 217.9 80.3157 217.97 80.0457C218.02 79.8757 218.07 79.6956 218.09 79.5156C218.16 79.0856 218.24 78.6957 218.33 78.2957C218.45 77.7257 218.57 77.1955 218.63 76.6355C218.8 74.7355 219.32 72.8657 219.82 71.0457C220.02 70.3057 220.23 69.5657 220.41 68.8257C220.48 68.4957 220.57 68.1557 220.67 67.8057C220.89 67.0057 221.11 66.1755 221.07 65.4055C221.07 65.1955 221.06 65.0856 221.01 64.9856C220.95 64.9756 220.89 64.9656 220.84 64.9656C220.5 64.9656 219.95 65.1657 219.54 65.3057L219.43 65.3457C219.17 65.9557 219.02 66.6356 218.87 67.2856C218.81 67.5556 218.75 67.8257 218.68 68.0957L218.23 69.9856C217.88 71.4556 217.53 72.9255 217.21 74.3755C217.17 74.5755 217.14 74.7956 217.11 75.0156C217.06 75.3556 217.01 75.7057 216.92 76.0457C216.84 76.4857 216.74 76.9455 216.64 77.4155C216.41 78.4755 216.18 79.5655 216.11 80.6655C216.14 80.8255 216.08 80.9556 216.05 81.0256L215.68 80.9456Z" fill="#FFFEFF"/>
<path d="M228.06 67.5458C227.1 67.4858 226.17 67.6956 225.27 67.6356C225.12 67.6156 224.73 67.5956 224.72 67.3756C224.72 66.9656 224.77 65.4556 225.37 65.4156L229.05 65.1456C229.44 65.1056 229.86 65.1856 230.25 65.1456C231.6 65.0356 233.03 64.8356 234.42 64.9156C234.63 64.9356 234.66 65.0757 234.67 65.2557C234.67 65.7157 234.77 66.9857 234.11 67.0257C233.18 67.0957 231.44 67.0857 231.13 68.0357C230.74 69.1757 230.46 71.7457 230.34 73.0257C230.24 73.6757 230.1 74.3257 230.03 75.0057C230.01 75.3057 230.04 75.6256 229.99 75.9256L228.77 82.9957C228.64 83.6957 228.68 85.5657 228.21 85.9757C228.15 86.0357 227.97 86.0658 227.76 86.0658C227.46 86.0658 227.13 86.0557 226.98 86.0257C226.38 86.0157 225.9 86.1356 225.89 85.4256C225.88 84.9156 226.02 84.3658 226.09 83.8258C226.27 82.4158 226.41 80.9856 226.65 79.6056C227.34 75.7856 228.15 71.8757 228.45 67.9557C228.33 67.8257 228.17 67.6657 228.05 67.5357L228.06 67.5458Z" fill="#FFFEFF"/>
<path d="M227.64 86.4455C227.37 86.4455 227.09 86.4255 226.93 86.4055H226.75C226.3 86.4055 225.55 86.4155 225.52 85.4455C225.52 85.0455 225.58 84.6456 225.65 84.2556C225.68 84.0956 225.7 83.9456 225.73 83.7856L225.86 82.6955C225.98 81.6555 226.11 80.5856 226.29 79.5456L226.64 77.6355C227.22 74.5155 227.82 71.2857 228.07 68.0857L227.89 67.8955C227.48 67.8855 227.07 67.9155 226.66 67.9455C226.2 67.9855 225.72 68.0256 225.24 67.9856C224.93 67.9456 224.35 67.8754 224.34 67.3654C224.33 66.8354 224.37 65.0856 225.34 65.0256L229.02 64.7556C229.22 64.7356 229.44 64.7556 229.66 64.7556C229.85 64.7556 230.03 64.7756 230.21 64.7556C230.51 64.7356 230.8 64.7055 231.11 64.6755C232.2 64.5755 233.33 64.4656 234.44 64.5256C234.72 64.5556 235.03 64.6956 235.04 65.2356V65.3457C235.06 65.9357 235.1 67.3255 234.13 67.3855L233.78 67.4055C233 67.4555 231.68 67.5355 231.49 68.1355C231.21 68.9355 230.95 70.6256 230.72 73.0356C230.68 73.2656 230.65 73.4755 230.61 73.6955C230.53 74.1355 230.46 74.5756 230.41 75.0256C230.41 75.1256 230.41 75.2357 230.41 75.3457C230.41 75.5557 230.41 75.7655 230.37 75.9655L229.15 83.0356C229.11 83.2456 229.09 83.5455 229.06 83.8755C228.97 85.0255 228.88 85.8656 228.47 86.2356C228.4 86.3056 228.23 86.4055 227.78 86.4255C227.73 86.4255 227.69 86.4255 227.64 86.4255V86.4455ZM226.74 85.6655H227C227.18 85.6855 227.49 85.7055 227.77 85.7055C227.93 85.7055 228.01 85.6855 228.03 85.6755C228.19 85.5155 228.28 84.3954 228.32 83.8554C228.35 83.4854 228.38 83.1555 228.42 82.9355L229.64 75.8654C229.67 75.7054 229.67 75.5355 229.66 75.3755C229.66 75.2455 229.66 75.1055 229.66 74.9755C229.71 74.4956 229.79 74.0357 229.87 73.5857L229.98 72.9655C230.14 71.2655 230.41 68.9955 230.78 67.9155C231.13 66.8355 232.7 66.7355 233.73 66.6755L234.08 66.6555C234.14 66.6555 234.33 66.5455 234.3 65.3855V65.2856C233.29 65.2356 232.22 65.3355 231.19 65.4355C230.89 65.4655 230.59 65.4956 230.29 65.5156C230.08 65.5356 229.86 65.5256 229.64 65.5156C229.46 65.5156 229.27 65.4956 229.09 65.5156L225.4 65.7856C225.26 65.8556 225.11 66.5255 225.1 67.2255C225.15 67.2355 225.22 67.2456 225.25 67.2456C225.71 67.2856 226.15 67.2455 226.6 67.2055C227.08 67.1655 227.57 67.1255 228.08 67.1555H228.23L228.84 67.8156V67.9755C228.58 71.2655 227.96 74.5756 227.37 77.7656L227.02 79.6655C226.84 80.6755 226.72 81.7456 226.59 82.7756L226.46 83.8755C226.44 84.0455 226.41 84.2055 226.38 84.3755C226.32 84.7455 226.25 85.0955 226.26 85.4255C226.26 85.5855 226.29 85.6155 226.29 85.6255C226.34 85.6655 226.58 85.6655 226.72 85.6555L226.74 85.6655Z" fill="#FFFEFF"/>
<path d="M237.94 85.8955L237.64 86.0657C237.07 85.9957 235.98 85.8357 235.59 85.5457C235.84 84.4857 236.62 83.5456 236.96 82.5156C237.71 80.0656 239.28 77.8757 240.58 75.5757C240.39 75.2857 240.24 74.9855 240.05 74.6655C240 73.8255 238.88 70.9655 238.45 70.1155C237.89 69.1055 237.71 68.0256 237.24 67.0156C236.99 66.4856 236.22 65.5757 236.15 65.0957C236.15 64.9857 236.18 64.9057 236.23 64.8257L236.47 64.7156C236.8 64.6856 237.13 64.6755 237.49 64.6655C237.73 64.6655 238 64.6555 238.27 64.6655C238.76 64.9255 239.23 65.8056 239.26 66.2056C239.41 67.4156 240.28 68.5856 240.42 69.7656C241.07 70.5656 241.09 71.5057 241.71 72.3257L242.13 72.4456C243.05 72.1256 244.17 69.5957 244.6 68.8257C245.09 67.8957 245.91 67.0955 246.31 66.1455C246.62 65.4655 247.15 64.8856 247.68 64.2756C248.22 64.3756 249.4 64.6955 249.47 65.1555C249.55 65.9055 247.21 68.7955 247.14 69.6655C246.91 69.9955 246.71 70.2955 246.53 70.6555C246.27 71.2055 245.77 71.6756 245.46 72.2156C244.07 74.4356 242.71 76.6856 241.68 78.9956C241.51 79.3756 241.19 79.7355 241.11 80.1155C240.43 80.7755 238.52 84.8155 237.97 85.8855H237.94V85.8955Z" fill="#FFFEFF"/>
<path d="M237.72 86.4456H237.6C236.83 86.3356 235.81 86.1657 235.37 85.8457L235.17 85.6956L235.23 85.4556C235.38 84.8256 235.69 84.2456 235.99 83.6956C236.23 83.2556 236.46 82.8355 236.6 82.3955C237.17 80.5355 238.21 78.8055 239.22 77.1255C239.53 76.6155 239.84 76.0957 240.14 75.5757C240.06 75.4457 239.99 75.3155 239.91 75.1755L239.67 74.6855C239.63 73.9355 238.56 71.1656 238.11 70.2856C237.78 69.6956 237.58 69.0856 237.38 68.4856C237.23 68.0256 237.09 67.5955 236.89 67.1655C236.8 66.9855 236.63 66.7156 236.45 66.4656C236.12 65.9856 235.82 65.5255 235.76 65.1455C235.76 64.9155 235.8 64.7455 235.91 64.6055L236.05 64.4856L236.41 64.3357C236.75 64.2957 237.09 64.2956 237.46 64.2856C237.72 64.2856 238 64.2757 238.28 64.2957L238.43 64.3357C239.05 64.6657 239.57 65.6655 239.62 66.1755C239.69 66.7255 239.93 67.2755 240.18 67.8655C240.42 68.4355 240.67 69.0155 240.77 69.6155C241.1 70.0455 241.27 70.5056 241.43 70.9456C241.57 71.3256 241.7 71.6756 241.93 72.0056L242.1 72.0557C242.7 71.7157 243.53 70.0756 243.94 69.2656C244.07 69.0156 244.18 68.7955 244.26 68.6455C244.48 68.2155 244.78 67.8155 245.06 67.4255C245.41 66.9455 245.74 66.4856 245.95 65.9956C246.27 65.2956 246.78 64.7155 247.27 64.1555L247.52 63.8655L247.73 63.9055C248.19 63.9855 249.71 64.3157 249.83 65.0957C249.88 65.6057 249.4 66.4055 248.6 67.6655C248.12 68.4255 247.53 69.3655 247.5 69.6855V69.7856L247.43 69.8655C247.19 70.2055 247.01 70.4857 246.85 70.7957C246.69 71.1357 246.46 71.4356 246.23 71.7256C246.06 71.9356 245.9 72.1555 245.76 72.3855C244.43 74.5155 243.05 76.7755 242 79.1355C241.93 79.3055 241.83 79.4655 241.73 79.6255C241.61 79.8255 241.49 80.0155 241.45 80.1855L241.43 80.2957L241.35 80.3755C240.85 80.8655 239.41 83.7755 238.72 85.1655C238.54 85.5355 238.38 85.8457 238.28 86.0457L238.18 86.2456H238.02L237.7 86.4355L237.72 86.4456ZM236.03 85.3457C236.35 85.4657 236.89 85.5855 237.56 85.6655L237.69 85.5857C237.79 85.3957 237.92 85.1357 238.06 84.8357C239.11 82.7057 240.19 80.5755 240.76 79.9255C240.83 79.6755 240.97 79.4556 241.1 79.2356C241.18 79.1056 241.26 78.9757 241.33 78.8357C242.39 76.4357 243.79 74.1456 245.13 72.0056C245.27 71.7556 245.46 71.5156 245.65 71.2756C245.86 71.0056 246.06 70.7456 246.19 70.4856C246.37 70.1156 246.58 69.8056 246.78 69.5156C246.87 69.0356 247.3 68.3356 247.97 67.2656C248.39 66.5956 249.1 65.4655 249.09 65.1855C249.03 65.0755 248.47 64.8255 247.81 64.6855C247.34 65.2155 246.91 65.7257 246.64 66.2957C246.41 66.8557 246.03 67.3655 245.67 67.8655C245.39 68.2555 245.12 68.6156 244.92 68.9956C244.84 69.1456 244.73 69.3557 244.61 69.5957C243.83 71.1257 243.07 72.5157 242.24 72.7957L242.13 72.8357L241.47 72.6455L241.4 72.5457C241.07 72.1057 240.9 71.6456 240.73 71.1956C240.57 70.7656 240.42 70.3556 240.12 69.9956L240.05 69.9155V69.8057C239.97 69.2657 239.74 68.7255 239.49 68.1455C239.23 67.5355 238.96 66.9056 238.87 66.2356C238.84 65.9356 238.47 65.2456 238.13 65.0156C237.9 65.0056 237.68 65.0156 237.48 65.0156C237.15 65.0156 236.85 65.0257 236.55 65.0557H236.52C236.57 65.2957 236.85 65.7156 237.07 66.0256C237.27 66.3156 237.45 66.5957 237.56 66.8257C237.78 67.2957 237.93 67.7656 238.09 68.2256C238.28 68.8156 238.47 69.3655 238.76 69.9055C239.18 70.7155 240.28 73.5056 240.4 74.5256L240.55 74.7856C240.66 74.9756 240.76 75.1657 240.88 75.3457L241 75.5356L240.89 75.7356C240.56 76.3256 240.2 76.9156 239.85 77.4956C238.86 79.1356 237.85 80.8255 237.3 82.6055C237.13 83.1155 236.88 83.5856 236.63 84.0356C236.39 84.4756 236.16 84.8957 236.02 85.3257L236.03 85.3457Z" fill="#FFFEFF"/>
</svg>
