<svg width="250" height="90" viewBox="0 0 250 90" fill="none" xmlns="http://www.w3.org/2000/svg">
<path d="M21 0.225586C27.2 0.225586 32.08 2.10572 35.63 5.86572C39.25 2.10572 44.13 0.225586 50.26 0.225586C57.02 0.225586 62.19 2.40562 65.78 6.75562C69.37 11.1056 71.16 17.1856 71.16 24.9956V52.5056H58.62V21.7556C58.62 18.2756 57.75 15.7257 56.01 14.1257C54.27 12.5257 52.35 11.7256 50.26 11.7256C48.17 11.7256 46.15 12.5257 44.41 14.1257C42.67 15.7257 41.8 18.2756 41.8 21.7556V52.5056H29.36V21.7556C29.36 18.2756 28.49 15.7257 26.75 14.1257C25.01 12.5257 23.09 11.7256 21 11.7256C18.91 11.7256 16.89 12.5257 15.15 14.1257C13.41 15.7257 12.54 18.2756 12.54 21.7556V52.5056H0V24.9956C0 17.1956 1.80999 11.1156 5.42999 6.75562C9.04999 2.40562 14.24 0.225586 21 0.225586Z" fill="#FFFEFF"/>
<path d="M179.73 0.225586C179.73 0.225586 167.8 28.2957 163.84 37.6257C163.37 38.7457 161.79 38.7457 161.31 37.6257C157.35 28.2957 145.42 0.225586 145.42 0.225586H132.41L151.49 45.1357C155.65 54.9157 169.51 54.9157 173.66 45.1357L192.74 0.225586H179.73Z" fill="#FFFEFF"/>
<path d="M103.64 52.5056C95.91 52.5056 89.95 50.3256 85.77 45.9756C81.59 41.6256 79.5 35.5456 79.5 27.7356V0.225586H92.04V29.5156C92.04 32.9956 93.12 35.7857 95.28 37.8757C97.44 39.9657 100.23 41.0156 103.64 41.0156C107.05 41.0156 109.84 39.9657 112 37.8757C114.16 35.7857 115.24 32.9956 115.24 29.5156V0.225586H127.78V27.7356C127.78 35.5356 125.69 41.6156 121.51 45.9756C117.33 50.3356 111.37 52.5056 103.64 52.5056Z" fill="#FFFEFF"/>
<path d="M219.57 52.2856C218.83 52.2856 218.1 52.2556 217.37 52.2056C209.12 51.5956 202.81 47.5457 199.59 40.8257C199.36 40.3457 199.14 39.8657 198.94 39.3757C192.27 40.1457 187.28 40.0857 186.82 40.0757L187.01 28.8057C187.01 28.8057 191.17 28.8556 196.75 28.2756C196.82 22.0456 199.04 15.9356 203.32 10.7256C210.22 2.33558 221.08 -1.70446 230.35 0.675536C234.55 1.75554 237.69 5.21556 238.55 9.69556C240.4 19.3356 231.33 27.1457 227.34 30.0557C222.57 33.5357 216.53 35.8157 210.58 37.2957C212.17 39.4657 214.73 40.6856 218.23 40.9456C226.16 41.5356 235.88 36.8356 240.35 30.2356L249.68 36.5557C243.35 45.8957 230.99 52.2656 219.59 52.2656L219.57 52.2856ZM224.83 11.2656C220.37 11.2656 215.41 13.7457 212.02 17.8857C210.8 19.3657 208.79 22.3357 208.18 26.3057C213.42 24.9757 217.67 23.1656 220.68 20.9656C226.66 16.6056 227.49 13.3756 227.49 12.4856C227.49 11.2756 225.71 11.2756 224.83 11.2756V11.2656Z" fill="#FFFEFF"/>
<path d="M170.14 89.1855L165.82 88.4755C166.72 82.9755 166.82 74.2855 164.21 72.1755C163.93 71.9555 163.09 71.2655 160.75 72.1855C159.64 72.6255 158.56 73.3355 157.58 74.1955C159.31 77.9155 159.7 82.9756 158.24 86.0956C157.25 88.1856 155.47 89.3857 153.33 89.3857C153.29 89.3857 153.24 89.3857 153.19 89.3857C150.37 89.3157 148.4 87.7056 147.93 85.0556C147.35 81.7956 149.11 77.4256 151.93 73.8456C151.47 73.5756 151.15 73.6655 150.97 73.7255C147.14 74.9055 144.92 84.0257 144.42 88.3857V88.5556H140.04V67.8656H144.42V74.0155C145.76 71.9155 147.48 70.2256 149.69 69.5456C151.54 68.9756 153.42 69.3855 154.99 70.6755C156.3 69.5655 157.71 68.6756 159.15 68.1156C163.04 66.5856 165.55 67.6256 166.97 68.7756C172.47 73.2256 170.59 86.5655 170.15 89.1955L170.14 89.1855ZM154.31 78.0756C152.82 80.4256 151.98 82.8656 152.23 84.2956C152.3 84.6956 152.35 84.9855 153.28 85.0055C153.54 85.0055 153.89 85.0155 154.26 84.2355C154.94 82.7855 154.88 80.2956 154.31 78.0756Z" fill="#FFFEFF"/>
<path d="M173.99 88.6357V68.5557H178.73V88.6357H173.99ZM174.03 63.3955C174.03 62.0955 175.09 61.0356 176.39 61.0356C177.69 61.0356 178.75 62.0955 178.75 63.3955C178.75 64.6955 177.69 65.7556 176.39 65.7556C175.09 65.7556 174.03 64.6955 174.03 63.3955Z" fill="#FFFEFF"/>
<path d="M203.01 76.5156V88.5957H198.27V77.1655C198.27 72.6055 195.64 71.6555 193.44 71.6555C190.28 71.6555 187.09 73.8256 187.09 77.9756V88.6057H182.35V68.5256H187.09V71.9055C188.75 69.4355 191.45 68.1357 194.91 68.1357C198.61 68.1357 203.01 69.5856 203.01 76.5056V76.5156Z" fill="#FFFEFF"/>
<path d="M227.37 60.5657V88.6357H222.63V85.3357C221.06 87.7157 218.49 89.0256 215.39 89.0256C209.6 89.0256 205.55 84.7457 205.55 78.6257C205.55 75.6757 206.53 73.0057 208.3 71.1057C210.08 69.1957 212.6 68.1455 215.39 68.1455C218.5 68.1455 221.06 69.4557 222.63 71.8357V60.5757H227.37V60.5657ZM222.63 78.5757C222.63 74.3657 220.22 71.6455 216.5 71.6455C212.78 71.6455 210.42 74.3657 210.42 78.5757C210.42 82.7857 212.81 85.5056 216.5 85.5056C220.19 85.5056 222.63 82.7857 222.63 78.5757Z" fill="#FFFEFF"/>
<path d="M249.47 82.6755C249.47 86.4755 245.59 89.0256 239.81 89.0256C235.65 89.0256 232.21 87.7257 230.12 85.3657L230.07 85.3057L233.36 83.0757L233.4 83.1257C234.71 84.7857 236.93 85.6956 239.68 85.6956C242.16 85.6956 244.82 84.9055 244.82 83.1655C244.82 81.5855 242.21 81.0455 239.18 80.4255C234.94 79.5555 230.14 78.5756 230.14 74.4456C230.14 70.7356 234.08 68.1357 239.71 68.1357C243.58 68.1357 246.77 69.3856 248.95 71.7556L249.01 71.8157L245.72 74.0857L245.68 74.0356C244.34 72.3756 242.13 71.4656 239.45 71.4656C236.77 71.4656 234.75 72.4557 234.75 73.8757C234.75 75.4457 237.33 75.9557 240.32 76.5557C244.4 77.3657 249.47 78.3855 249.47 82.6755Z" fill="#FFFEFF"/>
</svg>
