<svg width="221" height="76" viewBox="0 0 221 76" fill="none" xmlns="http://www.w3.org/2000/svg">
<path d="M18.5 0.186523C23.95 0.186523 28.24 1.83648 31.37 5.14648C34.56 1.83648 38.85 0.186523 44.24 0.186523C50.18 0.186523 54.73 2.10651 57.89 5.92651C61.05 9.75651 62.62 15.1066 62.62 21.9666V46.1665H51.59V19.1166C51.59 16.0566 50.82 13.8165 49.29 12.4065C47.76 10.9965 46.07 10.2965 44.23 10.2965C42.39 10.2965 40.6101 10.9965 39.0801 12.4065C37.5501 13.8165 36.78 16.0566 36.78 19.1166V46.1665H25.84V19.1166C25.84 16.0566 25.07 13.8165 23.54 12.4065C22.01 10.9965 20.32 10.2965 18.48 10.2965C16.64 10.2965 14.8601 10.9965 13.3301 12.4065C11.8001 13.8165 11.03 16.0566 11.03 19.1166V46.1665H0V21.9666C0 15.1066 1.59003 9.75651 4.78003 5.92651C7.97003 2.09651 12.53 0.186523 18.48 0.186523H18.5Z" fill="#FFFEFF"/>
<path d="M158.1 0.186523C158.1 0.186523 147.61 24.8765 144.12 33.0765C143.7 34.0565 142.31 34.0565 141.9 33.0765C138.41 24.8765 127.92 0.186523 127.92 0.186523H116.47L133.25 39.6865C136.9 48.2865 149.1 48.2865 152.75 39.6865L169.53 0.186523H158.08H158.1Z" fill="#FFFEFF"/>
<path d="M91.1802 46.1665C84.3802 46.1665 79.1401 44.2565 75.4601 40.4265C71.7801 36.5965 69.9502 31.2466 69.9502 24.3866V0.186523H80.9801V25.9465C80.9801 29.0065 81.9302 31.4565 83.8302 33.2965C85.7302 35.1365 88.1802 36.0565 91.1802 36.0565C94.1802 36.0565 96.6302 35.1365 98.5302 33.2965C100.43 31.4565 101.38 29.0065 101.38 25.9465V0.186523H112.41V24.3866C112.41 31.2466 110.57 36.5965 106.9 40.4265C103.22 44.2565 97.9802 46.1665 91.1802 46.1665Z" fill="#FFFEFF"/>
<path d="M193.14 45.9667C192.49 45.9667 191.85 45.9466 191.21 45.8966C183.96 45.3566 178.4 41.8067 175.57 35.8867C175.37 35.4667 175.18 35.0367 175 34.6167C169.14 35.2967 164.74 35.2367 164.34 35.2367L164.51 25.3267C164.51 25.3267 168.17 25.3767 173.07 24.8667C173.13 19.3867 175.08 14.0166 178.85 9.43665C184.92 2.05665 194.47 -1.50332 202.62 0.59668C206.31 1.54668 209.07 4.58662 209.83 8.53662C211.45 17.0166 203.48 23.8866 199.97 26.4366C195.77 29.4966 190.46 31.4966 185.23 32.8066C186.63 34.7166 188.88 35.7866 191.96 36.0166C198.93 36.5366 207.48 32.3967 211.42 26.5967L219.62 32.1566C214.05 40.3766 203.18 45.9767 193.16 45.9767L193.14 45.9667ZM197.77 9.89661C193.85 9.89661 189.49 12.0767 186.5 15.7167C185.43 17.0267 183.66 19.6367 183.13 23.1167C187.74 21.9467 191.47 20.3566 194.13 18.4166C199.39 14.5766 200.12 11.7367 200.12 10.9567C200.12 9.88667 198.55 9.88672 197.78 9.88672L197.77 9.89661Z" fill="#FFFEFF"/>
<path d="M112.37 75.2465V56.7764H115.22V75.2465H112.37ZM113.61 67.4064V64.6664H125.69V67.4064H113.61ZM124.43 75.2465V56.7764H127.28V75.2465H124.43Z" fill="#FFFEFF"/>
<path d="M137.99 75.5065C136.63 75.5065 135.43 75.1964 134.36 74.5664C133.29 73.9464 132.46 73.0865 131.84 72.0065C131.22 70.9265 130.92 69.6864 130.92 68.2964C130.92 66.9064 131.23 65.6664 131.84 64.5864C132.46 63.5064 133.29 62.6564 134.36 62.0264C135.42 61.4064 136.63 61.0864 137.99 61.0864C139.35 61.0864 140.53 61.3964 141.59 62.0264C142.65 62.6564 143.49 63.5064 144.11 64.5864C144.72 65.6664 145.03 66.9064 145.03 68.2964C145.03 69.6864 144.72 70.9165 144.11 72.0065C143.49 73.0865 142.65 73.9464 141.59 74.5664C140.53 75.1864 139.33 75.5065 137.99 75.5065ZM137.99 73.0264C138.82 73.0264 139.55 72.8164 140.21 72.4064C140.87 71.9964 141.37 71.4264 141.74 70.7164C142.11 70.0064 142.29 69.1964 142.27 68.3064C142.29 67.3964 142.11 66.5765 141.74 65.8665C141.37 65.1565 140.86 64.5964 140.21 64.1864C139.56 63.7864 138.82 63.5764 137.99 63.5764C137.16 63.5764 136.42 63.7864 135.76 64.1964C135.1 64.6064 134.59 65.1765 134.22 65.8865C133.85 66.5965 133.67 67.4064 133.69 68.2964C133.67 69.1964 133.85 69.9964 134.22 70.7064C134.59 71.4164 135.1 71.9864 135.76 72.3964C136.42 72.8064 137.16 73.0164 137.99 73.0164V73.0264Z" fill="#FFFEFF"/>
<path d="M147.99 75.2465V61.3964H150.73V65.7465L150.47 64.6864C150.66 64.0164 150.99 63.4065 151.46 62.8665C151.93 62.3265 152.46 61.8864 153.07 61.5764C153.68 61.2564 154.31 61.1064 154.96 61.1064C155.26 61.1064 155.54 61.1364 155.82 61.1864C156.09 61.2364 156.31 61.3065 156.47 61.3665L155.76 64.3264C155.55 64.2364 155.32 64.1664 155.06 64.1064C154.8 64.0464 154.55 64.0164 154.31 64.0164C153.84 64.0164 153.38 64.1064 152.95 64.2964C152.52 64.4764 152.14 64.7364 151.82 65.0664C151.5 65.3964 151.24 65.7664 151.04 66.1964C150.85 66.6264 150.75 67.0964 150.75 67.6064V75.2565H148.01L147.99 75.2465Z" fill="#FFFEFF"/>
<path d="M160.39 58.3265C159.81 58.3265 159.36 58.1766 159.04 57.8766C158.72 57.5766 158.57 57.1566 158.57 56.6066C158.57 56.0966 158.73 55.6866 159.06 55.3666C159.38 55.0466 159.83 54.8965 160.39 54.8965C160.95 54.8965 161.42 55.0466 161.74 55.3466C162.06 55.6466 162.21 56.0666 162.21 56.6166C162.21 57.1266 162.05 57.5366 161.72 57.8566C161.39 58.1766 160.95 58.3265 160.39 58.3265ZM159.07 75.2466V61.3965H161.79V75.2466H159.07Z" fill="#FFFEFF"/>
<path d="M165.38 75.2466V72.9766L172.53 63.4265V63.7466H165.38V61.3965H175.49V63.6166L168.45 73.0365L168.34 72.9065H175.65V75.2566H165.39L165.38 75.2466Z" fill="#FFFEFF"/>
<path d="M184.69 75.5065C183.33 75.5065 182.13 75.1964 181.06 74.5664C179.99 73.9464 179.16 73.0865 178.54 72.0065C177.92 70.9265 177.62 69.6864 177.62 68.2964C177.62 66.9064 177.93 65.6664 178.54 64.5864C179.16 63.5064 179.99 62.6564 181.06 62.0264C182.12 61.4064 183.33 61.0864 184.69 61.0864C186.05 61.0864 187.23 61.3964 188.29 62.0264C189.35 62.6564 190.19 63.5064 190.81 64.5864C191.42 65.6664 191.73 66.9064 191.73 68.2964C191.73 69.6864 191.42 70.9165 190.81 72.0065C190.19 73.0865 189.35 73.9464 188.29 74.5664C187.23 75.1864 186.03 75.5065 184.69 75.5065ZM184.69 73.0264C185.52 73.0264 186.25 72.8164 186.91 72.4064C187.57 71.9964 188.07 71.4264 188.44 70.7164C188.81 70.0064 188.99 69.1964 188.97 68.3064C188.99 67.3964 188.81 66.5765 188.44 65.8665C188.07 65.1565 187.56 64.5964 186.91 64.1864C186.26 63.7864 185.52 63.5764 184.69 63.5764C183.86 63.5764 183.12 63.7864 182.46 64.1964C181.8 64.6064 181.29 65.1765 180.92 65.8865C180.55 66.5965 180.37 67.4064 180.39 68.2964C180.37 69.1964 180.55 69.9964 180.92 70.7064C181.29 71.4164 181.8 71.9864 182.46 72.3964C183.12 72.8064 183.86 73.0164 184.69 73.0164V73.0264Z" fill="#FFFEFF"/>
<path d="M194.69 75.2465V61.3964H197.41V64.2465L196.94 64.5664C197.12 63.9564 197.46 63.3865 197.97 62.8665C198.48 62.3465 199.09 61.9264 199.79 61.5964C200.49 61.2764 201.21 61.1064 201.95 61.1064C203.01 61.1064 203.88 61.3164 204.59 61.7264C205.29 62.1364 205.82 62.7665 206.17 63.6165C206.52 64.4665 206.7 65.5264 206.7 66.8064V75.2465H203.98V66.9865C203.98 66.1965 203.87 65.5364 203.66 65.0164C203.45 64.4964 203.12 64.1165 202.68 63.8865C202.24 63.6465 201.69 63.5464 201.04 63.5864C200.51 63.5864 200.03 63.6664 199.59 63.8364C199.15 64.0064 198.77 64.2364 198.44 64.5364C198.11 64.8364 197.86 65.1864 197.68 65.5764C197.5 65.9664 197.4 66.3964 197.4 66.8564V75.2465H194.68H194.69Z" fill="#FFFEFF"/>
<path d="M215.01 75.5067C213.85 75.5067 212.8 75.3066 211.87 74.8966C210.94 74.4966 210.16 73.8967 209.55 73.1067L211.4 71.5266C211.93 72.1466 212.5 72.5867 213.13 72.8567C213.75 73.1267 214.46 73.2666 215.25 73.2666C215.57 73.2666 215.86 73.2266 216.13 73.1466C216.4 73.0666 216.64 72.9466 216.84 72.7866C217.04 72.6266 217.2 72.4367 217.3 72.2167C217.41 71.9967 217.46 71.7567 217.46 71.4867C217.46 71.0267 217.29 70.6567 216.96 70.3767C216.78 70.2567 216.51 70.1167 216.13 69.9667C215.75 69.8167 215.26 69.6667 214.67 69.5067C213.65 69.2467 212.81 68.9467 212.16 68.6067C211.51 68.2767 211.01 67.8967 210.66 67.4767C210.4 67.1467 210.2 66.7767 210.08 66.3767C209.96 65.9767 209.9 65.5467 209.9 65.0667C209.9 64.4867 210.03 63.9567 210.28 63.4667C210.53 62.9867 210.89 62.5567 211.33 62.1967C211.78 61.8367 212.31 61.5567 212.91 61.3667C213.52 61.1767 214.16 61.0767 214.85 61.0767C215.5 61.0767 216.15 61.1667 216.79 61.3367C217.43 61.5167 218.03 61.7667 218.57 62.1067C219.11 62.4467 219.57 62.8366 219.94 63.2966L218.38 65.0067C218.05 64.6767 217.68 64.3767 217.28 64.1267C216.88 63.8767 216.48 63.6766 216.08 63.5366C215.68 63.3966 215.31 63.3267 214.97 63.3267C214.6 63.3267 214.27 63.3666 213.97 63.4366C213.67 63.5066 213.42 63.6167 213.22 63.7567C213.02 63.8967 212.86 64.0766 212.76 64.2866C212.66 64.4966 212.6 64.7367 212.6 64.9967C212.62 65.2267 212.67 65.4366 212.77 65.6466C212.87 65.8466 213 66.0166 213.18 66.1566C213.37 66.2966 213.66 66.4467 214.05 66.6067C214.44 66.7667 214.93 66.9166 215.53 67.0566C216.41 67.2866 217.14 67.5366 217.71 67.8066C218.28 68.0766 218.73 68.3867 219.07 68.7467C219.42 69.0767 219.67 69.4666 219.81 69.9066C219.95 70.3466 220.02 70.8367 220.02 71.3867C220.02 72.1767 219.8 72.8867 219.35 73.5067C218.9 74.1267 218.3 74.6167 217.54 74.9667C216.78 75.3167 215.94 75.4967 215.01 75.4967V75.5067Z" fill="#FFFEFF"/>
</svg>
