<svg width="250" height="104" viewBox="0 0 250 104" fill="none" xmlns="http://www.w3.org/2000/svg">
<path d="M21 0.235352C27.2 0.235352 32.08 2.11549 35.63 5.87549C39.25 2.11549 44.1299 0.235352 50.2599 0.235352C57.02 0.235352 62.19 2.41538 65.78 6.76538C69.37 11.1154 71.16 17.1954 71.16 25.0054V52.5154H58.62V21.7654C58.62 18.2854 57.75 15.7355 56.0099 14.1355C54.2699 12.5355 52.3499 11.7354 50.2599 11.7354C48.1699 11.7354 46.15 12.5355 44.41 14.1355C42.67 15.7355 41.8 18.2854 41.8 21.7654V52.5154H29.36V21.7654C29.36 18.2854 28.49 15.7355 26.75 14.1355C25.01 12.5355 23.09 11.7354 21 11.7354C18.91 11.7354 16.89 12.5355 15.15 14.1355C13.41 15.7355 12.54 18.2854 12.54 21.7654V52.5154H0V25.0054C0 17.2054 1.80999 11.1254 5.42999 6.76538C9.04999 2.41538 14.24 0.235352 21 0.235352Z" fill="#FFFEFF"/>
<path d="M179.73 0.235352C179.73 0.235352 167.8 28.3055 163.84 37.6355C163.37 38.7555 161.79 38.7555 161.31 37.6355C157.35 28.3055 145.42 0.235352 145.42 0.235352H132.41L151.49 45.1455C155.65 54.9255 169.51 54.9255 173.66 45.1455L192.74 0.235352H179.73Z" fill="#FFFEFF"/>
<path d="M103.63 52.5154C95.9 52.5154 89.9399 50.3354 85.7599 45.9854C81.5799 41.6354 79.49 35.5554 79.49 27.7454V0.235352H92.03V29.5254C92.03 33.0054 93.11 35.7955 95.27 37.8855C97.43 39.9755 100.22 41.0254 103.63 41.0254C107.04 41.0254 109.83 39.9755 111.99 37.8855C114.15 35.7955 115.23 33.0054 115.23 29.5254V0.235352H127.77V27.7454C127.77 35.5454 125.68 41.6254 121.5 45.9854C117.32 50.3454 111.36 52.5154 103.63 52.5154Z" fill="#FFFEFF"/>
<path d="M219.57 52.2854C218.83 52.2854 218.1 52.2556 217.37 52.2056C209.12 51.5956 202.81 47.5454 199.59 40.8254C199.36 40.3454 199.14 39.8655 198.94 39.3755C192.27 40.1455 187.28 40.0854 186.82 40.0754L187.01 28.8054C187.01 28.8054 191.17 28.8554 196.75 28.2754C196.82 22.0454 199.04 15.9356 203.32 10.7256C210.22 2.33558 221.08 -1.70446 230.35 0.675536C234.55 1.75554 237.69 5.21556 238.55 9.69556C240.4 19.3356 231.33 27.1454 227.34 30.0554C222.57 33.5354 216.53 35.8154 210.58 37.2954C212.17 39.4654 214.73 40.6856 218.23 40.9456C226.16 41.5356 235.88 36.8354 240.35 30.2353L249.68 36.5554C243.35 45.8954 230.99 52.2654 219.59 52.2654L219.57 52.2854ZM224.83 11.2754C220.37 11.2754 215.41 13.7555 212.02 17.8955C210.8 19.3755 208.79 22.3454 208.18 26.3154C213.42 24.9854 217.67 23.1756 220.68 20.9756C226.66 16.6156 227.49 13.3854 227.49 12.4954C227.49 11.2854 225.71 11.2854 224.83 11.2854V11.2754Z" fill="#FFFEFF"/>
<path d="M152.99 94.5655C148.39 94.5655 146.27 92.3656 145.83 87.6856C145.51 84.4056 145.99 80.7655 146.27 77.4855C146.63 73.4055 147.15 67.3255 147.71 63.3255C147.99 63.3255 148.23 63.2855 148.47 63.2455C148.75 63.2055 150.07 63.4457 150.39 63.4457C151.15 63.4857 151.91 63.5255 152.71 63.5655C152.67 63.6455 152.63 63.7255 152.63 63.7655C152.11 67.6455 151.59 73.5256 151.27 77.4056C151.03 80.1256 150.63 83.1255 150.71 85.8055C150.71 86.5255 150.79 88.5655 151.31 89.0455C151.59 89.3255 152.59 89.3656 153.03 89.3656C155.11 89.3656 157.23 88.9255 159.27 88.5255C159.55 88.4855 159.79 88.4855 160.03 88.5655C160.11 88.8455 160.15 89.0855 160.19 89.2455C160.27 89.7655 160.27 90.3256 160.35 90.8456C160.39 91.3256 160.47 91.7655 160.55 92.2455C160.63 92.5655 160.71 92.8855 160.75 93.2455C159.71 94.0855 154.35 94.5655 152.99 94.5655Z" fill="#FFFEFF"/>
<path d="M195.38 80.6555L195.5 80.7354C194.26 82.7354 190.94 83.8955 188.7 83.8955C187.34 83.8955 186.1 83.5354 185.02 82.7354C184.5 84.5354 183.86 86.2954 183.14 88.0154C182.38 89.9754 180.9 93.1755 178.42 93.1755C177.9 93.1755 177.3 92.9755 176.9 92.6155C174.98 91.0955 174.26 86.6956 173.94 84.4556C173.7 85.1356 173.46 85.7354 173.14 86.2554C171.62 88.8554 168.82 93.1755 165.34 93.1755C162.62 93.1755 161.46 90.3355 160.98 88.0955C160.54 85.8955 160.54 83.6155 160.62 81.3755C160.74 78.9355 161.02 76.4954 161.3 74.0554C161.34 73.3754 161.46 72.6554 161.66 72.0154C163.02 72.0154 164.34 71.8556 165.66 71.6956C165.7 71.9756 165.7 72.2154 165.66 72.4954C165.42 76.1754 164.86 79.8954 164.94 83.5754C164.94 84.8154 165.18 87.5754 166.06 88.5754C166.58 89.0554 168.34 86.6954 168.98 85.8154C170.26 84.0154 172.5 79.8155 172.86 74.8955C172.74 73.9755 172.62 73.0155 172.58 72.0955C172.58 71.7355 172.58 71.3754 172.62 71.0554C173.54 71.0954 174.46 71.1355 175.38 71.0955L176.74 71.0154C176.86 71.5754 176.94 72.1356 177.02 72.6956C177.5 76.4956 177.66 80.2954 178.38 84.0554C178.58 85.1354 178.78 86.2154 179.1 87.2554C180.66 83.7354 181.62 79.9355 182.3 76.1355V76.0554C182.34 74.7354 182.54 73.4155 182.7 72.0955C182.86 70.6155 183.54 69.1355 185.26 69.1355C186.02 69.1355 186.7 69.5754 186.94 70.4954C187.02 70.8554 186.98 71.2154 187.02 71.5754C187.02 73.0154 186.82 74.4955 186.58 75.9355C186.5 76.3755 186.9 77.7355 187.14 78.1355C187.5 78.8155 188.3 79.2554 189.06 79.2954C190.1 79.4154 191.14 79.0554 192.02 78.4954C192.18 78.4154 192.3 78.2155 192.46 78.0955C192.46 78.0555 192.5 78.0154 192.54 78.0154C192.78 78.2554 192.94 78.5354 193.22 78.7354C193.94 79.3754 194.66 80.0555 195.38 80.6555ZM161.51 62.5354C161.91 61.3754 163.11 60.2156 164.35 60.2156C165.47 60.2156 166.43 61.0155 166.59 62.1755C166.67 62.8555 166.47 63.6156 166.11 64.2156C165.59 65.1756 164.47 66.1755 163.35 66.1755C163.19 66.1755 162.99 66.1355 162.83 66.0955C161.39 65.6155 161.03 63.9354 161.51 62.5354Z" fill="#FFFEFF"/>
<path d="M195.71 93.7256C192.99 93.7256 191.83 90.8855 191.35 88.6455C190.91 86.4455 190.91 84.1655 190.99 81.9255C191.11 79.4855 191.39 77.0455 191.67 74.6055C191.71 73.9255 191.83 73.2054 192.03 72.5654C193.39 72.5654 194.71 72.4054 196.03 72.2454C196.07 72.5254 196.07 72.7654 196.03 73.0454C195.79 76.7254 195.23 80.4455 195.31 84.1255C195.31 85.3655 195.55 88.1255 196.43 89.1255C196.71 89.0055 196.91 88.8455 197.15 88.6855C199.55 86.8455 201.51 83.1255 202.55 80.4055C203.95 80.5255 204.35 80.9256 205.79 80.9656C205.27 83.8856 204.75 85.6455 203.03 88.1255C201.59 90.2855 198.55 93.7256 195.71 93.7256ZM193.71 66.7354C193.55 66.7354 193.35 66.6955 193.19 66.6555C191.75 66.1755 191.39 64.4955 191.87 63.0955C192.27 61.9355 193.47 60.7754 194.71 60.7754C195.83 60.7754 196.79 61.5754 196.95 62.7354C197.03 63.4154 196.83 64.1754 196.47 64.7754C195.95 65.7354 194.83 66.7354 193.71 66.7354Z" fill="#FFFEFF"/>
<path d="M217.86 93.1655C217.3 93.1655 216.74 93.0056 216.26 92.7256C215.46 92.3256 214.94 91.5256 214.58 90.7256C213.86 89.0856 213.66 87.2454 213.46 85.4854C213.18 83.0454 213.14 80.5655 212.9 78.1255C212.82 77.4455 212.74 76.7254 212.5 76.0454C210.82 77.2854 209.34 80.4054 208.74 82.2854C207.86 84.9254 207.54 87.6855 207.02 90.4055C207.02 90.6455 207.02 90.8855 206.98 91.1255V91.2056C206.98 91.4456 206.94 91.6855 206.9 91.8855H206.42C205.42 91.9255 204.38 91.9654 203.38 92.0054H203.02C202.7 90.8854 202.78 89.6456 202.7 88.4456C202.54 86.6456 202.42 84.8054 202.34 83.0054C202.26 80.7254 202.18 78.4455 202.02 76.1655C201.94 75.1655 201.82 74.1656 201.94 73.2056H203.66C204.1 73.1656 205.1 73.1655 206.02 73.1255C206.26 74.6855 206.38 76.2855 206.5 77.8855C207.82 75.3655 210.3 71.5254 213.42 71.5254C216.82 71.5254 217.1 76.1655 217.22 78.6455C217.38 81.0455 217.46 83.4054 217.74 85.7654C217.82 86.7254 217.98 87.7255 218.42 88.6055C218.46 88.6455 218.5 88.8054 218.54 88.8054C218.58 88.8454 218.7 88.7256 218.74 88.7256C219.1 88.4456 219.38 88.0455 219.66 87.6455C221.1 85.4055 221.94 82.7654 222.86 80.2454C223.3 80.2454 223.26 80.2456 223.66 80.2056C224.5 80.2056 225.14 80.1254 225.98 80.0454C225.9 81.9654 225.86 82.2455 225.62 83.1255C224.66 86.7655 222.3 93.1655 217.86 93.1655Z" fill="#FFFEFF"/>
<path d="M231.83 103.485C229.59 103.485 226.91 102.525 225.63 100.565C224.75 99.1254 224.99 97.0054 226.23 95.8054C227.23 94.8454 228.39 94.0455 229.59 93.4055C231.43 92.4455 233.39 91.8854 235.27 91.0454C235.27 89.0454 235.27 87.0454 235.31 85.0454C233.99 87.4054 231.79 90.5655 229.35 91.8855C228.51 92.3255 227.43 92.6054 226.47 92.4854C224.55 92.1254 223.35 90.7656 222.75 88.9656C222.23 87.4056 222.11 85.6854 222.23 84.0454C222.59 78.6054 226.07 71.1655 232.43 71.1655C233.59 71.2055 234.91 71.6454 235.71 72.5254C235.79 72.6054 235.99 72.8055 236.03 72.6855C236.15 72.3255 236.27 71.9254 236.43 71.5654C237.99 71.5254 239.59 71.4455 241.19 71.4055C240.67 74.3655 240.15 77.3254 239.87 80.3254C239.59 83.1254 239.59 85.9256 239.59 88.7256C243.07 86.5656 244.11 84.2854 245.39 80.5654V80.5254C246.27 80.6854 247.43 80.8055 247.79 80.8855C248.35 80.9655 248.67 81.0054 249.23 81.0054C249.15 81.3654 248.91 81.7655 248.79 82.1255C247.11 86.8455 244.83 90.2855 239.55 93.3655C239.51 95.7255 239.39 98.2854 238.19 100.285C236.75 102.605 234.43 103.485 231.83 103.485ZM227.71 87.9255C228.03 87.8855 228.71 87.2454 228.91 87.0054C231.51 84.3254 233.31 80.0855 234.59 76.6455C234.43 76.6455 234.27 76.5654 234.11 76.4854C233.71 76.2054 232.15 75.7654 231.63 75.7654C229.95 75.7654 228.63 77.4056 227.91 78.7256C226.91 80.6856 226.39 83.0056 226.55 85.2056C226.59 86.0056 226.71 86.8454 227.15 87.4854C227.27 87.6454 227.51 87.9655 227.71 87.9255ZM232.58 98.8855C233.3 98.8855 234.1 98.8054 234.46 98.4854C235.02 98.0454 235.1 96.2054 235.14 95.5254C233.3 96.2454 231.26 96.7254 229.7 98.0054C230.14 98.3654 230.7 98.6054 231.22 98.7654C231.54 98.8454 232.06 98.8855 232.58 98.8855Z" fill="#FFFEFF"/>
</svg>
