<svg width="412" height="120" viewBox="0 0 412 120" fill="none" xmlns="http://www.w3.org/2000/svg">
<path d="M181.89 14.8101C188.09 14.8101 192.97 16.69 196.52 20.45C200.14 16.69 205.02 14.8101 211.15 14.8101C217.91 14.8101 223.08 16.9901 226.67 21.3401C230.26 25.6901 232.05 31.77 232.05 39.58V67.0901H219.51V36.3401C219.51 32.8601 218.64 30.3101 216.9 28.7101C215.16 27.1101 213.24 26.3101 211.15 26.3101C209.06 26.3101 207.04 27.1101 205.3 28.7101C203.56 30.3101 202.69 32.8601 202.69 36.3401V67.0901H190.25V36.3401C190.25 32.8601 189.38 30.3101 187.64 28.7101C185.9 27.1101 183.98 26.3101 181.89 26.3101C179.8 26.3101 177.78 27.1101 176.04 28.7101C174.3 30.3101 173.43 32.8601 173.43 36.3401V67.0901H160.89V39.58C160.89 31.78 162.7 25.7001 166.32 21.3401C169.94 16.9901 175.13 14.8101 181.89 14.8101Z" fill="#00D9DA"/>
<path d="M340.61 14.8101C340.61 14.8101 328.68 42.8801 324.72 52.2101C324.25 53.3301 322.67 53.3301 322.19 52.2101C318.23 42.8801 306.3 14.8101 306.3 14.8101H293.29L312.37 59.7201C316.53 69.5001 330.39 69.5001 334.54 59.7201L353.62 14.8101H340.61Z" fill="white"/>
<path d="M264.52 67.0901C256.79 67.0901 250.83 64.9101 246.65 60.5601C242.47 56.2101 240.38 50.1301 240.38 42.3201V14.8101H252.92V44.1001C252.92 47.5801 254 50.3701 256.16 52.4601C258.32 54.5501 261.11 55.6001 264.52 55.6001C267.93 55.6001 270.72 54.5501 272.88 52.4601C275.04 50.3701 276.12 47.5801 276.12 44.1001V14.8101H288.66V42.3201C288.66 50.1201 286.57 56.2001 282.39 60.5601C278.21 64.9201 272.25 67.0901 264.52 67.0901Z" fill="#00D9DA"/>
<path d="M380.46 66.86C379.72 66.86 378.99 66.83 378.26 66.78C370.01 66.17 363.7 62.12 360.48 55.4C360.25 54.92 360.03 54.44 359.83 53.95C353.16 54.72 348.17 54.66 347.71 54.65L347.9 43.38C347.9 43.38 352.06 43.43 357.64 42.85C357.71 36.62 359.93 30.51 364.21 25.3C371.11 16.91 381.97 12.87 391.24 15.25C395.44 16.33 398.58 19.79 399.44 24.27C401.29 33.91 392.22 41.72 388.23 44.63C383.46 48.11 377.42 50.39 371.47 51.87C373.06 54.04 375.62 55.26 379.12 55.52C387.05 56.11 396.77 51.41 401.24 44.81L410.57 51.13C404.24 60.47 391.88 66.84 380.48 66.84L380.46 66.86ZM385.72 25.85C381.26 25.85 376.3 28.33 372.91 32.47C371.69 33.95 369.68 36.92 369.07 40.89C374.31 39.56 378.56 37.75 381.57 35.55C387.55 31.19 388.38 27.96 388.38 27.07C388.38 25.86 386.6 25.86 385.72 25.86V25.85Z" fill="white"/>
<path d="M243.541 104.82V79.6761H249.647V104.82H243.541ZM246.379 95.1935V90.0929H259.382V95.1935H246.379ZM246.379 85.0641V79.6761H260.854V85.0641H246.379ZM273.588 105.179C271.601 105.179 269.829 104.748 268.272 103.886C266.74 103.024 265.518 101.851 264.608 100.366C263.722 98.8813 263.279 97.1811 263.279 95.2653C263.279 93.3496 263.722 91.6494 264.608 90.1647C265.518 88.68 266.74 87.5066 268.272 86.6445C269.829 85.7825 271.601 85.3514 273.588 85.3514C275.576 85.3514 277.336 85.7825 278.869 86.6445C280.425 87.5066 281.647 88.68 282.533 90.1647C283.419 91.6494 283.862 93.3496 283.862 95.2653C283.862 97.1811 283.419 98.8813 282.533 100.366C281.647 101.851 280.425 103.024 278.869 103.886C277.336 104.748 275.576 105.179 273.588 105.179ZM273.588 100.222C274.451 100.222 275.217 100.007 275.887 99.5757C276.558 99.1447 277.085 98.558 277.468 97.8157C277.851 97.0733 278.031 96.2232 278.007 95.2653C278.031 94.3075 277.851 93.4574 277.468 92.715C277.085 91.9487 276.558 91.3501 275.887 90.919C275.217 90.488 274.451 90.2725 273.588 90.2725C272.726 90.2725 271.948 90.488 271.254 90.919C270.583 91.3501 270.056 91.9487 269.673 92.715C269.29 93.4574 269.11 94.3075 269.134 95.2653C269.11 96.2232 269.29 97.0733 269.673 97.8157C270.056 98.558 270.583 99.1447 271.254 99.5757C271.948 100.007 272.726 100.222 273.588 100.222ZM287.62 104.82V85.7465H293.08L293.331 91.9607L292.253 90.7753C292.541 89.7456 293.008 88.8237 293.654 88.0095C294.325 87.1953 295.103 86.5488 295.989 86.0698C296.875 85.5909 297.821 85.3514 298.827 85.3514C299.258 85.3514 299.653 85.3873 300.012 85.4592C300.395 85.531 300.743 85.6148 301.054 85.7106L299.473 92.0685C299.21 91.9008 298.851 91.7691 298.396 91.6733C297.965 91.5536 297.51 91.4937 297.031 91.4937C296.504 91.4937 296.013 91.5895 295.558 91.7811C295.103 91.9487 294.72 92.2002 294.409 92.5354C294.097 92.8707 293.846 93.2658 293.654 93.7208C293.487 94.1758 293.403 94.6906 293.403 95.2653V104.82H287.62ZM327.756 105.179C325.745 105.179 323.925 104.856 322.297 104.209C320.668 103.563 319.267 102.653 318.094 101.48C316.921 100.306 316.023 98.9292 315.4 97.3487C314.777 95.7443 314.466 94.0081 314.466 92.1403C314.466 90.2725 314.789 88.5603 315.436 87.0037C316.106 85.4233 317.052 84.0463 318.274 82.8729C319.495 81.6996 320.932 80.7896 322.584 80.143C324.26 79.4965 326.08 79.1732 328.044 79.1732C329.433 79.1732 330.738 79.3528 331.959 79.712C333.204 80.0712 334.33 80.5621 335.336 81.1847C336.341 81.8073 337.191 82.5257 337.886 83.3399L334.186 87.2552C333.587 86.6805 332.965 86.2015 332.318 85.8184C331.696 85.4352 331.025 85.1359 330.307 84.9204C329.588 84.6809 328.822 84.5612 328.008 84.5612C326.954 84.5612 325.984 84.7528 325.098 85.1359C324.236 85.5191 323.47 86.0579 322.799 86.7523C322.153 87.4228 321.65 88.225 321.291 89.1589C320.932 90.0689 320.752 91.0627 320.752 92.1403C320.752 93.2179 320.944 94.2237 321.327 95.1576C321.71 96.0915 322.237 96.9057 322.907 97.6001C323.578 98.2707 324.368 98.8095 325.278 99.2165C326.212 99.5997 327.206 99.7913 328.259 99.7913C329.002 99.7913 329.696 99.6715 330.343 99.4321C331.013 99.1926 331.588 98.8693 332.067 98.4622C332.546 98.0551 332.929 97.5762 333.216 97.0254C333.504 96.4507 333.647 95.8401 333.647 95.1935V94.2596L334.438 95.4809H327.505V90.7035H339.323C339.371 90.9669 339.406 91.3261 339.43 91.7811C339.454 92.2361 339.466 92.6791 339.466 93.1101C339.49 93.5412 339.502 93.8645 339.502 94.08C339.502 95.7084 339.203 97.205 338.604 98.57C338.03 99.911 337.215 101.072 336.162 102.054C335.108 103.036 333.863 103.802 332.426 104.353C330.989 104.904 329.433 105.179 327.756 105.179ZM352.549 105.179C350.562 105.179 348.79 104.748 347.233 103.886C345.701 103.024 344.479 101.851 343.569 100.366C342.683 98.8813 342.24 97.1811 342.24 95.2653C342.24 93.3496 342.683 91.6494 343.569 90.1647C344.479 88.68 345.701 87.5066 347.233 86.6445C348.79 85.7825 350.562 85.3514 352.549 85.3514C354.537 85.3514 356.297 85.7825 357.83 86.6445C359.386 87.5066 360.607 88.68 361.493 90.1647C362.379 91.6494 362.822 93.3496 362.822 95.2653C362.822 97.1811 362.379 98.8813 361.493 100.366C360.607 101.851 359.386 103.024 357.83 103.886C356.297 104.748 354.537 105.179 352.549 105.179ZM352.549 100.222C353.411 100.222 354.178 100.007 354.848 99.5757C355.519 99.1447 356.046 98.558 356.429 97.8157C356.812 97.0733 356.991 96.2232 356.968 95.2653C356.991 94.3075 356.812 93.4574 356.429 92.715C356.046 91.9487 355.519 91.3501 354.848 90.919C354.178 90.488 353.411 90.2725 352.549 90.2725C351.687 90.2725 350.909 90.488 350.215 90.919C349.544 91.3501 349.017 91.9487 348.634 92.715C348.251 93.4574 348.071 94.3075 348.095 95.2653C348.071 96.2232 348.251 97.0733 348.634 97.8157C349.017 98.558 349.544 99.1447 350.215 99.5757C350.909 100.007 351.687 100.222 352.549 100.222ZM375.561 105.179C373.573 105.179 371.801 104.748 370.244 103.886C368.712 103.024 367.491 101.851 366.581 100.366C365.695 98.8813 365.252 97.1811 365.252 95.2653C365.252 93.3496 365.695 91.6494 366.581 90.1647C367.491 88.68 368.712 87.5066 370.244 86.6445C371.801 85.7825 373.573 85.3514 375.561 85.3514C377.548 85.3514 379.308 85.7825 380.841 86.6445C382.397 87.5066 383.619 88.68 384.505 90.1647C385.391 91.6494 385.834 93.3496 385.834 95.2653C385.834 97.1811 385.391 98.8813 384.505 100.366C383.619 101.851 382.397 103.024 380.841 103.886C379.308 104.748 377.548 105.179 375.561 105.179ZM375.561 100.222C376.423 100.222 377.189 100.007 377.859 99.5757C378.53 99.1447 379.057 98.558 379.44 97.8157C379.823 97.0733 380.003 96.2232 379.979 95.2653C380.003 94.3075 379.823 93.4574 379.44 92.715C379.057 91.9487 378.53 91.3501 377.859 90.919C377.189 90.488 376.423 90.2725 375.561 90.2725C374.699 90.2725 373.92 90.488 373.226 90.919C372.555 91.3501 372.028 91.9487 371.645 92.715C371.262 93.4574 371.083 94.3075 371.107 95.2653C371.083 96.2232 371.262 97.0733 371.645 97.8157C372.028 98.558 372.555 99.1447 373.226 99.5757C373.92 100.007 374.699 100.222 375.561 100.222ZM396.812 105.215C395.159 105.215 393.687 104.796 392.394 103.958C391.124 103.096 390.119 101.923 389.376 100.438C388.634 98.9292 388.263 97.217 388.263 95.3013C388.263 93.3855 388.634 91.6853 389.376 90.2006C390.119 88.692 391.136 87.5066 392.43 86.6445C393.723 85.7825 395.207 85.3514 396.884 85.3514C397.746 85.3514 398.572 85.4831 399.362 85.7465C400.152 86.01 400.871 86.3692 401.517 86.8241C402.164 87.2791 402.691 87.806 403.098 88.4046C403.505 88.9793 403.744 89.578 403.816 90.2006L402.451 90.5239V78.2393H408.234V104.82H402.882L402.559 100.474L403.708 100.653C403.637 101.252 403.397 101.827 402.99 102.378C402.607 102.928 402.104 103.419 401.481 103.85C400.859 104.257 400.14 104.581 399.326 104.82C398.536 105.083 397.698 105.215 396.812 105.215ZM398.284 100.438C399.171 100.438 399.937 100.222 400.583 99.7913C401.23 99.3602 401.721 98.7616 402.056 97.9953C402.415 97.229 402.595 96.331 402.595 95.3013C402.595 94.2476 402.415 93.3376 402.056 92.5713C401.721 91.8051 401.23 91.2064 400.583 90.7753C399.937 90.3443 399.171 90.1288 398.284 90.1288C397.398 90.1288 396.632 90.3443 395.986 90.7753C395.363 91.2064 394.872 91.8051 394.513 92.5713C394.154 93.3376 393.974 94.2476 393.974 95.3013C393.974 96.331 394.154 97.229 394.513 97.9953C394.872 98.7616 395.363 99.3602 395.986 99.7913C396.632 100.222 397.398 100.438 398.284 100.438Z" fill="white"/>
<path d="M48.2599 35.19C56.3177 35.19 62.8499 28.6578 62.8499 20.6C62.8499 12.5422 56.3177 6.01001 48.2599 6.01001C40.2021 6.01001 33.6699 12.5422 33.6699 20.6C33.6699 28.6578 40.2021 35.19 48.2599 35.19Z" fill="white"/>
<path d="M103.27 29.18C111.328 29.18 117.86 22.6478 117.86 14.59C117.86 6.53216 111.328 0 103.27 0C95.2124 0 88.6802 6.53216 88.6802 14.59C88.6802 22.6478 95.2124 29.18 103.27 29.18Z" fill="white"/>
<path d="M142.38 119.02L126.59 116.45C129.89 96.65 118.35 70.0701 110.35 60.8501C108.05 58.2001 102.6 54.5001 94.07 57.8101C90 59.3901 86.09 61.9401 82.49 65.0601C88.82 78.4401 90.25 96.6601 84.89 107.9C81.29 115.44 74.78 119.73 66.96 119.73C66.79 119.73 66.63 119.73 66.46 119.73C56.15 119.49 48.97 113.67 47.26 104.16C45.15 92.4401 51.56 76.6901 61.86 63.8101C60.18 62.8301 43.96 59.2101 37.46 63.3801C18.2 75.7201 15.6 103.96 16 116.15V116.75H0C0 116.75 4.98004 81.5 15.54 64.39C21.47 54.78 26.8 51.0501 34.77 48.2801C42.73 45.5101 67.3 47.7201 73.03 52.3501C77.82 48.3701 82.97 45.1601 88.21 43.1301C102.42 37.6101 111.58 41.3701 116.76 45.4901C136.85 61.5101 143.96 109.55 142.38 119.02ZM70.59 78.9901C65.14 87.4701 62.09 96.2501 63.01 101.38C63.27 102.82 63.46 103.86 66.84 103.94C67.78 103.97 69.07 103.99 70.41 101.17C72.9 95.96 72.69 86.9901 70.59 78.9901Z" fill="white"/>
</svg>
