<svg width="250" height="89" viewBox="0 0 250 89" fill="none" xmlns="http://www.w3.org/2000/svg">
<path d="M21 0.235352C27.2 0.235352 32.08 2.11549 35.63 5.87549C39.25 2.11549 44.1299 0.235352 50.2599 0.235352C57.02 0.235352 62.19 2.41538 65.78 6.76538C69.37 11.1154 71.16 17.1954 71.16 25.0054V52.5154H58.62V21.7654C58.62 18.2854 57.75 15.7355 56.0099 14.1355C54.2699 12.5355 52.3499 11.7354 50.2599 11.7354C48.1699 11.7354 46.15 12.5355 44.41 14.1355C42.67 15.7355 41.8 18.2854 41.8 21.7654V52.5154H29.36V21.7654C29.36 18.2854 28.49 15.7355 26.75 14.1355C25.01 12.5355 23.09 11.7354 21 11.7354C18.91 11.7354 16.89 12.5355 15.15 14.1355C13.41 15.7355 12.54 18.2854 12.54 21.7654V52.5154H0V25.0054C0 17.2054 1.80999 11.1254 5.42999 6.76538C9.04999 2.41538 14.24 0.235352 21 0.235352Z" fill="#FFFEFF"/>
<path d="M179.73 0.235352C179.73 0.235352 167.8 28.3055 163.84 37.6355C163.37 38.7555 161.79 38.7555 161.31 37.6355C157.35 28.3055 145.42 0.235352 145.42 0.235352H132.41L151.49 45.1455C155.65 54.9255 169.51 54.9255 173.66 45.1455L192.74 0.235352H179.73Z" fill="#FFFEFF"/>
<path d="M103.63 52.5154C95.9 52.5154 89.9399 50.3354 85.7599 45.9854C81.5799 41.6354 79.49 35.5554 79.49 27.7454V0.235352H92.03V29.5254C92.03 33.0054 93.11 35.7955 95.27 37.8855C97.43 39.9755 100.22 41.0254 103.63 41.0254C107.04 41.0254 109.83 39.9755 111.99 37.8855C114.15 35.7955 115.23 33.0054 115.23 29.5254V0.235352H127.77V27.7454C127.77 35.5454 125.68 41.6254 121.5 45.9854C117.32 50.3454 111.36 52.5154 103.63 52.5154Z" fill="#FFFEFF"/>
<path d="M219.57 52.2854C218.83 52.2854 218.1 52.2553 217.37 52.2053C209.12 51.5953 202.81 47.5455 199.59 40.8255C199.36 40.3455 199.14 39.8655 198.94 39.3755C192.27 40.1455 187.28 40.0855 186.82 40.0755L187.01 28.8054C187.01 28.8054 191.17 28.8554 196.75 28.2754C196.82 22.0454 199.04 15.9354 203.32 10.7254C210.22 2.33536 221.08 -1.70444 230.35 0.675559C234.55 1.75556 237.69 5.21533 238.55 9.69533C240.4 19.3353 231.33 27.1454 227.34 30.0554C222.57 33.5354 216.53 35.8154 210.58 37.2954C212.17 39.4654 214.73 40.6853 218.23 40.9453C226.16 41.5353 235.88 36.8354 240.35 30.2354L249.68 36.5554C243.35 45.8954 230.99 52.2654 219.59 52.2654L219.57 52.2854ZM224.83 11.2754C220.37 11.2754 215.41 13.7555 212.02 17.8955C210.8 19.3755 208.79 22.3455 208.18 26.3155C213.42 24.9855 217.67 23.1754 220.68 20.9754C226.66 16.6154 227.49 13.3854 227.49 12.4954C227.49 11.2854 225.71 11.2854 224.83 11.2854V11.2754Z" fill="#FFFEFF"/>
<path d="M133.79 85.3755C133.83 84.8955 133.87 84.4553 133.91 83.9353C134.15 77.2953 134.67 70.4554 135.31 63.8154V63.1355C135.31 61.9755 135.31 60.6555 136.91 60.6555C138.51 60.6555 142.71 62.1754 143.71 62.8154C145.87 64.0554 146.95 65.9354 146.95 68.0554C146.95 70.9754 145.39 72.8554 142.99 74.2554C142.47 74.5754 141.99 74.8954 141.51 75.2554C142.47 75.8154 143.07 77.0153 143.47 77.9753C143.67 78.6953 143.83 79.4155 143.83 80.1355C143.83 83.6555 140.79 86.6153 137.59 87.9353C136.51 88.3753 135.71 88.5754 135.15 88.5754C133.99 88.5754 133.71 87.8554 133.71 86.7754C133.71 86.3354 133.75 85.8955 133.79 85.3755ZM136.67 84.3755C136.67 84.3755 136.79 84.3354 136.83 84.3354L136.67 84.3755ZM140.59 80.0154C140.59 79.4554 140.39 78.9355 140.03 78.3755C139.67 77.9755 138.39 77.0153 137.67 76.9753C137.59 77.0153 137.51 77.0955 137.47 77.1755C137.27 79.4955 137.15 81.8553 137.15 84.2153C138.83 83.4953 140.59 81.8154 140.59 80.0154ZM138.39 64.8955V65.8955L138.15 68.2954C137.99 69.5754 137.83 70.8555 137.75 72.0955V72.6953C137.75 72.8553 137.75 73.0154 137.83 73.0154C137.95 73.0154 138.23 72.9755 138.43 72.8955C140.51 72.2955 143.71 70.3754 143.71 68.0154C143.71 67.6554 143.67 67.2555 143.51 66.8955C143.07 66.0955 141.39 65.3354 140.47 65.0554C140.27 64.9354 138.75 64.5754 138.35 64.4954C138.35 64.5354 138.39 64.6955 138.39 64.8955Z" fill="#FFFEFF"/>
<path d="M156.99 84.7654C156.99 82.9254 156.31 78.9655 155.15 77.8455C154.67 77.4455 154.15 77.3254 153.55 77.3254C153.39 77.4854 153.07 79.7255 152.91 80.9255C152.87 81.2055 152.83 81.4454 152.79 81.5654C152.75 81.9254 152.71 82.4055 152.67 82.9255C152.59 84.2455 152.47 85.8855 152.11 86.6055C151.79 87.2055 151.07 87.5254 150.47 87.5254C149.79 87.5254 149.19 87.1654 149.07 86.2854C149.27 83.2854 149.71 80.2055 150.15 77.1655C150.43 75.3655 150.71 73.6054 150.91 71.8054C150.95 71.4454 150.99 70.8455 151.03 70.1255C151.19 67.9255 151.39 64.6854 151.95 64.0054C152.51 63.3254 154.75 63.0054 155.71 63.0054C159.31 63.0054 161.51 65.0454 161.51 68.5654C161.51 71.3654 159.71 73.8453 157.39 75.4453C159.63 77.8453 160.43 82.9654 160.43 86.2454C160.43 87.0854 160.35 87.7254 160.11 88.0454C159.79 88.4054 159.23 88.6055 158.75 88.6055C158.31 88.6055 157.87 88.4453 157.63 88.2053C157.11 87.6853 157.03 86.0454 156.99 84.7654ZM154.71 66.5354C154.71 66.5354 154.55 67.3354 154.51 67.5354C154.31 69.0954 154.07 71.4553 154.03 72.9353V73.0554C154.03 73.2554 154.11 73.3755 154.19 73.3755C155.67 73.3755 158.03 70.4555 158.23 69.1755V68.6555C158.23 66.8155 157.47 66.3354 155.79 66.3354C155.31 66.3354 154.87 66.3754 154.75 66.5354H154.71Z" fill="#FFFEFF"/>
<path d="M166.47 63.2153C166.47 61.8553 167.75 61.6953 168.83 61.6953C169.35 61.6953 169.91 61.7354 170.35 61.7754C170.71 61.7754 170.99 61.8154 171.23 61.8154H171.35C171.71 61.7754 172.51 61.6554 173.27 61.5754C174.35 61.4154 175.59 61.2153 176.47 61.2153C176.87 61.2153 177.15 61.2555 177.35 61.3755C177.95 61.6555 178.23 62.1354 178.23 62.7354C178.23 64.1754 176.95 64.4154 175.83 64.5354C175.15 64.5754 174.51 64.6153 174.35 65.4553C173.99 67.8153 173.79 70.4955 173.63 73.0955C173.51 75.2955 173.31 77.4953 172.99 79.6953C172.79 81.0553 172.59 82.4954 172.59 83.7754C172.59 84.0954 172.59 84.4153 172.63 84.6953C172.67 85.0153 172.83 85.0554 173.11 85.0554C173.31 85.0554 173.51 85.0555 173.79 85.0955C174.51 85.3355 174.99 86.0554 174.99 86.7354C174.99 87.2154 174.75 87.6553 174.31 87.9753C173.87 88.3353 172.75 88.4155 171.63 88.4155C171.39 88.4155 171.07 88.3755 170.79 88.3755H170.19C169.87 88.3755 169.59 88.4153 169.23 88.4553C168.75 88.4953 168.23 88.5754 167.71 88.5754C166.55 88.5754 165.55 88.2553 165.55 86.9753V86.8154C165.67 85.4154 166.87 85.3354 167.99 85.2954C168.63 85.2554 169.23 85.1755 169.35 84.8555C169.43 84.5755 169.43 84.0955 169.43 83.6555V82.2954C169.43 82.0154 169.43 81.6154 169.47 81.3354C169.67 79.2954 169.91 77.1355 170.15 75.0955C170.51 72.1755 170.83 69.2554 171.07 66.2954V65.6155C171.07 65.3355 171.11 65.0955 171.27 65.0955H169.59C168.95 65.0955 168.35 65.0953 167.91 64.9753C167.11 64.8153 166.47 64.0553 166.47 63.2153Z" fill="#FFFEFF"/>
<path d="M189.03 75.4553C189.47 75.1353 192.59 74.3754 193.39 74.2554L193.63 74.2153C194.27 74.0553 195.31 73.8955 196.19 73.8955C197.07 73.8955 197.95 74.0954 198.23 74.8154C198.39 75.0954 198.43 75.3354 198.43 75.5354C198.43 76.3754 197.83 76.6955 197.27 77.0955C197.03 77.2555 196.79 77.4154 196.63 77.5754C196.27 78.0554 195.79 79.0954 195.31 80.0554C193.91 83.0954 190.83 88.5754 187.27 88.5754C182.83 88.5754 182.23 82.4153 182.23 79.2153C182.23 75.5353 182.91 71.6155 183.63 69.6155C184.91 66.0955 188.31 61.2954 192.47 61.2954C192.63 61.2954 192.83 61.2954 192.99 61.3354C194.35 61.4554 197.15 63.0553 197.15 64.6953C197.15 65.4953 196.51 66.3755 195.67 66.3755C195.03 66.3755 194.55 65.8955 194.03 65.4155C193.63 65.0555 193.23 64.6554 192.87 64.5754C190.91 64.5754 189.11 66.1354 188.11 67.7754C186.43 70.4554 185.55 75.2953 185.55 79.2153C185.55 80.3753 185.71 85.2554 187.27 85.2554C188.27 85.2554 189.63 83.4154 190.63 81.7754C190.91 81.2954 192.51 78.3754 192.71 77.8154C192.51 77.8154 192.19 77.8953 191.83 77.9753C191.31 78.1353 190.75 78.2954 190.19 78.2954C189.23 78.2954 188.43 77.7353 188.43 76.6953C188.43 76.2953 188.67 75.8153 189.03 75.4553Z" fill="#FFFEFF"/>
<path d="M223.26 78.1355L207.1 79.2554C207.02 79.3354 206.94 79.5354 206.9 79.7354C206.62 80.8554 206.58 82.1754 206.5 83.5354C206.42 84.9354 206.34 86.2953 206.02 87.4553C205.78 88.1753 205.18 88.5754 204.54 88.5754C203.74 88.5754 202.94 87.9754 202.82 86.8154C202.78 86.6554 202.78 86.4554 202.78 86.2954C202.78 85.5354 202.9 84.6155 203.06 83.6555C203.14 82.8155 203.26 82.0154 203.3 81.2954C203.3 81.1354 203.34 80.4953 203.34 79.9753V79.6155C202.1 79.6155 200.98 79.5753 200.98 77.9753V77.9353C201.02 76.6153 201.94 76.4954 202.78 76.3354C203.22 76.2954 203.66 76.2153 203.74 75.9353C203.78 75.4153 203.78 74.9355 203.78 74.3755C203.86 72.8555 203.98 71.3355 204.18 69.8555C204.34 68.6555 204.5 67.3754 204.58 66.2554C204.58 66.0154 204.5 65.7354 204.46 65.5754C204.42 65.2954 204.38 65.0554 204.38 64.7754C204.38 63.8554 205.22 62.8154 206.18 62.8154C207.14 62.8154 207.98 63.6154 207.98 64.8154V64.8555C207.98 66.2155 207.78 67.8154 207.54 69.2954C207.42 70.2554 207.26 71.1754 207.18 72.0554C207.1 73.2954 207.06 74.5755 207.02 75.8555C207.1 75.9355 207.38 75.9353 207.66 75.9353C207.9 75.9353 208.18 75.9355 208.34 75.8955H208.54C209.86 75.8555 211.1 75.6954 212.38 75.5354C214.42 75.2954 216.38 75.2155 218.42 75.1355C220.02 75.0555 221.62 75.0154 223.18 74.8154C223.5 74.7754 223.74 74.6154 223.82 74.2554L224.66 64.2554C224.9 63.2954 225.58 62.9353 226.26 62.9353C227.18 62.9353 228.02 63.5753 228.02 64.6953C228.02 65.6553 227.86 66.7755 227.66 67.8555C227.54 68.4955 227.46 69.1354 227.38 69.7354C227.3 70.8154 227.26 71.9754 227.18 73.0554C227.1 74.7754 226.98 76.4555 226.78 78.0955C226.74 78.4155 226.7 78.8153 226.66 79.2153C226.5 81.1353 226.22 83.7755 225.82 85.1355C225.54 86.1355 224.9 86.5754 224.22 86.5754C223.62 86.5754 223.02 86.1354 222.58 85.2554L223.34 78.5354L223.26 78.1355Z" fill="#FFFEFF"/>
<path d="M234.47 85.9653C234.55 83.1253 234.99 79.6455 235.35 76.6055C235.47 75.8055 235.59 75.0454 235.67 74.3254C235.71 73.9654 235.83 73.2054 235.99 72.2454C236.39 69.8054 236.95 66.1654 236.95 65.2454V65.2053H236.63C236.19 65.2053 235.51 65.3255 234.99 65.4055C234.55 65.5255 234.19 65.5654 233.95 65.5654C232.79 65.5654 232.03 64.7255 232.03 63.8455C232.03 63.1655 232.51 62.4855 233.59 62.1255C235.39 61.6055 238.03 61.4054 240.35 61.2854C241.15 61.2054 241.91 61.1655 242.55 61.1255C242.87 61.0855 243.27 61.0055 243.63 60.9255C244.43 60.8055 245.27 60.6455 246.07 60.6455C247.19 60.6455 248.39 61.0855 248.39 62.4055C248.39 63.0455 247.95 63.6853 247.27 63.9653C246.55 64.2053 245.39 64.3255 244.27 64.3655C242.87 64.4855 241.43 64.6053 240.83 64.9653C240.75 65.0453 240.67 65.1653 240.63 65.2053C239.35 71.6853 238.71 78.4053 238.07 84.9653C237.99 85.6453 237.95 86.3254 237.91 87.0054C237.71 88.0454 236.99 88.5654 236.27 88.5654C235.35 88.5654 234.47 87.7254 234.47 86.0854V85.9653Z" fill="#FFFEFF"/>
</svg>
