<svg width="220" height="92" viewBox="0 0 220 92" fill="none" xmlns="http://www.w3.org/2000/svg">
<path d="M18.5099 0.171387C23.9699 0.171387 28.2699 1.83136 31.3999 5.14136C34.5899 1.82136 38.8899 0.171387 44.2899 0.171387C50.2399 0.171387 54.8 2.0914 57.96 5.9314C61.12 9.7714 62.7 15.1213 62.7 22.0013V46.2413H51.6499V19.1414C51.6499 16.0714 50.88 13.8314 49.35 12.4214C47.81 11.0114 46.1299 10.3014 44.2899 10.3014C42.4499 10.3014 40.6699 11.0114 39.1299 12.4214C37.5899 13.8314 36.83 16.0714 36.83 19.1414V46.2413H25.87V19.1414C25.87 16.0714 25.0999 13.8314 23.5699 12.4214C22.0299 11.0114 20.3499 10.3014 18.5099 10.3014C16.6699 10.3014 14.89 11.0114 13.35 12.4214C11.82 13.8314 11.0499 16.0714 11.0499 19.1414V46.2413H0V22.0013C0 15.1213 1.59992 9.7714 4.78992 5.9314C7.97992 2.0914 12.5599 0.171387 18.5099 0.171387Z" fill="#FFFEFF"/>
<path d="M158.38 0.171387C158.38 0.171387 147.87 24.9113 144.38 33.1213C143.96 34.1013 142.57 34.1013 142.15 33.1213C138.66 24.9013 128.15 0.171387 128.15 0.171387H116.68L133.49 39.7513C137.15 48.3713 149.37 48.3713 153.03 39.7513L169.84 0.171387H158.37H158.38Z" fill="#FFFEFF"/>
<path d="M91.3298 46.2413C84.5198 46.2413 79.2698 44.3213 75.5798 40.4813C71.8998 36.6413 70.0498 31.2914 70.0498 24.4114V0.171387H81.0999V25.9813C81.0999 29.0513 82.0498 31.5113 83.9498 33.3513C85.8498 35.1913 88.3098 36.1113 91.3198 36.1113C94.3298 36.1113 96.7798 35.1913 98.6898 33.3513C100.59 31.5113 101.54 29.0513 101.54 25.9813V0.171387H112.59V24.4114C112.59 31.2914 110.75 36.6413 107.06 40.4813C103.38 44.3213 98.1298 46.2413 91.3098 46.2413H91.3298Z" fill="#FFFEFF"/>
<path d="M193.49 46.0513C192.84 46.0513 192.19 46.0313 191.55 45.9813C184.28 45.4413 178.72 41.8812 175.88 35.9512C175.68 35.5312 175.49 35.1013 175.31 34.6813C169.44 35.3613 165.04 35.3013 164.63 35.3013L164.8 25.3713C164.8 25.3713 168.47 25.4213 173.38 24.9113C173.44 19.4213 175.4 14.0412 179.17 9.45123C185.25 2.05123 194.82 -1.50874 202.99 0.601258C206.69 1.55126 209.46 4.60133 210.21 8.55133C211.84 17.0513 203.84 23.9213 200.33 26.4913C196.12 29.5613 190.8 31.5613 185.56 32.8713C186.96 34.7813 189.22 35.8612 192.3 36.0912C199.28 36.6112 207.85 32.4613 211.79 26.6513L220.01 32.2213C214.43 40.4513 203.54 46.0613 193.5 46.0613L193.49 46.0513ZM198.12 9.91132C194.19 9.91132 189.82 12.1013 186.83 15.7413C185.76 17.0513 183.98 19.6613 183.45 23.1613C188.07 21.9913 191.81 20.3912 194.47 18.4612C199.74 14.6212 200.47 11.7713 200.47 10.9813C200.47 9.91126 198.9 9.91132 198.13 9.91132H198.12Z" fill="#FFFEFF"/>
<path d="M134.82 83.3014C130.77 83.3014 128.9 81.3613 128.51 77.2413C128.23 74.3513 128.65 71.1413 128.9 68.2513C129.22 64.6513 129.68 59.3013 130.17 55.7713C130.42 55.7713 130.63 55.7313 130.84 55.7013C131.09 55.6613 132.25 55.8813 132.53 55.8813C133.2 55.9213 133.87 55.9513 134.57 55.9913C134.53 56.0613 134.5 56.1314 134.5 56.1714C134.04 59.5914 133.58 64.7714 133.3 68.1914C133.09 70.5914 132.74 73.2313 132.81 75.5913C132.81 76.2213 132.88 78.0214 133.34 78.4414C133.59 78.6914 134.47 78.7213 134.86 78.7213C136.69 78.7213 138.56 78.3313 140.36 77.9813C140.61 77.9413 140.82 77.9413 141.03 78.0213C141.1 78.2713 141.14 78.4813 141.17 78.6213C141.24 79.0813 141.24 79.5714 141.31 80.0313C141.35 80.4513 141.42 80.8413 141.49 81.2613C141.56 81.5413 141.63 81.8213 141.67 82.1413C140.75 82.8813 136.03 83.3014 134.83 83.3014H134.82Z" fill="#FFFEFF"/>
<path d="M172.18 71.0414L172.29 71.1113C171.2 72.8713 168.27 73.8914 166.3 73.8914C165.1 73.8914 164.01 73.5713 163.06 72.8713C162.6 74.4613 162.04 76.0114 161.4 77.5214C160.73 79.2514 159.43 82.0713 157.24 82.0713C156.78 82.0713 156.25 81.8913 155.9 81.5813C154.21 80.2413 153.57 76.3614 153.29 74.3914C153.08 74.9914 152.87 75.5213 152.59 75.9813C151.25 78.2713 148.78 82.0813 145.72 82.0813C143.32 82.0813 142.3 79.5813 141.88 77.6013C141.49 75.6613 141.49 73.6514 141.56 71.6814C141.67 69.5314 141.91 67.3813 142.16 65.2313C142.2 64.6313 142.3 64.0014 142.48 63.4314C143.68 63.4314 144.84 63.2914 146 63.1514C146.04 63.4014 146.04 63.6113 146 63.8613C145.79 67.1013 145.3 70.3813 145.37 73.6213C145.37 74.7113 145.58 77.1414 146.36 78.0314C146.82 78.4514 148.37 76.3713 148.93 75.6013C150.06 74.0113 152.03 70.3113 152.35 65.9813C152.24 65.1713 152.14 64.3214 152.1 63.5114C152.1 63.1914 152.1 62.8813 152.14 62.5913C152.95 62.6313 153.76 62.6613 154.57 62.6313L155.77 62.5614C155.88 63.0514 155.95 63.5514 156.02 64.0414C156.44 67.3914 156.58 70.7414 157.22 74.0514C157.4 75.0014 157.57 75.9513 157.86 76.8713C159.23 73.7713 160.08 70.4213 160.68 67.0713V67.0013C160.72 65.8413 160.89 64.6714 161.03 63.5114C161.17 62.2114 161.77 60.9014 163.29 60.9014C163.96 60.9014 164.56 61.2913 164.77 62.1013C164.84 62.4213 164.81 62.7314 164.84 63.0514C164.84 64.3214 164.66 65.6214 164.45 66.8914C164.38 67.2814 164.73 68.4813 164.94 68.8313C165.26 69.4313 165.96 69.8213 166.63 69.8513C167.55 69.9513 168.46 69.6414 169.24 69.1514C169.38 69.0814 169.49 68.9014 169.63 68.8014C169.63 68.7614 169.67 68.7313 169.7 68.7313C169.91 68.9413 170.05 69.1913 170.3 69.3613C170.93 69.9213 171.57 70.5214 172.2 71.0514L172.18 71.0414ZM142.33 55.0713C142.68 54.0513 143.74 53.0314 144.83 53.0314C145.82 53.0314 146.66 53.7314 146.8 54.7614C146.87 55.3614 146.69 56.0314 146.38 56.5614C145.92 57.4114 144.94 58.2914 143.95 58.2914C143.81 58.2914 143.63 58.2513 143.49 58.2213C142.22 57.8013 141.9 56.3213 142.33 55.0813V55.0713Z" fill="#FFFEFF"/>
<path d="M172.46 82.5614C170.06 82.5614 169.04 80.0613 168.62 78.0813C168.23 76.1413 168.23 74.1314 168.3 72.1614C168.41 70.0114 168.65 67.8613 168.9 65.7113C168.94 65.1113 169.04 64.4814 169.22 63.9114C170.42 63.9114 171.58 63.7713 172.74 63.6313C172.78 63.8813 172.78 64.0913 172.74 64.3313C172.53 67.5713 172.04 70.8513 172.11 74.0913C172.11 75.1813 172.32 77.6113 173.1 78.5013C173.35 78.3913 173.52 78.2513 173.73 78.1113C175.84 76.4913 177.57 73.2114 178.49 70.8114C179.72 70.9214 180.08 71.2714 181.34 71.3014C180.88 73.8714 180.42 75.4213 178.91 77.6113C177.64 79.5113 174.96 82.5414 172.46 82.5414V82.5614ZM170.7 58.7814C170.56 58.7814 170.38 58.7413 170.24 58.7113C168.97 58.2913 168.65 56.8113 169.08 55.5713C169.43 54.5513 170.49 53.5314 171.58 53.5314C172.57 53.5314 173.41 54.2314 173.55 55.2614C173.62 55.8614 173.44 56.5314 173.13 57.0614C172.67 57.9114 171.69 58.7914 170.7 58.7914V58.7814Z" fill="#FFFEFF"/>
<path d="M191.99 82.0713C191.5 82.0713 191 81.9314 190.58 81.6814C189.88 81.3314 189.42 80.6214 189.1 79.9214C188.46 78.4814 188.29 76.8514 188.11 75.3014C187.86 73.1514 187.83 70.9713 187.62 68.8213C187.55 68.2213 187.48 67.5913 187.27 66.9913C185.79 68.0813 184.49 70.8313 183.96 72.4913C183.18 74.8213 182.9 77.2514 182.44 79.6414C182.44 79.8514 182.44 80.0614 182.41 80.2714V80.3413C182.41 80.5513 182.37 80.7614 182.34 80.9414H181.92C181.04 80.9814 180.12 81.0114 179.24 81.0514H178.92C178.64 80.0614 178.71 78.9714 178.64 77.9114C178.5 76.3214 178.39 74.7013 178.32 73.1213C178.25 71.1113 178.18 69.1013 178.04 67.0913C177.97 66.2113 177.86 65.3313 177.97 64.4813H179.49C179.88 64.4413 180.76 64.4414 181.57 64.4114C181.78 65.7814 181.89 67.1913 181.99 68.6013C183.15 66.3813 185.34 63.0013 188.09 63.0013C191.09 63.0013 191.33 67.0914 191.44 69.2714C191.58 71.3814 191.65 73.4614 191.9 75.5414C191.97 76.3914 192.11 77.2714 192.5 78.0414C192.54 78.0814 192.57 78.2213 192.61 78.2213C192.65 78.2613 192.75 78.1514 192.79 78.1514C193.11 77.9014 193.35 77.5513 193.6 77.2013C194.87 75.2313 195.61 72.9014 196.42 70.6814C196.81 70.6814 196.77 70.6814 197.12 70.6414C197.86 70.6414 198.42 70.5713 199.16 70.5013C199.09 72.1913 199.05 72.4413 198.84 73.2113C197.99 76.4213 195.92 82.0614 192 82.0614L191.99 82.0713Z" fill="#FFFEFF"/>
<path d="M204.29 91.1614C202.32 91.1614 199.96 90.3113 198.83 88.5913C198.05 87.3213 198.27 85.4514 199.36 84.4014C200.24 83.5514 201.26 82.8514 202.32 82.2914C203.94 81.4414 205.67 80.9513 207.32 80.2113C207.32 78.4513 207.32 76.6914 207.36 74.9214C206.2 77.0014 204.26 79.7813 202.11 80.9513C201.37 81.3413 200.42 81.5813 199.57 81.4813C197.88 81.1613 196.82 79.9613 196.29 78.3813C195.83 77.0113 195.73 75.4914 195.83 74.0514C196.15 69.2614 199.21 62.7013 204.82 62.7013C205.84 62.7413 207 63.1214 207.71 63.9014C207.78 63.9714 207.96 64.1514 207.99 64.0414C208.1 63.7214 208.2 63.3714 208.34 63.0514C209.71 63.0114 211.12 62.9414 212.53 62.9114C212.07 65.5214 211.61 68.1314 211.37 70.7714C211.12 73.2414 211.12 75.7014 211.12 78.1714C214.19 76.2714 215.1 74.2613 216.23 70.9813V70.9414C217.01 71.0814 218.03 71.1914 218.35 71.2614C218.84 71.3314 219.13 71.3713 219.62 71.3713C219.55 71.6913 219.34 72.0413 219.23 72.3613C217.75 76.5213 215.74 79.5514 211.09 82.2614C211.05 84.3414 210.95 86.5913 209.89 88.3613C208.62 90.4013 206.58 91.1814 204.29 91.1814V91.1614ZM200.66 77.4513C200.94 77.4113 201.54 76.8514 201.72 76.6414C204.01 74.2814 205.6 70.5414 206.72 67.5114C206.58 67.5114 206.44 67.4413 206.3 67.3713C205.95 67.1213 204.57 66.7413 204.12 66.7413C202.64 66.7413 201.48 68.1813 200.84 69.3513C199.96 71.0813 199.5 73.1214 199.64 75.0614C199.67 75.7614 199.78 76.5013 200.17 77.0713C200.28 77.2113 200.49 77.4913 200.66 77.4613V77.4513ZM204.96 87.1113C205.6 87.1113 206.3 87.0414 206.62 86.7614C207.11 86.3714 207.18 84.7514 207.22 84.1514C205.6 84.7814 203.8 85.2113 202.43 86.3313C202.82 86.6513 203.31 86.8613 203.77 87.0013C204.05 87.0713 204.51 87.1113 204.97 87.1113H204.96Z" fill="#FFFEFF"/>
</svg>
