<svg width="221" height="79" viewBox="0 0 221 79" fill="none" xmlns="http://www.w3.org/2000/svg">
<path d="M18.51 0.181152C23.97 0.181152 28.27 1.84112 31.4 5.15112C34.59 1.83112 38.8899 0.181152 44.2899 0.181152C50.2399 0.181152 54.8 2.10116 57.96 5.94116C61.12 9.78116 62.7 15.1312 62.7 22.0112V46.2512H51.65V19.1511C51.65 16.0811 50.88 13.8412 49.35 12.4312C47.81 11.0212 46.1299 10.3112 44.2899 10.3112C42.4499 10.3112 40.67 11.0212 39.13 12.4312C37.59 13.8412 36.83 16.0811 36.83 19.1511V46.2512H25.87V19.1511C25.87 16.0811 25.0999 13.8412 23.5699 12.4312C22.0299 11.0212 20.35 10.3112 18.51 10.3112C16.67 10.3112 14.89 11.0212 13.35 12.4312C11.82 13.8412 11.0499 16.0811 11.0499 19.1511V46.2512H0V22.0112C0 15.1312 1.59992 9.78116 4.78992 5.94116C7.97992 2.10116 12.56 0.181152 18.51 0.181152Z" fill="#FFFEFF"/>
<path d="M158.38 0.181152C158.38 0.181152 147.87 24.9212 144.38 33.1312C143.96 34.1112 142.57 34.1112 142.15 33.1312C138.66 24.9112 128.15 0.181152 128.15 0.181152H116.68L133.49 39.7612C137.15 48.3812 149.37 48.3812 153.03 39.7612L169.84 0.181152H158.37H158.38Z" fill="#FFFEFF"/>
<path d="M91.3301 46.2512C84.5201 46.2512 79.2701 44.3312 75.5801 40.4912C71.9001 36.6512 70.05 31.3011 70.05 24.4211V0.181152H81.1001V25.9912C81.1001 29.0612 82.0501 31.5212 83.9501 33.3612C85.8501 35.2012 88.3101 36.1212 91.3201 36.1212C94.3301 36.1212 96.7801 35.2012 98.6901 33.3612C100.59 31.5212 101.54 29.0612 101.54 25.9912V0.181152H112.59V24.4211C112.59 31.3011 110.75 36.6512 107.06 40.4912C103.38 44.3312 98.1301 46.2512 91.3101 46.2512H91.3301Z" fill="#FFFEFF"/>
<path d="M193.49 46.0512C192.84 46.0512 192.19 46.0313 191.55 45.9813C184.28 45.4413 178.72 41.8812 175.88 35.9512C175.68 35.5312 175.49 35.1012 175.31 34.6812C169.44 35.3612 165.04 35.3012 164.63 35.3012L164.8 25.3713C164.8 25.3713 168.47 25.4212 173.38 24.9112C173.44 19.4212 175.4 14.0412 179.17 9.45123C185.25 2.05123 194.82 -1.50874 202.99 0.601258C206.69 1.55126 209.46 4.60121 210.21 8.55121C211.84 17.0512 203.84 23.9213 200.33 26.4913C196.12 29.5613 190.8 31.5613 185.56 32.8713C186.96 34.7813 189.22 35.8612 192.3 36.0912C199.28 36.6112 207.85 32.4612 211.79 26.6512L220.01 32.2213C214.43 40.4513 203.54 46.0612 193.5 46.0612L193.49 46.0512ZM198.12 9.91119C194.19 9.91119 189.82 12.1013 186.83 15.7413C185.76 17.0513 183.98 19.6612 183.45 23.1612C188.07 21.9912 191.81 20.3912 194.47 18.4612C199.74 14.6212 200.47 11.7713 200.47 10.9813C200.47 9.91126 198.9 9.91119 198.13 9.91119H198.12Z" fill="#FFFEFF"/>
<path d="M149.93 78.5713L146.12 77.9413C146.92 73.1013 147 65.4413 144.7 63.5813C144.46 63.3813 143.71 62.7813 141.65 63.5913C140.67 63.9813 139.72 64.6014 138.86 65.3614C140.39 68.6414 140.73 73.0913 139.44 75.8413C138.57 77.6813 137 78.7313 135.11 78.7313C135.07 78.7313 135.03 78.7313 134.99 78.7313C132.5 78.6713 130.77 77.2513 130.36 74.9213C129.85 72.0513 131.4 68.2013 133.88 65.0513C133.47 64.8113 133.2 64.9013 133.04 64.9413C129.66 65.9813 127.7 74.0213 127.27 77.8513V78.0014H123.41V59.7714H127.27V65.1913C128.45 63.3413 129.96 61.8514 131.91 61.2514C133.54 60.7514 135.2 61.1114 136.58 62.2514C137.74 61.2814 138.98 60.4914 140.24 59.9914C143.67 58.6414 145.88 59.5613 147.13 60.5713C151.98 64.4913 150.32 76.2513 149.93 78.5713ZM135.98 68.7813C134.66 70.8513 133.93 73.0014 134.15 74.2614C134.21 74.6114 134.26 74.8714 135.07 74.8914C135.3 74.8914 135.61 74.9013 135.93 74.2113C136.53 72.9313 136.48 70.7413 135.97 68.7813H135.98Z" fill="#FFFEFF"/>
<path d="M153.32 78.0812V60.3912H157.5V78.0812H153.32ZM153.36 55.8412C153.36 54.6912 154.29 53.7612 155.44 53.7612C156.59 53.7612 157.52 54.6912 157.52 55.8412C157.52 56.9912 156.59 57.9211 155.44 57.9211C154.29 57.9211 153.36 56.9912 153.36 55.8412Z" fill="#FFFEFF"/>
<path d="M178.9 67.4014V78.0514H174.72V67.9714C174.72 63.9614 172.4 63.1115 170.46 63.1115C167.68 63.1115 164.86 65.0214 164.86 68.6814V78.0514H160.68V60.3615H164.86V63.3414C166.32 61.1714 168.7 60.0215 171.75 60.0215C175.01 60.0215 178.89 61.3014 178.89 67.4014H178.9Z" fill="#FFFEFF"/>
<path d="M200.36 53.3513V78.0813H196.18V75.1713C194.79 77.2713 192.53 78.4213 189.8 78.4213C184.69 78.4213 181.13 74.6513 181.13 69.2513C181.13 66.6513 181.99 64.3013 183.55 62.6213C185.12 60.9413 187.34 60.0114 189.8 60.0114C192.54 60.0114 194.79 61.1614 196.18 63.2614V53.3413H200.36V53.3513ZM196.18 69.2213C196.18 65.5113 194.06 63.1213 190.78 63.1213C187.5 63.1213 185.42 65.5213 185.42 69.2213C185.42 72.9213 187.52 75.3213 190.78 75.3213C194.04 75.3213 196.18 72.9213 196.18 69.2213Z" fill="#FFFEFF"/>
<path d="M219.84 72.8313C219.84 76.1713 216.42 78.4213 211.33 78.4213C207.66 78.4213 204.63 77.2713 202.79 75.2013L202.74 75.1414L205.64 73.1813L205.68 73.2313C206.83 74.6913 208.79 75.5013 211.21 75.5013C213.39 75.5013 215.74 74.8014 215.74 73.2714C215.74 71.8814 213.44 71.4013 210.77 70.8613C207.04 70.0913 202.81 69.2313 202.81 65.5913C202.81 62.3213 206.28 60.0312 211.25 60.0312C214.66 60.0312 217.47 61.1313 219.39 63.2213L219.44 63.2714L216.54 65.2714L216.5 65.2213C215.32 63.7613 213.37 62.9513 211.01 62.9513C208.65 62.9513 206.87 63.8213 206.87 65.0813C206.87 66.4613 209.14 66.9113 211.78 67.4413C215.37 68.1613 219.84 69.0513 219.84 72.8313Z" fill="#FFFEFF"/>
</svg>
