<svg width="251" height="86" viewBox="0 0 251 86" fill="none" xmlns="http://www.w3.org/2000/svg">
<path d="M21 0.225586C27.2 0.225586 32.08 2.10572 35.63 5.86572C39.25 2.10572 44.13 0.225586 50.26 0.225586C57.02 0.225586 62.19 2.40562 65.78 6.75562C69.37 11.1056 71.16 17.1856 71.16 24.9956V52.5056H58.62V21.7556C58.62 18.2756 57.75 15.7257 56.01 14.1257C54.27 12.5257 52.35 11.7256 50.26 11.7256C48.17 11.7256 46.15 12.5257 44.41 14.1257C42.67 15.7257 41.8 18.2756 41.8 21.7556V52.5056H29.36V21.7556C29.36 18.2756 28.49 15.7257 26.75 14.1257C25.01 12.5257 23.09 11.7256 21 11.7256C18.91 11.7256 16.89 12.5257 15.15 14.1257C13.41 15.7257 12.54 18.2756 12.54 21.7556V52.5056H0V24.9956C0 17.1956 1.80999 11.1156 5.42999 6.75562C9.04999 2.40562 14.24 0.225586 21 0.225586Z" fill="#FFFEFF"/>
<path d="M179.73 0.225586C179.73 0.225586 167.8 28.2957 163.84 37.6257C163.37 38.7457 161.79 38.7457 161.31 37.6257C157.35 28.2957 145.42 0.225586 145.42 0.225586H132.41L151.49 45.1357C155.65 54.9157 169.51 54.9157 173.66 45.1357L192.74 0.225586H179.73Z" fill="#FFFEFF"/>
<path d="M103.64 52.5056C95.91 52.5056 89.95 50.3256 85.77 45.9756C81.59 41.6256 79.5 35.5456 79.5 27.7356V0.225586H92.04V29.5156C92.04 32.9956 93.12 35.7857 95.28 37.8757C97.44 39.9657 100.23 41.0156 103.64 41.0156C107.05 41.0156 109.84 39.9657 112 37.8757C114.16 35.7857 115.24 32.9956 115.24 29.5156V0.225586H127.78V27.7356C127.78 35.5356 125.69 41.6156 121.51 45.9756C117.33 50.3356 111.37 52.5056 103.64 52.5056Z" fill="#FFFEFF"/>
<path d="M219.57 52.2856C218.83 52.2856 218.1 52.2556 217.37 52.2056C209.12 51.5956 202.81 47.5457 199.59 40.8257C199.36 40.3457 199.14 39.8657 198.94 39.3757C192.27 40.1457 187.28 40.0857 186.82 40.0757L187.01 28.8057C187.01 28.8057 191.17 28.8556 196.75 28.2756C196.82 22.0456 199.04 15.9356 203.32 10.7256C210.22 2.33558 221.08 -1.70446 230.35 0.675536C234.55 1.75554 237.69 5.21556 238.55 9.69556C240.4 19.3356 231.33 27.1457 227.34 30.0557C222.57 33.5357 216.53 35.8157 210.58 37.2957C212.17 39.4657 214.73 40.6856 218.23 40.9456C226.16 41.5356 235.88 36.8356 240.35 30.2356L249.68 36.5557C243.35 45.8957 230.99 52.2656 219.59 52.2656L219.57 52.2856ZM224.83 11.2756C220.37 11.2756 215.41 13.7558 212.02 17.8958C210.8 19.3757 208.79 22.3457 208.18 26.3157C213.42 24.9857 217.67 23.1756 220.68 20.9756C226.66 16.6156 227.49 13.3856 227.49 12.4956C227.49 11.2856 225.71 11.2856 224.83 11.2856V11.2756Z" fill="#FFFEFF"/>
<path d="M127.73 85.5657V64.5657H130.97V85.5657H127.73ZM129.14 76.6558V73.5356H142.88V76.6558H129.14ZM141.44 85.5657V64.5657H144.68V85.5657H141.44Z" fill="#FFFEFF"/>
<path d="M156.86 85.8657C155.32 85.8657 153.94 85.5157 152.74 84.8057C151.53 84.0957 150.57 83.1258 149.87 81.8958C149.17 80.6658 148.82 79.2655 148.82 77.6855C148.82 76.1055 149.17 74.6956 149.87 73.4656C150.57 72.2356 151.52 71.2657 152.74 70.5557C153.95 69.8457 155.32 69.4856 156.86 69.4856C158.4 69.4856 159.74 69.8457 160.95 70.5557C162.16 71.2657 163.12 72.2356 163.82 73.4656C164.52 74.6956 164.87 76.1055 164.87 77.6855C164.87 79.2655 164.52 80.6658 163.82 81.8958C163.12 83.1258 162.16 84.0957 160.95 84.8057C159.74 85.5157 158.37 85.8657 156.86 85.8657ZM156.86 83.0457C157.8 83.0457 158.64 82.8057 159.38 82.3357C160.12 81.8657 160.7 81.2258 161.12 80.4158C161.54 79.6058 161.74 78.6858 161.72 77.6658C161.74 76.6258 161.54 75.6957 161.12 74.8857C160.7 74.0757 160.12 73.4456 159.38 72.9756C158.64 72.5156 157.8 72.2856 156.86 72.2856C155.92 72.2856 155.07 72.5256 154.32 72.9956C153.57 73.4656 152.99 74.1058 152.57 74.9158C152.15 75.7258 151.95 76.6358 151.97 77.6658C151.95 78.6858 152.15 79.5958 152.57 80.4158C152.99 81.2258 153.57 81.8657 154.32 82.3357C155.07 82.8057 155.91 83.0457 156.86 83.0457Z" fill="#FFFEFF"/>
<path d="M168.23 85.5657V69.8157H171.35V74.7656L171.05 73.5657C171.27 72.8057 171.64 72.1156 172.17 71.4956C172.7 70.8756 173.31 70.3856 174 70.0256C174.69 69.6656 175.41 69.4856 176.15 69.4856C176.49 69.4856 176.82 69.5157 177.12 69.5757C177.43 69.6357 177.68 69.7056 177.86 69.7856L177.05 73.1458C176.81 73.0458 176.54 72.9658 176.25 72.8958C175.96 72.8258 175.67 72.7856 175.4 72.7856C174.86 72.7856 174.34 72.8957 173.86 73.1057C173.37 73.3157 172.94 73.6056 172.57 73.9756C172.2 74.3456 171.9 74.7756 171.69 75.2656C171.47 75.7556 171.36 76.2857 171.36 76.8657V85.5657H168.24H168.23Z" fill="#FFFEFF"/>
<path d="M182.33 66.3357C181.67 66.3357 181.16 66.1657 180.8 65.8257C180.44 65.4857 180.26 65.0057 180.26 64.3857C180.26 63.8057 180.45 63.3356 180.82 62.9756C181.19 62.6156 181.69 62.4355 182.33 62.4355C182.97 62.4355 183.5 62.6056 183.86 62.9456C184.22 63.2856 184.4 63.7657 184.4 64.3857C184.4 64.9657 184.21 65.4357 183.84 65.7957C183.47 66.1557 182.96 66.3357 182.33 66.3357ZM180.83 85.5657V69.8157H183.92V85.5657H180.83Z" fill="#FFFEFF"/>
<path d="M188 85.5657V82.9856L196.13 72.1257V72.4856H188V69.8157H199.49V72.3357L191.48 83.0457L191.36 82.8958H199.67V85.5657H188Z" fill="#FFFEFF"/>
<path d="M209.96 85.8657C208.42 85.8657 207.04 85.5157 205.84 84.8057C204.63 84.0957 203.67 83.1258 202.97 81.8958C202.27 80.6658 201.92 79.2655 201.92 77.6855C201.92 76.1055 202.27 74.6956 202.97 73.4656C203.67 72.2356 204.62 71.2657 205.84 70.5557C207.05 69.8457 208.42 69.4856 209.96 69.4856C211.5 69.4856 212.84 69.8457 214.05 70.5557C215.26 71.2657 216.22 72.2356 216.92 73.4656C217.62 74.6956 217.97 76.1055 217.97 77.6855C217.97 79.2655 217.62 80.6658 216.92 81.8958C216.22 83.1258 215.26 84.0957 214.05 84.8057C212.84 85.5157 211.47 85.8657 209.96 85.8657ZM209.96 83.0457C210.9 83.0457 211.74 82.8057 212.48 82.3357C213.22 81.8657 213.8 81.2258 214.22 80.4158C214.64 79.6058 214.84 78.6858 214.82 77.6658C214.84 76.6258 214.64 75.6957 214.22 74.8857C213.8 74.0757 213.22 73.4456 212.48 72.9756C211.74 72.5156 210.9 72.2856 209.96 72.2856C209.02 72.2856 208.17 72.5256 207.42 72.9956C206.67 73.4656 206.09 74.1058 205.67 74.9158C205.25 75.7258 205.05 76.6358 205.07 77.6658C205.05 78.6858 205.25 79.5958 205.67 80.4158C206.09 81.2258 206.67 81.8657 207.42 82.3357C208.17 82.8057 209.01 83.0457 209.96 83.0457Z" fill="#FFFEFF"/>
<path d="M221.33 85.5657V69.8157H224.42V73.0557L223.88 73.4158C224.08 72.7158 224.47 72.0756 225.05 71.4856C225.63 70.8956 226.32 70.4157 227.12 70.0457C227.92 69.6757 228.74 69.4956 229.58 69.4956C230.78 69.4956 231.78 69.7356 232.58 70.2056C233.38 70.6756 233.98 71.3857 234.38 72.3457C234.78 73.3057 234.98 74.5156 234.98 75.9756V85.5757H231.89V76.1855C231.89 75.2855 231.77 74.5356 231.53 73.9456C231.29 73.3556 230.92 72.9258 230.42 72.6558C229.92 72.3858 229.3 72.2757 228.56 72.3157C227.96 72.3157 227.41 72.4057 226.91 72.6057C226.41 72.7957 225.97 73.0658 225.6 73.3958C225.23 73.7258 224.94 74.1257 224.73 74.5757C224.52 75.0257 224.41 75.5156 224.41 76.0356V85.5757H221.32L221.33 85.5657Z" fill="#FFFEFF"/>
<path d="M244.43 85.8657C243.11 85.8657 241.92 85.6355 240.86 85.1755C239.8 84.7155 238.92 84.0357 238.22 83.1357L240.32 81.3357C240.92 82.0357 241.57 82.5457 242.28 82.8557C242.99 83.1657 243.8 83.3157 244.7 83.3157C245.06 83.3157 245.4 83.2755 245.7 83.1855C246.01 83.0955 246.28 82.9556 246.51 82.7756C246.74 82.5956 246.92 82.3857 247.03 82.1357C247.15 81.8857 247.21 81.6057 247.21 81.3057C247.21 80.7857 247.02 80.3657 246.64 80.0457C246.44 79.9057 246.13 79.7557 245.69 79.5757C245.26 79.4057 244.7 79.2357 244.02 79.0557C242.86 78.7557 241.91 78.4156 241.17 78.0356C240.43 77.6556 239.86 77.2256 239.46 76.7456C239.16 76.3656 238.94 75.9556 238.8 75.4956C238.66 75.0456 238.59 74.5556 238.59 74.0156C238.59 73.3556 238.73 72.7556 239.03 72.1956C239.32 71.6456 239.72 71.1656 240.23 70.7556C240.74 70.3456 241.34 70.0357 242.03 69.8057C242.72 69.5857 243.45 69.4756 244.24 69.4756C244.98 69.4756 245.71 69.5756 246.44 69.7756C247.17 69.9756 247.85 70.2658 248.47 70.6458C249.09 71.0258 249.61 71.4756 250.03 71.9956L248.26 73.9456C247.88 73.5656 247.47 73.2356 247.01 72.9456C246.56 72.6556 246.1 72.4356 245.64 72.2756C245.18 72.1156 244.76 72.0356 244.38 72.0356C243.96 72.0356 243.58 72.0758 243.24 72.1558C242.9 72.2358 242.61 72.3556 242.38 72.5156C242.15 72.6756 241.98 72.8757 241.86 73.1157C241.74 73.3557 241.68 73.6255 241.68 73.9255C241.7 74.1855 241.76 74.4258 241.88 74.6558C241.99 74.8858 242.14 75.0856 242.34 75.2356C242.56 75.3956 242.89 75.5656 243.33 75.7456C243.77 75.9256 244.33 76.0956 245.01 76.2556C246.01 76.5156 246.84 76.7957 247.49 77.1057C248.14 77.4157 248.65 77.7755 249.03 78.1755C249.43 78.5555 249.71 78.9956 249.87 79.4956C250.03 79.9956 250.11 80.5555 250.11 81.1755C250.11 82.0755 249.86 82.8857 249.34 83.5957C248.83 84.3057 248.14 84.8556 247.29 85.2656C246.43 85.6656 245.47 85.8657 244.41 85.8657H244.43Z" fill="#FFFEFF"/>
</svg>
