<svg width="221" height="79" viewBox="0 0 221 79" fill="none" xmlns="http://www.w3.org/2000/svg">
<path d="M18.51 0.181396C23.97 0.181396 28.27 1.84137 31.4 5.15137C34.59 1.83137 38.8899 0.181396 44.2899 0.181396C50.2399 0.181396 54.8 2.10141 57.96 5.94141C61.12 9.78141 62.7 15.1315 62.7 22.0115V46.2515H51.65V19.1514C51.65 16.0814 50.88 13.8414 49.35 12.4314C47.81 11.0214 46.1299 10.3113 44.2899 10.3113C42.4499 10.3113 40.67 11.0214 39.13 12.4314C37.59 13.8414 36.83 16.0814 36.83 19.1514V46.2515H25.87V19.1514C25.87 16.0814 25.0999 13.8414 23.5699 12.4314C22.0299 11.0214 20.35 10.3113 18.51 10.3113C16.67 10.3113 14.89 11.0214 13.35 12.4314C11.82 13.8414 11.0499 16.0814 11.0499 19.1514V46.2515H0V22.0115C0 15.1315 1.59992 9.78141 4.78992 5.94141C7.97992 2.10141 12.56 0.181396 18.51 0.181396Z" fill="#FFFEFF"/>
<path d="M158.38 0.181396C158.38 0.181396 147.87 24.9213 144.38 33.1313C143.96 34.1113 142.57 34.1113 142.15 33.1313C138.66 24.9113 128.15 0.181396 128.15 0.181396H116.68L133.49 39.7615C137.15 48.3815 149.37 48.3815 153.03 39.7615L169.84 0.181396H158.37H158.38Z" fill="#FFFEFF"/>
<path d="M91.3301 46.2415C84.5201 46.2415 79.2701 44.3214 75.5801 40.4814C71.9001 36.6414 70.05 31.2914 70.05 24.4114V0.171387H81.1001V25.9814C81.1001 29.0514 82.0501 31.5113 83.9501 33.3513C85.8501 35.1913 88.3101 36.1113 91.3201 36.1113C94.3301 36.1113 96.7801 35.1913 98.6901 33.3513C100.59 31.5113 101.54 29.0514 101.54 25.9814V0.171387H112.59V24.4114C112.59 31.2914 110.75 36.6414 107.06 40.4814C103.38 44.3214 98.1301 46.2415 91.3101 46.2415H91.3301Z" fill="#FFFEFF"/>
<path d="M193.49 46.0512C192.84 46.0512 192.19 46.0314 191.55 45.9814C184.28 45.4414 178.72 41.8813 175.88 35.9513C175.68 35.5313 175.49 35.1013 175.31 34.6813C169.44 35.3613 165.04 35.3012 164.63 35.3012L164.8 25.3713C164.8 25.3713 168.47 25.4213 173.38 24.9113C173.44 19.4213 175.4 14.0413 179.17 9.45134C185.25 2.05134 194.82 -1.50875 202.99 0.601246C206.69 1.55125 209.46 4.6012 210.21 8.5512C211.84 17.0512 203.84 23.9214 200.33 26.4914C196.12 29.5614 190.8 31.5613 185.56 32.8713C186.96 34.7813 189.22 35.8612 192.3 36.0912C199.28 36.6112 207.85 32.4613 211.79 26.6513L220.01 32.2214C214.43 40.4514 203.54 46.0612 193.5 46.0612L193.49 46.0512ZM198.12 9.91131C194.19 9.91131 189.82 12.1014 186.83 15.7414C185.76 17.0514 183.98 19.6613 183.45 23.1613C188.07 21.9913 191.81 20.3914 194.47 18.4614C199.74 14.6214 200.47 11.7714 200.47 10.9814C200.47 9.91137 198.9 9.91131 198.13 9.91131H198.12Z" fill="#FFFEFF"/>
<path d="M117.9 75.2014C117.94 74.7814 117.97 74.3914 118 73.9314C118.21 68.0814 118.67 62.0514 119.23 56.2014V55.6013C119.23 54.5813 119.23 53.4214 120.64 53.4214C122.05 53.4214 125.75 54.7613 126.63 55.3213C128.53 56.4113 129.48 58.0714 129.48 59.9414C129.48 62.5114 128.11 64.1714 125.99 65.4014C125.53 65.6814 125.11 65.9615 124.69 66.2815C125.54 66.7715 126.06 67.8314 126.42 68.6814C126.6 69.3214 126.74 69.9513 126.74 70.5813C126.74 73.6813 124.06 76.2914 121.24 77.4514C120.29 77.8414 119.58 78.0115 119.09 78.0115C118.07 78.0115 117.82 77.3814 117.82 76.4214C117.82 76.0314 117.86 75.6414 117.89 75.1914L117.9 75.2014ZM120.43 74.3213C120.43 74.3213 120.54 74.2815 120.57 74.2815L120.43 74.3213ZM123.89 70.4814C123.89 69.9914 123.71 69.5315 123.4 69.0415C123.08 68.6915 121.96 67.8413 121.32 67.8113C121.25 67.8513 121.18 67.9115 121.14 67.9915C120.96 70.0315 120.86 72.1114 120.86 74.1914C122.34 73.5614 123.89 72.0815 123.89 70.4915V70.4814ZM121.95 57.1614V58.0415L121.74 60.1514C121.6 61.2814 121.46 62.4115 121.39 63.5015V64.0315C121.39 64.1715 121.39 64.3113 121.46 64.3113C121.57 64.3113 121.81 64.2714 121.99 64.2014C123.82 63.6714 126.64 61.9814 126.64 59.9014C126.64 59.5814 126.6 59.2314 126.46 58.9114C126.07 58.2114 124.59 57.5415 123.78 57.2915C123.6 57.1815 122.26 56.8713 121.91 56.8013C121.91 56.8413 121.95 56.9814 121.95 57.1514V57.1614Z" fill="#FFFEFF"/>
<path d="M138.34 74.6714C138.34 73.0514 137.74 69.5613 136.72 68.5713C136.3 68.2213 135.84 68.1113 135.31 68.1113C135.17 68.2513 134.89 70.2215 134.75 71.2815C134.71 71.5315 134.68 71.7413 134.64 71.8413C134.6 72.1613 134.57 72.5815 134.53 73.0415C134.46 74.2015 134.35 75.6515 134.04 76.2815C133.76 76.8115 133.12 77.0913 132.6 77.0913C132 77.0913 131.47 76.7715 131.37 76.0015C131.55 73.3615 131.93 70.6414 132.32 67.9614C132.57 66.3714 132.81 64.8215 132.99 63.2415C133.02 62.9215 133.06 62.3915 133.09 61.7615C133.23 59.8215 133.41 56.9713 133.9 56.3713C134.39 55.7713 136.37 55.4915 137.21 55.4915C140.38 55.4915 142.32 57.2914 142.32 60.3914C142.32 62.8614 140.73 65.0414 138.69 66.4514C140.66 68.5714 141.37 73.0814 141.37 75.9714C141.37 76.7114 141.3 77.2713 141.09 77.5613C140.81 77.8813 140.31 78.0513 139.89 78.0513C139.5 78.0513 139.11 77.9114 138.9 77.7014C138.44 77.2414 138.37 75.8014 138.34 74.6714ZM136.33 58.6013C136.33 58.6013 136.19 59.3014 136.15 59.4814C135.97 60.8514 135.76 62.9315 135.73 64.2415V64.3513C135.73 64.5313 135.8 64.6313 135.87 64.6313C137.17 64.6313 139.25 62.0614 139.43 60.9314V60.4714C139.43 58.8514 138.76 58.4314 137.28 58.4314C136.86 58.4314 136.47 58.4713 136.36 58.6113H136.32L136.33 58.6013Z" fill="#FFFEFF"/>
<path d="M146.69 55.6814C146.69 54.4814 147.82 54.3413 148.77 54.3413C149.23 54.3413 149.72 54.3814 150.11 54.4114C150.43 54.4114 150.67 54.4514 150.89 54.4514H151C151.32 54.4114 152.02 54.3115 152.69 54.2415C153.64 54.1015 154.73 53.9214 155.51 53.9214C155.86 53.9214 156.11 53.9613 156.29 54.0613C156.82 54.3113 157.07 54.7315 157.07 55.2615C157.07 56.5315 155.94 56.7413 154.96 56.8513C154.36 56.8913 153.8 56.9214 153.66 57.6614C153.34 59.7414 153.17 62.1014 153.03 64.3914C152.92 66.3314 152.75 68.2714 152.47 70.2014C152.29 71.4014 152.12 72.6713 152.12 73.8013C152.12 74.0813 152.12 74.3613 152.16 74.6113C152.2 74.8913 152.34 74.9314 152.58 74.9314C152.76 74.9314 152.93 74.9314 153.18 74.9714C153.81 75.1814 154.24 75.8214 154.24 76.4114C154.24 76.8314 154.03 77.2215 153.64 77.5015C153.25 77.8215 152.27 77.8914 151.28 77.8914C151.07 77.8914 150.79 77.8513 150.54 77.8513H150.01C149.73 77.8513 149.48 77.8914 149.16 77.9214C148.74 77.9614 148.28 78.0315 147.82 78.0315C146.8 78.0315 145.92 77.7513 145.92 76.6213V76.4814C146.02 75.2514 147.08 75.1814 148.07 75.1414C148.63 75.1014 149.16 75.0315 149.27 74.7515C149.34 74.5015 149.34 74.0814 149.34 73.6914V72.4915C149.34 72.2415 149.34 71.8914 149.38 71.6414C149.56 69.8414 149.77 67.9414 149.98 66.1414C150.3 63.5714 150.58 60.9914 150.79 58.3914V57.7915C150.79 57.5415 150.83 57.3313 150.97 57.3313H149.49C148.93 57.3313 148.4 57.3314 148.01 57.2214C147.31 57.0814 146.74 56.4114 146.74 55.6714L146.69 55.6814Z" fill="#FFFEFF"/>
<path d="M166.57 66.4614C166.96 66.1814 169.71 65.5114 170.41 65.4014L170.62 65.3613C171.18 65.2213 172.1 65.0813 172.88 65.0813C173.66 65.0813 174.43 65.2614 174.68 65.8914C174.82 66.1414 174.86 66.3515 174.86 66.5215C174.86 67.2615 174.33 67.5414 173.84 67.8914C173.63 68.0314 173.42 68.1713 173.28 68.3113C172.96 68.7313 172.54 69.6515 172.12 70.4915C170.89 73.1715 168.17 78.0015 165.04 78.0015C161.13 78.0015 160.6 72.5715 160.6 69.7515C160.6 66.5115 161.2 63.0515 161.83 61.2915C162.96 58.1915 165.95 53.9614 169.62 53.9614C169.76 53.9614 169.94 53.9615 170.08 54.0015C171.28 54.1115 173.74 55.5214 173.74 56.9614C173.74 57.6614 173.18 58.4414 172.44 58.4414C171.88 58.4414 171.45 58.0213 171 57.5913C170.65 57.2713 170.3 56.9213 169.98 56.8513C168.25 56.8513 166.67 58.2214 165.79 59.6714C164.31 62.0314 163.53 66.3015 163.53 69.7515C163.53 70.7715 163.67 75.0713 165.05 75.0713C165.93 75.0713 167.13 73.4515 168.01 72.0015C168.26 71.5815 169.67 69.0015 169.84 68.5115C169.66 68.5115 169.38 68.5814 169.06 68.6514C168.6 68.7914 168.11 68.9314 167.62 68.9314C166.77 68.9314 166.07 68.4415 166.07 67.5215C166.07 67.1715 166.28 66.7414 166.6 66.4314L166.57 66.4614Z" fill="#FFFEFF"/>
<path d="M196.74 68.8213L182.5 69.8113C182.43 69.8813 182.36 70.0614 182.32 70.2314C182.07 71.2214 182.04 72.3813 181.97 73.5813C181.9 74.8113 181.83 76.0115 181.55 77.0315C181.34 77.6615 180.81 78.0215 180.25 78.0215C179.55 78.0215 178.84 77.4914 178.73 76.4714C178.7 76.3314 178.7 76.1515 178.7 76.0115C178.7 75.3415 178.8 74.5314 178.95 73.6814C179.02 72.9414 179.13 72.2413 179.16 71.6013C179.16 71.4613 179.2 70.8914 179.2 70.4414V70.1213C178.11 70.1213 177.12 70.0814 177.12 68.6714V68.6313C177.16 67.4713 177.97 67.3614 178.71 67.2214C179.1 67.1814 179.49 67.1113 179.56 66.8713C179.6 66.4113 179.6 65.9915 179.6 65.5015C179.67 64.1615 179.78 62.8215 179.95 61.5215C180.09 60.4615 180.23 59.3413 180.3 58.3513C180.3 58.1413 180.23 57.8915 180.2 57.7515C180.16 57.5015 180.13 57.2913 180.13 57.0513C180.13 56.2413 180.87 55.3213 181.72 55.3213C182.57 55.3213 183.31 56.0213 183.31 57.0813V57.1213C183.31 58.3213 183.13 59.7315 182.92 61.0315C182.81 61.8815 182.67 62.6914 182.6 63.4614C182.53 64.5514 182.5 65.6813 182.46 66.8113C182.53 66.8813 182.78 66.8813 183.02 66.8813C183.23 66.8813 183.48 66.8813 183.62 66.8413H183.8C184.96 66.8013 186.06 66.6615 187.18 66.5215C188.98 66.3115 190.7 66.2414 192.5 66.1714C193.91 66.1014 195.32 66.0614 196.69 65.8914C196.97 65.8514 197.18 65.7114 197.25 65.4014L197.99 56.5913C198.2 55.7413 198.8 55.4314 199.4 55.4314C200.21 55.4314 200.95 55.9914 200.95 56.9814C200.95 57.8314 200.81 58.8115 200.63 59.7615C200.53 60.3215 200.45 60.8914 200.38 61.4214C200.31 62.3714 200.27 63.3913 200.2 64.3413C200.13 65.8613 200.02 67.3415 199.85 68.7815C199.81 69.0615 199.78 69.4115 199.75 69.7715C199.61 71.4615 199.36 73.7915 199.01 74.9915C198.76 75.8715 198.2 76.2615 197.6 76.2615C197.07 76.2615 196.54 75.8713 196.16 75.1013L196.83 69.1814L196.76 68.8313L196.74 68.8213Z" fill="#FFFEFF"/>
<path d="M206.61 75.7314C206.68 73.2314 207.07 70.1614 207.39 67.4814C207.5 66.7814 207.6 66.1114 207.67 65.4714C207.71 65.1514 207.81 64.4814 207.95 63.6414C208.3 61.4914 208.8 58.2814 208.8 57.4714V57.4314H208.52C208.13 57.4314 207.53 57.5413 207.08 57.6113C206.69 57.7213 206.38 57.7515 206.16 57.7515C205.14 57.7515 204.47 57.0114 204.47 56.2314C204.47 55.6314 204.89 55.0314 205.84 54.7114C207.43 54.2514 209.75 54.0814 211.8 53.9714C212.5 53.9014 213.17 53.8613 213.74 53.8313C214.02 53.7913 214.37 53.7214 214.69 53.6514C215.39 53.5514 216.13 53.4014 216.84 53.4014C217.83 53.4014 218.88 53.7914 218.88 54.9514C218.88 55.5114 218.49 56.0813 217.89 56.3213C217.26 56.5313 216.23 56.6414 215.25 56.6714C214.02 56.7814 212.75 56.8814 212.22 57.2014C212.15 57.2714 212.08 57.3814 212.04 57.4114C210.91 63.1214 210.35 69.0413 209.78 74.8213C209.71 75.4213 209.67 76.0213 209.64 76.6213C209.46 77.5413 208.83 77.9915 208.2 77.9915C207.39 77.9915 206.61 77.2513 206.61 75.8113V75.7014V75.7314Z" fill="#FFFEFF"/>
</svg>
