<svg width="1440" height="762" viewBox="0 0 1440 762" fill="none" xmlns="http://www.w3.org/2000/svg">
<mask id="mask0_2038_262" style="mask-type:luminance" maskUnits="userSpaceOnUse" x="0" y="0" width="1440" height="762">
<path d="M1440 0H0V761.87H1440V0Z" fill="white"/>
</mask>
<g mask="url(#mask0_2038_262)">
<path d="M1221.53 310.07C1213.8 312.31 1205.18 309.63 1199.46 303.21C1195.44 298.69 1187.2 285.7 1197.4 262.65C1198.42 260.36 1199.52 258.31 1200.69 256.5C1194 252.12 1187.95 249.81 1186.02 249.76C1186.02 249.76 1186.26 249.76 1186.64 249.68L1183.23 234.05C1190.42 232.48 1202.46 237.95 1212.61 245.3C1215.18 243.97 1217.67 243.18 1219.9 242.72C1242.58 238.08 1267.87 260.91 1270.68 263.53L1259.78 275.24C1254.7 270.52 1238.73 258.32 1226.56 258.1C1234.94 268.1 1238.62 278.81 1237.26 289.46C1235.95 299.73 1230.2 307.4 1221.88 309.97C1221.77 310.01 1221.65 310.04 1221.54 310.07H1221.53ZM1213.06 266.98C1212.7 267.65 1212.36 268.37 1212.02 269.12C1205.4 284.08 1209.88 290.85 1211.41 292.57C1213.06 294.42 1215.31 295.26 1217.15 294.68C1219.34 294 1220.88 291.36 1221.38 287.42C1222.18 281.19 1219.62 274.59 1213.79 267.81C1213.55 267.53 1213.31 267.25 1213.06 266.98Z" fill="#EDF3FF"/>
<path d="M1171.18 76.4199C1169.96 76.2299 1140.99 71.4797 1124.04 48.2197C1113.73 34.0697 1110.16 16.4197 1113.43 -4.26025L1129.23 -1.76025C1125.7 20.5497 1131.84 37.7 1147.46 49.23C1159.72 58.28 1173.53 60.5899 1173.66 60.6099L1171.17 76.4199H1171.18Z" fill="#EDF3FF"/>
<path d="M1157.04 142.56L1141.17 140.54C1142.75 128.15 1140.68 118.32 1135.03 111.33C1126.61 100.91 1112.52 99.5998 1112.38 99.5898L1113.6 83.6396C1114.45 83.6996 1134.46 85.3598 1147.32 101.09C1155.93 111.62 1159.19 125.57 1157.03 142.56H1157.04Z" fill="#EDF3FF"/>
<path d="M1223.95 218.92L1217.29 204.37C1217.43 204.3 1231.56 197.66 1242.09 183.99C1248.13 176.15 1251.79 167.62 1253.06 158.46C1245.44 158.55 1237.59 157.15 1229.71 154.2C1205.64 145.18 1186.4 123.71 1185.92 105.33C1185.57 92.0103 1195.58 75.4299 1211.05 71.9699C1217.23 70.5899 1226.82 70.78 1237.44 79.51C1246.15 86.68 1254.21 98.6099 1261.38 114.97C1265.18 123.63 1267.49 131.71 1268.65 139.21C1274.12 136.82 1279.65 132.98 1284.99 127.16C1297.04 114.05 1300.6 99.7802 1300.62 87.5202C1294.39 87.2102 1288.19 85.9602 1282.14 83.7502C1265.88 77.7902 1253.33 65.3101 1250.92 52.6901C1248.21 38.5301 1253.09 30.55 1257.66 26.34C1264.06 20.44 1274.12 18.4701 1283.91 21.1901C1294.2 24.0501 1307.32 43.0202 1313.17 63.4802C1313.83 65.7702 1314.39 68.06 1314.86 70.34C1321.95 68.66 1329.73 65.1399 1337.76 58.6599L1347.81 71.1101C1338.15 78.9101 1327.52 84.0102 1316.64 86.2702C1316.92 105.57 1310.17 123.42 1296.78 137.99C1288.76 146.72 1279.45 152.73 1269.41 155.88C1268.27 172.39 1261.5 185.19 1254.36 194.3C1241.38 210.86 1224.67 218.61 1223.96 218.93L1223.95 218.92ZM1213.89 87.74C1207 89.7299 1201.75 98.5601 1201.91 104.9C1202.18 115.29 1216.53 132.17 1235.32 139.21C1240.42 141.12 1246.46 142.57 1252.96 142.52C1252 135.75 1249.92 128.7 1246.71 121.38C1236.46 98.0001 1224.43 85.3703 1214.53 87.5803C1214.31 87.6303 1214.1 87.68 1213.89 87.74ZM1271.62 36.4099C1270.38 36.7699 1269.31 37.3303 1268.5 38.0803C1265.64 40.7203 1265.91 45.8299 1266.64 49.6599C1267.8 55.7199 1275.39 64.2202 1287.65 68.7102C1290.53 69.7702 1294.28 70.81 1298.68 71.3C1294.2 52.43 1283.29 38.3902 1279.46 36.5402C1276.64 35.7802 1273.86 35.7599 1271.62 36.4099Z" fill="#EDF3FF"/>
<path d="M1088.57 473.6C1082.59 475.33 1075.65 474.93 1069.09 472.27C1059.19 468.27 1048.28 447.94 1044.78 426.95C1044.39 424.59 1044.09 422.26 1043.88 419.95C1036.64 420.82 1028.52 423.44 1019.81 428.97L1011.22 415.47C1021.7 408.8 1032.84 404.93 1043.9 403.92C1045.79 384.71 1054.52 367.74 1069.46 354.76C1078.42 346.98 1088.37 342.05 1098.73 340.05C1100.64 329.62 1104.81 319.99 1111.24 311.39C1126.78 290.58 1149.96 282.84 1150.94 282.52L1155.9 297.73L1153.42 290.12L1155.92 297.72C1155.73 297.78 1136.48 304.32 1124.06 320.95C1119.87 326.56 1116.92 332.69 1115.22 339.31C1122.8 340.08 1130.44 342.36 1137.92 346.17C1160.82 357.84 1177.52 381.34 1175.93 399.67C1174.89 411.6 1165.25 425.19 1151.88 429.06C1150.37 429.5 1148.81 429.81 1147.2 429.98C1140.9 430.66 1131.39 429.39 1121.83 419.52C1113.98 411.42 1107.32 398.66 1102.04 381.59C1099.38 373 1097.9 364.66 1097.59 356.67C1091.87 358.43 1085.93 361.62 1079.95 366.82C1066.5 378.49 1061.35 392.27 1059.95 404.45C1066.11 405.46 1072.13 407.4 1077.88 410.28C1093.37 418.03 1104.43 431.85 1105.41 444.66C1106.51 459.03 1100.76 466.42 1095.75 470.09C1093.62 471.65 1091.18 472.81 1088.57 473.57V473.6ZM1075.23 457.5C1079.45 459.16 1083.78 459.05 1086.3 457.2C1089.44 454.9 1089.75 449.79 1089.45 445.91C1088.98 439.75 1082.39 430.46 1070.72 424.62C1067.97 423.25 1064.37 421.79 1060.05 420.8C1062.38 440.06 1071.64 455.24 1075.23 457.5ZM1113.51 355.18C1113.69 362.02 1114.96 369.26 1117.33 376.89C1124.88 401.27 1135.41 415.18 1145.5 414.1C1152.84 413.31 1159.42 404.82 1159.99 398.31C1160.89 387.95 1148.54 369.56 1130.66 360.45C1125.81 357.98 1119.97 355.85 1113.52 355.18H1113.51Z" fill="#EDF3FF"/>
<path d="M1436.29 373.03C1430.31 374.76 1423.37 374.36 1416.81 371.7C1406.91 367.7 1396 347.37 1392.5 326.38C1392.11 324.02 1391.81 321.69 1391.6 319.38C1384.36 320.25 1376.24 322.87 1367.53 328.4L1358.94 314.9C1369.42 308.23 1380.56 304.36 1391.62 303.35C1393.51 284.14 1402.24 267.17 1417.18 254.19C1426.13 246.42 1436.06 241.5 1446.39 239.49C1449.38 223.22 1457.55 211.26 1465.67 203.01C1480.43 188.01 1497.91 182.2 1498.65 181.96L1503.61 197.17L1501.13 189.56L1503.63 197.16C1503.48 197.21 1488.69 202.22 1476.69 214.62C1469.81 221.73 1465.21 229.79 1462.91 238.75C1470.5 239.52 1478.14 241.8 1485.63 245.61C1508.53 257.28 1525.23 280.78 1523.64 299.11C1522.6 311.04 1512.96 324.63 1499.59 328.5C1498.08 328.94 1496.52 329.25 1494.91 329.42C1488.61 330.1 1479.1 328.83 1469.54 318.96C1461.69 310.86 1455.03 298.1 1449.75 281.03C1446.95 271.99 1445.56 263.7 1445.25 256.13C1439.54 257.89 1433.62 261.08 1427.65 266.26C1414.2 277.93 1409.05 291.71 1407.65 303.89C1413.81 304.9 1419.83 306.84 1425.58 309.72C1441.07 317.47 1452.13 331.29 1453.11 344.1C1454.21 358.47 1448.46 365.86 1443.45 369.53C1441.32 371.09 1438.88 372.25 1436.27 373.01L1436.29 373.03ZM1422.96 356.93C1427.18 358.59 1431.51 358.48 1434.03 356.63C1437.17 354.33 1437.48 349.22 1437.18 345.34C1436.71 339.18 1430.12 329.89 1418.45 324.05C1415.7 322.68 1412.1 321.22 1407.78 320.23C1410.11 339.49 1419.37 354.67 1422.96 356.93ZM1461.23 254.61C1461.42 261.44 1462.69 268.68 1465.05 276.32C1472.6 300.7 1483.13 314.61 1493.22 313.53C1500.56 312.74 1507.14 304.25 1507.71 297.74C1508.61 287.38 1496.26 268.99 1478.38 259.88C1473.52 257.41 1467.69 255.28 1461.23 254.61Z" fill="#EDF3FF"/>
<path d="M990.73 135.33C984.75 137.06 977.81 136.66 971.25 134C961.35 130 950.44 109.67 946.94 88.6797C946.55 86.3297 946.25 83.9897 946.04 81.6797C938.8 82.5497 930.68 85.1697 921.97 90.6997L913.38 77.1997C923.86 70.5297 935 66.6599 946.06 65.6499C947.95 46.4399 956.68 29.4697 971.62 16.4897C980.58 8.70975 990.53 3.77979 1000.89 1.77979C1002.8 -8.65022 1006.97 -18.2804 1013.4 -26.8804C1028.94 -47.6904 1052.12 -55.43 1053.1 -55.75L1058.06 -40.54L1055.58 -48.1504L1058.08 -40.5503C1057.89 -40.4903 1038.64 -33.9501 1026.22 -17.3101C1022.03 -11.7001 1019.08 -5.57019 1017.38 1.0498C1024.96 1.81981 1032.6 4.09967 1040.08 7.90967C1062.98 19.5797 1079.68 43.0797 1078.09 61.4097C1077.05 73.3397 1067.41 86.9298 1054.04 90.7998C1052.53 91.2398 1050.97 91.5497 1049.36 91.7197C1043.06 92.3897 1033.55 91.1298 1023.99 81.2598C1016.14 73.1598 1009.48 60.4001 1004.2 43.3301C1001.54 34.7401 1000.06 26.3997 999.75 18.4097C994.03 20.1697 988.09 23.3701 982.11 28.5601C968.66 40.2301 963.51 54.0099 962.11 66.1899C968.27 67.1999 974.29 69.14 980.04 72.02C995.53 79.77 1006.59 93.5899 1007.57 106.4C1008.67 120.77 1002.92 128.16 997.91 131.83C995.78 133.39 993.34 134.55 990.73 135.31V135.33ZM977.39 119.23C981.61 120.89 985.94 120.78 988.46 118.93C991.6 116.63 991.91 111.52 991.61 107.64C991.14 101.48 984.55 92.1896 972.88 86.3496C970.13 84.9796 966.53 83.5198 962.21 82.5298C964.54 101.79 973.8 116.97 977.39 119.23ZM1015.67 16.9097C1015.85 23.7497 1017.12 30.9896 1019.49 38.6196C1027.04 62.9996 1037.57 76.9101 1047.66 75.8301C1055 75.0401 1061.58 66.55 1062.15 60.04C1063.05 49.68 1050.7 31.2897 1032.82 22.1797C1027.97 19.7097 1022.13 17.5797 1015.68 16.9097H1015.67Z" fill="#EDF3FF"/>
<path d="M1353.57 1.81006C1349.12 6.16006 1342.81 9.08961 1335.78 9.84961C1325.16 10.9996 1305.94 -1.76033 1292.94 -18.5903C1291.48 -20.4803 1290.11 -22.4001 1288.83 -24.3301C1282.86 -20.1501 1276.94 -14 1271.89 -5L1257.94 -12.8403C1264.03 -23.6703 1272.01 -32.3402 1281.28 -38.4702C1273.87 -56.2902 1273.53 -75.3701 1280.57 -93.8701C1284.78 -104.94 1291.21 -113.98 1299.36 -120.63C1294.3 -136.38 1295.85 -150.79 1299.11 -161.9C1305.03 -182.09 1317.69 -195.48 1318.22 -196.04L1329.78 -184.98L1324 -190.51L1329.8 -185C1329.69 -184.89 1319.03 -173.48 1314.32 -156.88C1311.62 -147.36 1311.38 -138.08 1313.59 -129.1C1320.64 -132.01 1328.45 -133.61 1336.85 -133.79C1362.55 -134.33 1388.37 -121.52 1395.63 -104.61C1400.35 -93.6104 1398.29 -77.0703 1388.33 -67.3403C1387.2 -66.2403 1385.98 -65.2303 1384.64 -64.3203C1379.41 -60.7503 1370.43 -57.3703 1357.34 -61.5503C1346.59 -64.9803 1334.69 -73.0801 1321.97 -85.6201C1315.23 -92.2601 1310.09 -98.9099 1306.24 -105.44C1302.04 -101.19 1298.33 -95.5799 1295.52 -88.1899C1289.19 -71.5499 1291.16 -56.9701 1295.68 -45.5801C1301.58 -47.6001 1307.81 -48.7399 1314.24 -48.9199C1331.55 -49.4099 1347.83 -42.4604 1354.75 -31.6304C1362.51 -19.4804 1360.94 -10.2602 1358.26 -4.66016C1357.12 -2.27016 1355.52 -0.100189 1353.58 1.7998L1353.57 1.81006ZM1334.21 -6.08008C1338.71 -6.61008 1342.47 -8.76031 1343.82 -11.5703C1345.5 -15.0803 1343.36 -19.7303 1341.26 -23.0103C1337.94 -28.2103 1327.74 -33.2899 1314.69 -32.9199C1311.62 -32.8299 1307.75 -32.4102 1303.48 -31.2402C1314.64 -15.3702 1329.97 -6.37032 1334.21 -6.07031V-6.08008ZM1319.57 -114.34C1322.96 -108.41 1327.51 -102.63 1333.2 -97.02C1351.38 -79.1 1367.23 -71.82 1375.61 -77.54C1381.7 -81.7 1383.49 -92.3003 1380.91 -98.3003C1376.81 -107.85 1357.23 -118.22 1337.17 -117.79C1331.72 -117.67 1325.57 -116.79 1319.56 -114.33L1319.57 -114.34Z" fill="#EDF3FF"/>
<path d="M1059.92 321.35C1058.78 321.68 1057.62 321.94 1056.42 322.13C1047.31 323.58 1036.84 321.05 1025.28 314.59C1017.18 310.07 1011.43 305.17 1011.19 304.96L1021.6 292.81C1026.74 297.19 1042.58 308.16 1053.93 306.33C1057.95 305.68 1061.01 303.43 1063.56 299.24C1067.21 293.23 1068.35 288.24 1067.02 283.99C1063.96 274.19 1047.7 266.92 1035.82 261.62L1042.35 247.01C1057.83 253.93 1077.09 262.53 1082.3 279.23C1085.03 288 1083.33 297.53 1077.24 307.56C1072.96 314.6 1067.03 319.31 1059.93 321.37L1059.92 321.35Z" fill="#EDF3FF"/>
<path d="M1398.65 223.38C1397.51 223.71 1396.35 223.97 1395.15 224.16C1386.04 225.61 1375.57 223.08 1364.01 216.62C1355.91 212.1 1350.16 207.2 1349.92 206.99L1360.33 194.84C1365.47 199.22 1381.31 210.19 1392.66 208.36C1396.68 207.71 1399.74 205.46 1402.29 201.27C1405.94 195.26 1407.08 190.27 1405.75 186.02C1402.69 176.22 1386.43 168.95 1374.55 163.65L1381.08 149.04C1396.56 155.96 1415.82 164.56 1421.03 181.26C1423.76 190.03 1422.06 199.56 1415.97 209.59C1411.69 216.63 1405.76 221.34 1398.66 223.4L1398.65 223.38Z" fill="#EDF3FF"/>
<path d="M1208.76 34.7598C1204.6 35.9598 1200.23 36.6896 1195.75 36.8696C1179.13 37.5396 1165.01 30.2298 1157.98 17.3198C1150.67 3.87982 1148.92 -9.01023 1152.8 -20.9902C1159.05 -40.3202 1177.87 -49.5204 1178.67 -49.9004L1185.58 -35.4702L1182.12 -42.6802L1185.61 -35.48C1185.47 -35.41 1172.05 -28.7102 1167.98 -15.9502C1165.55 -8.3302 1166.92 0.289688 1172.03 9.67969C1177.86 20.3997 1190.11 21.0896 1195.1 20.8896C1206.37 20.4397 1220.3 14.2296 1226.02 1.36963C1232.44 -13.0804 1226.54 -32.39 1209.39 -52.98L1221.69 -63.2202C1234 -48.4402 1252.83 -19.5504 1240.65 7.86963C1234.86 20.8896 1223 30.6598 1208.76 34.7798V34.7598Z" fill="#EDF3FF"/>
<path d="M1306.94 374.23C1302.78 375.43 1298.41 376.16 1293.93 376.34C1277.31 377.01 1263.19 369.7 1256.16 356.79C1248.85 343.35 1247.1 330.46 1250.98 318.48C1257.23 299.15 1276.05 289.95 1276.85 289.57L1283.76 304L1280.3 296.79L1283.79 303.99C1283.65 304.06 1270.23 310.76 1266.16 323.52C1263.73 331.14 1265.1 339.76 1270.21 349.15C1276.04 359.87 1288.29 360.56 1293.28 360.36C1304.55 359.91 1318.48 353.7 1324.2 340.84C1330.62 326.39 1324.72 307.08 1307.57 286.49L1319.87 276.25C1332.18 291.03 1351.01 319.92 1338.83 347.34C1333.04 360.36 1321.18 370.13 1306.94 374.25V374.23Z" fill="#EDF3FF"/>
<path d="M1118.36 275.7L1102.43 277.16C1100.49 255.97 1106.41 236.83 1118.68 224.66C1126.7 216.7 1141.42 207.71 1166.04 210.13C1166.75 210.2 1167.49 210.28 1168.25 210.36C1171.27 210.68 1178.23 211.43 1180.14 210.36C1180.34 209.59 1180.91 205.31 1174.58 192.78C1171.85 187.38 1163.54 170.95 1172.19 160.3C1174.77 157.11 1179.88 153.36 1189.55 153.55C1194.27 153.65 1198.17 154.65 1198.59 154.76L1194.47 170.22C1190.41 169.17 1185.38 169.42 1184.62 170.37C1184.6 170.4 1182.89 173.73 1188.87 185.55C1199.44 206.46 1196.47 214.94 1193.32 219.51C1187.13 228.47 1174.75 227.14 1166.56 226.27C1165.85 226.19 1165.16 226.12 1164.49 226.05C1149.69 224.6 1138.08 227.95 1129.96 236.01C1121.1 244.82 1116.87 259.29 1118.37 275.71L1118.36 275.7Z" fill="#EDF3FF"/>
<path d="M1091.49 219.02C1084.9 220.93 1078.3 221.46 1072.08 220.5C1066.11 219.58 1060.11 217.11 1055.11 212.77C1047.51 217.28 1040.13 220.63 1033.51 223.11C1009.96 231.92 990.901 231.88 990.101 231.87L990.221 215.87L990.161 223.87L990.201 215.87C990.371 215.87 1007.58 215.83 1028.47 207.91C1034.65 205.57 1040.48 202.81 1045.97 199.66C1043.49 193.39 1042.31 185.57 1043.1 176.02C1044.23 162.21 1048.76 149.67 1056.2 139.74C1062.7 131.07 1071.18 124.71 1080.06 121.84C1090.34 118.52 1099.78 120.39 1105.3 126.86C1109 131.2 1113.8 141.249 1104.36 159.849C1094.64 178.979 1082.09 192.939 1069.22 203.099C1070.81 203.859 1072.59 204.4 1074.53 204.7C1083.18 206.04 1093.84 202.46 1103.03 195.14C1113.92 186.47 1121.82 173.38 1125.28 158.28L1140.88 161.849C1136.61 180.459 1126.72 196.73 1113.01 207.65C1106.24 213.05 1098.88 216.9 1091.5 219.03L1091.49 219.02ZM1085.58 136.88C1085.38 136.94 1085.18 137 1084.98 137.06C1076.34 139.85 1061.16 151.47 1059.04 177.32C1058.64 182.25 1058.89 186.59 1059.76 190.28C1072.26 180.32 1082.4 167.73 1090.09 152.59C1094.85 143.21 1094.16 138.45 1093.13 137.24C1092.24 136.2 1089.39 135.77 1085.58 136.87V136.88Z" fill="#EDF3FF"/>
<path d="M1429.76 121.18C1423.17 123.09 1416.57 123.62 1410.35 122.66C1404.38 121.74 1398.38 119.27 1393.38 114.93C1385.78 119.44 1378.4 122.79 1371.78 125.27C1348.23 134.08 1329.17 134.04 1328.37 134.03L1328.49 118.03L1328.43 126.03L1328.47 118.03C1328.64 118.03 1345.85 117.99 1366.74 110.07C1372.92 107.73 1378.75 104.97 1384.24 101.82C1381.76 95.5497 1380.58 87.7296 1381.37 78.1796C1382.5 64.3696 1387.03 51.8298 1394.47 41.8998C1400.97 33.2298 1409.45 26.8699 1418.33 23.9999C1428.61 20.6799 1438.05 22.5499 1443.57 29.0199C1447.27 33.3599 1452.07 43.4097 1442.63 62.0097C1432.91 81.1396 1420.36 95.0997 1407.49 105.26C1409.08 106.02 1410.86 106.56 1412.8 106.86C1421.45 108.2 1432.11 104.62 1441.3 97.2997C1452.19 88.6297 1460.09 75.5398 1463.55 60.4398L1479.15 64.0097C1474.88 82.6197 1464.99 98.8899 1451.28 109.81C1444.51 115.21 1437.15 119.06 1429.77 121.19L1429.76 121.18ZM1423.85 39.0399C1423.65 39.0999 1423.45 39.1596 1423.25 39.2196C1414.61 42.0096 1399.43 53.6299 1397.31 79.4799C1396.91 84.4099 1397.16 88.7498 1398.03 92.4398C1410.53 82.4798 1420.67 69.8899 1428.36 54.7499C1433.12 45.3699 1432.43 40.6098 1431.4 39.3998C1430.51 38.3598 1427.66 37.9297 1423.85 39.0297V39.0399Z" fill="#EDF3FF"/>
<path d="M1268.39 239.47L1254.62 231.32C1254.9 230.85 1261.55 219.72 1273.73 211.14C1285.42 202.92 1304.42 195.49 1328.56 206.8L1321.77 221.29C1288.96 205.92 1269.21 238.09 1268.39 239.47Z" fill="#EDF3FF"/>
<path d="M1404.94 -3.45042L1397.37 -17.5403C1397.85 -17.8003 1409.3 -23.8902 1424.16 -24.9402C1438.41 -25.9402 1458.52 -22.4805 1473.34 -0.320536L1460.04 8.57986C1439.9 -21.5301 1406.36 -4.20042 1404.95 -3.45042H1404.94Z" fill="#EDF3FF"/>
<path d="M1317.94 179.64C1326 179.64 1332.53 173.108 1332.53 165.05C1332.53 156.992 1326 150.46 1317.94 150.46C1309.88 150.46 1303.35 156.992 1303.35 165.05C1303.35 173.108 1309.88 179.64 1317.94 179.64Z" fill="#EDF3FF"/>
<path d="M1300 262.33C1308.06 262.33 1314.59 255.798 1314.59 247.74C1314.59 239.682 1308.06 233.15 1300 233.15C1291.94 233.15 1285.41 239.682 1285.41 247.74C1285.41 255.798 1291.94 262.33 1300 262.33Z" fill="#EDF3FF"/>
<path d="M1074.14 15.3101C1082.2 15.3101 1088.73 8.77756 1088.73 0.719727C1088.73 -7.33811 1082.2 -13.8701 1074.14 -13.8701C1066.08 -13.8701 1059.55 -7.33811 1059.55 0.719727C1059.55 8.77756 1066.08 15.3101 1074.14 15.3101Z" fill="#EDF3FF"/>
<path d="M1197.91 4.93994C1205.97 4.93994 1212.5 -1.59256 1212.5 -9.65039C1212.5 -17.7082 1205.97 -24.2402 1197.91 -24.2402C1189.85 -24.2402 1183.32 -17.7082 1183.32 -9.65039C1183.32 -1.59256 1189.85 4.93994 1197.91 4.93994Z" fill="#EDF3FF"/>
<path d="M1024.85 160.73C1032.91 160.73 1039.44 154.197 1039.44 146.14C1039.44 138.082 1032.91 131.55 1024.85 131.55C1016.79 131.55 1010.26 138.082 1010.26 146.14C1010.26 154.197 1016.79 160.73 1024.85 160.73Z" fill="#EDF3FF"/>
<path d="M1371.09 45.8999C1379.15 45.8999 1385.68 39.3679 1385.68 31.3101C1385.68 23.2522 1379.15 16.7197 1371.09 16.7197C1363.03 16.7197 1356.5 23.2522 1356.5 31.3101C1356.5 39.3679 1363.03 45.8999 1371.09 45.8999Z" fill="#EDF3FF"/>
<path d="M1172.32 354.78C1180.38 354.78 1186.91 348.248 1186.91 340.19C1186.91 332.132 1180.38 325.6 1172.32 325.6C1164.26 325.6 1157.73 332.132 1157.73 340.19C1157.73 348.248 1164.26 354.78 1172.32 354.78Z" fill="#EDF3FF"/>
<path d="M1346.58 268.9L1333 260.44C1340.41 248.46 1363.27 228.07 1396.69 236.65L1392.71 252.15C1362.51 244.4 1347.21 267.9 1346.57 268.9H1346.58Z" fill="#EDF3FF"/>
<path d="M1087.65 660.27C1086.43 660.08 1057.46 655.33 1040.51 632.07C1030.2 617.92 1026.63 600.27 1029.9 579.59L1045.7 582.09C1042.17 604.4 1048.31 621.55 1063.93 633.08C1076.19 642.13 1090 644.44 1090.13 644.46L1087.64 660.27H1087.65Z" fill="#EDF3FF"/>
<path d="M1073.51 726.41L1057.64 724.39C1059.22 712 1057.15 702.17 1051.5 695.18C1043.08 684.76 1028.99 683.45 1028.85 683.44L1030.07 667.49C1030.92 667.55 1050.93 669.21 1063.79 684.94C1072.4 695.47 1075.66 709.42 1073.5 726.41H1073.51Z" fill="#EDF3FF"/>
<path d="M1140.42 802.77L1133.76 788.22C1133.9 788.15 1148.03 781.51 1158.56 767.84C1164.6 760 1168.26 751.47 1169.53 742.31C1161.91 742.4 1154.06 741 1146.18 738.05C1122.11 729.03 1102.87 707.56 1102.39 689.18C1102.04 675.86 1112.05 659.28 1127.52 655.82C1133.7 654.44 1143.29 654.63 1153.91 663.36C1162.62 670.53 1170.68 682.46 1177.85 698.82C1181.65 707.48 1183.96 715.56 1185.12 723.06C1190.59 720.67 1196.12 716.83 1201.46 711.01C1213.51 697.9 1217.07 683.63 1217.09 671.37C1210.86 671.06 1204.66 669.81 1198.61 667.6C1182.35 661.64 1169.8 649.16 1167.39 636.54C1164.68 622.38 1169.56 614.4 1174.13 610.19C1180.53 604.29 1190.59 602.32 1200.38 605.04C1210.67 607.9 1223.79 626.87 1229.64 647.33C1230.3 649.62 1230.86 651.91 1231.33 654.19C1238.42 652.51 1246.2 648.99 1254.23 642.51L1264.28 654.96C1254.62 662.76 1243.99 667.86 1233.11 670.12C1233.39 689.42 1226.64 707.27 1213.25 721.84C1205.23 730.57 1195.92 736.58 1185.88 739.73C1184.74 756.24 1177.97 769.04 1170.83 778.15C1157.85 794.71 1141.14 802.46 1140.43 802.78L1140.42 802.77ZM1130.36 671.59C1123.47 673.58 1118.22 682.41 1118.38 688.75C1118.65 699.14 1133 716.02 1151.79 723.06C1156.89 724.97 1162.93 726.42 1169.43 726.37C1168.47 719.6 1166.39 712.55 1163.18 705.23C1152.93 681.85 1140.9 669.22 1131 671.43C1130.78 671.48 1130.57 671.53 1130.36 671.59ZM1188.09 620.26C1186.85 620.62 1185.78 621.18 1184.97 621.93C1182.11 624.57 1182.38 629.68 1183.11 633.51C1184.27 639.57 1191.86 648.07 1204.12 652.56C1207 653.62 1210.75 654.66 1215.15 655.15C1210.67 636.28 1199.76 622.24 1195.93 620.39C1193.11 619.63 1190.33 619.61 1188.09 620.26Z" fill="#EDF3FF"/>
<path d="M907.2 719.18C901.22 720.91 894.28 720.51 887.72 717.85C877.82 713.85 866.91 693.52 863.41 672.53C863.02 670.18 862.72 667.84 862.51 665.53C855.27 666.4 847.15 669.02 838.44 674.55L829.85 661.05C840.33 654.38 851.47 650.51 862.53 649.5C864.42 630.29 873.15 613.32 888.09 600.34C897.05 592.56 907 587.63 917.36 585.63C919.27 575.2 923.44 565.57 929.87 556.97C945.41 536.16 968.59 528.42 969.57 528.1L974.53 543.31L972.05 535.7L974.55 543.3C974.36 543.36 955.11 549.9 942.69 566.54C938.5 572.15 935.55 578.28 933.85 584.9C941.43 585.67 949.07 587.95 956.55 591.76C979.45 603.43 996.15 626.93 994.56 645.26C993.52 657.19 983.88 670.78 970.51 674.65C969 675.09 967.44 675.4 965.83 675.57C959.53 676.24 950.02 674.98 940.46 665.11C932.61 657.01 925.95 644.25 920.67 627.18C918.01 618.59 916.53 610.25 916.22 602.26C910.5 604.02 904.56 607.22 898.58 612.41C885.13 624.08 879.98 637.86 878.58 650.04C884.74 651.05 890.76 652.99 896.51 655.87C912 663.62 923.06 677.44 924.04 690.25C925.14 704.62 919.39 712.01 914.38 715.68C912.25 717.24 909.81 718.4 907.2 719.16V719.18ZM893.86 703.08C898.08 704.74 902.41 704.63 904.93 702.78C908.07 700.48 908.38 695.37 908.08 691.49C907.61 685.33 901.02 676.04 889.35 670.2C886.6 668.83 883 667.37 878.68 666.38C881.01 685.64 890.27 700.82 893.86 703.08ZM932.14 600.76C932.32 607.6 933.59 614.84 935.96 622.47C943.51 646.85 954.04 660.76 964.13 659.68C971.47 658.89 978.05 650.4 978.62 643.89C979.52 633.53 967.17 615.14 949.29 606.03C944.44 603.56 938.6 601.43 932.15 600.76H932.14Z" fill="#EDF3FF"/>
<path d="M1270.04 585.66C1265.59 590.01 1259.28 592.94 1252.25 593.7C1241.63 594.85 1222.41 582.09 1209.41 565.26C1207.95 563.37 1206.58 561.45 1205.3 559.52C1199.33 563.7 1193.41 569.85 1188.36 578.85L1174.41 571.01C1180.5 560.18 1188.48 551.51 1197.75 545.38C1190.34 527.56 1190 508.48 1197.04 489.98C1201.25 478.91 1207.68 469.87 1215.83 463.22C1210.77 447.47 1212.32 433.06 1215.58 421.95C1221.5 401.76 1234.16 388.37 1234.69 387.81L1246.25 398.87L1240.47 393.34L1246.27 398.85C1246.16 398.96 1235.5 410.37 1230.79 426.97C1228.09 436.49 1227.85 445.77 1230.06 454.75C1237.11 451.84 1244.92 450.24 1253.32 450.06C1279.02 449.52 1304.84 462.33 1312.1 479.24C1316.82 490.24 1314.76 506.78 1304.8 516.51C1303.67 517.61 1302.45 518.62 1301.11 519.53C1295.88 523.1 1286.9 526.48 1273.81 522.3C1263.06 518.87 1251.16 510.77 1238.44 498.23C1231.7 491.59 1226.56 484.94 1222.71 478.41C1218.51 482.66 1214.8 488.27 1211.99 495.66C1205.66 512.3 1207.63 526.88 1212.15 538.27C1218.05 536.25 1224.28 535.11 1230.71 534.93C1248.02 534.44 1264.3 541.39 1271.22 552.22C1278.98 564.37 1277.41 573.59 1274.73 579.19C1273.59 581.58 1271.99 583.75 1270.05 585.65L1270.04 585.66ZM1250.68 577.77C1255.18 577.24 1258.94 575.09 1260.29 572.28C1261.97 568.77 1259.83 564.12 1257.73 560.84C1254.41 555.64 1244.21 550.56 1231.16 550.93C1228.09 551.02 1224.22 551.44 1219.95 552.61C1231.11 568.48 1246.44 577.48 1250.68 577.78V577.77ZM1236.04 469.51C1239.43 475.44 1243.98 481.22 1249.67 486.83C1267.85 504.75 1283.7 512.03 1292.08 506.31C1298.17 502.15 1299.96 491.55 1297.38 485.55C1293.28 476 1273.7 465.63 1253.64 466.06C1248.19 466.18 1242.04 467.06 1236.03 469.52L1236.04 469.51Z" fill="#EDF3FF"/>
<path d="M1315.12 807.23C1313.98 807.56 1312.82 807.82 1311.62 808.01C1302.51 809.46 1292.04 806.93 1280.48 800.47C1272.38 795.95 1266.63 791.05 1266.39 790.84L1276.8 778.69C1281.94 783.07 1297.78 794.04 1309.13 792.21C1313.15 791.56 1316.21 789.31 1318.76 785.12C1322.41 779.11 1323.55 774.12 1322.22 769.87C1319.16 760.07 1302.9 752.8 1291.02 747.5L1297.55 732.89C1313.03 739.81 1332.29 748.41 1337.5 765.11C1340.23 773.88 1338.53 783.41 1332.44 793.44C1328.16 800.48 1322.23 805.19 1315.13 807.25L1315.12 807.23Z" fill="#EDF3FF"/>
<path d="M1125.23 618.61C1121.07 619.81 1116.7 620.54 1112.22 620.72C1095.6 621.39 1081.48 614.08 1074.45 601.17C1067.14 587.73 1065.39 574.84 1069.27 562.86C1075.52 543.53 1094.34 534.33 1095.14 533.95L1102.05 548.38L1098.59 541.17L1102.08 548.37C1101.94 548.44 1088.52 555.14 1084.45 567.9C1082.02 575.52 1083.39 584.14 1088.5 593.53C1094.33 604.25 1106.58 604.94 1111.57 604.74C1122.84 604.29 1136.77 598.08 1142.49 585.22C1148.91 570.77 1143.01 551.46 1125.86 530.87L1138.16 520.63C1150.47 535.41 1169.3 564.3 1157.12 591.72C1151.33 604.74 1139.47 614.51 1125.23 618.63V618.61Z" fill="#EDF3FF"/>
<path d="M1403.26 549.64C1399.1 550.84 1394.73 551.57 1390.25 551.75C1373.63 552.42 1359.51 545.11 1352.48 532.2C1345.17 518.76 1343.42 505.87 1347.3 493.89C1353.55 474.56 1372.37 465.36 1373.17 464.98L1380.08 479.41L1376.62 472.2L1380.11 479.4C1379.97 479.47 1366.55 486.17 1362.48 498.93C1360.05 506.55 1361.42 515.17 1366.53 524.56C1372.36 535.28 1384.61 535.97 1389.6 535.77C1400.87 535.32 1414.8 529.11 1420.52 516.25C1426.94 501.8 1421.04 482.49 1403.89 461.9L1416.19 451.66C1428.5 466.44 1447.33 495.33 1435.15 522.75C1429.36 535.77 1417.5 545.54 1403.26 549.66V549.64Z" fill="#EDF3FF"/>
<path d="M1411.88 610.09C1413.98 606.3 1416.56 602.71 1419.61 599.42C1430.92 587.22 1446.08 582.43 1460.17 586.62C1474.84 590.98 1485.17 598.89 1490.88 610.11C1500.09 628.22 1493.25 648.02 1492.96 648.85L1477.88 643.51L1485.42 646.18L1477.87 643.54C1477.92 643.4 1482.7 629.17 1476.57 617.26C1472.91 610.15 1465.86 605 1455.61 601.95C1443.91 598.47 1434.75 606.62 1431.35 610.29C1423.68 618.56 1418.2 632.8 1423.22 645.94C1428.87 660.71 1446.68 670.22 1473.36 672.71L1471.87 688.64C1452.72 686.85 1418.99 679.68 1408.27 651.66C1403.18 638.35 1404.69 623.06 1411.87 610.09H1411.88Z" fill="#EDF3FF"/>
<path d="M1034.83 859.55L1018.9 861.01C1016.96 839.82 1022.88 820.68 1035.15 808.51C1043.17 800.55 1057.89 791.56 1082.51 793.98C1083.22 794.05 1083.96 794.13 1084.72 794.21C1087.74 794.53 1094.7 795.28 1096.61 794.21C1096.81 793.44 1097.38 789.16 1091.05 776.63C1088.32 771.23 1080.01 754.8 1088.66 744.15C1091.24 740.96 1096.35 737.21 1106.02 737.4C1110.74 737.5 1114.64 738.5 1115.06 738.61L1110.94 754.07C1106.88 753.02 1101.85 753.27 1101.09 754.22C1101.07 754.25 1099.36 757.58 1105.34 769.4C1115.91 790.31 1112.94 798.79 1109.79 803.36C1103.6 812.32 1091.22 810.99 1083.03 810.12C1082.32 810.04 1081.63 809.97 1080.96 809.9C1066.16 808.45 1054.55 811.8 1046.43 819.86C1037.57 828.67 1033.34 843.14 1034.84 859.56L1034.83 859.55Z" fill="#EDF3FF"/>
<path d="M1007.96 802.87C1001.37 804.78 994.77 805.309 988.55 804.349C982.58 803.429 976.58 800.96 971.58 796.62C963.98 801.13 956.6 804.48 949.98 806.96C926.43 815.77 907.37 815.73 906.57 815.72L906.69 799.72L906.63 807.72L906.67 799.72C906.84 799.72 924.05 799.68 944.94 791.76C951.12 789.42 956.95 786.66 962.44 783.51C959.96 777.24 958.78 769.42 959.57 759.87C960.7 746.06 965.23 733.52 972.67 723.59C979.17 714.92 987.65 708.56 996.53 705.69C1006.81 702.37 1016.25 704.24 1021.77 710.71C1025.47 715.05 1030.27 725.1 1020.83 743.7C1011.11 762.83 998.56 776.79 985.69 786.95C987.28 787.71 989.06 788.25 991 788.55C999.65 789.89 1010.31 786.31 1019.5 778.99C1030.39 770.32 1038.29 757.23 1041.75 742.13L1057.35 745.7C1053.08 764.31 1043.19 780.58 1029.48 791.5C1022.71 796.9 1015.35 800.75 1007.97 802.88L1007.96 802.87ZM1002.04 720.73C1001.84 720.79 1001.64 720.85 1001.44 720.91C992.8 723.7 977.62 735.32 975.5 761.17C975.1 766.1 975.35 770.44 976.22 774.13C988.72 764.17 998.86 751.58 1006.55 736.44C1011.31 727.06 1010.62 722.3 1009.59 721.09C1008.7 720.05 1005.85 719.62 1002.04 720.72V720.73Z" fill="#EDF3FF"/>
<path d="M1346.22 705.03C1339.63 706.94 1333.03 707.47 1326.81 706.51C1320.84 705.59 1314.84 703.12 1309.84 698.78C1302.24 703.29 1294.86 706.64 1288.24 709.12C1264.69 717.93 1245.63 717.89 1244.83 717.88L1244.95 701.88L1244.89 709.88L1244.93 701.88C1245.1 701.88 1262.31 701.84 1283.2 693.92C1289.38 691.58 1295.21 688.82 1300.7 685.67C1298.22 679.4 1297.04 671.58 1297.83 662.03C1298.96 648.22 1303.49 635.68 1310.93 625.75C1317.43 617.08 1325.91 610.719 1334.79 607.849C1345.07 604.529 1354.51 606.4 1360.03 612.87C1363.73 617.21 1368.53 627.26 1359.09 645.86C1349.37 664.99 1336.82 678.95 1323.95 689.11C1325.54 689.87 1327.32 690.41 1329.26 690.71C1337.91 692.05 1348.57 688.47 1357.76 681.15C1368.65 672.48 1376.55 659.39 1380.01 644.29L1395.61 647.86C1391.34 666.47 1381.45 682.74 1367.74 693.66C1360.97 699.06 1353.61 702.91 1346.23 705.04L1346.22 705.03ZM1340.31 622.89C1340.11 622.95 1339.91 623.01 1339.71 623.07C1331.07 625.86 1315.89 637.48 1313.77 663.33C1313.37 668.26 1313.62 672.6 1314.49 676.29C1326.99 666.33 1337.13 653.739 1344.82 638.599C1349.58 629.219 1348.89 624.46 1347.86 623.25C1346.97 622.21 1344.12 621.78 1340.31 622.88V622.89Z" fill="#EDF3FF"/>
<path d="M1321.41 580.4L1313.84 566.31C1314.32 566.05 1325.77 559.959 1340.63 558.909C1354.88 557.909 1374.99 561.37 1389.81 583.53L1376.51 592.429C1356.37 562.319 1322.83 579.65 1321.42 580.4H1321.41Z" fill="#EDF3FF"/>
<path d="M1234.41 763.49C1242.47 763.49 1249 756.958 1249 748.9C1249 740.842 1242.47 734.31 1234.41 734.31C1226.35 734.31 1219.82 740.842 1219.82 748.9C1219.82 756.958 1226.35 763.49 1234.41 763.49Z" fill="#EDF3FF"/>
<path d="M990.6 599.16C998.658 599.16 1005.19 592.628 1005.19 584.57C1005.19 576.512 998.658 569.98 990.6 569.98C982.542 569.98 976.01 576.512 976.01 584.57C976.01 592.628 982.542 599.16 990.6 599.16Z" fill="#EDF3FF"/>
<path d="M1114.38 588.79C1122.44 588.79 1128.97 582.258 1128.97 574.2C1128.97 566.142 1122.44 559.61 1114.38 559.61C1106.32 559.61 1099.79 566.142 1099.79 574.2C1099.79 582.258 1106.32 588.79 1114.38 588.79Z" fill="#EDF3FF"/>
<path d="M941.32 744.58C949.378 744.58 955.91 738.048 955.91 729.99C955.91 721.932 949.378 715.4 941.32 715.4C933.262 715.4 926.73 721.932 926.73 729.99C926.73 738.048 933.262 744.58 941.32 744.58Z" fill="#EDF3FF"/>
<path d="M1287.56 629.75C1295.62 629.75 1302.15 623.218 1302.15 615.16C1302.15 607.102 1295.62 600.57 1287.56 600.57C1279.5 600.57 1272.97 607.102 1272.97 615.16C1272.97 623.218 1279.5 629.75 1287.56 629.75Z" fill="#EDF3FF"/>
<path d="M1320.79 446.88C1328.85 446.88 1335.38 440.348 1335.38 432.29C1335.38 424.232 1328.85 417.7 1320.79 417.7C1312.73 417.7 1306.2 424.232 1306.2 432.29C1306.2 440.348 1312.73 446.88 1320.79 446.88Z" fill="#EDF3FF"/>
<path d="M622.36 371.81C614.63 374.05 606.01 371.37 600.29 364.95C596.27 360.43 588.03 347.44 598.23 324.39C599.25 322.1 600.35 320.05 601.52 318.24C594.83 313.86 588.78 311.55 586.85 311.5C586.85 311.5 587.09 311.5 587.47 311.42L584.06 295.79C591.25 294.22 603.29 299.69 613.44 307.04C616.01 305.71 618.5 304.92 620.73 304.46C643.41 299.82 668.7 322.65 671.51 325.27L660.61 336.98C655.53 332.26 639.56 320.06 627.39 319.84C635.77 329.84 639.45 340.55 638.09 351.2C636.78 361.47 631.03 369.14 622.71 371.71C622.6 371.75 622.48 371.78 622.37 371.81H622.36ZM613.9 328.72C613.54 329.39 613.2 330.11 612.86 330.86C606.24 345.82 610.72 352.59 612.25 354.31C613.9 356.16 616.15 357 617.99 356.42C620.18 355.74 621.72 353.1 622.22 349.16C623.02 342.93 620.46 336.33 614.63 329.55C614.39 329.27 614.15 328.99 613.9 328.72Z" fill="#EDF3FF"/>
<path d="M572.02 138.16C570.8 137.97 541.83 133.22 524.88 109.96C514.57 95.81 511 78.16 514.27 57.48L530.07 59.98C526.54 82.29 532.68 99.4397 548.3 110.97C560.56 120.02 574.37 122.33 574.5 122.35L572.01 138.16H572.02Z" fill="#EDF3FF"/>
<path d="M557.88 204.3L542.01 202.28C543.59 189.89 541.52 180.06 535.87 173.07C527.45 162.65 513.36 161.34 513.22 161.33L514.44 145.38C515.29 145.44 535.3 147.1 548.16 162.83C556.77 173.36 560.03 187.31 557.87 204.3H557.88Z" fill="#EDF3FF"/>
<path d="M624.79 280.66L618.13 266.11C618.27 266.04 632.4 259.4 642.93 245.73C648.97 237.89 652.63 229.36 653.9 220.2C646.28 220.29 638.43 218.89 630.55 215.94C606.48 206.92 587.24 185.45 586.76 167.07C586.41 153.75 596.42 137.17 611.89 133.71C618.07 132.33 627.66 132.52 638.28 141.25C646.99 148.42 655.05 160.35 662.22 176.71C666.02 185.37 668.33 193.45 669.49 200.95C674.96 198.56 680.49 194.72 685.83 188.9C697.88 175.79 701.44 161.52 701.46 149.26C695.23 148.95 689.03 147.7 682.98 145.49C666.72 139.53 654.17 127.05 651.76 114.43C649.05 100.27 653.93 92.2902 658.5 88.0802C664.9 82.1802 674.96 80.2098 684.75 82.9298C695.04 85.7898 708.16 104.76 714.01 125.22C714.67 127.51 715.23 129.8 715.7 132.08C722.79 130.4 730.57 126.88 738.6 120.4L748.65 132.85C738.99 140.65 728.36 145.75 717.48 148.01C717.76 167.31 711.01 185.16 697.62 199.73C689.6 208.46 680.29 214.47 670.25 217.62C669.11 234.13 662.34 246.93 655.2 256.04C642.22 272.6 625.51 280.35 624.8 280.67L624.79 280.66ZM614.73 149.48C607.84 151.47 602.59 160.3 602.75 166.64C603.02 177.03 617.37 193.91 636.16 200.95C641.26 202.86 647.3 204.31 653.8 204.26C652.84 197.49 650.76 190.44 647.55 183.12C637.3 159.74 625.27 147.11 615.37 149.32C615.15 149.37 614.94 149.42 614.73 149.48ZM672.46 98.15C671.22 98.51 670.15 99.0699 669.34 99.8199C666.48 102.46 666.75 107.57 667.48 111.4C668.64 117.46 676.23 125.96 688.49 130.45C691.37 131.51 695.12 132.55 699.52 133.04C695.04 114.17 684.13 100.13 680.3 98.2799C677.48 97.5199 674.7 97.5 672.46 98.15Z" fill="#EDF3FF"/>
<path d="M489.4 535.34C483.42 537.07 476.48 536.67 469.92 534.01C460.02 530.01 449.11 509.68 445.61 488.69C445.22 486.33 444.92 484 444.71 481.69C437.47 482.56 429.35 485.18 420.64 490.71L412.05 477.21C422.53 470.54 433.67 466.67 444.73 465.66C446.62 446.45 455.35 429.48 470.29 416.5C479.25 408.72 489.2 403.79 499.56 401.79C501.47 391.36 505.64 381.73 512.07 373.13C527.61 352.32 550.79 344.58 551.77 344.26L556.73 359.47L554.25 351.86L556.75 359.46C556.56 359.52 537.31 366.06 524.89 382.69C520.7 388.3 517.75 394.43 516.05 401.05C523.63 401.82 531.27 404.1 538.75 407.91C561.65 419.58 578.35 443.08 576.76 461.41C575.72 473.34 566.08 486.93 552.71 490.8C551.2 491.24 549.64 491.55 548.03 491.72C541.73 492.4 532.22 491.13 522.66 481.26C514.81 473.16 508.15 460.4 502.87 443.33C500.21 434.74 498.73 426.4 498.42 418.41C492.7 420.17 486.76 423.36 480.78 428.56C467.33 440.23 462.18 454.01 460.78 466.19C466.94 467.2 472.96 469.14 478.71 472.02C494.2 479.77 505.26 493.59 506.24 506.4C507.34 520.77 501.59 528.16 496.58 531.83C494.45 533.39 492.01 534.55 489.4 535.31V535.34ZM476.07 519.24C480.29 520.9 484.62 520.79 487.14 518.94C490.28 516.64 490.59 511.53 490.29 507.65C489.82 501.49 483.23 492.2 471.56 486.36C468.81 484.99 465.21 483.53 460.89 482.54C463.22 501.8 472.48 516.98 476.07 519.24ZM514.35 416.92C514.53 423.76 515.8 431 518.17 438.63C525.72 463.01 536.25 476.92 546.34 475.84C553.68 475.05 560.26 466.56 560.83 460.05C561.73 449.69 549.38 431.3 531.5 422.19C526.65 419.72 520.81 417.59 514.36 416.92H514.35Z" fill="#EDF3FF"/>
<path d="M837.13 434.77C831.15 436.5 824.21 436.1 817.65 433.44C807.75 429.44 796.84 409.11 793.34 388.12C792.95 385.76 792.65 383.43 792.44 381.12C785.2 381.99 777.08 384.61 768.37 390.14L759.78 376.64C770.26 369.97 781.4 366.1 792.46 365.09C794.35 345.88 803.08 328.91 818.02 315.93C826.97 308.16 836.9 303.24 847.23 301.23C850.22 284.96 858.39 273 866.51 264.75C881.27 249.75 898.75 243.94 899.49 243.7L904.45 258.91L901.97 251.3L904.47 258.9C904.32 258.95 889.53 263.96 877.53 276.36C870.65 283.47 866.05 291.53 863.75 300.49C871.34 301.26 878.98 303.54 886.47 307.35C909.37 319.02 926.07 342.52 924.48 360.85C923.44 372.78 913.8 386.37 900.43 390.24C898.92 390.68 897.36 390.99 895.75 391.16C889.45 391.84 879.94 390.57 870.38 380.7C862.53 372.6 855.87 359.84 850.59 342.77C847.79 333.73 846.4 325.44 846.09 317.87C840.38 319.63 834.46 322.82 828.49 328C815.04 339.67 809.89 353.45 808.49 365.63C814.65 366.64 820.67 368.58 826.42 371.46C841.91 379.21 852.97 393.03 853.95 405.84C855.05 420.21 849.3 427.6 844.29 431.27C842.16 432.83 839.72 433.99 837.11 434.75L837.13 434.77ZM823.8 418.67C828.02 420.33 832.35 420.22 834.87 418.37C838.01 416.07 838.32 410.96 838.02 407.08C837.55 400.92 830.96 391.63 819.29 385.79C816.54 384.42 812.94 382.96 808.62 381.97C810.95 401.23 820.21 416.41 823.8 418.67ZM862.07 316.34C862.26 323.17 863.53 330.41 865.89 338.05C873.44 362.43 883.97 376.34 894.06 375.26C901.4 374.47 907.98 365.98 908.55 359.47C909.45 349.11 897.1 330.72 879.22 321.61C874.36 319.14 868.53 317.01 862.07 316.34Z" fill="#EDF3FF"/>
<path d="M391.57 197.07C385.59 198.8 378.65 198.4 372.09 195.74C362.19 191.74 351.28 171.41 347.78 150.42C347.39 148.07 347.09 145.73 346.88 143.42C339.64 144.29 331.52 146.91 322.81 152.44L314.22 138.94C324.7 132.27 335.84 128.4 346.9 127.39C348.79 108.18 357.52 91.21 372.46 78.23C381.42 70.45 391.37 65.52 401.73 63.52C403.64 53.09 407.81 43.4599 414.24 34.8599C429.78 14.0499 452.96 6.30975 453.94 5.98975L458.9 21.1997L456.42 13.5898L458.92 21.1899C458.73 21.2499 439.48 27.7897 427.06 44.4297C422.87 50.0397 419.92 56.17 418.22 62.79C425.8 63.56 433.44 65.8399 440.92 69.6499C463.82 81.3199 480.52 104.82 478.93 123.15C477.89 135.08 468.25 148.67 454.88 152.54C453.37 152.98 451.81 153.29 450.2 153.46C443.9 154.13 434.39 152.87 424.83 143C416.98 134.9 410.32 122.14 405.04 105.07C402.38 96.4798 400.9 88.1399 400.59 80.1499C394.87 81.9099 388.93 85.1098 382.95 90.2998C369.5 101.97 364.35 115.75 362.95 127.93C369.11 128.94 375.13 130.88 380.88 133.76C396.37 141.51 407.43 155.33 408.41 168.14C409.51 182.51 403.76 189.9 398.75 193.57C396.62 195.13 394.18 196.29 391.57 197.05V197.07ZM378.23 180.97C382.45 182.63 386.78 182.52 389.3 180.67C392.44 178.37 392.75 173.26 392.45 169.38C391.98 163.22 385.39 153.93 373.72 148.09C370.97 146.72 367.37 145.26 363.05 144.27C365.38 163.53 374.64 178.71 378.23 180.97ZM416.51 78.6499C416.69 85.4899 417.96 92.7299 420.33 100.36C427.88 124.74 438.41 138.65 448.5 137.57C455.84 136.78 462.42 128.29 462.99 121.78C463.89 111.42 451.54 93.0299 433.66 83.9199C428.81 81.4499 422.97 79.3199 416.52 78.6499H416.51Z" fill="#EDF3FF"/>
<path d="M754.41 63.54C749.96 67.89 743.65 70.8201 736.62 71.5801C726 72.7301 706.78 59.9697 693.78 43.1396C692.32 41.2496 690.95 39.3299 689.67 37.3999C683.7 41.5799 677.78 47.73 672.73 56.73L658.78 48.8896C664.87 38.0596 672.85 29.3898 682.12 23.2598C674.71 5.43976 674.37 -13.6401 681.41 -32.1401C685.62 -43.2101 692.05 -52.2504 700.2 -58.9004C695.14 -74.6504 696.69 -89.0599 699.95 -100.17C705.87 -120.36 718.53 -133.75 719.06 -134.31L730.62 -123.25L724.84 -128.78L730.64 -123.27C730.53 -123.16 719.87 -111.75 715.16 -95.1504C712.46 -85.6304 712.22 -76.3501 714.43 -67.3701C721.48 -70.2801 729.29 -71.8801 737.69 -72.0601C763.39 -72.6001 789.21 -59.7904 796.47 -42.8804C801.19 -31.8804 799.13 -15.3403 789.17 -5.61035C788.04 -4.51035 786.82 -3.50034 785.48 -2.59033C780.25 0.979675 771.27 4.35968 758.18 0.179688C747.43 -3.25031 735.53 -11.3501 722.81 -23.8901C716.07 -30.5301 710.93 -37.18 707.08 -43.71C702.88 -39.46 699.17 -33.85 696.36 -26.46C690.03 -9.81996 692 4.7599 696.52 16.1499C702.42 14.1299 708.65 12.9901 715.08 12.8101C732.39 12.3201 748.67 19.2696 755.59 30.0996C763.35 42.2496 761.78 51.4698 759.1 57.0698C757.96 59.4598 756.36 61.6298 754.42 63.5298L754.41 63.54ZM735.05 55.6597C739.55 55.1297 743.31 52.9799 744.66 50.1699C746.34 46.6599 744.2 42.01 742.1 38.73C738.78 33.53 728.58 28.4498 715.53 28.8198C712.46 28.9098 708.59 29.33 704.32 30.5C715.48 46.37 730.81 55.3699 735.05 55.6699V55.6597ZM720.41 -52.6001C723.8 -46.6701 728.35 -40.8903 734.04 -35.2803C752.22 -17.3603 768.07 -10.0803 776.45 -15.8003C782.54 -19.9603 784.33 -30.5601 781.75 -36.5601C777.65 -46.1101 758.07 -56.4803 738.01 -56.0503C732.56 -55.9303 726.41 -55.0503 720.4 -52.5903L720.41 -52.6001Z" fill="#EDF3FF"/>
<path d="M460.76 383.09C459.62 383.42 458.46 383.68 457.26 383.87C448.15 385.32 437.68 382.79 426.12 376.33C418.02 371.81 412.27 366.91 412.03 366.7L422.44 354.55C427.58 358.93 443.42 369.9 454.77 368.07C458.79 367.42 461.85 365.17 464.4 360.98C468.05 354.97 469.19 349.98 467.86 345.73C464.8 335.93 448.54 328.66 436.66 323.36L443.19 308.75C458.67 315.67 477.93 324.27 483.14 340.97C485.87 349.74 484.17 359.27 478.08 369.3C473.8 376.34 467.87 381.05 460.77 383.11L460.76 383.09Z" fill="#EDF3FF"/>
<path d="M799.49 285.12C798.35 285.45 797.19 285.71 795.99 285.9C786.88 287.35 776.41 284.82 764.85 278.36C756.75 273.84 751 268.94 750.76 268.73L761.17 256.58C766.31 260.96 782.15 271.93 793.5 270.1C797.52 269.45 800.58 267.2 803.13 263.01C806.78 257 807.92 252.01 806.59 247.76C803.53 237.96 787.27 230.69 775.39 225.39L781.92 210.78C797.4 217.7 816.66 226.3 821.87 243C824.6 251.77 822.9 261.3 816.81 271.33C812.53 278.37 806.6 283.08 799.5 285.14L799.49 285.12Z" fill="#EDF3FF"/>
<path d="M609.6 96.4897C605.44 97.6897 601.07 98.4196 596.59 98.5996C579.97 99.2696 565.85 91.9598 558.82 79.0498C551.51 65.6098 549.76 52.7197 553.64 40.7397C559.89 21.4097 578.71 12.2101 579.51 11.8301L586.42 26.2598L582.96 19.0498L586.45 26.25C586.31 26.32 572.89 33.0198 568.82 45.7798C566.39 53.3998 567.76 62.0197 572.87 71.4097C578.7 82.1297 590.95 82.8196 595.94 82.6196C607.21 82.1696 621.14 75.9596 626.86 63.0996C633.28 48.6496 627.38 29.34 610.23 8.75L622.53 -1.49023C634.84 13.2898 653.67 42.1796 641.49 69.5996C635.7 82.6196 623.84 92.3898 609.6 96.5098V96.4897Z" fill="#EDF3FF"/>
<path d="M707.78 435.96C703.62 437.16 699.25 437.89 694.77 438.07C678.15 438.74 664.03 431.43 657 418.52C649.69 405.08 647.94 392.19 651.82 380.21C658.07 360.88 676.89 351.68 677.69 351.3L684.6 365.73L681.14 358.52L684.63 365.72C684.49 365.79 671.07 372.49 667 385.25C664.57 392.87 665.94 401.49 671.05 410.88C676.88 421.6 689.13 422.29 694.12 422.09C705.39 421.64 719.32 415.43 725.04 402.57C731.46 388.12 725.56 368.81 708.41 348.22L720.71 337.98C733.02 352.76 751.85 381.65 739.67 409.07C733.88 422.09 722.02 431.86 707.78 435.98V435.96Z" fill="#EDF3FF"/>
<path d="M887.63 27.5298C883.47 28.7298 879.1 29.4596 874.62 29.6396C858 30.3096 843.88 22.9998 836.85 10.0898C829.54 -3.35016 827.79 -16.2402 831.67 -28.2202C837.92 -47.5502 856.74 -56.7504 857.54 -57.1304L864.45 -42.7002L860.99 -49.9102L864.48 -42.71C864.34 -42.64 850.92 -35.9402 846.85 -23.1802C844.42 -15.5602 845.79 -6.94029 850.9 2.44971C856.73 13.1697 868.98 13.8597 873.97 13.6597C885.24 13.2097 899.17 6.99965 904.89 -5.86035C911.31 -20.3104 905.41 -39.62 888.26 -60.21L900.56 -70.4502C912.87 -55.6702 931.7 -26.7803 919.52 0.639648C913.73 13.6597 901.87 23.4298 887.63 27.5498V27.5298Z" fill="#EDF3FF"/>
<path d="M519.2 337.44L503.27 338.9C501.33 317.71 507.25 298.57 519.52 286.4C527.54 278.44 542.26 269.45 566.88 271.87C567.59 271.94 568.33 272.02 569.09 272.1C572.11 272.42 579.07 273.17 580.98 272.1C581.18 271.33 581.75 267.05 575.42 254.52C572.69 249.12 564.38 232.69 573.03 222.04C575.61 218.85 580.72 215.1 590.39 215.29C595.11 215.39 599.01 216.39 599.43 216.5L595.31 231.96C591.25 230.91 586.22 231.16 585.46 232.11C585.44 232.14 583.73 235.47 589.71 247.29C600.28 268.2 597.31 276.68 594.16 281.25C587.97 290.21 575.59 288.88 567.4 288.01C566.69 287.93 566 287.86 565.33 287.79C550.53 286.34 538.92 289.69 530.8 297.75C521.94 306.56 517.71 321.03 519.21 337.45L519.2 337.44Z" fill="#EDF3FF"/>
<path d="M492.33 280.76C485.74 282.67 479.14 283.2 472.92 282.24C466.95 281.32 460.95 278.85 455.95 274.51C448.35 279.02 440.97 282.37 434.35 284.85C410.8 293.66 391.74 293.62 390.94 293.61L391.06 277.61L391 285.61L391.04 277.61C391.21 277.61 408.42 277.57 429.31 269.65C435.49 267.31 441.32 264.55 446.81 261.4C444.33 255.13 443.15 247.31 443.94 237.76C445.07 223.95 449.6 211.41 457.04 201.48C463.54 192.81 472.02 186.45 480.9 183.58C491.18 180.26 500.62 182.13 506.14 188.6C509.84 192.94 514.64 202.99 505.2 221.59C495.48 240.72 482.93 254.68 470.06 264.84C471.65 265.6 473.43 266.14 475.37 266.44C484.02 267.78 494.68 264.2 503.87 256.88C514.76 248.21 522.66 235.12 526.12 220.02L541.72 223.59C537.45 242.2 527.56 258.47 513.85 269.39C507.08 274.79 499.72 278.64 492.34 280.77L492.33 280.76ZM486.42 198.61C486.22 198.67 486.02 198.73 485.82 198.79C477.18 201.58 462 213.2 459.88 239.05C459.48 243.98 459.73 248.32 460.6 252.01C473.1 242.05 483.24 229.46 490.93 214.32C495.69 204.94 495 200.18 493.97 198.97C493.08 197.93 490.23 197.5 486.42 198.6V198.61Z" fill="#EDF3FF"/>
<path d="M830.6 182.92C824.01 184.83 817.41 185.36 811.19 184.4C805.22 183.48 799.22 181.01 794.22 176.67C786.62 181.18 779.24 184.53 772.62 187.01C749.07 195.82 730.01 195.78 729.21 195.77L729.33 179.77L729.27 187.77L729.31 179.77C729.48 179.77 746.69 179.73 767.58 171.81C773.76 169.47 779.59 166.71 785.08 163.56C782.6 157.29 781.42 149.47 782.21 139.92C783.34 126.11 787.87 113.57 795.31 103.64C801.81 94.9695 810.29 88.6096 819.17 85.7396C829.45 82.4196 838.89 84.2897 844.41 90.7597C848.11 95.0997 852.91 105.15 843.47 123.75C833.75 142.88 821.2 156.84 808.33 167C809.92 167.76 811.7 168.299 813.64 168.599C822.29 169.939 832.95 166.36 842.14 159.04C853.03 150.37 860.93 137.28 864.39 122.18L879.99 125.75C875.72 144.36 865.83 160.63 852.12 171.55C845.35 176.95 837.99 180.8 830.61 182.93L830.6 182.92ZM824.68 100.78C824.48 100.84 824.28 100.9 824.08 100.96C815.44 103.75 800.26 115.37 798.14 141.22C797.74 146.15 797.99 150.49 798.86 154.18C811.36 144.22 821.5 131.63 829.19 116.49C833.95 107.11 833.26 102.35 832.23 101.14C831.34 100.1 828.49 99.6699 824.68 100.77V100.78Z" fill="#EDF3FF"/>
<path d="M669.23 301.21L655.46 293.06C655.74 292.59 662.39 281.46 674.57 272.88C686.26 264.66 705.26 257.23 729.4 268.54L722.61 283.03C689.8 267.66 670.05 299.83 669.23 301.21Z" fill="#EDF3FF"/>
<path d="M805.78 58.2796L798.21 44.1897C798.69 43.9297 810.14 37.8398 825 36.7898C839.25 35.7898 859.36 39.2494 874.18 61.4094L860.88 70.3098C840.74 40.1998 807.2 57.5296 805.79 58.2796H805.78Z" fill="#EDF3FF"/>
<path d="M718.78 241.38C726.838 241.38 733.37 234.848 733.37 226.79C733.37 218.732 726.838 212.2 718.78 212.2C710.723 212.2 704.19 218.732 704.19 226.79C704.19 234.848 710.723 241.38 718.78 241.38Z" fill="#EDF3FF"/>
<path d="M700.84 324.07C708.898 324.07 715.43 317.538 715.43 309.48C715.43 301.422 708.898 294.89 700.84 294.89C692.782 294.89 686.25 301.422 686.25 309.48C686.25 317.538 692.782 324.07 700.84 324.07Z" fill="#EDF3FF"/>
<path d="M474.98 77.0498C483.038 77.0498 489.57 70.5178 489.57 62.46C489.57 54.4021 483.038 47.8696 474.98 47.8696C466.922 47.8696 460.39 54.4021 460.39 62.46C460.39 70.5178 466.922 77.0498 474.98 77.0498Z" fill="#EDF3FF"/>
<path d="M598.75 66.6797C606.808 66.6797 613.34 60.1477 613.34 52.0898C613.34 44.032 606.808 37.5 598.75 37.5C590.692 37.5 584.16 44.032 584.16 52.0898C584.16 60.1477 590.692 66.6797 598.75 66.6797Z" fill="#EDF3FF"/>
<path d="M425.69 222.47C433.748 222.47 440.28 215.938 440.28 207.88C440.28 199.822 433.748 193.29 425.69 193.29C417.632 193.29 411.1 199.822 411.1 207.88C411.1 215.938 417.632 222.47 425.69 222.47Z" fill="#EDF3FF"/>
<path d="M771.93 107.64C779.988 107.64 786.52 101.108 786.52 93.0498C786.52 84.992 779.988 78.46 771.93 78.46C763.872 78.46 757.34 84.992 757.34 93.0498C757.34 101.108 763.872 107.64 771.93 107.64Z" fill="#EDF3FF"/>
<path d="M573.16 416.52C581.218 416.52 587.75 409.988 587.75 401.93C587.75 393.872 581.218 387.34 573.16 387.34C565.102 387.34 558.57 393.872 558.57 401.93C558.57 409.988 565.102 416.52 573.16 416.52Z" fill="#EDF3FF"/>
<path d="M747.42 330.64L733.84 322.18C741.25 310.2 764.11 289.81 797.53 298.39L793.55 313.89C763.35 306.14 748.05 329.64 747.41 330.64H747.42Z" fill="#EDF3FF"/>
<path d="M52.03 393.25C44.3 395.49 35.68 392.81 29.96 386.39C25.94 381.87 17.7 368.88 27.9 345.83C28.92 343.54 30.02 341.49 31.19 339.68C24.5 335.3 18.45 332.99 16.52 332.94C16.52 332.94 16.76 332.94 17.14 332.86L13.73 317.23C20.92 315.66 32.96 321.13 43.11 328.48C45.68 327.15 48.17 326.36 50.4 325.9C73.08 321.26 98.37 344.09 101.18 346.71L90.28 358.42C85.2 353.7 69.23 341.5 57.06 341.28C65.44 351.28 69.12 361.99 67.76 372.64C66.45 382.91 60.7 390.58 52.38 393.15C52.27 393.19 52.15 393.22 52.04 393.25H52.03ZM43.57 350.16C43.21 350.83 42.87 351.55 42.53 352.3C35.91 367.26 40.39 374.03 41.92 375.75C43.57 377.6 45.82 378.44 47.66 377.86C49.85 377.18 51.39 374.54 51.89 370.6C52.69 364.37 50.13 357.77 44.3 350.99C44.06 350.71 43.82 350.43 43.57 350.16Z" fill="#EDF3FF"/>
<path d="M1.69044 159.6C0.47044 159.41 -28.4996 154.66 -45.4496 131.4C-55.7596 117.25 -59.3296 99.5999 -56.0596 78.9199L-40.2596 81.4199C-43.7896 103.73 -37.6496 120.88 -22.0296 132.41C-9.76956 141.46 4.04044 143.77 4.17044 143.79L1.68044 159.6H1.69044Z" fill="#EDF3FF"/>
<path d="M54.4603 302.1L47.8003 287.55C47.9403 287.48 62.0703 280.84 72.6003 267.17C78.6403 259.33 82.3003 250.8 83.5703 241.64C75.9503 241.73 68.1003 240.33 60.2203 237.38C36.1503 228.36 16.9103 206.89 16.4303 188.51C16.0803 175.19 26.0903 158.61 41.5603 155.15C47.7403 153.77 57.3303 153.96 67.9503 162.69C76.6603 169.86 84.7203 181.79 91.8903 198.15C95.6903 206.81 98.0003 214.89 99.1603 222.39C104.63 220 110.16 216.16 115.5 210.34C127.55 197.23 131.11 182.96 131.13 170.7C124.9 170.39 118.7 169.14 112.65 166.93C96.3903 160.97 83.8403 148.49 81.4303 135.87C78.7203 121.71 83.6003 113.73 88.1703 109.52C94.5703 103.62 104.63 101.65 114.42 104.37C124.71 107.23 137.83 126.2 143.68 146.66C144.34 148.95 144.9 151.24 145.37 153.52C152.46 151.84 160.24 148.32 168.27 141.84L178.32 154.29C168.66 162.09 158.03 167.19 147.15 169.45C147.43 188.75 140.68 206.6 127.29 221.17C119.27 229.9 109.96 235.91 99.9203 239.06C98.7803 255.57 92.0103 268.37 84.8703 277.48C71.8903 294.04 55.1803 301.79 54.4703 302.11L54.4603 302.1ZM44.4003 170.92C37.5103 172.91 32.2603 181.74 32.4203 188.08C32.6903 198.47 47.0403 215.35 65.8303 222.39C70.9303 224.3 76.9703 225.75 83.4703 225.7C82.5103 218.93 80.4303 211.88 77.2203 204.56C66.9703 181.18 54.9403 168.55 45.0403 170.76C44.8203 170.81 44.6103 170.86 44.4003 170.92ZM102.13 119.59C100.89 119.95 99.8203 120.51 99.0103 121.26C96.1503 123.9 96.4203 129.01 97.1503 132.84C98.3103 138.9 105.9 147.4 118.16 151.89C121.04 152.95 124.79 153.99 129.19 154.48C124.71 135.61 113.8 121.57 109.97 119.72C107.15 118.96 104.37 118.94 102.13 119.59Z" fill="#EDF3FF"/>
<path d="M-80.9298 556.78C-86.9098 558.51 -93.8498 558.11 -100.41 555.45C-110.31 551.45 -121.22 531.12 -124.72 510.13C-125.11 507.77 -125.41 505.44 -125.62 503.13C-132.86 504 -140.98 506.62 -149.69 512.15L-158.28 498.65C-147.8 491.98 -136.66 488.11 -125.6 487.1C-123.71 467.89 -114.98 450.92 -100.04 437.94C-91.0798 430.16 -81.1298 425.23 -70.7698 423.23C-68.8598 412.8 -64.6898 403.17 -58.2598 394.57C-42.7198 373.76 -19.5398 366.02 -18.5598 365.7L-13.5998 380.91L-16.0798 373.3L-13.5798 380.9C-13.7698 380.96 -33.0198 387.5 -45.4398 404.13C-49.6298 409.74 -52.5798 415.87 -54.2798 422.49C-46.6998 423.26 -39.0598 425.54 -31.5798 429.35C-8.67979 441.02 8.0202 464.52 6.43021 482.85C5.39021 494.78 -4.24979 508.37 -17.6198 512.24C-19.1298 512.68 -20.6898 512.99 -22.2998 513.16C-28.5998 513.84 -38.1098 512.57 -47.6698 502.7C-55.5198 494.6 -62.1798 481.84 -67.4598 464.77C-70.1198 456.18 -71.5998 447.84 -71.9098 439.85C-77.6298 441.61 -83.5698 444.8 -89.5498 450C-103 461.67 -108.15 475.45 -109.55 487.63C-103.39 488.64 -97.3698 490.58 -91.6198 493.46C-76.1298 501.21 -65.0698 515.03 -64.0898 527.84C-62.9898 542.21 -68.7398 549.6 -73.7498 553.27C-75.8798 554.83 -78.3198 555.99 -80.9298 556.75V556.78ZM-94.2598 540.68C-90.0398 542.34 -85.7098 542.23 -83.1898 540.38C-80.0498 538.08 -79.7398 532.97 -80.0398 529.09C-80.5098 522.93 -87.0998 513.64 -98.7698 507.8C-101.52 506.43 -105.12 504.97 -109.44 503.98C-107.11 523.24 -97.8498 538.42 -94.2598 540.68ZM-55.9798 438.36C-55.7998 445.2 -54.5298 452.44 -52.1598 460.07C-44.6098 484.45 -34.0798 498.36 -23.9898 497.28C-16.6498 496.49 -10.0698 488 -9.49979 481.49C-8.59979 471.13 -20.9498 452.74 -38.8298 443.63C-43.6798 441.16 -49.5198 439.03 -55.9698 438.36H-55.9798Z" fill="#EDF3FF"/>
<path d="M266.8 456.2C260.82 457.93 253.88 457.53 247.32 454.87C237.42 450.87 226.51 430.54 223.01 409.55C222.62 407.19 222.32 404.86 222.11 402.55C214.87 403.42 206.75 406.04 198.04 411.57L189.45 398.07C199.93 391.4 211.07 387.53 222.13 386.52C224.02 367.31 232.75 350.34 247.69 337.36C256.64 329.59 266.57 324.67 276.9 322.66C279.89 306.39 288.06 294.43 296.18 286.18C310.94 271.18 328.42 265.37 329.16 265.13L334.12 280.34L331.64 272.73L334.14 280.33C333.99 280.38 319.2 285.39 307.2 297.79C300.32 304.9 295.72 312.96 293.42 321.92C301.01 322.69 308.65 324.97 316.14 328.78C339.04 340.45 355.74 363.95 354.15 382.28C353.11 394.21 343.47 407.8 330.1 411.67C328.59 412.11 327.03 412.42 325.42 412.59C319.12 413.27 309.61 412 300.05 402.13C292.2 394.03 285.54 381.27 280.26 364.2C277.46 355.16 276.07 346.87 275.76 339.3C270.05 341.06 264.13 344.25 258.16 349.43C244.71 361.1 239.56 374.88 238.16 387.06C244.32 388.07 250.34 390.01 256.09 392.89C271.58 400.64 282.64 414.46 283.62 427.27C284.72 441.64 278.97 449.03 273.96 452.7C271.83 454.26 269.39 455.42 266.78 456.18L266.8 456.2ZM253.46 440.11C257.68 441.77 262.01 441.66 264.53 439.81C267.67 437.51 267.98 432.4 267.68 428.52C267.21 422.36 260.62 413.07 248.95 407.23C246.2 405.86 242.6 404.4 238.28 403.41C240.61 422.67 249.87 437.85 253.46 440.11ZM291.73 337.78C291.92 344.61 293.19 351.85 295.55 359.49C303.1 383.87 313.63 397.78 323.72 396.7C331.06 395.91 337.64 387.42 338.21 380.91C339.11 370.55 326.76 352.16 308.88 343.05C304.02 340.58 298.19 338.45 291.73 337.78Z" fill="#EDF3FF"/>
<path d="M184.08 84.98C179.63 89.33 173.32 92.26 166.29 93.02C155.67 94.17 136.45 81.4101 123.45 64.5801C121.99 62.6901 120.62 60.7698 119.34 58.8398C113.37 63.0198 107.45 69.1699 102.4 78.1699L88.4502 70.3301C94.5402 59.5001 102.52 50.8297 111.79 44.6997C104.38 26.8797 104.04 7.7998 111.08 -10.7002C115.29 -21.7702 121.72 -30.81 129.87 -37.46C124.81 -53.21 126.36 -67.62 129.62 -78.73C135.54 -98.92 148.2 -112.31 148.73 -112.87L160.29 -101.81L154.51 -107.34L160.31 -101.83C160.2 -101.72 149.54 -90.31 144.83 -73.71C142.13 -64.19 141.89 -54.9102 144.1 -45.9302C151.15 -48.8402 158.96 -50.4401 167.36 -50.6201C193.06 -51.1601 218.88 -38.3499 226.14 -21.4399C230.86 -10.4399 228.8 6.10008 218.84 15.8301C217.71 16.9301 216.49 17.9396 215.15 18.8496C209.92 22.4196 200.94 25.7996 187.85 21.6196C177.1 18.1896 165.2 10.0898 152.48 -2.4502C145.74 -9.09019 140.6 -15.74 136.75 -22.27C132.55 -18.02 128.84 -12.41 126.03 -5.02002C119.7 11.62 121.67 26.1998 126.19 37.5898C132.09 35.5698 138.32 34.43 144.75 34.25C162.06 33.76 178.34 40.71 185.26 51.54C193.02 63.69 191.45 72.9098 188.77 78.5098C187.63 80.8998 186.03 83.0697 184.09 84.9697L184.08 84.98ZM164.72 77.0996C169.22 76.5696 172.98 74.4199 174.33 71.6099C176.01 68.0999 173.87 63.4499 171.77 60.1699C168.45 54.9699 158.25 49.8898 145.2 50.2598C142.13 50.3498 138.26 50.7699 133.99 51.9399C145.15 67.8099 160.48 76.8099 164.72 77.1099V77.0996ZM150.08 -31.1602C153.47 -25.2302 158.02 -19.4503 163.71 -13.8403C181.89 4.07967 197.74 11.3596 206.12 5.63965C212.21 1.47964 214 -9.12012 211.42 -15.1201C207.32 -24.6701 187.74 -35.0404 167.68 -34.6104C162.23 -34.4903 156.08 -33.6104 150.07 -31.1504L150.08 -31.1602Z" fill="#EDF3FF"/>
<path d="M229.16 306.55C228.02 306.88 226.86 307.14 225.66 307.33C216.55 308.78 206.08 306.25 194.52 299.79C186.42 295.27 180.67 290.37 180.43 290.16L190.84 278.01C195.98 282.39 211.82 293.36 223.17 291.53C227.19 290.88 230.25 288.63 232.8 284.44C236.45 278.43 237.59 273.44 236.26 269.19C233.2 259.39 216.94 252.12 205.06 246.82L211.59 232.21C227.07 239.13 246.33 247.73 251.54 264.43C254.27 273.2 252.57 282.73 246.48 292.76C242.2 299.8 236.27 304.51 229.17 306.57L229.16 306.55Z" fill="#EDF3FF"/>
<path d="M39.2701 117.93C35.1101 119.13 30.7401 119.86 26.2601 120.04C9.6401 120.71 -4.4799 113.4 -11.5099 100.49C-18.8199 87.0497 -20.5699 74.1597 -16.6899 62.1797C-10.4399 42.8497 8.3801 33.65 9.1801 33.27L16.0901 47.6997L12.6301 40.4897L16.1201 47.6899C15.9801 47.7599 2.5601 54.4597 -1.5099 67.2197C-3.9399 74.8397 -2.5699 83.4596 2.5401 92.8496C8.3701 103.57 20.6201 104.26 25.6101 104.06C36.8801 103.61 50.8101 97.4 56.5301 84.54C62.9501 70.09 57.0501 50.7799 39.9001 30.1899L52.2001 19.9497C64.5101 34.7297 83.3401 63.62 71.1601 91.04C65.3701 104.06 53.5101 113.83 39.2701 117.95V117.93Z" fill="#EDF3FF"/>
<path d="M137.45 457.4C133.29 458.6 128.92 459.33 124.44 459.51C107.82 460.18 93.7003 452.87 86.6703 439.96C79.3603 426.52 77.6103 413.63 81.4903 401.65C87.7403 382.32 106.56 373.12 107.36 372.74L114.27 387.17L110.81 379.96L114.3 387.16C114.16 387.23 100.74 393.93 96.6703 406.69C94.2403 414.31 95.6103 422.93 100.72 432.32C106.55 443.04 118.8 443.73 123.79 443.53C135.06 443.08 148.99 436.87 154.71 424.01C161.13 409.56 155.23 390.25 138.08 369.66L150.38 359.42C162.69 374.2 181.52 403.09 169.34 430.51C163.55 443.53 151.69 453.3 137.45 457.42V457.4Z" fill="#EDF3FF"/>
<path d="M317.3 48.9697C313.14 50.1697 308.77 50.9001 304.29 51.0801C287.67 51.7501 273.55 44.4398 266.52 31.5298C259.21 18.0898 257.46 5.19973 261.34 -6.78027C267.59 -26.1103 286.41 -35.3099 287.21 -35.6899L294.12 -21.2603L290.66 -28.4702L294.15 -21.27C294.01 -21.2 280.59 -14.5002 276.52 -1.74023C274.09 5.87976 275.46 14.4996 280.57 23.8896C286.4 34.6096 298.65 35.2996 303.64 35.0996C314.91 34.6496 328.84 28.4401 334.56 15.5801C340.98 1.13008 335.08 -18.18 317.93 -38.77L330.23 -49.0103C342.54 -34.2303 361.37 -5.33992 349.19 22.0801C343.4 35.1001 331.54 44.8697 317.3 48.9897V48.9697Z" fill="#EDF3FF"/>
<path d="M-51.1299 358.88L-67.0599 360.34C-68.9999 339.15 -63.0799 320.01 -50.8099 307.84C-42.7899 299.88 -28.0699 290.89 -3.44987 293.31C-2.73987 293.38 -1.99987 293.46 -1.23987 293.54C1.78013 293.86 8.74013 294.61 10.6501 293.54C10.8501 292.77 11.4201 288.49 5.09013 275.96C2.36013 270.56 -5.94987 254.13 2.70013 243.48C5.28014 240.29 10.3901 236.54 20.0601 236.73C24.7801 236.83 28.6801 237.83 29.1001 237.94L24.9801 253.4C20.9201 252.35 15.8901 252.6 15.1301 253.55C15.1101 253.58 13.4001 256.91 19.3801 268.73C29.9501 289.64 26.9801 298.12 23.8301 302.69C17.6401 311.65 5.26014 310.32 -2.92986 309.45C-3.63986 309.37 -4.32987 309.3 -4.99987 309.23C-19.7999 307.78 -31.4099 311.13 -39.5299 319.19C-48.3899 328 -52.6199 342.47 -51.1199 358.89L-51.1299 358.88Z" fill="#EDF3FF"/>
<path d="M260.26 204.36C253.67 206.27 247.07 206.8 240.85 205.84C234.88 204.92 228.88 202.45 223.88 198.11C216.28 202.62 208.9 205.97 202.28 208.45C178.73 217.26 159.67 217.22 158.87 217.21L158.99 201.21L158.93 209.21L158.97 201.21C159.14 201.21 176.35 201.17 197.24 193.25C203.42 190.91 209.25 188.15 214.74 185C212.26 178.73 211.08 170.91 211.87 161.36C213 147.55 217.53 135.01 224.97 125.08C231.47 116.41 239.95 110.05 248.83 107.18C259.11 103.86 268.55 105.73 274.07 112.2C277.77 116.54 282.57 126.59 273.13 145.19C263.41 164.32 250.86 178.28 237.99 188.44C239.58 189.2 241.36 189.74 243.3 190.04C251.95 191.38 262.61 187.8 271.8 180.48C282.69 171.81 290.59 158.72 294.05 143.62L309.65 147.19C305.38 165.8 295.49 182.07 281.78 192.99C275.01 198.39 267.65 202.24 260.27 204.37L260.26 204.36ZM254.35 122.22C254.15 122.28 253.95 122.34 253.75 122.4C245.11 125.19 229.93 136.81 227.81 162.66C227.41 167.59 227.66 171.93 228.53 175.62C241.03 165.66 251.17 153.07 258.86 137.93C263.62 128.55 262.93 123.79 261.9 122.58C261.01 121.54 258.16 121.11 254.35 122.21V122.22Z" fill="#EDF3FF"/>
<path d="M98.9004 322.65L85.1304 314.5C85.4104 314.03 92.0604 302.9 104.24 294.32C115.93 286.1 134.93 278.67 159.07 289.98L152.28 304.47C119.47 289.1 99.7204 321.27 98.9004 322.65Z" fill="#EDF3FF"/>
<path d="M235.44 79.7195L227.87 65.6297C228.35 65.3697 239.8 59.2798 254.66 58.2298C268.91 57.2298 289.02 60.6894 303.84 82.8494L290.54 91.7498C270.4 61.6398 236.86 78.9695 235.45 79.7195H235.44Z" fill="#EDF3FF"/>
<path d="M148.45 262.82C156.508 262.82 163.04 256.288 163.04 248.23C163.04 240.172 156.508 233.64 148.45 233.64C140.393 233.64 133.86 240.172 133.86 248.23C133.86 256.288 140.393 262.82 148.45 262.82Z" fill="#EDF3FF"/>
<path d="M130.51 345.51C138.568 345.51 145.1 338.978 145.1 330.92C145.1 322.862 138.568 316.33 130.51 316.33C122.453 316.33 115.92 322.862 115.92 330.92C115.92 338.978 122.453 345.51 130.51 345.51Z" fill="#EDF3FF"/>
<path d="M28.4201 88.1196C36.4779 88.1196 43.0101 81.5876 43.0101 73.5298C43.0101 65.472 36.4779 58.9399 28.4201 58.9399C20.3622 58.9399 13.8301 65.472 13.8301 73.5298C13.8301 81.5876 20.3622 88.1196 28.4201 88.1196Z" fill="#EDF3FF"/>
<path d="M201.6 129.08C209.658 129.08 216.19 122.548 216.19 114.49C216.19 106.432 209.658 99.8999 201.6 99.8999C193.542 99.8999 187.01 106.432 187.01 114.49C187.01 122.548 193.542 129.08 201.6 129.08Z" fill="#EDF3FF"/>
<path d="M2.83023 437.96C10.8881 437.96 17.4202 431.427 17.4202 423.37C17.4202 415.312 10.8881 408.78 2.83023 408.78C-5.2276 408.78 -11.7598 415.312 -11.7598 423.37C-11.7598 431.427 -5.2276 437.96 2.83023 437.96Z" fill="#EDF3FF"/>
<path d="M177.09 352.08L163.51 343.62C170.92 331.64 193.78 311.25 227.2 319.83L223.22 335.33C193.02 327.58 177.72 351.08 177.08 352.08H177.09Z" fill="#EDF3FF"/>
<path d="M-29.07 871.16L-35.73 856.61C-35.59 856.54 -21.46 849.9 -10.93 836.23C-4.89 828.39 -1.23 819.86 0.0400009 810.7C-7.58 810.79 -15.43 809.39 -23.31 806.44C-47.38 797.42 -66.62 775.95 -67.1 757.57C-67.45 744.25 -57.44 727.67 -41.97 724.21C-35.79 722.83 -26.2 723.02 -15.58 731.75C-6.87 738.92 1.19 750.85 8.36 767.21C12.16 775.87 14.47 783.95 15.63 791.45C21.1 789.06 26.63 785.22 31.97 779.4C44.02 766.29 47.58 752.02 47.6 739.76C41.37 739.45 35.17 738.2 29.12 735.99C12.86 730.03 0.310005 717.55 -2.1 704.93C-4.81 690.77 0.0700073 682.79 4.64001 678.58C11.04 672.68 21.1 670.71 30.89 673.43C41.18 676.29 54.3 695.26 60.15 715.72C60.81 718.01 61.37 720.3 61.84 722.58C68.93 720.9 76.71 717.38 84.74 710.9L94.79 723.35C85.13 731.15 74.5 736.25 63.62 738.51C63.9 757.81 57.15 775.66 43.76 790.23C35.74 798.96 26.43 804.97 16.39 808.12C15.25 824.63 8.48 837.43 1.34 846.54C-11.64 863.1 -28.35 870.85 -29.06 871.17L-29.07 871.16ZM-39.13 739.99C-46.02 741.98 -51.27 750.81 -51.11 757.15C-50.84 767.54 -36.49 784.42 -17.7 791.46C-12.6 793.37 -6.56 794.82 -0.0599976 794.77C-1.02 788 -3.1 780.95 -6.31 773.63C-16.56 750.25 -28.59 737.62 -38.49 739.83C-38.71 739.88 -38.92 739.93 -39.13 739.99ZM18.6 688.65C17.36 689.01 16.29 689.57 15.48 690.32C12.62 692.96 12.89 698.07 13.62 701.9C14.78 707.96 22.37 716.46 34.63 720.95C37.51 722.01 41.26 723.05 45.66 723.54C41.18 704.67 30.27 690.63 26.44 688.78C23.62 688.02 20.84 688 18.6 688.65Z" fill="#EDF3FF"/>
<path d="M100.55 654.05C96.1004 658.4 89.7904 661.33 82.7604 662.09C72.1404 663.24 52.9204 650.48 39.9204 633.65C38.4604 631.76 37.0904 629.84 35.8104 627.91C29.8404 632.09 23.9204 638.24 18.8704 647.24L4.92041 639.4C11.0104 628.57 18.9904 619.9 28.2604 613.77C20.8504 595.95 20.5104 576.87 27.5504 558.37C31.7604 547.3 38.1904 538.26 46.3404 531.61C41.2804 515.86 42.8304 501.45 46.0904 490.34C52.0104 470.15 64.6704 456.76 65.2004 456.2L76.7604 467.26L70.9804 461.73L76.7804 467.24C76.6704 467.35 66.0104 478.76 61.3004 495.36C58.6004 504.88 58.3604 514.16 60.5704 523.14C67.6204 520.23 75.4304 518.63 83.8304 518.45C109.53 517.91 135.35 530.72 142.61 547.63C147.33 558.63 145.27 575.17 135.31 584.9C134.18 586 132.96 587.01 131.62 587.92C126.39 591.49 117.41 594.87 104.32 590.69C93.5704 587.26 81.6704 579.16 68.9504 566.62C62.2104 559.98 57.0704 553.33 53.2204 546.8C49.0204 551.05 45.3104 556.66 42.5004 564.05C36.1704 580.69 38.1404 595.27 42.6604 606.66C48.5604 604.64 54.7904 603.5 61.2204 603.32C78.5304 602.83 94.8104 609.78 101.73 620.61C109.49 632.76 107.92 641.98 105.24 647.58C104.1 649.97 102.5 652.14 100.56 654.04L100.55 654.05ZM81.1904 646.17C85.6904 645.64 89.4504 643.49 90.8004 640.68C92.4804 637.17 90.3404 632.52 88.2404 629.24C84.9204 624.04 74.7204 618.96 61.6704 619.33C58.6004 619.42 54.7304 619.84 50.4604 621.01C61.6204 636.88 76.9504 645.88 81.1904 646.18V646.17ZM66.5504 537.91C69.9404 543.84 74.4904 549.62 80.1804 555.23C98.3604 573.15 114.21 580.43 122.59 574.71C128.68 570.55 130.47 559.95 127.89 553.95C123.79 544.4 104.21 534.03 84.1504 534.46C78.7004 534.58 72.5504 535.46 66.5404 537.92L66.5504 537.91Z" fill="#EDF3FF"/>
<path d="M233.77 618.04C229.61 619.24 225.24 619.97 220.76 620.15C204.14 620.82 190.02 613.51 182.99 600.6C175.68 587.16 173.93 574.27 177.81 562.29C184.06 542.96 202.88 533.76 203.68 533.38L210.59 547.81L207.13 540.6L210.62 547.8C210.48 547.87 197.06 554.57 192.99 567.33C190.56 574.95 191.93 583.57 197.04 592.96C202.87 603.68 215.12 604.37 220.11 604.17C231.38 603.72 245.31 597.51 251.03 584.65C257.45 570.2 251.55 550.89 234.4 530.3L246.7 520.06C259.01 534.84 277.84 563.73 265.66 591.15C259.87 604.17 248.01 613.94 233.77 618.06V618.04Z" fill="#EDF3FF"/>
<path d="M176.73 773.43C170.14 775.34 163.54 775.87 157.32 774.91C151.35 773.99 145.35 771.52 140.35 767.18C132.75 771.69 125.37 775.04 118.75 777.52C95.2003 786.33 76.1403 786.29 75.3403 786.28L75.4603 770.28L75.4003 778.28L75.4403 770.28C75.6103 770.28 92.8203 770.24 113.71 762.32C119.89 759.98 125.72 757.22 131.21 754.07C128.73 747.8 127.55 739.98 128.34 730.43C129.47 716.62 134 704.08 141.44 694.15C147.94 685.48 156.42 679.12 165.3 676.25C175.58 672.93 185.02 674.8 190.54 681.27C194.24 685.61 199.04 695.66 189.6 714.26C179.88 733.39 167.33 747.35 154.46 757.51C156.05 758.27 157.83 758.81 159.77 759.11C168.42 760.45 179.08 756.87 188.27 749.55C199.16 740.88 207.06 727.79 210.52 712.69L226.12 716.26C221.85 734.87 211.96 751.14 198.25 762.06C191.48 767.46 184.12 771.31 176.74 773.44L176.73 773.43ZM170.82 691.28C170.62 691.34 170.42 691.4 170.22 691.46C161.58 694.25 146.4 705.87 144.28 731.72C143.88 736.65 144.13 740.99 145 744.68C157.5 734.72 167.64 722.13 175.33 706.99C180.09 697.61 179.4 692.85 178.37 691.64C177.48 690.6 174.63 690.17 170.82 691.27V691.28Z" fill="#EDF3FF"/>
<path d="M151.91 648.79L144.34 634.699C144.82 634.439 156.27 628.35 171.13 627.3C185.38 626.3 205.49 629.76 220.31 651.92L207.01 660.82C186.87 630.71 153.33 648.04 151.92 648.79H151.91Z" fill="#EDF3FF"/>
<path d="M118.07 698.15C126.128 698.15 132.66 691.618 132.66 683.56C132.66 675.502 126.128 668.97 118.07 668.97C110.012 668.97 103.48 675.502 103.48 683.56C103.48 691.618 110.012 698.15 118.07 698.15Z" fill="#EDF3FF"/>
<path d="M151.3 515.28C159.358 515.28 165.89 508.748 165.89 500.69C165.89 492.632 159.358 486.1 151.3 486.1C143.242 486.1 136.71 492.632 136.71 500.69C136.71 508.748 143.242 515.28 151.3 515.28Z" fill="#EDF3FF"/>
<path d="M504.25 704.3C503.03 704.11 474.06 699.36 457.11 676.1C446.8 661.95 443.23 644.3 446.5 623.62L462.3 626.12C458.77 648.43 464.91 665.58 480.53 677.11C492.79 686.16 506.6 688.47 506.73 688.49L504.24 704.3H504.25Z" fill="#EDF3FF"/>
<path d="M490.11 770.43L474.24 768.41C475.82 756.02 473.75 746.19 468.1 739.2C459.68 728.78 445.59 727.47 445.45 727.46L446.67 711.51C447.52 711.57 467.53 713.23 480.39 728.96C489 739.49 492.26 753.44 490.1 770.43H490.11Z" fill="#EDF3FF"/>
<path d="M557.02 846.79L550.36 832.24C550.5 832.17 564.63 825.53 575.16 811.86C581.2 804.02 584.86 795.49 586.13 786.33C578.51 786.42 570.66 785.02 562.78 782.07C538.71 773.05 519.47 751.58 518.99 733.2C518.64 719.88 528.65 703.3 544.12 699.84C550.3 698.46 559.89 698.65 570.51 707.38C579.22 714.55 587.28 726.48 594.45 742.84C598.25 751.5 600.56 759.58 601.72 767.08C607.19 764.69 612.72 760.85 618.06 755.03C630.11 741.92 633.67 727.65 633.69 715.39C627.46 715.08 621.26 713.83 615.21 711.62C598.95 705.66 586.4 693.18 583.99 680.56C581.28 666.4 586.16 658.42 590.73 654.21C597.13 648.31 607.19 646.34 616.98 649.06C627.27 651.92 640.39 670.89 646.24 691.35C646.9 693.64 647.46 695.93 647.93 698.21C655.02 696.53 662.8 693.01 670.83 686.53L680.88 698.98C671.22 706.78 660.59 711.88 649.71 714.14C649.99 733.44 643.24 751.29 629.85 765.86C621.83 774.59 612.52 780.6 602.48 783.75C601.34 800.26 594.57 813.06 587.43 822.17C574.45 838.73 557.74 846.48 557.03 846.8L557.02 846.79ZM546.96 715.61C540.07 717.6 534.82 726.43 534.98 732.77C535.25 743.16 549.6 760.04 568.39 767.08C573.49 768.99 579.53 770.44 586.03 770.39C585.07 763.62 582.99 756.57 579.78 749.25C569.53 725.87 557.5 713.24 547.6 715.45C547.38 715.5 547.17 715.55 546.96 715.61ZM604.69 664.28C603.45 664.64 602.38 665.2 601.57 665.95C598.71 668.59 598.98 673.7 599.71 677.53C600.87 683.59 608.46 692.09 620.72 696.58C623.6 697.64 627.35 698.68 631.75 699.17C627.27 680.3 616.36 666.26 612.53 664.41C609.71 663.65 606.93 663.63 604.69 664.28Z" fill="#EDF3FF"/>
<path d="M323.8 763.2C317.82 764.93 310.88 764.53 304.32 761.87C294.42 757.87 283.51 737.54 280.01 716.55C279.62 714.2 279.32 711.86 279.11 709.55C271.87 710.42 263.75 713.04 255.04 718.57L246.45 705.07C256.93 698.4 268.07 694.53 279.13 693.52C281.02 674.31 289.75 657.34 304.69 644.36C313.65 636.58 323.6 631.65 333.96 629.65C335.87 619.22 340.04 609.59 346.47 600.99C362.01 580.18 385.19 572.44 386.17 572.12L391.13 587.33L388.65 579.72L391.15 587.32C390.96 587.38 371.71 593.92 359.29 610.56C355.1 616.17 352.15 622.3 350.45 628.92C358.03 629.69 365.67 631.97 373.15 635.78C396.05 647.45 412.75 670.95 411.16 689.28C410.12 701.21 400.48 714.8 387.11 718.67C385.6 719.11 384.04 719.42 382.43 719.59C376.13 720.26 366.62 719 357.06 709.13C349.21 701.03 342.55 688.27 337.27 671.2C334.61 662.61 333.13 654.27 332.82 646.28C327.1 648.04 321.16 651.24 315.18 656.43C301.73 668.1 296.58 681.88 295.18 694.06C301.34 695.07 307.36 697.01 313.11 699.89C328.6 707.64 339.66 721.46 340.64 734.27C341.74 748.64 335.99 756.03 330.98 759.7C328.85 761.26 326.41 762.42 323.8 763.18V763.2ZM310.46 747.1C314.68 748.76 319.01 748.65 321.53 746.8C324.67 744.5 324.98 739.39 324.68 735.51C324.21 729.35 317.62 720.06 305.95 714.22C303.2 712.85 299.6 711.39 295.28 710.4C297.61 729.66 306.87 744.84 310.46 747.1ZM348.74 644.78C348.92 651.62 350.19 658.86 352.56 666.49C360.11 690.87 370.64 704.78 380.73 703.7C388.07 702.91 394.65 694.42 395.22 687.91C396.12 677.55 383.77 659.16 365.89 650.05C361.04 647.58 355.2 645.45 348.75 644.78H348.74Z" fill="#EDF3FF"/>
<path d="M686.64 629.68C682.19 634.03 675.88 636.96 668.85 637.72C658.23 638.87 639.01 626.11 626.01 609.28C624.55 607.39 623.18 605.47 621.9 603.54C615.93 607.72 610.01 613.87 604.96 622.87L591.01 615.03C597.1 604.2 605.08 595.53 614.35 589.4C606.94 571.58 606.6 552.5 613.64 534C617.85 522.93 624.28 513.89 632.43 507.24C627.37 491.49 628.92 477.08 632.18 465.97C638.1 445.78 650.76 432.39 651.29 431.83L662.85 442.89L657.07 437.36L662.87 442.87C662.76 442.98 652.1 454.39 647.39 470.99C644.69 480.51 644.45 489.79 646.66 498.77C653.71 495.86 661.52 494.26 669.92 494.08C695.62 493.54 721.44 506.35 728.7 523.26C733.42 534.26 731.36 550.8 721.4 560.53C720.27 561.63 719.05 562.64 717.71 563.55C712.48 567.12 703.5 570.5 690.41 566.32C679.66 562.89 667.76 554.79 655.04 542.25C648.3 535.61 643.16 528.96 639.31 522.43C635.11 526.68 631.4 532.29 628.59 539.68C622.26 556.32 624.23 570.9 628.75 582.29C634.65 580.27 640.88 579.13 647.31 578.95C664.62 578.46 680.9 585.41 687.82 596.24C695.58 608.39 694.01 617.61 691.33 623.21C690.19 625.6 688.59 627.77 686.65 629.67L686.64 629.68ZM667.28 621.8C671.78 621.27 675.54 619.12 676.89 616.31C678.57 612.8 676.43 608.15 674.33 604.87C671.01 599.67 660.81 594.59 647.76 594.96C644.69 595.05 640.82 595.47 636.55 596.64C647.71 612.51 663.04 621.51 667.28 621.81V621.8ZM652.64 513.54C656.03 519.47 660.58 525.25 666.27 530.86C684.45 548.78 700.3 556.06 708.68 550.34C714.77 546.18 716.56 535.58 713.98 529.58C709.88 520.03 690.3 509.66 670.24 510.09C664.79 510.21 658.64 511.09 652.63 513.55L652.64 513.54Z" fill="#EDF3FF"/>
<path d="M853.37 784.86C852.23 785.19 851.07 785.45 849.87 785.64C840.76 787.09 830.29 784.56 818.73 778.1C810.63 773.58 804.88 768.68 804.64 768.47L815.05 756.32C820.19 760.7 836.03 771.67 847.38 769.84C851.4 769.19 854.46 766.94 857.01 762.75C860.66 756.74 861.8 751.75 860.47 747.5C857.41 737.7 841.15 730.43 829.27 725.13L835.8 710.52C851.28 717.44 870.54 726.04 875.75 742.74C878.48 751.51 876.78 761.04 870.69 771.07C866.41 778.11 860.48 782.82 853.38 784.88L853.37 784.86Z" fill="#EDF3FF"/>
<path d="M1417.65 779.39C1416.51 779.72 1415.35 779.98 1414.15 780.17C1405.04 781.62 1394.57 779.09 1383.01 772.63C1374.91 768.11 1369.16 763.21 1368.92 763L1379.33 750.85C1384.47 755.23 1400.31 766.2 1411.66 764.37C1415.68 763.72 1418.74 761.47 1421.29 757.28C1424.94 751.27 1426.08 746.28 1424.75 742.03C1421.69 732.23 1405.43 724.96 1393.55 719.66L1400.08 705.05C1415.56 711.97 1434.82 720.57 1440.03 737.27C1442.76 746.04 1441.06 755.57 1434.97 765.6C1430.69 772.64 1424.76 777.35 1417.66 779.41L1417.65 779.39Z" fill="#EDF3FF"/>
<path d="M1391.29 437.27C1390.15 437.6 1388.99 437.86 1387.79 438.05C1378.68 439.5 1368.21 436.97 1356.65 430.51C1348.55 425.99 1342.8 421.09 1342.56 420.88L1352.97 408.73C1358.11 413.11 1373.95 424.08 1385.3 422.25C1389.32 421.6 1392.38 419.35 1394.93 415.16C1398.58 409.15 1399.72 404.16 1398.39 399.91C1395.33 390.11 1379.07 382.84 1367.19 377.54L1373.72 362.93C1389.2 369.85 1408.46 378.45 1413.67 395.15C1416.4 403.92 1414.7 413.45 1408.61 423.48C1404.33 430.52 1398.4 435.23 1391.3 437.29L1391.29 437.27Z" fill="#EDF3FF"/>
<path d="M541.83 662.63C537.67 663.83 533.3 664.56 528.82 664.74C512.2 665.41 498.08 658.1 491.05 645.19C483.74 631.75 481.99 618.86 485.87 606.88C492.12 587.55 510.94 578.35 511.74 577.97L518.65 592.4L515.19 585.19L518.68 592.39C518.54 592.46 505.12 599.16 501.05 611.92C498.62 619.54 499.99 628.16 505.1 637.55C510.93 648.27 523.18 648.96 528.17 648.76C539.44 648.31 553.37 642.1 559.09 629.24C565.51 614.79 559.61 595.48 542.46 574.89L554.76 564.65C567.07 579.43 585.9 608.32 573.72 635.74C567.93 648.76 556.07 658.53 541.83 662.65V662.63Z" fill="#EDF3FF"/>
<path d="M819.86 593.66C815.7 594.86 811.33 595.59 806.85 595.77C790.23 596.44 776.11 589.13 769.08 576.22C761.77 562.78 760.02 549.89 763.9 537.91C770.15 518.58 788.97 509.38 789.77 509L796.68 523.43L793.22 516.22L796.71 523.42C796.57 523.49 783.15 530.19 779.08 542.95C776.65 550.57 778.02 559.19 783.13 568.58C788.96 579.3 801.21 579.99 806.2 579.79C817.47 579.34 831.4 573.13 837.12 560.27C843.54 545.82 837.64 526.51 820.49 505.92L832.79 495.68C845.1 510.46 863.93 539.35 851.75 566.77C845.96 579.79 834.1 589.56 819.86 593.68V593.66Z" fill="#EDF3FF"/>
<path d="M424.55 846.89C417.96 848.8 411.36 849.33 405.14 848.37C399.17 847.45 393.17 844.98 388.17 840.64C380.57 845.15 373.19 848.5 366.57 850.98C343.02 859.79 323.96 859.75 323.16 859.74L323.28 843.74L323.22 851.74L323.26 843.74C323.43 843.74 340.64 843.7 361.53 835.78C367.71 833.44 373.54 830.68 379.03 827.53C376.55 821.26 375.37 813.44 376.16 803.89C377.29 790.08 381.82 777.54 389.26 767.61C395.76 758.94 404.24 752.58 413.12 749.71C423.4 746.39 432.84 748.26 438.36 754.73C442.06 759.07 446.86 769.12 437.42 787.72C427.7 806.85 415.15 820.81 402.28 830.97C403.87 831.73 405.65 832.27 407.59 832.57C416.24 833.91 426.9 830.33 436.09 823.01C446.98 814.34 454.88 801.25 458.34 786.15L473.94 789.72C469.67 808.33 459.78 824.6 446.07 835.52C439.3 840.92 431.94 844.77 424.56 846.9L424.55 846.89ZM418.64 764.75C418.44 764.81 418.24 764.87 418.04 764.93C409.4 767.72 394.22 779.34 392.1 805.19C391.7 810.12 391.95 814.46 392.82 818.15C405.32 808.19 415.46 795.6 423.15 780.46C427.91 771.08 427.22 766.32 426.19 765.11C425.3 764.07 422.45 763.64 418.64 764.74V764.75Z" fill="#EDF3FF"/>
<path d="M762.82 749.06C756.23 750.97 749.63 751.5 743.41 750.54C737.44 749.62 731.44 747.15 726.44 742.81C718.84 747.32 711.46 750.67 704.84 753.15C681.29 761.96 662.23 761.92 661.43 761.91L661.55 745.91L661.49 753.91L661.53 745.91C661.7 745.91 678.91 745.87 699.8 737.95C705.98 735.61 711.81 732.85 717.3 729.7C714.82 723.43 713.64 715.61 714.43 706.06C715.56 692.25 720.09 679.71 727.53 669.78C734.03 661.11 742.51 654.75 751.39 651.88C761.67 648.56 771.11 650.43 776.63 656.9C780.33 661.24 785.13 671.29 775.69 689.89C765.97 709.02 753.42 722.98 740.55 733.14C742.14 733.9 743.92 734.44 745.86 734.74C754.51 736.08 765.17 732.5 774.36 725.18C785.25 716.51 793.15 703.42 796.61 688.32L812.21 691.89C807.94 710.5 798.05 726.77 784.34 737.69C777.57 743.09 770.21 746.94 762.83 749.07L762.82 749.06ZM756.91 666.91C756.71 666.97 756.51 667.03 756.31 667.09C747.67 669.88 732.49 681.499 730.37 707.349C729.97 712.279 730.22 716.62 731.09 720.31C743.59 710.35 753.73 697.76 761.42 682.62C766.18 673.24 765.49 668.48 764.46 667.27C763.57 666.23 760.72 665.8 756.91 666.9V666.91Z" fill="#EDF3FF"/>
<path d="M738 624.42L730.43 610.33C730.91 610.07 742.36 603.979 757.22 602.929C771.47 601.929 791.58 605.39 806.4 627.55L793.1 636.449C772.96 606.339 739.42 623.67 738.01 624.42H738Z" fill="#EDF3FF"/>
<path d="M407.2 643.19C415.258 643.19 421.79 636.657 421.79 628.6C421.79 620.542 415.258 614.01 407.2 614.01C399.143 614.01 392.61 620.542 392.61 628.6C392.61 636.657 399.143 643.19 407.2 643.19Z" fill="#EDF3FF"/>
<path d="M530.98 632.81C539.038 632.81 545.57 626.278 545.57 618.22C545.57 610.162 539.038 603.63 530.98 603.63C522.922 603.63 516.39 610.162 516.39 618.22C516.39 626.278 522.922 632.81 530.98 632.81Z" fill="#EDF3FF"/>
<path d="M357.92 788.61C365.978 788.61 372.51 782.078 372.51 774.02C372.51 765.962 365.978 759.43 357.92 759.43C349.862 759.43 343.33 765.962 343.33 774.02C343.33 782.078 349.862 788.61 357.92 788.61Z" fill="#EDF3FF"/>
<path d="M704.16 673.78C712.218 673.78 718.75 667.248 718.75 659.19C718.75 651.132 712.218 644.6 704.16 644.6C696.102 644.6 689.57 651.132 689.57 659.19C689.57 667.248 696.102 673.78 704.16 673.78Z" fill="#EDF3FF"/>
<path d="M737.39 490.9C745.448 490.9 751.98 484.368 751.98 476.31C751.98 468.252 745.448 461.72 737.39 461.72C729.332 461.72 722.8 468.252 722.8 476.31C722.8 484.368 729.332 490.9 737.39 490.9Z" fill="#EDF3FF"/>
</g>
</svg>
