<svg width="1440" height="523" viewBox="0 0 1440 523" fill="none" xmlns="http://www.w3.org/2000/svg">
<mask id="mask0_2038_637" style="mask-type:luminance" maskUnits="userSpaceOnUse" x="0" y="0" width="1440" height="523">
<path d="M1440 0H0V522.64H1440V0Z" fill="white"/>
</mask>
<g mask="url(#mask0_2038_637)">
<path d="M8.01995 44.6201L15.14 58.9502C3.94995 64.5102 -3.08005 71.68 -5.76005 80.26C-9.76005 93.05 -3.04005 105.49 -2.97005 105.62L-16.92 113.45C-17.34 112.71 -27.06 95.14 -21.1 75.71C-17.11 62.71 -7.31005 52.2501 8.01995 44.6301V44.6201Z" fill="#82AAFF"/>
<path d="M34.45 -53.4099L26.04 -39.7998C25.91 -39.8798 12.54 -47.9599 -4.67999 -49.1299C-14.55 -49.7999 -23.68 -48.1199 -32.01 -44.0999C-27.71 -37.8099 -24.52 -30.4998 -22.61 -22.3098C-16.76 2.72018 -23.96 30.63 -39 41.24C-49.89 48.92 -69.24 49.7801 -80.69 38.8301C-85.27 34.4501 -90.43 26.3702 -89.05 12.6902C-87.92 1.46019 -82.46 -11.8499 -72.82 -26.8899C-67.72 -34.8499 -62.28 -41.2599 -56.69 -46.3799C-61.71 -49.6099 -67.98 -52.0798 -75.78 -53.2998C-93.37 -56.0498 -107.23 -51.1098 -117.44 -44.3298C-114.24 -38.9698 -111.84 -33.1199 -110.33 -26.8599C-106.27 -10.0199 -109.7 7.3401 -118.86 16.3501C-129.14 26.4601 -138.49 26.8301 -144.52 25.3601C-152.98 23.3001 -160.19 16.0301 -163.36 6.37012C-166.68 -3.77988 -158.18 -25.2199 -144.39 -41.4299C-142.84 -43.2499 -141.25 -44.9899 -139.62 -46.6399C-144.95 -51.6099 -152.19 -56.13 -162.04 -59.22L-157.26 -74.49C-145.41 -70.78 -135.27 -64.76 -127.36 -56.96C-111.46 -67.9 -92.86 -72.1799 -73.3 -69.1199C-61.59 -67.2899 -51.43 -62.87 -43.23 -56.27C-28.86 -64.47 -14.45 -65.9398 -2.90999 -65.0498C18.07 -63.4398 33.79 -53.8199 34.45 -53.4099ZM-69.13 27.71C-63.65 32.34 -53.39 31.8102 -48.21 28.1602C-39.71 22.1702 -33.62 0.870079 -38.19 -18.6699C-39.43 -23.9799 -41.57 -29.8099 -45.22 -35.1799C-50.32 -30.6299 -55.04 -24.99 -59.35 -18.26C-73.12 3.22999 -76.96 20.25 -69.63 27.27C-69.47 27.42 -69.31 27.57 -69.14 27.71H-69.13ZM-143.86 8.14014C-142.88 8.97014 -141.82 9.55006 -140.74 9.81006C-136.96 10.7301 -132.85 7.67019 -130.08 4.94019C-125.68 0.610184 -122.82 -10.4099 -125.88 -23.1099C-126.6 -26.0999 -127.81 -29.79 -129.84 -33.73C-143.06 -19.53 -148.69 -2.66996 -148.11 1.54004C-147.18 4.31004 -145.65 6.63013 -143.87 8.14014H-143.86Z" fill="#82AAFF"/>
<path d="M428.71 -31.9599C433.47 -27.9399 436.98 -21.9399 438.41 -15.0099C440.57 -4.54993 429.7 15.7902 414.18 30.3502C412.44 31.9802 410.66 33.5301 408.85 34.9901C413.58 40.5301 420.27 45.8401 429.71 50.0101L423.24 64.6402C411.88 59.6202 402.49 52.5002 395.5 43.8502C378.47 52.9302 359.5 55.0802 340.42 49.8402C328.97 46.7002 319.36 41.1502 311.95 33.6402C302.21 37.8402 291.88 39.7002 281.16 39.1302C255.23 37.7402 235.93 22.7402 235.12 22.1002L245.03 9.54012L240.08 15.8202L245.02 9.53011C245.18 9.65012 261.3 22.0502 282.03 23.1602C289.03 23.5402 295.76 22.5902 302.21 20.3302C298.65 13.5902 296.31 5.98021 295.33 -2.36979C292.34 -27.8998 302.64 -54.8298 318.77 -63.6698C329.27 -69.4198 345.93 -68.9399 356.56 -59.9599C357.76 -58.9399 358.89 -57.8198 359.92 -56.5798C363.97 -51.7198 368.19 -43.0998 365.28 -29.6698C362.89 -18.6398 355.96 -6.02984 344.7 7.83016C339.03 14.8102 332.91 20.6602 326.44 25.3502C331.07 29.1402 337.03 32.3102 344.67 34.4002C361.84 39.1202 376.16 35.7603 387.07 30.1803C384.5 24.5003 382.77 18.4101 381.98 12.0201C379.84 -5.1699 385.21 -22.0299 395.33 -29.9499C406.68 -38.8299 416.01 -38.1499 421.85 -36.0099C424.33 -35.0999 426.65 -33.7199 428.73 -31.9699L428.71 -31.9599ZM422.71 -11.9298C421.75 -16.3598 419.26 -19.8999 416.32 -20.9799C412.66 -22.3199 408.24 -19.7398 405.17 -17.3398C400.31 -13.5298 396.23 -2.89986 397.84 10.0601C398.22 13.1101 399 16.9201 400.58 21.0501C415.31 8.43013 422.81 -7.68986 422.7 -11.9399L422.71 -11.9298ZM316.34 12.96C321.93 9.02004 327.25 3.94009 332.29 -2.24992C348.39 -22.0499 354.13 -38.5298 347.63 -46.3298C342.91 -51.9998 332.18 -52.7698 326.45 -49.6298C317.33 -44.6298 308.88 -24.1599 311.21 -4.2299C311.84 1.1801 313.31 7.21004 316.33 12.96H316.34Z" fill="#82AAFF"/>
<path d="M94.2301 187.02C98.9901 191.04 102.5 197.04 103.93 203.97C106.09 214.43 95.2201 234.78 79.7001 249.33C77.9601 250.96 76.1801 252.51 74.3701 253.97C79.1001 259.51 85.7901 264.82 95.2301 268.99L88.7601 283.62C77.4001 278.6 68.0001 271.48 61.0201 262.83C43.9901 271.91 25.0201 274.06 5.94014 268.82C-5.50986 265.68 -15.1199 260.13 -22.5299 252.62C-32.2699 256.82 -42.5999 258.68 -53.3199 258.11C-79.2499 256.72 -98.5499 241.72 -99.3599 241.08L-89.4499 228.52L-94.3999 234.8L-89.4599 228.51C-89.2999 228.63 -73.1799 241.03 -52.4499 242.14C-45.4499 242.52 -38.7199 241.57 -32.2699 239.31C-35.8299 232.57 -38.1699 224.96 -39.1499 216.61C-42.1399 191.08 -31.8499 164.15 -15.7099 155.31C-5.20986 149.56 11.4501 150.04 22.0801 159.02C23.2801 160.04 24.4101 161.16 25.4401 162.4C29.4901 167.26 33.7101 175.88 30.8001 189.31C28.4101 200.34 21.4801 212.95 10.2201 226.81C4.55014 233.79 -1.56986 239.64 -8.03986 244.33C-3.40987 248.12 2.55014 251.29 10.1901 253.38C27.3601 258.1 41.6801 254.74 52.5901 249.16C50.0201 243.48 48.2901 237.39 47.5001 231C45.3601 213.81 50.7301 196.95 60.8501 189.03C72.2001 180.15 81.5401 180.83 87.3701 182.97C89.8501 183.88 92.1701 185.26 94.2501 187.01L94.2301 187.02ZM88.2301 207.05C87.2701 202.62 84.7801 199.08 81.8401 198C78.1801 196.66 73.7601 199.24 70.6901 201.64C65.8301 205.45 61.7501 216.08 63.3601 229.04C63.7401 232.09 64.5201 235.9 66.1001 240.04C80.8401 227.42 88.3301 211.3 88.2201 207.05H88.2301ZM-18.1399 231.94C-12.5499 228 -7.22987 222.92 -2.18987 216.73C13.9101 196.93 19.6501 180.45 13.1501 172.65C8.43014 166.98 -2.29986 166.21 -8.02986 169.35C-17.1499 174.35 -25.5999 194.82 -23.2699 214.75C-22.6399 220.16 -21.1699 226.19 -18.1499 231.94H-18.1399Z" fill="#82AAFF"/>
<path d="M210.65 26.29C211.55 27.05 212.42 27.88 213.24 28.77C219.5 35.54 223.2 45.67 224.24 58.86C224.97 68.11 224.08 75.6101 224.04 75.9301L208.16 74.0099L216.1 74.9699L208.16 74.02C208.95 67.31 209.3 48.0501 201.48 39.6201C198.71 36.6301 195.14 35.34 190.24 35.54C183.21 35.83 178.43 37.6601 175.63 41.1201C169.17 49.1001 172.14 66.6599 174.31 79.4899L158.53 82.1601C155.7 65.4401 152.18 44.64 163.19 31.05C168.97 23.91 177.85 20.04 189.57 19.55C197.8 19.21 205.01 21.53 210.66 26.29H210.65Z" fill="#82AAFF"/>
<path d="M553.62 22.21C551.63 26.06 549.15 29.7301 546.21 33.1001C535.26 45.6301 520.25 50.8601 506.05 47.0801C491.26 43.1501 480.7 35.55 474.66 24.5C464.92 6.67 471.18 -13.3199 471.45 -14.1599L486.68 -9.26001L479.06 -11.71L486.69 -9.29004C486.65 -9.15004 482.29 5.22018 488.76 16.9402C492.62 23.9402 499.82 28.8801 510.16 31.6201C521.96 34.7501 530.88 26.3401 534.16 22.5701C541.58 14.0701 546.65 -0.309807 541.24 -13.2998C535.16 -27.8998 517.08 -36.8798 490.34 -38.5898L491.36 -54.5598C510.56 -53.3398 544.48 -47.15 556.02 -19.46C561.5 -6.29996 560.43 9.02019 553.64 22.1902L553.62 22.21Z" fill="#82AAFF"/>
<path d="M140.26 2.96986L150.31 15.4201C133.75 28.7801 114.54 34.4699 97.6101 31.0199C86.5401 28.7699 70.9001 21.5001 59.2501 -0.329943C58.9101 -0.959942 58.5701 -1.61991 58.2201 -2.29991C56.8201 -4.98991 53.5801 -11.1901 51.6201 -12.1901C50.8701 -11.92 46.9901 -10.0299 40.0801 2.19008C37.1001 7.46008 28.0401 23.4801 14.3801 22.1901C10.3001 21.8101 4.34014 19.6399 -0.859863 11.4899C-3.39986 7.50988 -4.71986 3.70993 -4.85986 3.28993L10.2901 -1.84996C11.6701 2.11004 14.6601 6.1499 15.8801 6.2599C15.9101 6.2599 19.6301 5.83995 26.1601 -5.69005C37.6901 -26.08 46.4001 -28.3201 51.9501 -28.2201C62.8401 -28.0401 68.6001 -17.0001 72.4101 -9.70006C72.7401 -9.07006 73.0601 -8.44997 73.3801 -7.85997C80.3801 5.26003 89.6101 13.07 100.82 15.35C113.06 17.84 127.45 13.3299 140.28 2.97987L140.26 2.96986Z" fill="#82AAFF"/>
<path d="M108 56.7701C113.24 61.1901 117.34 66.3902 119.99 72.1002C122.53 77.5802 123.8 83.9401 122.97 90.5001C130.94 94.3201 137.82 98.6001 143.55 102.74C163.94 117.45 174.48 133.33 174.91 134L161.53 142.77L168.22 138.38L161.54 142.78C161.45 142.64 151.87 128.34 133.69 115.35C128.31 111.51 122.79 108.18 117.12 105.37C113.28 110.91 107.43 116.22 99.0399 120.87C86.9199 127.59 73.9699 130.78 61.5899 130.09C50.7599 129.49 40.7699 125.96 33.4599 120.16C24.9899 113.44 21.3199 104.55 23.6399 96.3702C25.1899 90.8802 30.8999 81.3202 51.6099 78.8602C72.9199 76.3302 91.4899 79.0502 107.09 84.1202C106.84 82.3702 106.31 80.6001 105.48 78.8101C101.8 70.8701 92.9099 63.9902 81.7099 60.4002C68.4599 56.1502 53.1799 56.8402 38.6999 62.3302L33.0199 47.3702C50.8699 40.6002 69.8999 39.8102 86.5899 45.1602C94.8399 47.8002 102.12 51.7901 107.99 56.7501L108 56.7701ZM42.9199 107.24C43.0799 107.37 43.2399 107.51 43.4099 107.64C50.5199 113.28 68.6099 119.47 91.2999 106.89C95.6299 104.49 99.0999 101.88 101.68 99.1002C86.4599 94.2202 70.3599 92.7601 53.4999 94.7601C43.0499 96.0001 39.4699 99.2201 39.0399 100.74C38.6699 102.06 39.8899 104.67 42.9199 107.23V107.24Z" fill="#82AAFF"/>
<path d="M458.22 65.4202C466.278 65.4202 472.81 58.8879 472.81 50.8301C472.81 42.7722 466.278 36.24 458.22 36.24C450.162 36.24 443.63 42.7722 443.63 50.8301C443.63 58.8879 450.162 65.4202 458.22 65.4202Z" fill="#82AAFF"/>
<path d="M84.3102 167.22C92.368 167.22 98.9002 160.688 98.9002 152.63C98.9002 144.572 92.368 138.04 84.3102 138.04C76.2524 138.04 69.7202 144.572 69.7202 152.63C69.7202 160.688 76.2524 167.22 84.3102 167.22Z" fill="#82AAFF"/>
<path d="M1301.01 56.6201C1295.72 50.5601 1294.5 41.61 1297.91 33.71C1300.31 28.16 1308.61 15.2 1333.81 14.71C1336.32 14.66 1338.64 14.8001 1340.78 15.0901C1341.92 7.18009 1341.47 0.720185 1340.69 -1.05981C1340.69 -1.05981 1340.79 -0.84003 1341.03 -0.530029L1353.76 -10.22C1358.22 -4.36997 1358.34 8.86016 1355.97 21.1702C1358.26 22.9402 1360.03 24.8602 1361.38 26.6902C1375.17 45.2902 1365.15 77.86 1363.96 81.51L1348.74 76.5701C1350.87 69.9701 1355.19 50.34 1350.25 39.22C1344.73 51.04 1336.57 58.9002 1326.34 62.1602C1316.47 65.3102 1307.1 63.3301 1301.25 56.8801C1301.17 56.7901 1301.09 56.7001 1301.01 56.6101V56.6201ZM1336.5 30.75C1335.74 30.71 1334.95 30.7 1334.12 30.71C1317.76 31.02 1313.51 37.9401 1312.6 40.0601C1311.62 42.3301 1311.81 44.7301 1313.11 46.1501C1314.65 47.8501 1317.7 48.1302 1321.47 46.9202C1327.45 45.0102 1332.36 39.91 1336.05 31.76C1336.2 31.42 1336.35 31.09 1336.49 30.75H1336.5Z" fill="#82AAFF"/>
<path d="M652.17 39.97C646.88 33.91 645.66 24.9601 649.07 17.0601C651.47 11.5101 659.77 -1.44994 684.97 -1.93994C687.48 -1.98994 689.8 -1.84982 691.94 -1.55981C693.08 -9.46981 692.63 -15.93 691.85 -17.71C691.85 -17.71 691.95 -17.4899 692.19 -17.1799L704.92 -26.8699C709.38 -21.0199 709.5 -7.78998 707.13 4.52002C709.42 6.29002 711.19 8.21004 712.54 10.04C726.33 28.64 716.31 61.2101 715.12 64.8601L699.9 59.9202C702.03 53.3202 706.35 33.6901 701.41 22.5701C695.89 34.3901 687.73 42.25 677.5 45.51C667.63 48.66 658.26 46.68 652.41 40.23C652.33 40.14 652.25 40.05 652.17 39.96V39.97ZM687.66 14.1001C686.9 14.0601 686.11 14.0501 685.28 14.0601C668.92 14.3701 664.67 21.2902 663.76 23.4102C662.78 25.6802 662.97 28.08 664.27 29.5C665.81 31.2 668.86 31.48 672.63 30.27C678.61 28.36 683.52 23.2601 687.21 15.1101C687.36 14.7701 687.51 14.4401 687.65 14.1001H687.66Z" fill="#82AAFF"/>
<path d="M578.06 67.9502C577.72 66.7602 569.79 38.4901 583.72 13.3101C592.19 -2.00994 606.69 -12.7 626.81 -18.47L631.22 -3.08984C609.51 3.13016 596.55 15.94 592.7 34.97C589.68 49.91 593.41 63.4 593.45 63.53L578.07 67.9502H578.06Z" fill="#82AAFF"/>
<path d="M1384.66 20.3301L1395.03 8.15022C1395.15 8.25021 1407.14 18.2601 1423.98 22.0201C1433.64 24.1801 1442.91 23.9002 1451.75 21.1802C1448.45 14.3102 1446.41 6.60004 1445.76 -1.77996C1443.77 -27.41 1455.11 -53.9098 1471.57 -62.1098C1483.5 -68.0498 1502.75 -65.9798 1512.42 -53.4198C1516.28 -48.3998 1520.16 -39.6298 1516.73 -26.3198C1513.91 -15.3898 1506.5 -3.05983 1494.7 10.3502C1488.45 17.4502 1482.1 22.9602 1475.8 27.1802C1480.28 31.1302 1486.1 34.5202 1493.63 36.9102C1510.61 42.2902 1525.05 39.5002 1536.17 34.3402C1533.82 28.5602 1532.33 22.4101 1531.79 16.0001C1530.32 -1.25993 1536.34 -17.8998 1546.76 -25.4198C1558.45 -33.8498 1567.75 -32.8099 1573.49 -30.4399C1581.54 -27.1299 1587.57 -18.8398 1589.24 -8.81975C1590.99 1.71025 1579.34 21.6201 1563.26 35.5601C1561.46 37.1201 1559.62 38.6001 1557.76 39.98C1562.27 45.7001 1568.75 51.2701 1578.02 55.8101L1570.98 70.1803C1559.83 64.7202 1550.72 57.2301 1544.07 48.3301C1526.7 56.7301 1507.66 58.1502 1488.8 52.1702C1477.5 48.5902 1468.12 42.6902 1461.02 34.9202C1445.58 40.8602 1431.11 40.1301 1419.83 37.5001C1399.34 32.7301 1385.25 20.8502 1384.66 20.3502V20.3301ZM1499.33 -44.1799C1494.62 -49.5799 1484.39 -50.62 1478.72 -47.79C1469.42 -43.15 1460.17 -23.0199 1461.72 -3.01995C1462.14 2.41005 1463.38 8.50018 1466.17 14.3602C1471.9 10.6402 1477.42 5.77009 1482.7 -0.229912C1499.56 -19.3899 1505.94 -35.6299 1499.75 -43.6799C1499.61 -43.8599 1499.47 -44.0299 1499.33 -44.1899V-44.1799ZM1570.24 -13.53C1569.39 -14.5 1568.43 -15.2298 1567.41 -15.6598C1563.81 -17.1398 1559.29 -14.7399 1556.13 -12.4599C1551.12 -8.84989 1546.63 1.62019 1547.74 14.6302C1548 17.6902 1548.64 21.53 1550.05 25.72C1565.27 13.69 1573.38 -2.12981 1573.44 -6.37981C1572.94 -9.25981 1571.78 -11.79 1570.25 -13.54L1570.24 -13.53Z" fill="#82AAFF"/>
<path d="M1087.13 54.8301C1081.56 52.0301 1076.75 47.0202 1073.74 40.6202C1069.2 30.9602 1075.02 8.63017 1086.71 -9.13984C1088.02 -11.1398 1089.39 -13.0498 1090.81 -14.8898C1084.91 -19.1698 1077.17 -22.7698 1067.02 -24.6298L1069.9 -40.3698C1082.12 -38.1398 1092.92 -33.4098 1101.72 -26.6298C1116.16 -39.4298 1134.1 -45.9498 1153.88 -45.3098C1165.74 -44.9198 1176.39 -41.7799 1185.34 -36.2099C1193.83 -42.5599 1203.44 -46.7899 1214 -48.7299C1239.54 -53.4299 1261.81 -43.3499 1262.74 -42.9099L1256.04 -28.3798L1259.39 -35.6398L1256.06 -28.3698C1255.87 -28.4498 1237.31 -36.7399 1216.9 -32.9899C1210.01 -31.7199 1203.68 -29.23 1197.94 -25.53C1202.98 -19.81 1207.03 -12.9498 1209.93 -5.05976C1218.8 19.0702 1215.07 47.6501 1201.45 60.0101C1192.58 68.0501 1176.27 71.47 1163.83 65.22C1162.42 64.51 1161.06 63.68 1159.77 62.72C1154.69 58.94 1148.58 51.5401 1148.28 37.8001C1148.03 26.5201 1151.82 12.6301 1159.54 -3.46991C1163.43 -11.5799 1168.01 -18.7 1173.21 -24.77C1167.82 -27.37 1161.29 -29.0598 1153.37 -29.3198C1135.57 -29.8998 1122.43 -23.2898 1113.12 -15.3198C1116.95 -10.3898 1120.05 -4.8798 1122.31 1.1502C1128.4 17.3602 1127.12 35.0201 1119.13 45.0801C1110.17 56.3701 1100.93 57.8802 1094.76 57.1602C1092.13 56.8502 1089.56 56.0501 1087.13 54.8301ZM1088.29 33.9502C1090.25 38.0303 1093.51 40.9001 1096.61 41.2601C1100.48 41.7101 1104.18 38.1702 1106.6 35.1202C1110.44 30.2802 1111.92 18.9901 1107.33 6.77008C1106.25 3.89008 1104.6 0.370029 1102.1 -3.27997C1090.72 12.43 1087.19 29.86 1088.29 33.96V33.9502ZM1185.92 -15.0798C1181.41 -9.93978 1177.42 -3.75976 1173.96 3.44024C1162.92 26.4602 1161.19 43.8202 1169.33 49.8802C1175.25 54.2902 1185.85 52.5402 1190.69 48.1502C1198.39 41.1602 1201.83 19.2803 1194.91 0.450253C1193.03 -4.65975 1190.2 -10.1898 1185.92 -15.0698V-15.0798Z" fill="#82AAFF"/>
<path d="M1334.63 277.89C1330.53 273.2 1327.97 266.73 1327.6 259.67C1327.05 249.01 1340.87 230.54 1358.41 218.5C1360.38 217.15 1362.37 215.89 1364.38 214.72C1360.54 208.53 1354.73 202.27 1346.04 196.71L1354.65 183.23C1365.12 189.92 1373.33 198.38 1378.92 207.98C1397.13 201.59 1416.2 202.32 1434.27 210.39C1445.09 215.22 1453.75 222.14 1459.93 230.66C1475.94 226.5 1490.24 228.86 1501.15 232.73C1520.98 239.78 1533.63 253.17 1534.16 253.74L1522.46 264.66L1528.31 259.2L1522.48 264.68C1522.37 264.57 1511.59 253.28 1495.28 247.63C1485.93 244.39 1476.68 243.63 1467.59 245.33C1470.1 252.53 1471.26 260.42 1470.96 268.82C1470.05 294.51 1455.8 319.57 1438.52 325.86C1427.27 329.96 1410.87 326.96 1401.72 316.47C1400.68 315.28 1399.74 314 1398.91 312.62C1395.64 307.2 1392.77 298.04 1397.68 285.21C1401.71 274.67 1410.47 263.25 1423.7 251.26C1430.71 244.91 1437.64 240.15 1444.37 236.67C1440.37 232.24 1434.97 228.22 1427.75 225C1411.49 217.74 1396.83 218.89 1385.2 222.76C1386.88 228.77 1387.67 235.04 1387.49 241.48C1387 258.79 1379.15 274.65 1367.95 280.95C1355.38 288.01 1346.26 285.93 1340.82 282.93C1338.5 281.65 1336.42 279.94 1334.63 277.89ZM1343.6 259C1343.88 263.52 1345.8 267.4 1348.54 268.91C1351.95 270.79 1356.71 268.91 1360.11 267C1365.49 263.97 1371.13 254.08 1371.5 241.03C1371.59 237.96 1371.39 234.07 1370.46 229.75C1353.99 239.99 1344.14 254.8 1343.6 259.01V259ZM1452.51 250.48C1446.4 253.53 1440.37 257.75 1434.45 263.11C1415.54 280.25 1407.37 295.67 1412.61 304.36C1416.42 310.68 1426.9 313.06 1433.04 310.83C1442.81 307.27 1454.26 288.31 1454.97 268.26C1455.16 262.81 1454.62 256.63 1452.51 250.49V250.48Z" fill="#82AAFF"/>
<path d="M904.54 33.25C903.76 32.36 903.03 31.4102 902.36 30.4102C897.2 22.7702 895.07 12.2 896.04 -1C896.72 -10.25 898.73 -17.5298 898.82 -17.8398L914.23 -13.54L906.53 -15.6899L914.24 -13.5498C912.44 -7.0398 909.19 11.95 915.63 21.46C917.92 24.83 921.25 26.6502 926.13 27.1902C933.12 27.9602 938.12 26.8801 941.42 23.8801C949.01 16.9701 948.73 -0.839853 948.53 -13.8499L964.53 -14.0999C964.8 2.85015 965.13 23.95 952.19 35.72C945.39 41.9 936.04 44.3801 924.38 43.0901C916.2 42.1801 909.41 38.8 904.56 33.23L904.54 33.25Z" fill="#82AAFF"/>
<path d="M1278.93 161.14C1276.08 157.87 1273.58 154.22 1271.53 150.24C1263.91 135.45 1264.57 119.57 1273.31 107.75C1282.41 95.4399 1293.36 88.4201 1305.85 86.8801C1326.01 84.3901 1342.3 97.5601 1342.98 98.1201L1332.82 110.48L1337.9 104.3L1332.85 110.5C1332.73 110.41 1320.98 101.07 1307.7 102.77C1299.77 103.79 1292.53 108.66 1286.17 117.26C1278.91 127.07 1283.46 138.47 1285.75 142.91C1290.92 152.94 1302.43 162.94 1316.5 162.69C1332.32 162.41 1347.32 148.9 1358.74 124.66L1373.21 131.48C1365.01 148.88 1346.77 178.15 1316.78 178.68C1302.53 178.93 1288.67 172.3 1278.93 161.14Z" fill="#82AAFF"/>
<path d="M787.11 40.0901C782.6 34.9201 779.33 29.1601 777.57 23.1201C775.89 17.3201 775.59 10.84 777.41 4.47998C770.11 -0.500019 763.96 -5.77999 758.92 -10.74C740.99 -28.37 732.98 -45.6599 732.65 -46.3899L747.2 -53.04L739.92 -49.72L747.19 -53.0598C747.26 -52.8998 754.56 -37.32 770.56 -21.73C775.29 -17.12 780.25 -12.9899 785.43 -9.34985C790.07 -14.2499 796.65 -18.6099 805.65 -21.9399C818.65 -26.7499 831.93 -27.9399 844.06 -25.3799C854.67 -23.1499 864.01 -18.1498 870.37 -11.3098C877.72 -3.38982 880.01 5.95019 876.48 13.6902C874.11 18.8802 867.03 27.47 846.18 26.77C824.73 26.04 806.78 20.5502 792.14 13.1802C792.12 14.9502 792.38 16.7802 792.93 18.6702C795.37 27.0802 803.11 35.23 813.64 40.47C826.1 46.68 841.3 48.3101 856.45 45.0701L859.8 60.72C841.13 64.71 822.2 62.61 806.51 54.8C798.76 50.94 792.16 45.9001 787.11 40.1101V40.0901ZM859.08 0.0400391C858.94 -0.109962 858.81 -0.269932 858.66 -0.429932C852.48 -7.07993 835.54 -15.9399 811.21 -6.93994C806.57 -5.21994 802.74 -3.15981 799.77 -0.809814C814.07 6.31018 829.77 10.19 846.74 10.77C857.25 11.13 861.28 8.49004 861.94 7.04004C862.51 5.79004 861.69 3.03004 859.08 0.0400391Z" fill="#82AAFF"/>
<path d="M1384.8 69.29L1386.37 53.3701C1386.91 53.4201 1399.81 54.7502 1412.73 62.1702C1425.12 69.2902 1439.87 83.38 1439.82 110.04L1423.82 110.01C1423.9 73.78 1386.4 69.46 1384.8 69.3V69.29Z" fill="#82AAFF"/>
<path d="M1390.65 116.03C1398.71 116.03 1405.24 109.498 1405.24 101.44C1405.24 93.3824 1398.71 86.8501 1390.65 86.8501C1382.59 86.8501 1376.06 93.3824 1376.06 101.44C1376.06 109.498 1382.59 116.03 1390.65 116.03Z" fill="#82AAFF"/>
<path d="M1252.93 39.3301C1260.99 39.3301 1267.52 32.7978 1267.52 24.74C1267.52 16.6822 1260.99 10.1501 1252.93 10.1501C1244.87 10.1501 1238.34 16.6822 1238.34 24.74C1238.34 32.7978 1244.87 39.3301 1252.93 39.3301Z" fill="#82AAFF"/>
<path d="M987.73 64.9502C995.787 64.9502 1002.32 58.4179 1002.32 50.3601C1002.32 42.3023 995.787 35.77 987.73 35.77C979.672 35.77 973.14 42.3023 973.14 50.3601C973.14 58.4179 979.672 64.9502 987.73 64.9502Z" fill="#82AAFF"/>
<path d="M1391.14 152.6L1393.07 136.72C1407.06 138.38 1435.19 150.49 1441.53 184.41L1425.8 187.35C1420.07 156.71 1392.31 152.76 1391.13 152.6H1391.14Z" fill="#82AAFF"/>
<path d="M987.73 9.25L989.66 -6.62988C1003.65 -4.96988 1031.78 7.14006 1038.12 41.0601L1022.39 44C1016.66 13.36 988.9 9.41 987.72 9.25H987.73Z" fill="#82AAFF"/>
<path d="M747.24 39.99C755.298 39.99 761.83 33.458 761.83 25.4001C761.83 17.3423 755.298 10.8101 747.24 10.8101C739.182 10.8101 732.65 17.3423 732.65 25.4001C732.65 33.458 739.182 39.99 747.24 39.99Z" fill="#82AAFF"/>
</g>
</svg>
