<svg width="808" height="787" viewBox="0 0 808 787" fill="none" xmlns="http://www.w3.org/2000/svg">
<path d="M307.51 553.427C304.73 560.978 297.46 566.337 288.89 567.127C282.87 567.687 267.52 566.617 255.01 544.727C253.76 542.547 252.78 540.447 252.01 538.427C244.52 541.217 239.07 544.717 237.88 546.247C237.88 546.247 238.03 546.057 238.19 545.697L223.58 539.177C226.58 532.457 238.13 526.007 250.07 522.197C250.52 519.337 251.37 516.858 252.32 514.808C262.04 493.788 295.42 486.977 299.2 486.267L302.16 501.987C295.35 503.277 276.05 508.907 268.66 518.567C281.68 517.747 292.49 521.137 300.26 528.547C307.75 535.697 310.52 544.877 307.65 553.097C307.61 553.207 307.57 553.327 307.53 553.437L307.51 553.427ZM267.79 534.687C268.12 535.377 268.49 536.077 268.9 536.787C277.02 550.987 285.13 551.407 287.42 551.197C289.89 550.967 291.9 549.647 292.52 547.827C293.27 545.667 292.06 542.858 289.19 540.118C284.65 535.778 277.82 533.917 268.9 534.597C268.53 534.627 268.16 534.657 267.8 534.687H267.79Z" fill="#F7EEE3"/>
<path d="M89.5398 455.377C88.6598 456.247 67.6498 476.757 38.8698 476.607C21.3598 476.517 5.02983 468.917 -9.67017 454.027L1.71983 442.787C17.5898 458.857 35.0398 464.097 53.5898 458.357C68.1498 453.847 78.1998 444.107 78.2998 444.017L89.5498 455.397L89.5398 455.377Z" fill="#F7EEE3"/>
<path d="M134.4 505.988L123.36 517.567C114.32 508.947 105.18 504.777 96.1999 505.187C82.8199 505.787 73.41 516.347 73.32 516.457L61.2 506.007C61.75 505.367 74.95 490.227 95.26 489.207C108.84 488.527 122.01 494.168 134.4 505.988Z" fill="#F7EEE3"/>
<path d="M235.56 497.407L219.9 494.137C219.93 493.987 222.96 478.667 218.2 462.077C215.47 452.567 210.77 444.557 204.15 438.097C199.7 444.287 193.91 449.778 186.87 454.368C165.33 468.397 136.64 471.157 121.55 460.637C110.62 453.017 103.21 435.128 109.6 420.618C112.15 414.827 118 407.207 131.32 403.847C142.26 401.087 156.64 401.677 174.06 405.607C183.29 407.687 191.17 410.617 197.89 414.127C199.21 408.307 199.4 401.577 197.89 393.817C194.48 376.337 185.1 365.007 175.25 357.717C171.3 362.547 166.62 366.797 161.25 370.357C146.81 379.917 129.32 382.617 117.72 377.067C104.71 370.847 101.18 362.187 100.5 356.017C99.5498 347.367 103.93 338.097 111.93 331.837C120.34 325.247 143.39 325.937 163.33 333.367C165.57 334.197 167.74 335.107 169.85 336.077C172.71 329.377 174.49 321.027 174.03 310.717L190.01 310.007C190.56 322.417 188.36 333.997 183.73 344.097C199.43 355.317 209.8 371.347 213.59 390.767C215.86 402.397 215.18 413.457 211.76 423.417C224.37 434.127 230.67 447.177 233.77 458.327C239.41 478.597 235.73 496.657 235.57 497.417L235.56 497.407ZM123.99 427.697C121.51 434.427 125.5 443.887 130.7 447.517C139.23 453.457 161.33 451.927 178.14 440.967C182.71 437.997 187.46 433.997 191.27 428.727C185.26 425.487 178.34 422.977 170.55 421.217C145.65 415.597 128.34 417.787 124.25 427.077C124.16 427.277 124.08 427.487 124 427.697H123.99ZM116.9 350.777C116.45 351.987 116.27 353.177 116.39 354.287C116.81 358.157 121.09 360.967 124.61 362.647C130.18 365.307 141.52 364.237 152.41 357.027C154.97 355.327 158.04 352.937 161.04 349.687C143.18 342.097 125.41 342.557 121.66 344.537C119.38 346.357 117.71 348.587 116.9 350.777Z" fill="#F7EEE3"/>
<path d="M360.3 757.467C358.14 763.307 353.7 768.657 347.68 772.368C338.59 777.968 315.75 774.688 296.78 765.058C294.65 763.978 292.59 762.837 290.6 761.627C287.01 767.967 284.3 776.057 283.59 786.357L267.63 785.267C268.48 772.877 271.97 761.617 277.71 752.107C263.37 739.187 254.88 722.097 253.29 702.368C252.34 690.537 254.28 679.597 258.81 670.077C251.54 662.357 246.27 653.277 243.15 643.007C235.62 618.157 243.14 594.897 243.46 593.917L258.65 598.947L251.06 596.427L258.66 598.917C258.6 599.107 252.44 618.487 258.47 638.357C260.5 645.067 263.69 651.067 268.01 656.357C273.13 650.707 279.49 645.917 287 642.147C309.98 630.627 338.8 631.127 352.61 643.277C361.6 651.187 366.83 667.017 362.01 680.067C361.46 681.547 360.79 682.987 359.98 684.377C356.79 689.847 350.13 696.747 336.51 698.597C325.33 700.107 311.11 697.907 294.24 692.037C285.75 689.087 278.16 685.327 271.54 680.837C269.56 686.487 268.61 693.168 269.24 701.058C270.66 718.808 278.7 731.127 287.67 739.477C292.13 735.117 297.27 731.427 303 728.497C318.43 720.627 336.11 719.917 347.01 726.727C359.23 734.367 361.77 743.377 361.75 749.587C361.75 752.237 361.24 754.877 360.29 757.427L360.3 757.467ZM339.43 758.657C343.27 756.247 345.75 752.697 345.76 749.567C345.77 745.677 341.84 742.397 338.54 740.327C333.3 737.057 321.92 736.847 310.28 742.777C307.54 744.177 304.23 746.207 300.88 749.097C317.77 758.647 335.48 760.197 339.43 758.647V758.657ZM279.75 667.147C285.36 671.057 291.95 674.327 299.49 676.947C323.6 685.337 341.04 685.107 346.16 676.337C349.88 669.967 346.95 659.618 342.04 655.308C334.24 648.438 312.1 647.477 294.16 656.467C289.29 658.907 284.12 662.347 279.75 667.137V667.147Z" fill="#F7EEE3"/>
<path d="M485.58 417.868C483.42 423.707 478.98 429.057 472.96 432.767C463.87 438.367 441.03 435.087 422.06 425.457C419.93 424.377 417.87 423.237 415.89 422.027C412.3 428.367 409.59 436.457 408.88 446.757L392.92 445.667C393.77 433.277 397.26 422.017 403 412.507C388.66 399.587 380.17 382.497 378.59 362.767C377.64 350.957 379.57 340.037 384.08 330.527C372.75 318.467 367.97 304.797 366.15 293.357C362.83 272.577 368.52 255.057 368.76 254.317L383.95 259.347L376.36 256.827L383.96 259.317C383.91 259.467 379.17 274.347 382.04 291.357C383.68 301.117 387.45 309.597 393.3 316.757C398.42 311.107 404.79 306.307 412.3 302.537C435.28 291.017 464.1 291.517 477.91 303.667C486.9 311.577 492.13 327.407 487.31 340.457C486.76 341.937 486.09 343.377 485.28 344.767C482.09 350.237 475.43 357.137 461.81 358.987C450.63 360.497 436.41 358.297 419.54 352.427C410.61 349.317 403.11 345.517 396.82 341.277C394.85 346.917 393.91 353.577 394.54 361.457C395.96 379.207 404 391.527 412.97 399.877C417.43 395.517 422.57 391.827 428.3 388.897C443.73 381.027 461.41 380.317 472.31 387.127C484.53 394.767 487.07 403.777 487.05 409.987C487.05 412.637 486.54 415.277 485.59 417.827L485.58 417.868ZM464.71 419.047C468.55 416.637 471.03 413.087 471.04 409.957C471.05 406.067 467.12 402.787 463.82 400.717C458.58 397.447 447.2 397.237 435.56 403.167C432.82 404.567 429.51 406.597 426.16 409.487C443.05 419.037 460.76 420.587 464.71 419.037V419.047ZM405.03 327.547C410.64 331.447 417.23 334.717 424.78 337.347C448.89 345.737 466.33 345.507 471.45 336.737C475.17 330.367 472.24 320.017 467.33 315.707C459.53 308.837 437.39 307.877 419.45 316.867C414.58 319.307 409.41 322.747 405.03 327.547Z" fill="#F7EEE3"/>
<path d="M29.9299 635.597C27.7699 641.437 23.3299 646.787 17.3099 650.497C8.21989 656.097 -14.6201 652.817 -33.5901 643.187C-35.7201 642.107 -37.7801 640.967 -39.7601 639.767C-43.3501 646.107 -46.0601 654.197 -46.7701 664.497L-62.7301 663.407C-61.8801 651.017 -58.3901 639.757 -52.6501 630.247C-66.9901 617.327 -75.4801 600.237 -77.0601 580.507C-78.0101 568.677 -76.0701 557.747 -71.5401 548.217C-78.8101 540.497 -84.0801 531.417 -87.2001 521.147C-94.7301 496.297 -87.2101 473.038 -86.8901 472.058L-71.7001 477.087L-79.2901 474.567L-71.6901 477.058C-71.7501 477.248 -77.9101 496.627 -71.8801 516.497C-69.8501 523.207 -66.6601 529.207 -62.3401 534.497C-57.2201 528.847 -50.8601 524.057 -43.3501 520.287C-20.3701 508.767 8.44991 509.267 22.2599 521.417C31.2499 529.327 36.4799 545.157 31.6599 558.207C31.1099 559.687 30.4399 561.127 29.6299 562.517C26.4399 567.987 19.7799 574.887 6.1599 576.737C-5.0201 578.247 -19.2401 576.048 -36.1101 570.177C-44.6001 567.228 -52.1901 563.467 -58.8101 558.977C-60.7901 564.627 -61.7401 571.307 -61.1101 579.197C-59.6901 596.947 -51.6501 609.267 -42.6801 617.618C-38.2201 613.257 -33.0801 609.567 -27.3501 606.637C-11.9201 598.767 5.7599 598.058 16.6599 604.868C28.8799 612.507 31.4199 621.517 31.3999 627.727C31.3999 630.377 30.8899 633.017 29.9399 635.567L29.9299 635.597ZM9.05991 636.787C12.8999 634.377 15.3799 630.827 15.3899 627.697C15.3999 623.807 11.4699 620.527 8.1699 618.457C2.9299 615.187 -8.4501 614.977 -20.0901 620.907C-22.8301 622.307 -26.1401 624.337 -29.4901 627.227C-12.6001 636.777 5.10991 638.327 9.05991 636.777V636.787ZM-50.6201 545.277C-45.0101 549.187 -38.4201 552.457 -30.8801 555.077C-6.7701 563.467 10.6699 563.237 15.7899 554.467C19.5099 548.097 16.5799 537.747 11.6699 533.437C3.8699 526.567 -18.2701 525.607 -36.2101 534.597C-41.0801 537.037 -46.2501 540.477 -50.6201 545.267V545.277Z" fill="#F7EEE3"/>
<path d="M137.65 264.267C138.51 270.437 137.12 277.247 133.57 283.367C128.2 292.597 106.53 300.507 85.2599 300.987C82.8699 301.037 80.5199 301.007 78.1999 300.887C78.0299 308.177 79.4699 316.587 83.7099 325.997L69.1299 332.577C64.0199 321.257 61.7699 309.687 62.3399 298.587C43.5999 293.987 28.0299 282.937 17.3099 266.297C10.8899 256.337 7.42989 245.807 6.90989 235.297C-8.77011 230.017 -19.4501 220.237 -26.4601 211.027C-39.2101 194.287 -42.4801 176.157 -42.6101 175.387L-26.8501 172.637L-34.7301 174.007L-26.8501 172.607C-26.8201 172.757 -23.9601 188.117 -13.3901 201.757C-7.3301 209.577 -0.000106812 215.277 8.53989 218.827C10.3799 211.427 13.7199 204.187 18.5599 197.317C33.3699 176.307 58.9999 163.117 76.9199 167.297C88.5799 170.017 100.67 181.497 102.6 195.277C102.82 196.837 102.91 198.427 102.85 200.037C102.62 206.367 100.02 215.597 88.8899 223.657C79.7499 230.277 66.1699 235.057 48.5399 237.857C39.1999 239.337 30.7899 239.537 23.2499 238.767C24.1799 244.667 26.4999 250.987 30.7799 257.627C40.4199 272.597 53.3299 279.657 65.1799 282.777C67.0499 276.827 69.8299 271.147 73.4999 265.857C83.3699 251.627 98.6199 242.647 111.45 243.497C125.83 244.457 132.33 251.187 135.25 256.677C136.49 259.017 137.3 261.587 137.68 264.277L137.65 264.267ZM119.82 275.187C122.06 271.247 122.57 266.947 121.1 264.187C119.27 260.747 114.26 259.717 110.37 259.457C104.21 259.047 94.0799 264.247 86.6299 274.977C84.8799 277.497 82.9199 280.867 81.3299 284.997C100.73 285.427 117.07 278.417 119.82 275.187ZM23.9699 222.757C30.7599 223.547 38.1099 223.307 45.9999 222.057C71.2099 218.047 86.4799 209.607 86.8399 199.467C87.0999 192.097 79.6299 184.367 73.2699 182.877C63.1499 180.517 43.1899 190.127 31.6299 206.527C28.4899 210.977 25.5599 216.457 23.9699 222.757Z" fill="#F7EEE3"/>
<path d="M220.73 690.227C220.32 691.337 219.84 692.427 219.28 693.507C215.05 701.707 206.79 708.637 194.75 714.107C186.31 717.947 178.95 719.668 178.64 719.738L175.03 704.147L176.83 711.937L175.01 704.147C181.59 702.607 199.81 696.357 205.07 686.137C206.93 682.517 206.93 678.718 205.07 674.178C202.4 667.668 199.05 663.797 194.84 662.347C185.14 658.997 169.64 667.777 158.32 674.197L150.43 660.277C165.18 651.917 183.53 641.517 200.06 647.227C208.74 650.227 215.41 657.247 219.86 668.107C222.99 675.727 223.27 683.297 220.71 690.227H220.73Z" fill="#F7EEE3"/>
<path d="M342.77 359.407C342.36 360.517 341.88 361.607 341.32 362.687C337.09 370.887 328.83 377.817 316.79 383.287C308.35 387.127 300.99 388.847 300.68 388.917L297.07 373.327L298.87 381.117L297.05 373.327C303.63 371.787 321.85 365.537 327.11 355.317C328.97 351.697 328.98 347.897 327.11 343.357C324.44 336.847 321.09 332.977 316.88 331.527C307.18 328.177 291.68 336.957 280.36 343.377L272.47 329.457C287.22 321.097 305.57 310.697 322.1 316.407C330.78 319.407 337.45 326.427 341.9 337.287C345.03 344.907 345.31 352.477 342.75 359.407H342.77Z" fill="#F7EEE3"/>
<path d="M78.2798 400.407C76.7798 404.477 74.7698 408.417 72.2598 412.127C62.9398 425.907 48.6798 432.937 34.1198 430.937C18.9598 428.847 7.54981 422.607 0.199811 412.377C-11.6502 395.877 -7.90019 375.267 -7.73019 374.397L7.98981 377.387L0.12981 375.887L7.99981 377.347C7.96981 377.497 5.40981 392.287 13.2698 403.127C17.9598 409.597 25.7098 413.617 36.3098 415.077C48.3998 416.737 56.2198 407.297 59.0198 403.157C65.3398 393.817 68.5998 378.917 61.6398 366.687C53.8098 352.937 34.7698 346.247 8.01981 347.837L7.06981 331.867C26.2698 330.727 60.6998 332.697 75.5498 358.767C82.5998 371.147 83.4298 386.487 78.2998 400.397L78.2798 400.407Z" fill="#F7EEE3"/>
<path d="M409.82 522.717C408.32 526.787 406.31 530.727 403.8 534.437C394.48 548.217 380.22 555.247 365.66 553.247C350.5 551.157 339.09 544.917 331.74 534.687C319.89 518.187 323.64 497.577 323.81 496.707L339.53 499.697L331.67 498.197L339.54 499.657C339.51 499.807 336.95 514.597 344.81 525.437C349.5 531.907 357.25 535.927 367.85 537.387C379.94 539.047 387.76 529.607 390.56 525.467C396.88 516.127 400.14 501.227 393.18 488.997C385.35 475.247 366.31 468.557 339.56 470.147L338.61 454.177C357.81 453.037 392.24 455.007 407.09 481.077C414.14 493.457 414.97 508.797 409.84 522.707L409.82 522.717Z" fill="#F7EEE3"/>
<path d="M187.67 135.657C186.17 139.727 184.16 143.667 181.65 147.377C172.33 161.157 158.07 168.187 143.51 166.187C128.35 164.097 116.94 157.857 109.59 147.627C97.7399 131.127 101.49 110.517 101.66 109.647L117.38 112.637L109.52 111.137L117.39 112.597C117.36 112.747 114.8 127.537 122.66 138.377C127.35 144.847 135.1 148.867 145.7 150.327C157.79 151.987 165.61 142.547 168.41 138.407C174.73 129.067 177.99 114.167 171.03 101.937C163.2 88.1875 144.16 81.4975 117.41 83.0875L116.46 67.1175C135.66 65.9775 170.09 67.9475 184.94 94.0175C191.99 106.397 192.82 121.737 187.69 135.647L187.67 135.657Z" fill="#F7EEE3"/>
<path d="M218.64 616.097L210.36 629.787C192.15 618.777 180.26 602.657 177.72 585.567C176.06 574.387 177.56 557.207 194.11 538.817C194.59 538.287 195.09 537.737 195.61 537.177C197.66 534.937 202.39 529.777 202.66 527.597C202.15 526.977 199.05 523.977 185.21 521.647C179.24 520.647 161.09 517.588 157.64 504.308C156.61 500.338 156.62 493.997 162.5 486.327C165.38 482.577 168.5 480.047 168.84 479.767L178.84 492.257C175.59 494.907 172.81 499.097 173.12 500.277C173.12 500.307 174.79 503.667 187.86 505.868C210.96 509.757 216.04 517.177 217.84 522.427C221.38 532.727 212.97 541.907 207.41 547.977C206.93 548.507 206.46 549.017 206.01 549.517C196.06 560.567 191.87 571.907 193.55 583.217C195.38 595.577 204.53 607.557 218.64 616.097Z" fill="#F7EEE3"/>
<path d="M157.07 604.118C154.7 610.548 151.21 616.188 146.75 620.618C142.47 624.878 136.92 628.237 130.46 629.687C129.59 638.477 127.91 646.407 125.97 653.207C119.09 677.387 107.76 692.707 107.28 693.357L94.4699 683.767L100.88 688.558L94.4599 683.777C94.5599 683.637 104.74 669.757 110.75 648.247C112.53 641.887 113.77 635.557 114.48 629.267C107.96 627.547 100.97 623.858 93.7399 617.558C83.2899 608.458 75.8799 597.367 72.2999 585.497C69.1699 575.117 69.0799 564.517 72.0399 555.667C75.4699 545.417 82.5699 538.937 91.0499 538.327C96.7399 537.917 107.68 540.017 117.05 558.647C126.69 577.817 130.47 596.207 131.02 612.587C132.58 611.757 134.06 610.647 135.46 609.267C141.67 603.097 145.11 592.397 144.67 580.647C144.14 566.737 138.29 552.617 128.19 540.877L140.32 530.437C152.78 544.907 160 562.527 160.66 580.047C160.99 588.697 159.72 596.908 157.07 604.118ZM87.4299 560.147C87.3599 560.337 87.2899 560.537 87.2199 560.737C84.3399 569.347 84.6899 588.467 104.25 605.497C107.98 608.747 111.62 611.117 115.11 612.607C114.51 596.637 110.39 580.997 102.76 565.837C98.0299 556.437 93.7899 554.167 92.1999 554.287C90.8299 554.387 88.7999 556.427 87.4199 560.147H87.4299Z" fill="#F7EEE3"/>
<path d="M278.95 273.747C276.58 280.177 273.09 285.817 268.63 290.247C264.35 294.507 258.8 297.867 252.34 299.317C251.47 308.107 249.79 316.037 247.85 322.837C240.97 347.017 229.64 362.337 229.16 362.987L216.35 353.397L222.76 358.187L216.34 353.407C216.44 353.267 226.62 339.387 232.63 317.877C234.41 311.517 235.65 305.187 236.36 298.897C229.84 297.177 222.85 293.487 215.62 287.187C205.17 278.087 197.76 266.997 194.18 255.127C191.05 244.747 190.96 234.147 193.92 225.297C197.35 215.047 204.45 208.567 212.93 207.957C218.62 207.547 229.56 209.647 238.93 228.277C248.57 247.447 252.35 265.837 252.9 282.217C254.46 281.387 255.94 280.277 257.34 278.897C263.55 272.727 266.99 262.027 266.55 250.277C266.02 236.367 260.17 222.247 250.07 210.507L262.2 200.067C274.66 214.537 281.88 232.157 282.54 249.677C282.87 258.327 281.6 266.537 278.95 273.747ZM209.31 229.777C209.24 229.967 209.17 230.167 209.1 230.367C206.22 238.977 206.57 258.097 226.13 275.127C229.86 278.377 233.5 280.747 236.99 282.237C236.39 266.267 232.27 250.627 224.64 235.467C219.91 226.067 215.67 223.797 214.08 223.917C212.71 224.017 210.68 226.057 209.3 229.777H209.31Z" fill="#F7EEE3"/>
<path d="M278.47 473.817L263.74 480.067C263.53 479.567 258.51 467.607 258.83 452.717C259.14 438.427 264.43 418.727 287.86 405.997L295.5 420.058C263.67 437.358 277.85 472.337 278.47 473.817Z" fill="#F7EEE3"/>
<path d="M163.88 219.797L148.04 217.537C148.12 216.997 150 204.167 157.97 191.587C165.62 179.517 180.33 165.387 206.97 166.597L206.24 182.577C170.05 180.927 164.11 218.207 163.88 219.797Z" fill="#F7EEE3"/>
<path d="M247.94 404.377C255.998 404.377 262.53 397.845 262.53 389.787C262.53 381.73 255.998 375.197 247.94 375.197C239.882 375.197 233.35 381.73 233.35 389.787C233.35 397.845 239.882 404.377 247.94 404.377Z" fill="#F7EEE3"/>
<path d="M303.87 467.868C311.928 467.868 318.46 461.335 318.46 453.277C318.46 445.22 311.928 438.687 303.87 438.687C295.812 438.687 289.28 445.22 289.28 453.277C289.28 461.335 295.812 467.868 303.87 467.868Z" fill="#F7EEE3"/>
<path d="M36.1 397.387C44.1578 397.387 50.69 390.855 50.69 382.797C50.69 374.74 44.1578 368.207 36.1 368.207C28.0422 368.207 21.51 374.74 21.51 382.797C21.51 390.855 28.0422 397.387 36.1 397.387Z" fill="#F7EEE3"/>
<path d="M58.8698 629.127C66.9276 629.127 73.4598 622.595 73.4598 614.537C73.4598 606.48 66.9276 599.947 58.8698 599.947C50.812 599.947 44.2798 606.48 44.2798 614.537C44.2798 622.595 50.812 629.127 58.8698 629.127Z" fill="#F7EEE3"/>
<path d="M171.8 282.257C179.858 282.257 186.39 275.725 186.39 267.667C186.39 259.61 179.858 253.077 171.8 253.077C163.742 253.077 157.21 259.61 157.21 267.667C157.21 275.725 163.742 282.257 171.8 282.257Z" fill="#F7EEE3"/>
<path d="M44.2799 147.037C52.3378 147.037 58.8699 140.505 58.8699 132.447C58.8699 124.39 52.3378 117.857 44.2799 117.857C36.2221 117.857 29.6899 124.39 29.6899 132.447C29.6899 140.505 36.2221 147.037 44.2799 147.037Z" fill="#F7EEE3"/>
<path d="M302.57 625.497C310.628 625.497 317.16 618.965 317.16 610.907C317.16 602.85 310.628 596.317 302.57 596.317C294.512 596.317 287.98 602.85 287.98 610.907C287.98 618.965 294.512 625.497 302.57 625.497Z" fill="#F7EEE3"/>
<path d="M348.54 428.327L333.68 434.247C328.43 421.177 325.57 390.677 352.3 368.857L362.42 381.247C338.27 400.967 348.11 427.217 348.54 428.327Z" fill="#F7EEE3"/>
<path d="M578.11 128.057C586.15 127.687 593.91 132.297 597.98 139.877C600.83 145.207 605.82 159.767 590.53 179.807C589.01 181.797 587.46 183.527 585.9 185.027C591.39 190.847 596.73 194.507 598.6 194.997C598.6 194.997 598.37 194.937 597.97 194.927L597.65 210.927C590.29 210.777 579.86 202.647 571.7 193.137C568.89 193.837 566.28 194.017 564.01 193.947C540.87 193.177 521.6 165.077 519.48 161.877L532.81 153.037C536.65 158.807 549.34 174.397 561.12 177.447C555.3 165.767 554.21 154.497 558.02 144.457C561.69 134.777 569.07 128.657 577.76 128.097C577.88 128.097 578 128.087 578.12 128.077L578.11 128.057ZM576.3 171.937C576.8 171.367 577.31 170.757 577.81 170.097C587.74 157.097 584.96 149.457 583.87 147.437C582.7 145.257 580.7 143.917 578.78 144.047C576.49 144.197 574.38 146.407 572.97 150.117C570.74 155.987 571.69 163.007 575.78 170.957C575.95 171.287 576.12 171.607 576.3 171.937Z" fill="#F7EEE3"/>
<path d="M572.61 367.007C573.76 367.477 600.82 378.847 611.88 405.417C618.61 421.577 617.96 439.577 609.97 458.927L595.18 452.817C603.81 431.947 601.84 413.837 589.33 398.987C579.51 387.327 566.63 381.867 566.5 381.807L572.6 367.017L572.61 367.007Z" fill="#F7EEE3"/>
<path d="M601.78 305.987L616.74 311.647C612.32 323.327 612.04 333.367 615.9 341.487C621.66 353.587 635.05 358.137 635.19 358.177L630.28 373.407C629.47 373.147 610.39 366.877 601.55 348.577C595.64 336.327 595.71 322.007 601.77 305.987H601.78Z" fill="#F7EEE3"/>
<path d="M554.51 216.137L557.6 231.837C557.45 231.867 542.16 235.037 528.73 245.877C521.03 252.097 515.49 259.537 512.11 268.147C519.55 269.837 526.85 273.027 533.82 277.737C555.13 292.117 568.83 317.477 565.01 335.477C562.25 348.517 548.65 362.307 532.8 362.057C526.47 361.957 517.18 359.537 508.9 348.577C502.1 339.577 497.05 326.097 493.89 308.517C492.22 299.207 491.85 290.807 492.47 283.257C486.59 284.307 480.32 286.757 473.77 291.167C459 301.117 452.2 314.157 449.33 326.067C455.32 327.817 461.06 330.477 466.42 334.047C480.84 343.627 490.14 358.697 489.54 371.537C488.87 385.937 482.27 392.567 476.85 395.597C469.25 399.837 459.01 399.407 450.13 394.487C440.79 389.307 432.45 367.797 431.53 346.537C431.43 344.157 431.41 341.797 431.49 339.477C424.2 339.457 415.82 341.067 406.5 345.497L399.63 331.047C410.85 325.707 422.37 323.227 433.48 323.567C437.7 304.737 448.43 288.947 464.85 277.897C474.68 271.277 485.13 267.607 495.64 266.877C500.6 251.087 510.17 240.217 519.23 233.017C535.71 219.937 553.77 216.297 554.53 216.147L554.51 216.137ZM533.71 346.047C540.87 345.717 548.04 338.357 549.35 332.157C551.51 321.987 541.49 302.227 524.86 291.007C520.34 287.957 514.81 285.137 508.48 283.677C507.83 290.477 508.21 297.827 509.63 305.687C514.15 330.807 522.9 345.897 533.05 346.057C533.27 346.057 533.49 346.057 533.71 346.047ZM465.61 382.507C466.9 382.447 468.07 382.147 469.04 381.607C472.44 379.707 473.37 374.677 473.55 370.787C473.83 364.617 468.43 354.597 457.55 347.367C454.99 345.667 451.59 343.777 447.43 342.277C447.39 361.677 454.73 377.867 458.02 380.557C460.59 381.947 463.29 382.617 465.62 382.507H465.61Z" fill="#F7EEE3"/>
<path d="M745.52 0.0274742C751.74 -0.262526 758.4 1.74748 764.16 5.85748C772.86 12.0575 778.72 34.3675 777.24 55.5875C777.07 57.9675 776.82 60.3075 776.49 62.6075C783.73 63.4475 792.24 62.7975 802 59.4375L807.2 74.5675C795.45 78.6075 783.72 79.7775 772.73 78.1875C766.41 96.4275 753.97 110.897 736.42 120.037C725.89 125.517 715.07 127.987 704.53 127.517C700.25 137.217 693.94 145.607 685.69 152.477C665.73 169.087 641.38 171.207 640.35 171.297L639.07 155.347L639.71 163.317L639.05 155.347C639.25 155.327 659.49 153.457 675.45 140.177C680.84 135.697 685.13 130.417 688.32 124.387C681.13 121.867 674.23 117.877 667.84 112.417C648.29 95.7275 637.53 68.9875 643.35 51.5375C647.14 40.1775 659.68 29.2075 673.59 28.5575C675.16 28.4875 676.75 28.5475 678.35 28.7475C684.63 29.5575 693.58 33.0075 700.58 44.8375C706.33 54.5475 709.83 68.5075 710.99 86.3275C711.57 95.3075 711.07 103.747 709.51 111.597C715.48 111.227 722.01 109.497 729.03 105.837C744.83 97.6175 753.05 85.4275 757.25 73.9075C751.5 71.4875 746.1 68.1975 741.17 64.0575C727.92 52.9075 720.38 36.8975 722.41 24.2075C724.69 9.97747 732 4.12747 737.73 1.73747C740.17 0.717473 742.81 0.147474 745.52 0.0274742ZM754.74 18.7875C751.03 16.1875 746.79 15.2875 743.91 16.4975C740.32 17.9975 738.83 22.8975 738.21 26.7475C737.23 32.8475 741.47 43.4175 751.47 51.8175C753.82 53.7975 756.99 56.0575 760.95 58.0175C763.17 38.7475 757.71 21.8275 754.74 18.7875ZM693.67 109.367C695.08 102.677 695.54 95.3375 695.02 87.3675C693.36 61.8975 686.36 45.9175 676.3 44.6175C668.98 43.6775 660.6 50.3975 658.53 56.5975C655.24 66.4575 662.97 87.2175 678.23 100.247C682.37 103.787 687.55 107.207 693.67 109.367Z" fill="#F7EEE3"/>
<path d="M383.93 16.7775C390.15 16.4875 396.81 18.4975 402.57 22.6075C411.27 28.8075 417.13 51.1175 415.65 72.3375C415.48 74.7175 415.23 77.0575 414.9 79.3575C422.14 80.1975 430.65 79.5475 440.41 76.1875L445.61 91.3175C433.86 95.3575 422.13 96.5275 411.14 94.9375C404.82 113.177 392.38 127.647 374.83 136.787C364.32 142.257 353.52 144.727 343 144.277C336.3 159.407 325.56 169.127 315.74 175.267C297.89 186.407 279.53 187.987 278.76 188.057L277.48 172.107L278.12 180.077L277.46 172.107C277.62 172.097 293.17 170.667 307.73 161.407C316.08 156.097 322.43 149.327 326.75 141.147C319.55 138.627 312.65 134.637 306.26 129.177C286.71 112.487 275.95 85.7475 281.77 68.2975C285.56 56.9375 298.1 45.9675 312.01 45.3175C313.58 45.2475 315.17 45.3075 316.77 45.5075C323.05 46.3175 332 49.7675 339 61.5975C344.75 71.3075 348.25 85.2675 349.41 103.087C350.02 112.527 349.44 120.907 347.98 128.347C353.94 127.967 360.45 126.237 367.45 122.597C383.25 114.377 391.47 102.187 395.67 90.6675C389.92 88.2475 384.52 84.9575 379.59 80.8175C366.34 69.6675 358.8 53.6575 360.83 40.9675C363.11 26.7375 370.42 20.8875 376.15 18.4975C378.59 17.4775 381.23 16.9075 383.94 16.7875L383.93 16.7775ZM393.15 35.5475C389.44 32.9475 385.2 32.0475 382.32 33.2575C378.73 34.7575 377.24 39.6575 376.62 43.5075C375.64 49.6075 379.88 60.1775 389.88 68.5775C392.23 70.5575 395.4 72.8175 399.36 74.7775C401.58 55.5075 396.12 38.5875 393.15 35.5475ZM332.08 126.127C333.49 119.437 333.94 112.097 333.42 104.127C331.76 78.6575 324.76 62.6775 314.7 61.3775C307.38 60.4375 299 67.1575 296.93 73.3575C293.64 83.2175 301.37 103.977 316.63 117.007C320.78 120.547 325.96 123.967 332.08 126.137V126.127Z" fill="#F7EEE3"/>
<path d="M377.85 397.057C383.2 393.857 390.01 392.487 397.03 393.387C407.62 394.737 423.34 411.627 432.06 431.037C433.04 433.217 433.92 435.397 434.72 437.577C441.5 434.897 448.69 430.297 455.7 422.727L467.44 433.597C459 442.707 449.21 449.287 438.77 453.077C441.82 472.137 437.7 490.768 426.55 507.118C419.87 516.908 411.52 524.187 402.04 528.757C403.28 545.257 398.42 558.897 392.67 568.947C382.21 587.207 366.78 597.277 366.13 597.697L357.47 584.247L361.8 590.977L357.45 584.267C357.58 584.177 370.61 575.577 379.06 560.527C383.91 551.897 386.3 542.937 386.25 533.687C378.72 534.877 370.75 534.607 362.53 532.827C337.41 527.367 315.29 508.887 312.17 490.757C310.14 478.957 316.01 463.357 327.95 456.217C329.3 455.407 330.73 454.707 332.24 454.137C338.16 451.887 347.68 450.688 359.44 457.808C369.09 463.647 378.78 474.297 388.22 489.457C393.22 497.487 396.68 505.147 398.9 512.397C403.97 509.247 408.89 504.647 413.34 498.118C423.38 483.408 424.86 468.777 423.11 456.637C416.9 457.227 410.58 456.878 404.28 455.558C387.33 451.998 373.12 441.448 368.91 429.308C364.19 415.688 367.87 407.077 371.79 402.257C373.46 400.207 375.51 398.457 377.85 397.067V397.057ZM394.84 409.237C390.34 408.707 386.18 409.917 384.21 412.337C381.76 415.357 382.76 420.378 384.03 424.058C386.05 429.888 394.78 437.207 407.56 439.887C410.57 440.517 414.42 441.018 418.85 440.868C411.7 422.837 398.88 410.507 394.84 409.227V409.237ZM383.85 517.927C381.93 511.368 378.86 504.687 374.63 497.907C361.13 476.247 347.41 465.467 337.92 469.077C331.03 471.707 326.81 481.597 327.92 488.037C329.68 498.277 346.31 512.927 365.91 517.187C371.23 518.347 377.42 518.917 383.84 517.927H383.85Z" fill="#F7EEE3"/>
<path d="M737.9 154.757C739.08 154.707 740.28 154.717 741.48 154.817C750.68 155.527 760.27 160.437 770 169.397C776.82 175.687 781.27 181.787 781.46 182.047L768.51 191.437L774.99 186.737L768.52 191.437C764.54 185.977 751.7 171.627 740.24 170.757C736.18 170.447 732.68 171.927 729.22 175.407C724.27 180.397 722 184.987 722.3 189.437C722.99 199.677 737.11 210.537 747.42 218.467L737.67 231.147C724.23 220.817 707.5 207.957 706.33 190.507C705.71 181.337 709.59 172.467 717.85 164.137C723.65 158.287 730.52 155.087 737.9 154.747V154.757Z" fill="#F7EEE3"/>
<path d="M385.66 171.077C386.84 171.027 388.04 171.037 389.24 171.137C398.44 171.847 408.03 176.757 417.76 185.717C424.58 192.007 429.03 198.107 429.22 198.367L416.27 207.757L422.75 203.057L416.28 207.757C412.3 202.297 399.46 187.947 388 187.077C383.94 186.767 380.44 188.247 376.98 191.727C372.03 196.717 369.76 201.307 370.06 205.757C370.75 215.997 384.87 226.857 395.18 234.787L385.43 247.467C371.99 237.137 355.26 224.277 354.09 206.827C353.47 197.657 357.35 188.787 365.61 180.457C371.41 174.607 378.28 171.407 385.66 171.067V171.077Z" fill="#F7EEE3"/>
<path d="M526.36 398.767C530.69 398.567 535.1 398.887 539.5 399.747C555.82 402.977 567.85 413.377 571.67 427.567C575.65 442.347 574.34 455.287 567.78 466.037C557.2 483.377 536.75 487.937 535.88 488.127L532.52 472.487L534.2 480.307L532.49 472.497C532.64 472.467 547.26 469.067 554.18 457.607C558.31 450.767 559 442.057 556.22 431.737C553.05 419.947 541.3 416.427 536.4 415.457C525.33 413.267 510.34 416.067 501.78 427.237C492.16 439.797 493.41 459.947 505.29 483.967L490.95 491.057C482.43 473.817 470.85 441.327 489.08 417.507C497.74 406.197 511.55 399.457 526.36 398.777V398.767Z" fill="#F7EEE3"/>
<path d="M510 45.7575C514.33 45.5575 518.74 45.8775 523.14 46.7375C539.46 49.9675 551.49 60.3675 555.31 74.5575C559.29 89.3375 557.98 102.277 551.42 113.027C540.84 130.367 520.39 134.927 519.52 135.117L516.16 119.477L517.84 127.297L516.13 119.487C516.28 119.457 530.9 116.057 537.82 104.597C541.95 97.7575 542.64 89.0475 539.86 78.7275C536.69 66.9375 524.94 63.4175 520.04 62.4475C508.97 60.2575 493.98 63.0575 485.42 74.2275C475.8 86.7875 477.05 106.937 488.93 130.957L474.59 138.047C466.07 120.807 454.49 88.3175 472.72 64.4975C481.38 53.1875 495.19 46.4475 510 45.7675V45.7575Z" fill="#F7EEE3"/>
<path d="M239.91 401.027C244.24 400.827 248.65 401.147 253.05 402.007C269.37 405.237 281.4 415.637 285.22 429.827C289.2 444.607 287.89 457.547 281.33 468.297C270.75 485.637 250.3 490.197 249.43 490.387L246.07 474.747L247.75 482.567L246.04 474.757C246.19 474.727 260.81 471.327 267.73 459.867C271.86 453.027 272.55 444.317 269.77 433.997C266.6 422.207 254.85 418.687 249.95 417.717C238.88 415.527 223.89 418.327 215.33 429.497C205.71 442.057 206.96 462.207 218.84 486.227L204.5 493.317C195.98 476.077 184.4 443.587 202.63 419.767C211.29 408.457 225.1 401.717 239.91 401.037V401.027Z" fill="#F7EEE3"/>
<path d="M670.43 185.527L686.26 187.827C683.2 208.887 672.99 226.117 658.22 235.097C648.57 240.967 632.16 246.277 608.77 238.187C608.09 237.957 607.39 237.707 606.67 237.447C603.81 236.427 597.22 234.087 595.1 234.687C594.73 235.397 593.17 239.427 596.41 253.077C597.81 258.967 602.06 276.877 591.17 285.227C587.91 287.727 582.07 290.187 572.72 287.737C568.15 286.547 564.6 284.657 564.21 284.447L571.82 270.377C575.52 272.337 580.47 273.267 581.44 272.527C581.47 272.507 583.91 269.667 580.85 256.777C575.44 233.977 580.31 226.417 584.44 222.717C592.55 215.447 604.28 219.617 612.04 222.387C612.71 222.627 613.37 222.857 614 223.077C628.05 227.937 640.13 227.387 649.9 221.437C660.57 214.937 668.05 201.857 670.42 185.537L670.43 185.527Z" fill="#F7EEE3"/>
<path d="M683.35 246.907C690.2 246.587 696.74 247.607 702.57 249.997C708.16 252.287 713.42 256.087 717.27 261.467C725.71 258.847 733.67 257.317 740.69 256.447C765.64 253.367 784.17 257.847 784.95 258.047L781.11 273.577L783.03 265.807L781.12 273.577C780.95 273.537 764.21 269.557 742.05 272.397C735.5 273.237 729.18 274.557 723.11 276.347C724.06 283.027 723.38 290.897 720.39 300.007C716.07 313.177 708.74 324.317 699.2 332.228C690.85 339.147 681.13 343.357 671.82 344.077C661.04 344.907 652.31 340.887 648.44 333.317C645.85 328.237 643.52 317.347 657.04 301.457C670.95 285.117 686.41 274.477 701.29 267.597C699.92 266.487 698.32 265.547 696.5 264.797C688.4 261.477 677.2 262.477 666.55 267.457C653.94 273.357 643.21 284.247 636.33 298.117L622 291.007C630.49 273.897 643.9 260.387 659.78 252.967C667.62 249.297 675.68 247.267 683.35 246.907ZM669.95 328.168C670.16 328.168 670.36 328.147 670.58 328.127C679.63 327.427 697.1 319.667 705.19 295.017C706.73 290.317 707.5 286.037 707.51 282.247C693.04 289.017 680.23 298.897 669.23 311.827C662.41 319.837 661.97 324.637 662.7 326.047C663.32 327.267 665.99 328.348 669.96 328.168H669.95Z" fill="#F7EEE3"/>
<path d="M331.59 263.207C338.44 262.887 344.98 263.907 350.81 266.297C356.4 268.587 361.66 272.387 365.51 277.767C373.95 275.147 381.91 273.617 388.93 272.747C413.88 269.667 432.41 274.147 433.19 274.347L429.35 289.877L431.27 282.107L429.36 289.877C429.19 289.837 412.45 285.857 390.29 288.697C383.74 289.537 377.42 290.857 371.35 292.647C372.3 299.327 371.62 307.197 368.63 316.307C364.31 329.477 356.98 340.617 347.44 348.527C339.09 355.447 329.37 359.657 320.06 360.377C309.29 361.207 300.55 357.187 296.68 349.617C294.09 344.537 291.76 333.647 305.28 317.757C319.19 301.417 334.65 290.777 349.53 283.897C348.16 282.787 346.56 281.847 344.74 281.097C336.64 277.777 325.44 278.777 314.79 283.757C302.18 289.657 291.45 300.548 284.57 314.417L270.24 307.307C278.73 290.197 292.14 276.687 308.02 269.267C315.86 265.597 323.92 263.567 331.59 263.207ZM318.19 344.467C318.4 344.467 318.6 344.447 318.82 344.427C327.87 343.727 345.34 335.967 353.43 311.317C354.97 306.617 355.74 302.337 355.75 298.547C341.28 305.317 328.47 315.197 317.47 328.127C310.65 336.137 310.21 340.937 310.94 342.347C311.56 343.567 314.23 344.647 318.2 344.467H318.19Z" fill="#F7EEE3"/>
<path d="M516.08 185.787L527.57 196.927C527.19 197.317 518.13 206.597 504.29 212.097C491.01 217.367 470.8 220.167 449.96 203.537L459.94 191.027C488.26 213.617 514.97 186.937 516.09 185.787H516.08Z" fill="#F7EEE3"/>
<path d="M326.68 390.197L330.76 405.667C330.23 405.807 317.68 409.068 302.99 406.618C288.9 404.268 270.15 396.217 260.9 371.207L275.91 365.657C288.48 399.637 325.13 390.597 326.68 390.197Z" fill="#F7EEE3"/>
<path d="M450.55 261.207C458.608 261.207 465.14 254.675 465.14 246.617C465.14 238.56 458.608 232.027 450.55 232.027C442.492 232.027 435.96 238.56 435.96 246.617C435.96 254.675 442.492 261.207 450.55 261.207Z" fill="#F7EEE3"/>
<path d="M487.27 184.967C495.328 184.967 501.86 178.435 501.86 170.377C501.86 162.32 495.328 155.787 487.27 155.787C479.212 155.787 472.68 162.32 472.68 170.377C472.68 178.435 479.212 184.967 487.27 184.967Z" fill="#F7EEE3"/>
<path d="M649.34 477.827C657.398 477.827 663.93 471.295 663.93 463.237C663.93 455.18 657.398 448.647 649.34 448.647C641.282 448.647 634.75 455.18 634.75 463.237C634.75 471.295 641.282 477.827 649.34 477.827Z" fill="#F7EEE3"/>
<path d="M526.56 459.067C534.618 459.067 541.15 452.535 541.15 444.477C541.15 436.42 534.618 429.887 526.56 429.887C518.502 429.887 511.97 436.42 511.97 444.477C511.97 452.535 518.502 459.067 526.56 459.067Z" fill="#F7EEE3"/>
<path d="M367.69 378.867C375.748 378.867 382.28 372.335 382.28 364.277C382.28 356.22 375.748 349.687 367.69 349.687C359.632 349.687 353.1 356.22 353.1 364.277C353.1 372.335 359.632 378.867 367.69 378.867Z" fill="#F7EEE3"/>
<path d="M292.75 548.957C300.808 548.957 307.34 542.425 307.34 534.368C307.34 526.31 300.808 519.777 292.75 519.777C284.692 519.777 278.16 526.31 278.16 534.368C278.16 542.425 284.692 548.957 292.75 548.957Z" fill="#F7EEE3"/>
<path d="M632.98 124.827C641.038 124.827 647.57 118.295 647.57 110.237C647.57 102.18 641.038 95.6475 632.98 95.6475C624.922 95.6475 618.39 102.18 618.39 110.237C618.39 118.295 624.922 124.827 632.98 124.827Z" fill="#F7EEE3"/>
<path d="M446.9 138.947L458.14 150.337C448.14 160.257 421.16 174.757 390.65 158.627L398.13 144.487C425.69 159.057 446.05 139.777 446.9 138.947Z" fill="#F7EEE3"/>
</svg>
