<svg width="1440" height="971" viewBox="0 0 1440 971" fill="none" xmlns="http://www.w3.org/2000/svg">
<path d="M452.22 403.39C453.03 404.58 454.1 405.59 455.45 406.41C459.2 408.69 463.17 410.83 467.38 412.83C474.78 416.35 481.65 419.36 487.99 421.86C493.3 423.96 498.51 421.54 499.08 415.78C499.49 411.51 495.73 408.71 492.43 406.78C484.32 402.03 475.35 398.42 465.52 395.93C462.42 395.15 459.52 394.81 456.8 394.93C452.67 395.1 449.84 399.9 452.22 403.4V403.39Z" fill="#4A6CB7"/>
<path d="M402.46 416.03C401.07 419.91 403.43 423.73 407.48 424.18C410.49 424.52 413.4 422.53 415.81 420.84C420.92 417.26 425.69 413.7 430.11 410.15C432.13 408.54 433.86 406.9 435.3 405.24C437.36 402.86 437.36 398.81 434.91 396.62C432.73 394.68 430.06 394.36 426.89 395.67C418.67 399.08 411.41 404.38 405.12 411.55C403.93 412.91 403.04 414.41 402.45 416.03H402.46Z" fill="#EB665F"/>
<path d="M43.069 428.154C46.5569 427.654 48.8843 423.761 48.2674 419.458C47.6505 415.156 44.3228 412.074 40.8349 412.574C37.347 413.074 35.0197 416.967 35.6366 421.27C36.2535 425.572 39.5811 428.654 43.069 428.154Z" fill="#89C9C1"/>
<path d="M429.37 439.96C430.81 439.96 432.28 439.59 433.76 438.85C438.09 436.71 442.45 434.28 446.84 431.55C448.1 430.77 449.13 429.87 449.94 428.86C452.15 426.08 451.37 421.85 448.43 419.93C446.72 418.81 444.81 418.58 442.7 419.25C437.52 420.88 426.39 426.35 423.93 432.24C422.34 436.06 425.39 439.98 429.37 439.97V439.96Z" fill="#EB665F"/>
<path d="M200.6 476.63C199.13 474.72 197.27 474.34 195.01 475.5C192.89 476.58 189.63 478.85 185.24 482.32C184.04 483.27 183.21 484.29 182.75 485.38C181.85 487.51 182.92 489.96 185.09 490.74C189.22 492.22 195.75 486.69 198.85 483.89C200.94 482.01 202.5 479.11 200.6 476.63Z" fill="#4A6CB7"/>
<path d="M462.53 455.82C464.82 455.05 466.86 454.09 468.66 452.96C471.29 451.3 472.49 447.82 471.17 444.99C469.69 441.83 466.98 440.78 463.02 441.85C456.44 443.62 450.2 445.68 444.29 448.03C441.03 449.33 436.76 451.59 435.93 455.31C434.95 459.74 439.11 462.27 443.09 461.39C448.72 460.14 455.2 458.28 462.53 455.82Z" fill="#EB665F"/>
<path d="M81.78 575.66C84.29 581.02 90.03 584.41 95.92 584.2C106.4 583.81 114.99 577.17 122.17 569.09C127.06 563.59 137.1 552.93 152.29 537.12C158.58 530.58 162.51 522.81 157.83 514.08C154.91 508.62 148.65 505.59 142.54 506.47C133.64 507.75 124.31 515.23 117.41 521.5C108.27 529.79 99.11 539.22 89.93 549.78C83.24 557.49 77.05 565.6 81.77 575.66H81.78Z" fill="#4A6CB7"/>
<path d="M509.19 592.63C511.77 594.24 515.49 594.16 516.92 591.11C518.23 588.28 516.47 586.01 514.55 584.11C511.64 581.22 508.75 578.27 505.88 575.25C504.49 573.8 503.03 572.73 501.5 572.05C498.9 570.9 495.93 572.9 495.31 575.57C494.09 580.8 506.01 590.64 509.19 592.62V592.63Z" fill="#F8E1A7"/>
<path d="M17.3377 537.626C19.3091 535.515 18.4334 531.493 15.3818 528.644C12.3301 525.794 8.2582 525.195 6.28681 527.306C4.31541 529.418 5.1911 533.439 8.24272 536.289C11.2943 539.138 15.3663 539.737 17.3377 537.626Z" fill="#89C9C1"/>
<path d="M503.57 493.35C505.43 490.89 505.47 488.58 503.7 486.43C501.51 483.76 498.8 483.46 495.57 485.53C493.95 486.57 490.65 489.77 485.65 495.14C484.14 496.77 483.17 499.1 483.93 501.33C485.11 504.82 489 505.94 492.06 504.1C494.42 502.68 496.29 500.86 498.28 499.02C500.43 497.04 502.19 495.15 503.55 493.35H503.57Z" fill="#EB665F"/>
<path d="M56.1302 546.17C56.8802 543.54 55.1702 542 52.9002 541.21C50.3402 540.33 47.9202 539.39 45.6402 538.41C40.8902 536.37 37.4602 542.81 41.9202 545.66C44.5802 547.37 48.0602 548.35 51.0902 549.12C53.5002 549.74 55.4802 548.5 56.1302 546.16V546.17Z" fill="#F3CD6C"/>
<path d="M511.7 544.94C512.64 544.63 513.56 544.29 514.48 543.92C522.59 540.63 530.55 537.2 538.34 533.63C540.31 532.72 541.51 531.35 541.94 529.52C542.63 526.55 540.54 523.61 537.42 523.35C535.85 523.22 534.31 523.48 532.81 524.14C524.1 527.98 515.89 532.44 508.19 537.53C503.63 540.55 506.17 546.75 511.7 544.93V544.94Z" fill="#6BBBB2"/>
<path d="M503.11 508.11C502.06 510.67 503.72 513.89 506.37 514.74C508.02 515.27 509.74 515.05 511.53 514.09C518.47 510.37 525.02 505.22 531.32 500.64C534.79 498.12 538.85 494.51 535.36 490.08C532.55 486.5 528.27 487.99 525.09 490.22C518.49 494.83 512.23 499.45 506.29 504.09C504.78 505.27 503.71 506.62 503.1 508.11H503.11Z" fill="#EB665F"/>
<path d="M531.855 572.433C534.08 569.874 534.014 566.175 531.708 564.172C529.403 562.168 525.731 562.619 523.507 565.179C521.283 567.738 521.348 571.437 523.654 573.441C525.959 575.444 529.631 574.993 531.855 572.433Z" fill="#EB665F"/>
<path d="M46.09 559.04C43.5 557.73 40.39 556.48 36.76 555.29C35.07 554.74 32.1 553.75 30.69 554.05C25.59 555.12 25.19 561.49 30.23 563.32C33.43 564.49 36.6 565.74 39.72 567.06C43.02 568.46 46.25 569.27 48.17 565.7C49.52 563.18 48.61 560.31 46.1 559.04H46.09Z" fill="#F3CD6C"/>
<path d="M740.81 902.58C737.31 917.65 726.55 932.29 715.52 942.82C702.29 955.45 682.91 959.86 670.41 943.22C664.97 935.98 662.87 930.4 662.93 921.19C662.99 912.11 665.01 903.03 668.91 894.82C676.42 878.99 694.48 861.24 712.89 860.35C734.55 859.31 745.03 884.36 740.81 902.58ZM698.55 924.31C707.52 917.02 719.66 903.57 717.05 890.93C714.93 880.67 705.5 889.86 702.11 893.45C695.67 900.26 689.87 907.65 687.46 916.88C686.48 920.65 686.28 927.5 691.91 927.44C692.14 927.44 692.37 927.42 692.6 927.39C694.81 927.12 696.8 925.74 698.55 924.31Z" fill="#89C9C1"/>
<path d="M262.77 524.65C259.27 539.72 248.51 554.36 237.48 564.89C224.25 577.52 204.87 581.93 192.37 565.29C186.93 558.05 184.83 552.47 184.89 543.26C184.95 534.18 186.97 525.1 190.87 516.89C198.38 501.06 216.44 483.31 234.85 482.42C256.51 481.38 266.99 506.43 262.77 524.65ZM220.51 546.38C229.48 539.09 241.62 525.64 239.01 513C236.89 502.74 227.46 511.93 224.07 515.52C217.63 522.33 211.83 529.72 209.42 538.95C208.44 542.72 208.24 549.57 213.87 549.51C214.1 549.51 214.33 549.49 214.56 549.46C216.77 549.19 218.76 547.81 220.51 546.38Z" fill="#6BBBB2"/>
<path d="M202.39 329.57C189.31 326.54 176.61 317.19 167.46 307.62C156.5 296.14 152.67 279.32 167.11 268.47C173.39 263.75 178.23 261.92 186.23 261.98C194.11 262.03 201.99 263.79 209.12 267.17C222.86 273.69 238.27 289.36 239.03 305.34C239.93 324.14 218.19 333.24 202.38 329.57H202.39ZM183.53 292.89C189.86 300.67 201.53 311.21 212.5 308.95C221.4 307.11 213.43 298.93 210.31 295.98C204.4 290.39 197.99 285.36 189.98 283.27C186.7 282.42 180.76 282.25 180.82 287.13C180.82 287.33 180.84 287.53 180.86 287.73C181.09 289.65 182.29 291.37 183.53 292.89Z" fill="#4A6CB7"/>
<path d="M600.01 625.56C576.61 623.41 559.4 602.48 561.58 578.8C563.75 555.13 584.48 537.68 607.88 539.82C631.28 541.97 648.49 562.9 646.31 586.58C644.14 610.25 623.41 627.71 600.01 625.56ZM600.58 602.58C611.32 604.52 621.63 597.19 623.62 586.2C625.61 575.22 618.51 564.74 607.77 562.8C597.03 560.86 586.72 568.19 584.73 579.18C582.74 590.16 589.84 600.64 600.58 602.58Z" fill="#4A6CB7"/>
<path d="M23.6001 606.87C21.8301 606.68 19.9401 606.43 18.3801 607.28C15.5901 608.79 14.9401 612.34 17.0501 614.75C17.8201 615.63 18.6701 616.36 19.6201 616.93C23.2601 619.14 27.3001 620.94 31.7401 622.33C40.0401 624.94 43.4001 615.29 36.9001 611.14C33.3201 608.86 28.8901 607.43 23.5901 606.87H23.6001Z" fill="#EB665F"/>
<path d="M329.95 374.56C334.69 384.35 339.22 394.13 343.55 403.9C344.83 406.82 347.07 409.46 350.59 409C354.22 408.52 356.56 404.86 355.61 401.39C354.88 398.75 353.77 395.92 352.28 392.91C348.6 385.47 344.14 377.32 338.88 368.44C336.92 365.13 333.74 360.61 329.68 363.57C326.06 366.21 328.41 371.35 329.97 374.56H329.95Z" fill="#6BBBB2"/>
<path d="M308.44 385.69C312.38 392.42 315.75 398.77 318.56 404.73C319.99 407.77 323.33 409.05 326.01 406.53C327.74 404.89 327.4 402.08 326.62 400.1C323.89 393.12 320.18 386.57 315.5 380.46C311.67 375.44 305.1 379.99 308.44 385.69Z" fill="#4A6CB7"/>
<path d="M113.66 471.19C115.96 460.34 117.1 449.08 117.95 438.18C118.97 425.02 119.75 411.76 120.88 398.54C122.12 384.11 123.62 369.7 125.21 355.31C125.21 355.3 125.21 355.29 125.21 355.27C125.83 349.67 126.69 344.05 127.11 338.44C128.69 324.75 123.57 309.64 109.01 306.02C102.94 304.52 95.8 306 90.82 309.63C84.23 314.43 79.82 321.08 77.59 329.56C77.09 331.47 76.61 333.46 76.16 335.52C73.09 349.66 70.76 363.95 68.69 378.27C67.8 381.59 67.66 385.34 67.18 388.74C66.7 392.14 66.21 395.62 65.73 399.06C64.71 406.34 63.69 413.62 62.67 420.91C61.83 426.88 60.99 432.85 60.15 438.82C59.56 443.02 59.07 447.33 58.68 451.75C58.47 454.15 58.56 456.33 58.97 458.31C60.21 464.44 67.03 467.44 72.42 464.2C76.33 461.84 77.26 458.08 77.43 453.51C77.91 440.85 79.16 427.73 81.17 414.15C83.28 399.86 85.28 385.56 87.35 371.27C88.61 362.57 90.01 353.89 91.5 345.23C92.65 338.26 94.13 324.18 102.52 321.92C106.65 320.82 109.64 323.94 110.46 327.75C111.15 331 111.22 334.42 110.65 338.01C108.4 352.27 106.35 366.63 104.93 380.99C103.53 395.14 102.8 409.44 102.18 423.69C101.69 434.78 101.09 445.88 99.88 456.93C98.75 467.18 96.3501 477.36 93.3 487.15C90.4201 496.41 82.9901 504.82 73.4 506.82C57.76 510.09 42.06 504.15 32.61 491.26C25.97 482.2 22.79 470.99 21.73 459.81C20.36 445.27 22.32 430.59 23.51 416.1C24.39 405.38 25.27 394.65 26.15 383.93C26.69 377.37 30.43 363.98 21.3 361.53C17.69 360.56 13.69 362.09 12.04 365.51C10.97 367.71 10.79 370.21 10.62 372.65C9.14004 393.76 7.71004 414.88 6.27004 436C5.07004 453.63 4.29004 472.48 12.28 488.78C18.58 501.62 29.94 511.55 42.8 517.83C51.11 521.89 59.89 525.3 69.23 524C77.75 522.81 85.83 518.8 92.23 513.09C101.65 504.7 107.67 493.02 111.22 480.9C112.15 477.72 112.96 474.47 113.65 471.19H113.66Z" fill="#EB665F"/>
<path d="M254.12 196.81C254.71 207.89 256.54 219.05 258.55 229.8C260.98 242.77 263.67 255.78 266.01 268.84C268.56 283.1 270.85 297.4 273.05 311.72C273.05 311.73 273.05 311.74 273.05 311.76C273.91 317.33 274.53 322.98 275.59 328.51C277.62 342.14 286.49 355.41 301.49 355.12C307.74 355 314.25 351.71 318.12 346.91C323.24 340.56 325.77 333 325.72 324.23C325.71 322.25 325.65 320.21 325.55 318.11C324.84 303.65 323.39 289.26 321.66 274.89C321.66 271.46 320.82 267.8 320.4 264.39C319.98 260.98 319.55 257.49 319.12 254.04C318.21 246.74 317.31 239.44 316.41 232.15C315.67 226.17 314.93 220.18 314.19 214.2C313.67 209.99 313.03 205.7 312.25 201.33C311.83 198.96 311.17 196.87 310.27 195.07C307.49 189.47 300.11 188.35 295.76 192.87C292.6 196.16 292.68 200.03 293.69 204.5C296.51 216.85 298.72 229.84 300.3 243.48C301.97 257.82 303.75 272.16 305.46 286.5C306.5 295.23 307.4 303.97 308.21 312.73C308.91 319.76 311.13 333.74 303.61 338.1C299.91 340.24 296.21 338 294.43 334.53C292.92 331.57 291.97 328.29 291.58 324.67C290.05 310.31 288.3 295.92 285.95 281.68C283.63 267.65 280.62 253.65 277.52 239.73C275.11 228.89 272.81 218.01 271.12 207.04C269.55 196.85 269.23 186.39 269.63 176.15C270.01 166.47 275 156.41 283.74 151.99C297.99 144.77 314.7 146.43 327.17 156.43C335.93 163.45 341.92 173.45 345.84 183.98C350.94 197.67 352.85 212.35 355.46 226.65C357.39 237.23 359.33 247.82 361.26 258.4C362.44 264.87 362.31 278.78 371.76 278.78C375.5 278.78 378.96 276.27 379.67 272.54C380.13 270.14 379.66 267.67 379.18 265.27C375.13 244.5 371.02 223.73 366.94 202.96C363.53 185.62 359.39 167.21 347.44 153.55C338.02 142.78 324.47 136.14 310.43 133.42C301.35 131.66 291.99 130.64 283.3 134.32C275.38 137.68 268.62 143.65 263.92 150.82C257 161.37 254.22 174.21 253.94 186.83C253.87 190.15 253.94 193.49 254.11 196.83L254.12 196.81Z" fill="#4A6CB7"/>
<path d="M225.95 433.2C227.46 428.59 227.84 423.6 226.85 418.75C224.13 405.46 211.67 395.75 198.22 395.64C190.04 395.57 181.98 399.2 176.55 405.32C170.64 411.98 168.05 421.31 169.94 430.03C170.65 433.31 171.98 436.44 173.82 439.25C181.16 450.53 195.3 455.49 208.26 451.33C216.85 448.57 223.23 441.51 225.95 433.2ZM200.34 436.29C194.46 436.96 188.13 433.51 186.26 427.27C185.01 423.09 186.56 418.35 189.68 415.38C194.1 411.16 201.11 410.79 205.91 414.57C211.16 418.7 212.61 426.39 208.39 431.79C206.27 434.5 203.37 435.94 200.35 436.29H200.34Z" fill="#EB665F"/>
<path d="M328.51 426.38C328.2 426.29 327.89 426.21 327.56 426.15C319.93 424.69 311.97 431.11 311.52 438.78C311.25 443.23 311.14 450.23 314.06 453.92C318.42 459.42 326.71 456.59 331.11 452.48C337.86 446.18 339.46 429.65 328.51 426.38Z" fill="#F8E1A7"/>
<mask id="mask0_1_3615" style="mask-type:luminance" maskUnits="userSpaceOnUse" x="0" y="0" width="1440" height="971">
<path d="M1440 0H0V970.82H1440V0Z" fill="white"/>
</mask>
<g mask="url(#mask0_1_3615)">
<path d="M448.15 491.47C448.63 492.48 449.16 493.39 449.76 494.2C453.14 498.8 456.67 502.42 460.34 505.07C466.94 509.83 474.79 504.08 471.15 496.39C468.28 490.33 460.08 481.21 452.54 482.78C448.77 483.57 446.43 487.79 448.16 491.47H448.15Z" fill="#F3CD6C"/>
<path d="M50.0099 383.7C53.0917 383.7 55.5899 381.202 55.5899 378.12C55.5899 375.038 53.0917 372.54 50.0099 372.54C46.9282 372.54 44.4299 375.038 44.4299 378.12C44.4299 381.202 46.9282 383.7 50.0099 383.7Z" fill="#EB665F"/>
<path d="M665.947 560.467L663.686 591.715C663.426 595.306 666.126 598.429 669.718 598.688L670.127 598.718C673.718 598.978 676.84 596.277 677.1 592.686L679.362 561.438C679.622 557.846 676.921 554.724 673.33 554.464L672.921 554.434C669.33 554.174 666.207 556.875 665.947 560.467Z" fill="#EB665F"/>
<path d="M628.797 563.502C631.301 562.223 631.904 558.395 630.146 554.953C628.387 551.51 624.932 549.756 622.428 551.035C619.925 552.313 619.321 556.141 621.08 559.584C622.839 563.027 626.294 564.781 628.797 563.502Z" fill="#F3CD6C"/>
<path d="M450.866 513.626C451.016 509.414 446.695 505.842 441.214 505.647C435.733 505.452 431.169 508.708 431.019 512.919C430.869 517.13 435.19 520.702 440.671 520.897C446.151 521.093 450.716 517.837 450.866 513.626Z" fill="#6BBBB2"/>
<path d="M292 478.67C292.81 479.86 293.88 480.87 295.23 481.69C298.98 483.97 302.95 486.11 307.16 488.11C314.56 491.63 321.43 494.64 327.77 497.14C333.08 499.24 338.29 496.82 338.86 491.06C339.27 486.79 335.51 483.99 332.21 482.06C324.1 477.31 315.13 473.7 305.3 471.21C302.2 470.43 299.3 470.09 296.58 470.21C292.45 470.38 289.62 475.18 292 478.68V478.67Z" fill="#4A6CB7"/>
<path d="M552.67 544.33C550.31 549.43 556.54 550.66 560.01 550.13C562.83 549.7 564.74 546.97 563.06 544.32C561.97 542.62 557.34 542.32 555.75 542.34C554.3 542.36 553.28 543.02 552.68 544.32L552.67 544.33Z" fill="#EB665F"/>
<path d="M242.24 491.3C240.85 495.18 243.21 499 247.26 499.45C250.27 499.79 253.18 497.8 255.59 496.11C260.7 492.53 265.47 488.97 269.89 485.42C271.91 483.81 273.64 482.17 275.08 480.51C277.14 478.13 277.14 474.08 274.69 471.89C272.51 469.95 269.84 469.63 266.67 470.94C258.45 474.35 251.19 479.65 244.9 486.82C243.71 488.18 242.82 489.68 242.23 491.3H242.24Z" fill="#EB665F"/>
<path d="M585.59 589.88C587.3 593.04 590.79 596.3 594.41 593.49C597.1 591.41 596.32 588.53 594.96 585.85C591.36 578.71 588.34 570.9 585.9 562.42C585.01 559.3 581.55 557.13 578.58 558.88C576.21 560.28 575.39 562.62 576.11 565.89C577.72 573.22 580.88 581.22 585.59 589.89V589.88Z" fill="#F3CD6C"/>
<path d="M43.069 428.154C46.5569 427.654 48.8843 423.761 48.2674 419.458C47.6505 415.156 44.3228 412.074 40.8349 412.574C37.347 413.074 35.0197 416.967 35.6366 421.27C36.2535 425.572 39.5811 428.654 43.069 428.154Z" fill="#89C9C1"/>
<path d="M613.07 584.96C615.97 582.08 612.93 575.22 611.11 572.34C610.12 570.79 608.42 569.72 606.53 570.17C601.28 571.43 604.01 579.96 605.41 582.97C606.82 585.99 610.39 587.63 613.07 584.96Z" fill="#EB665F"/>
<path d="M430.24 543.04C431.28 541.13 430.5 538.76 429.65 536.88C427.99 533.23 426.28 529.6 424.52 526C421.59 519.98 413.25 523.36 415.12 529.47C415.42 530.45 415.76 531.41 416.16 532.36C417.73 536.05 419.49 539.5 421.45 542.71C422.51 544.45 423.73 545.43 425.1 545.62C427.41 545.96 429.12 545.1 430.24 543.03V543.04Z" fill="#EB665F"/>
<path d="M399.25 547.92C402.63 548.62 405.47 546.04 405.62 542.68C405.8 538.63 405.51 533.47 404.75 527.21C404.3 523.53 400.25 521.01 396.93 522.99C394.89 524.2 393.91 526.11 394 528.71C394.11 532.19 394.38 536.41 394.79 541.38C395.05 544.54 395.73 547.18 399.26 547.92H399.25Z" fill="#EB665F"/>
<path d="M269.14 515.24C270.58 515.24 272.05 514.87 273.53 514.13C277.86 511.99 282.22 509.56 286.61 506.83C287.87 506.05 288.9 505.15 289.71 504.14C291.92 501.36 291.14 497.13 288.2 495.21C286.49 494.09 284.58 493.86 282.47 494.53C277.29 496.16 266.16 501.63 263.7 507.52C262.11 511.34 265.16 515.26 269.14 515.25V515.24Z" fill="#EB665F"/>
<path d="M200.6 476.63C199.13 474.72 197.27 474.34 195.01 475.5C192.89 476.58 189.63 478.85 185.24 482.32C184.04 483.27 183.21 484.29 182.75 485.38C181.85 487.51 182.92 489.96 185.09 490.74C189.22 492.22 195.75 486.69 198.85 483.89C200.94 482.01 202.5 479.11 200.6 476.63Z" fill="#4A6CB7"/>
<path d="M302.31 531.1C304.6 530.33 306.64 529.37 308.44 528.24C311.07 526.58 312.27 523.1 310.95 520.27C309.47 517.11 306.76 516.06 302.8 517.13C296.22 518.9 289.98 520.96 284.07 523.31C280.81 524.61 276.54 526.87 275.71 530.59C274.73 535.02 278.89 537.55 282.87 536.67C288.5 535.42 294.98 533.56 302.31 531.1Z" fill="#EB665F"/>
<path d="M424.58 567.82C427.13 568.9 429.12 568.35 430.55 566.2C432.79 562.81 430.71 559.89 427.94 557.68C423.36 554.05 419.03 550.9 414.95 548.22C409.76 544.81 404.25 550.68 408.41 555.45C409.81 557.06 413.08 559.82 418.22 563.72C421.03 565.85 423.15 567.22 424.58 567.82Z" fill="#F3CD6C"/>
<path d="M607.03 623.72C609.01 622.22 608.53 619.32 607.97 617.22C607.13 614.05 606.17 611.38 605.08 609.21C602.43 603.92 595.72 606.17 596.92 612.14C597.57 615.37 601.26 628.09 607.02 623.73L607.03 623.72Z" fill="#F3CD6C"/>
<path d="M278.36 550.93C278.38 551.15 278.59 551.32 278.81 551.29C278.84 551.29 278.86 551.29 278.88 551.28C285.97 549.22 293.2 547.23 300.57 545.31C302.69 544.75 305.18 543.95 307.32 544.75C309.31 545.49 310.55 546.84 311.05 548.81C312.24 553.53 308.8 556.28 304.68 557.46C296.51 559.8 287.83 562.07 278.66 564.25C278.17 564.37 277.78 564.75 277.67 565.24L275.98 572.43C275.94 572.6 275.98 572.79 276.1 572.93C281.17 578.66 286.42 585.17 291.86 592.45C294.33 595.76 296.56 598.45 295.21 602.2C294.68 603.67 293.78 604.76 292.49 605.49C288.69 607.63 285.49 604.91 283.25 602.02C278.87 596.37 274.46 590.78 270.02 585.27C269.71 584.89 269.15 584.83 268.77 585.13C268.73 585.16 268.7 585.19 268.67 585.22C261.29 593.24 251.26 596.53 241.7 589.72C233.94 584.18 228.04 574.97 227.51 565.55C227.34 562.51 227.45 559.29 227.84 555.89C228.22 552.55 224.62 549.59 222.81 547.13C216.63 538.74 218.08 529.07 225.15 521.78C230.42 516.35 237.61 513.18 245.11 513.12C265.32 512.95 276.44 533.16 278.36 550.93ZM253.91 530.42C247.75 525.12 239.77 526.72 234.65 532.54C229.05 538.91 236.19 543.19 239.98 547.43C244.12 552.07 242.39 555.87 241.88 561.11C241.2 567.98 243.45 573.68 248.61 578.21C252.55 581.67 256.41 578.83 258.69 575.33C266.99 562.64 265.87 540.69 253.92 530.42H253.91Z" fill="#F3CD6C"/>
<path d="M572.34 603.8C569.86 605.35 569.41 608.21 570.59 610.81C573.01 616.12 574.99 620.19 576.55 623.03C578.13 625.92 581.56 627.52 584.53 625.43C589.18 622.15 583.47 611.38 581.21 607.52C579.29 604.26 576.21 601.38 572.34 603.79V603.8Z" fill="#EB665F"/>
<path d="M345.611 572.594C346.707 568.514 344.288 564.317 340.208 563.221C336.128 562.125 331.931 564.544 330.835 568.624C329.739 572.704 332.158 576.9 336.238 577.997C340.318 579.093 344.515 576.674 345.611 572.594Z" fill="#EB665F"/>
<path d="M365.9 596.49C363.92 592.2 360.18 589.24 355.42 588.9C348.68 588.42 340.23 591.68 337.28 598.13C331.35 611.09 352.45 626.67 363.4 616.92C369.33 611.64 369.13 603.44 365.91 596.49H365.9Z" fill="#F3CD6C"/>
<path d="M76.51 602.56C79.02 607.92 84.76 611.31 90.65 611.1C101.13 610.71 109.72 604.07 116.9 595.99C121.79 590.49 131.83 579.83 147.02 564.02C153.31 557.48 157.24 549.71 152.56 540.98C149.64 535.52 143.38 532.49 137.27 533.37C128.37 534.65 119.04 542.13 112.14 548.4C103 556.69 93.84 566.12 84.66 576.68C77.97 584.39 71.78 592.5 76.5 602.56H76.51Z" fill="#4A6CB7"/>
<path d="M493.94 646.6C492.92 647.5 492.07 648.53 491.38 649.7C486.21 658.48 481.62 667.06 477.62 675.42C476.15 678.51 476.63 680.92 479.08 682.65C481.31 684.23 484.19 683.3 485.76 681.16C486.51 680.13 487.14 679.1 487.63 678.09C491.52 670.15 495.74 661.64 500.28 652.55C501.18 650.76 501.25 649.15 500.48 647.72C499.21 645.33 495.96 644.83 493.94 646.61V646.6Z" fill="#EB665F"/>
<path d="M171.36 568.64C168.62 569.96 166.7 573.15 168.52 575.99C170.21 578.61 173.07 578.33 175.7 577.72C179.7 576.8 183.74 575.93 187.82 575.12C189.79 574.72 191.47 574.06 192.86 573.12C195.22 571.53 195.11 567.95 193.18 566C189.41 562.18 174.73 567.01 171.35 568.64H171.36Z" fill="#F3CD6C"/>
<path d="M515.22 666.98C516.99 662.15 511.43 658.19 508.12 662.33C506.52 664.33 504.93 667.32 503.33 671.3C501.3 676.36 506.85 680.45 510.34 676.19C512.14 674 513.76 670.92 515.22 666.98Z" fill="#F3CD6C"/>
<path d="M17.3377 537.626C19.3091 535.515 18.4334 531.493 15.3818 528.644C12.3301 525.794 8.2582 525.195 6.28681 527.306C4.31541 529.418 5.1911 533.439 8.24272 536.289C11.2943 539.138 15.3663 539.737 17.3377 537.626Z" fill="#89C9C1"/>
<path d="M258.31 616.88C259.4 619.77 261.33 621.03 264.09 620.69C267.52 620.26 269.22 618.13 269.19 614.3C269.17 612.38 268.23 607.87 266.35 600.79C265.78 598.64 264.32 596.58 262.03 596.04C258.45 595.17 255.43 597.87 255.35 601.44C255.29 604.19 255.83 606.74 256.33 609.42C256.86 612.3 257.52 614.79 258.31 616.9V616.88Z" fill="#EB665F"/>
<path d="M383.63 639.08C385.02 635.99 384.95 633.2 383.41 630.7C379.8 624.85 372.09 627.47 367.4 630.77C364.15 633.05 361.12 636.57 360.82 640.64C360.37 646.49 366 650.06 371.25 649.12C376.95 648.1 381.08 644.75 383.63 639.08Z" fill="#F3CD6C"/>
<path d="M56.1299 546.17C56.8799 543.54 55.1699 542 52.8999 541.21C50.3399 540.33 47.9199 539.39 45.6399 538.41C40.8899 536.37 37.4599 542.81 41.9199 545.66C44.5799 547.37 48.0599 548.35 51.0899 549.12C53.4999 549.74 55.4799 548.5 56.1299 546.16V546.17Z" fill="#F3CD6C"/>
<path d="M210.35 596.22C210.11 597.18 209.9 598.14 209.73 599.11C208.18 607.73 206.84 616.28 205.7 624.78C205.41 626.93 205.93 628.68 207.25 630.02C209.4 632.19 213 631.99 214.87 629.49C215.82 628.23 216.42 626.79 216.66 625.17C218.07 615.75 218.67 606.43 218.48 597.2C218.36 591.73 211.77 590.57 210.34 596.22H210.35Z" fill="#6BBBB2"/>
<path d="M524.118 687.343C528 687.257 531.097 684.919 531.035 682.119C530.974 679.32 527.777 677.12 523.896 677.205C520.014 677.29 516.917 679.629 516.979 682.428C517.04 685.228 520.237 687.428 524.118 687.343Z" fill="#F3CD6C"/>
<path d="M246.08 608.61C244.48 606.35 240.86 606.04 238.73 607.83C237.4 608.94 236.67 610.51 236.52 612.54C235.96 620.39 236.82 628.68 237.33 636.46C237.61 640.74 238.49 646.1 244.1 645.52C248.63 645.05 249.65 640.64 249.46 636.76C249.09 628.72 248.52 620.95 247.76 613.46C247.57 611.55 247 609.93 246.06 608.61H246.08Z" fill="#EB665F"/>
<path d="M183.48 602.855C186.404 601.974 187.982 598.628 187.004 595.381C186.026 592.134 182.863 590.216 179.939 591.097C177.014 591.977 175.436 595.323 176.414 598.57C177.392 601.817 180.555 603.736 183.48 602.855Z" fill="#EB665F"/>
<path d="M46.09 559.04C43.5 557.73 40.39 556.48 36.76 555.29C35.07 554.74 32.1 553.75 30.69 554.05C25.59 555.12 25.19 561.49 30.23 563.32C33.43 564.49 36.6 565.74 39.72 567.06C43.02 568.46 46.25 569.27 48.17 565.7C49.52 563.18 48.61 560.31 46.1 559.04H46.09Z" fill="#F3CD6C"/>
<path d="M332.84 650.8C335.81 646.5 337.73 639.94 332.55 636.52C328 633.51 318.8 634.36 313.77 635.5C307.2 636.98 299.9 641.82 300.69 649.15C301.58 657.45 310.44 661.27 317.92 660.5C324.05 659.86 329.36 655.84 332.84 650.81V650.8Z" fill="#EB665F"/>
<path d="M202.39 329.57C189.31 326.54 176.61 317.19 167.46 307.62C156.5 296.14 152.67 279.32 167.11 268.47C173.39 263.75 178.23 261.92 186.23 261.98C194.11 262.03 201.99 263.79 209.12 267.17C222.86 273.69 238.27 289.36 239.03 305.34C239.93 324.14 218.19 333.24 202.38 329.57H202.39ZM183.53 292.89C189.86 300.67 201.53 311.21 212.5 308.95C221.4 307.11 213.43 298.93 210.31 295.98C204.4 290.39 197.99 285.36 189.98 283.27C186.7 282.42 180.76 282.25 180.82 287.13C180.82 287.33 180.84 287.53 180.86 287.73C181.09 289.65 182.29 291.37 183.53 292.89Z" fill="#4A6CB7"/>
<path d="M532.3 705.44C534.2 709.36 541.83 716.29 546.08 711.24C551.06 705.32 540.16 696.38 534.59 698.99C532.17 700.11 531.16 703.08 532.3 705.44Z" fill="#6BBBB2"/>
<path d="M351.145 676.738C355.569 674.781 358.006 670.594 356.587 667.387C355.169 664.18 350.432 663.166 346.007 665.123C341.583 667.08 339.146 671.267 340.565 674.474C341.983 677.681 346.72 678.695 351.145 676.738Z" fill="#F3CD6C"/>
<path d="M488.93 793.29C465.53 791.14 448.32 770.21 450.5 746.53C452.67 722.86 473.4 705.41 496.8 707.55C520.2 709.7 537.41 730.63 535.23 754.31C533.06 777.98 512.33 795.44 488.93 793.29ZM489.5 770.31C500.24 772.25 510.55 764.92 512.54 753.93C514.53 742.95 507.43 732.47 496.69 730.53C485.95 728.59 475.64 735.92 473.65 746.91C471.66 757.89 478.76 768.37 489.5 770.31Z" fill="#4A6CB7"/>
<path d="M557.708 736.407C560.839 735.392 562.425 731.631 561.249 728.006C560.074 724.381 556.584 722.265 553.452 723.28C550.321 724.295 548.735 728.056 549.91 731.681C551.085 735.306 554.576 737.422 557.708 736.407Z" fill="#EB665F"/>
<path d="M341.2 905.39C341.27 903.1 342.41 901.04 342.53 898.79C342.62 897.19 342.17 895.39 342.02 893.79C341.61 889.22 340.86 884.69 339.7 880.25C337.44 871.57 333.81 863.13 328.59 855.81C323.78 849.06 316.92 842.72 310.46 837.35C301.17 829.61 292.2 822.01 285.32 812.57C281.6 807.46 281.72 802.14 283.85 796.54C286.2 790.35 289.12 784.23 292.6 778.16C297.01 770.48 301.12 763.14 304.92 756.14C311.9 743.3 318.42 728 317.77 713.22C317.18 699.62 309.48 687.64 298.18 680.17C289.39 674.37 278.82 671.34 268.48 673.21C250.31 676.48 242 693.5 238.71 709.79C237.12 717.69 235.7 724.91 234.45 731.45C232.47 741.8 229.11 751.64 224.39 760.99C220.69 768.32 213.04 779.94 203.12 772.67C197.76 768.74 194.77 761.45 193.33 754.7C191.39 745.65 190.65 736.39 191.11 726.93C191.37 721.51 191.83 714.8 192.49 706.81C193.87 690.06 192.53 666.63 169.46 666.45C166.02 666.42 162.45 666.45 158.75 666.56C147.49 666.86 139.51 670.86 135.24 682.27C133.5 686.93 131.79 691.68 130.13 696.5C126.45 707.18 121.77 716.5 116.1 724.47C114.74 726.38 113.19 728.02 111.45 729.38C102.96 736.04 91.23 723.06 86.8 716.96C81.45 709.6 75.39 700.64 68.63 690.08C66.96 687.47 65.59 684.83 64.53 682.15C62.81 677.78 62.42 670.94 66.5 668.09C71.41 664.67 77.29 671.55 79.88 675.44C86.45 685.32 94.82 700.55 108.17 701.89C122.06 703.28 129.94 683.12 131.8 672.06C132.74 666.46 133.59 660.88 134.36 655.33C135.03 650.46 136.9 645.81 140.99 643.48C144.65 641.4 148.79 640.53 153.42 640.89C162.53 641.59 167.58 647.48 172.91 654.47C174.14 656.07 175.54 657.06 177.13 657.44C181.4 658.44 185.28 655.24 185.9 651.06C187.1 642.97 178.93 634.85 172.65 630.98C163.08 625.09 153.02 624.03 142.45 627.82C131.01 631.92 124.59 642.17 122.75 654.25C121.58 661.94 121.07 669.8 118.88 677.45C118.01 680.5 116.66 683.2 114.85 685.54C111.95 689.29 107.81 689.16 104.64 685.93C103 684.25 101.57 682.41 100.34 680.41C93.52 669.34 88 656.44 75.12 651.31C64.68 647.15 55.98 651.28 50.53 660.65C42.48 674.48 46.85 687.78 55.3 700.04C59.75 706.49 64.19 712.83 68.62 719.05C76.87 730.66 89.04 744.17 103.65 747.13C113.1 749.04 120.13 743.8 125.57 736.62C132.32 727.71 137.15 717.39 140.04 705.64C141.41 700.09 142.71 694.35 143.94 688.4C145.35 681.65 146.99 675.7 154.89 674.58C164.15 673.27 176.03 674.42 178.01 685.5C178.41 687.76 178.59 690.07 178.54 692.42C178.32 701.64 178.12 710.99 177.93 720.48C177.67 733.38 178.59 745.56 180.67 757C181.89 763.68 183.92 769.89 186.76 775.64C192.22 786.71 203.3 795.75 215.94 790.86C222.74 788.24 228.67 781.01 232.28 774.63C237.82 764.84 241.92 753.59 244.57 740.88C245.87 734.64 247.18 727.99 248.48 720.94C249.87 713.41 251.63 705.37 255.44 699C259.05 692.96 266.96 690.71 273.84 690.61C284.56 690.46 293.91 696.85 299.64 705.6C306.49 716.09 304.98 725.78 300.37 736.62C293.85 751.94 284.3 767.01 277.43 781.7C272.62 791.99 269.12 803.69 270.67 814.86C271.82 823.23 276.74 830.74 282.91 836.39C292.14 844.86 303.72 851.58 313.03 859.62C327.93 872.5 326.84 890.73 326.17 908.6C326.04 912.21 326.15 914.83 326.51 916.48C329.82 931.63 348.8 931.96 359.2 924.13C367.4 917.95 370.27 908 369.47 898.11C368.9 891.09 368.62 883.97 367.72 876.95C363.72 845.7 350.22 815.68 329.26 792.13C327.85 790.55 326.32 788.93 324.3 788.27C320.64 787.07 316.49 789.67 315.09 793.27C313.69 796.86 314.58 801 316.45 804.37C318.32 807.74 321.07 810.51 323.67 813.35C342.55 833.98 354.83 860.56 358.29 888.31C359.16 895.25 359.31 902.89 355.21 908.56C352.66 912.08 347.48 914.43 343.96 911.87C343.94 911.85 343.91 911.84 343.89 911.82C341.97 910.38 341.14 907.81 341.21 905.4L341.2 905.39Z" fill="#EB665F"/>
<path d="M648.38 772.06C648.36 771.43 648.25 770.8 648.05 770.18C647.1 767.24 644.23 765.22 641.22 764.52C638.31 763.84 635.4 764.27 632.49 764.76C629.58 765.25 626.68 765.61 623.77 766C617.71 766.81 611.63 767.58 605.63 768.8C600.37 769.87 593.5 770.88 592.84 777.38C591.69 788.76 607.76 788.29 615.19 787.73C622.21 787.2 629.18 785.87 635.92 783.87C638.35 783.15 640.77 782.33 642.92 780.99C645.98 779.08 648.51 775.83 648.37 772.06H648.38Z" fill="#EB665F"/>
<path d="M23.5999 606.87C21.8299 606.68 19.9399 606.43 18.3799 607.28C15.5899 608.79 14.9399 612.34 17.0499 614.75C17.8199 615.63 18.6699 616.36 19.6199 616.93C23.2599 619.14 27.2999 620.94 31.7399 622.33C40.0399 624.94 43.3999 615.29 36.8999 611.14C33.3199 608.86 28.8899 607.43 23.5899 606.87H23.5999Z" fill="#EB665F"/>
<path d="M568.641 777.77C571.518 774.222 571.722 769.62 569.097 767.491C566.471 765.362 562.011 766.512 559.134 770.06C556.257 773.608 556.053 778.209 558.679 780.338C561.304 782.467 565.764 781.317 568.641 777.77Z" fill="#EB665F"/>
<path d="M640.63 804.54C640.33 804.15 639.99 803.79 639.62 803.45C634.79 799.05 627.68 801.61 622.16 802.94C617.91 803.96 613.68 805.08 609.48 806.3C608.56 806.57 607.64 806.84 606.73 807.11C604.27 807.85 601.9 808.87 599.64 810.15C595.67 812.4 593.05 816.83 594.15 821.33C595.37 826.27 600.22 828.8 604.85 828.14C608.71 827.59 612.79 827.03 616.54 825.98C620.71 824.81 624.88 823.65 629.06 822.48C631.31 821.85 633.58 821.22 635.69 820.21C639.25 818.51 642.19 815.63 642.63 811.54C642.9 809.07 642.17 806.48 640.64 804.53L640.63 804.54Z" fill="#4A6CB7"/>
<path d="M6.56994 662.74C8.09994 663.32 9.51994 663.24 10.8099 662.49C15.7799 659.63 13.2999 652.94 11.3799 648.71C10.0599 645.77 8.09994 643.33 4.58994 644.03C0.689938 644.8 -0.200063 648.59 0.439937 652.18C1.10994 655.93 2.77994 661.3 6.56994 662.75V662.74Z" fill="#F3CD6C"/>
<path d="M555.19 816.55C554.38 809.78 549.39 793.23 541.45 790.8C538.55 789.92 535.23 792.13 536.57 795.44C539.21 801.99 541.69 809.17 544.02 816.98C545.18 820.85 548.42 825.29 552.78 822.31C554.69 821.01 555.5 819.09 555.19 816.54V816.55Z" fill="#F3CD6C"/>
<path d="M344.44 777.418C347.364 776.804 349.132 773.437 348.389 769.896C347.645 766.356 344.672 763.984 341.748 764.598C338.824 765.212 337.056 768.58 337.8 772.12C338.543 775.66 341.516 778.032 344.44 777.418Z" fill="#4A6CB7"/>
<path d="M569.143 837.088C571.208 834.748 570.536 830.781 567.642 828.226C564.748 825.671 560.728 825.496 558.663 827.835C556.598 830.174 557.269 834.142 560.163 836.697C563.057 839.252 567.078 839.427 569.143 837.088Z" fill="#4A6CB7"/>
<path d="M532.077 834.784C536.31 833.354 538.835 829.51 537.717 826.198C536.598 822.886 532.26 821.359 528.027 822.789C523.793 824.219 521.269 828.062 522.387 831.375C523.506 834.687 527.844 836.213 532.077 834.784Z" fill="#EB665F"/>
<path d="M7.44988 701.76C12.1899 711.55 16.7199 721.33 21.0499 731.1C22.3299 734.02 24.5699 736.66 28.0899 736.2C31.7199 735.72 34.0599 732.06 33.1099 728.59C32.3799 725.95 31.2699 723.12 29.7799 720.11C26.0999 712.67 21.6399 704.52 16.3799 695.64C14.4199 692.33 11.2399 687.81 7.17988 690.77C3.55988 693.41 5.90988 698.55 7.46988 701.76H7.44988Z" fill="#4A6CB7"/>
<path d="M360.576 796.576C362.614 795.087 362.631 791.642 360.614 788.882C358.597 786.122 355.309 785.091 353.272 786.581C351.234 788.07 351.217 791.515 353.234 794.275C355.252 797.035 358.539 798.065 360.576 796.576Z" fill="#F3CD6C"/>
<path d="M640.34 851.71C637.71 847.7 633.99 846.47 629.39 846.92C624.89 847.36 620.57 849.09 616.7 851.37C605.34 858.08 594.5 871.29 596.66 885.24C597.31 889.44 599.45 893.49 602.91 895.95C609.25 900.46 616.99 897.76 621.12 891.73C626.04 884.53 630.89 878.22 635.67 872.79C640.58 867.21 645.09 858.97 640.33 851.71H640.34Z" fill="#F3CD6C"/>
<path d="M388.33 812.86C391.47 813.18 395.17 812.97 396.98 810.03C398.9 806.94 396.94 803.33 393.56 802.54C392.32 802.25 391.05 802.07 389.73 802.01C386.29 801.83 382.69 801.74 378.94 801.74C376.86 801.74 375.42 802.62 374.6 804.39C371.59 810.93 384.77 812.5 388.32 812.87L388.33 812.86Z" fill="#EB665F"/>
<path d="M423.1 819.98C418.39 823.66 418.32 829.34 420.39 834.73C422.24 839.58 424.11 844.59 426 849.77C427.95 855.12 431.07 860.3 437.08 861.15C440.45 861.62 443.41 860.67 445.98 858.3C449.69 854.87 449.91 850.11 448.55 845.51C446.08 837.12 439.34 817.88 428.93 817.99C426.71 818.02 424.76 818.68 423.09 819.98H423.1Z" fill="#EB665F"/>
<path d="M-14.0601 712.89C-10.1201 719.62 -6.75013 725.97 -3.94013 731.93C-2.51013 734.97 0.82987 736.25 3.50987 733.73C5.23987 732.09 4.89987 729.28 4.11987 727.3C1.38987 720.32 -2.32013 713.77 -7.00013 707.66C-10.8301 702.64 -17.4001 707.19 -14.0601 712.89Z" fill="#4A6CB7"/>
<path d="M329.95 374.56C334.69 384.35 339.22 394.13 343.55 403.9C344.83 406.82 347.07 409.46 350.59 409C354.22 408.52 356.56 404.86 355.61 401.39C354.88 398.75 353.77 395.92 352.28 392.91C348.6 385.47 344.14 377.32 338.88 368.44C336.92 365.13 333.74 360.61 329.68 363.57C326.06 366.21 328.41 371.35 329.97 374.56H329.95Z" fill="#6BBBB2"/>
<path d="M308.44 385.69C312.38 392.42 315.75 398.77 318.56 404.73C319.99 407.77 323.33 409.05 326.01 406.53C327.74 404.89 327.4 402.08 326.62 400.1C323.89 393.12 320.18 386.57 315.5 380.46C311.67 375.44 305.1 379.99 308.44 385.69Z" fill="#4A6CB7"/>
<path d="M149.33 772.36C153.533 772.36 156.94 768.953 156.94 764.75C156.94 760.547 153.533 757.14 149.33 757.14C145.127 757.14 141.72 760.547 141.72 764.75C141.72 768.953 145.127 772.36 149.33 772.36Z" fill="#6BBBB2"/>
<path d="M397.052 837.45C399.715 836.108 400.586 832.464 398.997 829.313C397.408 826.162 393.961 824.696 391.298 826.039C388.635 827.382 387.764 831.025 389.353 834.176C390.942 837.327 394.389 838.793 397.052 837.45Z" fill="#F3CD6C"/>
<path d="M482.63 924.65C506.89 921.68 530.37 914.7 551.74 902C555.79 899.59 559.83 896.93 562.62 893.13C572.75 879.31 558.38 868.75 545.96 866.1C537.36 864.27 528.43 865.21 519.75 866.58C493.73 870.71 433.81 877.08 420.04 903.57C407.9 926.92 444.47 926.6 458.1 926.33C466.33 926.17 474.53 925.62 482.64 924.63L482.63 924.65Z" fill="#6BBBB2"/>
<path d="M83 775.47C86.91 780.58 93.88 775.2 90.35 769.63C88.35 766.47 85.73 763.75 82.97 761.15C81.97 760.22 80.89 759.58 79.72 759.23C75.55 757.99 72.35 763.13 75.09 766.59C75.55 767.17 76.04 767.71 76.55 768.2C78.83 770.39 80.98 772.81 83.01 775.46L83 775.47Z" fill="#EB665F"/>
<path d="M109.64 801.08C111.39 798.2 112.97 795.04 114.37 791.61C115.45 788.96 115.63 785.66 112.46 784.42C109.46 783.25 107.89 785.43 106.78 787.86C105.61 790.41 104.26 793.21 102.74 796.28C101.52 798.73 100.95 801.09 103.34 802.82C105.58 804.46 108.33 803.23 109.64 801.08Z" fill="#F3CD6C"/>
<path d="M53.3999 775.88C51.8599 778.84 54.5199 782.38 56.4199 784.65C58.7799 787.48 61.1099 790.13 63.4099 792.61C65.7699 795.16 69.0199 797.17 72.2499 794.83C77.4499 791.06 72.7799 785.4 69.8899 782.32C67.4899 779.76 65.1599 777.35 62.8999 775.09C59.8899 772.08 55.5699 771.7 53.3999 775.88Z" fill="#F3CD6C"/>
<path d="M402.033 874.547C404.035 871.31 403.469 867.333 400.768 865.662C398.067 863.992 394.255 865.261 392.253 868.497C390.251 871.733 390.818 875.711 393.519 877.381C396.219 879.052 400.032 877.783 402.033 874.547Z" fill="#F3CD6C"/>
<path d="M115.95 818.73C114.82 821.47 115.42 823.44 117.75 824.64C122.21 826.94 124.24 822.09 125.29 818.65C127.41 811.67 128.48 805.73 128.53 800.82C128.58 794.8 120.95 794.61 120.34 800.74C119.7 807.22 118.24 813.22 115.96 818.74L115.95 818.73Z" fill="#EB665F"/>
<path d="M146.04 814.53C146.17 812.61 145.97 810.94 145.42 809.53C144.24 806.48 140.22 805.58 138.08 808.12C137.18 809.17 136.64 810.46 136.45 811.97C135.42 820.05 133.7 827.94 131.28 835.64C128.9 843.21 139.04 846.3 141.88 838.42C144.51 831.15 145.49 822.6 146.05 814.54L146.04 814.53Z" fill="#4A6CB7"/>
<path d="M159.03 929.51C147.24 937.85 139.7 948.62 136.4 961.82C135.01 967.37 134.06 972.69 133.56 977.78C131.72 996.51 131.9 1016.69 130.34 1035.52C129.76 1042.51 128.55 1049.45 126.7 1056.32C122.84 1070.67 114.88 1082.33 102.21 1090.46C98.52 1092.83 94.78 1095.1 91 1097.27C87.28 1099.41 84.93 1103.68 87.65 1107.51C89.75 1110.46 93.88 1110.3 96.99 1109.34C102.99 1107.47 108.49 1104.04 113.5 1099.04C126.83 1085.74 135.98 1067.37 139.73 1048.92C141.65 1039.44 142.9 1030.92 143.47 1023.37C144.59 1008.42 145.65 994.81 146.63 982.54C147.11 976.58 148 971.08 149.28 966.04C152.66 952.85 163.05 943.46 175.79 939.08C181.95 936.96 187.86 938.11 193.49 942.52C195.26 943.91 196.91 945.36 198.45 946.9C210.35 958.69 221.31 966.77 238.77 965.78C254.46 964.89 270.82 955.87 279.21 942.47C286.05 931.53 288.07 917.7 284.65 905.27C279.94 888.16 266.13 875.32 252.93 863.45C243.58 855.03 234.22 846.62 224.87 838.2C222.58 836.14 220.23 834.04 217.37 832.91C214.51 831.78 210.99 831.8 208.62 833.77C205.59 836.29 205.52 841.14 207.36 844.63C209.2 848.12 212.48 850.57 215.63 852.96C228.37 862.65 240.51 873.15 251.93 884.36C261.4 893.65 273.78 903.33 274.22 917.71C274.37 922.68 272.04 927.48 268.8 931.25C265.55 935.02 261.43 937.91 257.33 940.73C247.88 947.22 235.87 953.99 224.43 948.2C208.53 940.14 203 920.1 182.33 920.89C173.85 921.21 165.88 924.64 159.01 929.51H159.03Z" fill="#6BBBB2"/>
<path d="M78.04 844.98C71.59 822.25 55.53 799.38 32.04 792.31C20.3 788.78 7.42996 789.23 -4.08003 793.43C-21.7 799.87 -32.82 818.27 -45.78 830.75C-50.51 835.31 -58.23 837.28 -62.6 831.28C-64.25 829.02 -65.13 826.31 -65.98 823.65C-73.1 801.53 -78.48 777.67 -89.57 757.26C-103.1 732.38 -139.76 726.97 -164.06 736.81C-168.34 738.54 -173.92 740.78 -177.27 744.07C-180.34 747.09 -182.59 752.3 -184.03 756.31C-187.68 766.51 -181.73 782.3 -179.88 792.53C-178.91 800.95 -176.83 809.4 -175.32 817.75C-173.92 825.52 -173.77 832.87 -167.2 838.15C-160.11 843.85 -150.79 847.19 -141.66 846.28C-136.34 845.75 -130.8 843.51 -129.85 837.62C-128.87 831.58 -132.24 825.64 -133.67 819.95C-135.99 810.69 -138.16 801.37 -139.41 791.89C-139.75 789.32 -139.81 786.99 -139.58 784.9C-139.24 781.77 -137.32 779.5 -134.04 780.33C-130.76 781.16 -128.57 785.74 -126.8 788.4C-122.76 794.45 -119.38 800.21 -117.1 807.08C-114.54 814.8 -112.2 822.59 -110.09 830.45C-106.54 843.65 -103.7 856.12 -102.36 869.6C-101.19 881.43 -94.65 892.74 -84.7 899.31C-69.98 909.02 -52.95 906.81 -39.12 897.49C-30.86 891.92 -23.55 885.1 -16.5 878.1C-10.42 872.06 -4.33002 863.71 2.92998 859.19C7.24998 856.5 12.99 855.48 17.44 857.96C22.37 860.71 24.39 867.03 23.72 872.64C21.68 889.66 5.87997 902.78 8.48997 921.02C10.53 935.26 24.78 949.38 39.19 950.91C47.19 951.76 53.71 948.12 58.98 942.4C81.37 918.11 86.74 875.71 78.02 844.97L78.04 844.98ZM49.88 922.29C48.02 925.31 45.66 928.08 42.33 929.07C31.7 932.25 25.96 918.28 28.93 910.16C30.39 906.17 32.94 902.69 34.93 898.94C42.74 884.22 41.53 863.53 30.02 850.97C19.28 839.25 4.61996 836.92 -8.70003 845.42C-16.42 850.34 -22.49 857.38 -28.73 864.08C-33.94 869.67 -39.36 874.65 -45.79 878.79C-51.94 882.74 -57.25 887.67 -65.25 886.93C-72.06 886.3 -77.82 881.22 -81.09 875.21C-84.54 868.89 -85.4 861.66 -87.35 854.89C-89.45 847.59 -91.24 840.22 -93.93 833.1C-98.48 821.06 -103.7 809.23 -110.13 798.07C-113.29 792.58 -116.64 786.8 -120.73 781.95C-124.39 777.6 -127.43 772.27 -132.06 768.81C-136.08 765.8 -141.66 764.36 -146.2 766.5C-149.8 768.2 -152.16 771.86 -153.17 775.71C-154.18 779.56 -154 783.6 -153.7 787.57C-152.95 797.19 -151.45 806.74 -149.21 816.12C-148.76 818.01 -148.27 819.94 -148.48 821.88C-148.69 823.81 -149.74 825.79 -151.55 826.51C-153.71 827.37 -156.24 826.16 -157.64 824.31C-159.04 822.46 -159.57 820.11 -160.06 817.84C-161.27 812.23 -161.99 806.59 -163.01 801.03C-165.64 786.68 -174.42 772.24 -162.8 759.19C-156.05 751.6 -147.11 750.61 -137.66 751.7C-126.95 752.94 -116.08 754.34 -108.05 762.4C-99.8 770.68 -97.65 783.01 -94.69 794.31C-91.72 805.66 -87.55 816.69 -82.28 827.17C-77.22 837.24 -71.67 847.75 -60.57 852.08C-44.75 858.26 -30.92 843.86 -21.89 833C-16.53 826.55 -11.1 819.75 -4.44003 814.59C13.21 800.91 35.34 810.5 47.94 825.8C53.02 831.98 56.88 838.94 59.51 846.68C67.79 871.03 63.18 897.82 51.16 920.1C50.76 920.84 50.34 921.58 49.89 922.31L49.88 922.29Z" fill="#F3CD6C"/>
<path d="M254.582 230.552C255.161 228.328 253.508 225.973 250.889 225.291C248.27 224.609 245.678 225.858 245.098 228.082C244.519 230.305 246.173 232.66 248.792 233.342C251.41 234.024 254.003 232.775 254.582 230.552Z" fill="#4A6CB7"/>
<path d="M391.09 905.905C393.918 903.253 394.438 899.212 392.25 896.879C390.063 894.547 385.997 894.806 383.169 897.458C380.341 900.11 379.822 904.151 382.009 906.483C384.196 908.816 388.262 908.557 391.09 905.905Z" fill="#6BBBB2"/>
<path d="M140.785 259.862C144.489 258.989 146.901 255.776 146.173 252.685C145.444 249.594 141.851 247.796 138.147 248.668C134.444 249.541 132.032 252.755 132.76 255.845C133.488 258.936 137.081 260.735 140.785 259.862Z" fill="#F3CD6C"/>
<path d="M118.033 268.714C118.135 265.518 115.077 262.826 111.202 262.702C107.327 262.577 104.103 265.067 104 268.263C103.897 271.459 106.955 274.151 110.83 274.276C114.705 274.4 117.93 271.91 118.033 268.714Z" fill="#89C9C1"/>
<path d="M112.457 857.61C113.497 853.738 111.202 849.756 107.329 848.715C103.457 847.675 99.4747 849.97 98.4342 853.842C97.3938 857.715 99.6894 861.697 103.562 862.738C107.434 863.778 111.416 861.483 112.457 857.61Z" fill="#4A6CB7"/>
<path d="M98.8198 936.63C97.5398 940.76 102.03 942.81 105 944.17C106.96 945.06 109.3 943.96 110.51 942.44C116.97 934.36 124.17 926.83 132.11 919.85C143.44 909.9 156.05 901.11 168.35 892.05C171.08 890.04 173.49 887.93 175.57 885.74C179.77 881.32 179.69 874.84 176.08 870.08C173.85 867.16 170.04 866.67 167.15 868.88C159.12 875 151.1 881.14 143.11 887.28C126.7 899.89 112.01 914.27 101.36 931.24C100.2 933.09 99.3498 934.88 98.8098 936.62L98.8198 936.63Z" fill="#F3CD6C"/>
<path d="M199.13 883.2C199.92 883.91 200.77 884.41 201.68 884.72C204.06 885.54 206.73 886.4 209.69 887.3C211.74 887.92 214.08 887.2 214.76 885.12C216.51 879.78 203.76 875.26 200.06 877.15C197.82 878.3 197.15 881.41 199.14 883.2H199.13Z" fill="#EB665F"/>
<path d="M208.39 899.3C206.6 897.72 204.7 896.59 202.72 895.93C199.25 894.77 195.65 898.03 197.12 901.54C198.47 904.76 204.93 909.39 208.35 906.79C210.95 904.81 210.76 901.38 208.39 899.3Z" fill="#4A6CB7"/>
<path d="M442.46 230.73C445.284 230.275 447.071 226.789 446.452 222.945C445.832 219.101 443.04 216.354 440.215 216.81C437.391 217.265 435.604 220.751 436.224 224.595C436.843 228.439 439.636 231.186 442.46 230.73Z" fill="#F3CD6C"/>
<path d="M177.54 199.62C178.21 202.54 181.31 204.42 184.21 203.38C188.24 201.94 189.56 194.89 190.09 191.24C191 185.06 184.05 182.39 180.75 187.76C178.89 190.79 176.7 195.98 177.53 199.61L177.54 199.62Z" fill="#89C9C1"/>
<path d="M420.5 187.36C417.64 193.72 415.03 200.05 412.65 206.36C411.16 210.32 412.61 214.71 417.4 214.78C420.89 214.83 422.48 211.55 423.55 208.68C425.76 202.78 427.8 196.82 429.68 190.8C430.46 188.29 431.05 185.85 431.45 183.47C432.26 178.61 427.21 175.94 424.3 180.35C422.91 182.48 421.64 184.81 420.49 187.36H420.5Z" fill="#4A6CB7"/>
<path d="M765.8 251.76C764.86 248.71 763.45 245.77 762.03 242.9C756.54 231.76 750.69 220.64 742.51 211.31C734.32 201.98 723.49 194.47 711.24 192.47C694.07 189.66 676.6 198.11 664.3 210.41C644.29 230.43 630.6 259.7 628.31 287.84C627.7 295.34 627.58 302.03 627.94 307.92C628.32 314.19 628.74 321.09 629.2 328.63C629.48 333.22 629.37 337.2 628.87 340.54C627.69 348.6 624.58 353.55 616.75 356.34C611.71 358.13 606.48 359.6 601.07 360.74C591.98 362.66 582.14 364.78 571.55 367.11C559.96 369.65 550.32 372.65 542.6 376.11C530.2 381.68 521.17 391.07 518.75 404.56C516.67 416.16 520.19 428.07 525.04 438.64C535.15 460.69 546.94 490.34 526.61 510.45C521.2 515.8 514.24 519.67 507.26 522.55C501.26 525.02 494.99 527.64 488.44 530.43C475.39 535.98 464.35 544.54 459.31 558.46C455.33 569.46 455.1 580.79 458.62 592.45C462.91 606.68 469.14 618.82 461.62 633.53C459.2 638.27 456.74 642.4 454.26 645.92C447 656.21 439.62 666.78 432.13 677.61C428.07 683.48 424.18 689.82 420.44 696.64C414.36 707.77 409.53 719.37 409 731.62C408.84 735.38 408.84 739.23 409.03 743.17C409.35 749.96 408.33 757.12 402.04 760.77C397.82 763.22 393.16 763.02 389.09 760.22C384.64 757.16 382.02 752.8 381.23 747.15C379.62 735.72 379.35 726.44 380.42 719.29C380.85 716.41 382.38 712.37 383.9 709.46C391.71 694.6 402.8 681.43 412.98 667.78C424.7 652.09 433.34 634.2 429.82 614.76C425.23 589.35 407.87 568.57 392.07 549.07C384.86 540.17 380.07 529.27 388.43 519.3C392.15 514.86 396.69 512.13 401.7 509.44C409.98 504.98 407.5 497.11 404.45 490.37C398.14 476.39 388.37 458.98 397.01 444.09C400.05 438.85 404.18 434.29 407.01 428.93C411.06 421.29 412.14 412.18 410.26 403.76C409.43 400.04 407.57 396.73 407.11 392.99C406.47 387.78 405.87 382.55 405.04 377.36C401.49 355.07 400.8 331.37 408.96 310.71C414.29 297.21 423.77 287.17 437.41 280.6C448.79 275.12 460.75 271.76 472.57 267.5C484.53 263.19 494.83 257.31 503.21 247.84C509.62 240.59 515.3 232.56 520.71 225C522.31 222.76 524.12 220.99 526.15 219.69C531.56 216.22 537.46 218.44 540.99 223.45C548.02 233.43 544.15 248.13 538.68 258.14C530.52 273.13 517.9 283.1 502.15 288.87C492.72 292.32 483.03 294.99 473.47 298.06C460.59 302.19 448.58 308.62 443.3 321.28C441.75 324.98 440.55 329.39 439.71 334.49C436.32 354.9 433.44 375.43 430.59 395.66C430.17 398.59 430.58 401.15 431.8 403.32C434.01 407.25 438.58 409.64 443.06 408.89C448.44 407.97 451.6 404.53 452.54 398.56C454.47 386.15 457.45 366.55 461.47 339.78C461.8 337.63 462.2 335.38 462.67 333.03C464.61 323.39 473.28 319.91 481.58 317.33C493.48 313.62 506.29 310.26 517.24 305.15C539.62 294.69 554.83 277.61 562.88 253.9C565.73 245.5 566.53 237.07 565.29 228.63C561.12 200.4 529.99 186.22 508.14 207.55C505.38 210.25 502.74 213.27 500.25 216.59C497.07 220.83 493.69 225.27 490.1 229.92C483.49 238.48 475.03 244.57 464.71 248.18C444.31 255.31 424.65 261.03 408.98 275.24C382.19 299.53 377.88 338.08 382.8 372.33C384.82 386.43 387.86 398.88 391.44 412.57C392.03 414.83 392.22 418.01 390.47 419.7C381.1 428.77 373.34 440.26 371.27 453.36C369.08 467.21 374.48 480.54 380.87 492.56C382.05 494.77 382.86 497.37 380.96 499.11C379.44 500.5 377.86 501.99 376.22 503.57C360.87 518.35 358.65 540.22 370.23 557.78C372.73 561.57 374.59 564.17 375.79 565.58C382.99 573.97 388.51 580.5 392.35 585.16C398.85 593.06 404.47 601.55 407.69 611C411.26 621.45 410.25 631.94 404.67 642.49C402.3 646.97 399.68 651.17 396.81 655.09C387.15 668.3 376.47 681.32 368.88 695.12C363.62 704.67 360.43 714.27 359.2 725.19C358.26 733.56 358.32 741.82 359.38 749.98C361.83 768.83 379 785.17 398.55 783.76C413.55 782.68 423.61 774.2 428.64 760.53C431.72 752.16 433.09 743.29 434.8 734.4C435.96 728.33 437.8 721.34 440.3 713.43C444.8 699.22 451.21 685.84 459.55 673.29C463.76 666.94 468.3 660.31 473.16 653.4C477.28 647.54 479.92 641.56 481.08 635.44C482.77 626.48 482.89 617.45 481.43 608.35C480.46 602.3 479.39 596.24 478.22 590.17C477.2 584.85 476.8 579.53 477.03 574.23C477.39 565.61 481.6 560.31 488.84 556.23C495.06 552.72 501.47 549.11 508.07 545.42C528.87 533.78 550.35 517.8 556.52 493.39C558.35 486.15 558.49 478.45 557.78 471.05C556.15 454.02 549.84 438.67 543.54 422.47C539.9 413.07 537.47 402.65 548.93 397.17C552.74 395.35 556.86 393.81 561.28 392.57C576.96 388.15 593.59 385.12 609.49 381.45C614.11 380.39 618.6 379.02 622.97 377.36C634.5 372.97 641.96 364.69 645.36 352.5C647.25 345.74 648.2 338.89 648.23 331.97C648.27 320.55 647.25 308.58 648.07 296.7C649.89 270.29 658.82 243.32 678.86 225.03C695.87 209.5 726.12 211.13 733.66 235.94C736.2 244.3 736.28 253.46 740.27 261.24C744.25 269.02 754.66 274.74 761.76 269.64C765.71 266.8 767.24 261.48 766.76 256.63C766.6 254.98 766.24 253.37 765.76 251.79L765.8 251.76Z" fill="#89C9C1"/>
<path d="M161.97 159.8C157.96 157.75 152.66 157.74 152.2 163.47C151.79 168.57 162.8 174.9 167.03 177.14C169.8 178.61 173.65 179.24 175.79 176.51C179.7 171.51 172.9 166.55 168.95 163.91C166.65 162.37 164.32 161 161.97 159.8Z" fill="#EB665F"/>
<path d="M139.12 183.83C138.38 185.71 139.32 187.84 140.41 189.41C142.56 192.53 144.85 195.31 147.25 197.74C149.98 200.5 152.71 200.96 155.44 199.12C158.4 197.12 157.11 192.53 155.58 189.89C153.84 186.87 151.29 184.42 147.92 182.53C144.93 180.86 140.74 179.76 139.12 183.84V183.83Z" fill="#4A6CB7"/>
<path d="M620.021 926.278C622.817 924.359 623.7 920.788 621.994 918.302C620.288 915.816 616.638 915.356 613.842 917.274C611.046 919.193 610.162 922.764 611.869 925.25C613.575 927.737 617.225 928.197 620.021 926.278Z" fill="#6BBBB2"/>
<path d="M580.069 920.327C582.911 918.348 583.776 914.679 582.002 912.132C580.228 909.585 576.486 909.125 573.645 911.104C570.803 913.084 569.938 916.753 571.712 919.3C573.486 921.847 577.228 922.307 580.069 920.327Z" fill="#6BBBB2"/>
<path d="M446.95 170.02C446.4 171.53 446.19 172.98 446.31 174.36C446.54 177.08 449.36 179.44 452.09 178.68C453.91 178.17 455.22 176.9 456.03 174.86C459.06 167.19 462.1 158.41 465.15 148.5C466.77 143.25 461.21 140.84 458.32 145.3C453.46 152.8 450.04 161.44 446.95 170.02Z" fill="#89C9C1"/>
<path d="M125.82 217.73C126.86 221.44 129.89 224.13 133.91 222.67C137.02 221.55 137.92 218.24 137.69 215.16C137.31 210.23 135.47 195.34 127.42 197.51C122.55 198.82 123.55 206.17 124.16 210.03C124.6 212.79 125.15 215.35 125.81 217.72L125.82 217.73Z" fill="#EB665F"/>
<path d="M438.39 132.76C434.96 139.25 431.71 146.14 428.65 153.46C427.48 156.23 427.37 159.79 430.57 161.06C432.97 162.02 435.27 160.53 436.43 158.49C441.8 149.06 446.35 140.22 452.58 130.37C456.99 123.4 448.72 117.71 444.01 123.88C442.03 126.48 440.16 129.44 438.4 132.76H438.39Z" fill="#EB665F"/>
<path d="M602.7 957.15C606.908 957.15 610.32 953.739 610.32 949.53C610.32 945.322 606.908 941.91 602.7 941.91C598.492 941.91 595.08 945.322 595.08 949.53C595.08 953.739 598.492 957.15 602.7 957.15Z" fill="#EB665F"/>
<path d="M28.01 125.09C25.85 125.06 23.67 125.41 21.49 126.14C15 128.32 12.12 135.35 15.32 141.32C17.26 144.94 20.49 146.92 25.02 147.26C30.22 147.64 35.62 147.7 41.21 147.43C63.3 146.34 83.53 142.88 105.21 138.59C109.66 137.71 113 136.81 115.24 135.9C125.54 131.69 124 116.41 112.57 115.13C110.35 114.88 108.12 114.99 105.87 115.47C93.01 118.21 80.93 120.47 69.61 122.27C56.49 124.36 42.62 125.3 28.01 125.1V125.09Z" fill="#EB665F"/>
<path d="M34.26 277.07C34.86 279.37 35.78 281.1 37.04 282.28C38.86 283.99 41.51 283.26 42.19 280.85C42.42 280.03 42.56 279.35 42.6 278.8C43.13 271.76 42.57 264.78 40.92 257.86C38.84 249.16 29.01 251.21 30.59 260.07C31.7 266.27 32.93 271.94 34.26 277.08V277.07Z" fill="#F3CD6C"/>
<path d="M57.2501 285.07C59.2701 285.81 60.9601 285.37 62.3301 283.76C64.9101 280.73 62.8301 272.33 61.6601 269.13C60.0101 264.66 53.9401 265.04 53.5101 270.02C53.2301 273.39 53.9201 277.38 54.3901 280.68C54.6401 282.42 55.4201 284.41 57.2501 285.07Z" fill="#F3CD6C"/>
<path d="M746.83 654.3C748.22 627.99 749.26 601.66 750.28 575.33C750.79 562.14 751.01 548.91 751.82 535.74C752.51 524.5 752.12 513.27 753.34 501.95C754.36 492.52 755.33 482.88 753.21 473.63C751.82 467.54 748.9 461.59 744.38 457.21C739.76 452.72 732.91 451.45 729.87 445.3C725.44 436.34 732.98 426.49 738.48 418.14C753.92 394.7 754.44 362.29 739.77 338.37C732.65 326.76 720.8 316.59 707.18 316.96C697.93 317.21 689.34 322.37 683.06 329.18C676.78 335.99 672.49 344.34 668.44 352.67C660.22 369.59 652.7 386.84 645.68 404.29C636.04 428.22 627.73 452.65 618.96 476.91C615.39 486.78 611.75 496.63 607.9 506.4C606.29 510.51 604.94 514.23 602.53 517.82C600.05 521.51 598.51 525.71 600 530.15C601.75 535.37 607.99 538.88 613.13 536.93C618.13 535.04 620.44 529.4 622.19 524.35C631.59 500.1 639.32 475.05 647.86 450.48C651.86 438.97 654.76 425.56 660.72 414.97C666.7 404.33 670.88 392.4 675.96 381.24C677.36 378.16 678.78 375.08 680.22 372.02C683.8 364.36 687.57 356.61 693.48 350.56C699.38 344.51 707.87 340.37 716.21 341.72C727.56 343.56 735.33 355.22 736.18 366.69C737.03 378.16 732.46 389.31 727.17 399.52C721.88 409.73 715.69 419.67 712.87 430.81C710.64 439.61 710.27 453.51 716.67 460.92C719.91 464.67 725.49 466.81 729.23 470.19C733.23 473.8 736.64 478.12 738.24 483.34C740.59 491.02 738.68 499.02 737.46 506.71C736.1 515.27 736.81 523.74 736.27 532.36C731.97 568.57 730.62 606.41 729.99 642.87C729.7 659.36 729.29 675.99 718.7 689.24C708.3 702.26 693.07 711.08 677.24 715.76C664.02 719.67 650.23 721.04 636.49 721.4C616.65 721.93 590.82 723.74 585 698.89C583.35 691.84 584.35 684.49 584.77 677.27C585.58 663.31 580.94 651.48 569.87 642.61C558.3 633.34 543.85 632.38 531.38 625.23C524.99 621.57 519.46 615.79 517.79 608.62C516.12 601.45 519.19 592.98 525.88 589.89C531.47 587.31 537.96 588.82 544.11 588.97C550.26 589.12 557.64 586.76 559 580.76C560.59 573.74 552.66 568.2 545.56 567.01C528.96 564.23 511.09 574.26 504.82 589.88C498.55 605.5 504.52 625.1 518.43 634.57C526.64 640.16 536.67 642.23 545.99 645.66C555.12 649.02 565.08 654.72 568.29 664.4C571.69 674.66 567.9 686.55 569.1 697.12C574.89 747.93 653.29 742.2 687.38 729.95C702.28 724.59 716.29 716.6 728.22 706.16C742.2 693.91 745.9 672.15 746.84 654.33L746.83 654.3Z" fill="#F3CD6C"/>
<path d="M130.24 163.9C140.64 159.34 138.79 144.33 126.78 143.98C125.05 143.93 123.31 144.09 121.57 144.46C95.1099 150.14 68.6199 155.52 42.0799 160.61C36.0899 161.76 27.8699 163.6 25.3999 169.92C24.0899 173.29 24.7199 177.36 27.1999 180.01C30.2599 183.28 34.1199 184.32 38.7699 183.14C47.5299 180.92 56.2599 178.8 64.9599 176.76C81.9799 172.78 100.96 169.91 119.59 166.92C123.51 166.29 127.06 165.28 130.24 163.89V163.9Z" fill="#6BBBB2"/>
<path d="M29.0623 980.083C30.163 975.986 27.7346 971.773 23.6383 970.673C19.5421 969.572 15.3292 972 14.2285 976.097C13.1279 980.193 15.5563 984.406 19.6525 985.507C23.7488 986.607 27.9617 984.179 29.0623 980.083Z" fill="#4A6CB7"/>
<path d="M19.86 290.06C16.29 290.15 15.48 293.36 15.73 296.32C16.17 301.59 16.55 306.32 16.87 310.52C17.14 313.96 20.45 316.85 23.72 314.92C26.44 313.3 26.69 310.2 26.49 307.29C26.18 302.69 25.83 297.85 24.41 293.59C23.6 291.18 22.08 290 19.86 290.07V290.06Z" fill="#F3CD6C"/>
<path d="M659.59 159.83C659.76 155.47 655.89 150.09 650.99 151.71C646.58 153.17 643.2 160.93 640.72 164.47C634.33 173.6 627.92 182.73 620.73 191.26C613.54 199.78 605.26 206.8 597.05 214.25C595.24 215.9 593.37 217.61 592.37 219.84C591.05 222.76 591.47 226.39 593.41 228.94C597.64 234.49 605.45 232.72 609.96 228.64C616.53 222.7 623.1 216.65 628.99 210.02C635.2 203.02 640.82 195.51 645.78 187.58C650.41 180.18 655.88 171.74 658.85 163.54C659.28 162.36 659.54 161.1 659.59 159.85V159.83Z" fill="#4A6CB7"/>
<path d="M39.3699 323.43C41.4499 323.34 42.7499 321.26 43.7399 319.65C45.6499 316.53 47.5299 313.35 49.3799 310.09C51.4099 306.52 49.5999 301.68 44.8999 302.5C38.6199 303.6 35.7599 313 35.3099 318.4C35.0899 320.94 36.5399 323.55 39.3599 323.43H39.3699Z" fill="#F3CD6C"/>
<path d="M712.79 369.46C712.58 367.15 711.97 365.02 710.75 363.52C705.36 356.89 694.02 366.49 692.14 372.1C690.32 377.54 691.53 385.31 696.63 388.56C703.41 392.88 709.38 387.45 711.48 380.61C712.37 377.7 713.14 373.32 712.79 369.46Z" fill="#4A6CB7"/>
<path d="M695.78 430.47C692.59 425.11 687.38 419.85 681.19 421.13C676.64 422.07 673.55 426.54 672.53 431.08C670.32 440.93 672.36 454.08 684.48 455.16C690.39 455.69 696.67 452.25 698.63 446.48C699.92 442.68 699.43 438.44 697.92 434.73C697.37 433.39 696.65 431.93 695.79 430.47H695.78Z" fill="#4A6CB7"/>
<path d="M113.66 471.19C115.96 460.34 117.1 449.08 117.95 438.18C118.97 425.02 119.75 411.76 120.88 398.54C122.12 384.11 123.62 369.7 125.21 355.31C125.21 355.3 125.21 355.29 125.21 355.27C125.83 349.67 126.69 344.05 127.11 338.44C128.69 324.75 123.57 309.64 109.01 306.02C102.94 304.52 95.8 306 90.82 309.63C84.23 314.43 79.82 321.08 77.59 329.56C77.09 331.47 76.61 333.46 76.16 335.52C73.09 349.66 70.76 363.95 68.69 378.27C67.8 381.59 67.66 385.34 67.18 388.74C66.7 392.14 66.21 395.62 65.73 399.06C64.71 406.34 63.69 413.62 62.67 420.91C61.83 426.88 60.99 432.85 60.15 438.82C59.56 443.02 59.07 447.33 58.68 451.75C58.47 454.15 58.56 456.33 58.97 458.31C60.21 464.44 67.03 467.44 72.42 464.2C76.33 461.84 77.26 458.08 77.43 453.51C77.91 440.85 79.16 427.73 81.17 414.15C83.28 399.86 85.28 385.56 87.35 371.27C88.61 362.57 90.01 353.89 91.5 345.23C92.65 338.26 94.13 324.18 102.52 321.92C106.65 320.82 109.64 323.94 110.46 327.75C111.15 331 111.22 334.42 110.65 338.01C108.4 352.27 106.35 366.63 104.93 380.99C103.53 395.14 102.8 409.44 102.18 423.69C101.69 434.78 101.09 445.88 99.88 456.93C98.75 467.18 96.3501 477.36 93.3 487.15C90.4201 496.41 82.9901 504.82 73.4 506.82C57.76 510.09 42.06 504.15 32.61 491.26C25.97 482.2 22.79 470.99 21.73 459.81C20.36 445.27 22.32 430.59 23.51 416.1C24.39 405.38 25.27 394.65 26.15 383.93C26.69 377.37 30.43 363.98 21.3 361.53C17.69 360.56 13.69 362.09 12.04 365.51C10.97 367.71 10.79 370.21 10.62 372.65C9.14004 393.76 7.71004 414.88 6.27004 436C5.07004 453.63 4.29004 472.48 12.28 488.78C18.58 501.62 29.94 511.55 42.8 517.83C51.11 521.89 59.89 525.3 69.23 524C77.75 522.81 85.83 518.8 92.23 513.09C101.65 504.7 107.67 493.02 111.22 480.9C112.15 477.72 112.96 474.47 113.65 471.19H113.66Z" fill="#EB665F"/>
<path d="M254.12 196.81C254.71 207.89 256.54 219.05 258.55 229.8C260.98 242.77 263.67 255.78 266.01 268.84C268.56 283.1 270.85 297.4 273.05 311.72C273.05 311.73 273.05 311.74 273.05 311.76C273.91 317.33 274.53 322.98 275.59 328.51C277.62 342.14 286.49 355.41 301.49 355.12C307.74 355 314.25 351.71 318.12 346.91C323.24 340.56 325.77 333 325.72 324.23C325.71 322.25 325.65 320.21 325.55 318.11C324.84 303.65 323.39 289.26 321.66 274.89C321.66 271.46 320.82 267.8 320.4 264.39C319.98 260.98 319.55 257.49 319.12 254.04C318.21 246.74 317.31 239.44 316.41 232.15C315.67 226.17 314.93 220.18 314.19 214.2C313.67 209.99 313.03 205.7 312.25 201.33C311.83 198.96 311.17 196.87 310.27 195.07C307.49 189.47 300.11 188.35 295.76 192.87C292.6 196.16 292.68 200.03 293.69 204.5C296.51 216.85 298.72 229.84 300.3 243.48C301.97 257.82 303.75 272.16 305.46 286.5C306.5 295.23 307.4 303.97 308.21 312.73C308.91 319.76 311.13 333.74 303.61 338.1C299.91 340.24 296.21 338 294.43 334.53C292.92 331.57 291.97 328.29 291.58 324.67C290.05 310.31 288.3 295.92 285.95 281.68C283.63 267.65 280.62 253.65 277.52 239.73C275.11 228.89 272.81 218.01 271.12 207.04C269.55 196.85 269.23 186.39 269.63 176.15C270.01 166.47 275 156.41 283.74 151.99C297.99 144.77 314.7 146.43 327.17 156.43C335.93 163.45 341.92 173.45 345.84 183.98C350.94 197.67 352.85 212.35 355.46 226.65C357.39 237.23 359.33 247.82 361.26 258.4C362.44 264.87 362.31 278.78 371.76 278.78C375.5 278.78 378.96 276.27 379.67 272.54C380.13 270.14 379.66 267.67 379.18 265.27C375.13 244.5 371.02 223.73 366.94 202.96C363.53 185.62 359.39 167.21 347.44 153.55C338.02 142.78 324.47 136.14 310.43 133.42C301.35 131.66 291.99 130.64 283.3 134.32C275.38 137.68 268.62 143.65 263.92 150.82C257 161.37 254.22 174.21 253.94 186.83C253.87 190.15 253.94 193.49 254.11 196.83L254.12 196.81Z" fill="#4A6CB7"/>
<path d="M645.11 483.52C645.24 486.49 646.24 488.52 648.1 489.61C653.25 492.63 656.7 487.89 658.08 483.56C659.74 478.36 660.92 472.73 661.63 466.66C661.88 464.53 661.89 462.46 661.66 460.42C661.28 457.1 658.31 454.92 655.13 456.73C653.99 457.38 653.03 458.27 652.26 459.38C647.11 466.82 644.72 474.87 645.1 483.51L645.11 483.52Z" fill="#EB665F"/>
<path d="M700.3 655.16C702.57 643.93 702.57 632.38 703.19 620.94C703.63 612.82 704.51 604.71 705.23 596.64C706.65 580.65 712.88 565.6 715.36 549.79C717.65 535.21 718.04 520.32 716.49 505.64C715.22 493.7 710.4 481.56 699.47 475.35C692.72 471.51 684.73 471.58 677.67 474.53C669.55 477.92 665.5 482.76 661.18 490.3C653.47 503.77 648.8 518.67 644.72 533.56C640.64 548.45 634.45 561.3 630.06 575.44C627.56 583.5 625.23 591.62 623.17 599.8C621.11 607.96 620.05 616.44 617.88 624.54C615.33 639.34 614.05 655.18 620.32 668.82C626.9 683.13 643.54 694.22 659.37 694.37C668.54 694.46 677.69 691.07 684.6 685.05C691.49 679.04 695.94 670.75 698.61 661.94C699.29 659.71 699.85 657.44 700.31 655.17L700.3 655.16ZM681.52 656.95C679.18 663.49 674.81 669.59 668.53 672.56C651.28 680.73 639.33 661.9 638.79 647.11C638.47 638.53 638.79 629.92 639.74 621.38C641.41 606.31 645.16 591.56 649.64 577.11C657.34 552.31 666.62 527.86 676.82 503.97C678.04 501.12 679.32 498.2 681.54 496.04C687.53 490.21 694.73 494.88 696.89 501.64C700.81 513.89 699.93 528.82 699.59 541.53C698.79 571.53 691.11 600.36 686.33 629.83C684.89 638.73 684.57 648.4 681.51 656.95H681.52Z" fill="#89C9C1"/>
<path d="M191.12 430.43C187.5 430.57 182.45 431.69 175.96 433.77C174.66 434.19 173.46 434.19 172.35 433.79C172.08 433.69 171.89 433.5 171.79 433.23C170.16 428.94 169.66 424.3 169.55 419.63C169.49 416.58 169.59 414.14 169.87 412.32C170.3 409.49 172.54 407.69 176.58 406.93C180.63 406.17 184.46 405.31 188.09 404.34C191.79 403.35 195.34 399.92 192.92 395.93C191.79 394.05 189.41 393.83 187.49 394.22C183.5 395.04 179.78 396.55 175.69 397.02C174.92 397.11 174.12 397.17 173.38 396.94C169.64 395.73 172.68 388.8 173.27 386.39C174.27 382.28 175.67 377.64 178.76 374.6C180.53 372.86 182.2 372.46 184.61 372.16C188.59 371.67 192.18 371.05 195.39 370.3C198.24 369.63 201.55 367.81 202.15 364.6C202.38 363.35 202.13 362.22 201.41 361.21C196.61 354.53 178.31 368.76 179.22 355.64C180.34 339.73 162.68 334.68 153.02 345.76C147.22 352.41 144.73 361.48 142.61 369.85C139.48 382.23 138.22 394.88 137.86 407.61C137.75 411.34 137.97 415.07 137.88 418.79C138.29 430.95 138.68 443.05 139.05 455.09C139.14 458.03 139.92 461 141.39 463.99C145.91 473.13 157.81 476.17 165.7 469.2C171.9 463.73 172.19 455.31 172.77 447.74C172.99 444.77 175.77 444.25 178.12 443.87C182.93 443.09 187.08 442.2 190.56 441.21C191.84 440.85 193.03 440.23 194.13 439.37C197.83 436.46 196.07 430.26 191.12 430.46V430.43Z" fill="#89C9C1"/>
<path d="M278.07 430.75C279.58 426.14 279.96 421.15 278.97 416.3C276.25 403.01 263.79 393.3 250.34 393.19C242.16 393.12 234.1 396.75 228.67 402.87C222.76 409.53 220.17 418.86 222.06 427.58C222.77 430.86 224.1 433.99 225.94 436.8C233.28 448.08 247.42 453.04 260.38 448.88C268.97 446.12 275.35 439.06 278.07 430.75ZM252.46 433.84C246.58 434.51 240.25 431.06 238.38 424.82C237.13 420.64 238.68 415.9 241.8 412.93C246.22 408.71 253.23 408.34 258.03 412.12C263.28 416.25 264.73 423.94 260.51 429.34C258.39 432.05 255.49 433.49 252.47 433.84H252.46Z" fill="#EB665F"/>
<path d="M528.77 483.34C527.94 478.94 525.44 475.36 520.29 475.33C511.94 475.28 508.89 486.93 508.4 493.44C508.15 496.78 508.71 501.72 511.5 504.01C517.68 509.09 524.5 501.99 527.14 496.51C528.73 493.2 529.63 487.83 528.78 483.33L528.77 483.34Z" fill="#F3CD6C"/>
<path d="M496.72 488.87C499.36 484.1 500.85 477.34 497.06 473C494.7 470.29 490.42 470.5 487.55 472.16C484.96 473.65 483.1 476.22 482.09 479.03C480.62 483.08 480.54 488.55 482.68 492.38C486.13 498.57 492.9 494.87 495.94 490.19C496.21 489.77 496.48 489.33 496.73 488.87H496.72Z" fill="#EB665F"/>
<path d="M328.51 426.38C328.2 426.29 327.89 426.21 327.56 426.15C319.93 424.69 311.97 431.11 311.52 438.78C311.25 443.23 311.14 450.23 314.06 453.92C318.42 459.42 326.71 456.59 331.11 452.48C337.86 446.18 339.46 429.65 328.51 426.38Z" fill="#F3CD6C"/>
<path d="M34.08 202.03C33.81 201.95 33.53 201.88 33.24 201.83C26.49 200.63 19.14 207.55 18.42 215.48C18.01 220.07 17.62 227.29 20.08 230.97C23.75 236.46 31.26 233.21 35.35 228.81C41.62 222.05 43.71 204.97 34.07 202.04L34.08 202.03Z" fill="#89C9C1"/>
</g>
</svg>
