<svg width="1440" height="971" viewBox="0 0 1440 971" fill="none" xmlns="http://www.w3.org/2000/svg">
<mask id="mask0_1_3124" style="mask-type:luminance" maskUnits="userSpaceOnUse" x="0" y="0" width="1440" height="971">
<path d="M1440 0H0V971H1440V0Z" fill="white"/>
</mask>
<g mask="url(#mask0_1_3124)">
<path d="M307.51 662.9C304.73 670.45 297.46 675.81 288.89 676.6C282.87 677.16 267.52 676.09 255.01 654.2C253.76 652.02 252.78 649.92 252.01 647.9C244.52 650.69 239.07 654.19 237.88 655.72C237.88 655.72 238.03 655.53 238.19 655.17L223.58 648.65C226.58 641.93 238.13 635.48 250.07 631.67C250.52 628.81 251.37 626.33 252.32 624.28C262.04 603.26 295.42 596.45 299.2 595.74L302.16 611.46C295.35 612.75 276.05 618.38 268.66 628.04C281.68 627.22 292.49 630.61 300.26 638.02C307.75 645.17 310.52 654.35 307.65 662.57C307.61 662.68 307.57 662.8 307.53 662.91L307.51 662.9ZM267.79 644.16C268.12 644.85 268.49 645.55 268.9 646.26C277.02 660.46 285.13 660.88 287.42 660.67C289.89 660.44 291.9 659.12 292.52 657.3C293.27 655.14 292.06 652.33 289.19 649.59C284.65 645.25 277.82 643.39 268.9 644.07C268.53 644.1 268.16 644.13 267.8 644.16H267.79Z" fill="#EDEBE8"/>
<path d="M89.5398 564.85C88.6598 565.72 67.6498 586.23 38.8698 586.08C21.3598 585.99 5.02983 578.39 -9.67017 563.5L1.71983 552.26C17.5898 568.33 35.0398 573.57 53.5898 567.83C68.1498 563.32 78.1998 553.58 78.2998 553.49L89.5498 564.87L89.5398 564.85Z" fill="#EDEBE8"/>
<path d="M134.4 615.46L123.36 627.04C114.32 618.42 105.18 614.25 96.1999 614.66C82.8199 615.26 73.41 625.82 73.32 625.93L61.2 615.48C61.75 614.84 74.95 599.7 95.26 598.68C108.84 598 122.01 603.64 134.4 615.46Z" fill="#EDEBE8"/>
<path d="M235.56 606.88L219.9 603.61C219.93 603.46 222.96 588.14 218.2 571.55C215.47 562.04 210.77 554.03 204.15 547.57C199.7 553.76 193.91 559.25 186.87 563.84C165.33 577.87 136.64 580.63 121.55 570.11C110.62 562.49 103.21 544.6 109.6 530.09C112.15 524.3 118 516.68 131.32 513.32C142.26 510.56 156.64 511.15 174.06 515.08C183.29 517.16 191.17 520.09 197.89 523.6C199.21 517.78 199.4 511.05 197.89 503.29C194.48 485.81 185.1 474.48 175.25 467.19C171.3 472.02 166.62 476.27 161.25 479.83C146.81 489.39 129.32 492.09 117.72 486.54C104.71 480.32 101.18 471.66 100.5 465.49C99.5498 456.84 103.93 447.57 111.93 441.31C120.34 434.72 143.39 435.41 163.33 442.84C165.57 443.67 167.74 444.58 169.85 445.55C172.71 438.85 174.49 430.5 174.03 420.19L190.01 419.48C190.56 431.89 188.36 443.47 183.73 453.57C199.43 464.79 209.8 480.82 213.59 500.24C215.86 511.87 215.18 522.93 211.76 532.89C224.37 543.6 230.67 556.65 233.77 567.8C239.41 588.07 235.73 606.13 235.57 606.89L235.56 606.88ZM123.99 537.17C121.51 543.9 125.5 553.36 130.7 556.99C139.23 562.93 161.33 561.4 178.14 550.44C182.71 547.47 187.46 543.47 191.27 538.2C185.26 534.96 178.34 532.45 170.55 530.69C145.65 525.07 128.34 527.26 124.25 536.55C124.16 536.75 124.08 536.96 124 537.17H123.99ZM116.9 460.25C116.45 461.46 116.27 462.65 116.39 463.76C116.81 467.63 121.09 470.44 124.61 472.12C130.18 474.78 141.52 473.71 152.41 466.5C154.97 464.8 158.04 462.41 161.04 459.16C143.18 451.57 125.41 452.03 121.66 454.01C119.38 455.83 117.71 458.06 116.9 460.25Z" fill="#EDEBE8"/>
<path d="M360.3 866.94C358.14 872.78 353.7 878.13 347.68 881.84C338.59 887.44 315.75 884.16 296.78 874.53C294.65 873.45 292.59 872.31 290.6 871.1C287.01 877.44 284.3 885.53 283.59 895.83L267.63 894.74C268.48 882.35 271.97 871.09 277.71 861.58C263.37 848.66 254.88 831.57 253.29 811.84C252.34 800.01 254.28 789.07 258.81 779.55C251.54 771.83 246.27 762.75 243.15 752.48C235.62 727.63 243.14 704.37 243.46 703.39L258.65 708.42L251.06 705.9L258.66 708.39C258.6 708.58 252.44 727.96 258.47 747.83C260.5 754.54 263.69 760.54 268.01 765.83C273.13 760.18 279.49 755.39 287 751.62C309.98 740.1 338.8 740.6 352.61 752.75C361.6 760.66 366.83 776.49 362.01 789.54C361.46 791.02 360.79 792.46 359.98 793.85C356.79 799.32 350.13 806.22 336.51 808.07C325.33 809.58 311.11 807.38 294.24 801.51C285.75 798.56 278.16 794.8 271.54 790.31C269.56 795.96 268.61 802.64 269.24 810.53C270.66 828.28 278.7 840.6 287.67 848.95C292.13 844.59 297.27 840.9 303 837.97C318.43 830.1 336.11 829.39 347.01 836.2C359.23 843.84 361.77 852.85 361.75 859.06C361.75 861.71 361.24 864.35 360.29 866.9L360.3 866.94ZM339.43 868.13C343.27 865.72 345.75 862.17 345.76 859.04C345.77 855.15 341.84 851.87 338.54 849.8C333.3 846.53 321.92 846.32 310.28 852.25C307.54 853.65 304.23 855.68 300.88 858.57C317.77 868.12 335.48 869.67 339.43 868.12V868.13ZM279.75 776.62C285.36 780.53 291.95 783.8 299.49 786.42C323.6 794.81 341.04 794.58 346.16 785.81C349.88 779.44 346.95 769.09 342.04 764.78C334.24 757.91 312.1 756.95 294.16 765.94C289.29 768.38 284.12 771.82 279.75 776.61V776.62Z" fill="#EDEBE8"/>
<path d="M485.58 527.34C483.42 533.18 478.98 538.53 472.96 542.24C463.87 547.84 441.03 544.56 422.06 534.93C419.93 533.85 417.87 532.71 415.89 531.5C412.3 537.84 409.59 545.93 408.88 556.23L392.92 555.14C393.77 542.75 397.26 531.49 403 521.98C388.66 509.06 380.17 491.97 378.59 472.24C377.64 460.43 379.57 449.51 384.08 440C372.75 427.94 367.97 414.27 366.15 402.83C362.83 382.05 368.52 364.53 368.76 363.79L383.95 368.82L376.36 366.3L383.96 368.79C383.91 368.94 379.17 383.82 382.04 400.83C383.68 410.59 387.45 419.07 393.3 426.23C398.42 420.58 404.79 415.78 412.3 412.01C435.28 400.49 464.1 400.99 477.91 413.14C486.9 421.05 492.13 436.88 487.31 449.93C486.76 451.41 486.09 452.85 485.28 454.24C482.09 459.71 475.43 466.61 461.81 468.46C450.63 469.97 436.41 467.77 419.54 461.9C410.61 458.79 403.11 454.99 396.82 450.75C394.85 456.39 393.91 463.05 394.54 470.93C395.96 488.68 404 501 412.97 509.35C417.43 504.99 422.57 501.3 428.3 498.37C443.73 490.5 461.41 489.79 472.31 496.6C484.53 504.24 487.07 513.25 487.05 519.46C487.05 522.11 486.54 524.75 485.59 527.3L485.58 527.34ZM464.71 528.52C468.55 526.11 471.03 522.56 471.04 519.43C471.05 515.54 467.12 512.26 463.82 510.19C458.58 506.92 447.2 506.71 435.56 512.64C432.82 514.04 429.51 516.07 426.16 518.96C443.05 528.51 460.76 530.06 464.71 528.51V528.52ZM405.03 437.02C410.64 440.92 417.23 444.19 424.78 446.82C448.89 455.21 466.33 454.98 471.45 446.21C475.17 439.84 472.24 429.49 467.33 425.18C459.53 418.31 437.39 417.35 419.45 426.34C414.58 428.78 409.41 432.22 405.03 437.02Z" fill="#EDEBE8"/>
<path d="M29.9299 745.07C27.7699 750.91 23.3299 756.26 17.3099 759.97C8.21989 765.57 -14.6201 762.29 -33.5901 752.66C-35.7201 751.58 -37.7801 750.44 -39.7601 749.24C-43.3501 755.58 -46.0601 763.67 -46.7701 773.97L-62.7301 772.88C-61.8801 760.49 -58.3901 749.23 -52.6501 739.72C-66.9901 726.8 -75.4801 709.71 -77.0601 689.98C-78.0101 678.15 -76.0701 667.22 -71.5401 657.69C-78.8101 649.97 -84.0801 640.89 -87.2001 630.62C-94.7301 605.77 -87.2101 582.51 -86.8901 581.53L-71.7001 586.56L-79.2901 584.04L-71.6901 586.53C-71.7501 586.72 -77.9101 606.1 -71.8801 625.97C-69.8501 632.68 -66.6601 638.68 -62.3401 643.97C-57.2201 638.32 -50.8601 633.53 -43.3501 629.76C-20.3701 618.24 8.44991 618.74 22.2599 630.89C31.2499 638.8 36.4799 654.63 31.6599 667.68C31.1099 669.16 30.4399 670.6 29.6299 671.99C26.4399 677.46 19.7799 684.36 6.1599 686.21C-5.0201 687.72 -19.2401 685.52 -36.1101 679.65C-44.6001 676.7 -52.1901 672.94 -58.8101 668.45C-60.7901 674.1 -61.7401 680.78 -61.1101 688.67C-59.6901 706.42 -51.6501 718.74 -42.6801 727.09C-38.2201 722.73 -33.0801 719.04 -27.3501 716.11C-11.9201 708.24 5.7599 707.53 16.6599 714.34C28.8799 721.98 31.4199 730.99 31.3999 737.2C31.3999 739.85 30.8899 742.49 29.9399 745.04L29.9299 745.07ZM9.05991 746.26C12.8999 743.85 15.3799 740.3 15.3899 737.17C15.3999 733.28 11.4699 730 8.1699 727.93C2.9299 724.66 -8.4501 724.45 -20.0901 730.38C-22.8301 731.78 -26.1401 733.81 -29.4901 736.7C-12.6001 746.25 5.10991 747.8 9.05991 746.25V746.26ZM-50.6201 654.75C-45.0101 658.66 -38.4201 661.93 -30.8801 664.55C-6.7701 672.94 10.6699 672.71 15.7899 663.94C19.5099 657.57 16.5799 647.22 11.6699 642.91C3.8699 636.04 -18.2701 635.08 -36.2101 644.07C-41.0801 646.51 -46.2501 649.95 -50.6201 654.74V654.75Z" fill="#EDEBE8"/>
<path d="M137.65 373.74C138.51 379.91 137.12 386.72 133.57 392.84C128.2 402.07 106.53 409.98 85.2599 410.46C82.8699 410.51 80.5199 410.48 78.1999 410.36C78.0299 417.65 79.4699 426.06 83.7099 435.47L69.1299 442.05C64.0199 430.73 61.7699 419.16 62.3399 408.06C43.5999 403.46 28.0299 392.41 17.3099 375.77C10.8899 365.81 7.42989 355.28 6.90989 344.77C-8.77011 339.49 -19.4501 329.71 -26.4601 320.5C-39.2101 303.76 -42.4801 285.63 -42.6101 284.86L-26.8501 282.11L-34.7301 283.48L-26.8501 282.08C-26.8201 282.23 -23.9601 297.59 -13.3901 311.23C-7.3301 319.05 -0.000106812 324.75 8.53989 328.3C10.3799 320.9 13.7199 313.66 18.5599 306.79C33.3699 285.78 58.9999 272.59 76.9199 276.77C88.5799 279.49 100.67 290.97 102.6 304.75C102.82 306.31 102.91 307.9 102.85 309.51C102.62 315.84 100.02 325.07 88.8899 333.13C79.7499 339.75 66.1699 344.53 48.5399 347.33C39.1999 348.81 30.7899 349.01 23.2499 348.24C24.1799 354.14 26.4999 360.46 30.7799 367.1C40.4199 382.07 53.3299 389.13 65.1799 392.25C67.0499 386.3 69.8299 380.62 73.4999 375.33C83.3699 361.1 98.6199 352.12 111.45 352.97C125.83 353.93 132.33 360.66 135.25 366.15C136.49 368.49 137.3 371.06 137.68 373.75L137.65 373.74ZM119.82 384.66C122.06 380.72 122.57 376.42 121.1 373.66C119.27 370.22 114.26 369.19 110.37 368.93C104.21 368.52 94.0799 373.72 86.6299 384.45C84.8799 386.97 82.9199 390.34 81.3299 394.47C100.73 394.9 117.07 387.89 119.82 384.66ZM23.9699 332.23C30.7599 333.02 38.1099 332.78 45.9999 331.53C71.2099 327.52 86.4799 319.08 86.8399 308.94C87.0999 301.57 79.6299 293.84 73.2699 292.35C63.1499 289.99 43.1899 299.6 31.6299 316C28.4899 320.45 25.5599 325.93 23.9699 332.23Z" fill="#EDEBE8"/>
<path d="M220.73 799.7C220.32 800.81 219.84 801.9 219.28 802.98C215.05 811.18 206.79 818.11 194.75 823.58C186.31 827.42 178.95 829.14 178.64 829.21L175.03 813.62L176.83 821.41L175.01 813.62C181.59 812.08 199.81 805.83 205.07 795.61C206.93 791.99 206.93 788.19 205.07 783.65C202.4 777.14 199.05 773.27 194.84 771.82C185.14 768.47 169.64 777.25 158.32 783.67L150.43 769.75C165.18 761.39 183.53 750.99 200.06 756.7C208.74 759.7 215.41 766.72 219.86 777.58C222.99 785.2 223.27 792.77 220.71 799.7H220.73Z" fill="#EDEBE8"/>
<path d="M342.77 468.88C342.36 469.99 341.88 471.08 341.32 472.16C337.09 480.36 328.83 487.29 316.79 492.76C308.35 496.6 300.99 498.32 300.68 498.39L297.07 482.8L298.87 490.59L297.05 482.8C303.63 481.26 321.85 475.01 327.11 464.79C328.97 461.17 328.98 457.37 327.11 452.83C324.44 446.32 321.09 442.45 316.88 441C307.18 437.65 291.68 446.43 280.36 452.85L272.47 438.93C287.22 430.57 305.57 420.17 322.1 425.88C330.78 428.88 337.45 435.9 341.9 446.76C345.03 454.38 345.31 461.95 342.75 468.88H342.77Z" fill="#EDEBE8"/>
<path d="M78.2798 509.88C76.7798 513.95 74.7698 517.89 72.2598 521.6C62.9398 535.38 48.6798 542.41 34.1198 540.41C18.9598 538.32 7.54981 532.08 0.199811 521.85C-11.6502 505.35 -7.90019 484.74 -7.73019 483.87L7.98981 486.86L0.12981 485.36L7.99981 486.82C7.96981 486.97 5.40981 501.76 13.2698 512.6C17.9598 519.07 25.7098 523.09 36.3098 524.55C48.3998 526.21 56.2198 516.77 59.0198 512.63C65.3398 503.29 68.5998 488.39 61.6398 476.16C53.8098 462.41 34.7698 455.72 8.01981 457.31L7.06981 441.34C26.2698 440.2 60.6998 442.17 75.5498 468.24C82.5998 480.62 83.4298 495.96 78.2998 509.87L78.2798 509.88Z" fill="#EDEBE8"/>
<path d="M409.82 632.19C408.32 636.26 406.31 640.2 403.8 643.91C394.48 657.69 380.22 664.72 365.66 662.72C350.5 660.63 339.09 654.39 331.74 644.16C319.89 627.66 323.64 607.05 323.81 606.18L339.53 609.17L331.67 607.67L339.54 609.13C339.51 609.28 336.95 624.07 344.81 634.91C349.5 641.38 357.25 645.4 367.85 646.86C379.94 648.52 387.76 639.08 390.56 634.94C396.88 625.6 400.14 610.7 393.18 598.47C385.35 584.72 366.31 578.03 339.56 579.62L338.61 563.65C357.81 562.51 392.24 564.48 407.09 590.55C414.14 602.93 414.97 618.27 409.84 632.18L409.82 632.19Z" fill="#EDEBE8"/>
<path d="M187.67 245.13C186.17 249.2 184.16 253.14 181.65 256.85C172.33 270.63 158.07 277.66 143.51 275.66C128.35 273.57 116.94 267.33 109.59 257.1C97.7399 240.6 101.49 219.99 101.66 219.12L117.38 222.11L109.52 220.61L117.39 222.07C117.36 222.22 114.8 237.01 122.66 247.85C127.35 254.32 135.1 258.34 145.7 259.8C157.79 261.46 165.61 252.02 168.41 247.88C174.73 238.54 177.99 223.64 171.03 211.41C163.2 197.66 144.16 190.97 117.41 192.56L116.46 176.59C135.66 175.45 170.09 177.42 184.94 203.49C191.99 215.87 192.82 231.21 187.69 245.12L187.67 245.13Z" fill="#EDEBE8"/>
<path d="M218.64 725.57L210.36 739.26C192.15 728.25 180.26 712.13 177.72 695.04C176.06 683.86 177.56 666.68 194.11 648.29C194.59 647.76 195.09 647.21 195.61 646.65C197.66 644.41 202.39 639.25 202.66 637.07C202.15 636.45 199.05 633.45 185.21 631.12C179.24 630.12 161.09 627.06 157.64 613.78C156.61 609.81 156.62 603.47 162.5 595.8C165.38 592.05 168.5 589.52 168.84 589.24L178.84 601.73C175.59 604.38 172.81 608.57 173.12 609.75C173.12 609.78 174.79 613.14 187.86 615.34C210.96 619.23 216.04 626.65 217.84 631.9C221.38 642.2 212.97 651.38 207.41 657.45C206.93 657.98 206.46 658.49 206.01 658.99C196.06 670.04 191.87 681.38 193.55 692.69C195.38 705.05 204.53 717.03 218.64 725.57Z" fill="#EDEBE8"/>
<path d="M157.07 713.59C154.7 720.02 151.21 725.66 146.75 730.09C142.47 734.35 136.92 737.71 130.46 739.16C129.59 747.95 127.91 755.88 125.97 762.68C119.09 786.86 107.76 802.18 107.28 802.83L94.4699 793.24L100.88 798.03L94.4599 793.25C94.5599 793.11 104.74 779.23 110.75 757.72C112.53 751.36 113.77 745.03 114.48 738.74C107.96 737.02 100.97 733.33 93.7399 727.03C83.2899 717.93 75.8799 706.84 72.2999 694.97C69.1699 684.59 69.0799 673.99 72.0399 665.14C75.4699 654.89 82.5699 648.41 91.0499 647.8C96.7399 647.39 107.68 649.49 117.05 668.12C126.69 687.29 130.47 705.68 131.02 722.06C132.58 721.23 134.06 720.12 135.46 718.74C141.67 712.57 145.11 701.87 144.67 690.12C144.14 676.21 138.29 662.09 128.19 650.35L140.32 639.91C152.78 654.38 160 672 160.66 689.52C160.99 698.17 159.72 706.38 157.07 713.59ZM87.4299 669.62C87.3599 669.81 87.2899 670.01 87.2199 670.21C84.3399 678.82 84.6899 697.94 104.25 714.97C107.98 718.22 111.62 720.59 115.11 722.08C114.51 706.11 110.39 690.47 102.76 675.31C98.0299 665.91 93.7899 663.64 92.1999 663.76C90.8299 663.86 88.7999 665.9 87.4199 669.62H87.4299Z" fill="#EDEBE8"/>
<path d="M278.95 383.22C276.58 389.65 273.09 395.29 268.63 399.72C264.35 403.98 258.8 407.34 252.34 408.79C251.47 417.58 249.79 425.51 247.85 432.31C240.97 456.49 229.64 471.81 229.16 472.46L216.35 462.87L222.76 467.66L216.34 462.88C216.44 462.74 226.62 448.86 232.63 427.35C234.41 420.99 235.65 414.66 236.36 408.37C229.84 406.65 222.85 402.96 215.62 396.66C205.17 387.56 197.76 376.47 194.18 364.6C191.05 354.22 190.96 343.62 193.92 334.77C197.35 324.52 204.45 318.04 212.93 317.43C218.62 317.02 229.56 319.12 238.93 337.75C248.57 356.92 252.35 375.31 252.9 391.69C254.46 390.86 255.94 389.75 257.34 388.37C263.55 382.2 266.99 371.5 266.55 359.75C266.02 345.84 260.17 331.72 250.07 319.98L262.2 309.54C274.66 324.01 281.88 341.63 282.54 359.15C282.87 367.8 281.6 376.01 278.95 383.22ZM209.31 339.25C209.24 339.44 209.17 339.64 209.1 339.84C206.22 348.45 206.57 367.57 226.13 384.6C229.86 387.85 233.5 390.22 236.99 391.71C236.39 375.74 232.27 360.1 224.64 344.94C219.91 335.54 215.67 333.27 214.08 333.39C212.71 333.49 210.68 335.53 209.3 339.25H209.31Z" fill="#EDEBE8"/>
<path d="M278.47 583.29L263.74 589.54C263.53 589.04 258.51 577.08 258.83 562.19C259.14 547.9 264.43 528.2 287.86 515.47L295.5 529.53C263.67 546.83 277.85 581.81 278.47 583.29Z" fill="#EDEBE8"/>
<path d="M163.88 329.27L148.04 327.01C148.12 326.47 150 313.64 157.97 301.06C165.62 288.99 180.33 274.86 206.97 276.07L206.24 292.05C170.05 290.4 164.11 327.68 163.88 329.27Z" fill="#EDEBE8"/>
<path d="M247.94 513.85C255.998 513.85 262.53 507.318 262.53 499.26C262.53 491.202 255.998 484.67 247.94 484.67C239.882 484.67 233.35 491.202 233.35 499.26C233.35 507.318 239.882 513.85 247.94 513.85Z" fill="#EDEBE8"/>
<path d="M303.87 577.34C311.928 577.34 318.46 570.808 318.46 562.75C318.46 554.692 311.928 548.16 303.87 548.16C295.812 548.16 289.28 554.692 289.28 562.75C289.28 570.808 295.812 577.34 303.87 577.34Z" fill="#EDEBE8"/>
<path d="M36.1 506.86C44.1578 506.86 50.69 500.328 50.69 492.27C50.69 484.212 44.1578 477.68 36.1 477.68C28.0422 477.68 21.51 484.212 21.51 492.27C21.51 500.328 28.0422 506.86 36.1 506.86Z" fill="#EDEBE8"/>
<path d="M58.8698 738.6C66.9276 738.6 73.4598 732.068 73.4598 724.01C73.4598 715.952 66.9276 709.42 58.8698 709.42C50.812 709.42 44.2798 715.952 44.2798 724.01C44.2798 732.068 50.812 738.6 58.8698 738.6Z" fill="#EDEBE8"/>
<path d="M171.8 391.73C179.858 391.73 186.39 385.198 186.39 377.14C186.39 369.082 179.858 362.55 171.8 362.55C163.742 362.55 157.21 369.082 157.21 377.14C157.21 385.198 163.742 391.73 171.8 391.73Z" fill="#EDEBE8"/>
<path d="M44.2799 256.51C52.3378 256.51 58.8699 249.978 58.8699 241.92C58.8699 233.862 52.3378 227.33 44.2799 227.33C36.2221 227.33 29.6899 233.862 29.6899 241.92C29.6899 249.978 36.2221 256.51 44.2799 256.51Z" fill="#EDEBE8"/>
<path d="M302.57 734.97C310.628 734.97 317.16 728.438 317.16 720.38C317.16 712.322 310.628 705.79 302.57 705.79C294.512 705.79 287.98 712.322 287.98 720.38C287.98 728.438 294.512 734.97 302.57 734.97Z" fill="#EDEBE8"/>
<path d="M348.54 537.8L333.68 543.72C328.43 530.65 325.57 500.15 352.3 478.33L362.42 490.72C338.27 510.44 348.11 536.69 348.54 537.8Z" fill="#EDEBE8"/>
<path d="M578.11 237.53C586.15 237.16 593.91 241.77 597.98 249.35C600.83 254.68 605.82 269.24 590.53 289.28C589.01 291.27 587.46 293 585.9 294.5C591.39 300.32 596.73 303.98 598.6 304.47C598.6 304.47 598.37 304.41 597.97 304.4L597.65 320.4C590.29 320.25 579.86 312.12 571.7 302.61C568.89 303.31 566.28 303.49 564.01 303.42C540.87 302.65 521.6 274.55 519.48 271.35L532.81 262.51C536.65 268.28 549.34 283.87 561.12 286.92C555.3 275.24 554.21 263.97 558.02 253.93C561.69 244.25 569.07 238.13 577.76 237.57C577.88 237.57 578 237.56 578.12 237.55L578.11 237.53ZM576.3 281.41C576.8 280.84 577.31 280.23 577.81 279.57C587.74 266.57 584.96 258.93 583.87 256.91C582.7 254.73 580.7 253.39 578.78 253.52C576.49 253.67 574.38 255.88 572.97 259.59C570.74 265.46 571.69 272.48 575.78 280.43C575.95 280.76 576.12 281.08 576.3 281.41Z" fill="#EDEBE8"/>
<path d="M572.61 476.48C573.76 476.95 600.82 488.32 611.88 514.89C618.61 531.05 617.96 549.05 609.97 568.4L595.18 562.29C603.81 541.42 601.84 523.31 589.33 508.46C579.51 496.8 566.63 491.34 566.5 491.28L572.6 476.49L572.61 476.48Z" fill="#EDEBE8"/>
<path d="M601.78 415.46L616.74 421.12C612.32 432.8 612.04 442.84 615.9 450.96C621.66 463.06 635.05 467.61 635.19 467.65L630.28 482.88C629.47 482.62 610.39 476.35 601.55 458.05C595.64 445.8 595.71 431.48 601.77 415.46H601.78Z" fill="#EDEBE8"/>
<path d="M554.51 325.61L557.6 341.31C557.45 341.34 542.16 344.51 528.73 355.35C521.03 361.57 515.49 369.01 512.11 377.62C519.55 379.31 526.85 382.5 533.82 387.21C555.13 401.59 568.83 426.95 565.01 444.95C562.25 457.99 548.65 471.78 532.8 471.53C526.47 471.43 517.18 469.01 508.9 458.05C502.1 449.05 497.05 435.57 493.89 417.99C492.22 408.68 491.85 400.28 492.47 392.73C486.59 393.78 480.32 396.23 473.77 400.64C459 410.59 452.2 423.63 449.33 435.54C455.32 437.29 461.06 439.95 466.42 443.52C480.84 453.1 490.14 468.17 489.54 481.01C488.87 495.41 482.27 502.04 476.85 505.07C469.25 509.31 459.01 508.88 450.13 503.96C440.79 498.78 432.45 477.27 431.53 456.01C431.43 453.63 431.41 451.27 431.49 448.95C424.2 448.93 415.82 450.54 406.5 454.97L399.63 440.52C410.85 435.18 422.37 432.7 433.48 433.04C437.7 414.21 448.43 398.42 464.85 387.37C474.68 380.75 485.13 377.08 495.64 376.35C500.6 360.56 510.17 349.69 519.23 342.49C535.71 329.41 553.77 325.77 554.53 325.62L554.51 325.61ZM533.71 455.52C540.87 455.19 548.04 447.83 549.35 441.63C551.51 431.46 541.49 411.7 524.86 400.48C520.34 397.43 514.81 394.61 508.48 393.15C507.83 399.95 508.21 407.3 509.63 415.16C514.15 440.28 522.9 455.37 533.05 455.53C533.27 455.53 533.49 455.53 533.71 455.52ZM465.61 491.98C466.9 491.92 468.07 491.62 469.04 491.08C472.44 489.18 473.37 484.15 473.55 480.26C473.83 474.09 468.43 464.07 457.55 456.84C454.99 455.14 451.59 453.25 447.43 451.75C447.39 471.15 454.73 487.34 458.02 490.03C460.59 491.42 463.29 492.09 465.62 491.98H465.61Z" fill="#EDEBE8"/>
<path d="M745.52 109.5C751.74 109.21 758.4 111.22 764.16 115.33C772.86 121.53 778.72 143.84 777.24 165.06C777.07 167.44 776.82 169.78 776.49 172.08C783.73 172.92 792.24 172.27 802 168.91L807.2 184.04C795.45 188.08 783.72 189.25 772.73 187.66C766.41 205.9 753.97 220.37 736.42 229.51C725.89 234.99 715.07 237.46 704.53 236.99C700.25 246.69 693.94 255.08 685.69 261.95C665.73 278.56 641.38 280.68 640.35 280.77L639.07 264.82L639.71 272.79L639.05 264.82C639.25 264.8 659.49 262.93 675.45 249.65C680.84 245.17 685.13 239.89 688.32 233.86C681.13 231.34 674.23 227.35 667.84 221.89C648.29 205.2 637.53 178.46 643.35 161.01C647.14 149.65 659.68 138.68 673.59 138.03C675.16 137.96 676.75 138.02 678.35 138.22C684.63 139.03 693.58 142.48 700.58 154.31C706.33 164.02 709.83 177.98 710.99 195.8C711.57 204.78 711.07 213.22 709.51 221.07C715.48 220.7 722.01 218.97 729.03 215.31C744.83 207.09 753.05 194.9 757.25 183.38C751.5 180.96 746.1 177.67 741.17 173.53C727.92 162.38 720.38 146.37 722.41 133.68C724.69 119.45 732 113.6 737.73 111.21C740.17 110.19 742.81 109.62 745.52 109.5ZM754.74 128.26C751.03 125.66 746.79 124.76 743.91 125.97C740.32 127.47 738.83 132.37 738.21 136.22C737.23 142.32 741.47 152.89 751.47 161.29C753.82 163.27 756.99 165.53 760.95 167.49C763.17 148.22 757.71 131.3 754.74 128.26ZM693.67 218.84C695.08 212.15 695.54 204.81 695.02 196.84C693.36 171.37 686.36 155.39 676.3 154.09C668.98 153.15 660.6 159.87 658.53 166.07C655.24 175.93 662.97 196.69 678.23 209.72C682.37 213.26 687.55 216.68 693.67 218.84Z" fill="#EDEBE8"/>
<path d="M383.93 126.25C390.15 125.96 396.81 127.97 402.57 132.08C411.27 138.28 417.13 160.59 415.65 181.81C415.48 184.19 415.23 186.53 414.9 188.83C422.14 189.67 430.65 189.02 440.41 185.66L445.61 200.79C433.86 204.83 422.13 206 411.14 204.41C404.82 222.65 392.38 237.12 374.83 246.26C364.32 251.73 353.52 254.2 343 253.75C336.3 268.88 325.56 278.6 315.74 284.74C297.89 295.88 279.53 297.46 278.76 297.53L277.48 281.58L278.12 289.55L277.46 281.58C277.62 281.57 293.17 280.14 307.73 270.88C316.08 265.57 322.43 258.8 326.75 250.62C319.55 248.1 312.65 244.11 306.26 238.65C286.71 221.96 275.95 195.22 281.77 177.77C285.56 166.41 298.1 155.44 312.01 154.79C313.58 154.72 315.17 154.78 316.77 154.98C323.05 155.79 332 159.24 339 171.07C344.75 180.78 348.25 194.74 349.41 212.56C350.02 222 349.44 230.38 347.98 237.82C353.94 237.44 360.45 235.71 367.45 232.07C383.25 223.85 391.47 211.66 395.67 200.14C389.92 197.72 384.52 194.43 379.59 190.29C366.34 179.14 358.8 163.13 360.83 150.44C363.11 136.21 370.42 130.36 376.15 127.97C378.59 126.95 381.23 126.38 383.94 126.26L383.93 126.25ZM393.15 145.02C389.44 142.42 385.2 141.52 382.32 142.73C378.73 144.23 377.24 149.13 376.62 152.98C375.64 159.08 379.88 169.65 389.88 178.05C392.23 180.03 395.4 182.29 399.36 184.25C401.58 164.98 396.12 148.06 393.15 145.02ZM332.08 235.6C333.49 228.91 333.94 221.57 333.42 213.6C331.76 188.13 324.76 172.15 314.7 170.85C307.38 169.91 299 176.63 296.93 182.83C293.64 192.69 301.37 213.45 316.63 226.48C320.78 230.02 325.96 233.44 332.08 235.61V235.6Z" fill="#EDEBE8"/>
<path d="M377.85 506.53C383.2 503.33 390.01 501.96 397.03 502.86C407.62 504.21 423.34 521.1 432.06 540.51C433.04 542.69 433.92 544.87 434.72 547.05C441.5 544.37 448.69 539.77 455.7 532.2L467.44 543.07C459 552.18 449.21 558.76 438.77 562.55C441.82 581.61 437.7 600.24 426.55 616.59C419.87 626.38 411.52 633.66 402.04 638.23C403.28 654.73 398.42 668.37 392.67 678.42C382.21 696.68 366.78 706.75 366.13 707.17L357.47 693.72L361.8 700.45L357.45 693.74C357.58 693.65 370.61 685.05 379.06 670C383.91 661.37 386.3 652.41 386.25 643.16C378.72 644.35 370.75 644.08 362.53 642.3C337.41 636.84 315.29 618.36 312.17 600.23C310.14 588.43 316.01 572.83 327.95 565.69C329.3 564.88 330.73 564.18 332.24 563.61C338.16 561.36 347.68 560.16 359.44 567.28C369.09 573.12 378.78 583.77 388.22 598.93C393.22 606.96 396.68 614.62 398.9 621.87C403.97 618.72 408.89 614.12 413.34 607.59C423.38 592.88 424.86 578.25 423.11 566.11C416.9 566.7 410.58 566.35 404.28 565.03C387.33 561.47 373.12 550.92 368.91 538.78C364.19 525.16 367.87 516.55 371.79 511.73C373.46 509.68 375.51 507.93 377.85 506.54V506.53ZM394.84 518.71C390.34 518.18 386.18 519.39 384.21 521.81C381.76 524.83 382.76 529.85 384.03 533.53C386.05 539.36 394.78 546.68 407.56 549.36C410.57 549.99 414.42 550.49 418.85 550.34C411.7 532.31 398.88 519.98 394.84 518.7V518.71ZM383.85 627.4C381.93 620.84 378.86 614.16 374.63 607.38C361.13 585.72 347.41 574.94 337.92 578.55C331.03 581.18 326.81 591.07 327.92 597.51C329.68 607.75 346.31 622.4 365.91 626.66C371.23 627.82 377.42 628.39 383.84 627.4H383.85Z" fill="#EDEBE8"/>
<path d="M737.9 264.23C739.08 264.18 740.28 264.19 741.48 264.29C750.68 265 760.27 269.91 770 278.87C776.82 285.16 781.27 291.26 781.46 291.52L768.51 300.91L774.99 296.21L768.52 300.91C764.54 295.45 751.7 281.1 740.24 280.23C736.18 279.92 732.68 281.4 729.22 284.88C724.27 289.87 722 294.46 722.3 298.91C722.99 309.15 737.11 320.01 747.42 327.94L737.67 340.62C724.23 330.29 707.5 317.43 706.33 299.98C705.71 290.81 709.59 281.94 717.85 273.61C723.65 267.76 730.52 264.56 737.9 264.22V264.23Z" fill="#EDEBE8"/>
<path d="M385.66 280.55C386.84 280.5 388.04 280.51 389.24 280.61C398.44 281.32 408.03 286.23 417.76 295.19C424.58 301.48 429.03 307.58 429.22 307.84L416.27 317.23L422.75 312.53L416.28 317.23C412.3 311.77 399.46 297.42 388 296.55C383.94 296.24 380.44 297.72 376.98 301.2C372.03 306.19 369.76 310.78 370.06 315.23C370.75 325.47 384.87 336.33 395.18 344.26L385.43 356.94C371.99 346.61 355.26 333.75 354.09 316.3C353.47 307.13 357.35 298.26 365.61 289.93C371.41 284.08 378.28 280.88 385.66 280.54V280.55Z" fill="#EDEBE8"/>
<path d="M526.36 508.24C530.69 508.04 535.1 508.36 539.5 509.22C555.82 512.45 567.85 522.85 571.67 537.04C575.65 551.82 574.34 564.76 567.78 575.51C557.2 592.85 536.75 597.41 535.88 597.6L532.52 581.96L534.2 589.78L532.49 581.97C532.64 581.94 547.26 578.54 554.18 567.08C558.31 560.24 559 551.53 556.22 541.21C553.05 529.42 541.3 525.9 536.4 524.93C525.33 522.74 510.34 525.54 501.78 536.71C492.16 549.27 493.41 569.42 505.29 593.44L490.95 600.53C482.43 583.29 470.85 550.8 489.08 526.98C497.74 515.67 511.55 508.93 526.36 508.25V508.24Z" fill="#EDEBE8"/>
<path d="M510 155.23C514.33 155.03 518.74 155.35 523.14 156.21C539.46 159.44 551.49 169.84 555.31 184.03C559.29 198.81 557.98 211.75 551.42 222.5C540.84 239.84 520.39 244.4 519.52 244.59L516.16 228.95L517.84 236.77L516.13 228.96C516.28 228.93 530.9 225.53 537.82 214.07C541.95 207.23 542.64 198.52 539.86 188.2C536.69 176.41 524.94 172.89 520.04 171.92C508.97 169.73 493.98 172.53 485.42 183.7C475.8 196.26 477.05 216.41 488.93 240.43L474.59 247.52C466.07 230.28 454.49 197.79 472.72 173.97C481.38 162.66 495.19 155.92 510 155.24V155.23Z" fill="#EDEBE8"/>
<path d="M239.91 510.5C244.24 510.3 248.65 510.62 253.05 511.48C269.37 514.71 281.4 525.11 285.22 539.3C289.2 554.08 287.89 567.02 281.33 577.77C270.75 595.11 250.3 599.67 249.43 599.86L246.07 584.22L247.75 592.04L246.04 584.23C246.19 584.2 260.81 580.8 267.73 569.34C271.86 562.5 272.55 553.79 269.77 543.47C266.6 531.68 254.85 528.16 249.95 527.19C238.88 525 223.89 527.8 215.33 538.97C205.71 551.53 206.96 571.68 218.84 595.7L204.5 602.79C195.98 585.55 184.4 553.06 202.63 529.24C211.29 517.93 225.1 511.19 239.91 510.51V510.5Z" fill="#EDEBE8"/>
<path d="M670.43 295L686.26 297.3C683.2 318.36 672.99 335.59 658.22 344.57C648.57 350.44 632.16 355.75 608.77 347.66C608.09 347.43 607.39 347.18 606.67 346.92C603.81 345.9 597.22 343.56 595.1 344.16C594.73 344.87 593.17 348.9 596.41 362.55C597.81 368.44 602.06 386.35 591.17 394.7C587.91 397.2 582.07 399.66 572.72 397.21C568.15 396.02 564.6 394.13 564.21 393.92L571.82 379.85C575.52 381.81 580.47 382.74 581.44 382C581.47 381.98 583.91 379.14 580.85 366.25C575.44 343.45 580.31 335.89 584.44 332.19C592.55 324.92 604.28 329.09 612.04 331.86C612.71 332.1 613.37 332.33 614 332.55C628.05 337.41 640.13 336.86 649.9 330.91C660.57 324.41 668.05 311.33 670.42 295.01L670.43 295Z" fill="#EDEBE8"/>
<path d="M683.35 356.38C690.2 356.06 696.74 357.08 702.57 359.47C708.16 361.76 713.42 365.56 717.27 370.94C725.71 368.32 733.67 366.79 740.69 365.92C765.64 362.84 784.17 367.32 784.95 367.52L781.11 383.05L783.03 375.28L781.12 383.05C780.95 383.01 764.21 379.03 742.05 381.87C735.5 382.71 729.18 384.03 723.11 385.82C724.06 392.5 723.38 400.37 720.39 409.48C716.07 422.65 708.74 433.79 699.2 441.7C690.85 448.62 681.13 452.83 671.82 453.55C661.04 454.38 652.31 450.36 648.44 442.79C645.85 437.71 643.52 426.82 657.04 410.93C670.95 394.59 686.41 383.95 701.29 377.07C699.92 375.96 698.32 375.02 696.5 374.27C688.4 370.95 677.2 371.95 666.55 376.93C653.94 382.83 643.21 393.72 636.33 407.59L622 400.48C630.49 383.37 643.9 369.86 659.78 362.44C667.62 358.77 675.68 356.74 683.35 356.38ZM669.95 437.64C670.16 437.64 670.36 437.62 670.58 437.6C679.63 436.9 697.1 429.14 705.19 404.49C706.73 399.79 707.5 395.51 707.51 391.72C693.04 398.49 680.23 408.37 669.23 421.3C662.41 429.31 661.97 434.11 662.7 435.52C663.32 436.74 665.99 437.82 669.96 437.64H669.95Z" fill="#EDEBE8"/>
<path d="M331.59 372.68C338.44 372.36 344.98 373.38 350.81 375.77C356.4 378.06 361.66 381.86 365.51 387.24C373.95 384.62 381.91 383.09 388.93 382.22C413.88 379.14 432.41 383.62 433.19 383.82L429.35 399.35L431.27 391.58L429.36 399.35C429.19 399.31 412.45 395.33 390.29 398.17C383.74 399.01 377.42 400.33 371.35 402.12C372.3 408.8 371.62 416.67 368.63 425.78C364.31 438.95 356.98 450.09 347.44 458C339.09 464.92 329.37 469.13 320.06 469.85C309.29 470.68 300.55 466.66 296.68 459.09C294.09 454.01 291.76 443.12 305.28 427.23C319.19 410.89 334.65 400.25 349.53 393.37C348.16 392.26 346.56 391.32 344.74 390.57C336.64 387.25 325.44 388.25 314.79 393.23C302.18 399.13 291.45 410.02 284.57 423.89L270.24 416.78C278.73 399.67 292.14 386.16 308.02 378.74C315.86 375.07 323.92 373.04 331.59 372.68ZM318.19 453.94C318.4 453.94 318.6 453.92 318.82 453.9C327.87 453.2 345.34 445.44 353.43 420.79C354.97 416.09 355.74 411.81 355.75 408.02C341.28 414.79 328.47 424.67 317.47 437.6C310.65 445.61 310.21 450.41 310.94 451.82C311.56 453.04 314.23 454.12 318.2 453.94H318.19Z" fill="#EDEBE8"/>
<path d="M516.08 295.26L527.57 306.4C527.19 306.79 518.13 316.07 504.29 321.57C491.01 326.84 470.8 329.64 449.96 313.01L459.94 300.5C488.26 323.09 514.97 296.41 516.09 295.26H516.08Z" fill="#EDEBE8"/>
<path d="M326.68 499.67L330.76 515.14C330.23 515.28 317.68 518.54 302.99 516.09C288.9 513.74 270.15 505.69 260.9 480.68L275.91 475.13C288.48 509.11 325.13 500.07 326.68 499.67Z" fill="#EDEBE8"/>
<path d="M450.55 370.68C458.608 370.68 465.14 364.148 465.14 356.09C465.14 348.032 458.608 341.5 450.55 341.5C442.492 341.5 435.96 348.032 435.96 356.09C435.96 364.148 442.492 370.68 450.55 370.68Z" fill="#EDEBE8"/>
<path d="M487.27 294.44C495.328 294.44 501.86 287.908 501.86 279.85C501.86 271.792 495.328 265.26 487.27 265.26C479.212 265.26 472.68 271.792 472.68 279.85C472.68 287.908 479.212 294.44 487.27 294.44Z" fill="#EDEBE8"/>
<path d="M649.34 587.3C657.398 587.3 663.93 580.768 663.93 572.71C663.93 564.652 657.398 558.12 649.34 558.12C641.282 558.12 634.75 564.652 634.75 572.71C634.75 580.768 641.282 587.3 649.34 587.3Z" fill="#EDEBE8"/>
<path d="M526.56 568.54C534.618 568.54 541.15 562.008 541.15 553.95C541.15 545.892 534.618 539.36 526.56 539.36C518.502 539.36 511.97 545.892 511.97 553.95C511.97 562.008 518.502 568.54 526.56 568.54Z" fill="#EDEBE8"/>
<path d="M367.69 488.34C375.748 488.34 382.28 481.808 382.28 473.75C382.28 465.692 375.748 459.16 367.69 459.16C359.632 459.16 353.1 465.692 353.1 473.75C353.1 481.808 359.632 488.34 367.69 488.34Z" fill="#EDEBE8"/>
<path d="M292.75 658.43C300.808 658.43 307.34 651.898 307.34 643.84C307.34 635.782 300.808 629.25 292.75 629.25C284.692 629.25 278.16 635.782 278.16 643.84C278.16 651.898 284.692 658.43 292.75 658.43Z" fill="#EDEBE8"/>
<path d="M632.98 234.3C641.038 234.3 647.57 227.768 647.57 219.71C647.57 211.652 641.038 205.12 632.98 205.12C624.922 205.12 618.39 211.652 618.39 219.71C618.39 227.768 624.922 234.3 632.98 234.3Z" fill="#EDEBE8"/>
<path d="M446.9 248.42L458.14 259.81C448.14 269.73 421.16 284.23 390.65 268.1L398.13 253.96C425.69 268.53 446.05 249.25 446.9 248.42Z" fill="#EDEBE8"/>
</g>
</svg>
